<?xml version="1.0" encoding="UTF-8"?>
<svg xmlns="http://www.w3.org/2000/svg" xmlns:xlink="http://www.w3.org/1999/xlink" width="48px" height="48px" viewBox="0 0 48 48" version="1.1">
<g id="surface1">
<path style=" stroke:none;fill-rule:nonzero;fill:rgb(77.254903%,97.254902%,96.470588%);fill-opacity:1;" d="M 18.859375 27.984375 C 18.109375 27.984375 17.640625 27.949219 17.566406 27.941406 C 16.292969 27.828125 15.351562 26.707031 15.464844 25.433594 C 15.574219 24.160156 16.691406 23.21875 17.96875 23.328125 C 18.070312 23.335938 24.242188 23.789062 28.878906 20.449219 C 29.917969 19.703125 31.363281 19.9375 32.109375 20.976562 C 32.855469 22.015625 32.621094 23.460938 31.582031 24.207031 C 26.914062 27.566406 21.339844 27.984375 18.859375 27.984375 Z M 18.859375 27.984375 "/>
<path style=" stroke:none;fill-rule:nonzero;fill:rgb(64.313728%,87.450981%,87.450981%);fill-opacity:1;" d="M 15.226562 23.746094 C 15.226562 23.746094 15.660156 25.5625 17.296875 25.78125 C 18.929688 26 25.035156 24.910156 26.199219 24.617188 C 27.359375 24.328125 27.722656 21.710938 27.578125 20.695312 C 27.433594 19.675781 27.503906 18.914062 28.921875 18.476562 C 30.339844 18.042969 37.058594 19.351562 37.058594 19.351562 C 37.058594 19.351562 35.0625 30.46875 28.847656 32.355469 C 22.636719 34.246094 11.191406 32.792969 10.574219 31.121094 C 9.957031 29.449219 15.226562 23.746094 15.226562 23.746094 Z M 15.226562 23.746094 "/>
<path style="fill:none;stroke-width:2.19;stroke-linecap:butt;stroke-linejoin:miter;stroke:rgb(27.450982%,35.686275%,35.294119%);stroke-opacity:1;stroke-miterlimit:10;" d="M 196.451823 291.503906 C 188.639323 291.503906 183.75651 291.137695 182.983398 291.056315 C 169.718424 289.876302 159.912109 278.198242 161.092122 264.933268 C 162.231445 251.668294 173.868815 241.861979 187.174479 243.001302 C 188.232422 243.082682 252.522786 247.802734 300.82194 213.012695 C 311.645508 205.240885 326.700846 207.682292 334.472656 218.505859 C 342.244466 229.329427 339.80306 244.384766 328.979492 252.156576 C 280.354818 287.150065 222.290039 291.503906 196.451823 291.503906 Z M 196.451823 291.503906 " transform="matrix(0.096,0,0,0.096,0,0)"/>
</g>
</svg>
