<svg width="24" height="24" viewBox="0 0 24 24" fill="none" xmlns="http://www.w3.org/2000/svg">
<mask id="mask0_6599_10" style="mask-type:alpha" maskUnits="userSpaceOnUse" x="0" y="0" width="24" height="24">
<rect width="24" height="24" fill="#D9D9D9"/>
</mask>
<g mask="url(#mask0_6599_10)">
<path d="M16.6116 12.7508H5.25C5.03718 12.7508 4.85898 12.679 4.7154 12.5354C4.5718 12.3919 4.5 12.2137 4.5 12.0008C4.5 11.788 4.5718 11.6098 4.7154 11.4662C4.85898 11.3227 5.03718 11.2509 5.25 11.2509H16.6116L13.3192 7.95851C13.1705 7.80979 13.0971 7.63576 13.099 7.43641C13.1009 7.23706 13.1743 7.05982 13.3192 6.90468C13.4743 6.74957 13.6525 6.66944 13.8538 6.66431C14.0551 6.65918 14.2333 6.73418 14.3884 6.88931L18.8672 11.3682C18.9608 11.4617 19.0269 11.5605 19.0653 11.6643C19.1038 11.7681 19.123 11.8803 19.123 12.0008C19.123 12.1214 19.1038 12.2335 19.0653 12.3374C19.0269 12.4412 18.9608 12.5399 18.8672 12.6335L14.3884 17.1124C14.2397 17.2611 14.0631 17.3345 13.8586 17.3326C13.6541 17.3306 13.4743 17.2521 13.3192 17.097C13.1743 16.9419 13.0993 16.7662 13.0942 16.5701C13.0891 16.3739 13.1641 16.1983 13.3192 16.0432L16.6116 12.7508Z" fill="#B20A2F"/>
</g>
</svg>
