<svg width="24" height="24" viewBox="0 0 24 24" fill="none" xmlns="http://www.w3.org/2000/svg">
<mask id="mask0_6697_1684" style="mask-type:alpha" maskUnits="userSpaceOnUse" x="0" y="0" width="24" height="24">
<rect width="24" height="24" fill="#D9D9D9"/>
</mask>
<g mask="url(#mask0_6697_1684)">
<mask id="mask1_6697_1684" style="mask-type:alpha" maskUnits="userSpaceOnUse" x="0" y="0" width="24" height="24">
<rect width="24" height="24" fill="#D9D9D9"/>
</mask>
<g mask="url(#mask1_6697_1684)">
<path d="M12.0029 15.577C13.1361 15.577 14.0985 15.1804 14.8902 14.3872C15.6819 13.5941 16.0777 12.6309 16.0777 11.4978C16.0777 10.3646 15.6811 9.40217 14.8879 8.6105C14.0948 7.81883 13.1316 7.423 11.9984 7.423C10.8653 7.423 9.90285 7.81958 9.11119 8.61275C8.31952 9.40592 7.92369 10.3691 7.92369 11.5023C7.92369 12.6354 8.32027 13.5978 9.11344 14.3895C9.9066 15.1812 10.8698 15.577 12.0029 15.577ZM12.0007 14.2C11.2507 14.2 10.6132 13.9375 10.0882 13.4125C9.56319 12.8875 9.30069 12.25 9.30069 11.5C9.30069 10.75 9.56319 10.1125 10.0882 9.5875C10.6132 9.0625 11.2507 8.8 12.0007 8.8C12.7507 8.8 13.3882 9.0625 13.9132 9.5875C14.4382 10.1125 14.7007 10.75 14.7007 11.5C14.7007 12.25 14.4382 12.8875 13.9132 13.4125C13.3882 13.9375 12.7507 14.2 12.0007 14.2ZM12.0007 18.5C9.89552 18.5 7.97019 17.9384 6.22469 16.8152C4.47919 15.6922 3.08594 14.2148 2.04494 12.3828C1.9616 12.2391 1.90069 12.0943 1.86219 11.9485C1.82385 11.8027 1.80469 11.653 1.80469 11.4995C1.80469 11.346 1.82385 11.1965 1.86219 11.051C1.90069 10.9055 1.9616 10.7609 2.04494 10.6172C3.08594 8.78525 4.47919 7.30775 6.22469 6.18475C7.97019 5.06158 9.89552 4.5 12.0007 4.5C14.1059 4.5 16.0312 5.06158 17.7767 6.18475C19.5222 7.30775 20.9154 8.78525 21.9564 10.6172C22.0398 10.7609 22.1007 10.9057 22.1392 11.0515C22.1775 11.1973 22.1967 11.347 22.1967 11.5005C22.1967 11.654 22.1775 11.8035 22.1392 11.949C22.1007 12.0945 22.0398 12.2391 21.9564 12.3828C20.9154 14.2148 19.5222 15.6922 17.7767 16.8152C16.0312 17.9384 14.1059 18.5 12.0007 18.5ZM12.0007 17C13.884 17 15.6132 16.5042 17.1882 15.5125C18.7632 14.5208 19.9674 13.1833 20.8007 11.5C19.9674 9.81667 18.7632 8.47917 17.1882 7.4875C15.6132 6.49583 13.884 6 12.0007 6C10.1174 6 8.38819 6.49583 6.81319 7.4875C5.23819 8.47917 4.03402 9.81667 3.20069 11.5C4.03402 13.1833 5.23819 14.5208 6.81319 15.5125C8.38819 16.5042 10.1174 17 12.0007 17Z" fill="#B20A2F"/>
</g>
</g>
</svg>
