<svg width="24" height="24" viewBox="0 0 24 24" fill="none" xmlns="http://www.w3.org/2000/svg">
<mask id="mask0_7093_41239" style="mask-type:alpha" maskUnits="userSpaceOnUse" x="0" y="0" width="24" height="24">
<rect width="24" height="24" fill="#D9D9D9"/>
</mask>
<g mask="url(#mask0_7093_41239)">
<path d="M14.8776 8.62484C15.2839 9.03134 15.598 9.52526 15.8198 10.1066C16.0416 10.6881 16.1256 11.2718 16.0716 11.8576C16.0716 12.0499 16.0024 12.2128 15.8641 12.3461C15.7256 12.4794 15.5601 12.5461 15.3678 12.5461C15.1755 12.5461 15.0126 12.4794 14.8793 12.3461C14.746 12.2128 14.6793 12.0499 14.6793 11.8576C14.7435 11.4179 14.7073 11.0013 14.5708 10.6076C14.4343 10.2141 14.2244 9.87568 13.9411 9.59234C13.6577 9.30901 13.3161 9.09393 12.9161 8.94709C12.5161 8.80026 12.0942 8.76209 11.6506 8.83259C11.4582 8.83909 11.2922 8.77468 11.1526 8.63934C11.0127 8.50418 10.9396 8.34043 10.9333 8.14809C10.9268 7.95576 10.9886 7.78968 11.1188 7.64984C11.249 7.51018 11.4102 7.43718 11.6026 7.43084C12.1846 7.36418 12.7695 7.44009 13.3573 7.65859C13.9451 7.87726 14.4519 8.19934 14.8776 8.62484ZM12.0006 6.00184C11.6454 6.00184 11.297 6.01918 10.9553 6.05384C10.6136 6.08834 10.2736 6.14534 9.93506 6.22484C9.72223 6.26851 9.53056 6.23809 9.36006 6.13359C9.18956 6.02909 9.07231 5.87876 9.00831 5.68259C8.94415 5.48009 8.96531 5.28751 9.07181 5.10484C9.17815 4.92218 9.33256 4.80901 9.53506 4.76534C9.93773 4.66918 10.3445 4.60126 10.7553 4.56159C11.1663 4.52176 11.5814 4.50184 12.0006 4.50184C14.1492 4.50184 16.123 5.06018 17.9218 6.17684C19.7205 7.29351 21.1037 8.80443 22.0716 10.7096C22.1382 10.8364 22.1866 10.9643 22.2168 11.0931C22.247 11.2219 22.2621 11.3582 22.2621 11.5018C22.2621 11.6455 22.2496 11.7818 22.2246 11.9106C22.1996 12.0394 22.1537 12.1673 22.0871 12.2941C21.7807 12.9351 21.4083 13.5328 20.9698 14.0873C20.5313 14.6418 20.0486 15.1512 19.5216 15.6153C19.3666 15.7538 19.1894 15.8112 18.9901 15.7873C18.7906 15.7637 18.6267 15.664 18.4986 15.4883C18.3704 15.3127 18.3172 15.1243 18.3391 14.9231C18.3609 14.7218 18.4493 14.5518 18.6043 14.4133C19.0556 14.0043 19.4672 13.5573 19.8391 13.0721C20.2109 12.5868 20.5314 12.0633 20.8006 11.5018C19.9672 9.81851 18.7631 8.48101 17.1881 7.48934C15.6131 6.49768 13.8839 6.00184 12.0006 6.00184ZM12.0006 18.5018C9.8954 18.5018 7.9659 17.9393 6.21206 16.8143C4.45823 15.6893 3.06406 14.2076 2.02956 12.3691C1.94623 12.2423 1.88531 12.1044 1.84681 11.9556C1.80831 11.8069 1.78906 11.6557 1.78906 11.5018C1.78906 11.348 1.80573 11.1993 1.83906 11.0556C1.8724 10.9121 1.93073 10.7718 2.01406 10.6346C2.3859 9.95509 2.80706 9.30793 3.27756 8.69309C3.74806 8.07843 4.28906 7.52751 4.90056 7.04034L2.64281 4.76709C2.50448 4.61843 2.43623 4.44184 2.43806 4.23734C2.44006 4.03284 2.51348 3.85818 2.65831 3.71334C2.80315 3.56851 2.97881 3.49609 3.18531 3.49609C3.39165 3.49609 3.56723 3.56851 3.71206 3.71334L20.2891 20.2903C20.4276 20.4288 20.501 20.6003 20.5093 20.8046C20.5176 21.0091 20.4442 21.1889 20.2891 21.3441C20.1442 21.4889 19.9686 21.5613 19.7621 21.5613C19.5557 21.5613 19.3801 21.4889 19.2353 21.3441L15.7161 17.8556C15.1262 18.0838 14.5201 18.2485 13.8976 18.3498C13.2752 18.4512 12.6429 18.5018 12.0006 18.5018ZM5.95456 8.09409C5.36856 8.54676 4.8419 9.05859 4.37456 9.62959C3.90723 10.2008 3.5159 10.8248 3.20056 11.5018C4.0339 13.1852 5.23806 14.5227 6.81306 15.5143C8.38806 16.506 10.1172 17.0018 12.0006 17.0018C12.4301 17.0018 12.8528 16.973 13.2688 16.9153C13.6848 16.8577 14.098 16.7686 14.5083 16.6481L13.2428 15.3518C13.0403 15.4403 12.8381 15.5003 12.6361 15.5316C12.4342 15.5631 12.2224 15.5788 12.0006 15.5788C10.8659 15.5788 9.90273 15.183 9.11106 14.3913C8.3194 13.5997 7.92356 12.6365 7.92356 11.5018C7.92356 11.28 7.9409 11.0682 7.97556 10.8663C8.01023 10.6643 8.06856 10.4621 8.15056 10.2596L5.95456 8.09409Z" fill="#B20A2F"/>
</g>
</svg>
