<svg width="32" height="32" viewBox="0 0 32 32" fill="none" xmlns="http://www.w3.org/2000/svg">
<g clip-path="url(#clip0_6524_24514)">
<path d="M16 32C24.8366 32 32 24.8366 32 16C32 7.16344 24.8366 0 16 0C7.16344 0 0 7.16344 0 16C0 24.8366 7.16344 32 16 32Z" fill="#FF0043"/>
<path d="M15.9997 2.26953C8.42854 2.26953 2.26953 8.4292 2.26953 15.9997C2.26953 23.5702 8.4292 29.7299 15.9997 29.7299C23.5702 29.7299 29.7299 23.5702 29.7299 15.9997C29.7299 8.4292 23.5709 2.26953 15.9997 2.26953ZM28.4769 15.7366H25.108C25.0567 13.9305 24.4766 12.2539 23.5176 10.8569L25.9657 9.17375C26.0558 9.11192 26.0781 8.98893 26.0163 8.89948C25.9545 8.80937 25.8315 8.787 25.742 8.84883L23.288 10.5359C22.5816 9.59601 21.6983 8.79687 20.688 8.18847L22.1633 5.61279C22.2172 5.51807 22.185 5.39771 22.0903 5.34377C21.9956 5.28918 21.8752 5.32273 21.8213 5.41678L20.3467 7.99246C19.122 7.32552 17.7282 6.93088 16.2477 6.89142L16.2358 3.90729C16.2358 3.76258 16.1174 3.64551 15.9727 3.64551H15.9714C15.8261 3.64551 15.709 3.76456 15.7096 3.90992L15.7215 6.89339C13.6818 6.95522 11.8086 7.69056 10.3169 8.88435L8.13979 6.31524C10.2873 4.56896 13.0241 3.52054 16.001 3.52054C22.7947 3.52054 28.3374 8.97709 28.4782 15.7379L28.4769 15.7366ZM21.8351 22.2021L19.9553 19.9836C20.3368 19.6054 20.6637 19.1726 20.9248 18.6984L23.5057 20.0283C23.0677 20.8406 22.502 21.574 21.8351 22.2015V22.2021ZM8.31344 19.6751L10.9345 18.4274C11.2134 19.0069 11.5883 19.5311 12.0395 19.9796L10.0952 22.137C9.36383 21.4332 8.75806 20.6005 8.31344 19.6758V19.6751ZM3.52251 16.2628H6.89142C6.92628 17.4796 7.20055 18.6372 7.66886 19.6902L4.62684 21.1386C3.94938 19.6462 3.55869 17.9972 3.52251 16.2628ZM10.2972 9.67494L12.175 11.8908C11.1331 12.861 10.4596 14.2212 10.3892 15.7366H7.48403C7.55704 13.3352 8.62915 11.1805 10.2972 9.67494ZM15.9997 20.6959C15.7471 20.6959 15.4998 20.6755 15.2578 20.6367L15.7399 17.9196C15.8247 17.9308 15.9116 17.9374 15.999 17.9374C16.4456 17.9374 16.8567 17.7854 17.1849 17.5302L17.8828 18.3537C17.3553 18.7891 16.6791 19.0516 15.9431 19.0516C15.8524 19.0516 15.7787 19.1252 15.7787 19.216C15.7787 19.3068 15.8524 19.3804 15.9431 19.3804C16.76 19.3804 17.5105 19.0891 18.0952 18.605L18.9687 19.6356C18.159 20.2986 17.1251 20.6966 15.999 20.6966L15.9997 20.6959ZM11.7659 18.0314L14.2567 16.8455C14.4974 17.3402 14.9434 17.717 15.4827 17.867L14.9999 20.588C13.5727 20.2769 12.3855 19.3166 11.7665 18.0321L11.7659 18.0314ZM12.7709 12.594L13.5963 13.5674C13.109 14.037 12.759 14.654 12.6242 15.3564C12.6071 15.4459 12.6657 15.5321 12.7544 15.5492C12.8439 15.5663 12.9301 15.5077 12.9472 15.4189C13.0675 14.7921 13.3773 14.2409 13.8094 13.8187L14.5599 14.7046C14.306 14.9861 14.1344 15.3426 14.0804 15.7366H11.3114C11.3798 14.502 11.9277 13.3944 12.7709 12.594ZM18.2597 17.9834L17.5559 17.1534C17.746 16.8975 17.8742 16.5936 17.9196 16.2628H18.9838C18.9279 16.9166 18.6648 17.5125 18.2603 17.9834H18.2597ZM14.8513 15.9997C14.8513 15.3663 15.3663 14.8513 15.9997 14.8513C16.6331 14.8513 17.1481 15.3663 17.1481 15.9997C17.1481 16.6331 16.6331 17.1481 15.9997 17.1481C15.3663 17.1481 14.8513 16.6331 14.8513 15.9997ZM17.919 15.7366C17.79 14.7921 16.9791 14.062 15.9997 14.062C15.6176 14.062 15.2617 14.1732 14.9611 14.3646L14.2153 13.4845C14.7105 13.1445 15.3078 12.9478 15.9431 12.9478C17.5368 12.9478 18.849 14.1765 18.9825 15.7366H17.9183H17.919ZM14.0804 16.2628C14.0962 16.3792 14.1225 16.4923 14.158 16.6015L11.6593 17.7914C11.4627 17.3158 11.341 16.8015 11.3114 16.2634H14.0804V16.2628ZM18.4747 18.2373C18.6333 18.0577 18.7734 17.8617 18.8917 17.6513L20.1053 18.2768C19.9007 18.6438 19.6488 18.9805 19.3574 19.2785L18.4747 18.2373ZM19.0647 17.2967C19.1996 16.9745 19.2844 16.6265 19.3127 16.2628H20.688C20.6551 16.8521 20.5131 17.4118 20.2815 17.9236L19.0647 17.2961V17.2967ZM19.3127 15.7366C19.1779 13.9949 17.719 12.619 15.9431 12.619C15.2275 12.619 14.5553 12.8446 14.0022 13.2326L13.1714 12.2526C13.9588 11.6567 14.9381 11.3028 15.999 11.3028C17.5217 11.3028 18.876 12.0316 19.735 13.1576C19.7402 13.1728 19.7475 13.1879 19.7573 13.2017C19.7692 13.2195 19.7843 13.2333 19.8001 13.2458C20.3144 13.9535 20.6361 14.8092 20.6874 15.7359H19.312L19.3127 15.7366ZM18.9503 11.2226L20.3933 8.70216C21.3273 9.26649 22.1442 10.0045 22.7993 10.872L20.4032 12.5196C19.9981 12.0079 19.5067 11.5679 18.9496 11.2232L18.9503 11.2226ZM18.6076 11.0272C17.8999 10.655 17.1047 10.428 16.2602 10.3899L16.2483 7.48403C17.621 7.5235 18.9135 7.8892 20.0507 8.50681L18.6069 11.0279L18.6076 11.0272ZM15.734 10.3892C14.5487 10.4445 13.4595 10.87 12.5769 11.5508L10.699 9.33489C12.0875 8.22793 13.8279 7.54586 15.7228 7.48469L15.7346 10.3899L15.734 10.3892ZM7.48403 16.2628H10.3892C10.4208 16.9422 10.5734 17.5914 10.826 18.1873L8.20359 19.4357C7.77146 18.4596 7.51824 17.3882 7.48338 16.2628H7.48403ZM12.3302 20.2467C13.036 20.857 13.8936 21.2958 14.8388 21.4951L14.331 24.3549C12.84 24.0576 11.4877 23.3696 10.386 22.4027L12.3302 20.246V20.2467ZM15.0973 21.5431C15.3913 21.5911 15.6925 21.6167 15.9997 21.6167C16.3069 21.6167 16.5943 21.5924 16.8817 21.547L17.3967 24.4049C16.9422 24.4805 16.4759 24.52 15.9997 24.52C15.5235 24.52 15.0486 24.4792 14.5895 24.4029L15.0973 21.5437V21.5431ZM17.1402 21.5003C18.0466 21.3129 18.874 20.9057 19.5639 20.3374L21.4405 22.5514C20.3684 23.4433 19.0746 24.0773 17.6552 24.3582L17.1402 21.5003ZM21.1011 18.3458C21.3964 17.7065 21.5753 17.0034 21.6102 16.2628H24.5154C24.4779 17.4822 24.1839 18.6379 23.6846 19.6771L21.1011 18.3458ZM21.6102 15.7366C21.5602 14.6645 21.2089 13.67 20.6387 12.8367L23.0302 11.1923C23.9234 12.494 24.4641 14.0548 24.5154 15.7366H21.6102ZM7.73726 6.65463L9.91436 9.22374C8.11809 10.8385 6.96508 13.155 6.89142 15.7366H3.52251C3.59749 12.1263 5.21354 8.88829 7.73726 6.65463ZM4.73866 21.3773L7.77936 19.9296C8.25687 20.9248 8.91066 21.8206 9.69862 22.5764L7.63137 24.8699C7.55836 24.9508 7.56494 25.0757 7.64584 25.1488C7.68333 25.183 7.73068 25.1994 7.77804 25.1994C7.83197 25.1994 7.88591 25.1777 7.92472 25.1343L9.99 22.8434C11.1726 23.8833 12.6249 24.6219 14.2278 24.9389L13.6391 28.2559C9.70585 27.4995 6.42377 24.8916 4.73866 21.3773ZM13.8976 28.3026L14.4863 24.9856C14.9789 25.0685 15.484 25.1119 15.9997 25.1119C16.5154 25.1119 17.0126 25.0692 17.5013 24.9876L18.0985 28.3026C17.4158 28.419 16.7147 28.4802 15.9997 28.4802C15.2847 28.4802 14.581 28.4183 13.8976 28.3019V28.3026ZM18.3577 28.2559L17.7604 24.9409C19.2844 24.6416 20.6735 23.9609 21.8233 23.0026L23.1223 24.5351C23.1742 24.5963 23.2486 24.6278 23.3229 24.6278C23.3827 24.6278 23.4433 24.6074 23.4926 24.5653C23.6037 24.4713 23.6169 24.3055 23.5235 24.1944L22.2172 22.6533C22.9427 21.9752 23.557 21.1807 24.0306 20.2993L24.9534 20.7748C24.9823 20.79 25.0133 20.7965 25.0435 20.7965C25.1152 20.7965 25.1843 20.7577 25.2191 20.6893C25.2691 20.5926 25.231 20.4736 25.1343 20.4236L24.2102 19.9474C24.7515 18.8266 25.0692 17.5783 25.1073 16.2615H28.4762C28.3526 22.2199 24.0319 27.1647 18.357 28.2546L18.3577 28.2559Z" fill="url(#paint0_linear_6524_24514)"/>
</g>
<defs>
<linearGradient id="paint0_linear_6524_24514" x1="4.11118" y1="22.8638" x2="27.8882" y2="9.13626" gradientUnits="userSpaceOnUse">
<stop offset="0.12" stop-color="white" stop-opacity="0"/>
<stop offset="0.44" stop-color="white"/>
</linearGradient>
<clipPath id="clip0_6524_24514">
<rect width="32" height="32" fill="white"/>
</clipPath>
</defs>
</svg>
