<svg width="32" height="32" viewBox="0 0 32 32" fill="none" xmlns="http://www.w3.org/2000/svg">
<g clip-path="url(#clip0_6697_1424)">
<path d="M16 32C24.8366 32 32 24.8366 32 16C32 7.16344 24.8366 0 16 0C7.16344 0 0 7.16344 0 16C0 24.8366 7.16344 32 16 32Z" fill="#201E3D"/>
<path d="M8.72612 10.7327C8.72612 10.4188 8.71393 10.1018 8.72612 9.78792C8.7505 9.19668 9.12841 8.81573 9.72269 8.80049C10.3535 8.78525 10.9844 8.78525 11.6122 8.80049C12.2035 8.81573 12.5905 9.20582 12.6057 9.79401C12.621 10.434 12.621 11.0771 12.6057 11.7171C12.5905 12.3053 12.2004 12.6923 11.6092 12.7045C10.9783 12.7197 10.3475 12.7197 9.71964 12.7045C9.12536 12.6893 8.7505 12.3053 8.72612 11.711C8.71393 11.3849 8.72612 11.0588 8.72612 10.7327Z" fill="white"/>
<path d="M17.8246 10.7684C17.8246 11.0732 17.8307 11.3779 17.8246 11.6796C17.8064 12.2892 17.4285 12.6853 16.825 12.7006C16.1942 12.7158 15.5633 12.7158 14.9355 12.7006C14.3412 12.6853 13.9603 12.3013 13.945 11.7071C13.9298 11.0671 13.9298 10.424 13.945 9.78401C13.9603 9.19278 14.3473 8.81182 14.9416 8.79658C15.5725 8.78135 16.2033 8.78135 16.8311 8.79658C17.4224 8.81182 17.8033 9.20192 17.8246 9.79011C17.8368 10.1162 17.8246 10.4423 17.8246 10.7684Z" fill="white"/>
<path d="M12.611 15.9777C12.611 16.2916 12.6201 16.6085 12.611 16.9224C12.5896 17.5106 12.2087 17.9007 11.6174 17.9159C10.9866 17.9312 10.3588 17.9312 9.72792 17.9159C9.13363 17.9007 8.74659 17.5198 8.73135 16.9285C8.71306 16.2885 8.71611 15.6455 8.73135 15.0055C8.74659 14.399 9.13973 14.0211 9.75535 14.0119C10.3649 13.9998 10.9713 14.0028 11.5809 14.0119C12.2056 14.0211 12.5957 14.4112 12.614 15.0329C12.6232 15.3468 12.614 15.6638 12.614 15.9777H12.611Z" fill="white"/>
<path d="M17.8255 15.981C17.8255 16.295 17.8346 16.6119 17.8255 16.9258C17.8042 17.514 17.4202 17.9041 16.832 17.9163C16.2011 17.9315 15.5703 17.9315 14.9425 17.9163C14.3482 17.901 13.9642 17.5201 13.9489 16.9289C13.9337 16.2889 13.9337 15.6458 13.9489 15.0058C13.9642 14.4115 14.3482 14.0306 14.9394 14.0153C15.5703 14.0001 16.1981 14.0001 16.8289 14.0153C17.4324 14.0306 17.8103 14.4268 17.8285 15.0363C17.8377 15.3502 17.8285 15.6671 17.8285 15.981H17.8255Z" fill="white"/>
<path d="M19.3921 10.7327C19.3921 10.4188 19.3799 10.1018 19.3921 9.78792C19.4165 9.19668 19.7944 8.81573 20.3887 8.80049C21.0196 8.78525 21.6504 8.78525 22.2782 8.80049C22.8695 8.81573 23.2565 9.20582 23.2718 9.79401C23.287 10.434 23.287 11.0771 23.2718 11.7171C23.2565 12.3053 22.8664 12.6923 22.2752 12.7045C21.6443 12.7197 21.0135 12.7197 20.3857 12.7045C19.7914 12.6893 19.4165 12.3053 19.3921 11.711C19.3799 11.3849 19.3921 11.0588 19.3921 10.7327Z" fill="white"/>
<path d="M23.275 15.9777C23.275 16.2916 23.2842 16.6085 23.275 16.9224C23.2537 17.5106 22.8727 17.9007 22.2815 17.9159C21.6506 17.9312 21.0228 17.9312 20.392 17.9159C19.7977 17.9007 19.4106 17.5198 19.3954 16.9285C19.3771 16.2885 19.3802 15.6455 19.3954 15.0055C19.4106 14.399 19.8038 14.0211 20.4194 14.0119C21.0289 13.9998 21.6354 14.0028 22.2449 14.0119C22.8697 14.0211 23.2598 14.4112 23.2781 15.0329C23.2872 15.3468 23.2781 15.6638 23.2781 15.9777H23.275Z" fill="white"/>
<path d="M12.611 21.2589C12.611 21.5728 12.6201 21.8898 12.611 22.2037C12.5896 22.7919 12.2087 23.182 11.6174 23.1972C10.9866 23.2124 10.3588 23.2124 9.72792 23.1972C9.13363 23.182 8.74659 22.801 8.73135 22.2098C8.71306 21.5698 8.71611 20.9267 8.73135 20.2867C8.74659 19.6802 9.13973 19.3023 9.75535 19.2932C10.3649 19.281 10.9713 19.2841 11.5809 19.2932C12.2056 19.3023 12.5957 19.6924 12.614 20.3141C12.6232 20.6281 12.614 20.945 12.614 21.2589H12.611Z" fill="white"/>
<path d="M17.8255 21.2623C17.8255 21.5762 17.8346 21.8932 17.8255 22.2071C17.8042 22.7953 17.4202 23.1853 16.832 23.1975C16.2011 23.2128 15.5703 23.2128 14.9425 23.1975C14.3482 23.1823 13.9642 22.8013 13.9489 22.2101C13.9337 21.5701 13.9337 20.9271 13.9489 20.2871C13.9642 19.6928 14.3482 19.3118 14.9394 19.2966C15.5703 19.2813 16.1981 19.2813 16.8289 19.2966C17.4324 19.3118 17.8103 19.708 17.8285 20.3175C17.8377 20.6314 17.8285 20.9484 17.8285 21.2623H17.8255Z" fill="white"/>
<path d="M23.275 21.2589C23.275 21.5728 23.2842 21.8898 23.275 22.2037C23.2537 22.7919 22.8727 23.182 22.2815 23.1972C21.6506 23.2124 21.0228 23.2124 20.392 23.1972C19.7977 23.182 19.4106 22.801 19.3954 22.2098C19.3771 21.5698 19.3802 20.9267 19.3954 20.2867C19.4106 19.6802 19.8038 19.3023 20.4194 19.2932C21.0289 19.281 21.6354 19.2841 22.2449 19.2932C22.8697 19.3023 23.2598 19.6924 23.2781 20.3141C23.2872 20.6281 23.2781 20.945 23.2781 21.2589H23.275Z" fill="white"/>
</g>
<defs>
<clipPath id="clip0_6697_1424">
<rect width="32" height="32" fill="white"/>
</clipPath>
</defs>
</svg>
