<svg width="40" height="40" viewBox="0 0 40 40" fill="none" xmlns="http://www.w3.org/2000/svg">
<mask id="mask0_6599_93" style="mask-type:alpha" maskUnits="userSpaceOnUse" x="8" y="8" width="24" height="24">
<rect x="8" y="8" width="24" height="24" fill="#D9D9D9"/>
</mask>
<g mask="url(#mask0_6599_93)">
<mask id="mask1_6599_93" style="mask-type:alpha" maskUnits="userSpaceOnUse" x="8" y="8" width="24" height="24">
<rect x="8" y="8" width="24" height="24" fill="#D9D9D9"/>
</mask>
<g mask="url(#mask1_6599_93)">
<path d="M12.75 25.2692C12.5375 25.2692 12.3594 25.1973 12.2156 25.0535C12.0719 24.9097 12 24.7315 12 24.5189C12 24.3063 12.0719 24.1282 12.2156 23.9846C12.3594 23.841 12.5375 23.7692 12.75 23.7692H28.25C28.4625 23.7692 28.6406 23.8411 28.7843 23.985C28.9281 24.1287 29 24.3069 29 24.5195C29 24.7321 28.9281 24.9102 28.7843 25.0538C28.6406 25.1974 28.4625 25.2692 28.25 25.2692H12.75ZM12.75 20.3846C12.5375 20.3846 12.3594 20.3127 12.2156 20.1689C12.0719 20.0251 12 19.8469 12 19.6343C12 19.4217 12.0719 19.2436 12.2156 19.1C12.3594 18.9564 12.5375 18.8846 12.75 18.8846H28.25C28.4625 18.8846 28.6406 18.9565 28.7843 19.1003C28.9281 19.2441 29 19.4223 29 19.6349C29 19.8475 28.9281 20.0256 28.7843 20.1692C28.6406 20.3128 28.4625 20.3846 28.25 20.3846H12.75ZM12.75 15.5C12.5375 15.5 12.3594 15.4281 12.2156 15.2842C12.0719 15.1404 12 14.9622 12 14.7496C12 14.5371 12.0719 14.359 12.2156 14.2154C12.3594 14.0718 12.5375 14 12.75 14H28.25C28.4625 14 28.6406 14.0719 28.7843 14.2157C28.9281 14.3595 29 14.5377 29 14.7503C29 14.9629 28.9281 15.141 28.7843 15.2846C28.6406 15.4282 28.4625 15.5 28.25 15.5H12.75Z" fill="#201E3D"/>
</g>
</g>
</svg>
