<svg width="215" height="42" viewBox="0 0 215 42" fill="none" xmlns="http://www.w3.org/2000/svg">
<g clip-path="url(#clip0_6599_83)">
<g clip-path="url(#clip1_6599_83)">
<path d="M20 41C31.0457 41 40 32.0457 40 21C40 9.95431 31.0457 1 20 1C8.95431 1 0 9.95431 0 21C0 32.0457 8.95431 41 20 41Z" fill="#201E3D"/>
<path d="M16.4314 29.2442C15.9171 29.2442 15.498 28.8252 15.498 28.3109V15.3357C15.498 14.8214 15.9171 14.4023 16.4314 14.4023H26.1342C26.6485 14.4023 27.0676 14.8214 27.0676 15.3357" stroke="white" stroke-miterlimit="10"/>
<path d="M14.1443 26.8263C13.63 26.8263 13.2109 26.4072 13.2109 25.8929V12.9177C13.2109 12.4034 13.63 11.9844 14.1443 11.9844H23.8471C24.3614 11.9844 24.7805 12.4034 24.7805 12.9177" stroke="white" stroke-miterlimit="10"/>
<path d="M27.9507 16.1758H18.7126C18.0688 16.1758 17.5469 16.6977 17.5469 17.3415V29.852C17.5469 30.4958 18.0688 31.0177 18.7126 31.0177H27.9507C28.5945 31.0177 29.1164 30.4958 29.1164 29.852V17.3415C29.1164 16.6977 28.5945 16.1758 27.9507 16.1758ZM23.3297 20.4386C24.2021 20.4386 24.9069 21.1472 24.9069 22.0158C24.9069 22.8844 24.1983 23.5929 23.3297 23.5929C22.4612 23.5929 21.7526 22.8844 21.7526 22.0158C21.7526 21.1472 22.4612 20.4386 23.3297 20.4386ZM25.9621 26.3129C25.9621 26.5567 25.764 26.751 25.524 26.751H21.1393C20.8993 26.751 20.7012 26.5567 20.7012 26.3129C20.7012 25.1015 21.684 24.1186 22.8916 24.1186H23.7678C24.9793 24.1186 25.9621 25.0977 25.9621 26.3091V26.3129Z" fill="white"/>
</g>
</g>
<path d="M58.816 15.008H60.432V26H58.816V21.152H52.816V26H51.2V15.008H52.816V19.648H58.816V15.008ZM68.473 17.728H70.057V26H68.473V24.8C67.977 25.616 66.969 26.192 65.849 26.192C64.025 26.192 62.745 24.864 62.745 22.992V17.728H64.297V22.72C64.297 23.952 65.081 24.816 66.201 24.816C67.353 24.816 68.345 24.064 68.473 23.088V17.728ZM81.6031 17.536C83.3311 17.536 84.5791 18.864 84.5791 20.736V26H83.0271V20.976C83.0271 19.76 82.3071 18.912 81.2671 18.912C80.0831 18.912 79.2511 19.696 79.2511 20.832V26H77.6991V20.976C77.6991 19.76 76.9791 18.912 75.9391 18.912C74.7551 18.912 73.9231 19.696 73.9231 20.832V26H72.3391V17.728H73.9231V18.88C74.3391 18.064 75.2031 17.536 76.2591 17.536C77.4591 17.536 78.4351 18.176 78.9151 19.2C79.2991 18.176 80.3551 17.536 81.6031 17.536ZM90.3271 17.536C92.5511 17.536 93.7831 18.944 93.7831 20.992V26H92.2311V24.864C91.6231 25.728 90.4871 26.192 89.4791 26.192C87.7191 26.192 86.4231 25.168 86.4231 23.552C86.4231 21.904 87.9111 20.8 89.7351 20.8C90.5511 20.8 91.4311 20.976 92.2311 21.248V20.992C92.2311 19.952 91.7511 18.848 90.1031 18.848C89.2871 18.848 88.4871 19.168 87.7671 19.536L87.1911 18.368C88.3751 17.776 89.4151 17.536 90.3271 17.536ZM89.7831 24.944C90.8071 24.944 91.9591 24.432 92.2311 23.408V22.304C91.5591 22.096 90.7911 21.984 89.9751 21.984C88.8711 21.984 87.9431 22.608 87.9431 23.504C87.9431 24.4 88.7431 24.944 89.7831 24.944ZM100.282 17.536C102.106 17.536 103.386 18.864 103.386 20.736V26H101.834V21.008C101.834 19.776 101.05 18.912 99.9299 18.912C98.7779 18.912 97.7859 19.664 97.6579 20.64V26H96.0739V17.728H97.6579V18.928C98.1539 18.112 99.1619 17.536 100.282 17.536ZM118.934 26L117.974 23.76H112.246L111.286 26H109.494L114.214 15.008H116.006L120.726 26H118.934ZM112.87 22.304H117.35L115.11 17.088L112.87 22.304ZM126.165 24.512L126.741 25.6C126.293 25.968 125.685 26.192 125.093 26.192C123.813 26.192 122.917 25.264 122.917 23.936V19.072H121.669V17.728H122.917V15.456H124.469V17.728H126.421V19.072H124.469V23.824C124.469 24.4 124.853 24.816 125.317 24.816C125.669 24.816 125.989 24.688 126.165 24.512ZM128.355 26V14.816H129.923V26H128.355ZM135.702 17.536C137.926 17.536 139.158 18.944 139.158 20.992V26H137.606V24.864C136.998 25.728 135.862 26.192 134.854 26.192C133.094 26.192 131.798 25.168 131.798 23.552C131.798 21.904 133.286 20.8 135.11 20.8C135.926 20.8 136.806 20.976 137.606 21.248V20.992C137.606 19.952 137.126 18.848 135.478 18.848C134.662 18.848 133.862 19.168 133.142 19.536L132.566 18.368C133.75 17.776 134.79 17.536 135.702 17.536ZM135.158 24.944C136.182 24.944 137.334 24.432 137.606 23.408V22.304C136.934 22.096 136.166 21.984 135.35 21.984C134.246 21.984 133.318 22.608 133.318 23.504C133.318 24.4 134.118 24.944 135.158 24.944ZM144.441 26.192C143.225 26.192 141.897 25.76 140.905 24.96L141.657 23.824C142.537 24.464 143.481 24.832 144.457 24.832C145.385 24.832 146.025 24.4 146.025 23.76C146.025 22.992 145.177 22.752 144.153 22.464C142.249 21.936 141.305 21.392 141.305 20.048C141.289 18.528 142.553 17.536 144.313 17.536C145.385 17.536 146.473 17.904 147.369 18.496L146.665 19.664C145.865 19.168 145.033 18.896 144.313 18.896C143.497 18.896 142.857 19.248 142.857 19.872C142.857 20.512 143.369 20.704 144.761 21.136C146.121 21.536 147.577 21.984 147.577 23.632C147.577 25.2 146.249 26.192 144.441 26.192ZM157.98 26.176C156.14 26.176 154.62 25.536 153.452 24.416L154.428 23.216C155.404 24.144 156.556 24.752 158.044 24.752C159.564 24.752 160.348 23.952 160.348 23.072C160.348 22.032 159.436 21.632 157.596 21.216C155.356 20.688 153.868 20.016 153.868 18.032C153.868 16.192 155.468 14.8 157.676 14.8C159.372 14.8 160.636 15.424 161.692 16.352L160.764 17.568C159.836 16.72 158.732 16.224 157.612 16.224C156.38 16.224 155.516 17.008 155.516 17.888C155.516 18.912 156.46 19.264 158.268 19.696C160.46 20.208 161.98 20.944 161.98 22.912C161.98 24.768 160.572 26.176 157.98 26.176ZM167.79 24.512L168.366 25.6C167.918 25.968 167.31 26.192 166.718 26.192C165.438 26.192 164.542 25.264 164.542 23.936V19.072H163.294V17.728H164.542V15.456H166.094V17.728H168.046V19.072H166.094V23.824C166.094 24.4 166.478 24.816 166.942 24.816C167.294 24.816 167.614 24.688 167.79 24.512ZM173.9 26.192C171.532 26.192 169.532 24.208 169.532 21.856C169.532 19.504 171.532 17.536 173.9 17.536C176.252 17.536 178.236 19.504 178.236 21.856C178.236 24.208 176.252 26.192 173.9 26.192ZM173.9 24.816C175.388 24.816 176.652 23.472 176.652 21.856C176.652 20.256 175.388 18.912 173.9 18.912C172.38 18.912 171.116 20.256 171.116 21.856C171.116 23.472 172.38 24.816 173.9 24.816ZM181.754 19.312C182.282 18.224 183.402 17.536 184.826 17.536V18.912C183.114 18.912 181.898 19.856 181.754 21.296V26H180.17V17.728H181.754V19.312ZM187.155 16.352C186.611 16.352 186.195 15.904 186.195 15.392C186.195 14.896 186.611 14.448 187.155 14.448C187.667 14.448 188.099 14.896 188.099 15.392C188.099 15.904 187.667 16.352 187.155 16.352ZM186.355 26V17.728H187.939V26H186.355ZM194.022 24.784C194.886 24.784 195.894 24.4 196.39 23.888L197.382 24.912C196.646 25.696 195.206 26.192 194.038 26.192C191.734 26.192 189.782 24.384 189.782 21.84C189.782 19.36 191.622 17.536 193.91 17.536C196.438 17.536 197.894 19.456 197.894 22.416H191.382C191.59 23.792 192.598 24.784 194.022 24.784ZM193.974 18.944C192.694 18.944 191.654 19.808 191.398 21.152H196.358C196.182 19.872 195.398 18.944 193.974 18.944ZM202.722 26.192C201.506 26.192 200.178 25.76 199.186 24.96L199.938 23.824C200.818 24.464 201.762 24.832 202.738 24.832C203.666 24.832 204.306 24.4 204.306 23.76C204.306 22.992 203.458 22.752 202.434 22.464C200.53 21.936 199.586 21.392 199.586 20.048C199.57 18.528 200.834 17.536 202.594 17.536C203.666 17.536 204.754 17.904 205.65 18.496L204.946 19.664C204.146 19.168 203.314 18.896 202.594 18.896C201.778 18.896 201.138 19.248 201.138 19.872C201.138 20.512 201.65 20.704 203.042 21.136C204.402 21.536 205.858 21.984 205.858 23.632C205.858 25.2 204.53 26.192 202.722 26.192Z" fill="#201E3D"/>
<defs>
<clipPath id="clip0_6599_83">
<rect width="40" height="40" fill="white" transform="translate(0 1)"/>
</clipPath>
<clipPath id="clip1_6599_83">
<rect width="40" height="40" fill="white" transform="translate(0 1)"/>
</clipPath>
</defs>
</svg>
