<?xml version="1.0" encoding="UTF-8"?>
<svg width="1923px" height="1131px" viewBox="0 0 1923 1131" version="1.1" xmlns="http://www.w3.org/2000/svg" xmlns:xlink="http://www.w3.org/1999/xlink">
    <!-- Generator: Sketch 62 (91390) - https://sketch.com -->
    <title>2scene2</title>
    <desc>Created with Sketch.</desc>
    <g id="Page-1" stroke="none" stroke-width="1" fill="none" fill-rule="evenodd">
        <g id="2scene2">
            <g>
                <g id="2scene1-(2)" fill-rule="nonzero">
                    <g id="Layer_3">
                        <polygon id="Path" fill="#333333" points="1922 1082 0.5 1082 0.5 0.5 1921 0.5"></polygon>
                        <path d="M1046.54574,1124.13968 C1433.86152,1124.13968 1769.71823,1124.13968 1907.4696,1124.13968 C1969.6211,1124.13968 1862.05389,57.665218 919.683199,57.665218 C76.6652655,57.665218 -37.526892,1124.13968 9.882837,1124.13968 C443.381708,1124.13968 510.000424,1124.13968 1046.54574,1124.13968 Z" id="Oval" fill="#2C2C2C"></path>
                    </g>
                    <g id="Layer_2" transform="translate(532.000000, 484.000000)" fill="#000000">
                        <g id="Group-4" transform="translate(425.000000, 227.000000) scale(-1, 1) translate(-425.000000, -227.000000) ">
                            <g id="Group" transform="translate(0.235663, 0.458502)">
                                <path d="M419.439342,279.26186 C420.046376,268.939612 420.956928,258.471981 420.956928,248.149733 C420.956928,237.827485 420.198135,227.359855 419.591101,217.037607 C418.984066,206.715359 418.680549,196.393112 417.769997,186.070864 C416.707687,175.748617 415.34186,165.426369 413.824273,155.249505 C412.306687,144.927258 410.637343,134.750394 408.664481,124.573531 C405.629308,109.162851 402.290619,93.4614044 394.095654,79.7953297 C388.480586,70.3453851 380.43738,62.4946617 371.78714,55.370857 C363.288657,48.3924361 353.879623,41.8501666 344.167073,36.616351 C333.695729,30.946384 322.313834,26.584871 311.083696,22.5141255 C299.853559,18.44338 288.319905,14.663402 276.482734,12.191878 C264.645562,9.72035395 252.656632,8.12113247 240.667703,7.24882989 C228.527014,6.37652727 216.386325,6.08575973 204.397396,6.95806232 C192.256707,7.83036496 180.267777,9.28420262 168.430605,11.9011104 C156.593434,14.5180182 145.05978,18.1526125 133.829643,22.5141255 C122.751264,26.8756386 112.128162,32.6909893 101.960335,38.9424913 C91.7925086,45.1939932 81.9281994,51.8816466 73.1262003,59.8777538 C64.3242008,67.873861 56.5845118,76.7422709 49.4518573,86.0468317 C42.3192028,95.3513932 36.0970999,105.382873 30.7855486,115.705121 C25.4739973,126.027368 21.0729977,136.93115 17.7343083,147.980317 C14.395619,159.174867 5.34969621,165.725715 4.13562736,177.211032 C2.92155849,188.69635 2.54501006,193.26991 2.54501006,210.585326 C2.54501006,227.900743 0.811141879,336.543064 0.204107452,352.244511 C-0.402926977,367.800574 0.811141879,397.130631 0.204107452,412.686693 C-0.402926977,428.388141 6.04889559,423.191789 11.6639641,437.87555 C17.7343083,453.576997 24.5634457,438.166318 46.2649266,438.020934 C56.2809946,438.020934 67.9664074,437.87555 81.1694059,437.730166 C91.9442673,437.730166 103.62968,437.148631 116.073886,437.003248 C127.152264,436.857864 138.837677,437.148631 150.978366,437.003248 C162.360261,436.857864 174.045674,437.294015 185.882845,437.148631 C197.4165,437.003248 209.101912,436.857864 220.787325,436.71248 C232.472738,436.567096 244.158151,435.694793 255.691805,435.404026 C267.528976,435.113258 279.214389,435.258642 290.596284,434.967875 C302.585214,434.677107 314.270627,433.950188 325.500764,433.659421 C337.94497,433.223269 349.630383,433.077886 360.405244,432.641734 C373.608243,432.060199 385.293655,431.333281 395.157965,430.751746 C416.252411,429.297908 428.696617,427.407919 428.696617,425.227162 C428.696617,421.447184 428.544859,407.054191 427.33079,388.735837 C426.723755,377.541286 426.116721,364.892898 425.206169,352.244511 C424.447376,339.596123 422.92979,326.947735 422.170997,315.753185 C420.653411,294.817922 419.74286,297.580214 419.439342,279.26186 Z" id="Path"></path>
                                <path d="M407.366525,279.26186 C407.948713,272.138055 408.821995,265.01425 409.258636,257.890445 C409.840824,250.766641 409.986371,243.642836 409.695277,236.519032 C409.258636,222.271423 408.967542,207.87843 408.09426,193.776204 C407.220979,179.528595 405.328869,165.280986 403.436758,151.17876 C401.544647,137.221918 399.215897,123.265076 396.304958,109.599002 C393.539565,96.8052307 389.464251,84.0114592 382.186903,72.9622926 C375.055102,62.0585103 364.866816,53.0447167 354.532983,45.0486095 C343.471414,36.4709672 331.391018,29.3471625 318.582886,23.8225794 C305.48366,18.1526125 291.947794,13.0641806 278.26638,8.99343505 C264.293873,4.92268959 250.030272,2.59654931 235.621124,1.28809539 C221.357523,-0.0203585177 206.948374,-0.456509821 192.539227,0.706560322 C164.157571,3.0327006 135.921463,9.8657377 110.74184,23.2410443 C98.6614436,29.6379301 86.7265936,37.197886 75.8105724,45.6301446 C64.8945509,54.0624031 55.2884522,63.9484993 46.5556351,74.7068983 C29.381095,96.078312 16.2818694,120.793553 8.71342799,147.108014 C0.708345731,174.876314 -1.62040548,204.679986 4.34701949,233.175205 C5.07475424,236.664415 5.94803595,240.153626 6.82131765,243.642836 C7.69459934,246.841279 9.15006884,250.185106 9.29561579,253.092781 C9.58670969,257.599678 9.58670969,262.251958 9.29561579,266.758855 C8.71342799,276.644951 8.27678714,286.531048 7.69459934,296.27176 C6.53022375,315.898569 5.65694205,335.525378 4.9292073,355.152186 C4.49256644,364.892898 4.05592559,374.633611 3.91037864,384.374323 C3.76483169,393.824269 4.20147254,403.564981 3.03709694,413.014926 C2.89154999,413.887228 3.03709694,412.724158 3.03709694,412.724158 C3.03709694,413.014926 2.89154999,413.305693 2.89154999,413.596461 C2.74600304,414.177996 2.74600304,414.614147 2.60045608,415.195682 C2.30936218,416.213368 2.16381523,417.231055 1.87272133,418.248742 C1.29053353,420.429498 0.85389268,422.755638 0.417251826,425.081779 C-0.310482927,430.024826 0.85389268,435.258642 2.60045608,439.910923 C4.20147254,444.41782 6.53022375,448.779332 11.0421793,450.960089 C15.6996816,453.140846 20.502731,452.263088 25.0146865,450.669322 C26.470156,450.087787 27.9256255,449.506252 29.381095,448.924716 C30.2543767,448.633949 30.9821115,448.197797 31.8553932,447.90703 C32.1464871,447.761646 33.8930505,447.325495 32.7286749,447.616262 C31.4187523,447.90703 33.3108627,447.470879 33.6019566,447.325495 C35.7851608,446.598576 38.113912,446.162425 40.4426633,445.726274 C41.4614919,445.58089 39.8604754,445.871657 39.8604754,445.726274 C39.8604754,445.726274 40.7337572,445.58089 40.8793041,445.58089 C41.4614919,445.58089 42.1892267,445.435506 42.9169614,445.435506 C44.5179779,445.435506 45.9734473,445.435506 47.5744638,445.435506 C60.6736894,445.435506 73.7729149,445.290122 86.8721403,445.144739 C114.817155,444.563204 142.616623,444.853971 170.561637,444.853971 C185.116332,444.853971 199.671027,444.708587 214.225723,444.41782 C228.489323,444.127052 242.752924,443.25475 257.016526,443.109366 C271.13458,442.963982 285.252634,442.673214 299.225141,442.091679 C312.906555,441.510144 326.442421,441.219377 340.123835,440.783225 C353.077513,440.347074 365.885645,439.620155 378.839324,438.602469 C385.534483,438.166318 392.229643,437.439399 398.924802,436.71248 C402.709023,436.276328 406.493244,435.840177 410.131918,434.677107 C414.498326,433.368653 419.010281,431.042513 419.446923,425.954081 C419.592469,422.901022 419.446923,419.847963 419.301375,416.794903 C419.010281,404.437283 418.282547,392.079664 417.700359,379.867427 C416.972624,365.765201 416.24489,351.517592 415.080514,337.415367 C414.061686,325.493898 413.333951,313.717812 412.315122,301.796343 C412.024028,298.307133 411.732934,294.817922 411.150747,291.474096 C411.150747,291.037945 411.005199,290.747177 411.005199,290.311026 C410.859652,289.147955 411.296293,291.910247 411.005199,290.601794 C410.859652,289.584107 410.714106,288.56642 410.568558,287.548734 C410.423012,286.385664 410.277464,285.367978 410.131918,284.204908 C409.986371,283.623372 409.986371,282.896453 409.840824,282.314918 C409.695277,281.006465 409.54973,280.570313 409.54973,279.843395 C409.404183,271.847287 394.703941,271.847287 394.849488,279.843395 C394.849488,281.442616 394.412847,284.786443 394.2673,287.257967 C394.121753,289.147955 393.976206,291.037945 393.976206,292.927934 C393.830659,295.980992 394.2673,298.888668 394.558394,301.941727 C395.722769,313.572428 396.304958,325.20313 397.323786,336.833832 C398.488162,350.645289 399.215897,364.602131 399.943631,378.413589 C400.671366,390.625825 401.399101,402.983446 401.690195,415.195682 C401.835741,418.539509 401.690195,421.883335 401.835741,425.081779 C401.835741,425.227162 401.835741,425.51793 401.835741,425.663314 C401.544647,424.936395 402.709023,422.755638 402.85457,422.46487 C404.018946,420.865649 404.455586,420.865649 403.873399,421.3018 C406.493244,419.266428 405.619963,420.284114 405.037774,420.574882 C403.000117,421.3018 406.347697,420.284114 405.474415,420.429498 C404.74668,420.574882 404.018946,420.865649 403.291211,421.011033 C401.544647,421.447184 399.798084,421.737952 398.051521,421.883335 C397.032692,422.028719 395.868317,422.174103 394.849488,422.319487 C394.2673,422.46487 393.685113,422.46487 393.102924,422.610254 C392.666284,422.610254 392.229643,422.755638 391.793002,422.755638 C393.102924,422.610254 393.102924,422.610254 392.084096,422.755638 C386.116671,423.337173 380.294793,423.918709 374.327368,424.209476 C348.128917,426.099465 321.784919,426.535616 295.586468,427.698686 C281.759507,428.280221 267.932547,428.570989 253.96004,428.716372 C239.987533,428.861756 226.015025,429.879443 212.042518,430.17021 C184.243051,430.751746 156.298036,430.751746 128.498568,430.606362 C102.15457,430.460978 75.8105724,431.333281 49.3210272,431.624048 C43.4991492,431.624048 37.6772712,431.769432 32.0009401,433.077886 C27.6345316,434.095572 23.559217,435.840177 19.4839023,437.584783 C18.7561676,437.87555 18.1739798,438.166318 17.446245,438.457085 C16.1363225,439.03862 19.4839023,437.87555 18.1739798,438.166318 C17.8828859,438.311702 17.591792,438.311702 17.3006981,438.457085 C17.0096042,438.457085 16.7185103,438.602469 16.4274164,438.602469 C15.1174938,438.893237 18.7561676,438.457085 17.591792,438.457085 C16.8640572,438.457085 15.9907755,438.166318 18.7561676,438.602469 C17.1551511,438.311702 20.502731,439.474772 19.4839023,438.893237 C18.4650737,438.311702 21.2304658,440.20169 20.2116371,439.329388 C19.3383554,438.602469 20.357184,439.03862 20.648278,439.910923 C20.502731,439.474772 19.7749962,438.602469 19.4839023,438.166318 C18.6106206,437.003248 20.0660901,439.620155 19.4839023,438.166318 C19.3383554,437.730166 19.0472615,437.294015 18.9017145,436.71248 C18.3195267,435.258642 17.8828859,433.659421 17.446245,432.060199 C17.3006981,431.478664 17.1551511,430.897129 17.0096042,430.315594 C16.5729633,428.570989 17.1551511,431.624048 17.0096042,430.024826 C16.8640572,429.00714 16.8640572,428.134837 16.8640572,427.117151 C16.8640572,426.390232 16.7185103,425.227162 17.0096042,424.500244 C16.2818694,426.099465 16.8640572,425.372546 17.0096042,424.645627 C17.1551511,424.064092 17.3006981,423.482557 17.446245,423.046405 C18.6106206,418.103358 19.7749962,413.305693 20.0660901,408.217261 C20.648278,399.203468 20.357184,390.335058 20.502731,381.321264 C20.9393719,362.275991 21.8126536,343.230717 22.8314822,324.330827 C23.8503109,304.994786 24.5780456,285.658745 25.7424212,266.17732 C26.0335151,261.670423 25.8879682,257.163526 25.7424212,252.802014 C25.5968743,249.022036 24.4324987,245.823593 23.2681231,242.334382 C22.2492944,238.845172 21.3760127,235.355962 20.502731,231.866751 C17.591792,219.072979 16.7185103,205.552289 17.3006981,192.031599 C18.4650737,165.717137 25.8879682,138.530372 37.9683651,115.414353 C50.048762,92.15295 66.0589265,71.0723039 86.4354996,55.2254732 C97.0604268,46.9385985 106.95762,40.6870964 118.746923,34.4355944 C124.277706,31.3825353 130.099584,28.7656275 136.06701,26.4394872 C142.471076,23.9679632 147.274125,22.2233579 154.114832,20.333369 C160.664445,18.44338 167.359604,16.9895423 174.054764,15.8264722 C181.332112,14.5180182 186.717349,13.9364832 193.412508,13.3549481 C207.530562,12.191878 221.648617,12.4826455 235.621124,13.7910994 C241.443002,14.3726345 248.138162,15.2449371 254.978868,16.553391 C261.819575,17.8618449 268.514735,19.3156826 275.064347,21.3510554 C287.726932,25.1310333 299.952876,29.6379301 312.469914,35.1625133 C324.841405,40.6870964 335.320785,46.9385985 345.800166,55.2254732 C355.551811,62.9308129 363.993535,70.4907689 370.543147,80.9584004 C376.947213,91.1352637 380.294793,103.638268 382.914638,115.705121 C385.825577,128.78966 388.008781,142.019582 389.900891,155.249505 C393.976206,183.017805 395.868317,210.931488 397.323786,238.990555 C398.051521,252.511246 397.323786,265.886553 397.178239,279.26186 C397.032692,284.931827 406.929885,284.786443 407.366525,279.26186 Z" id="Path"></path>
                            </g>
                            <g id="Group" transform="translate(416.983236, 0.288775)">
                                <path d="M421.864522,215.287546 C420.066563,204.663687 418.118774,194.185361 415.721495,183.707034 C413.324217,173.228707 411.076768,162.604849 407.93034,152.417587 C404.634082,142.084793 400.738504,132.043063 396.243607,122.292398 C391.748709,112.3962 386.055173,103.227665 379.912146,94.3501938 C373.76912,85.4727229 367.176604,77.0318487 359.235618,69.3186361 C352.343442,62.7696818 345.301436,56.5117924 337.360451,51.2726291 C329.569295,46.0334659 321.17882,41.2308995 312.788345,36.8649302 C304.24804,32.4989608 295.258245,29.2972499 286.41828,25.8044744 C277.578315,22.3116989 268.88818,18.8189234 259.748555,16.0538095 C250.608931,13.2886955 241.319476,11.2512431 232.030021,9.65038769 C222.740567,8.04953221 213.301282,6.73974141 203.712168,6.59420909 C191.426115,6.44867678 179.289892,7.6129353 167.453329,10.2325169 C155.616765,12.7065662 144.079862,16.781471 132.992448,21.7295696 C121.905035,26.6776682 111.117281,32.2078962 101.228506,39.0479149 C91.3397321,45.8879335 82.0502775,53.6011462 73.5099722,62.1875526 C65.1194973,70.7739591 57.9276615,80.5246243 51.3351453,90.2752888 C44.5927992,100.317019 39.1989222,110.649813 35.1535146,121.564736 C31.1081069,132.625192 28.7108283,143.976712 26.6132095,155.619297 C24.5155907,166.970818 22.7176317,178.613403 21.6688224,190.40152 C20.6200129,202.044105 19.7210335,213.68669 18.9718839,225.474807 C18.2227343,237.262925 17.024095,248.90551 15.8254557,260.548095 C14.9264762,268.40684 14.4769864,279.903892 14.1773267,293.147333 C13.8776668,303.189062 13.578007,314.395051 13.578007,325.892104 C13.578007,336.807027 13.8776668,347.867482 14.0274967,358.636874 C14.1773267,370.424991 14.0274967,381.630979 14.1773267,391.381644 C14.4769864,410.737442 -0.655834818,418.305122 15.0763061,424.126415 C31.1081069,430.093239 32.3067462,423.83535 49.3873564,423.689818 C66.6177965,423.544285 66.6177965,423.689818 83.6984064,423.544285 C100.928847,423.398753 100.928847,423.253221 118.009457,423.253221 C135.239897,423.107688 135.239897,423.107688 152.320507,422.962156 C169.550948,422.816624 169.550948,423.253221 186.631557,423.107688 C203.861998,422.962156 203.861998,422.962156 220.942608,422.816624 C238.173047,422.671092 238.173047,421.94343 255.253658,421.797897 C272.484098,421.652365 272.484098,422.380027 289.564708,422.234495 C306.795148,422.088962 306.795148,421.797897 323.875759,421.652365 C341.106198,421.506833 341.106198,421.94343 358.186809,421.797897 C375.417249,421.652365 375.417249,421.215769 392.497859,421.215769 C409.728299,421.070236 415.272006,433.149418 427.108569,421.070236 C439.394622,408.408925 426.65908,403.460826 426.65908,386.142481 C426.65908,368.824136 426.50925,368.824136 426.50925,351.360258 C426.50925,334.041913 426.958739,334.041913 426.808909,316.578035 C426.808909,299.25969 426.50925,299.25969 426.808909,281.795813 C427.112531,274.7179 426.653215,264.19767 425.879814,253.480743 C424.744944,237.754972 422.933789,221.605674 421.864522,215.287546 Z" id="Path"></path>
                                <path d="M419.410401,247.01359 C417.667882,231.732697 415.199312,216.451804 412.730743,201.316444 C410.407383,186.61768 407.503184,171.918916 403.872935,157.511217 C396.757647,129.714546 384.560009,103.373197 367.134814,80.5246243 C349.709618,57.6760509 326.040394,39.7755764 300.04781,27.9874591 C293.513362,25.0768128 286.978913,22.4572312 280.444465,19.6921173 C273.329177,16.781471 266.359099,14.0163571 259.0986,11.3967754 C245.303653,6.59420909 230.637447,3.39249821 216.116451,1.50057814 C200.433774,-0.536874237 184.896308,-0.391341924 169.358842,2.08270739 C154.837846,4.4112244 140.607269,9.06825841 127.102742,15.0350833 C100.819739,26.8232006 76.7148846,43.7049488 58.2732188,65.9713927 C49.4154109,76.5952513 41.5740728,88.383369 35.1848344,100.753615 C28.3599661,113.851523 23.7132472,127.531561 20.6638379,141.93926 C17.6144287,156.783556 15.1458593,171.773384 13.6937596,186.763212 C12.24166,201.898573 11.3704002,216.888401 10.2087204,232.023762 C9.19225068,245.412734 7.44973115,258.656175 6.72368131,272.045148 C5.99763148,286.01625 5.70721155,300.132884 5.41679162,314.103986 C5.1263717,328.80275 5.56200159,343.501513 5.56200159,358.054744 C5.56200159,365.33136 5.56200159,372.462443 5.70721155,379.739059 C5.70721155,383.086302 5.70721155,386.433546 5.85242152,389.780789 C5.85242152,391.236112 5.85242152,392.545903 5.85242152,394.001226 C5.85242152,394.728887 5.70721155,395.456549 5.70721155,396.038678 C5.70721155,396.329743 5.56200159,396.620808 5.56200159,396.911872 C5.41679162,397.930599 5.85242152,395.311017 5.56200159,397.057404 C4.6907418,401.277841 3.09343219,405.207214 1.64133254,409.282119 C0.33444286,412.920426 -0.682026893,416.849799 0.624862789,420.633639 C2.36738237,425.72727 7.44973115,428.637916 12.09645,430.384304 C17.6144287,432.421757 23.4228272,434.022612 29.3764358,433.440482 C34.1683647,433.003886 38.8150835,431.548563 43.6070124,430.820901 C45.204322,430.529836 42.0097027,430.966433 43.7522223,430.820901 C44.4782721,430.820901 45.3495319,430.675369 46.0755818,430.675369 C47.8181013,430.529836 49.5606209,430.529836 51.3031405,430.529836 C54.0621298,430.529836 56.9663291,430.529836 59.7253185,430.529836 C69.8900162,430.529836 80.1999234,430.529836 90.3646209,430.384304 C110.548806,430.238771 130.587781,429.947707 150.771966,429.802175 C160.646244,429.802175 170.520521,430.093239 180.394799,429.947707 C190.269077,429.947707 200.143354,429.802175 210.017632,429.802175 C220.182329,429.802175 230.347027,429.220045 240.511725,428.928981 C250.676422,428.637916 260.84112,429.074513 271.151027,429.220045 C291.916052,429.656643 312.681077,428.492384 333.300892,428.783448 C343.756009,428.928981 354.211127,428.783448 364.666245,428.492384 C369.603383,428.346852 374.395312,428.20132 379.332451,428.20132 C380.78455,428.20132 382.38186,428.20132 383.83396,428.20132 C385.43127,428.20132 382.09144,427.910255 384.12438,428.20132 C384.705219,428.346852 385.43127,428.346852 386.012109,428.492384 C387.173789,428.783448 388.335468,429.074513 389.642358,429.365578 C390.077988,429.51111 390.513618,429.656643 391.094458,429.802175 C388.625889,429.220045 390.513618,429.656643 391.239668,429.802175 C395.886387,431.548563 400.533106,433.440482 405.615455,433.149418 C412.875953,432.712821 418.393931,428.783448 423.04065,423.544285 C426.525689,419.614913 429.139469,414.521282 428.703839,409.282119 C428.413419,404.770617 426.670899,400.841245 425.2188,396.76634 C424.92838,395.747613 424.49275,394.728887 424.20233,393.710162 C424.05712,393.128032 423.91191,392.545903 423.7667,391.963774 C423.7667,391.672709 423.62149,391.381644 423.62149,391.09058 C423.62149,390.799515 423.33107,389.344192 423.47628,390.362918 C423.62149,391.381644 423.33107,389.489724 423.33107,389.19866 C423.18586,388.470998 423.18586,387.743337 423.18586,387.015675 C423.18586,385.269287 423.18586,383.5229 423.18586,381.922044 C423.18586,377.26501 423.18586,372.462443 423.18586,367.80541 C423.18586,357.327083 423.04065,346.848756 423.33107,336.37043 C423.7667,315.850374 423.33107,295.330318 423.7667,274.664729 C423.91191,265.350661 423.91191,256.036593 423.47628,246.722525 C423.33107,242.356556 418.829561,239.300377 414.618472,239.44591 C410.697803,239.591442 405.615455,242.065492 405.760664,246.722525 C406.341504,266.078323 405.470244,285.434121 405.615455,304.789918 C405.760664,325.455507 405.325034,346.121095 405.470244,366.641151 C405.470244,370.861588 405.470244,375.227557 405.470244,379.447995 C405.470244,385.705884 405.615455,391.672709 407.357974,397.785066 C408.519654,401.568906 409.826543,405.498279 411.133433,409.136586 C411.423853,409.864248 410.988223,408.117861 410.988223,408.117861 C410.988223,408.263393 410.988223,408.554457 410.988223,408.699989 C410.988223,409.136586 411.133433,409.573184 410.988223,410.00978 C410.988223,410.446377 410.988223,410.737442 410.988223,411.174039 C410.988223,412.192765 410.552593,410.737442 411.133433,410.446377 C410.988223,410.446377 410.988223,411.174039 410.988223,411.174039 C410.843013,411.610635 410.697803,412.047233 410.552593,412.338298 C410.116963,413.502556 411.423853,411.028507 410.552593,412.48383 C409.826543,413.648088 409.100493,414.521282 408.229234,415.68554 C407.793604,416.413202 408.374444,415.540008 408.519654,415.394476 C408.229234,415.68554 408.084024,415.831072 407.793604,416.122137 C407.357974,416.558735 406.777134,417.140863 406.196295,417.57746 C406.051084,417.722993 404.889404,418.450654 404.889404,418.596187 C404.889404,418.450654 406.631924,417.57746 405.470244,418.305122 C405.179825,418.450654 404.889404,418.596187 404.744194,418.741719 C404.598985,418.887251 404.308565,418.887251 404.163355,419.032784 C403.582515,419.469381 405.325034,418.596187 405.325034,418.596187 C405.034615,418.596187 404.308565,418.741719 404.018145,418.887251 C403.582515,419.032784 406.341504,418.887251 404.889404,418.741719 C404.453775,418.741719 402.566045,418.596187 404.308565,418.741719 C406.051084,418.887251 404.598985,418.741719 404.163355,418.596187 C403.727725,418.450654 403.292095,418.450654 402.856465,418.305122 C402.420835,418.15959 402.130415,418.014058 401.694785,418.014058 C400.533106,417.722993 403.727725,418.741719 401.839996,418.014058 C399.226216,417.140863 396.757647,416.122137 394.143867,415.394476 C384.12438,412.338298 373.088422,413.648088 362.778515,413.939153 C342.30391,414.521282 321.829305,413.793621 301.3547,414.230217 C291.190002,414.521282 280.880095,414.812347 270.570187,414.521282 C260.550699,414.375749 250.531212,414.084685 240.511725,414.375749 C230.637447,414.666814 220.908379,415.248944 211.034102,415.248944 C201.450244,415.394476 192.011597,415.394476 182.427738,415.540008 C172.843881,415.68554 163.114814,415.394476 153.530955,415.394476 C143.656678,415.394476 133.7824,415.540008 123.908123,415.68554 C103.578728,415.831072 83.3945426,416.122137 63.0651477,416.26767 C57.6923789,416.26767 52.3196102,416.26767 47.0920515,416.413202 C41.5740728,416.558735 36.3465141,417.57746 31.1189554,418.741719 C30.2476956,418.887251 29.2312258,419.178316 28.3599661,419.323848 C26.9078664,419.614913 28.2147561,419.178316 28.9408059,419.323848 C28.3599661,419.323848 27.7791262,419.469381 27.3434963,419.469381 C26.9078664,419.469381 26.4722365,419.469381 26.0366066,419.469381 C25.7461867,419.469381 25.6009767,419.469381 25.3105568,419.469381 C24.439297,419.469381 26.4722365,419.614913 26.3270265,419.614913 C25.0201369,419.178316 23.7132472,419.178316 22.4063575,418.741719 C21.8255176,418.596187 21.2446778,418.305122 20.5186279,418.15959 C19.6473681,417.868525 20.8090479,418.305122 20.9542578,418.305122 C20.5186279,418.15959 20.082998,418.014058 19.5021582,417.722993 C18.4856885,417.286396 17.4692187,416.849799 16.452749,416.26767 C15.2910692,415.68554 17.7596386,417.286396 16.8883789,416.558735 C16.5979589,416.26767 15.5814892,415.248944 16.5979589,416.413202 C17.6144287,417.57746 16.7431689,416.558735 16.5979589,416.26767 C16.162329,415.103411 17.4692187,417.868525 16.8883789,416.704267 C16.7431689,416.413202 16.5979589,415.248944 16.8883789,416.704267 C17.1787988,418.15959 16.8883789,416.849799 17.0335888,416.558735 C17.0335888,416.26767 17.1787988,415.976605 17.0335888,415.68554 C17.0335888,415.68554 16.5979589,417.431928 16.8883789,416.849799 C17.0335888,416.558735 17.0335888,416.26767 17.0335888,416.122137 C17.4692187,414.521282 18.0500586,412.920426 18.6308984,411.465103 C20.373418,406.80807 21.8255176,402.296568 22.5515674,397.494001 C23.4228272,391.527176 22.8419874,385.414819 22.8419874,379.302463 C22.8419874,372.171379 22.8419874,365.040296 22.6967774,358.054744 C22.4063575,329.967008 22.1159375,301.733739 23.5680372,273.646003 C24.1488771,260.693628 25.8913966,247.741252 26.9078664,234.788876 C28.0695461,220.090112 28.9408059,205.391348 30.1024856,190.692585 C31.4093753,175.848289 33.4423148,162.313784 36.2013041,148.051617 C38.9602935,134.37158 42.7357526,121.128139 48.979781,108.61236 C49.124991,108.466828 49.8510408,106.865972 49.5606209,107.448102 C49.9962508,106.72044 50.4318807,105.847247 50.8675106,105.119585 C51.7387704,103.51873 52.6100302,101.917874 53.4812899,100.462551 C55.2238095,97.4063726 57.1115391,94.4957259 58.9992686,91.5850798 C62.7747277,85.9093197 66.5501868,80.3790916 70.7612757,74.9943962 C75.2627845,69.3186361 78.6026142,65.6803281 83.6849629,60.7322295 C88.6221011,56.0751955 93.8496603,51.5636938 99.2224287,47.488789 C109.967966,39.1934472 120.858714,33.08109 133.7824,27.1142652 C136.97702,25.6589421 140.171639,24.3491512 143.366258,23.0393604 C144.963568,22.4572312 146.415667,21.8751019 148.012977,21.2929727 C148.303397,21.1474404 148.739027,21.0019081 149.029447,20.8563757 C150.191126,20.4197788 148.012977,21.1474404 149.319867,20.7108434 C150.191126,20.4197788 151.062387,20.1287142 151.933646,19.8376496 C158.613305,17.6546649 165.438172,16.0538095 172.263041,14.7440186 C174.005561,14.452954 175.74808,14.1618894 177.34539,13.8708248 C178.21665,13.7252924 179.233119,13.5797601 180.104379,13.5797601 C180.104379,13.5797601 181.411269,13.4342278 180.685219,13.5797601 C179.959169,13.7252924 181.556479,13.4342278 181.556479,13.4342278 C185.186728,13.1431632 188.816977,12.8520986 192.447226,12.8520986 C196.077475,12.7065662 199.707725,12.8520986 203.337974,12.9976309 C205.080493,13.1431632 206.823013,13.2886955 208.565532,13.4342278 C209.146372,13.4342278 209.582002,13.5797601 210.162842,13.5797601 C210.017632,13.5797601 209.146372,13.4342278 210.017632,13.5797601 C210.888892,13.7252924 211.905361,13.8708248 212.776622,13.8708248 C226.861988,15.7627448 241.092564,18.8189234 254.597091,23.330425 C255.032721,23.4759573 255.613561,23.6214897 256.049191,23.9125543 C255.903981,23.9125543 255.177931,23.6214897 256.049191,23.9125543 C256.77524,24.2036189 257.501291,24.4946835 258.22734,24.7857482 C260.11507,25.5134097 261.857589,26.2410713 263.745319,26.8232006 C266.939938,28.1329914 270.134558,29.2972499 273.329177,30.6070407 C279.863625,33.2266224 286.543284,35.846204 293.077732,38.7568502 C299.46697,41.6674965 305.565789,45.0147397 311.519397,48.5075152 C317.182586,51.8547584 322.264934,55.2020016 327.782913,59.567971 C338.528451,67.8633128 347.676679,77.0318487 355.663226,87.6557075 C363.649775,98.2795662 371.200693,109.776619 376.863881,121.710269 C382.9627,134.517112 387.899838,147.906085 391.675297,161.586122 C395.595967,175.702757 398.645376,190.110456 401.404365,204.372623 C404.163355,218.343724 407.067554,232.460358 409.245703,246.576993 C409.681333,249.196575 411.714273,250.79743 414.328052,250.79743 C416.506202,251.234027 419.700821,249.633171 419.410401,247.01359 Z" id="Path"></path>
                            </g>
                        </g>
                    </g>
                </g>
                <g id="Group-3" transform="translate(774.500000, 706.000000) scale(-1, 1) translate(-774.500000, -706.000000) translate(620.000000, 432.000000)" fill-rule="nonzero">
                    <path d="M306.470604,475.205138 C305.717554,475.312434 304.960399,475.386209 304.098419,474.891297 C303.547896,474.57521 302.939583,474.011307 302.321895,472.985715 C300.462556,469.898517 299.019883,466.713204 297.785981,463.986061 C296.535935,461.223238 295.521768,458.937887 294.47761,457.777265 C294.175322,457.44126 293.884136,457.198735 293.559982,457.151763 C293.291287,457.112827 293.024861,457.236872 292.737097,457.466923 C291.112451,458.765733 291.097173,466.242706 290.95834,471.480757 C290.89652,473.813222 290.841336,475.763074 290.69517,476.707188 C290.54243,477.693753 290.495112,478.625069 290.45075,479.480045 C290.363254,481.166327 290.248971,482.56987 289.581102,483.595429 C289.02409,484.450761 288.106096,485.093986 286.458447,485.385204 C285.55011,485.545751 284.778874,485.510924 284.127246,485.292329 C283.441308,485.062226 282.874819,484.632514 282.421607,483.974374 C281.637562,482.835811 281.199494,480.928296 281.08233,478.092563 C281.010452,476.352907 281.038834,474.244984 281.068056,472.107251 C281.112436,468.860532 281.162184,465.543298 280.843674,463.387503 C280.737514,462.668965 280.600336,462.090402 280.383617,461.724046 C279.777842,461.61627 279.087173,462.674259 278.121724,463.871591 C276.218797,466.231568 273.554952,469.493403 270.606655,470.893567 C269.919576,471.219866 269.237272,471.323836 268.592801,471.262953 C267.88769,471.196341 267.225759,470.930309 266.652519,470.525922 C265.429339,469.663042 264.629447,468.169536 264.655574,466.751792 C264.716154,463.464547 267.522338,459.842284 270.303212,456.3637 C273.017142,452.968857 275.888364,449.680457 274.913762,447.015766 C274.826179,446.776303 274.771346,446.507459 274.718523,446.231576 C274.645617,445.850795 274.635264,445.386902 274.219664,445.153599 C273.867327,444.95581 273.302309,444.923559 272.412362,445.053142 C270.709944,445.301026 268.73196,446.007019 266.785998,446.695946 C264.6445,447.454099 262.539695,448.18988 260.849544,448.360006 C259.368304,448.509102 258.196884,448.219001 257.440244,447.37674 C256.657753,446.505704 256.23304,445.646327 256.066236,444.814106 C255.875982,443.864886 256.017763,442.940965 256.398818,442.051875 C257.337757,439.861107 259.823052,437.882264 261.846475,436.308801 C262.246525,435.997712 262.626151,435.702591 262.967353,435.424605 C268.109646,431.235059 275.684708,429.058088 283.793465,427.537436 C283.627021,425.985896 283.455202,424.355247 283.275015,422.645173 C281.730217,407.984212 279.569867,387.47925 274.903442,360.931569 C273.682626,353.986245 272.427904,347.410246 271.172275,341.213252 C267.40113,381.565052 256.828507,413.813013 240.481638,436.150052 C223.584598,459.238865 200.523845,471.771932 172.393632,471.771932 C149.758744,471.771932 129.339124,462.437769 112.475621,445.667583 C96.104007,429.386567 83.0840935,406.085935 74.6632648,377.530675 C73.9446599,391.077167 73.3764708,405.851959 73.3764708,421.114948 C73.3764708,446.841166 74.7987337,466.470996 75.8155419,480.507191 C76.0871216,484.256121 76.3298195,487.606704 76.5100868,490.568343 C85.359095,490.594449 93.5709287,491.35542 99.5776169,494.706779 C99.9617553,494.921105 100.386699,495.145612 100.83452,495.382286 C103.099616,496.579392 105.889736,498.095276 107.193664,500.089225 C107.722846,500.898442 108.022422,501.78364 107.999372,502.751596 C107.979165,503.600199 107.709677,504.52047 107.089873,505.514542 C106.490549,506.475767 105.387172,506.965452 103.902706,507.076635 C102.208778,507.203508 100.008578,506.845549 97.7683681,506.471949 C95.732719,506.132464 93.6625779,505.781751 91.9431194,505.834182 C91.0442187,505.861592 90.4933466,505.991802 90.1805889,506.247969 C89.8116473,506.550154 89.8817105,507.008847 89.8758259,507.396608 C89.8715637,507.677494 89.8641015,507.951798 89.8193024,508.202875 C89.3207833,510.996804 92.7176094,513.735077 95.9779092,516.605525 C99.3187389,519.546873 102.70934,522.625302 103.338045,525.852069 C103.609184,527.243665 103.08002,528.853764 102.024824,529.916565 C101.530318,530.414635 100.924522,530.791907 100.241688,530.980322 C99.6175406,531.152544 98.9275981,531.169 98.1944661,530.967342 C95.0485538,530.102019 91.8605047,527.353758 89.5779383,525.361101 C88.4199687,524.350206 87.5566765,523.428594 87.1243862,523.428594 C86.8286168,524.038944 86.7936684,524.632626 86.8135036,525.358756 C86.8730112,527.537267 87.4962331,530.79542 88.1019614,533.985064 C88.5007906,536.085219 88.8936333,538.156162 89.1239908,539.8819 C89.4994866,542.694952 89.3982822,544.649885 88.8232217,545.907757 C88.4908326,546.634818 88.0073506,547.156648 87.3716933,547.502685 C86.767806,547.831428 86.0143241,548 85.0920119,548 C83.418926,548 82.4035168,547.526352 81.7068945,546.781016 C80.8716351,545.887348 80.5161151,544.525106 80.1380338,542.879721 C79.9463504,542.045527 79.7385384,541.136666 79.4173501,540.191728 C79.1099725,539.287422 78.7180969,537.376811 78.2534532,535.090558 C77.2100178,529.956397 75.9007523,522.595751 74.0759733,521.599688 C73.7527829,521.423273 73.4689464,521.347542 73.2110953,521.432684 C72.899956,521.535421 72.6551365,521.825009 72.4155687,522.208622 C71.5881756,523.5335 70.9850096,525.9608 70.2322054,528.899409 C69.4891324,531.800035 68.6197728,535.188233 67.3230925,538.552387 C66.8923453,539.669934 66.3909169,540.331204 65.9034968,540.738364 C65.1276428,541.386464 64.3534305,541.436289 63.7593546,541.455614 C62.7218978,541.498697 62.0421235,541.003745 61.5206493,540.244838 C60.8786676,539.310557 60.5045352,537.940349 60.2992878,537.111444 C59.4078668,533.511384 60.3800108,513.453559 65.4698156,500.959614 C59.2284562,487.805643 53.2658483,458.697036 53.2658483,425.619076 C53.2658483,394.530183 59.0309364,350.339137 65.1565076,326.016404 C64.3271018,316.707812 63.9007423,307.069245 63.9007423,297.142217 C63.9007423,259.546791 54.8639348,172.615493 41.0593815,115.658469 C40.8291746,115.490437 40.6216436,115.412944 40.3702305,115.343792 C39.6728214,115.151968 38.6861699,115.059422 37.5159601,115.027233 C34.1526702,114.934719 29.3363139,115.364088 25.2967528,115.722475 C22.53982,115.967068 20.1390659,116.178505 18.7816198,116.178505 C17.892601,116.178505 16.9079365,116.232019 15.8759578,116.287702 C12.4684444,116.471564 8.58180993,116.643972 5.77647291,115.23149 C3.69285802,114.182394 2.14628875,112.303623 1.77380341,108.940889 C1.65091237,107.831449 2.00687769,106.70644 2.79318809,105.580508 C3.56948812,104.468911 4.77526733,103.3472 6.29844594,102.229682 C10.1439314,99.4083457 16.0510844,96.5750312 21.861692,93.794002 C27.2434419,91.2182297 32.5411289,88.6879994 35.9797077,86.2399295 C37.2403894,85.3423967 38.2456723,84.4622985 38.8883505,83.5909493 C39.3886247,82.912673 39.6683649,82.2485889 39.59543,81.5852284 C39.5165174,80.8674995 39.0301689,80.3085491 38.3048843,79.83696 C37.3349911,79.2063237 35.9455101,78.7401874 34.2830639,78.3767735 C29.5884833,77.3505295 22.7805195,77.1864549 16.6615205,77.0339216 C9.13868055,76.846394 2.8680372,76.4554249 1.88377615,74.976036 C0.618704503,73.074576 0,71.1902307 0,69.4874783 C0,67.7130639 0.659743395,66.1215923 1.98355017,64.8737859 C4.38180536,62.6132157 15.8739228,56.0467096 30.6022011,54.0407888 C38.9864069,52.8989001 50.3909205,53.6712141 59.7359806,54.3089321 C67.9409189,54.8688468 74.8034672,55.6130108 75.722415,54.3202937 C75.8247943,54.1762738 75.8223352,53.9987971 75.7795552,53.8051042 C75.7005893,53.4475702 75.4827678,53.0455001 75.1663062,52.5969062 C74.3684435,51.4659111 72.9622262,50.1078435 71.1568755,48.5988853 C66.1346209,44.401157 58.0636137,39.1042451 50.9795684,34.4528413 C43.2418421,29.3722288 36.7757138,24.9861041 36.2657934,23.5529956 C35.4461032,21.2492924 35.2001622,19.1961782 36.4635181,17.6032538 C37.4400126,16.3720236 39.3881636,15.3679999 42.9968635,14.8482311 C54.3239533,13.216766 79.1335904,17.9928336 89.5387216,20.5804239 C91.3792387,21.0381311 95.4532296,22.8806693 100.252325,25.0610162 C106.41931,27.8628298 113.804704,31.221364 119.119683,32.8078424 C120.989523,33.3659746 122.592732,33.7059414 123.776938,33.7007244 C124.233992,33.6987109 124.619778,33.6481409 124.915857,33.5170604 C125.094818,33.4378302 125.234739,33.3275892 125.30654,33.1603346 C125.471542,32.7759801 125.173614,32.1920614 124.760813,31.4918733 C124.171526,30.4923343 123.193844,29.2765361 121.90861,27.91264 C119.275424,25.1182899 115.366872,21.7284394 110.790714,18.3389407 C108.468346,16.6187937 105.739897,15.1217261 103.176655,13.7129633 C100.383881,12.1780497 97.7847913,10.7416046 96.0674708,9.2546677 C94.6138669,7.99606916 93.7917771,6.68463465 93.7917771,5.29550138 C93.7917771,4.27186226 94.0572297,3.44395375 94.5133417,2.7695683 C95.0048312,2.04287543 95.7257559,1.49049706 96.6192223,1.08450395 C98.6844568,0.146057358 101.726015,0.00891650392 104.624464,0 L105.023407,0 C123.80695,0 156.527054,8.72095784 172.970771,35.297982 C181.878228,49.6945878 189.20646,71.1476562 196.797841,93.3968361 C201.71683,107.813644 206.749132,122.564495 212.404707,135.931651 C217.219231,147.310952 222.629451,159.389454 228.18081,171.783193 C243.674981,206.374846 260.26321,243.419772 268.102494,274.584967 C277.354542,291.891495 289.634472,328.561871 295.525601,362.07699 C300.883924,392.560944 300.988134,420.607254 298.270319,436.68402 C305.07649,448.20672 309.236687,466.75277 308.989569,470.343456 C308.930929,471.19551 308.799679,472.610054 308.329188,473.641959 C307.936586,474.503034 307.323117,475.092952 306.470604,475.205138 Z" id="Combined-Shape" stroke="#000000" stroke-width="2" fill="#F3A7A7"></path>
                    <g id="Group-2" transform="translate(62.000000, 147.000000)">
                        <path d="M10.6899212,71.9383096 C10.4423437,67.037419 12.0121875,59.9045237 15.2766208,51.0745928 C15.4453258,50.6182643 15.6107269,50.1705027 15.7730147,49.7311693 C18.9927887,41.0148352 20.9616368,35.6413734 23.2247724,32.5225198 C25.1105517,29.9237054 27.208977,28.9999999 30.5018674,28.9999999 C32.2458413,28.9999999 33.7490047,29.6430827 34.9789298,30.8378149 C36.2969357,32.1181074 37.3014354,34.01214 37.9804222,36.4048513 C39.3574913,41.2575649 39.3821389,48.1198772 37.794066,56.2331706 C36.3906747,63.402945 33.4477915,68.6652545 29.9356566,72.302291 C25.5458986,76.8481619 20.274424,78.8500209 16.0898743,78.8500209 C14.4319027,78.8500209 13.153398,78.2931925 12.2677142,77.1919471 C11.3089109,75.9997858 10.8051539,74.2193865 10.6899212,71.9383096 Z" id="Oval" stroke="#000000" stroke-width="2" fill="#AD6161" transform="translate(24.832294, 53.925010) rotate(30.000000) translate(-24.832294, -53.925010) "></path>
                        <path d="M94.1112798,49.7698025 C92.4506524,49.7674165 91.1693745,49.209147 90.2807473,48.1075305 C89.3191323,46.9154327 88.8121653,45.1364173 88.6935792,42.8578704 C88.4388053,37.9625944 90.0004401,30.8405904 93.2561783,22.0260409 C93.42444,21.5704907 93.5894067,21.1234925 93.751267,20.6849081 C96.9624657,11.9837251 98.9259705,6.61954566 101.187324,3.50767848 C103.071618,0.91468593 105.171263,-0.00461617956 108.467838,-1.45930732e-05 C110.214417,0.00250631044 111.720729,0.64716196 112.954176,1.84258689 C114.275625,3.12330087 115.284118,5.01661248 115.967328,7.40760416 C117.352834,12.2563805 117.387186,19.1104297 115.808718,27.2116291 C114.413866,34.3704555 111.475128,39.6220473 107.964182,43.2495788 C103.575661,47.7838254 98.3007237,49.7756785 94.1112798,49.7698025 Z" id="Oval" stroke="#000000" stroke-width="2" fill="#AD6161" transform="translate(102.833368, 24.884894) scale(-1, 1) rotate(-120.000000) translate(-102.833368, -24.884894) "></path>
                        <ellipse id="Oval" fill="#000000" cx="52.3009109" cy="113.867541" rx="8.62719407" ry="11.8964619"></ellipse>
                        <ellipse id="Oval" fill="#000000" cx="108.377672" cy="74.9336662" rx="8.62719407" ry="11.8964619"></ellipse>
                        <ellipse id="Oval" fill="#FFFFFF" cx="55.5361087" cy="107.378562" rx="3.23519777" ry="3.24448962"></ellipse>
                        <ellipse id="Oval" fill="#FFFFFF" cx="111.61287" cy="68.4446867" rx="3.23519777" ry="3.24448962"></ellipse>
                    </g>
                </g>
                <g id="Group-5" transform="translate(896.000000, 671.000000)">
                    <path d="M489.17481,179.569246 L319.143067,179.568821 C319.165756,186.100751 319.159771,192.974069 319.15357,200.093436 C319.150629,203.469992 319.147639,206.901905 319.147639,210.379001 C319.147639,213.856096 319.150629,217.288009 319.15357,220.664566 C319.18762,259.755652 319.151742,291.431223 314.504853,300.102557 C313.527092,302.765259 312.116578,305.083717 309.781145,306.65786 C307.821704,307.978574 305.201177,308.783799 301.593912,308.783801 C299.431277,308.783801 297.534186,308.853575 295.865868,308.914836 C291.978667,309.057574 289.293933,309.120109 287.364752,308.269141 C285.651473,307.513409 284.463027,306.084761 283.612168,303.327431 C282.522951,299.79767 283.098472,296.364804 284.961907,293.357176 C286.857263,290.298026 290.102358,287.676495 294.292561,285.877634 C294.895391,285.618838 295.635774,285.268633 296.449173,284.884131 C297.933009,284.182708 299.654528,283.370171 301.237367,282.771445 C297.791389,265.948273 295.574331,239.775397 295.574331,210.379001 C295.574331,199.571429 295.873793,189.199787 296.423751,179.568812 L193.603644,179.567829 C194.029522,191.84778 194.104709,206.333694 194.104709,221.846798 C194.104709,239.199153 195.281515,255.581684 196.251515,269.090629 C196.894535,278.045795 197.446523,285.741849 197.508314,291.626732 C197.807793,293.2484 197.709995,295.121532 197.598626,297.090986 C197.55507,297.861229 197.51054,298.646656 197.491201,299.437131 C197.451735,301.050295 197.139498,302.323814 196.604161,303.336649 C196.013875,304.453447 195.152307,305.265574 194.047481,305.856338 C191.551718,307.190851 187.725963,307.342107 183.027827,307.482902 C182.797862,307.489794 182.565778,307.496749 182.331636,307.503923 C182.099079,307.511049 181.866897,307.518316 181.635243,307.525567 C176.783473,307.677431 172.167206,307.792083 169.141021,306.541825 C167.853535,306.009904 166.838734,305.238636 166.165258,304.160844 C165.551962,303.179361 165.216375,301.934881 165.255156,300.349681 C165.347465,296.576616 167.235509,293.09572 170.240203,290.529876 C172.993086,288.179064 176.682212,286.599777 180.745398,286.281054 C175.388708,270.936166 170.569241,247.442036 170.569241,221.846798 C170.569241,206.336341 171.329372,191.851552 172.645607,179.567829 L11.7415423,179.569246 C8.8583452,179.569246 6.30497656,178.468672 4.31672086,176.542909 C2.33988073,174.628202 0.920965709,171.888637 0.319628859,168.595671 C-0.705022944,162.9846 0.64439754,155.739921 5.67074507,148.341493 C12.554423,138.209206 26.3724475,127.750206 50.4795821,120.938895 C74.5424593,114.140088 92.9411282,112.321026 104.649176,111.16411 C109.042815,110.729958 112.484611,110.392879 114.917933,109.914091 C114.917933,102.513377 115.459389,101.500473 116.709633,96.883556 C122.63562,75 122.540819,77.2199653 122.63562,76.9268152 C130.652795,52.1356191 143.330773,34.2379347 161.960211,21.517681 C183.078602,7.09796016 209.899087,0 237.641715,0 C264.541469,0 287.794811,7.52291092 306.71134,21.6544279 C325.634129,35.7906213 340.221508,56.5465458 349.758633,83.0326224 C350.570714,84.1265659 357.691936,103.362548 357.691936,108.149139 C361.357374,109.462367 373.109462,110.476836 387.425739,111.76792 C409.173848,113.729228 436.816133,116.230631 451.612691,120.945372 C469.759823,126.727731 481.057415,136.482492 487.556323,146.3408 C492.346878,153.607679 494.532991,160.939521 494.932102,166.811347 C495.180353,170.463671 494.734841,173.559575 493.808629,175.753713 C493.302215,176.953377 492.649012,177.892322 491.893003,178.533682 C491.093557,179.211893 490.176823,179.569246 489.17481,179.569246 Z" id="Combined-Shape" stroke="#000000" stroke-width="2" fill="#99CAF4" fill-rule="nonzero"></path>
                    <path d="M334.697858,109 C290.232619,123.39021 268,135.651762 268,145.784657 C268,155.917552 296.86645,152.990557 354.59935,137.003673" id="Path-4" stroke="#000000" stroke-width="3" stroke-linecap="round" transform="translate(311.299675, 130.340541) rotate(-10.000000) translate(-311.299675, -130.340541) "></path>
                    <path d="M182.697858,109 C138.232619,123.39021 116,135.651762 116,145.784657 C116,155.917552 144.86645,152.990557 202.59935,137.003673" id="Path-4" stroke="#000000" stroke-width="3" stroke-linecap="round" transform="translate(159.299675, 130.340541) scale(-1, 1) rotate(-10.000000) translate(-159.299675, -130.340541) "></path>
                    <ellipse id="Oval" fill="#000000" fill-rule="nonzero" cx="166.5" cy="81" rx="7.5" ry="8"></ellipse>
                    <ellipse id="Oval" fill="#000000" fill-rule="nonzero" cx="311.5" cy="77" rx="7.5" ry="8"></ellipse>
                    <ellipse id="Oval" fill="#FFFFFF" fill-rule="nonzero" cx="315" cy="75.5" rx="3" ry="3.5"></ellipse>
                    <ellipse id="Oval" fill="#FFFFFF" fill-rule="nonzero" cx="171" cy="78.5" rx="3" ry="3.5"></ellipse>
                </g>
                <rect id="Rectangle" fill="#000000" fill-rule="nonzero" x="0" y="909" width="1923" height="222"></rect>
            </g>
            <path d="M1116,774.56242 C1116,768.76758 1118.43485,762.662441 1122.35253,758.129501 C1126.0429,753.859564 1131.03224,751 1136.5,751 C1141.96776,751 1146.9571,753.859564 1150.64747,758.129501 C1154.56515,762.662441 1157,768.76758 1157,774.56242 C1157,780.206467 1154.7052,785.316339 1150.99455,789.015104 C1147.28507,792.71271 1142.16055,795 1136.5,795 C1130.83945,795 1125.71493,792.71271 1122.00545,789.015104 C1118.2948,785.316339 1116,780.206467 1116,774.56242 Z" id="Oval" stroke="#000000" stroke-width="2" fill="#000000" fill-rule="nonzero"></path>
            <path d="M1136.5,752 C1144.74518,752 1151.79515,758.93254 1154.64715,766.999902 L1118.35285,766.999902 C1121.20485,758.93254 1128.25482,752 1136.5,752 Z" id="Combined-Shape" fill="#FFFFFF" fill-rule="nonzero"></path>
            <path d="M765.39197,831.020868 C750.850223,831.020868 739.222132,826.739025 730.482183,818.232252 C721.790821,809.77277 715.946511,797.09867 713.014669,780.170654 C713,779.580871 713.094711,779.245046 713.242638,778.979925 C714.548178,778.005911 715.232581,778.036127 716.15183,778.322457 C725.10307,781.110608 757.549173,800.211112 771.258489,814.254219 C773.634519,816.6881 775.454324,818.978959 776.525966,821.009961 C777.648679,823.137755 777.949631,825.00972 777.428828,826.533225 C776.930307,827.991547 775.683991,829.219584 773.378366,830.011875 C771.502824,830.656374 768.880115,831.020868 765.39197,831.020868 Z" id="Path-2" stroke="#000000" stroke-width="2" fill="#000000" fill-rule="nonzero"></path>
            <path d="M714,780 C714,779.133059 714.618147,778.89213 715.85444,779.277213 C727.827717,783.006674 782.135952,816.160602 776.233114,826.77053 L716.944163,792.542465 C715.75765,788.662846 714.776263,784.482024 714,780 Z" id="Combined-Shape" fill="#FFFFFF" fill-rule="nonzero"></path>
            <path d="M1202,728 C1203.78711,732.094398 1205.92512,734.246407 1207.35269,735.121367 C1209.56506,736.477326 1212.95044,737.176194 1218.53077,735.121367" id="Path-2" stroke="#000000" stroke-width="3" stroke-linecap="round" stroke-linejoin="round"></path>
            <path d="M1055,728 C1056.78711,732.094398 1058.92512,734.246407 1060.35269,735.121367 C1062.56506,736.477326 1065.95044,737.176194 1071.53077,735.121367" id="Path-2" stroke="#000000" stroke-width="3" stroke-linecap="round" stroke-linejoin="round" transform="translate(1063.265385, 732.206783) scale(-1, 1) rotate(5.000000) translate(-1063.265385, -732.206783) "></path>
        </g>
    </g>
</svg>