<?xml version="1.0" encoding="UTF-8"?>
<svg width="1923px" height="1131px" viewBox="0 0 1923 1131" version="1.1" xmlns="http://www.w3.org/2000/svg" xmlns:xlink="http://www.w3.org/1999/xlink">
    <!-- Generator: Sketch 62 (91390) - https://sketch.com -->
    <title>Group 6</title>
    <desc>Created with Sketch.</desc>
    <defs>
        <filter x="-3.1%" y="-1.7%" width="106.4%" height="103.5%" filterUnits="objectBoundingBox" id="filter-1">
            <feOffset dx="0" dy="2" in="SourceAlpha" result="shadowOffsetOuter1"></feOffset>
            <feGaussianBlur stdDeviation="2" in="shadowOffsetOuter1" result="shadowBlurOuter1"></feGaussianBlur>
            <feColorMatrix values="0 0 0 0 0   0 0 0 0 0   0 0 0 0 0  0 0 0 0.5 0" type="matrix" in="shadowBlurOuter1" result="shadowMatrixOuter1"></feColorMatrix>
            <feMerge>
                <feMergeNode in="shadowMatrixOuter1"></feMergeNode>
                <feMergeNode in="SourceGraphic"></feMergeNode>
            </feMerge>
        </filter>
        <path d="M184.433924,264.69815 C187.470584,263.365978 190.795992,262.775532 194.192974,262.856003 C196.125207,270.617983 197.153505,278.766206 197.153505,287.167665 C197.153505,339.942275 156.578409,382.724551 106.526491,382.724551 C102.06647,382.724551 97.6816977,382.38485 93.3941764,381.728649 C95.2316839,373.110386 99.9657097,365.587947 106.493611,358.761775 C119.347498,345.320575 134.353473,354.081837 150.294211,334.303095 C169.397483,310.600385 169.847044,271.097363 184.433924,264.69815 Z" id="path-2"></path>
        <filter x="-1.4%" y="-1.3%" width="102.9%" height="102.5%" filterUnits="objectBoundingBox" id="filter-3">
            <feGaussianBlur stdDeviation="1" in="SourceAlpha" result="shadowBlurInner1"></feGaussianBlur>
            <feOffset dx="0" dy="1" in="shadowBlurInner1" result="shadowOffsetInner1"></feOffset>
            <feComposite in="shadowOffsetInner1" in2="SourceAlpha" operator="arithmetic" k2="-1" k3="1" result="shadowInnerInner1"></feComposite>
            <feColorMatrix values="0 0 0 0 0   0 0 0 0 0   0 0 0 0 0  0 0 0 0.5 0" type="matrix" in="shadowInnerInner1"></feColorMatrix>
        </filter>
        <filter x="-1.9%" y="-3.1%" width="103.9%" height="106.2%" filterUnits="objectBoundingBox" id="filter-4">
            <feOffset dx="0" dy="2" in="SourceAlpha" result="shadowOffsetOuter1"></feOffset>
            <feGaussianBlur stdDeviation="2" in="shadowOffsetOuter1" result="shadowBlurOuter1"></feGaussianBlur>
            <feColorMatrix values="0 0 0 0 0   0 0 0 0 0   0 0 0 0 0  0 0 0 0.5 0" type="matrix" in="shadowBlurOuter1" result="shadowMatrixOuter1"></feColorMatrix>
            <feMerge>
                <feMergeNode in="shadowMatrixOuter1"></feMergeNode>
                <feMergeNode in="SourceGraphic"></feMergeNode>
            </feMerge>
        </filter>
    </defs>
    <g id="Page-1" stroke="none" stroke-width="1" fill="none" fill-rule="evenodd">
        <g id="Group-6">
            <g id="2scene1-(2)">
                <g id="Layer_3">
                    <polygon id="Path" fill="#333333" fill-rule="nonzero" points="1922 1082 0.5 1082 0.5 0.5 1921 0.5"></polygon>
                    <path d="M1046.54574,1124.13968 C1433.86152,1124.13968 1769.71823,1124.13968 1907.4696,1124.13968 C1969.6211,1124.13968 1862.05389,57.665218 919.683199,57.665218 C76.6652655,57.665218 -37.526892,1124.13968 9.882837,1124.13968 C443.381708,1124.13968 510.000424,1124.13968 1046.54574,1124.13968 Z" id="Oval" fill="#2C2C2C"></path>
                </g>
                <g id="Layer_2" transform="translate(331.000000, 292.000000)" fill="#000000" fill-rule="nonzero">
                    <g id="Group-4" transform="translate(624.500000, 333.000000) scale(-1, 1) translate(-624.500000, -333.000000) ">
                        <g id="Group" transform="translate(0.346286, 0.674089)">
                            <path d="M616.329104,410.570416 C617.221087,395.394661 618.559063,380.005164 618.559063,364.829409 C618.559063,349.653654 617.444083,334.264157 616.5521,319.088402 C615.660116,303.912647 615.214124,288.736893 613.876149,273.561138 C612.315178,258.385384 610.308215,243.209629 608.078256,228.247617 C605.848297,213.071863 603.395343,198.109851 600.496396,183.14784 C596.036478,160.491079 591.130569,137.406833 579.088791,117.314988 C570.837944,103.421692 559.019162,91.8795688 546.308397,81.4061606 C533.820627,71.1464955 519.994882,61.5280595 505.723146,53.8333107 C490.33643,45.4973328 473.611739,39.0850421 457.110043,33.1002375 C440.608348,27.1154328 423.660661,21.5581142 406.266982,17.9244829 C388.873303,14.2908515 371.256628,11.9396782 353.639954,10.6572201 C335.800283,9.37476194 317.960612,8.94727589 300.343938,10.229734 C282.504267,11.5121922 264.887592,13.6496224 247.493913,17.4969968 C230.100234,21.3443712 213.152547,26.6879468 196.650852,33.1002375 C180.372152,39.5125282 164.762441,48.0622491 149.821716,57.2531991 C134.880992,66.444149 120.38626,76.2763281 107.452499,88.0321943 C94.5187374,99.7880606 83.1459474,112.826385 72.6651409,126.505938 C62.1843344,140.185492 53.0415032,154.93376 45.2366473,170.109515 C37.4317914,185.28527 30.9649108,201.315996 26.0590013,217.560466 C21.1530919,234.018679 7.86090655,243.649726 6.07693949,260.535425 C4.29297242,277.421124 3.73966772,284.145165 3.73966772,309.602267 C3.73966772,335.05937 1.19190142,494.785167 0.299917891,517.869413 C-0.592065641,540.739917 1.19190142,583.860927 0.299917891,606.73143 C-0.592065641,629.815677 8.88831835,622.176008 17.139166,643.764054 C26.0590013,666.8483 36.0938161,644.19154 67.9822274,643.977797 C82.6999556,643.977797 99.8706386,643.764054 119.27128,643.550311 C135.103988,643.550311 152.274671,642.695339 170.560334,642.481596 C186.839033,642.267853 204.009716,642.695339 221.849387,642.481596 C238.574078,642.267853 255.744761,642.909082 273.13844,642.695339 C290.086127,642.481596 307.25681,642.267853 324.427493,642.05411 C341.598176,641.840366 358.768859,640.557908 375.716546,640.130422 C393.110225,639.702936 410.280908,639.916679 427.005599,639.489193 C444.622274,639.061707 461.792957,637.992992 478.294652,637.565506 C496.580315,636.924277 513.750998,636.710534 529.583705,636.069305 C548.984347,635.214333 566.15503,634.145618 580.649763,633.290646 C611.64619,631.153215 629.931853,628.374556 629.931853,625.168411 C629.931853,619.611092 629.708857,598.450533 627.92489,571.518912 C627.032906,555.060699 626.140923,536.465056 624.802947,517.869413 C623.687968,499.27377 621.458009,480.678127 620.34303,464.219915 C618.113071,433.440919 616.775096,437.502037 616.329104,410.570416 Z" id="Path"></path>
                            <path d="M598.589165,410.570416 C599.444639,400.097008 600.727849,389.6236 601.369455,379.150191 C602.224928,368.676783 602.438797,358.203375 602.01106,347.729967 C601.369455,326.783151 600.941718,305.622592 599.658507,284.889518 C598.375297,263.942702 595.595008,242.995886 592.814718,222.262813 C590.034429,201.743482 586.612535,181.224152 582.335167,161.132308 C578.271667,142.322922 572.283352,123.513536 561.589932,107.269066 C551.11038,91.2383397 536.139592,77.9862723 520.954936,66.230406 C504.700937,53.6195677 486.94986,43.1461595 468.12944,35.0239247 C448.881284,26.6879468 428.991523,19.206941 408.887893,13.2221363 C388.356527,7.23733171 367.397423,3.81744335 346.224452,1.89375614 C325.265348,-0.0299310658 304.092376,-0.671160134 282.919405,1.03878405 C241.215066,4.45867241 199.724597,14.5045945 162.725363,34.1689526 C144.974286,43.5736456 127.437077,54.6882828 111.396947,67.0853781 C95.3568166,79.4824734 81.2415021,94.016999 68.409398,109.833983 C43.1729266,141.254207 23.9247705,177.590521 12.8036136,216.278008 C1.04085155,257.102925 -2.38104288,300.920245 6.38756158,342.813878 C7.45690359,347.94371 8.740114,353.073543 10.0233244,358.203375 C11.3065348,362.905722 13.4452188,367.821811 13.6590872,372.096672 C14.086824,378.722705 14.086824,385.562482 13.6590872,392.188516 C12.8036136,406.723041 12.1620084,421.257567 11.3065348,435.578349 C9.59558761,464.433658 8.3123772,493.288966 7.24303519,522.144274 C6.60142998,536.465056 5.95982478,550.785839 5.74595638,565.106621 C5.53208798,578.999918 6.17369318,593.3207 4.46274597,607.213997 C4.24887757,608.496455 4.46274597,606.786511 4.46274597,606.786511 C4.46274597,607.213997 4.24887757,607.641483 4.24887757,608.068969 C4.03500917,608.923941 4.03500917,609.56517 3.82114076,610.420142 C3.39340396,611.916343 3.17953556,613.412544 2.75179876,614.908746 C1.89632515,618.114891 1.25471995,621.534779 0.613114742,624.954668 C-0.456227265,632.22193 1.25471995,639.916679 3.82114076,646.756456 C6.17369318,653.38249 9.59558761,659.79478 16.2255081,663.000926 C23.0692969,666.207071 30.1269541,664.919047 36.7568746,662.57344 C38.8955586,661.718468 41.0342426,660.863496 43.1729266,660.008523 C44.4561371,659.581037 45.5254791,658.939808 46.8086895,658.512322 C47.2364263,658.298579 49.8028471,657.65735 48.0918999,658.084836 C46.1670843,658.512322 48.9473735,657.871093 49.3751103,657.65735 C52.5831363,656.588635 56.0050307,655.947406 59.4269252,655.306177 C60.924004,655.092434 58.5714515,655.51992 58.5714515,655.306177 C58.5714515,655.306177 59.854662,655.092434 60.0685304,655.092434 C60.924004,655.092434 61.993346,654.878691 63.062688,654.878691 C65.4152404,654.878691 67.5539244,654.878691 69.9064768,654.878691 C89.154633,654.878691 108.402789,654.664948 127.650945,654.451205 C168.713678,653.596233 209.562543,654.023719 250.625276,654.023719 C272.012116,654.023719 293.398956,653.809976 314.785797,653.38249 C335.7449,652.955004 356.704003,651.672546 377.663107,651.458803 C398.408342,651.245059 419.153576,650.817573 439.684943,649.962601 C459.788573,649.107629 479.678334,648.680143 499.781964,648.038914 C518.816252,647.397685 537.636671,646.32897 556.670959,644.832769 C566.508905,644.19154 576.346852,643.122825 586.184798,642.05411 C591.745376,641.41288 597.305955,640.771651 602.652665,639.061707 C609.068717,637.13802 615.698637,633.718132 616.340243,626.237126 C616.554111,621.748522 616.340243,617.259919 616.126374,612.771315 C615.698637,594.603158 614.629295,576.435002 613.773822,558.480588 C612.70448,537.747514 611.635138,516.800698 609.924191,496.067625 C608.427112,478.540697 607.35777,461.227512 605.860691,443.700584 C605.432954,438.570752 605.005217,433.440919 604.149744,428.52483 C604.149744,427.883601 603.935875,427.456115 603.935875,426.814886 C603.722007,425.104941 604.363612,429.166059 603.935875,427.242372 C603.722007,425.74617 603.508139,424.249969 603.29427,422.753768 C603.080402,421.043824 602.866533,419.547623 602.652665,417.837679 C602.438797,416.982706 602.438797,415.913991 602.224928,415.059019 C602.01106,413.135332 601.797191,412.494103 601.797191,411.425388 C601.583323,399.669522 579.982614,399.669522 580.196483,411.425388 C580.196483,413.776561 579.554878,418.692651 579.341009,422.326282 C579.127141,425.104941 578.913272,427.883601 578.913272,430.66226 C578.699404,435.150863 579.341009,439.425724 579.768746,443.914327 C581.479693,461.013769 582.335167,478.113211 583.832246,495.212653 C585.543193,515.51824 586.612535,536.03757 587.681877,556.343157 C588.751219,574.297571 589.820561,592.465728 590.248298,610.420142 C590.462166,615.336232 590.248298,620.252321 590.462166,624.954668 C590.462166,625.168411 590.462166,625.595897 590.462166,625.80964 C590.034429,624.740925 591.745376,621.534779 591.959245,621.107293 C593.670192,618.75612 594.311797,618.75612 593.456324,619.397349 C597.305955,616.404947 596.022745,617.901148 595.167271,618.328634 C592.173113,619.397349 597.092087,617.901148 595.808876,618.114891 C594.739534,618.328634 593.670192,618.75612 592.60085,618.969863 C590.034429,619.611092 587.468008,620.038578 584.901588,620.252321 C583.404509,620.466064 581.693562,620.679807 580.196483,620.89355 C579.341009,621.107293 578.485536,621.107293 577.630062,621.321036 C576.988457,621.321036 576.346852,621.534779 575.705246,621.534779 C577.630062,621.321036 577.630062,621.321036 576.132983,621.534779 C567.364379,622.389751 558.809643,623.244724 550.041038,623.67221 C511.544726,626.450869 472.834545,627.092098 434.338233,628.802042 C414.020735,629.657014 393.703237,630.0845 373.17187,630.298243 C352.640504,630.511986 332.109137,632.008187 311.577771,632.435673 C270.728906,633.290646 229.666173,633.290646 188.817308,633.076903 C150.107127,632.86316 111.396947,634.145618 72.4728976,634.573104 C63.9181616,634.573104 55.3634255,634.786847 47.0225579,636.710534 C40.6065058,638.206735 34.6181906,640.771651 28.6298753,643.336568 C27.5605333,643.764054 26.7050597,644.19154 25.6357177,644.619026 C23.7109021,645.473998 28.6298753,643.764054 26.7050597,644.19154 C26.2773229,644.405283 25.8495861,644.405283 25.4218493,644.619026 C24.9941125,644.619026 24.5663757,644.832769 24.1386389,644.832769 C22.2138233,645.260255 27.5605333,644.619026 25.8495861,644.619026 C24.7802441,644.619026 23.4970337,644.19154 27.5605333,644.832769 C25.2079809,644.405283 30.1269541,646.115227 28.6298753,645.260255 C27.1327965,644.405283 31.1962962,647.183942 29.6992173,645.901484 C28.4160069,644.832769 29.9130857,645.473998 30.3408226,646.756456 C30.1269541,646.115227 29.0576121,644.832769 28.6298753,644.19154 C27.3466649,642.481596 29.4853489,646.32897 28.6298753,644.19154 C28.4160069,643.550311 27.9882701,642.909082 27.7744017,642.05411 C26.9189281,639.916679 26.2773229,637.565506 25.6357177,635.214333 C25.4218493,634.359361 25.2079809,633.504389 24.9941125,632.649417 C24.3525073,630.0845 25.2079809,634.573104 24.9941125,632.22193 C24.7802441,630.725729 24.7802441,629.443271 24.7802441,627.94707 C24.7802441,626.878355 24.5663757,625.168411 24.9941125,624.099696 C23.9247705,626.450869 24.7802441,625.382154 24.9941125,624.313439 C25.2079809,623.458467 25.4218493,622.603494 25.6357177,621.962265 C27.3466649,614.695003 29.0576121,607.641483 29.4853489,600.160477 C30.3408226,586.90841 29.9130857,573.870085 30.1269541,560.618018 C30.7685594,532.617682 32.0517698,504.617346 33.5488486,476.830753 C35.0459274,448.402931 36.1152694,419.975109 37.8262166,391.333544 C38.2539534,384.70751 38.040085,378.081476 37.8262166,371.669186 C37.6123482,366.111867 35.901401,361.409521 34.1904538,356.279688 C32.693375,351.149855 31.4101646,346.020023 30.1269541,340.89019 C25.8495861,322.080804 24.5663757,302.202703 25.4218493,282.324602 C27.1327965,243.637115 38.040085,203.66717 55.7911623,169.682029 C73.5422397,135.483145 97.0677638,104.490407 127.00934,81.1924176 C142.621733,69.0090653 157.164785,59.8181153 174.488125,50.6271653 C182.615124,46.1385619 191.16986,42.2911875 199.938465,38.8712991 C209.348675,35.2376677 216.406332,32.6727514 226.458147,29.8940921 C236.082225,27.1154328 245.920171,24.9780026 255.758118,23.2680584 C266.451538,21.3443712 274.364669,20.4893991 284.202615,19.634427 C304.94785,17.9244829 325.693085,18.3519689 346.224452,20.2756561 C354.779188,21.1306282 364.617134,22.4130863 374.668949,24.3367735 C384.720764,26.2604607 394.55871,28.397891 404.182788,31.3902933 C422.789339,36.9476119 440.754285,43.5736456 459.146968,51.6958805 C477.325782,59.8181153 492.724307,69.0090653 508.122832,81.1924176 C522.452014,92.5207978 534.856382,103.635435 544.48046,119.024933 C553.890669,133.986944 558.809643,152.368844 562.659274,170.109515 C566.936642,189.346387 570.144668,208.797002 572.924957,228.247617 C578.913272,269.072535 581.693562,310.111195 583.832246,351.363598 C584.901588,371.2417 583.832246,390.906058 583.618377,410.570416 C583.404509,418.906394 597.94756,418.692651 598.589165,410.570416 Z" id="Path"></path>
                        </g>
                        <g id="Group" transform="translate(612.720073, 0.424557)">
                            <path d="M619.892692,316.515465 C617.25075,300.896281 614.388646,285.49106 610.866056,270.085838 C607.343467,254.680616 604.041039,239.061433 599.417641,224.084134 C594.57408,208.892874 588.849873,194.129536 582.245018,179.794121 C575.640162,165.244745 567.274013,151.765176 558.247377,138.71353 C549.220742,125.661884 539.533621,113.252122 527.865044,101.912167 C517.737599,92.2839031 507.389993,83.0835623 495.721415,75.3809514 C484.273,67.6783406 471.943937,60.6176139 459.614874,54.1987715 C447.065649,47.7799291 433.855939,43.072778 420.86639,37.9377041 C407.876842,32.8026301 395.107455,27.6675562 381.677583,23.6022894 C368.247711,19.5370225 354.597677,16.5415627 340.947643,14.1879872 C327.297609,11.8344116 313.427413,9.90875889 299.337056,9.69479747 C281.283785,9.48083606 263.450676,11.1925274 246.057891,15.0438328 C228.665106,18.6811768 211.712644,24.6720964 195.420668,31.9467845 C179.128692,39.2214725 163.27704,47.3520063 148.746358,57.4081927 C134.215677,67.4643791 120.565643,78.8043341 108.016418,91.4280575 C95.6873555,104.051781 85.1195873,118.387196 75.4324664,132.72261 C65.5251837,147.485948 57.5993575,162.677208 51.6549879,178.724314 C45.7106183,194.985382 42.1880289,211.674372 39.1057631,228.791285 C36.0234974,245.480275 33.3815553,262.597188 31.8404225,279.928063 C30.2992896,297.044976 28.9783186,314.161889 27.8775094,331.492763 C26.7767002,348.823638 25.0154055,365.940551 23.2541108,383.057464 C21.9331398,394.61138 21.2726542,411.514332 20.8323306,430.984821 C20.3920069,445.748158 19.9516832,462.223187 19.9516832,479.126139 C19.9516832,495.173245 20.3920069,511.434312 20.6121687,527.267457 C20.8323306,544.598331 20.6121687,561.07336 20.8323306,575.408775 C21.2726542,603.865643 -0.963691398,614.991636 22.1533016,623.550093 C45.7106183,632.322511 47.471913,623.12217 72.5703625,622.908209 C97.8889739,622.694247 97.8889739,622.908209 122.987423,622.694247 C148.306035,622.480286 148.306035,622.266325 173.404484,622.266325 C198.723096,622.052363 198.723096,622.052363 223.821545,621.838402 C249.140157,621.62444 249.140157,622.266325 274.238606,622.052363 C299.557218,621.838402 299.557218,621.838402 324.655667,621.62444 C349.974278,621.410479 349.974278,620.340672 375.072728,620.12671 C400.391339,619.912749 400.391339,620.982556 425.489789,620.768595 C450.8084,620.554633 450.8084,620.12671 475.90685,619.912749 C501.225461,619.698788 501.225461,620.340672 526.323911,620.12671 C551.642522,619.912749 551.642522,619.270865 576.740972,619.270865 C602.059583,619.056903 610.205571,636.815701 627.598356,619.056903 C645.651627,600.44226 626.937871,593.167572 626.937871,567.706164 C626.937871,542.244756 626.717709,542.244756 626.717709,516.569386 C626.717709,491.107978 627.378194,491.107978 627.158032,465.432608 C627.158032,439.9712 626.717709,439.9712 627.158032,414.295831 C627.604178,403.889893 626.929253,388.423064 625.792809,372.667052 C624.125218,349.547045 621.463885,325.804369 619.892692,316.515465 Z" id="Path"></path>
                            <path d="M616.286578,363.159053 C613.726099,340.693104 610.098754,318.227156 606.471409,295.975169 C603.057437,274.365066 598.789973,252.754963 593.455642,231.572783 C583.000354,190.706153 565.077002,151.979137 539.472215,118.387196 C513.867427,84.7952536 479.08759,58.4779998 440.893782,41.1471253 C431.291987,36.867897 421.690191,33.0165916 412.088396,28.9513247 C401.633108,24.6720964 391.391193,20.6068296 380.722531,16.7555241 C360.452074,9.69479747 338.901378,4.98764637 317.564055,2.206148 C294.519746,-0.789311792 271.68881,-0.575350378 248.857875,3.06199365 C227.520552,6.48537627 206.609975,13.3321415 186.766265,22.1045595 C148.14571,39.435434 112.725754,64.2549579 85.6273532,96.9910542 C72.6115862,112.610237 61.0894317,129.941112 51.7010096,148.127832 C41.6724678,167.384359 34.8445244,187.496732 30.3636865,208.678912 C25.8828487,230.502976 22.2555038,252.541002 20.1217715,274.579027 C17.9880392,296.831014 16.7077998,318.86904 15.0008139,341.121027 C13.5072013,360.805477 10.9467226,380.275966 9.87985642,399.960416 C8.81299026,420.500712 8.3862438,441.254969 7.95949734,461.795264 C7.53275088,483.405367 8.17287057,505.01547 8.17287057,526.411611 C8.17287057,537.109682 8.17287057,547.593791 8.3862438,558.291862 C8.3862438,563.212974 8.3862438,568.134087 8.59961703,573.055199 C8.59961703,575.194814 8.59961703,577.120466 8.59961703,579.26008 C8.59961703,580.329887 8.3862438,581.399695 8.3862438,582.25554 C8.3862438,582.683463 8.17287057,583.111386 8.17287057,583.539309 C7.95949734,585.037039 8.59961703,581.185733 8.17287057,583.75327 C6.89263119,589.958151 4.54552565,595.735109 2.41179335,601.726029 C0.491434273,607.075064 -1.00217834,612.852022 0.918180734,618.415019 C3.4786595,625.903669 10.9467226,630.182897 17.7746659,632.750434 C25.8828487,635.745894 34.4177779,638.099469 43.1660804,637.243623 C50.207397,636.601739 57.0353404,634.462125 64.076657,633.392318 C66.4237625,632.964395 61.7295514,633.606279 64.2900302,633.392318 C65.3568963,633.392318 66.6371357,633.178357 67.7040019,633.178357 C70.2644806,632.964395 72.8249594,632.964395 75.3854382,632.964395 C79.4395296,632.964395 83.7069942,632.964395 87.7610856,632.964395 C102.697212,632.964395 117.846711,632.964395 132.782837,632.750434 C162.441716,632.536472 191.887222,632.10855 221.546101,631.894588 C236.055481,631.894588 250.56486,632.322511 265.07424,632.10855 C279.58362,632.10855 294.092999,631.894588 308.602379,631.894588 C323.538505,631.894588 338.474631,631.038742 353.410758,630.61082 C368.346884,630.182897 383.28301,630.824781 398.432509,631.038742 C428.944881,631.680627 459.457253,629.968935 489.756252,630.396858 C505.119124,630.61082 520.481997,630.396858 535.84487,629.968935 C543.099559,629.754974 550.140876,629.541013 557.395566,629.541013 C559.529298,629.541013 561.876404,629.541013 564.010136,629.541013 C566.357242,629.541013 561.449657,629.11309 564.436883,629.541013 C565.290375,629.754974 566.357242,629.754974 567.210735,629.968935 C568.91772,630.396858 570.624706,630.824781 572.545065,631.252704 C573.185185,631.466665 573.825305,631.680627 574.678798,631.894588 C571.051453,631.038742 573.825305,631.680627 574.892171,631.894588 C581.720114,634.462125 588.548058,637.243623 596.016121,636.815701 C606.684782,636.173816 614.792965,630.396858 621.620908,622.694247 C626.741866,616.917289 630.582584,609.42864 629.942464,601.726029 C629.515718,595.093225 626.955239,589.316267 624.821507,583.325347 C624.39476,581.827617 623.754641,580.329887 623.327894,578.832158 C623.114521,577.976312 622.901148,577.120466 622.687774,576.264621 C622.687774,575.836698 622.474401,575.408775 622.474401,574.980852 C622.474401,574.552929 622.047655,572.413315 622.261028,573.911045 C622.474401,575.408775 622.047655,572.627277 622.047655,572.199354 C621.834282,571.129547 621.834282,570.05974 621.834282,568.989933 C621.834282,566.422396 621.834282,563.854859 621.834282,561.501283 C621.834282,554.654518 621.834282,547.593791 621.834282,540.747026 C621.834282,525.341804 621.620908,509.936582 622.047655,494.531361 C622.687774,464.362801 622.047655,434.194242 622.687774,403.811721 C622.901148,390.118191 622.901148,376.42466 622.261028,362.73113 C622.047655,356.312287 615.433085,351.819098 609.245261,352.033059 C603.484184,352.247021 596.016121,355.884365 596.229494,362.73113 C597.082987,391.187998 595.802747,419.644866 596.016121,448.101734 C596.229494,478.484255 595.589374,508.866775 595.802747,539.035335 C595.802747,545.240216 595.802747,551.659058 595.802747,557.863939 C595.802747,567.06428 596.016121,575.836698 598.576599,584.823077 C600.283585,590.386074 602.203944,596.163032 604.124303,601.512067 C604.55105,602.581874 603.91093,600.014338 603.91093,600.014338 C603.91093,600.228299 603.91093,600.656222 603.91093,600.870183 C603.91093,601.512067 604.124303,602.153952 603.91093,602.795836 C603.91093,603.43772 603.91093,603.865643 603.91093,604.507527 C603.91093,606.005257 603.27081,603.865643 604.124303,603.43772 C603.91093,603.43772 603.91093,604.507527 603.91093,604.507527 C603.697557,605.149411 603.484184,605.791296 603.27081,606.219219 C602.630691,607.93091 604.55105,604.293566 603.27081,606.43318 C602.203944,608.144871 601.137078,609.42864 599.856839,611.140331 C599.216719,612.210138 600.070212,610.92637 600.283585,610.712408 C599.856839,611.140331 599.643466,611.354292 599.216719,611.782215 C598.576599,612.4241 597.723106,613.279945 596.869614,613.921829 C596.65624,614.135791 594.949254,615.205598 594.949254,615.419559 C594.949254,615.205598 597.509733,613.921829 595.802747,614.991636 C595.376001,615.205598 594.949254,615.419559 594.735881,615.633521 C594.522508,615.847482 594.095762,615.847482 593.882388,616.061444 C593.028895,616.703328 595.589374,615.419559 595.589374,615.419559 C595.162628,615.419559 594.095762,615.633521 593.669015,615.847482 C593.028895,616.061444 597.082987,615.847482 594.949254,615.633521 C594.309135,615.633521 591.535283,615.419559 594.095762,615.633521 C596.65624,615.847482 594.522508,615.633521 593.882388,615.419559 C593.242269,615.205598 592.602149,615.205598 591.962029,614.991636 C591.32191,614.777675 590.895163,614.563714 590.255043,614.563714 C588.548058,614.135791 593.242269,615.633521 590.468417,614.563714 C586.627698,613.279945 583.000354,611.782215 579.159635,610.712408 C564.436883,606.219219 548.220517,608.144871 533.071018,608.572794 C502.985392,609.42864 472.899767,608.358833 442.814141,609.000717 C427.878015,609.42864 412.728516,609.856563 397.579016,609.42864 C382.856263,609.214678 368.13351,608.786755 353.410758,609.214678 C338.901378,609.642601 324.605371,610.498447 310.095992,610.498447 C296.013359,610.712408 282.144099,610.712408 268.061465,610.92637 C253.978832,611.140331 239.682826,610.712408 225.600192,610.712408 C211.090813,610.712408 196.581433,610.92637 182.072053,611.140331 C152.199801,611.354292 122.540922,611.782215 92.6686699,611.996177 C84.7738603,611.996177 76.8790508,611.996177 69.1976145,612.210138 C61.0894317,612.4241 53.4079954,613.921829 45.7265591,615.633521 C44.4463198,615.847482 42.9527071,616.275405 41.6724678,616.489366 C39.5387355,616.917289 41.4590945,616.275405 42.5259607,616.489366 C41.6724678,616.489366 40.8189748,616.703328 40.1788551,616.703328 C39.5387355,616.703328 38.8986158,616.703328 38.2584961,616.703328 C37.8317496,616.703328 37.6183764,616.703328 37.1916299,616.703328 C35.9113905,616.703328 38.8986158,616.917289 38.6852425,616.917289 C36.7648835,616.275405 34.8445244,616.275405 32.9241653,615.633521 C32.0706724,615.419559 31.2171795,614.991636 30.1503133,614.777675 C28.8700739,614.349752 30.5770598,614.991636 30.790433,614.991636 C30.1503133,614.777675 29.5101936,614.563714 28.6567007,614.135791 C27.1630881,613.493907 25.6694755,612.852022 24.1758629,611.996177 C22.468877,611.140331 26.0962219,613.493907 24.8159826,612.4241 C24.3892361,611.996177 22.8956235,610.498447 24.3892361,612.210138 C25.8828487,613.921829 24.6026093,612.4241 24.3892361,611.996177 C23.7491164,610.284485 25.6694755,614.349752 24.8159826,612.638061 C24.6026093,612.210138 24.3892361,610.498447 24.8159826,612.638061 C25.242729,614.777675 24.8159826,612.852022 25.0293558,612.4241 C25.0293558,611.996177 25.242729,611.568254 25.0293558,611.140331 C25.0293558,611.140331 24.3892361,613.707868 24.8159826,612.852022 C25.0293558,612.4241 25.0293558,611.996177 25.0293558,611.782215 C25.6694755,609.42864 26.5229684,607.075064 27.3764613,604.93545 C29.9369401,598.088685 32.0706724,591.455881 33.1375385,584.395154 C34.4177779,575.622736 33.564285,566.636357 33.564285,557.649978 C33.564285,547.165868 33.564285,536.681759 33.3509118,526.411611 C32.9241653,485.117058 32.4974188,443.608544 34.6311512,402.313991 C35.4846441,383.271426 38.0451228,364.22886 39.5387355,345.186294 C41.2457213,323.576191 42.5259607,301.966088 44.2329465,280.355986 C46.1533056,258.531921 49.1405308,238.63351 53.1946222,217.665291 C57.2487136,197.552919 62.7964176,178.08243 71.9714665,159.681748 C72.1848397,159.467787 73.2517059,157.114211 72.8249594,157.970057 C73.4650791,156.90025 74.1051988,155.616482 74.7453185,154.546674 C76.0255579,152.193099 77.3057973,149.839523 78.5860366,147.699909 C81.1465154,143.20672 83.9203674,138.927491 86.6942194,134.648263 C92.2419234,126.303768 97.7896274,118.173234 103.977451,110.256662 C110.592021,101.912167 115.499606,96.5631314 122.967669,89.2884433 C130.222358,82.4416781 137.903795,75.8088743 145.798604,69.8179547 C161.588223,57.6221541 177.591216,48.6357747 196.581433,39.8633568 C201.275644,37.7237427 205.969855,35.7980899 210.664066,33.8724372 C213.011172,33.0165916 215.144904,32.1607459 217.49201,31.3049002 C217.918756,31.0909388 218.558876,30.8769774 218.985622,30.663016 C220.692608,30.0211318 217.49201,31.0909388 219.412369,30.4490546 C220.692608,30.0211318 221.972848,29.5932089 223.253087,29.1652861 C233.068256,25.9558649 243.096797,23.6022894 253.125339,21.6766366 C255.685818,21.2487138 258.246297,20.820791 260.593402,20.3928682 C261.873642,20.1789067 263.367254,19.9649453 264.647494,19.9649453 C264.647494,19.9649453 266.567853,19.7509839 265.500987,19.9649453 C264.43412,20.1789067 266.781226,19.7509839 266.781226,19.7509839 C272.115557,19.3230611 277.449887,18.8951383 282.784218,18.8951383 C288.118549,18.6811768 293.45288,18.8951383 298.787211,19.1090997 C301.347689,19.3230611 303.908168,19.5370225 306.468647,19.7509839 C307.32214,19.7509839 307.962259,19.9649453 308.815752,19.9649453 C308.602379,19.9649453 307.32214,19.7509839 308.602379,19.9649453 C309.882619,20.1789067 311.376231,20.3928682 312.656471,20.3928682 C333.353674,23.1743665 354.26425,27.6675562 374.107961,34.30036 C374.748081,34.5143214 375.601574,34.7282829 376.241693,35.1562057 C376.02832,35.1562057 374.961454,34.7282829 376.241693,35.1562057 C377.308559,35.5841285 378.375426,36.0120513 379.442292,36.4399742 C382.216144,37.5097812 384.776622,38.5795883 387.550474,39.435434 C392.244685,41.3610867 396.938897,43.072778 401.633108,44.9984307 C411.234903,48.8497362 421.050072,52.7010416 430.651867,56.9802699 C440.040289,61.2594981 449.001965,66.1806107 457.750267,71.3156846 C466.071823,76.2367971 473.539886,81.1579096 481.648069,87.576752 C497.437688,99.7725526 510.880202,113.252122 522.615729,128.871305 C534.351257,144.490488 545.446665,161.39344 553.768221,178.938276 C562.729897,197.76688 569.984586,217.45133 575.53229,237.563703 C581.293368,258.31796 585.774206,279.50014 589.828297,300.468359 C593.882388,321.008654 598.149853,341.762911 601.350451,362.517168 C601.990571,366.368474 604.977796,368.722049 608.818514,368.722049 C612.019113,369.363934 616.713324,367.010358 616.286578,363.159053 Z" id="Path"></path>
                        </g>
                    </g>
                </g>
            </g>
            <g id="Group-3" filter="url(#filter-1)" transform="translate(687.500000, 618.500000) scale(-1, 1) translate(-687.500000, -618.500000) translate(461.000000, 217.000000)">
                <path d="M450.273407,697.065942 C449.164551,697.223557 448.049652,697.331931 446.780399,696.604916 C445.969763,696.140592 445.07403,695.31223 444.164494,693.805658 C441.426645,689.270632 439.302331,684.591476 437.485428,680.585363 C435.644755,676.526837 434.151409,673.169706 432.613902,671.464778 C432.168786,670.971194 431.740019,670.61493 431.262707,670.545929 C430.867058,670.488733 430.47475,670.670953 430.051022,671.008893 C427.658755,672.916816 427.636258,683.900326 427.431829,691.594908 C427.340799,695.021248 427.259542,697.885538 427.044314,699.272421 C426.819408,700.721663 426.749732,702.089745 426.68441,703.345686 C426.555574,705.822798 426.387293,707.884572 425.403866,709.391096 C424.583674,710.64756 423.231942,711.592443 420.805803,712.020236 C419.468291,712.256076 418.332657,712.204915 417.373144,711.883805 C416.363111,711.545788 415.528964,710.91455 414.861616,709.947757 C413.707122,708.275233 413.062073,705.473135 412.88955,701.307506 C412.783712,698.75199 412.825504,695.655497 412.868532,692.515214 C412.933881,687.745854 413.007135,682.87291 412.538134,679.706095 C412.381814,678.650578 412.179822,677.800682 411.860706,677.262513 C410.968711,677.104192 409.951711,678.658355 408.530103,680.417209 C405.72807,683.883964 401.805598,688.675528 397.464275,690.732339 C396.452561,691.211664 395.447879,691.364394 394.498905,691.274958 C393.46064,691.177107 392.485956,690.786311 391.641869,690.192276 C389.840754,688.924724 388.662925,686.730796 388.701397,684.648161 C388.7906,679.81927 392.922664,674.498246 397.01746,669.388282 C401.013681,664.401332 405.241513,659.570745 403.806426,655.656372 C403.677462,655.304605 403.59672,654.90968 403.51894,654.504414 C403.411587,653.945055 403.396342,653.263606 402.784377,652.920889 C402.265566,652.630341 401.433585,652.582966 400.123152,652.77332 C397.616367,653.137456 394.703815,654.174544 391.838415,655.186563 C388.685091,656.300273 385.585797,657.38112 383.097074,657.63103 C380.915971,657.850049 379.191072,657.423897 378.07693,656.186634 C376.924724,654.907101 376.299341,653.644695 376.053725,652.422181 C375.773578,651.027798 375.982349,649.670578 376.543446,648.364525 C377.92602,645.146334 381.58558,642.239457 384.565041,639.928074 C385.154108,639.471092 385.713101,639.037565 386.215517,638.62921 C393.787466,632.474859 404.941633,629.276936 416.881656,627.043131 C416.636571,624.763953 416.38357,622.368565 416.118247,619.856504 C413.843554,598.319874 410.662472,568.198533 403.79123,529.200571 C401.993597,518.998043 400.146037,509.338044 398.297142,500.234796 C392.744187,559.510706 377.176157,606.882255 353.105636,639.694875 C328.224996,673.611836 294.26838,692.022638 252.84706,692.022638 C219.517524,692.022638 189.449937,678.310956 164.618679,653.675921 C140.511721,629.759464 121.340092,595.531346 108.940547,553.584295 C107.882412,573.483794 107.045762,595.187641 107.045762,617.608637 C107.045762,655.399888 109.140023,684.235679 110.637258,704.854541 C111.037155,710.361638 111.394524,715.283571 111.659965,719.634153 C124.689998,719.672503 136.781801,720.790352 145.62656,725.713426 C146.192198,726.028266 146.817921,726.358062 147.477331,726.705731 C150.812651,728.464253 154.921062,730.691053 156.841076,733.62012 C157.620288,734.808843 158.06141,736.109179 158.027469,737.531085 C157.997714,738.777664 157.600897,740.129523 156.688246,741.589792 C155.80575,743.001811 154.181044,743.721147 151.99519,743.884473 C149.500905,744.070846 146.261144,743.545012 142.962468,742.996203 C139.965005,742.497507 136.916753,741.982317 134.384876,742.059337 C133.061258,742.099602 132.250107,742.290877 131.789576,742.667181 C131.246315,743.111084 131.349482,743.784894 131.340817,744.354506 C131.334541,744.767122 131.323553,745.170068 131.257587,745.538895 C130.523525,749.643116 135.525301,753.665579 140.326044,757.882204 C145.245366,762.202979 150.237976,766.725124 151.163734,771.465174 C151.562982,773.509398 150.783797,775.874598 149.230036,777.43583 C148.501884,778.167484 147.609858,778.721688 146.604395,778.998466 C145.685347,779.251456 144.669417,779.275629 143.589891,778.979398 C138.957582,777.708258 134.263227,773.671122 130.902182,770.743953 C129.197089,769.25897 127.925904,767.905143 127.289363,767.905143 C126.853847,768.801734 126.802386,769.67384 126.831593,770.740508 C126.919217,773.940694 127.836902,778.726848 128.728828,783.412366 C129.316098,786.497447 129.894553,789.539618 130.233751,792.074689 C130.786663,796.207001 130.637641,799.078754 129.790873,800.926541 C129.301435,801.994577 128.589515,802.761134 127.653519,803.269455 C126.764304,803.752371 125.654813,804 124.296722,804 C121.833128,804 120.337953,803.304222 119.312187,802.209339 C118.08228,800.89656 117.558782,798.895457 117.002063,796.478422 C116.719812,795.253009 116.413812,793.917912 115.940867,792.529819 C115.488258,791.201413 114.911227,788.394768 114.227046,785.036312 C112.690603,777.494342 110.762729,766.681714 108.075769,765.21852 C107.599876,764.95937 107.181931,764.848123 106.802249,764.973194 C106.344101,765.124113 105.983608,765.549512 105.630848,766.11303 C104.412524,768.059247 103.524371,771.624898 102.415878,775.94165 C101.321714,780.202606 100.041595,785.179795 98.1322525,790.121664 C97.4979836,791.763315 96.7596378,792.734706 96.041919,793.332816 C94.8994854,794.284861 93.7594693,794.358053 92.8847015,794.38644 C91.3570617,794.449728 90.3561042,793.722654 89.5882412,792.607837 C88.6429327,791.235398 88.0920283,789.222593 87.7898046,788.00495 C86.4772004,782.716541 87.908668,753.252034 95.4033298,734.898703 C86.2130209,715.575807 77.4331694,672.815901 77.4331694,624.225102 C77.4331694,578.556199 85.922176,513.64052 94.9419884,477.910958 C93.7207007,464.236841 93.0928927,450.077997 93.0928927,435.49541 C93.0928927,380.268553 79.786328,252.56838 59.4593286,168.899759 C59.1203524,168.652923 58.8147661,168.539088 58.4445641,168.437505 C57.4176395,168.15572 55.9648098,168.019771 54.2416933,167.972486 C49.289299,167.836586 42.1972859,168.467319 36.2490923,168.993782 C32.1895497,169.353084 28.6544751,169.66368 26.6556558,169.66368 C25.3465889,169.66368 23.8966851,169.74229 22.3771118,169.824088 C17.359599,170.094177 11.6365875,170.34744 7.50577045,168.272536 C4.43767852,166.731437 2.16037826,163.971563 1.61189914,159.03178 C1.43094391,157.402037 1.95509756,155.749424 3.11292793,154.095455 C4.25601817,152.462542 6.03151013,150.814773 8.27436798,149.173164 C13.9367882,145.028683 22.6349831,140.866606 31.1910163,136.781335 C39.1155631,132.997582 46.9163284,129.280729 51.9795845,125.684568 C53.8359195,124.366112 55.3161837,123.073267 56.2625177,121.793274 C56.9991641,120.796901 57.4110774,119.821376 57.3036818,118.846914 C57.1874842,117.792586 56.4713433,116.9715 55.4033725,116.278746 C53.9752192,115.352355 51.9292291,114.667611 49.4813018,114.133764 C42.5686016,112.626234 32.5439762,112.385212 23.5338411,112.161144 C12.4565712,111.88567 3.22314213,111.311345 1.77383237,109.138155 C-0.0889668207,106.344952 -1,103.57689 -1,101.075584 C-1,98.4690081 -0.0285376622,96.1311712 1.92074812,94.2981709 C5.45214323,90.9774427 22.3741153,81.3313891 44.061286,78.3847353 C56.4069044,76.7073259 73.1998811,77.8418383 86.960343,78.778632 C99.0419927,79.6011345 109.146993,80.6942951 110.50013,78.795322 C110.650882,78.5837598 110.647261,78.3230505 110.584268,78.0385198 C110.467992,77.5133103 110.147253,76.9226781 109.681268,76.2637034 C108.506427,74.6022964 106.435793,72.6073248 103.777441,70.3906983 C96.3822458,64.2243273 84.4978076,56.4432797 74.0666563,49.6104695 C62.6729694,42.1471609 53.1516916,35.7040398 52.4008415,33.5988348 C51.1938598,30.2147452 50.8317153,27.1987654 52.6919881,24.8587943 C54.1298618,23.0501442 56.9984852,21.5752554 62.3122421,20.8117264 C78.9912134,18.4151398 115.523035,25.4310785 130.844436,29.2321921 C133.55457,29.9045539 139.553461,32.6112021 146.620057,35.814084 C155.700852,39.9298868 166.575734,44.8635 174.401962,47.194002 C177.155274,48.013886 179.515975,48.5132898 181.259701,48.5056262 C181.932706,48.5026684 182.50077,48.4283822 182.936741,48.2358278 C183.200259,48.1194404 183.40629,47.9574987 183.512017,47.7118054 C183.75498,47.147197 183.316285,46.2894333 182.708441,45.2608723 C181.840726,43.7925714 180.401103,42.0065905 178.508615,40.0030569 C174.631288,35.8982179 168.876004,30.9186016 162.137679,25.9395023 C158.718026,23.4126441 154.700426,21.2134845 150.92609,19.1440428 C146.813772,16.8892883 142.986651,14.779182 140.457922,12.5949042 C138.317512,10.7460505 137.106997,8.81958192 137.106997,6.77897557 C137.106997,5.27527212 137.497872,4.05909265 138.16949,3.06843519 C138.893201,2.00093927 139.954752,1.18950754 141.270368,0.593112558 C144.311395,-0.785444939 148.790044,-0.986901851 153.057968,-0.999206938 L153.645405,-1 C181.303892,-1 229.483759,11.8108961 253.696888,50.8519626 C266.812986,72.0002613 277.603699,103.514349 288.781894,136.197907 C296.025032,157.375882 303.435022,179.044559 311.762772,198.680619 C318.852087,215.396562 326.818555,233.139618 334.99285,251.345749 C357.807786,302.160129 382.233706,356.578314 393.776935,402.359303 C407.400439,427.782215 425.482452,481.650194 434.157052,530.88317 C442.047103,575.663431 442.200551,616.862846 438.198609,640.479263 C448.220595,657.405857 454.346423,684.649599 453.982545,689.924237 C453.896199,691.175886 453.702935,693.25382 453.010144,694.769666 C452.432043,696.034567 451.528719,696.901143 450.273407,697.065942 Z" id="Combined-Shape" stroke="#000000" stroke-width="2" fill="#F3A7A7"></path>
                <g id="Group-2" transform="translate(107.000000, 202.000000)">
                    <path d="M1.03689945,111.407 C0.671881368,104.189935 2.9863947,93.6860139 7.79934124,80.6830334 C8.04807301,80.0110429 8.29193362,79.3516679 8.53120404,78.7047043 C13.2783067,65.8690069 16.1810956,57.9560323 19.5177699,53.3632 C22.2980855,49.5361787 25.3919177,48.1759275 30.2468202,48.1759275 C32.8180638,48.1759275 35.0342662,49.122933 36.8476174,50.8822989 C38.7908311,52.7676611 40.2718243,55.5568187 41.2728946,59.0803319 C43.3031887,66.2264513 43.3395282,76.3319111 40.9981386,88.2795692 C38.9290361,98.8377987 34.5901698,106.58709 29.4120222,111.943 C22.9399431,118.637262 15.1678973,121.585205 8.99836883,121.585205 C6.55392345,121.585205 4.66894864,120.765218 3.36313274,119.143521 C1.9495126,117.387941 1.20679395,114.76612 1.03689945,111.407 Z" id="Oval" stroke="#000000" stroke-width="2" fill="#AD6161"></path>
                    <path d="M129.857454,80.1407144 C127.4103,80.1386929 125.522649,79.3172866 124.214091,77.6950123 C122.798054,75.9394923 122.052509,73.3188569 121.879727,69.9619116 C121.508517,62.7497829 123.815953,52.2553819 128.62134,39.2658405 C128.86969,38.59452 129.113177,37.9358022 129.352079,37.2894834 C134.091733,24.4670066 136.989858,16.5621108 140.324955,11.975353 C143.103955,8.15339401 146.198857,6.79714441 151.056796,6.80115032 C153.630611,6.80327697 155.849805,7.75176381 157.66642,9.51195062 C159.612644,11.3977201 161.097156,14.1863177 162.101889,17.7084428 C164.139423,24.8510845 164.184119,34.9493199 161.85103,46.8864119 C159.789338,57.4349202 155.454174,65.1747807 150.27719,70.522362 C143.806199,77.2065912 136.031153,80.1458066 129.857454,80.1407144 Z" id="Oval" stroke="#000000" stroke-width="2" fill="#AD6161" transform="translate(142.727671, 43.470932) scale(1, -1) rotate(40.000000) translate(-142.727671, -43.470932) "></path>
                    <ellipse id="Oval" fill="#000000" cx="60.4180097" cy="180.462475" rx="12.719581" ry="17.5187624"></ellipse>
                    <ellipse id="Oval" fill="#000000" cx="143.095286" cy="123.128344" rx="12.719581" ry="17.5187624"></ellipse>
                    <path d="M225.671625,362.89956 C216.850986,392.431983 190.976947,416.053811 168.090125,424.89163 C156.12271,429.512886 139.925933,431.730888 125.506183,428.660919 C114.103561,426.233297 103.807677,420.493935 97.6414124,409.976447 C92.3804815,401.003143 91.1574482,392.455775 92.582583,384.554881 C94.3074261,374.992416 99.8972427,366.382984 106.854971,359.107346 C112.508527,353.19547 118.591553,351.652444 124.979348,350.012751 C133.120236,347.923054 141.754503,345.695674 150.683512,334.616854 C160.082513,322.954883 164.995299,307.488648 169.274135,293.983994 C173.64497,280.188981 177.281465,268.381906 184.634793,265.156027 C191.367942,262.202218 199.101085,263.215896 206.033494,267.011617 C213.13325,270.898965 219.399747,277.70595 222.934471,286.222972 C231.632753,307.181737 232.824884,338.949697 225.671625,362.89956 Z" id="Oval" stroke="#000000" fill="#000000"></path>
                    <g id="Combined-Shape">
                        <use fill="#FFFFFF" fill-rule="evenodd" xlink:href="#path-2"></use>
                        <use fill="black" fill-opacity="1" filter="url(#filter-3)" xlink:href="#path-2"></use>
                        <path stroke="#000000" stroke-width="2" d="M196.153505,287.167665 C196.153505,313.285129 186.11713,336.93216 169.883892,354.048444 C153.669319,371.145047 131.270514,381.724551 106.526491,381.724551 C102.486226,381.724551 98.5084279,381.442565 94.6102169,380.894697 C96.5601095,372.887504 101.08903,365.860183 107.216332,359.452916 C112.794543,353.619828 118.804194,352.11407 125.103663,350.49705 C133.331141,348.385127 142.050841,346.124778 151.072813,334.930613 C160.510283,323.220911 165.45401,307.696279 169.750782,294.135016 C174.05757,280.542143 177.568369,268.80204 184.835663,265.613904 C187.512366,264.439644 190.424033,263.871085 193.406786,263.850193 C195.200893,271.308559 196.153505,279.120806 196.153505,287.167665 Z" stroke-linejoin="square"></path>
                    </g>
                    <ellipse id="Oval" fill="#FFFFFF" cx="65.1878525" cy="170.906787" rx="4.76984287" ry="4.7778443"></ellipse>
                    <ellipse id="Oval" fill="#FFFFFF" cx="147.865129" cy="113.572655" rx="4.76984287" ry="4.7778443"></ellipse>
                </g>
            </g>
            <g id="Group-5" filter="url(#filter-4)" transform="translate(867.000000, 569.000000)">
                <path d="M717.444139,262.24632 L467.721124,262.245697 C467.754447,271.821427 467.745658,281.897627 467.73655,292.334532 C467.73223,297.284522 467.727839,302.315665 467.727839,307.413045 C467.727839,312.510424 467.73223,317.541567 467.73655,322.491557 C467.786559,379.798612 467.733866,426.234612 460.90905,438.946682 C459.473028,442.850171 457.401428,446.249001 453.971413,448.556676 C451.093612,450.492827 447.244885,451.673277 441.94695,451.673279 C438.77072,451.67328 435.984492,451.775568 433.534259,451.865375 C427.825186,452.074628 423.882159,452.166303 421.048801,450.918795 C418.532533,449.810901 416.787082,447.71652 415.537437,443.674308 C413.937721,438.499721 414.782981,433.467181 417.519779,429.058036 C420.303459,424.573359 425.069481,420.730227 431.223567,418.093119 C432.108934,417.713727 433.196324,417.20033 434.39095,416.636656 C436.570237,415.608378 439.098606,414.417208 441.423298,413.539484 C436.362242,388.876919 433.106083,350.507802 433.106083,307.413045 C433.106083,291.569277 433.545898,276.364576 434.353614,262.245685 L283.343298,262.244243 C283.968778,280.246501 284.079204,301.482674 284.079204,324.224695 C284.079204,349.663036 285.807561,373.679626 287.232186,393.483574 C288.176579,406.611739 288.987276,417.89406 289.078027,426.521226 C289.517868,428.898572 289.374233,431.64456 289.210667,434.531755 C289.146697,435.660923 289.081297,436.812349 289.052894,437.971176 C288.994931,440.336055 288.536352,442.203018 287.750112,443.687822 C286.883168,445.325034 285.617796,446.515602 283.995154,447.381655 C280.329666,449.338035 274.710838,449.559774 267.810758,449.766178 C267.473011,449.776281 267.132153,449.786477 266.788272,449.796994 C266.44672,449.80744 266.105717,449.818094 265.765491,449.828724 C258.639771,450.051355 251.85993,450.219433 247.415419,448.38657 C245.524507,447.606781 244.034085,446.476111 243.044961,444.896081 C242.144223,443.457239 241.651351,441.632846 241.708309,439.308962 C241.843881,433.777695 244.616822,428.674744 249.02977,424.913249 C253.072888,421.466987 258.49105,419.151771 264.458589,418.684527 C256.591301,396.189109 249.513024,361.747002 249.513024,324.224695 C249.513024,301.486555 250.629416,280.252031 252.562551,262.244243 L16.2452168,262.24632 C12.0107094,262.24632 8.26061601,260.632892 5.34049535,257.809747 C2.43714055,255.002811 0.353201803,250.986642 -0.529972413,246.159194 C-2.03486281,237.933433 -0.0529896282,227.312822 7.32912995,216.466817 C17.4390822,201.613007 37.733403,186.280241 73.1391821,176.294942 C108.479961,166.327975 135.501804,163.661252 152.697234,161.965227 C159.150104,161.328765 164.205018,160.834612 167.778801,160.132714 C165.146902,156.860282 162.343157,153.666287 159.324741,150.68095 C145.204153,136.715106 133.696913,122.283832 126.501533,110.245745 C122.79562,104.045642 120.230268,98.4699633 119.017221,93.9064673 C117.760914,89.1802277 117.985792,85.5135171 119.644078,83.1880972 C120.495772,81.9937642 121.68329,81.1723168 123.180621,80.7199307 C124.600048,80.2910816 126.313074,80.1989413 128.283959,80.4506756 C132.083902,80.9360293 136.899247,82.7096709 142.404318,85.6284662 C152.756316,91.1171079 165.609985,100.666808 178.770867,113.074872 C188.148372,76.8449334 209.175824,49.4189953 236.869073,30.5446575 C267.88533,9.40552287 307.276165,-1 348.021338,-1 C387.528594,-1 421.680421,10.0284955 449.462838,30.7451267 C477.254448,51.4686135 498.678708,81.8965452 512.685737,120.72481 C513.823617,119.702998 514.956603,118.638925 516.079024,117.5291 C528.973778,104.77905 541.675034,94.6768373 551.781154,88.643993 C557.018614,85.5174933 561.575779,83.4798508 565.121211,82.6970457 C566.974504,82.2878526 568.56988,82.2186355 569.868278,82.4791009 C571.300681,82.7664484 572.399237,83.4442847 573.149855,84.4969528 C574.506639,86.3997104 574.587172,89.5545191 573.252052,93.741559 C571.991492,97.6947753 569.510953,102.593756 566.011315,108.093858 C559.220778,118.766003 548.579613,131.740729 535.691681,144.484034 C531.540267,148.588861 527.790013,153.065042 524.337258,157.545317 C529.72063,159.470492 546.980741,160.957692 568.006838,162.850405 C599.947953,165.725659 640.545753,169.392685 662.277231,176.304437 C688.929646,184.781306 705.522246,199.081666 715.067092,213.533825 C722.102907,224.18698 725.313617,234.935372 725.899786,243.543396 C726.264389,248.897659 725.610072,253.436217 724.249759,256.652796 C723.505996,258.411488 722.546646,259.787971 721.436308,260.728197 C720.262173,261.722446 718.91578,262.24632 717.444139,262.24632 Z" id="Combined-Shape" stroke="#000000" stroke-width="2" fill="#99CAF4"></path>
                <path d="M347.305867,159.196327 C330.90663,159.91411 316.413362,155.523044 305.54806,149.053077 C299.167971,145.253923 294.040911,140.74021 290.528637,136.124591 C287.028659,131.525132 285.12677,126.834105 285.284636,122.68046 C285.42327,119.032835 287.270557,115.500038 290.426404,112.202306 C293.836416,108.638981 298.766402,105.360604 304.829356,102.523464 C316.884751,96.8821823 333.392358,93.0059862 351.48984,92.2138719 C369.572867,91.4223902 385.827148,93.8583443 397.484368,98.4578739 C403.320013,100.760414 407.994101,103.598566 411.12787,106.857813 C414.012388,109.857828 415.575695,113.210687 415.438506,116.82028 C415.122786,125.12724 405.723279,136.241011 391.743471,145.010158 C379.605982,152.623669 363.928217,158.468778 347.305867,159.196327 Z" id="Oval" stroke="#000000" stroke-width="2" fill="#000000" transform="translate(350.361257, 125.669749) rotate(-15.000000) translate(-350.361257, -125.669749) "></path>
                <path d="M346.308138,147.501157 C330.92746,148.174359 317.313119,144.608745 307.093603,139.301801 C301.106709,136.192837 296.288588,132.489479 292.982141,128.691931 C289.729878,124.956615 287.931537,121.14371 288.060564,117.748877 C288.173626,114.774075 289.883009,111.898227 292.777668,109.200097 C295.956542,106.23705 300.560209,103.504528 306.226639,101.129345 C317.510699,96.3994359 332.977857,93.1103848 349.9496,92.3675433 C366.909706,91.6252111 382.167057,93.5648825 393.1214,97.3186549 C398.59618,99.1947215 402.985455,101.516308 405.933931,104.196507 C408.593309,106.613912 410.066398,109.316757 409.954907,112.250211 C409.694545,119.100627 400.9131,128.263163 387.928821,135.541336 C376.576336,141.904827 361.895386,146.818914 346.308138,147.501157 Z" id="Oval" stroke="#000000" stroke-width="2" fill="#FFFFFF" transform="translate(349.007512, 119.896944) rotate(-15.000000) translate(-349.007512, -119.896944) "></path>
                <ellipse id="Oval" fill="#000000" cx="244.5" cy="117" rx="10.5" ry="12"></ellipse>
                <ellipse id="Oval" fill="#000000" cx="456.5" cy="113" rx="10.5" ry="12"></ellipse>
                <ellipse id="Oval" fill="#FFFFFF" cx="462" cy="108.5" rx="4" ry="4.5"></ellipse>
                <ellipse id="Oval" fill="#FFFFFF" cx="249" cy="113.5" rx="4" ry="4.5"></ellipse>
            </g>
            <rect id="Rectangle" fill="#000000" x="0" y="909" width="1923" height="222"></rect>
        </g>
    </g>
</svg>