<?xml version="1.0" encoding="UTF-8"?>
<svg width="1922px" height="1018px" viewBox="0 0 1922 1018" version="1.1" xmlns="http://www.w3.org/2000/svg" xmlns:xlink="http://www.w3.org/1999/xlink">
    <!-- Generator: Sketch 62 (91390) - https://sketch.com -->
    <title>2scene6</title>
    <desc>Created with Sketch.</desc>
    <g id="Page-1" stroke="none" stroke-width="1" fill="none" fill-rule="evenodd">
        <g id="2scene6">
            <rect id="Rectangle" fill="#FFFFFF" x="0" y="0" width="1922" height="1018"></rect>
            <g id="charsquiggy" transform="translate(680.000000, 296.000000)">
                <ellipse id="Oval" fill="#D8D8D8" cx="281.5" cy="360.5" rx="269.5" ry="66.5"></ellipse>
                <path d="M555.294109,203.688126 L306.608856,202.492147 C306.634225,209.866639 306.62746,217.624303 306.620452,225.658456 C306.617114,229.484964 306.613721,233.374207 306.613721,237.314549 L306.613926,239.033759 C306.614709,242.387114 306.6176,245.701873 306.620452,248.970848 C306.659114,293.288926 306.60964,329.197158 301.335338,339.035965 C300.218596,342.069572 298.60603,344.709019 295.941069,346.502476 C293.704547,348.007603 290.714098,348.927664 286.59623,348.927666 C284.14301,348.927668 272.607326,349.304904 270.408347,348.336386 C268.442866,347.47071 261.639937,344.46924 266.060046,337.120393 C270.480155,329.771547 284.818031,327.89906 286.59623,327.223442 C282.693401,308.151189 279.66967,270.59122 279.66967,237.314652 C279.66967,225.101938 280.007556,213.38034 280.62824,202.492141 L253.697609,202.492147 C254.17801,216.388628 253.812453,230.617583 253.812453,248.158068 C253.812453,267.820424 255.147992,286.383846 256.248777,301.691143 C256.978272,311.835367 257.604477,320.554231 257.675281,327.223442 C258.014962,329.066918 257.904694,331.195474 257.777906,333.433485 C257.728482,334.305893 257.677937,335.195503 257.655999,336.090835 C257.610777,337.936493 257.251662,339.393059 256.638335,340.551705 C255.959321,341.834443 254.968606,342.767672 253.697609,343.446267 C250.855493,344.963696 246.49995,345.140591 241.148835,345.300714 C240.887851,345.308524 228.792808,345.647875 225.348736,344.227108 C223.867809,343.616188 222.701767,342.729215 221.927281,341.491636 C221.222805,340.365928 220.835483,338.938961 220.880042,337.120393 C220.965552,333.630488 224.701036,331.072913 225.348736,330.520644 C228.459475,327.868238 232.995894,326.154561 237.580502,325.767877 C231.514443,308.367744 226.911351,277.111453 226.911351,248.158068 C226.911351,230.620927 225.424042,217.589366 226.911351,203.688126 L13.4207688,203.688126 C10.1229223,203.688126 7.2022423,202.431333 4.92800858,200.231891 C2.67164546,198.049732 1.05067725,194.928106 0.36424957,191.174825 C-0.802129707,184.797241 0.730094467,176.561798 6.45238174,168.151657 C14.2734367,156.656922 29.9700817,144.787131 57.3616257,137.059465 C84.6796169,129.352551 105.567153,127.29038 118.859016,125.978934 C123.750875,125.496278 126.479005,124.640053 129.228513,124.113824 C129.228513,120.287677 131.182968,107.940671 135.134168,92.905323 C139.315833,76.9929951 162.48243,38.9770567 183.861741,24.4013672 C207.845497,8.0500564 238.304412,0 269.811117,0 C300.36391,0 326.774632,8.53268673 348.259878,24.5590475 C369.718421,40.5654897 388.55678,62.932059 399.388968,92.905323 C400.495783,97.5340619 406.218298,118.366153 406.218298,122.61093 C410.491656,124.078662 423.729952,125.214059 439.823054,126.663274 C464.513091,128.886659 495.893154,131.723359 512.690892,137.067705 C533.313666,143.62902 546.150836,154.699417 553.536112,165.885431 C558.983888,174.136839 561.468907,182.462218 561.922765,189.129429 C562.205737,193.286331 561.696121,196.80943 560.640451,199.306487 C560.059073,200.681666 559.308153,201.757067 558.440373,202.492141 C557.515028,203.275978 556.45372,203.688126 555.294109,203.688126 Z" id="Combined-Shape" stroke="#000000" stroke-width="2" fill="#99CAF4" fill-rule="nonzero" transform="translate(281.000000, 174.500000) scale(-1, 1) translate(-281.000000, -174.500000) "></path>
                <g id="Group" transform="translate(357.000000, 39.000000)">
                    <ellipse id="Oval" fill="#000000" fill-rule="nonzero" cx="11.2068966" cy="33.97" rx="7.75862069" ry="9.03"></ellipse>
                    <ellipse id="Oval" fill="#FFFFFF" fill-rule="nonzero" cx="15.0862069" cy="30.96" rx="3.01724138" ry="3.44"></ellipse>
                    <path d="M0,5.95479534 C9.41713623,-3.0187275 17.7504696,-1.85032594 25,9.46" id="Path-4" stroke="#000000" stroke-width="3" stroke-linecap="round"></path>
                </g>
                <path d="" id="Path-3" stroke="#979797"></path>
                <path d="M391,111 C396.560677,110.246754 400.775024,110.074347 407,110" id="Path-5" stroke="#000000" stroke-width="3" stroke-linecap="round"></path>
                <path d="M288.802932,140.531027 C309.997122,154.283806 324.334891,162.248549 331.816238,164.425255 C339.923291,166.78401 351.753475,170.232409 354.697531,165.372137 C357.641587,160.511865 354.048512,152.293926 342.228035,140.521753 C311.145681,109.566416 298.483945,97.051206 304.242826,102.976123" id="Path-7" stroke="#000000" stroke-width="3" stroke-linecap="round" transform="translate(322.238186, 134.689531) rotate(-15.000000) translate(-322.238186, -134.689531) "></path>
                <path d="M439.002785,44.1232993 L439.002785,43.4998885 C439.012843,42.2925012 439.170092,41.273732 439.474533,40.4435808 C439.778973,39.6134295 440.244386,38.8835073 440.870771,38.2538141 C441.497157,37.6241208 442.295636,37.017286 443.266209,36.4333095 C444.429814,35.743015 445.439313,34.9666994 446.294706,34.1043628 C447.150098,33.2420261 447.814829,32.2510446 448.288897,31.1314181 C448.762966,30.0117916 449,28.7307549 449,27.288308 C449,25.1207714 448.462781,23.269338 447.388342,21.7340077 C446.313903,20.1986773 444.829707,19.0258435 442.935754,18.2155061 C441.041802,17.4051687 438.864394,17 436.403533,17 C434.16046,17 432.109258,17.3977264 430.249927,18.1931793 C428.390597,18.9886321 426.897697,20.196116 425.771229,21.815631 C424.64476,23.4351459 424.054351,25.4819631 424,27.9560824 L424,27.9560824 L431.57552,27.9560824 C431.615171,26.9416143 431.863375,26.090441 432.320133,25.4025628 C432.77689,24.7146845 433.362416,24.1938707 434.07671,23.8401213 C434.791004,23.4863719 435.551718,23.3094973 436.358853,23.3094973 C437.195774,23.3094973 437.957117,23.4839073 438.642882,23.8327274 C439.328647,24.1815475 439.874522,24.6751535 440.280507,25.3135455 C440.686492,25.9519375 440.889485,26.6992089 440.889485,27.5553598 C440.889485,28.3620244 440.711878,29.0894819 440.356665,29.7377325 C440.001453,30.3859831 439.519938,30.9773535 438.91212,31.5118437 C438.304303,32.0463339 437.616653,32.5584973 436.849168,33.0483339 C435.814187,33.6966811 434.934037,34.41486 434.208718,35.2028706 C433.483399,35.9908812 432.930077,37.0282561 432.548753,38.3149953 C432.167429,39.6017345 431.971834,41.3300323 431.96197,43.4998885 L431.96197,43.4998885 L431.96197,44.1232993 L439.002785,44.1232993 Z M435.630923,56 C436.428193,56 437.161056,55.8002186 437.829509,55.4006558 C438.497963,55.0010929 439.039535,54.4641864 439.454224,53.7899362 C439.868913,53.115686 440.079932,52.367883 440.087282,51.5465272 C440.079932,50.334114 439.63125,49.2961108 438.741235,48.4325177 C437.851221,47.5689246 436.81445,47.1371281 435.630923,47.1371281 C434.40291,47.1371281 433.351343,47.5689246 432.476221,48.4325177 C431.6011,49.2961108 431.167214,50.334114 431.174564,51.5465272 C431.167214,52.7811705 431.6011,53.8320768 432.476221,54.6992461 C433.351343,55.5664154 434.40291,56 435.630923,56 Z" id="?" stroke="#000000" stroke-width="2" fill="#FFFFFF" fill-rule="nonzero" stroke-linejoin="round"></path>
                <rect id="Rectangle" stroke="#000000" stroke-width="3" fill="#FDFFAD" x="166.5" y="167.5" width="53" height="59" rx="5"></rect>
            </g>
        </g>
    </g>
</svg>