<?xml version="1.0" encoding="UTF-8"?>
<svg width="1922px" height="1146px" viewBox="0 0 1922 1146" version="1.1" xmlns="http://www.w3.org/2000/svg" xmlns:xlink="http://www.w3.org/1999/xlink">
    <!-- Generator: Sketch 62 (91390) - https://sketch.com -->
    <title>2scene1</title>
    <desc>Created with Sketch.</desc>
    <g id="Page-1" stroke="none" stroke-width="1" fill="none" fill-rule="evenodd">
        <g id="2scene1" fill-rule="nonzero">
            <g id="Layer_3" fill="#333333">
                <polygon id="Path" points="1922 1082 0.5 1082 0.5 0.5 1921 0.5"></polygon>
            </g>
            <g id="Layer_2" transform="translate(210.000000, 146.000000)">
                <path d="M1506.3,807.1 C1502.6,805.5 1495.1,802.6 1484,801.3 C1477.6,800.5 1469.8,801.9 1461.1,801.2 C1454.2,800.7 1446.7,798.4 1438.5,797.9 C1431.4,797.5 1423.7,799.3 1415.6,798.9 C1408.4,798.6 1400.8,796.8 1392.9,796.5 C1385.6,796.2 1378,796.2 1370.1,796 C1362.7,795.8 1355.2,794.8 1347.3,794.6 C1339.9,794.4 1332.3,793.6 1324.5,793.4 C1317.1,793.2 1309.5,793.5 1301.7,793.3 C1294.3,793.2 1286.6,794.8 1278.9,794.7 C1271.4,794.6 1263.9,792.5 1256.2,792.4 C1248.7,792.3 1241.1,792.8 1233.4,792.7 C1225.9,792.6 1218.3,792.7 1210.6,792.7 C1203.1,792.6 1195.5,792.8 1187.8,792.7 C1180.3,792.6 1172.7,792.3 1165,792.3 C1157.5,792.3 1149.9,791.5 1142.2,791.5 C1134.7,791.5 1127.1,792.4 1119.4,792.3 C1111.9,792.3 1104.3,793.7 1096.6,793.7 C1089.1,793.7 1081.5,792.3 1073.8,792.3 C1066.3,792.3 1058.7,791 1051,791 C1043.5,791 1035.9,791 1028.2,791 C1020.6,791 1013.1,793 1005.4,793 C997.8,793 990.2,793.4 982.6,793.4 C975,793.4 967.4,791.9 959.8,792 C952.2,792 944.6,792.5 937,792.5 C929.4,792.5 921.8,794.1 914.2,794.1 C906.6,794.1 899,793 891.4,793.1 C883.8,793.1 876.2,791.6 868.6,791.7 C861,791.8 853.4,791.7 845.8,791.8 C838.2,791.9 830.6,794.2 823,794.3 C815.4,794.4 807.8,793.5 800.2,793.6 C792.6,793.7 785,794.9 777.4,795 C769.8,795.1 762.2,794.3 754.6,794.3 C747,794.4 739.4,794.5 731.8,794.6 C724.2,794.7 716.6,795.5 709,795.6 C701.4,795.7 693.8,793.9 686.2,794 C678.6,794.1 671,793.6 663.4,793.7 C655.8,793.8 648.2,796.2 640.6,796.3 C633,796.4 625.4,795.3 617.8,795.4 C610.2,795.5 602.6,797.4 595,797.5 C587.4,797.6 579.8,796.6 572.2,796.7 C564.6,796.8 557,796.4 549.4,796.5 C541.8,796.6 534.2,796 526.6,796.1 C519,796.2 511.4,796.7 503.8,796.8 C496.2,796.9 488.6,796.4 481,796.5 C473.4,796.6 465.8,797.8 458.2,797.9 C450.6,798 442.9,797.5 435.4,797.7 C427.8,797.8 420.2,798.6 412.6,798.7 C404.9,798.9 397.4,799.7 389.8,799.9 C382.1,800.1 374.5,799.8 367,800 C359.3,800.2 351.7,800.6 344.2,800.8 C336.5,801 328.9,801.3 321.4,801.5 C313.7,801.7 306.1,800.4 298.6,800.6 C290.9,800.8 283.3,800.9 275.8,801.1 C268.1,801.3 260.6,804 253.1,804.2 C245.4,804.4 237.7,802.2 230.3,802.4 C222.6,802.6 215,803.9 207.6,804.2 C199.8,804.4 192.2,803.1 184.8,803.4 C177,803.6 169.5,805.3 162.1,805.5 C154.3,805.8 146.6,805.2 139.3,805.4 C131.4,805.7 123.9,807.5 116.6,807.8 C108.7,808.1 101.1,808.6 93.8,808.9 C85.7,809.3 78.1,808 71,808.4 C62.7,808.8 55.1,808.9 48.2,809.3 C39.4,809.8 31.9,811.6 25.6,812.1 C13,813.1 5,813.5 2.9,814.5 C5.8,813.5 5.9,814.2 8,811.9 C9.9,805.7 12,799.1 13.6,790.7 C14.9,783.9 16.1,776.5 17.2,768.5 C18.2,761.5 18.4,754 19.3,746 C20.1,738.9 23.1,731.6 23.8,723.8 C24.4,716.6 23.2,708.9 23.8,701.2 C24.3,693.9 24.7,686.4 25.1,678.7 C25.5,671.4 26.7,663.9 27.1,656.2 C27.4,648.8 29,641.4 29.3,633.7 C29.6,626.3 27.3,618.7 27.6,611.1 C27.8,603.7 30,596.2 30.2,588.6 C30.4,581.2 29.2,573.6 29.4,566 C29.5,558.5 30.5,551 30.6,543.4 C30.7,535.9 30.4,528.4 30.5,520.8 C30.6,513.3 29.6,505.8 29.6,498.2 C29.6,490.7 32.2,483.2 32.2,475.6 C32.2,468.1 30.2,460.6 30.2,453 C30.2,445.5 31.9,438 31.8,430.4 C31.7,422.9 31.5,415.4 31.4,407.8 C31.3,400.3 30,392.8 29.9,385.2 C29.8,377.7 31,370.1 30.8,362.6 C30.6,355.1 28.6,347.6 28.4,340.1 C28.2,332.5 29.5,325 29.3,317.5 C29.1,309.9 27,302.5 26.8,295 C26.6,287.4 27,279.9 26.7,272.4 C26.4,264.8 27.4,257.2 27.2,249.8 C26.9,242.2 26.3,234.7 26,227.3 C25.7,219.7 23.5,212.2 23.2,204.8 C22.8,197.2 23.9,189.6 23.5,182.2 C23.1,174.5 23,167 22.6,159.6 C22.2,151.9 21.5,144.4 21,137.1 C20.5,129.4 18.5,122 18,114.7 C17.5,106.9 17.2,99.4 16.6,92.2 C16,84.4 15.1,76.9 14.5,69.7 C13.8,61.8 13.3,54.3 12.6,47.2 C11.7,39.1 11.5,31.5 10.6,24.7 C9.5,16.2 9.8,8 8.6,1.7 C7.6,0.2 2.2,1.9 4,1.9 C11.4,2.6 19,1.8 26.6,2.5 C34,3.1 41.4,5.4 49,6 C56.4,6.6 63.9,7.7 71.5,8.2 C78.9,8.7 86.5,9.3 94.1,9.8 C101.6,10.3 109.2,8.5 116.8,9 C124.3,9.4 131.8,10.1 139.4,10.5 C146.9,10.9 154.3,12.9 161.9,13.3 C169.4,13.7 176.9,13.9 184.5,14.2 C192,14.6 199.5,14.2 207.1,14.5 C214.6,14.8 222.1,14.9 229.7,15.2 C237.2,15.5 244.7,17.5 252.2,17.7 C259.7,18 267.3,16.2 274.9,16.5 C282.4,16.7 289.9,18 297.5,18.2 C305,18.4 312.5,19.6 320.1,19.8 C327.6,20 335.2,17.6 342.8,17.8 C350.3,18 357.8,20.6 365.4,20.7 C372.9,20.9 380.5,18.6 388.1,18.7 C395.6,18.8 403.1,20.8 410.7,21 C418.2,21.1 425.8,20.6 433.3,20.7 C440.8,20.8 448.3,22.1 455.9,22.2 C463.4,22.3 471,22.7 478.5,22.8 C486,22.9 493.6,21.7 501.1,21.8 C508.6,21.9 516.2,21.2 523.7,21.2 C531.2,21.3 538.8,21.8 546.3,21.8 C553.8,21.8 561.4,23.4 568.9,23.4 C576.4,23.4 584,22.7 591.5,22.7 C599,22.7 606.6,22.1 614.1,22.1 C621.6,22.1 629.2,21.2 636.7,21.2 C644.2,21.2 651.8,21.8 659.3,21.7 C666.8,21.7 674.4,22.6 681.9,22.5 C689.4,22.5 697,20.8 704.5,20.8 C712,20.8 719.6,20.5 727.1,20.5 C734.6,20.5 742.2,22.5 749.7,22.5 C757.2,22.4 764.8,22.7 772.3,22.7 C779.8,22.6 787.4,20.5 794.9,20.4 C802.4,20.3 810,20.2 817.5,20.1 C825,20 832.6,22 840.1,21.9 C847.7,21.8 855.2,20.9 862.7,20.8 C870.3,20.7 877.8,20.2 885.3,20.1 C892.9,20 900.4,18.9 907.9,18.8 C915.5,18.7 923,18.6 930.5,18.5 C938.1,18.4 945.6,20 953.2,19.9 C960.8,19.8 968.3,19.3 975.8,19.1 C983.4,19 990.9,19.4 998.4,19.2 C1006,19 1013.5,16.6 1021,16.5 C1028.6,16.3 1036.1,17.8 1043.7,17.6 C1051.3,17.4 1058.8,15.3 1066.3,15.2 C1073.9,15 1081.5,17.1 1089,16.9 C1096.6,16.7 1104.1,16.9 1111.6,16.7 C1119.2,16.5 1126.7,15.8 1134.2,15.6 C1141.8,15.4 1149.3,13.1 1156.8,12.9 C1164.4,12.7 1172,14.8 1179.5,14.6 C1187.1,14.4 1194.6,13 1202.1,12.8 C1209.7,12.6 1217.2,11.3 1224.7,11.1 C1232.3,10.9 1239.9,12.4 1247.4,12.2 C1255,12 1262.5,11.8 1270,11.5 C1277.6,11.3 1285.1,11.3 1292.6,11.1 C1300.2,10.9 1307.7,9 1315.2,8.8 C1322.8,8.5 1330.4,9.8 1337.9,9.6 C1345.5,9.3 1353,8.2 1360.5,7.9 C1368.1,7.6 1375.6,6.5 1383.1,6.2 C1390.7,5.9 1398.3,5.6 1405.7,5.3 C1413.3,5 1420.9,4.4 1428.3,4.2 C1435.9,3.9 1443.6,6.1 1451,5.9 C1458.7,5.6 1464.9,6.5 1472.3,6.2 C1477.1,5.1 1477.075,4.2 1481.475,6.2 C1481.175,13.6 1480.8,15.2 1480.5,23 C1480.2,30.5 1480.7,38.1 1480.4,45.9 C1480.1,53.4 1479.1,61 1478.8,68.8 C1478.6,76.3 1480.5,84 1480.3,91.8 C1480.1,99.3 1480.1,107 1479.9,114.7 C1479.7,122.2 1476.9,129.8 1476.7,137.5 C1476.5,145.1 1476.2,152.7 1476,160.4 C1475.8,168 1477.6,175.6 1477.4,183.3 C1477.3,190.9 1476.1,198.5 1476,206.2 C1475.9,213.8 1477.7,221.5 1477.6,229.1 C1477.5,236.7 1474.9,244.3 1474.8,252 C1474.7,259.6 1475.6,267.3 1475.6,274.9 C1475.6,282.5 1476.2,290.2 1476.2,297.8 C1476.2,305.4 1475.9,313.1 1475.9,320.7 C1475.9,328.3 1475,336 1475,343.6 C1475,351.2 1476,358.9 1476,366.5 C1476.1,374.1 1474.9,381.8 1475,389.4 C1475.1,397.1 1477.3,404.7 1477.4,412.3 C1477.5,420 1476.2,427.6 1476.4,435.2 C1476.5,442.9 1477.2,450.5 1477.4,458.1 C1477.6,465.8 1478.2,473.4 1478.4,481 C1478.6,488.7 1477.3,496.4 1477.5,504 C1477.8,511.7 1480.5,519.2 1480.8,526.8 C1481.1,534.5 1479.3,542.2 1479.6,549.8 C1479.9,557.5 1481.5,565.1 1481.9,572.6 C1482.3,580.3 1482.2,588 1482.6,595.5 C1483,603.2 1484.7,610.8 1485.1,618.3 C1485.6,626 1485.3,633.7 1485.9,641.2 C1486.5,648.9 1487.4,656.5 1488,664 C1488.6,671.8 1488.3,679.5 1489,686.9 C1489.7,694.7 1489.7,702.4 1490.5,709.8 C1491.3,717.6 1492.6,725.2 1493.5,732.5 C1494.5,740.3 1496.6,747.7 1497.7,755.1 C1498.8,763 1500,770.5 1501.2,777.7 C1502.5,785.6 1504.3,792.9 1505.8,800 C1507.5,803.8 1508.1,804.7 1506.3,807.1 Z" id="Path" fill="#CCCCCC"></path>
                <g id="Group" fill="#000000">
                    <path d="M10.5,39.2 C11.9,52.3 13.7,65.4 14.5,78.5 C15.4,91.8 16.3,105.1 17.4,118.4 C18.5,131.7 19,144.9 19.6,158.3 C20.2,171.3 21.1,184.3 21.5,197.3 C21.9,210.6 23.1,223.8 23.4,237.1 C24,263.7 24.6,290.3 25.5,316.9 C25.7,323.7 26.8,330.4 27.2,337.2 C27.6,343.8 26.8,350.2 26.5,356.8 C26.2,363.4 26.9,369.8 27.6,376.3 C28.4,383.1 28.3,389.8 28,396.6 C27.4,410.3 27.1,424.3 27.9,438 C28.3,444.5 28.8,451 28.5,457.6 C28.2,464.4 27.3,471.1 27.5,477.9 C27.7,484.4 28.9,490.9 29,497.5 C29.1,504.3 27.8,511 27.4,517.8 C27.1,524.3 27.8,530.9 28.1,537.4 C28.4,543.9 28.1,550.5 27.9,557 C27.5,570.3 28.5,583.7 27.1,596.9 C25.7,610.2 25.8,623.4 25.5,636.7 C25.3,643.5 25.4,650.2 25,657 C24.6,663.5 23.3,670 22.8,676.5 C21.6,689.8 21.1,703.1 20,716.4 C18.9,729.7 18.2,743 16.8,756.3 C15.4,769.3 13.1,782 10.7,794.8 C9.6,800.7 8.6,806.5 6.9,812.3 C5.9,815.8 12.1,816.9 13,813.7 C16.6,802 18.4,789.5 20.4,777.5 C22.5,764.8 24.1,751.8 24.8,739 C25.6,725.4 26.7,711.9 27.7,698.3 C28.2,691.8 28.5,685.2 29,678.7 C29.4,671.9 30.7,665.3 31.3,658.5 C32.3,645.3 32,631.9 32,618.6 C32,605.2 34.2,592.1 34,578.7 C33.8,565.4 34.9,552.1 34.4,538.8 C34.1,532 33.3,525.3 33.6,518.5 C33.9,512 35.1,505.5 35.2,498.9 C35.3,492.1 34.1,485.4 33.7,478.6 C33.4,471.8 34.3,465.1 34.6,458.3 C34.9,451.8 34.5,445.3 34.1,438.7 C33.7,431.6 33.8,424.6 33.8,417.5 C33.9,404.1 35.2,390.3 33.7,377 C32.9,370.2 32.1,363.6 32.5,356.7 C32.8,350.2 33.6,343.7 33.2,337.1 C32.8,330.3 31.7,323.6 31.5,316.8 C31.3,310.3 31,303.8 30.8,297.2 C30.3,283.9 30.6,270.6 30,257.3 C28.9,230.5 28.1,203.6 26.6,176.8 C25.8,163.6 25.6,150.3 24.8,137 C24,123.7 22.7,110.4 21.6,97.1 C19.4,70.8 17.1,44.6 13.5,18.4 C12.7,12.8 11.8,7.3 10.6,1.7 C10.1,-8.28226376e-14 5.8,0.4 6.1,2.6 C7.8,14.8 9.2,27 10.5,39.2 Z" id="Path"></path>
                    <path d="M4.4,5.4 C16.6,6.2 29,6 41.2,6.5 C53,7 64.8,8.6 76.5,9.6 C88.7,10.7 101,11.7 113.2,12.6 C125,13.4 136.8,12.1 148.6,13.2 C172.2,15.5 197.1,19.5 220.8,17.4 C232.4,16.4 243.3,19.4 254.8,19.7 C266.7,20 278.3,19.3 290.2,20.2 C302.5,21.1 314.8,21 327,21.9 C332.7,22.3 338.3,23.1 344,23.2 C350.6,23.3 357.2,22.2 363.9,22.1 C388,21.5 412.1,25.7 436.2,25.3 C441.9,25.2 447.5,24.1 453.2,23.7 C459.4,23.3 465.5,24.2 471.6,24.8 C483.7,26.1 496.2,26.3 508.4,26.2 C519.2,26.1 529.5,25.9 540.2,24.4 C552.5,22.7 565.5,24.6 577.9,25.2 C602,26.4 626.1,25.7 650.2,26.1 C662.6,26.3 674.7,24.8 687.1,24.7 C699,24.7 710.7,24.7 722.5,23.9 C734.9,23.1 747,25.6 759.4,25.3 C771.3,25 783,25.5 794.9,25.7 C807.1,25.9 819.5,23.9 831.7,23.4 C843.5,22.9 855.3,23.7 867.1,23.5 C879.4,23.3 891.7,22.8 904,22.2 C916.3,21.6 928.6,22.6 940.9,22.1 C964.9,21.1 989.2,19.3 1013.2,21.1 C1037.1,22.9 1061.5,18.8 1085.5,18.7 C1109.6,18.6 1133.7,17.1 1157.8,16.9 C1170.1,16.8 1182.4,17.2 1194.7,17.3 C1205.9,17.4 1216.3,15.3 1227.4,14.5 C1239.6,13.7 1251.9,15 1264.2,14.5 C1276,14 1287.8,14.4 1299.6,13.7 C1305.3,13.4 1310.9,12.6 1316.6,12.3 C1323.3,11.9 1329.8,13 1336.5,13.4 C1347.5,14.1 1358.1,10.8 1369,10.7 C1393.1,10.4 1417.1,8.2 1441.3,7.9 C1453.6,7.8 1465.9,8.3 1478.1,7.9 C1482.6,7.8 1482.6,2 1478.1,2 C1454,2.2 1429.9,0.8 1405.8,2.7 C1393.4,3.7 1381.4,4.3 1369,4.4 C1358.1,4.5 1347.4,7.8 1336.5,7.1 C1330.3,6.7 1324.2,5.7 1318,6 C1311.9,6.3 1305.8,7.2 1299.6,7.5 C1287.8,8.2 1276,7.7 1264.2,8.3 C1252,8.9 1239.6,7.6 1227.4,8.4 C1216.4,9.1 1205.9,11.2 1194.7,11.2 C1146,11 1097.3,12 1048.7,14.1 C1036.8,14.6 1025.2,16 1013.3,15.1 C1001.1,14.2 988.7,14.4 976.4,14.8 C964.6,15.2 952.8,15.7 941,16.2 C928.7,16.7 916.4,15.8 904.1,16.4 C880,17.6 855.9,16.7 831.8,17.7 C819.6,18.2 807.1,20.2 795,20.1 C783.1,19.9 771.4,19.4 759.5,19.7 C747.1,20 735,17.5 722.6,18.3 C710.7,19.1 699,19.1 687.2,19.2 C674.9,19.2 662.7,20.8 650.3,20.6 C638.5,20.4 626.7,20.3 614.9,20.3 C602.6,20.3 590.4,20.3 578,19.8 C566.5,19.3 554.2,17.4 542.8,18.6 C518.7,21.2 494,21.9 469.8,19.2 C464.8,18.6 459.8,18 454.8,18.2 C448.6,18.5 442.5,19.8 436.3,19.9 C424.1,20.1 411.6,18.8 399.5,17.8 C375.3,15.8 351.3,18.4 327.2,16.6 C314.9,15.7 302.6,15.8 290.4,14.9 C278.5,14 266.9,14.7 255,14.5 C243.4,14.3 232.7,11.2 221,12.3 C209,13.4 197.6,12.1 185.6,11.3 C173.3,10.5 161.1,9.4 148.8,8.2 C136.9,7.1 125.2,8.4 113.4,7.6 C89.4,6 65.4,2.6 41.3,1.7 C29,1.2 16.7,1.6 4.5,0.9 C0.9,0.6 0.9,5.2 4.4,5.4 L4.4,5.4 Z" id="Path"></path>
                    <path d="M1480.5,0.5 C1480,6.9 1479.3,13.4 1478.9,19.8 C1478.5,26.3 1478.7,32.7 1478.7,39.2 C1478.7,52.2 1476.6,65 1476.8,78 C1477,91 1476.6,104 1476.1,116.9 C1475.6,129.9 1475.7,142.8 1475.5,155.8 C1475.4,162.3 1474.5,168.7 1474.1,175.2 C1473.7,181.9 1473.7,188.7 1473.5,195.4 C1473.1,208.3 1472.1,221.4 1473.3,234.3 C1474.5,247.3 1473.7,260.2 1473.2,273.2 C1472.9,279.7 1472.3,286.1 1472.3,292.6 C1472.3,299.1 1472.9,305.5 1473,312 C1473.2,325.9 1473.2,339.6 1472.8,353.5 C1472.4,367.3 1473.4,381.3 1474,395.1 C1474.6,409 1473.8,422.9 1474.5,436.8 C1475.2,450.5 1475.2,464.3 1475.1,478 C1475,484.5 1474.8,491 1475.2,497.4 C1475.6,503.9 1476.6,510.3 1476.8,516.8 C1477,523.3 1476.3,529.8 1476.4,536.3 C1476.5,542.8 1477.5,549.2 1478.1,555.7 C1478.7,562.2 1478.5,568.7 1478.5,575.2 C1478.4,581.9 1478.8,588.7 1479,595.4 C1479.3,608.4 1481.3,621.2 1482.1,634.2 C1483.5,660 1485.1,686 1488.3,711.7 C1489.9,724.4 1490.6,737.1 1492.7,749.8 C1494.8,762.6 1497.1,775.3 1499.2,788.1 C1500.3,794.4 1501.2,800.8 1502.5,807.1 C1503.3,811.1 1510.9,809.7 1510,805.4 C1499.7,754.3 1494.6,702.5 1490.8,650.6 C1489.9,637.7 1489,624.8 1487.6,611.9 C1486.2,599.4 1486,586.4 1486.2,573.8 C1486.3,567.3 1486.3,560.8 1485.6,554.4 C1484.9,547.9 1484,541.5 1484,535 C1484,528.5 1484.6,522 1484.3,515.5 C1484,509 1483,502.6 1482.6,496.1 C1481.9,482.9 1482.5,469.4 1482.5,456.2 C1482.5,442.3 1481.4,428.5 1481.6,414.6 C1481.8,400.7 1481.3,386.8 1480.6,373 C1479.9,359.1 1480.8,345.3 1480.5,331.4 C1480.3,318.1 1479.4,304.7 1479.5,291.4 C1479.6,278.5 1480.6,265.5 1481.1,252.5 C1481.3,245.9 1480.8,239.6 1480.3,233.1 C1479.7,226.6 1480,220.2 1480.2,213.7 C1480.6,201 1480.4,188.3 1481.2,175.6 C1481.6,169.1 1482.5,162.7 1482.5,156.2 C1482.6,149.7 1482.2,143.2 1482.2,136.8 C1482.3,123.8 1483.1,110.9 1483.3,97.9 C1483.5,84.9 1482.9,71.9 1484,59 C1485.1,46 1484.3,33.2 1485,20.2 C1485.3,13.8 1486,10.2435483 1486.1,3.84354833 C1486,0.443548328 1480.7,0.443548328 1480.5,3.44354833 L1480.5,0.5 Z" id="Path"></path>
                    <path d="M1513.4,809.3 C1506.2,806.1 1498.5,803.8 1490.7,802.9 C1485.8,802.3 1480.9,802.7 1475.9,802.8 C1469.2,802.9 1463,801.9 1456.5,800.6 C1445.4,798.5 1435.1,800.3 1423.9,800 C1411.8,799.7 1399.8,797.4 1387.7,797.1 C1362.3,796.5 1337,794.1 1311.5,793.9 C1305.4,793.9 1299.3,794.7 1293.2,795 C1285.9,795.4 1278.9,794.2 1271.6,793.3 C1259.7,791.9 1247.4,793 1235.4,793 C1210,792.9 1184.7,792.8 1159.3,791.7 C1146.7,791.1 1133.8,791.6 1121.3,792.6 C1108,793.6 1095.2,792.6 1081.8,792 C1069.1,791.4 1056.5,790.6 1043.8,790.5 C1031.1,790.4 1018.5,792.3 1005.8,792.5 C993.1,792.8 980.5,791 967.8,791.2 C955.1,791.4 942.5,792.6 929.8,793.1 C904.5,794.1 879.1,788.2 853.7,790.9 C847.6,791.5 841.6,792.9 835.4,792.9 C828.8,792.9 822.3,792.1 815.7,792.1 C803,792 790.5,793.5 777.7,792.9 C764.6,792.3 751.3,792.5 738.3,793.2 C725.4,793.8 713.1,792.2 700.3,792.1 C687.9,792 676.3,791.8 664,793.6 C651.4,795.4 638.7,792.6 626,794 C600.4,796.8 574,794.2 548.2,793.8 C535.5,793.6 522.9,794.6 510.2,794.3 C497,793.9 484,795.7 470.8,795.5 C445.4,795.1 420.1,797.3 394.7,797.2 C382,797.1 369.3,797.8 356.7,798.1 C344,798.5 331.4,797.5 318.7,797.6 C307,797.6 295.2,797.5 283.7,799.7 C270.7,802.1 258.4,798.6 245.4,799.5 C239.3,799.9 233.3,800.8 227.2,800.9 C220.6,800.9 214,799.9 207.4,800 C194.6,800.1 182.1,802.1 169.3,801.8 C156.1,801.5 143.1,803.8 129.9,804.4 C117.2,805 104.6,804 92,804.4 C68.5,805.1 45.3,807.5 22,810 C15.5,810.7 8.5,811.3 2.3,813.8 C-2.4,815.7 2.2,821 6.2,819.4 C13.8,816.3 23.5,816.8 31.6,816 C42.5,815 53.3,814 64.1,812.7 C89.2,809.8 114.7,812.7 139.9,811.1 C146,810.7 152,809.5 158.1,809 C164.7,808.5 171.2,809 177.8,809.1 C190.1,809.2 202.1,806.5 214.4,807.3 C220.6,807.7 226.6,808.2 232.8,807.8 C239.4,807.4 245.9,806.2 252.5,806.4 C258.7,806.5 264.7,808 270.8,808.2 C276.4,808.4 281.7,807.3 287.2,806.4 C299.5,804.2 313.2,804.3 325.7,805 C338,805.7 350.1,805.5 362.4,805.2 C387.8,804.6 413.1,804.3 438.4,803.1 C451.1,802.5 463.7,803 476.5,802.7 C488.8,802.5 500.8,801.3 513.1,801.6 C525.8,801.9 538.4,800.8 551.1,801.1 C563.8,801.4 576.5,801.6 589.2,801.7 C601,801.8 612.3,802.9 624.1,801.5 C637.1,800 650.1,802.6 663,801.1 C669.4,800.3 675.7,799 682.2,799 C688.8,799 695.4,799.2 701.9,799.3 C708,799.4 714.1,800.5 720.2,800.8 C726.8,801.2 733.4,800.6 739.9,800.3 C752,799.7 764.4,799.5 776.5,800 C789.3,800.5 801.7,799.3 814.5,799.2 C826.9,799.1 838.4,800.2 850.8,798.4 C863.6,796.5 877.7,796.8 890.6,798 C902.7,799.1 915.1,800.2 927.2,800.1 C939.8,800 952.6,798.5 965.2,798.2 C977.9,797.9 990.5,799.7 1003.2,799.5 C1015.9,799.2 1028.6,797.4 1041.2,797.3 C1053.5,797.2 1065.6,797.5 1077.8,798.4 C1090.3,799.3 1103.3,800.8 1115.8,799.8 C1141.2,797.8 1166.4,798.8 1191.8,799.3 C1216.6,799.9 1241.7,798 1266.4,799.3 C1272.5,799.6 1278.6,801 1284.7,801.4 C1291.4,801.8 1297.9,800.7 1304.5,800.3 C1316.6,799.6 1329.1,799.9 1341.2,800.6 C1366.4,802.1 1391.8,802.3 1416.9,805.3 C1428.3,806.6 1439.6,803.8 1451,805.4 C1461.7,807 1471.4,808.2 1482.2,807.8 C1492,807.5 1501.7,809.5 1510.8,813.2 C1513.4,814 1516.5,810.7 1513.4,809.3 L1513.4,809.3 Z" id="Path"></path>
                </g>
                <g id="Group" transform="translate(209.000000, 688.000000)" fill="#000000">
                    <path d="M276.9,192.6 C277.3,185.5 277.9,178.3 277.9,171.2 C277.9,164.1 277.4,156.9 277,149.8 C276.6,142.7 276.4,135.6 275.8,128.5 C275.1,121.4 274.2,114.3 273.2,107.3 C272.2,100.2 271.1,93.2 269.8,86.2 C267.8,75.6 265.6,64.8 260.2,55.4 C256.5,48.9 251.2,43.5 245.5,38.6 C239.9,33.8 233.7,29.3 227.3,25.7 C220.4,21.8 212.9,18.8 205.5,16 C198.1,13.2 190.5,10.6 182.7,8.9 C174.9,7.2 167,6.1 159.1,5.5 C151.1,4.9 143.1,4.7 135.2,5.3 C127.2,5.9 119.3,6.9 111.5,8.7 C103.7,10.5 96.1,13 88.7,16 C81.4,19 74.4,23 67.7,27.3 C61,31.6 54.5,36.2 48.7,41.7 C42.9,47.2 37.8,53.3 33.1,59.7 C28.4,66.1 24.3,73 20.8,80.1 C17.3,87.2 14.4,94.7 12.2,102.3 C10,110 8.4,117.8 7.6,125.7 C6.8,133.6 6.7,141.6 7.5,149.5 C8.3,157.4 10.1,165.1 12.7,172.8 C13.3,183.5 12.6,183.6 12.2,194.3 C11.8,205.1 11.5,205 11.1,215.8 C10.7,226.5 10.4,226.5 10.1,237.3 C9.7,248.1 9.7,248.1 9.3,258.8 C8.9,269.6 9.3,269.6 8.9,280.3 C8.5,291.1 4.5,291.6 8.2,301.7 C12.2,312.5 16.7,301.9 31,301.8 C37.6,301.8 45.3,301.7 54,301.6 C61.1,301.6 68.8,301.2 77,301.1 C84.3,301 92,301.2 100,301.1 C107.5,301 115.2,301.3 123,301.2 C130.6,301.1 138.3,301 146,300.9 C153.7,300.8 161.4,300.2 169,300 C176.8,299.8 184.5,299.9 192,299.7 C199.9,299.5 207.6,299 215,298.8 C223.2,298.5 230.9,298.4 238,298.1 C246.7,297.7 254.4,297.2 260.9,296.8 C274.8,295.8 283,294.5 283,293 C283,290.4 282.9,280.5 282.1,267.9 C281.7,260.2 281.3,251.5 280.7,242.8 C280.2,234.1 279.2,225.4 278.7,217.7 C277.7,203.3 277.1,205.2 276.9,192.6 Z" id="Path"></path>
                    <path d="M1090.25775,192.662278 C1090.65775,185.562278 1091.25775,178.362278 1091.25775,171.262278 C1091.25775,164.162278 1090.75775,156.962278 1090.35775,149.862278 C1089.95775,142.762278 1089.75775,135.662278 1089.15775,128.562278 C1088.45775,121.462278 1087.55775,114.362278 1086.55775,107.362278 C1085.55775,100.262278 1084.45775,93.2622777 1083.15775,86.2622777 C1081.15775,75.6622777 1078.95775,64.8622777 1073.55775,55.4622777 C1069.85775,48.9622777 1064.55775,43.5622777 1058.85775,38.6622777 C1053.25775,33.8622777 1047.05775,29.3622777 1040.65775,25.7622777 C1033.75775,21.8622777 1026.25775,18.8622777 1018.85775,16.0622777 C1011.45775,13.2622777 1003.85775,10.6622777 996.057754,8.96227766 C988.257754,7.26227766 980.357754,6.16227766 972.457754,5.56227766 C964.457754,4.96227766 956.457754,4.76227766 948.557754,5.36227766 C940.557754,5.96227766 932.657754,6.96227766 924.857754,8.76227766 C917.057754,10.5622777 909.457754,13.0622777 902.057754,16.0622777 C894.757754,19.0622777 887.757754,23.0622777 881.057754,27.3622777 C874.357754,31.6622777 867.857754,36.2622777 862.057754,41.7622777 C856.257754,47.2622777 851.157754,53.3622777 846.457754,59.7622777 C841.757754,66.1622777 837.657754,73.0622777 834.157754,80.1622777 C830.657754,87.2622777 827.757754,94.7622777 825.557754,102.362278 C823.357754,110.062278 821.757754,117.862278 820.957754,125.762278 C820.157754,133.662278 820.057754,141.662278 820.857754,149.562278 C821.657754,157.462278 823.457754,165.162278 826.057754,172.862278 C826.657754,183.562278 825.957754,183.662278 825.557754,194.362278 C825.157754,205.162278 824.857754,205.062278 824.457754,215.862278 C824.057754,226.562278 823.757754,226.562278 823.457754,237.362278 C823.057754,248.162278 823.057754,248.162278 822.657754,258.862278 C822.257754,269.662278 822.657754,269.662278 822.257754,280.362278 C821.857754,291.162278 817.857754,291.662278 821.557754,301.762278 C825.557754,312.562278 830.057754,301.962278 844.357754,301.862278 C850.957754,301.862278 858.657754,301.762278 867.357754,301.662278 C874.457754,301.662278 882.157754,301.262278 890.357754,301.162278 C897.657754,301.062278 905.357754,301.262278 913.357754,301.162278 C920.857754,301.062278 928.557754,301.362278 936.357754,301.262278 C943.957754,301.162278 951.657754,301.062278 959.357754,300.962278 C967.057754,300.862278 974.757754,300.262278 982.357754,300.062278 C990.157754,299.862278 997.857754,299.962278 1005.35775,299.762278 C1013.25775,299.562278 1020.95775,299.062278 1028.35775,298.862278 C1036.55775,298.562278 1044.25775,298.462278 1051.35775,298.162278 C1060.05775,297.762278 1067.75775,297.262278 1074.25775,296.862278 C1088.15775,295.862278 1096.35775,294.562278 1096.35775,293.062278 C1096.35775,290.462278 1096.25775,280.562278 1095.45775,267.962278 C1095.05775,260.262278 1094.65775,251.562278 1094.05775,242.862278 C1093.55775,234.162278 1092.55775,225.462278 1092.05775,217.762278 C1091.05775,203.362278 1090.45775,205.262278 1090.25775,192.662278 Z" id="Path"></path>
                    <path d="M280.4,192.6 C280.8,187.7 281.4,182.8 281.7,177.9 C282.1,173 282.2,168.1 282,163.2 C281.7,153.4 281.5,143.5 280.9,133.8 C280.3,124 279,114.2 277.7,104.5 C276.4,94.9 274.8,85.3 272.8,75.9 C270.9,67.1 268.1,58.3 263.1,50.7 C258.2,43.2 251.2,37 244.1,31.5 C236.5,25.6 228.2,20.7 219.4,16.9 C210.4,13 201.1,9.5 191.7,6.7 C182.1,3.9 172.3,2.3 162.4,1.4 C152.6,0.5 142.7,0.2 132.8,1 C113.3,2.6 93.9,7.3 76.6,16.5 C68.3,20.9 60.1,26.1 52.6,31.9 C45.1,37.7 38.5,44.5 32.5,51.9 C20.7,66.6 11.7,83.6 6.5,101.7 C1,120.8 -0.6,141.3 3.5,160.9 C4,163.3 4.6,165.7 5.2,168.1 C5.8,170.3 6.8,172.6 6.9,174.6 C7.1,177.7 7.1,180.9 6.9,184 C6.5,190.8 6.2,197.6 5.8,204.3 C5,217.8 4.4,231.3 3.9,244.8 C3.6,251.5 3.3,258.2 3.2,264.9 C3.1,271.4 3.4,278.1 2.6,284.6 C2.5,285.2 2.6,284.4 2.6,284.4 C2.6,284.6 2.5,284.8 2.5,285 C2.4,285.4 2.4,285.7 2.3,286.1 C2.1,286.8 2,287.5 1.8,288.2 C1.4,289.7 1.1,291.3 0.8,292.9 C0.3,296.3 1.1,299.9 2.3,303.1 C3.4,306.2 5,309.2 8.1,310.7 C11.3,312.2 14.6,311.596327 17.7,310.5 C18.7,310.1 19.7,309.7 20.7,309.3 C21.3,309.1 21.8,308.8 22.4,308.6 C22.6,308.5 23.8,308.2 23,308.4 C22.1,308.6 23.4,308.3 23.6,308.2 C25.1,307.7 26.7,307.4 28.3,307.1 C29,307 27.9,307.2 27.9,307.1 C27.9,307.1 28.5,307 28.6,307 C29,307 29.5,306.9 30,306.9 C31.1,306.9 32.1,306.9 33.2,306.9 C42.2,306.9 51.2,306.8 60.2,306.7 C79.4,306.3 98.5,306.5 117.7,306.5 C127.7,306.5 137.7,306.4 147.7,306.2 C157.5,306 167.3,305.4 177.1,305.3 C186.8,305.2 196.5,305 206.1,304.6 C215.5,304.2 224.8,304 234.2,303.7 C243.1,303.4 251.9,302.9 260.8,302.2 C265.4,301.9 270,301.4 274.6,300.9 C277.2,300.6 279.8,300.3 282.3,299.5 C285.3,298.6 288.4,297 288.7,293.5 C288.8,291.4 288.7,289.3 288.6,287.2 C288.4,278.7 287.9,270.2 287.5,261.8 C287,252.1 286.5,242.3 285.7,232.6 C285,224.4 284.5,216.3 283.8,208.1 C283.6,205.7 283.4,203.3 283,201 C283,200.7 282.9,200.5 282.9,200.2 C282.8,199.4 283.1,201.3 282.9,200.4 C282.8,199.7 282.7,199 282.6,198.3 C282.5,197.5 282.4,196.8 282.3,196 C282.2,195.6 282.2,195.1 282.1,194.7 C282,193.8 281.9,193.5 281.9,193 C281.8,187.5 271.7,187.5 271.8,193 C271.8,194.1 271.5,196.4 271.4,198.1 C271.3,199.4 271.2,200.7 271.2,202 C271.1,204.1 271.4,206.1 271.6,208.2 C272.4,216.2 272.8,224.2 273.5,232.2 C274.3,241.7 274.8,251.3 275.3,260.8 C275.8,269.2 276.3,277.7 276.5,286.1 C276.6,288.4 276.5,290.7 276.6,292.9 C276.6,293 276.6,293.2 276.6,293.3 C276.4,292.8 277.2,291.3 277.3,291.1 C278.1,290 278.4,290 278,290.3 C279.8,288.9 279.2,289.6 278.8,289.8 C277.4,290.3 279.7,289.6 279.1,289.7 C278.6,289.8 278.1,290 277.6,290.1 C276.4,290.4 275.2,290.6 274,290.7 C273.3,290.8 272.5,290.9 271.8,291 C271.4,291.1 271,291.1 270.6,291.2 C270.3,291.2 270,291.3 269.7,291.3 C270.6,291.2 270.6,291.2 269.9,291.3 C265.8,291.7 261.8,292.1 257.7,292.3 C239.7,293.6 221.6,293.9 203.6,294.7 C194.1,295.1 184.6,295.3 175,295.4 C165.4,295.5 155.8,296.2 146.2,296.4 C127.1,296.8 107.9,296.8 88.8,296.7 C70.7,296.6 52.6,297.2 34.4,297.4 C30.4,297.4 26.4,297.5 22.5,298.4 C19.5,299.1 16.7,300.3 13.9,301.5 C13.4,301.7 13,301.9 12.5,302.1 C11.6,302.5 13.9,301.7 13,301.9 C12.8,302 12.6,302 12.4,302.1 C12.2,302.1 12,302.2 11.8,302.2 C10.9,302.4 13.4,302.1 12.6,302.1 C12.1,302.1 11.5,301.9 13.4,302.2 C12.3,302 14.6,302.8 13.9,302.4 C13.2,302 15.1,303.3 14.4,302.7 C13.8,302.2 14.5,302.5 14.7,303.1 C14.6,302.8 14.1,302.2 13.9,301.9 C13.3,301.1 14.3,302.9 13.9,301.9 C13.8,301.6 13.6,301.3 13.5,300.9 C13.1,299.9 12.8,298.8 12.5,297.7 C12.4,297.3 12.3,296.9 12.2,296.5 C11.9,295.3 12.3,297.4 12.2,296.3 C12.1,295.6 12.1,295 12.1,294.3 C12.1,293.8 12,293 12.2,292.5 C11.7,293.6 12.1,293.1 12.2,292.6 C12.3,292.2 12.4,291.8 12.5,291.5 C13.3,288.1 14.1,284.8 14.3,281.3 C14.7,275.1 14.5,269 14.6,262.8 C14.9,249.7 15.5,236.6 16.2,223.6 C16.9,210.3 17.4,197 18.2,183.6 C18.4,180.5 18.3,177.4 18.2,174.4 C18.1,171.8 17.3,169.6 16.5,167.2 C15.8,164.8 15.2,162.4 14.6,160 C12.6,151.2 12,141.9 12.4,132.6 C13.2,114.5 18.3,95.8 26.6,79.9 C34.9,63.9 45.9,49.4 59.9,38.5 C67.2,32.8 74,28.5 82.1,24.2 C85.9,22.1 89.9,20.3 94,18.7 C98.4,17 101.7,15.8 106.4,14.5 C110.9,13.2 115.5,12.2 120.1,11.4 C125.1,10.5 128.8,10.1 133.4,9.7 C143.1,8.9 152.8,9.1 162.4,10 C166.4,10.4 171,11 175.7,11.9 C180.4,12.8 185,13.8 189.5,15.2 C198.2,17.8 206.6,20.9 215.2,24.7 C223.7,28.5 230.9,32.8 238.1,38.5 C244.8,43.8 250.6,49 255.1,56.2 C259.5,63.2 261.8,71.8 263.6,80.1 C265.6,89.1 267.1,98.2 268.4,107.3 C271.2,126.4 272.5,145.6 273.5,164.9 C274,174.2 273.5,183.4 273.4,192.6 C273.3,196.5 280.1,196.4 280.4,192.6 Z" id="Path"></path>
                </g>
                <g id="Group-2" transform="translate(463.000000, 692.000000)" fill="#000000">
                    <g id="Group" transform="translate(0.000000, 96.000000)">
                        <path d="M12.2,200.1 C9.7,193.6 7.8,187 6.7,180.2 C5.5,173.4 4.9,166.5 4.9,159.6 C5,152.7 5.7,145.8 6.9,139 C8.1,132.2 9.8,125.5 12,118.9 C14.2,112.4 16.9,106 20.1,99.9 C23.3,93.8 27.2,88 31.2,82.4 C35.2,76.8 39.6,71.4 44.3,66.4 C49,61.3 53.6,56.2 58.9,51.6 C64.1,47.1 69.9,43.2 75.5,39.2 C81.2,35.2 86.9,31.4 92.9,28 C99.7,24.1 107,20.9 114.4,17.9 C121.7,14.9 129.1,12.1 136.8,10 C144.5,8 152.3,6.6 160.1,5.7 C168,4.8 176,4.3 183.8,4.8 C191.7,5.3 199.6,6.6 207.2,8.7 C214.8,10.8 222,14.1 229,18 C235.2,21.5 240.9,25.6 246.2,30.2 C251.5,34.8 256.5,39.8 260.9,45.3 C265.3,50.8 269.3,56.6 272.8,62.8 C276.3,68.9 279.5,75.3 282.1,81.8 C284.7,88.4 286.8,95.1 288.6,101.9 C290.4,108.7 291.9,115.6 293,122.6 C294.1,129.5 295.1,136.5 295.8,143.6 C296.4,150.6 296.4,157.7 296.6,164.7 C296.9,171.7 297.3,178.8 297.3,185.8 C297.3,192.9 297.3,199.9 297.2,206.9" id="Path"></path>
                        <path d="M15.8,199.3 C10.2,181.8 8.4,163.4 11,145.3 C13.4,128.1 19.2,110.7 28.2,96 C32.8,88.4 38.1,81.2 43.8,74.4 C49.5,67.6 55.1,61.5 61.8,55.6 C68.4,49.8 75.8,44.9 83,40 C90.2,35.1 97.7,30.6 105.9,26.8 C122.5,19.1 138.2,13.4 156.5,10.9 C161,10.3 164.9,9.9 169.9,9.6 C174.5,9.3 179.1,9.3 183.7,9.6 C184.8,9.7 185.9,9.8 187,9.9 C187.6,10 188.1,10 188.7,10.1 C187.6,10 189.4,10.2 189.4,10.2 C191.6,10.5 193.8,10.8 196,11.2 C200.5,12 204.9,13.1 209.3,14.5 C209.3,14.5 211,15.1 210,14.7 C210.4,14.9 210.8,15 211.3,15.2 C212.2,15.5 213.1,15.9 214,16.3 C216.2,17.2 218.3,18.2 220.4,19.2 C222.4,20.2 224.3,21.2 226.2,22.3 C227.1,22.8 228,23.4 229,23.9 C229.3,24.1 229.6,24.3 229.9,24.5 C230.2,24.7 230.5,24.9 230.8,25.1 C230.4,24.9 230.5,24.9 231,25.2 C238.1,30 244.7,35.6 250.7,41.8 C251.9,43.1 253,44.3 254.4,46 C255.8,47.6 257.1,49.3 258.4,51 C261.1,54.6 263.7,58.3 266,62.2 C270.5,69.6 274.1,76.7 277.2,84.9 C280.5,93.4 283,102.3 285,111.2 C287,120.3 288.4,128.8 289.4,138.1 C290.4,147.2 290.5,156.3 290.8,165.5 C291.1,174.8 291.5,184.2 291.5,193.5 C291.5,198.1 291.5,202.6 291.5,207.2 C291.6,213.5 302.9,213.5 303.1,207.2 C303.3,197.7 303.4,188.1 303.1,178.6 C302.8,169.1 302.5,159.5 302.1,150 C301.7,140.2 300.2,130.5 298.6,120.9 C297,111.6 294.9,102.4 292.1,93.3 C286.7,75.7 278.2,58.9 266.8,44.4 C255.6,30.1 241,18.3 224.6,10.5 C207.3,2.3 187.8,-0.7 168.8,0.6 C159,1.3 149.3,2.5 139.7,4.7 C130.4,6.8 121.4,10.1 112.6,13.7 C104.1,17.2 95.6,21 87.7,25.7 C79.5,30.5 71.7,36 64,41.6 C60.3,44.3 56.7,47 53.3,50.1 C49.8,53.3 46.5,56.8 43.3,60.3 C37.1,67 31.2,73.8 26,81.3 C20.6,88.9 15.8,96.8 12,105.3 C8.2,113.7 5.2,122.5 3.3,131.5 C1.3,141 4.54719595e-13,150.7 0.1,160.4 C0.2,169.9 1.6,179.6 4.1,188.8 C5.3,193 6.9,197.1 8.7,201.1 C9.5,202.8 11.4,203.7 13.2,203.2 C14.9,202.7 16.3,201.1 15.8,199.3 L15.8,199.3 Z" id="Path"></path>
                    </g>
                    <g id="Group" transform="translate(304.000000, 0.000000)">
                        <path d="M265.2,169.4 C265.1,161.3 264.2,153.3 263,145.4 C261.9,137.4 260.4,129.5 258.4,121.7 C256.4,113.9 253.8,106.3 250.8,98.8 C247.8,91.3 244.3,84.1 240.5,77 C236.7,69.9 232.9,62.7 228.3,56.1 C223.7,49.5 218.4,43.4 213,37.4 C208.6,32.4 204.1,27.4 199,23.2 C193.9,18.9 188.3,15.2 182.2,12.3 C174.2,8.5 165.6,6.6 156.9,5.9 C148.3,5.1 139.5,5.4 130.7,6.8 C122.1,8.2 113.6,10.8 105.4,13.6 C98.6,15.9 91.7,18.4 85.2,21.4 C78.7,24.5 72.4,28.2 66.3,32 C60.1,35.8 54.2,39.9 48.6,44.4 C43,49 37.5,53.7 32.6,59 C27.7,64.3 23.3,70 19.2,76.1 C15.1,82.2 12.7,88.8 10.9,95.4 C9.1,102.1 7.9,109.1 7.5,116.2 C7.1,123.1 7.1,130.2 7.3,137.3 C7.4,144.3 7.7,151.4 7.6,158.4 C7.5,165.4 7.4,172.5 6.2,179.5 C5.8,182.2 6.1,191.3 7,203.6 C7.5,210.8 8.2,219.1 8.9,227.7 C9.6,235.6 10.2,243.9 10.9,251.8 C11.7,260.4 12.3,268.7 13,275.9 C14.3,290 4,295.7 15.2,300.2 C25.3,304.3 26.2,299.7 37.1,299.3 C48,298.9 48,298.7 58.9,298.3 C69.8,297.9 69.8,298.3 80.7,297.9 C91.6,297.5 91.6,297.6 102.5,297.3 C113.4,296.9 113.4,296.9 124.3,296.6 C135.2,296.2 135.2,295.8 146.1,295.4 C157,295 157,295.1 167.9,294.7 C178.8,294.3 178.8,294.6 189.7,294.3 C200.6,293.9 200.6,293.9 211.5,293.5 C222.4,293.1 222.4,293 233.3,292.6 C244.2,292.2 244.2,292.2 255.1,291.8 C266,291.4 270.4,299.9 277.1,291.3 C284.6,281.6 275.5,279 274.3,266.9 C273.1,254.7 273.3,254.7 272,242.6 C270.8,230.4 271,230.4 269.7,218.3 C268.5,206.1 268,206.2 266.7,194 C266,181.6 266.2,181.6 265.2,169.4 Z" id="Path"></path>
                        <path d="M268.6,169.4 C268.7,159.2 267.7,148.9 266.2,138.8 C264.7,128.6 262.5,118.6 259.3,108.8 C256.2,99.2 252.4,89.8 247.8,80.8 C243.3,71.9 238.8,62.9 233.2,54.6 C227.7,46.5 221.2,39.2 214.7,31.9 C211.4,28.2 208,24.5 204.2,21.2 C200.5,17.9 196.4,15 192.1,12.3 C174.7,1.4 153.2,-0.7 133.2,1.8 C123.3,3 113.6,5.9 104.2,9.1 C94.4,12.4 84.8,15.9 75.7,20.9 C58.3,30.4 41.6,42 28,56.6 C21.4,63.8 15.1,71.8 10.7,80.6 C6.4,89.4 4.1,99.2 2.8,108.8 C1.5,118.8 1.7,129.1 1.9,139.2 C2.1,149.4 2.4,159.6 1.8,169.8 C1.6,173.6 0.8,177.4 0.6,181.2 C0.5,184.2 0.6,187.2 0.7,190.2 C1.1,199.5 1.8,208.8 2.6,218.1 C3.4,228.2 4.2,238.3 5.1,248.3 C5.5,253.3 6,258.4 6.4,263.4 C6.8,267.9 7.3,272.4 7.6,276.8 C7.7,278.6 7.6,280.5 7.3,282.3 C7.4,281.5 7.3,282.1 7.2,282.5 C7.1,282.9 7,283.3 6.9,283.7 C6.7,284.4 6.5,285.2 6.3,285.9 C5.5,288.5 4.6,291 4.3,293.6 C3.6,301.2 12.8,304.9 18.9,305.9 C22.5,306.5 25.9,306 29.3,305.1 C30.8,304.7 32.3,304.3 33.9,304 C34.1,304 35,303.7 35.2,303.8 C35.2,303.8 34.1,303.9 34.8,303.8 C35.1,303.8 35.4,303.7 35.8,303.7 C37,303.6 38.3,303.6 39.5,303.5 C46.3,303.2 53.2,302.8 60,302.6 C66.8,302.4 73.6,302.5 80.4,302.2 C87.2,302 94,301.8 100.8,301.6 C107.7,301.4 114.5,301.2 121.4,300.9 C128.3,300.7 135.2,300.1 142,299.8 C155.9,299.2 169.9,298.9 183.8,298.7 C197.8,298.4 211.7,297.8 225.7,297.2 C232.7,296.9 239.7,296.7 246.7,296.4 C248.4,296.3 250.1,296.3 251.8,296.2 C252.9,296.2 254.1,296.1 255.2,296.1 C255.6,296.1 256.1,296.1 256.5,296.1 C256.7,296.1 256.9,296.1 257.1,296.1 C258.1,296.2 257.4,296.3 257,296.1 C257.5,296.4 258.7,296.4 259.3,296.5 C260.1,296.7 260.9,297 261.7,297.2 C262.6,297.5 260.6,296.8 261.8,297.2 C262.1,297.3 262.4,297.4 262.7,297.5 C263.7,297.9 264.8,298.2 265.8,298.6 C269.3,299.7 273.3,299.7 276.5,298 C280.2,296 283.1,292.2 284.7,288.3 C285.9,285.3 285.8,282 284.6,279 C283.6,276.3 282,273.9 281,271.1 C280.7,270.4 280.5,269.6 280.3,268.9 C280.2,268.4 280.1,268 280,267.5 C280,267.3 279.9,267.1 279.9,266.9 C280,267.4 279.9,267.2 279.9,266.8 C279.7,264.6 279.5,262.5 279.3,260.3 C279,257.5 278.8,254.6 278.6,251.8 C278,244.6 277.2,237.5 276.6,230.3 C275.4,216.2 273.3,202.2 271.9,188 C271.6,185.2 271.4,182.4 271.1,179.6 C270.8,176.1 270,172.4 269.8,169 C269.6,166.4 267.2,164.6 264.6,164.7 C262.4,164.8 259.2,166.3 259.4,169 C259.7,172.5 259.4,176.1 259.7,179.6 C259.9,182.5 260.1,185.3 260.4,188.2 C261.1,195 262,201.8 262.9,208.6 C263.8,215.6 264.5,222.6 265.1,229.6 C265.7,236.7 266.5,243.7 267.1,250.8 C267.3,253.5 267.6,256.3 267.8,259 C268.2,263.1 268.3,267.4 269.4,271.4 C270.2,274.3 271.6,276.9 272.9,279.6 C273.4,280.7 273.9,281.9 274.2,283.1 C274.2,283.2 274.2,283.4 274.3,283.5 C274.3,283.5 274.2,282.4 274.2,282.9 C274.2,283.2 274.2,283.4 274.2,283.7 C274.2,283.8 274.1,284.7 274.1,284.7 C274,284.7 274.3,283.7 274.2,284.1 C274.1,284.3 274.1,284.5 274.1,284.7 C274,285 273.9,285.3 273.8,285.6 C273.7,285.8 273.3,286.7 273.6,286.1 C273.9,285.5 273.2,286.7 273.1,286.9 C272.8,287.3 272.5,287.7 272.2,288.1 C271.9,288.5 271.6,288.8 271.4,289.1 C270.9,289.7 272,288.6 271.5,289 C271.4,289.1 271.2,289.3 271.1,289.4 C271,289.5 270.3,289.9 270.3,290 C270.3,289.9 271.3,289.5 270.8,289.7 C270.7,289.7 270.4,289.9 270.3,290 C270,290.3 270.9,289.7 271,289.8 C270.9,289.8 270.6,289.9 270.5,289.9 C269.6,289.9 271.9,289.9 271,289.9 C270.8,289.9 270.4,289.8 270.2,289.9 C270.2,289.9 271.6,290.1 271.1,290 C270.9,289.9 270.6,289.9 270.4,289.9 C269.8,289.8 269.3,289.6 268.7,289.4 C267.9,289.1 268.3,289.2 268.9,289.5 C268.5,289.3 268.1,289.2 267.7,289.1 C263.8,287.7 260.1,286.6 255.9,286.6 C252.4,286.6 248.8,286.8 245.3,287 C231.5,287.5 217.7,288.1 203.9,288.6 C190.2,289.1 176.5,289.3 162.9,289.7 C156.1,289.9 149.4,290.1 142.6,290.4 C136,290.7 129.4,291.3 122.8,291.5 C109.5,291.9 96.3,292.3 83,292.7 C76.3,292.9 69.5,292.9 62.8,293.1 C56,293.3 49.2,293.7 42.5,294 C38.2,294.2 33.8,294.2 29.5,295.1 C28.1,295.4 26.7,295.8 25.4,296.2 C24.8,296.4 24.2,296.5 23.6,296.7 C23.3,296.8 23,296.8 22.8,296.9 C22,297.1 24.2,296.8 23,296.9 C22.6,296.9 22.3,296.9 21.9,296.9 C21.7,296.9 21.6,296.9 21.4,296.9 C20.8,296.9 22.1,297 22.1,297 C21.9,296.9 21.3,296.9 21,296.8 C20.5,296.7 19.9,296.6 19.4,296.4 C19,296.3 18.1,296 19,296.3 C18.6,296.1 18.1,296 17.7,295.8 C17,295.5 16.3,295 15.6,294.7 C16.1,294.9 16.4,295.3 15.8,294.8 C15.7,294.7 15.4,294.4 15.3,294.3 C15.4,294.3 16,295.3 15.7,294.7 C15.7,294.7 15.5,294.5 15.5,294.4 C15.5,294.4 15.4,294.1 15.3,294.1 C15.4,294.2 15.7,295.2 15.6,294.7 C15.6,294.5 15.5,294.3 15.4,294.1 C15.2,293.6 15.4,295.3 15.5,294.5 C15.5,294.2 15.7,293.5 15.6,293.1 C15.7,293.5 15.4,294.3 15.6,293.4 C15.7,293.1 15.7,292.8 15.8,292.6 C15.9,292 16.1,291.5 16.3,291 C16.7,289.7 17.1,288.4 17.5,287.1 C18.4,283.6 19,279.9 18.7,276.3 C18,266.9 17,257.6 16.2,248.2 C14.5,229.2 12.7,210.2 11.8,191.1 C11.7,188 11.5,184.8 11.6,181.7 C11.7,178.4 12.4,175.2 12.6,171.9 C13.4,161.9 13.2,151.9 12.9,141.9 C12.4,122.5 12.1,103.3 20,85.3 C20.9,83.1 21.6,81.8 22.9,79.8 C24.1,77.8 25.5,75.9 26.9,73.9 C29.7,70 32.7,66.3 35.9,62.7 C36.3,62.3 36.6,61.9 37,61.5 C37.5,61 37.1,61.3 37.6,60.8 C38.5,59.9 39.4,59 40.3,58.1 C42,56.5 43.7,54.9 45.5,53.3 C49,50.2 52.6,47.2 56.4,44.3 C58.3,42.9 60.2,41.5 62.1,40.2 C63.1,39.5 64,38.9 65,38.2 C65.5,37.9 65.9,37.6 66.4,37.3 C66.9,37 66.5,37.2 66.4,37.3 C66.8,37.1 67.2,36.8 67.5,36.6 C71.6,34 75.7,31.5 79.9,29.2 C84.2,26.8 88.6,24.6 93.1,22.7 C95.3,21.8 97.6,20.9 99.8,20.1 C100.8,19.7 101.9,19.3 102.9,19 C104.3,18.5 104.3,18.5 105.8,18 C115,14.8 124.4,11.8 134.1,10.4 C136.5,10.1 137.9,9.9 140.7,9.7 C143.2,9.5 145.6,9.5 148.1,9.5 C150.6,9.5 153,9.6 155.5,9.8 C156.7,9.9 157.9,10 159,10.1 C158.2,10 159.5,10.2 159.7,10.2 C160.4,10.3 161.1,10.4 161.8,10.5 C164.1,10.9 166.4,11.3 168.6,11.9 C169.6,12.2 170.7,12.4 171.7,12.7 C172.3,12.9 172.9,13.1 173.5,13.3 C173.8,13.4 174,13.5 174.3,13.6 C173.8,13.4 174.4,13.6 174.6,13.7 C178.9,15.3 183,17.4 187,19.8 C187,19.8 187.8,20.3 187.3,20 C187.5,20.1 187.7,20.3 188,20.4 C188.4,20.7 188.9,21 189.3,21.3 C190.3,22 191.3,22.7 192.3,23.5 C194.1,24.9 195.9,26.4 197.6,27.9 C201,31 204,34.2 207,37.5 C213.4,44.6 219.8,51.8 225.2,59.8 C230.6,67.8 235.2,76.4 239.6,85 C248.5,102.4 254.7,121.2 258.1,140.5 C259.8,150 261.2,159.7 261.7,169.3 C262,173.1 268.6,173.1 268.6,169.4 Z" id="Path"></path>
                    </g>
                </g>
                <g id="Group" opacity="0.85" transform="translate(75.000000, 51.000000)" fill="#909090">
                    <g id="Path">
                        <path d="M18.4,177.1 C19.1,176.5 19.8,175.9 20.5,175.3 C20.1,175.6 19.8,175.9 19.3,176.1 C18.9,176.4 18.7,176.7 18.4,177.1 Z"></path>
                        <path d="M22.4,173.6 C22.5,173.5 22.7,173.4 22.8,173.3 C22.9,173.2 23,173.1 23.1,173 L22.4,173.6 Z"></path>
                        <path d="M26,170.2 C25.3,170.8 24.7,171.3 24.2,171.9 C24.7,171.4 25.3,170.9 26,170.2 Z"></path>
                        <path d="M23,172.7 C23.3,172.6 23.4,172.5 23.1,172.9 L23.1,172.9 C23.4,172.6 23.8,172.2 24.1,171.9 C23.7,172.2 23.3,172.5 23,172.7 Z"></path>
                        <path d="M23,172.7 C22.7,172.8 22.4,173.1 22.2,173.2 C22.5,173.1 22.7,172.9 23,172.7 Z"></path>
                        <path d="M22.8,170.6 C23.1,170.2 23.4,170.7 24,169.9 C25.6,168.3 26.9,166.8 28.5,165.4 C29.1,164.7 30.6,164.1 31.3,163.3 C32.9,161.7 36.8,157.3 34.3,159.6 C30.6,163.1 28.1,165.4 24.8,168.6 C22.1,171.2 19.6,173.9 16.9,176.5 C16.1,177.2 15.3,177.8 14.5,178.5 C15.5,177.7 16.6,176.9 17.8,176 C19.2,174.8 20.6,172.8 22.8,170.6 Z"></path>
                        <path d="M2.7,190.2 C3,189.8 3.7,189.1 3.7,189.1 C5.6,188 7.2,186.4 8.8,184.8 C8.5,185 8.2,185.1 7.9,185.3 C6.9,186.2 6.9,186.4 7.9,185.7 C5.7,187.2 3.8,188.8 1.9,190.5 C2,190.5 2.1,190.6 2.7,190.2 Z"></path>
                        <path d="M0.7,191.5 C1.1,191.2 1.4,190.8 1.8,190.5 C1.8,190.5 1.8,190.5 1.7,190.5 C1.4,190.9 1,191.2 0.7,191.5 L0.7,191.5 Z"></path>
                        <path d="M33.3,163 C38.1,158.7 42.5,154.6 46.9,150.6 C47.2,150.2 47.3,149.9 47.8,149.6 C48.2,149.4 48.6,149.1 48.9,148.8 C49.5,148.2 50.2,147.6 50.8,147.1 C51,146.9 51.2,146.7 51.4,146.5 C51.4,146.5 51.4,146.5 51.4,146.5 C51.7,146.1 51.6,146.2 51.3,146.3 C51,146.5 50.8,146.7 50.5,146.8 C50.7,146.7 51,146.5 51.3,146.3 C51.6,146.1 52,145.8 52.4,145.5 C53,145 53.6,144.4 54.2,143.8 C53.5,144.5 52.9,145 52.4,145.5 C52,145.9 51.7,146.2 51.4,146.5 C51.3,146.6 51.2,146.7 51.1,146.8 C52.6,145.5 54.1,144.2 55.5,142.9 C55.8,142.6 56.1,142.3 56.4,142 C57.4,141 58.4,140 59.2,139.6 C59.5,139.4 59.7,139.1 60,138.9 L59.8,139 C59.9,138.9 60,138.8 60.1,138.8 C61.2,137.8 62.3,136.9 63.5,135.9 C64.2,135.2 64.8,134.4 65.5,133.7 C65.5,133.7 66.1,133.4 66.4,133.2 C66.6,132.8 67,132.4 67.5,131.9 C66.8,132.3 66.2,132.7 65.6,133.1 C64.7,133.6 64.3,134.9 63.1,135.4 C64.3,134.9 64.7,133.6 65.6,133.1 C66.2,132.7 66.8,132.3 67.5,131.9 C68.5,130.9 69.9,129.8 71.1,128.9 C69.9,130.3 68.6,131.2 67.5,131.9 C67,132.4 66.6,132.8 66.4,133.2 C66.1,133.4 65.5,133.7 65.5,133.7 C64.8,134.4 64.1,135.2 63.5,135.9 C65.7,134 67.9,132.1 70.2,130.1 C84.4,117 97.3,104.7 112,91 C120,83.6 127.7,76.6 135.3,69.7 C136.2,68.8 137.2,68 138.1,67.1 C139,66.2 139.9,65.3 140.8,64.5 C142.6,62.7 144.4,61 146.1,59.3 C149.6,55.8 153,52.3 156.6,48.9 C163.6,42 170.8,35.4 178.3,28.3 C181.2,25.6 185.1,21.5 189.1,17.5 C193,13.4 196.9,9.4 199.5,6.7 C206.1,-1.2 200.9,1.2 200.5,1.5 C194.9,4.8 192.1,9 182.4,17.4 C188.9,11.5 178.7,22.8 172.2,27.9 C167.5,31.6 162.2,36.5 156.9,41.9 C151.5,47.2 146.1,53.1 140.8,58.1 C139.5,59.4 138.1,60.7 136.7,62.1 C136,62.8 135.3,63.5 134.6,64.3 C133.8,65 133.1,65.7 132.3,66.5 C115.3,81.7 100.6,96.9 83.1,113.3 C78.5,117.7 74.8,121.9 71.1,125.7 C68.4,128.5 65,131 62.7,133.2 C59,136.5 55.9,139.5 53,142.4 C56.4,139.3 58.8,137 62.6,133.5 C65.1,131.2 61.2,135.5 59.6,137.1 C58.9,137.8 57.5,138.4 56.8,139.2 C55.2,140.6 53.9,142.1 52.3,143.7 C51.6,144.4 51.4,144 51.1,144.4 C48.9,146.6 47.6,148.6 46,149.9 C44.8,150.9 43.8,151.7 42.8,152.5 C42.2,153 41.5,153.6 40.9,154.2 C40.5,154.6 40.1,155 39.7,155.4 C40.1,155.2 40.4,155.2 40.6,155.3 C40,155.8 39.1,156.5 38.4,157.1 C39,156.6 39.9,155.9 40.6,155.3 C40.4,155.3 40.1,155.2 39.7,155.4 C36.9,158.4 33.6,161.7 30.5,164.8 C30.5,164.8 30.5,164.8 30.6,164.8 C32.5,163.1 34.3,161.4 36.5,159.9 C35.6,160.6 35.6,160.4 36.5,159.5 C36.8,159.3 37.1,159.2 37.4,159 C35.8,160.6 34.2,162.3 32.4,163.4 C32.4,163.4 31.7,164.1 31.4,164.5 C30.8,164.9 30.7,164.8 30.5,164.8 C30.1,165.1 29.8,165.5 29.4,165.8 C30.6,165 33.3,163 33.3,163 Z"></path>
                        <path d="M52.6,145.4 C52.4,145.6 52,145.9 51.7,146.3 C52.9,145.2 54.2,144.1 55.4,143 C54.7,143.4 53.7,144.4 52.6,145.4 Z"></path>
                    </g>
                </g>
                <g id="Group" opacity="0.85" transform="translate(106.000000, 73.000000)" fill="#909090">
                    <g id="Path">
                        <path d="M21.7,235 C22.5,234.1 23.4,233.3 24.2,232.4 C23.8,232.8 23.3,233.2 22.8,233.6 C22.3,234.2 22,234.5 21.7,235 Z"></path>
                        <path d="M26.5,230.1 C26.7,229.9 26.8,229.8 26.9,229.6 C27,229.5 27.1,229.3 27.2,229.2 L26.5,230.1 Z"></path>
                        <path d="M30.7,225.5 C29.9,226.3 29.2,227 28.5,227.8 C29.2,227.2 29.9,226.4 30.7,225.5 Z"></path>
                        <path d="M27.2,229 C27.5,228.8 27.7,228.7 27.3,229.2 L27.3,229.2 C27.7,228.7 28.1,228.3 28.6,227.8 C28.1,228.3 27.6,228.7 27.2,229 Z"></path>
                        <path d="M27.2,229 C26.9,229.2 26.4,229.6 26.3,229.7 C26.6,229.5 26.9,229.3 27.2,229 Z"></path>
                        <path d="M27.1,226.7 C27.5,226.2 27.7,226.7 28.5,225.7 C30.4,223.5 32,221.6 33.9,219.6 C34.7,218.6 36.5,217.6 37.2,216.7 C39.2,214.5 43.9,208.8 40.9,211.9 C36.3,216.7 33.3,219.8 29.3,224.1 C26.1,227.7 23,231.2 19.7,234.9 C18.8,235.9 17.8,236.8 16.9,237.7 C18.1,236.5 19.4,235.3 20.8,234 C22.7,232.3 24.4,229.6 27.1,226.7 Z"></path>
                        <path d="M2.9,253.5 C3.3,253 4.1,252.1 4.1,252.1 C6.3,250.4 8.3,248.2 10.3,246.1 C9.9,246.3 9.6,246.6 9.2,246.8 C8,248 8,248.2 9.1,247.3 C6.5,249.5 4.2,251.7 1.9,254.1 C2.1,254 2.2,254.1 2.9,253.5 Z"></path>
                        <path d="M0.5,255.4 C0.9,254.9 1.4,254.5 1.8,254 C1.8,254 1.7,254 1.7,254 C1.3,254.5 0.9,255 0.5,255.4 L0.5,255.4 Z"></path>
                        <path d="M39.7,215.8 C42.6,212.8 45.4,210 48.2,207.2 C51,204.4 53.8,201.8 56.5,199.1 C56.9,198.6 57.1,198.3 57.7,197.8 C58.2,197.4 58.7,197.1 59.1,196.7 C59.9,195.9 60.7,195.2 61.5,194.4 C61.8,194.1 62,193.8 62.3,193.5 C62.3,193.5 62.3,193.5 62.3,193.5 C62.7,193 62.5,193.1 62.2,193.3 C61.9,193.6 61.5,193.8 61.3,194 C61.5,193.9 61.9,193.5 62.2,193.3 C62.6,193 63.1,192.6 63.6,192.1 C64.3,191.4 65,190.6 65.8,189.8 C65,190.7 64.3,191.5 63.6,192.1 C63.2,192.6 62.7,193 62.3,193.5 C62.2,193.6 62.1,193.8 61.9,193.9 C63.7,192.1 65.5,190.3 67.3,188.5 C67.7,188.1 68.1,187.7 68.4,187.3 C69.6,185.9 70.9,184.6 71.8,183.9 C72.1,183.6 72.4,183.3 72.8,182.9 C72.7,183 72.7,183 72.6,183.1 C72.8,183 72.9,182.9 73,182.8 C74.3,181.4 75.7,180.1 77.1,178.7 C77.9,177.7 78.7,176.8 79.6,175.8 C79.6,175.8 80.3,175.3 80.7,175 C81,174.5 81.4,173.9 82,173.3 C81.2,173.9 80.4,174.5 79.7,175.1 C78.6,175.9 78,177.5 76.7,178.3 C78.1,177.5 78.7,175.9 79.7,175.1 C80.4,174.6 81.1,174 82,173.3 C83.2,171.9 84.9,170.3 86.3,169 C84.8,170.9 83.4,172.2 82,173.3 C81.4,174 81,174.6 80.7,175 C80.3,175.3 79.6,175.8 79.6,175.8 C78.8,176.8 77.9,177.8 77.1,178.7 C79.8,176 82.4,173.3 85.1,170.5 C93.6,161.4 102.2,153.1 110.7,144.4 C119.1,135.7 127.6,126.9 136.8,117.8 C141.8,112.9 146.6,108 151.4,103.2 C153.8,100.8 156.2,98.5 158.6,96.1 C161,93.7 163.3,91.4 165.6,89.1 C170.3,84.5 174.7,79.8 179.3,75.4 C181.6,73.2 183.9,71 186.2,68.8 C188.5,66.6 190.7,64.3 192.9,62.1 C201.7,53.1 210.7,44.2 220.4,35.1 C227.8,28.1 240.9,14.4 247.7,7.3 C256.4,-2.7 250.1,0.8 249.6,1.1 C242.7,5.7 238.9,10.8 226.7,22 C235,14.3 221.7,28.8 213.4,35.5 C207.4,40.3 200.8,46.9 194,54 C190.6,57.5 187.2,61.2 183.8,64.7 C180.3,68.2 176.7,71.6 173.3,74.9 C171.5,76.5 169.8,78.3 168.1,80.2 C166.3,82 164.5,84 162.5,86 C157.3,91.2 152.2,96.3 147.2,101.4 C142.2,106.5 137.2,111.6 132.2,116.8 C122.1,127 112.4,137.8 101.4,148.7 C98.5,151.6 95.9,154.4 93.4,157.2 C90.9,159.9 88.6,162.7 86.3,165.3 C82.9,169.1 79.1,172.8 76.3,175.7 C71.8,180.3 68.1,184.4 64.5,188.3 C68.6,184 71.5,180.8 76.1,176 C79.2,172.8 74.4,178.6 72.5,180.8 C71.7,181.8 70,182.8 69.2,183.8 C67.3,185.7 65.7,187.7 63.8,189.9 C63,190.9 62.8,190.4 62.4,190.9 C59.7,193.8 57.9,196.3 56,198 C54.6,199.3 53.3,200.4 52,201.6 C51.2,202.3 50.4,203.1 49.6,203.9 C49.1,204.4 48.6,205 48.1,205.5 C48.6,205.2 48.9,205.2 49.2,205.2 C48.4,205.9 47.3,206.9 46.6,207.6 C47.4,206.9 48.5,205.9 49.2,205.2 C48.9,205.2 48.7,205.2 48.1,205.5 C44.6,209.4 40.6,213.9 36.8,218.1 C36.8,218.1 36.9,218.1 36.9,218.1 C39.2,215.7 41.4,213.5 44,211.3 C42.9,212.3 42.9,212.1 44.1,210.8 C44.5,210.5 44.8,210.3 45.2,210.1 C43.2,212.3 41.3,214.5 39.1,216.2 C39.1,216.2 38.3,217.2 37.9,217.6 C37.2,218.2 37.1,218.1 36.9,218.1 C36.5,218.6 36,219 35.6,219.5 C36.5,218.6 39.7,215.8 39.7,215.8 Z"></path>
                        <path d="M63.7,192 C63.4,192.3 63,192.7 62.6,193.2 C64.1,191.7 65.6,190.2 67.1,188.7 C66.1,189.3 64.9,190.6 63.7,192 Z"></path>
                    </g>
                </g>
                <g id="Group" opacity="0.85" transform="translate(99.000000, 84.000000)" fill="#909090">
                    <g id="Path">
                        <path d="M25.8,279.3 C26.8,278.3 27.8,277.2 28.9,276.2 C28.4,276.7 27.8,277.2 27.2,277.6 C26.5,278.3 26.2,278.7 25.8,279.3 Z"></path>
                        <path d="M31.7,273.4 C31.9,273.2 32.1,273 32.2,272.9 C32.4,272.7 32.5,272.6 32.6,272.4 C32.3,272.7 32,273 31.7,273.4 Z"></path>
                        <path d="M36.8,267.8 C35.9,268.7 35,269.7 34.2,270.6 C35,269.9 35.8,268.9 36.8,267.8 Z"></path>
                        <path d="M32.6,272.1 C33,271.8 33.2,271.7 32.7,272.3 C32.7,272.3 32.7,272.3 32.7,272.3 C33.2,271.7 33.7,271.2 34.2,270.6 C33.6,271.2 33.1,271.7 32.6,272.1 Z"></path>
                        <path d="M32.6,272.1 C32.2,272.4 31.7,272.8 31.5,273 C31.8,272.7 32.2,272.4 32.6,272.1 Z"></path>
                        <path d="M32.7,269.5 C33.2,268.9 33.4,269.4 34.4,268.2 C36.7,265.5 38.7,263.2 41,260.8 C42,259.6 44,258.3 44.9,257.1 C47.2,254.4 53.2,247.6 49.4,251.4 C46.6,254.3 44.4,256.7 42.2,259.1 C40,261.5 37.9,263.7 35.5,266.4 C31.6,270.8 27.8,274.9 23.8,279.3 C22.6,280.5 21.5,281.6 20.4,282.7 C21.9,281.3 23.4,279.8 25.1,278.2 C27.2,276.1 29.4,273.1 32.7,269.5 Z"></path>
                        <path d="M3.4,302.1 C3.9,301.5 4.8,300.3 4.8,300.3 C7.4,298.1 9.7,295.4 12.1,292.8 C11.7,293.1 11.3,293.4 10.8,293.8 C9.4,295.3 9.4,295.5 10.7,294.3 C7.6,297.1 4.9,299.9 2.2,302.8 C2.5,302.7 2.6,302.9 3.4,302.1 Z"></path>
                        <path d="M0.7,304.5 C1.2,303.9 1.8,303.3 2.3,302.8 C2.3,302.8 2.2,302.8 2.2,302.8 C1.6,303.4 1.1,304 0.7,304.5 L0.7,304.5 Z"></path>
                        <path d="M47.6,255.9 C54.6,248.7 61.3,242 67.8,235.4 C68.2,234.8 68.5,234.4 69.2,233.7 C69.8,233.2 70.3,232.8 70.8,232.3 C71.7,231.3 72.7,230.4 73.6,229.4 C73.9,229.1 74.2,228.7 74.6,228.3 C74.6,228.3 74.6,228.3 74.6,228.3 C75.1,227.7 74.9,227.8 74.5,228.1 C74.1,228.4 73.7,228.7 73.4,229 C73.6,228.8 74.1,228.4 74.5,228.1 C75,227.7 75.5,227.2 76.1,226.6 C76.9,225.7 77.8,224.8 78.7,223.8 C77.7,224.9 76.8,225.8 76.1,226.6 C75.6,227.2 75.1,227.7 74.6,228.3 C74.5,228.5 74.3,228.6 74.2,228.8 C76.4,226.6 78.5,224.4 80.6,222.2 C81.1,221.7 81.6,221.2 81.9,220.8 C83.4,219.2 85,217.6 86.1,216.8 C86.5,216.4 86.9,216.1 87.3,215.7 C87.2,215.8 87.1,215.8 87,215.9 C87.2,215.7 87.3,215.6 87.5,215.5 C89.2,213.9 90.9,212.3 92.6,210.7 C93.6,209.6 94.7,208.4 95.7,207.3 C95.7,207.3 96.6,206.7 97,206.4 C97.4,205.9 97.9,205.2 98.6,204.4 C97.6,205.2 96.7,205.9 95.9,206.6 C94.6,207.5 93.8,209.4 92.1,210.4 C93.7,209.4 94.6,207.6 95.9,206.6 C96.7,205.9 97.6,205.2 98.6,204.4 C100.1,202.8 102.1,200.7 103.8,199.2 C102,201.4 100.2,203 98.6,204.4 C97.9,205.2 97.3,205.9 97,206.4 C96.6,206.7 95.7,207.3 95.7,207.3 C94.7,208.5 93.6,209.6 92.6,210.7 C95.9,207.6 99.2,204.3 102.4,200.9 C105,198.2 107.5,195.4 110.1,192.8 C112.7,190.1 115.4,187.6 118,185.1 C123.3,180 128.6,175 133.7,169.7 C138.9,164.5 144.1,159.3 149.4,154 C152.1,151.4 154.7,148.7 157.4,146 C158.8,144.7 160.1,143.3 161.5,141.9 C162.9,140.6 164.3,139.2 165.7,137.9 C168.8,135 171.8,132.1 174.8,129.2 C177.8,126.4 180.8,123.4 183.7,120.5 C186.6,117.6 189.4,114.7 192.3,111.9 C195.2,109.1 198.2,106.4 201.1,103.7 C204,101 206.9,98.3 209.8,95.6 C212.6,92.9 215.4,90.2 218.1,87.5 C220.9,84.8 223.6,82.1 226.3,79.4 C229.1,76.7 231.8,74.1 234.6,71.5 C245.7,61 256.9,50.6 268.9,39.8 C273.5,35.7 279.9,29.6 286.3,23.6 C289.5,20.6 292.6,17.5 295.5,14.8 C298.4,12.1 301.2,9.8 303.5,7.8 C309.3,2.3 310.3,0.4 309.7,0.1 C309.2,-0.2 307.1,0.8 306.8,1 C302.5,3.6 299,6.2 294.7,9.9 C292.5,11.7 290.2,13.9 287.5,16.4 C284.8,18.9 281.6,21.7 277.8,25 C288.1,16 271.3,32.7 261.2,40.8 C253.8,46.6 245.6,54.3 237.1,62.5 C232.8,66.6 228.5,70.8 224.2,75 C219.9,79.2 215.7,83.5 211.5,87.4 C207.4,91.4 203,95.6 198,100.4 C196.4,101.9 194.7,103.4 193.1,104.9 C191.5,106.4 189.9,107.9 188.3,109.5 C185.2,112.6 182.2,115.8 179.1,118.9 C177.6,120.4 176.1,122 174.6,123.5 L169.9,128 C166.8,131 163.7,134.1 160.6,137.1 C154.4,143.2 148.3,149.5 142.1,155.9 C139,159.1 135.8,162.3 132.6,165.5 C129.4,168.7 126.2,172 122.8,175.3 C119.3,178.8 116,182.1 112.9,185.3 C109.8,188.5 106.9,191.8 104.2,194.9 C100.1,199.5 95.6,204 92,207.4 C86.5,212.8 81.6,217.5 77.3,222.3 C82.2,217 86.1,213.4 91.7,207.8 C95.5,204.1 89.5,210.8 87,213.4 C86,214.5 83.9,215.8 82.9,216.9 C80.5,219.2 78.5,221.5 76.2,224.2 C75.2,225.4 75,224.9 74.5,225.5 C71.2,229.1 69.1,232.2 66.9,234.3 C65.2,235.9 63.7,237.4 62.2,238.8 C61.3,239.7 60.3,240.6 59.4,241.6 C58.8,242.2 58.2,242.9 57.6,243.6 C58.2,243.2 58.5,243.1 58.8,243.1 C57.9,244 56.6,245.2 55.6,246.1 C56.5,245.2 57.8,244 58.8,243.1 C58.5,243.1 58.2,243.2 57.6,243.6 C55.5,245.9 53.2,248.5 50.8,251 C49.6,252.3 48.4,253.6 47.3,254.9 C46.1,256.2 45,257.5 43.8,258.8 C43.8,258.8 43.9,258.8 43.9,258.8 C45.3,257.3 46.6,255.9 48,254.5 C49.4,253.1 50.9,251.7 52.4,250.4 C51.1,251.6 51.1,251.3 52.5,249.9 C52.9,249.6 53.3,249.3 53.8,249 C51.4,251.6 49,254.2 46.4,256.4 C46.4,256.4 45.4,257.6 45,258.2 C44.2,259 44.1,258.8 43.9,258.9 C43.4,259.5 42.8,260 42.3,260.6 C43.7,259.5 47.6,255.9 47.6,255.9 Z"></path>
                        <path d="M76.1,226.6 C75.7,227 75.3,227.5 74.8,228 C76.6,226.2 78.4,224.3 80.2,222.5 C79.1,223.3 77.6,225 76.1,226.6 Z"></path>
                    </g>
                </g>
                <g id="Group" opacity="0.85" transform="translate(88.000000, 90.000000)" fill="#909090">
                    <g id="Path">
                        <path d="M30.2,344.2 C31.4,342.9 32.6,341.5 33.8,340.2 C33.2,340.9 32.6,341.5 31.9,342.1 C31,342.9 30.7,343.5 30.2,344.2 Z"></path>
                        <path d="M37,336.5 C37.2,336.3 37.4,336 37.6,335.8 C37.8,335.6 38,335.4 38.1,335.2 C37.8,335.6 37.4,336 37,336.5 Z"></path>
                        <path d="M43.1,329.3 C42,330.5 41,331.7 40,332.9 C40.9,331.9 41.9,330.8 43.1,329.3 Z"></path>
                        <path d="M38.1,334.9 C38.5,334.5 38.8,334.4 38.2,335.1 C38.2,335.1 38.2,335.1 38.2,335.1 C38.8,334.4 39.4,333.7 40,332.9 C39.3,333.7 38.7,334.3 38.1,334.9 Z"></path>
                        <path d="M38.1,334.9 C37.7,335.3 37,335.9 36.8,336.1 C37.2,335.7 37.6,335.3 38.1,334.9 Z"></path>
                        <path d="M38.4,332 C39,331.3 39.2,331.7 40.3,330.3 C41.7,328.6 43,327 44.2,325.5 C45.5,324 46.8,322.5 48.2,321 C49.4,319.6 51.8,317.8 53,316.3 C54.4,314.6 56.9,311.7 58.5,309.7 C60.1,307.7 60.7,306.8 58.5,309.2 C55.2,312.9 52.4,315.9 49.7,318.9 C48.4,320.4 47.1,321.8 45.7,323.3 C45,324 44.3,324.8 43.6,325.6 C42.9,326.4 42.2,327.2 41.5,328.1 C36.9,333.7 32.5,339.1 27.7,344.7 C26.3,346.3 25,347.7 23.7,349.1 C25.5,347.3 27.3,345.4 29.3,343.3 C32,340.4 34.5,336.5 38.4,332 Z"></path>
                        <path d="M4,373.8 C4.6,373.1 5.7,371.5 5.7,371.5 C8.6,368.5 11.3,365 14,361.6 C13.5,362 13,362.5 12.6,362.9 C11,364.8 10.9,365.1 12.4,363.5 C8.9,367.2 5.8,370.9 2.7,374.7 C2.9,374.7 3,374.8 4,373.8 Z"></path>
                        <path d="M0.8,377.1 C1.4,376.4 2,375.6 2.6,374.9 C2.6,374.9 2.5,374.9 2.5,375 C1.9,375.7 1.3,376.4 0.8,377.1 L0.8,377.1 Z"></path>
                        <path d="M56.2,314.4 C58.3,312.1 60.4,309.9 62.4,307.6 C64.4,305.3 66.3,303 68.2,300.8 C70.1,298.5 72,296.3 73.9,294.2 C75.9,292.1 77.9,290 79.9,287.9 C80.4,287.2 80.8,286.7 81.6,285.9 C82.3,285.3 82.9,284.7 83.6,284.1 C84.8,282.9 85.9,281.7 87.1,280.5 C87.5,280.1 87.9,279.6 88.3,279.2 C88.3,279.2 88.3,279.2 88.3,279.2 C88.9,278.5 88.7,278.6 88.2,279 C87.7,279.4 87.3,279.8 86.9,280.1 C87.1,279.9 87.8,279.3 88.2,279 C88.8,278.5 89.4,277.9 90.2,277.1 C91.2,276 92.3,274.8 93.4,273.6 C92.2,275 91.1,276.1 90.2,277.1 C89.6,277.8 88.9,278.5 88.3,279.2 C88.1,279.4 88,279.6 87.8,279.8 C90.5,277.1 93,274.3 95.6,271.5 C96.2,270.8 96.7,270.2 97.2,269.7 C99,267.6 100.8,265.6 102.1,264.5 C102.6,264 103,263.5 103.5,263 C103.4,263.1 103.3,263.2 103.2,263.3 C103.4,263.1 103.6,262.9 103.8,262.8 C105.7,260.7 107.7,258.6 109.8,256.6 C111.1,255.2 112.4,253.8 113.7,252.4 C113.7,252.4 114.7,251.6 115.3,251.2 C115.8,250.6 116.5,249.7 117.4,248.8 C116.2,249.8 115.1,250.7 114.1,251.5 C112.5,252.7 111.3,254.9 109.4,256.1 C111.3,254.8 112.5,252.6 114.1,251.5 C115.1,250.7 116.2,249.8 117.4,248.8 C119.3,246.8 121.8,244.4 123.9,242.4 C121.7,245.1 119.4,247.1 117.4,248.8 C116.5,249.7 115.8,250.6 115.3,251.2 C114.8,251.6 113.7,252.4 113.7,252.4 C112.4,253.8 111.1,255.2 109.8,256.6 C113.8,252.7 118,248.8 122.1,244.6 C125.4,241.2 128.5,237.8 131.6,234.4 C134.7,231 137.9,227.8 141.1,224.5 C144.3,221.3 147.5,218 150.6,214.8 C153.8,211.6 157,208.4 160.2,205.2 C163.4,202 166.6,198.8 169.9,195.6 C173.1,192.3 176.3,189 179.5,185.7 C182.7,182.4 186,179.1 189.5,176 C193,172.8 196.6,169.7 200.1,166.3 C203.9,162.6 207.5,158.8 211.1,155.1 C214.7,151.4 218.4,148 222.1,144.6 C225.9,141.2 229.6,137.9 233.3,134.4 C237,131 240.6,127.6 244.2,124.2 C246,122.5 247.8,120.8 249.6,119.2 C251.4,117.6 253.2,116 255,114.4 C258.6,111.2 262.3,108.1 265.8,104.8 C269.3,101.6 272.8,98.3 276.3,95.1 C279.8,91.9 283.2,88.7 286.8,85.5 C300.9,72.9 314.8,59.9 330.2,47.3 C333.1,44.8 336.7,41.9 340.6,38.6 C344.4,35.3 348.6,31.8 352.7,28.3 C361,21.3 369.2,14.3 374.8,9.5 C389.3,-3.9 380.2,1.1 379.4,1.6 C374.2,4.9 370,8.3 364.6,12.7 C359.2,17.1 352.6,22.6 342.8,30.3 C349.4,25 347.2,27.3 341.8,32 C339.1,34.4 335.5,37.4 331.9,40.4 C328.2,43.4 324.6,46.5 321.4,48.9 C312.1,55.8 301.9,65.4 291.1,75.3 C285.7,80.3 280.2,85.3 274.8,90.5 C272.1,93 269.4,95.6 266.7,98.1 C264,100.6 261.4,103 258.7,105.3 C256,107.6 253.3,110 250.4,112.6 C249,113.9 247.5,115.2 246,116.6 C244.5,118 243,119.4 241.5,120.9 C237.5,124.7 233.5,128.4 229.5,132.1 C225.5,135.8 221.5,139.4 217.6,143 C215.6,144.8 213.6,146.7 211.7,148.6 C209.8,150.5 207.9,152.5 206.1,154.5 C202.4,158.4 198.8,162.3 194.9,165.9 C191,169.5 186.9,173.1 183,177 C179,180.9 175.3,184.9 171.5,188.9 C169.6,190.9 167.7,192.9 165.7,194.8 C163.7,196.8 161.7,198.8 159.8,200.8 C155.8,204.8 151.7,208.8 147.7,212.9 C143.4,217.3 139.5,221.5 135.7,225.6 C131.9,229.7 128.5,233.8 125.1,237.7 C122.6,240.5 119.9,243.3 117.3,245.9 C114.6,248.5 112.1,250.9 109.9,253.1 C108.2,254.8 106.5,256.5 104.9,258.1 C103.3,259.8 101.9,261.4 100.5,263 C97.7,266.2 95,269.3 92.3,272.3 C95.3,269 97.8,266.1 100.5,263.2 C101.8,261.7 103.2,260.2 104.6,258.6 C106.1,257 107.7,255.4 109.4,253.6 C114.1,248.9 106.5,257.2 103.6,260.6 C102.4,262.1 100,263.9 98.8,265.3 C96,268.3 93.7,271.2 90.8,274.5 C89.6,276 89.4,275.5 88.8,276.2 C84.8,280.6 82,284.3 79.3,287 C77.2,289 75.4,290.9 73.6,292.7 C72.5,293.9 71.4,295.1 70.3,296.4 C69.6,297.2 69,298.1 68.3,299 C69,298.4 69.3,298.3 69.6,298.2 C68.6,299.4 67.1,301 66,302.2 C67,301 68.5,299.4 69.6,298.2 C69.3,298.3 68.9,298.4 68.3,299 C65.9,302.1 63.3,305.4 60.5,308.7 C57.7,312 54.8,315.2 52,318.4 C52,318.4 52.1,318.4 52.1,318.3 C53.8,316.5 55.4,314.7 57.1,312.9 C58.8,311.1 60.5,309.4 62.3,307.5 C60.8,309.1 60.8,308.8 62.5,306.9 C63,306.5 63.5,306 63.9,305.6 C61.2,309.1 58.3,312.3 55.2,315.1 C55.2,315.1 54,316.6 53.4,317.3 C52.4,318.3 52.3,318.1 52,318.3 C51.4,319 50.7,319.7 50.1,320.5 C51.6,319 56.2,314.4 56.2,314.4 Z"></path>
                        <path d="M90.2,277 C89.7,277.5 89.2,278.1 88.6,278.7 C90.8,276.4 93,274.1 95.2,271.7 C93.9,272.8 92,274.9 90.2,277 Z"></path>
                    </g>
                </g>
            </g>
            <g id="charcece" transform="translate(1094.000000, 892.500000) scale(-1, 1) translate(-1094.000000, -892.500000) translate(997.000000, 703.000000)" fill="#000000" stroke="#000000" stroke-width="2">
                <g id="Group-3" transform="translate(97.000000, 189.500000) scale(-1, 1) translate(-97.000000, -189.500000) ">
                    <path d="M183.773298,285.59648 C182.758951,286.403017 182.765111,291.052845 182.6786,294.299237 C182.639723,295.758134 182.60473,296.977677 182.512812,297.56819 C182.417298,298.1818 182.387787,298.761031 182.360041,299.292768 C182.304487,300.357416 182.228833,301.24208 181.805147,301.889193 C181.448883,302.43333 180.863426,302.845428 179.808445,303.03106 C179.227667,303.133252 178.734717,303.110167 178.318194,302.971222 C177.876436,302.823858 177.511311,302.548931 177.219369,302.12727 C176.723343,301.410844 176.443069,300.211525 176.368911,298.426371 C176.323773,297.339774 176.34156,296.023155 176.359911,294.687917 C176.38771,292.66514 176.41925,290.598391 176.219734,289.25527 C176.154505,288.816157 176.071679,288.46189 175.938442,288.237872 C175.613463,288.209299 175.196897,288.862663 174.611426,289.584836 C173.412641,291.063529 171.733299,293.105442 169.876239,293.982614 C169.435128,294.19097 168.997069,294.257156 168.583346,294.218282 C168.131129,294.175792 167.706501,294.006321 167.338824,293.748346 C166.555813,293.198959 166.044966,292.24771 166.061685,291.345417 C166.099878,289.284107 167.863723,287.010293 169.617899,284.82784 C171.302205,282.732314 173.108655,280.69955 172.501812,279.04931 C172.445853,278.897137 172.410586,278.726353 172.376834,278.551024 C172.334391,278.330541 172.336872,278.053917 172.09183,277.917102 C171.877538,277.797455 171.533012,277.782807 170.99329,277.86097 C169.928253,278.015211 168.69094,278.454937 167.473571,278.883597 C166.125168,279.358395 164.799753,279.818476 163.735589,279.925013 C162.783861,280.020294 162.03415,279.830219 161.548972,279.293052 C161.049792,278.740383 160.779687,278.194804 160.673303,277.666896 C160.551601,277.062972 160.641709,276.475024 160.885511,275.909243 C161.477964,274.534369 163.043964,273.290465 164.321092,272.302697 C164.571749,272.108831 164.809612,271.924921 165.023398,271.751685 C168.24547,269.140748 172.986125,267.778125 178.064803,266.827534 C177.962049,265.874303 177.856005,264.873397 177.744892,263.82463 C176.775628,254.676074 175.420204,241.881198 172.492708,225.316273 C171.751348,221.121369 170.99006,217.142386 170.227624,213.384612 C167.63674,240.415754 160.11237,261.590429 148.46212,275.514365 C147.65975,285.334691 146.912672,298.585635 148.055784,314.895748 C149.591964,336.814221 154.255656,350.551868 156.914373,358.384055 C157.572794,360.323665 158.108892,361.904635 158.447564,363.16084 C160.487471,364.896864 162.277216,368.448213 162.277216,373.057742 C162.277216,374.32422 162.053588,375.319055 161.654197,376.103063 C161.208535,376.977901 160.544233,377.600595 159.697036,378.038872 C157.742709,379.049896 154.746698,379.031625 151.276499,378.976592 C150.484808,378.964037 149.668207,378.951067 148.835315,378.951066 C148.084916,378.952917 147.306404,378.963631 146.51349,378.974532 C142.400312,379.031079 137.910084,379.078288 134.883991,377.979826 C133.676132,377.541377 132.694556,376.921416 132.02777,376.073662 C131.407694,375.285295 131.050955,374.298429 131.050955,373.057742 C131.050955,371.999532 131.556725,370.981123 132.469959,370.02804 C133.412014,369.04488 134.79301,368.125821 136.428637,367.290958 C140.472064,365.227098 146.08715,363.660534 150.227489,362.76796 C144.63967,355.216637 138.381595,339.204915 136.952588,318.815608 C136.180439,307.79845 136.548646,295.974825 137.618766,285.546288 C129.195818,291.435222 119.342349,294.536171 108.227149,294.536171 C103.588526,294.536171 99.0982972,293.915129 94.7855667,292.7159 C93.6950334,300.083771 92.5462749,309.803349 92.5462749,321.715612 C92.5462749,338.644049 95.3839134,349.452584 97.001552,355.614794 C97.6890253,358.233644 98.1487358,360.038499 98.1152365,361.13491 C98.3899516,362.296672 98.5474439,363.572363 98.5474439,364.940516 C98.5474439,366.206993 98.3238159,367.201828 97.924425,367.985836 C97.4787626,368.860675 96.8144617,369.483368 95.9672642,369.921645 C94.0129371,370.93267 91.0169261,370.914398 87.5467275,370.859366 C86.7550357,370.84681 85.9384351,370.833841 85.1043495,370.833841 C84.3139346,370.833841 83.4854953,370.845483 82.6373138,370.857385 C78.6065053,370.913948 74.1417661,370.96192 71.1284027,369.857251 C69.9300628,369.417952 68.9544272,368.797494 68.291438,367.949597 C67.6759078,367.162395 67.3211827,366.177645 67.3211827,364.940516 C67.3211827,363.808756 67.9010506,362.721544 68.9386774,361.71079 C70.0199736,360.657498 71.6024857,359.681031 73.4489545,358.804741 C78.3769579,356.466029 85.1994331,354.821556 89.0638552,354.14854 C86.0880405,347.270858 83.5926137,336.686904 83.5926137,324.13491 C83.5926137,312.406588 85.333712,299.618678 87.6298,290.122904 C69.3551655,281.911966 54.913792,262.648487 46.9439034,235.993747 C46.5013735,244.358126 46.15397,253.463376 46.15397,262.865501 C46.15397,278.918887 47.0463086,291.168071 47.6842471,299.926779 C47.8530567,302.244486 48.0040825,304.318258 48.1165915,306.153692 C53.6597152,306.17256 58.8009493,306.654099 62.5650613,308.742911 C62.8057497,308.876476 63.0720079,309.016381 63.352598,309.163873 C64.7822323,309.91536 66.5409296,310.86904 67.3636662,312.12037 C67.7022339,312.635311 67.8932998,313.198711 67.8785553,313.814539 C67.8656668,314.35286 67.6946182,314.93695 67.2992061,315.56771 C66.9148859,316.180776 66.2096423,316.497863 65.2557766,316.56892 C64.1892385,316.648371 62.8038864,316.424915 61.3933351,316.190946 C60.119853,315.979714 58.8248055,315.761038 57.749103,315.793661 C57.2039837,315.810194 56.8672441,315.884305 56.6770324,316.039259 C56.4595338,316.216443 56.5101292,316.488423 56.5067043,316.712896 C56.5039806,316.89141 56.4989723,317.065709 56.4703486,317.225266 C56.1599375,318.955567 58.2927373,320.644464 60.3161761,322.416339 C62.4235378,324.261702 64.556326,326.195364 64.9526965,328.218724 C65.126201,329.104418 64.7886671,330.129724 64.1131625,330.806427 C63.7959662,331.124186 63.407279,331.364653 62.9693225,331.484847 C62.5686522,331.594808 62.1257304,331.605524 61.6550594,331.476759 C59.6735516,330.93466 57.6643467,329.214732 56.2264211,327.96621 C55.5240986,327.356397 55.0001206,326.785103 54.7316009,326.774145 C54.592915,327.113286 54.5730074,327.476516 54.5851941,327.920251 C54.6224701,329.277526 55.0132354,331.3074 55.3926641,333.294618 C55.6431258,334.606384 55.8897925,335.899911 56.0344547,336.977814 C56.2721192,338.748688 56.204835,339.978324 55.8410367,340.769795 C55.6269153,341.235632 55.3151833,341.569645 54.9057787,341.791313 C54.5197674,342.000316 54.0383226,342.108466 53.448581,342.108466 C52.3773289,342.108466 51.7290455,341.804078 51.2834927,341.32994 C50.7536193,340.766072 50.5251462,339.90795 50.2851422,338.869103 C50.1652714,338.350246 50.0353971,337.784922 49.8345381,337.197181 C49.6412412,336.631569 49.3945268,335.436624 49.1023285,334.006635 C48.4521142,330.824554 47.6488942,326.244323 46.509583,325.62578 C46.323964,325.525006 46.1605009,325.476563 46.0112802,325.525569 C45.8264872,325.586258 45.683973,325.760573 45.5423286,325.98616 C45.0252152,326.80973 44.6497004,328.319186 44.1792577,330.145677 C43.71251,331.957822 43.166332,334.074538 42.3518484,336.176265 C42.0767806,336.886061 41.7556008,337.305126 41.4444682,337.563625 C40.9453727,337.978289 40.447659,338.011832 40.0651783,338.024218 C39.3924789,338.051925 38.9505572,337.734253 38.6120343,337.244255 C38.2053332,336.655572 37.9673308,335.792564 37.8372815,335.270184 C37.2776564,333.022296 37.8842408,320.508059 41.0745144,312.697402 C37.16036,304.472634 33.4223679,286.311814 33.4223679,265.676431 C33.4223679,246.273421 37.03941,218.694568 40.8827576,203.510313 C40.3626322,197.70289 40.0953742,191.68976 40.0953742,185.496792 C40.0953742,162.037088 34.4256968,107.791606 25.7648775,72.2501897 C25.6475688,72.1815363 25.5229252,72.1362166 25.3724714,72.0950573 C24.9381243,71.9762338 24.3235742,71.9194084 23.5948153,71.8994707 C21.4862524,71.8417837 18.4667201,72.1096871 15.9341858,72.3331599 C14.2022216,72.4859898 12.6940143,72.6179757 11.8412398,72.6179757 C11.2843338,72.6179757 10.6675138,72.6513489 10.0210544,72.6860426 C7.8729842,72.8013226 5.42383776,72.9064068 3.65580379,72.0210079 C2.33351521,71.3588298 1.34984539,70.1742584 1.11334691,68.0507079 C1.03484389,67.3458194 1.26033728,66.6303666 1.76295085,65.9145483 C2.25300389,65.2166181 3.0137301,64.511865 3.97532994,63.8101693 C6.39050357,62.047776 10.1002967,60.2775055 13.7497011,58.5402779 C17.1232806,56.9343513 20.4443807,55.3571575 22.5998874,53.8308398 C23.3851492,53.2747943 24.0118512,52.7300181 24.4122028,52.1901459 C24.7159356,51.7805639 24.8893953,51.3799513 24.8450265,50.9785835 C24.7972223,50.5461387 24.4988422,50.2122465 24.0608178,49.9289741 C23.4567839,49.5383426 22.5910979,49.2505241 21.5558884,49.0254463 C18.6130239,48.3856013 14.3453136,48.2837687 10.5095626,48.1886676 C5.75438119,48.0707708 1.81224953,47.8071442 1.19160295,46.8793167 C0.390481909,45.6816913 0,44.4946209 0,43.422375 C0,42.2990421 0.419942338,41.2915325 1.26255061,40.5015833 C2.76999643,39.0883459 9.99219291,34.9803593 19.2506789,33.7262003 C24.514717,33.0131311 31.6750619,33.4949287 37.5424052,33.8931632 C42.6484389,34.2397253 46.9498004,34.726655 47.5236429,33.9237651 C47.5789909,33.8463252 47.5730661,33.750449 47.5502494,33.6476992 C47.5020059,33.4304459 47.3678086,33.1866839 47.1745861,32.9142627 C46.6760235,32.2113474 45.7968653,31.367747 44.6688036,30.4299706 C41.518847,27.8113594 36.4566116,24.5072038 32.0135061,21.6055863 C27.1409053,18.4234823 23.0796974,15.6718909 22.7587853,14.7748472 C22.2360985,13.3137836 22.0881071,12.015107 22.8919219,11.0070706 C23.5101421,10.231782 24.7406841,9.59461996 27.0274497,9.26702898 C34.1399171,8.2481313 49.7185357,11.2293848 56.2522226,12.8454434 C57.4086957,13.1314884 59.9687603,14.2823983 62.984277,15.6450312 C66.8515169,17.3925353 71.4827293,19.487496 74.8156946,20.4769923 C75.982428,20.8233742 76.9827378,21.0351344 77.7217085,21.0318965 C77.9993056,21.0306801 78.2339737,21.0012835 78.4139241,20.9220453 C78.5118671,20.8789176 78.5903961,20.8203927 78.6299248,20.7288117 C78.7290038,20.4992624 78.5352489,20.1515797 78.290791,19.7391708 C77.922664,19.1181266 77.311618,18.3629421 76.5087548,17.515536 C74.8583273,15.7735426 72.4084268,13.6604344 69.5401928,11.5474327 C68.0849708,10.4753842 66.375201,9.54252258 64.7690519,8.66454216 C63.0127076,7.70445941 61.3785177,6.80550917 60.2985385,5.87545684 C59.3705526,5.07629735 58.8509033,4.24231848 58.8509033,3.36154541 C58.8509033,2.71105942 59.0207426,2.18494722 59.3115307,1.75605948 C59.624208,1.29488743 60.0823612,0.943326894 60.6510809,0.685089565 C61.945987,0.0971141721 63.8525138,0.00642459563 65.6744011,0 L65.9548011,0 C77.7544863,0 98.3077429,5.45059958 108.637159,22.0553733 C114.228082,31.0429097 118.828392,44.4353917 123.593274,58.3252 C126.679314,67.3211208 129.836395,76.5254999 133.384549,84.866451 C136.405339,91.967682 139.799893,99.5052461 143.282998,107.239535 C153.0052,128.827834 163.413454,151.947112 168.333731,171.397945 C174.140596,182.204547 181.846601,205.092497 185.543545,226.011264 C188.904822,245.030688 188.971701,262.529874 187.268839,272.569369 C191.540003,279.773094 194.14759,291.349387 193.99242,293.591889 C193.955263,294.128869 193.871077,295.020009 193.573011,295.670216 C193.317542,296.227501 192.916617,296.605647 192.363238,296.678232 C191.879069,296.746828 191.392864,296.791678 190.83918,296.475492 C190.487789,296.274826 190.098558,295.917775 189.704139,295.266423 C188.536235,293.337727 187.629953,291.347786 186.854902,289.644028 C186.073713,287.926776 185.441187,286.505299 184.78859,285.783826 C184.609828,285.586197 184.439133,285.439216 184.246578,285.411465 C184.091099,285.389056 183.938553,285.46508 183.773298,285.59648 Z" id="Combined-Shape"></path>
                </g>
            </g>
            <path d="M987.110106,976.01546 C963.555023,976.015327 945.88871,976.015227 934.111169,976.01516 C921.024743,976.015086 901.395105,976.014975 875.222255,976.014827 C875.236971,980.287556 875.233046,984.782291 875.228981,989.437223 C875.227045,991.654274 875.225077,993.907674 875.225077,996.19068 L875.225196,997.186779 C875.22565,999.129689 875.227327,1001.05024 875.228981,1002.94426 C875.251408,1028.62184 875.22271,1049.42681 872.163239,1055.12735 C871.515449,1056.885 870.580046,1058.41428 869.034179,1059.45339 C867.736837,1060.32545 866.002164,1060.85853 863.613507,1060.85853 C862.190465,1060.85853 860.942155,1060.90433 859.84438,1060.94453 C857.273588,1061.03868 855.498947,1061.0771 854.223383,1060.51595 C853.083264,1060.01438 852.289236,1059.06876 851.722577,1057.23733 C851.000587,1054.90387 851.381734,1052.63437 852.616967,1050.646 C853.86997,1048.62902 856.014546,1046.8996 858.784905,1045.71345 C859.181285,1045.54374 859.668103,1045.31407 860.202938,1045.06192 C861.167462,1044.6072 862.284328,1044.08155 863.31581,1043.6901 C861.051891,1032.63977 859.595609,1015.47095 859.595609,996.19074 C859.595609,989.11478 859.791608,982.323369 860.151648,976.014824 L792.573303,976.014727 C792.851969,984.06625 792.901252,993.557734 792.901252,1003.72057 C792.901252,1015.1128 793.67596,1025.86831 794.314493,1034.73725 C794.737652,1040.61474 795.100896,1045.66639 795.141967,1049.53049 C795.339006,1050.59858 795.275043,1051.83185 795.201497,1053.12854 C795.172827,1053.63401 795.143508,1054.14944 795.130782,1054.66819 C795.10455,1055.73755 794.896238,1056.58148 794.540465,1057.25279 C794.146588,1057.996 793.571903,1058.5367 792.834634,1058.92988 C791.186005,1059.80906 788.65948,1059.91155 785.555452,1060.00433 C785.404063,1060.00885 785.25128,1060.01342 785.097141,1060.01813 C784.944047,1060.02281 784.791198,1060.02758 784.638697,1060.03234 C781.435293,1060.13234 778.388077,1060.20547 776.39027,1059.38229 C775.531227,1059.02833 774.85484,1058.51442 774.405583,1057.79738 C773.996937,1057.14515 773.772263,1056.31837 773.79811,1055.26471 C773.859252,1052.77222 775.108767,1050.47204 777.099261,1048.77681 C778.903711,1047.24002 781.316328,1046.20285 783.975727,1045.97881 C780.456981,1035.89729 777.296698,1020.49595 777.296698,1003.72057 C777.296698,993.559672 777.794768,984.069011 778.657514,976.014731 L672.785001,976.01546 C670.872015,976.01546 669.177813,975.287283 667.858596,974.012941 C666.549745,972.748614 665.609468,970.939966 665.211291,968.765341 C664.534708,965.070215 665.423507,960.298657 668.742841,955.425881 C673.279609,948.765913 682.384781,941.88864 698.273826,937.411285 C714.120205,932.945953 726.236462,931.751146 733.946689,930.991304 C736.784316,930.711656 739.018291,930.493644 740.613202,930.188751 C739.451138,928.749139 739.192745,916.274441 744.189555,908.013062 C748.40875,891.817097 759.251374,880.583031 771.652896,872.13798 C785.565181,862.664146 803.23352,858 821.509651,858 C839.232446,858 854.552545,862.943778 867.015516,872.229338 C879.462999,881.503358 889.063597,895.11334 895.347037,912.479637 C895.836104,912.039183 902.169309,927.055026 900.635525,929.039906 C903.114377,929.890299 910.793531,930.54814 920.128675,931.387805 C934.450654,932.676019 952.653324,934.319582 962.397208,937.416059 C974.359885,941.217638 981.806357,947.631748 986.090342,954.112846 C989.250441,958.893653 990.691929,963.717319 990.955198,967.580254 C991.119342,969.988733 990.823729,972.029992 990.211365,973.476769 C989.874124,974.273538 989.438537,974.896618 988.935163,975.322514 C988.398397,975.776664 987.782763,976.01546 987.110106,976.01546 Z" id="Combined-Shape" stroke="#000000" stroke-width="2" fill="#000000" transform="translate(828.000000, 959.499999) scale(-1, 1) translate(-828.000000, -959.499999) "></path>
        </g>
    </g>
</svg>