<?xml version="1.0" encoding="UTF-8"?>
<svg width="1922px" height="1018px" viewBox="0 0 1922 1018" version="1.1" xmlns="http://www.w3.org/2000/svg" xmlns:xlink="http://www.w3.org/1999/xlink">
    <!-- Generator: Sketch 62 (91390) - https://sketch.com -->
    <title>2scene7</title>
    <desc>Created with Sketch.</desc>
    <g id="Page-1" stroke="none" stroke-width="1" fill="none" fill-rule="evenodd">
        <g id="2scene7">
            <rect id="Rectangle" stroke="#979797" fill="#FFFFFF" x="0.5" y="0.5" width="1921" height="1017"></rect>
            <ellipse id="Oval" fill="#D8D8D8" cx="961.5" cy="787" rx="509.5" ry="126"></ellipse>
            <g id="charsquiggy" transform="translate(429.000000, 105.000000)">
                <path d="M1051.30415,385.781809 L580.483671,383.516645 C580.5317,397.483807 580.518893,412.176688 580.505624,427.393235 C580.499304,434.640576 580.492881,442.006735 580.492881,449.469675 L580.49327,452.725829 C580.494751,459.077027 580.500225,465.355124 580.505624,471.546506 C580.57882,555.484183 580.485155,623.493758 570.499643,642.128289 C568.385384,647.873888 565.332412,652.872956 560.287006,656.269733 C556.052737,659.120416 550.391104,660.862997 542.594998,660.863001 C537.950467,660.863004 516.110667,661.577482 511.947476,659.743127 C508.226351,658.103551 495.346784,652.418818 503.715104,638.500229 C512.083425,624.58164 539.228443,621.035181 542.594998,619.755573 C535.206013,583.633054 529.481368,512.495119 529.481368,449.469871 C529.481368,426.3392 530.121068,404.138695 531.296171,383.516633 L480.310064,383.516645 C481.219577,409.836341 480.527491,436.785737 480.527491,470.007114 C480.527491,507.247278 483.055985,542.406081 485.140033,571.397839 C486.521141,590.610824 487.706697,607.124202 487.840745,619.755573 C488.483842,623.247085 488.275079,627.278533 488.035039,631.517289 C487.941467,633.169614 487.845774,634.854519 487.804241,636.550264 C487.718624,640.045908 487.038734,642.804619 485.87756,644.999075 C484.592024,647.428559 482.716365,649.196078 480.310064,650.481325 C474.929261,653.355309 466.68318,653.690345 456.552242,653.993616 C456.058138,654.008407 433.159337,654.651133 426.638888,651.960225 C423.83514,650.803152 421.627545,649.12324 420.161258,646.779288 C418.827517,644.647215 418.094225,641.944565 418.178585,638.500229 C418.340475,631.890409 425.412638,627.046405 426.638888,626.000418 C432.528258,620.976806 441.116782,617.731131 449.796538,616.998758 C438.312041,584.043205 429.597291,524.844327 429.597291,470.007114 C429.597291,436.792071 426.781459,412.110518 429.597291,385.781809 L25.4087152,385.781809 C19.1651055,385.781809 13.6355619,383.401465 9.32989525,379.235759 C5.05806188,375.102787 1.98918255,369.190482 0.689611286,362.081832 C-1.51862279,350.002798 1.38224291,334.40501 12.2158971,318.476348 C27.0230189,296.705518 56.7405106,274.224337 108.599235,259.588271 C160.318705,244.991507 199.863791,241.085791 225.028458,238.601936 C234.289914,237.687793 239.454913,236.066117 244.660388,235.069449 C244.660388,227.822793 248.360637,204.437776 255.8412,175.961084 C263.758089,145.823409 307.617982,73.8218753 348.094115,46.2157699 C393.501083,15.2466684 451.167073,0 510.816776,0 C568.660499,0 618.662294,16.160762 659.338986,46.5144137 C699.965124,76.8303401 735.63063,119.192238 756.138544,175.961084 C758.234009,184.727836 769.068094,224.183459 769.068094,232.222994 C777.15858,235.002853 802.221831,237.153276 832.68991,239.898064 C879.434037,244.109117 938.843978,249.481777 970.646101,259.603877 C1009.68993,272.030894 1033.99375,292.998037 1047.97584,314.184154 C1058.28978,329.812179 1062.99452,345.580305 1063.85378,358.207888 C1064.38951,366.080988 1063.42469,372.753677 1061.42605,377.483059 C1060.32536,380.087625 1058.90369,382.124416 1057.26078,383.516633 C1055.50888,385.001208 1053.49957,385.781809 1051.30415,385.781809 Z" id="Combined-Shape" stroke="#000000" stroke-width="2" fill="#99CAF4" fill-rule="nonzero" transform="translate(532.000000, 330.500000) scale(-1, 1) translate(-532.000000, -330.500000) "></path>
                <g id="Group" transform="translate(675.000000, 74.000000)">
                    <ellipse id="Oval" fill="#000000" fill-rule="nonzero" cx="21.5172414" cy="64.78" rx="14.8965517" ry="17.22"></ellipse>
                    <ellipse id="Oval" fill="#FFFFFF" fill-rule="nonzero" cx="28.9655172" cy="59.04" rx="5.79310345" ry="6.56"></ellipse>
                    <path d="M0,11.3556562 C18.0809016,-5.75664314 34.0809016,-3.52852855 48,18.04" id="Path-4" stroke="#000000" stroke-width="3" stroke-linecap="round"></path>
                </g>
                <path d="" id="Path-3" stroke="#979797"></path>
                <path d="M741,210 C751.773811,209.246754 759.939108,209.074347 772,209" id="Path-5" stroke="#000000" stroke-width="3" stroke-linecap="round"></path>
                <path d="M546.773219,266.042556 C586.899093,292.079033 614.04402,307.157774 628.207999,311.278779 C643.556588,315.744447 665.953954,322.27306 671.527601,313.071977 C677.101248,303.870893 670.298505,288.313107 647.919291,266.026444 C589.072372,207.422895 565.10044,183.72954 576.003493,194.946377" id="Path-7" stroke="#000000" stroke-width="3" stroke-linecap="round" transform="translate(610.074171, 254.984799) rotate(-15.000000) translate(-610.074171, -254.984799) "></path>
                <rect id="Rectangle" stroke="#000000" stroke-width="3" fill="#FDFFAD" x="313.5" y="316.5" width="102" height="114" rx="5"></rect>
                <text id="Keratin-5/6-Keratin" font-family="HanziPenSC-W5, HanziPen SC" font-size="16" font-weight="bold" fill="#000000">
                    <tspan x="323" y="347">Keratin 5/6</tspan>
                    <tspan x="323" y="369">Keratin 7</tspan>
                    <tspan x="323" y="391">P60</tspan>
                    <tspan x="323" y="413">Love, mom</tspan>
                </text>
            </g>
        </g>
    </g>
</svg>