<?xml version="1.0" encoding="UTF-8"?>
<svg width="1922px" height="1018px" viewBox="0 0 1922 1018" version="1.1" xmlns="http://www.w3.org/2000/svg" xmlns:xlink="http://www.w3.org/1999/xlink">
    <!-- Generator: Sketch 62 (91390) - https://sketch.com -->
    <title>2scene11</title>
    <desc>Created with Sketch.</desc>
    <g id="Page-1" stroke="none" stroke-width="1" fill="none" fill-rule="evenodd">
        <g id="2scene11">
            <rect id="Rectangle" fill="#FFFFFF" fill-rule="nonzero" x="0" y="0" width="1922" height="1018"></rect>
            <g id="Group-3" transform="translate(619.000000, 237.000000)">
                <ellipse id="Oval" fill="#D8D8D8" fill-rule="nonzero" cx="477" cy="497.5" rx="208" ry="47.5"></ellipse>
                <ellipse id="Oval" fill="#D8D8D8" fill-rule="nonzero" cx="477" cy="497.5" rx="208" ry="47.5"></ellipse>
                <ellipse id="Oval" fill="#D8D8D8" fill-rule="nonzero" cx="124" cy="497.5" rx="124" ry="47.5"></ellipse>
                <g id="charsquiggy" transform="translate(267.000000, 230.000000)">
                    <path d="M404.119433,148.242466 C396.742147,152.999184 392.473915,154.925301 391.314738,154.020817 C380.246677,145.384616 379.07104,130.898262 372.979489,130.898227 C363.056432,130.898171 350.092419,147.098277 336.026216,149.051042 C330.032124,149.883182 316.223389,133.640794 309.476942,134.827548 C298.846801,136.697474 283.602831,141.168849 263.745032,148.241672 C263.763495,153.608764 255.986578,159.539002 255.981478,165.38619 C255.979048,168.171089 270.882229,186.687832 270.869795,191.324824 C270.851107,198.294389 260.190416,204.595397 259.279261,211.099373 C258.10572,219.476308 260.952737,226.913542 261.683643,233.250443 C262.455296,239.94062 261.117324,245.359575 259.907193,247.617088 C259.094477,249.824921 257.920921,251.745888 255.981478,253.051151 C254.353834,254.146569 252.177514,254.816182 249.180708,254.816183 C247.39536,254.816184 245.829232,254.873713 244.451965,254.924213 C241.226651,255.042474 239.000188,255.090733 237.399866,254.385855 C235.969474,253.755823 234.973287,252.568008 234.262357,250.26749 C233.356549,247.336366 233.834735,244.485586 235.384458,241.987938 C236.956474,239.454361 239.647057,237.281981 243.122748,235.792033 C243.620045,235.578853 244.230807,235.290357 244.90181,234.973629 C246.111901,234.402441 247.513121,233.742152 248.807217,233.250443 C247.638297,227.537922 239.236273,217.958446 240.537221,208.486052 C241.361899,202.481449 252.110491,196.892352 251.821002,191.168417 C251.457509,183.981245 236.390337,168.527979 236.434177,165.913117 C236.535351,159.878552 244.522314,153.77035 244.837463,148.241667 L160.053729,148.241546 C160.215613,152.924565 168.994772,158.714802 169.055685,164.077582 C169.126323,170.296595 160.465174,176.188823 160.465174,183.043613 C160.465174,189.053073 170.095365,196.452745 170.353545,202.063838 C170.710159,209.814225 159.872855,224.640504 160.053729,227.567629 C160.263723,230.966008 163.24869,237.97901 163.276373,240.586713 C163.523578,241.928379 163.44333,243.477523 163.351059,245.106329 C163.31509,245.74126 163.278306,246.38871 163.262341,247.040325 C163.22943,248.383579 162.968082,249.443655 162.521729,250.286908 C162.027572,251.220474 161.306572,251.89967 160.381595,252.393545 C158.313226,253.497917 155.14345,253.62666 151.24914,253.743196 C151.059207,253.74888 150.867525,253.754615 150.674143,253.760532 C150.482071,253.766408 150.290307,253.772402 150.09898,253.778382 C146.079992,253.903997 142.256957,253.995857 139.750511,252.961835 C138.672756,252.517212 137.824161,251.871681 137.260524,250.970982 C136.747837,250.151701 136.46596,249.113167 136.498388,247.789629 C136.575098,244.658741 138.142737,241.769427 140.64001,239.639997 C142.903871,237.709598 145.930739,236.406775 149.267218,236.125349 C148.654351,234.367292 142.602141,229.476273 142.594992,227.567629 C142.565475,219.687476 152.391028,213.505805 151.24914,202.233429 C150.675369,196.569341 140.887714,189.11243 140.887714,183.043613 C140.887714,176.070295 149.753219,170.0677 150.09898,163.753952 C150.386071,158.511542 142.103965,152.831183 142.594992,148.24155 C109.652268,148.017978 86.8866184,146.606392 74.2980445,144.006791 C64.1119476,141.903313 53.7427364,122.544893 46.0984236,122.544945 C41.2660719,122.544979 52.6347331,137.621281 44.3316875,144.365173 C41.0445731,147.03503 29.523154,148.327461 9.76743018,148.242466 C7.3674,148.242466 5.24185532,147.327783 3.58676629,145.727048 C1.94468271,144.138891 0.765012081,141.866999 0.265459678,139.135393 C-0.58338076,134.493843 0.531705787,128.500158 4.69613921,122.37933 C6.24930253,120.096511 26.2901043,127.584253 28.934354,122.544945 C35.9803979,109.116871 28.9229589,78.1428562 43.4177242,74.0534181 C55.6825531,70.5931167 66.9839645,96.7830742 75,103.10667 C79.9776744,107.033399 82.7951718,92.0520221 86.5008308,91.6863849 C90.0609145,91.3351116 92.0463293,90.7119582 94.0473025,90.3289734 C94.0473025,87.544337 95.478994,79.1089452 96.9228151,73.2178218 C99.7659032,61.6173656 118.248067,28.3671666 133.807005,17.7591051 C151.261346,5.8587618 173.428029,0 196.357247,0 C218.59225,0 237.812832,6.21001601 253.448866,17.8738635 C269.065466,29.5232145 282.77521,45.8014112 290.658408,67.6156949 C291.4639,70.9844513 295.628499,86.1458679 295.628499,89.2351803 C298.738464,90.3033829 302.496567,90.6316588 314.208431,91.6863849 C321.822792,92.3721052 335.3221,105.745196 343.626692,103.10667 C354.919248,99.5188113 366.648766,80.1713326 373.693043,82.4126373 C388.701408,87.1879056 390.061186,122.757143 395.43587,130.898227 C399.400527,136.903531 408.613184,132.794433 408.943482,137.646772 C409.149418,140.672129 408.778541,143.23621 408.01027,145.053547 C407.587168,146.05439 407.04068,146.837058 406.409148,147.372038 C405.735722,147.942509 404.963348,148.242466 404.119433,148.242466 Z" id="Combined-Shape" stroke="#000000" stroke-width="2" fill="#99CAF4" fill-rule="nonzero"></path>
                    <ellipse id="Oval" fill="#000000" fill-rule="nonzero" cx="138.226852" cy="66.5903465" rx="5.68055556" ry="6.62747525"></ellipse>
                    <ellipse id="Oval" fill="#000000" fill-rule="nonzero" cx="257.518519" cy="64.0655941" rx="5.68055556" ry="6.62747525"></ellipse>
                    <ellipse id="Oval" fill="#FFFFFF" fill-rule="nonzero" cx="260.358796" cy="61.8564356" rx="2.20910494" ry="2.52475248"></ellipse>
                    <ellipse id="Oval" fill="#FFFFFF" fill-rule="nonzero" cx="140.435957" cy="64.3811881" rx="2.20910494" ry="2.52475248"></ellipse>
                    <g id="Path-3"></g>
                    <path d="M179.818129,86.5477735 C182.410738,87.9601655 184.774678,84.0306404 187.039202,84.6768175 C188.794901,85.1778025 190.889109,89.4460397 192.368058,89.647569 C195.624809,90.0913507 199.835063,81.7836411 204.500033,86.5477735 C204.992299,87.0505043 206.335541,90.2172118 210.150384,89.647569 C211.698635,89.4163799 212.708826,85.2957173 213.645594,83.698913 C214.238777,82.68778 218.312739,85.0411897 219.032372,84.6768175" id="Path-5" stroke="#000000" stroke-width="2" stroke-linecap="round" transform="translate(199.425251, 86.580160) scale(-1, -1) rotate(-180.000000) translate(-199.425251, -86.580160) "></path>
                    <rect id="Rectangle" stroke="#000000" stroke-width="2" fill="#FDFFAD" fill-rule="nonzero" x="150" y="96" width="38.3950617" height="42.8143564" rx="5"></rect>
                    <path d="M115.504563,107.880364 C130.929789,117.885389 141.364717,123.679919 146.809349,125.263956 C152.709344,126.980474 161.318889,129.489947 163.460761,125.955414 C165.602633,122.420882 162.98686,116.44351 154.383364,107.880129 C131.760176,85.3624243 122.544384,76.2585284 126.73599,80.5684413" id="Path-7" stroke="#000000" stroke-width="2" fill="#99CAF4" fill-rule="nonzero" stroke-linecap="round" transform="translate(139.837535, 103.636316) rotate(-15.000000) translate(-139.837535, -103.636316) "></path>
                    <path d="M238.000001,107.350342 C253.425384,117.355567 263.860405,123.150235 269.305065,124.734345 C275.205091,126.450943 283.814681,128.960532 285.956507,125.426033 C288.098332,121.891534 285.482474,115.914133 276.878849,107.350644 C254.255322,84.8326538 245.039393,75.7286414 249.231064,80.0386071" id="Path-7" stroke="#000000" stroke-width="2" stroke-linecap="round" transform="translate(262.333108, 103.106670) scale(-1, 1) translate(-262.333108, -103.106670) "></path>
                </g>
                <g id="charcece" transform="translate(19.000000, 0.000000)" fill-rule="nonzero">
                    <g id="Group-3" transform="translate(127.500000, 248.500000) scale(-1, 1) translate(-127.500000, -248.500000) ">
                        <path d="M86.4239853,-3.20596882e-11 C101.878909,-3.20596882e-11 128.799034,7.14762002 142.328237,28.9222178 C149.651084,40.7079845 155.676452,58.2701575 161.917372,76.484497 C165.959387,88.2812587 170.09445,100.351381 174.741731,111.289251 C178.698284,120.601419 183.144383,130.485771 187.706465,140.628097 C200.440354,168.937819 214.072816,199.255183 220.517268,224.761949 C228.122951,238.93314 238.216077,268.947153 243.058239,296.378887 C247.460752,321.319927 247.54835,344.267407 245.317985,357.432655 C250.912245,366.879229 254.327595,382.05975 254.124357,385.000445 C254.075691,385.704611 253.965426,386.873204 253.575026,387.725851 C253.24042,388.456644 252.715298,388.952524 251.990497,389.047707 C251.356346,389.137661 250.719527,389.196475 249.994325,388.781845 C249.534082,388.518703 249.024278,388.050485 248.507677,387.196339 C246.977987,384.667152 245.790962,382.057651 244.77582,379.823435 C243.752639,377.571524 242.924173,375.707477 242.069419,374.761377 C241.83528,374.502216 241.611708,374.309474 241.359505,374.273081 C241.155862,374.243696 240.956062,374.34339 240.739615,374.5157 C239.411049,375.573349 239.419118,381.670881 239.305808,385.928024 C239.254888,387.841142 239.209055,389.440384 239.088663,390.21475 C238.963561,391.019405 238.924909,391.778977 238.888568,392.476268 C238.815804,393.87239 238.716714,395.03249 238.161782,395.881079 C237.695157,396.594631 236.92834,397.135034 235.546553,397.378461 C234.785865,397.512471 234.140211,397.482198 233.594661,397.299993 C233.016057,397.106748 232.537826,396.746224 232.155447,396.19328 C231.505765,395.253798 231.13867,393.681077 231.04154,391.340122 C230.982419,389.915218 231.005717,388.188676 231.029752,386.437717 C231.066163,383.785157 231.107473,381.074935 230.846151,379.313638 C230.760716,378.737811 230.652233,378.273244 230.477722,377.979479 C230.052074,377.942009 229.506467,378.798795 228.739632,379.745814 C227.169494,381.684891 224.969935,384.362545 222.537606,385.51282 C221.95985,385.786048 221.386091,385.87284 220.844207,385.821863 C220.251906,385.766144 219.695738,385.543909 219.214164,385.205615 C218.188597,384.485179 217.519503,383.237763 217.5414,382.054544 C217.591425,379.351454 219.901664,376.369698 222.199238,373.507748 L222.589527,373.023753 C224.672719,370.447918 226.724587,367.966837 225.976513,365.930098 C225.90322,365.730546 225.857028,365.50659 225.812821,365.276672 C225.757229,364.987543 225.760479,364.624794 225.43953,364.445382 C225.158855,364.288483 224.707603,364.269274 224.00069,364.371774 C222.605732,364.574036 220.985132,365.15067 219.390653,365.712791 C217.62455,366.335416 215.888555,366.93874 214.49474,367.078447 C213.248191,367.203393 212.26624,366.954139 211.630766,366.249728 C210.976953,365.524988 210.623176,364.809545 210.483837,364.117275 C210.324435,363.325323 210.442456,362.554318 210.761782,361.812385 C211.537761,360.009449 213.588868,358.378262 215.261618,357.082956 C215.589921,356.828731 215.901469,356.587561 216.181479,356.360389 C220.401667,352.936548 226.610854,351.149678 233.262776,349.903125 C233.128191,348.65311 232.989298,347.340576 232.843764,345.96528 C231.574247,333.968361 229.798948,317.189855 225.964589,295.467514 C224.993575,289.966545 223.99646,284.748723 222.997841,279.820982 C219.604368,315.268153 209.749142,343.035471 194.489944,361.294563 C193.439021,374.172405 192.460518,391.548972 193.957736,412.937169 C195.969785,441.679863 202.078168,459.694666 205.560487,469.96537 C206.42287,472.508869 207.125038,474.582068 207.568621,476.229387 C210.240439,478.505914 212.5846,483.16296 212.5846,489.207646 C212.5846,490.868436 212.291699,492.173008 211.768587,493.201114 C211.18487,494.348329 210.314785,495.164896 209.205148,495.739629 C206.64542,497.065431 202.721323,497.041471 198.176146,496.969304 C197.139209,496.95284 196.069647,496.935832 194.978746,496.93583 C193.995892,496.938258 192.976218,496.952308 191.937679,496.966602 C186.550345,497.040755 180.66916,497.102663 176.705662,495.6622 C175.123639,495.087242 173.837995,494.274258 172.964657,493.162559 C172.152497,492.128738 171.685249,490.834615 171.685249,489.207646 C171.685249,487.819967 172.347694,486.48448 173.543824,485.23466 C174.777704,483.945397 176.586497,482.740192 178.728799,481.645399 C184.024776,478.938965 191.37927,476.884658 196.80218,475.714185 C189.483398,465.811791 181.286732,444.814888 179.415057,418.07746 C178.403715,403.630158 178.885983,388.125299 180.287599,374.449881 C169.255439,382.172309 156.34962,386.238726 141.791216,386.238726 C135.715668,386.238726 129.834482,385.424325 124.185779,383.851721 C122.757426,393.513546 121.252812,406.259273 121.252812,421.880367 C121.252812,444.079399 124.969478,458.253124 127.088219,466.333912 C127.988654,469.76813 128.590771,472.134918 128.546895,473.572692 C128.906709,475.096164 129.112989,476.769035 129.112989,478.563157 C129.112989,480.223946 128.820086,481.528519 128.296974,482.556624 C127.713257,483.70384 126.843173,484.520406 125.733536,485.095139 C123.173809,486.420941 119.249711,486.396981 114.704534,486.324814 C113.667596,486.30835 112.598034,486.291343 111.50557,486.291343 C110.470305,486.291343 109.385237,486.30661 108.27431,486.322218 C102.994861,486.396391 97.1470611,486.459298 93.2002354,485.010695 C91.6306807,484.434622 90.3528182,483.620988 89.4844521,482.509102 C88.6782465,481.476808 88.2136367,480.18546 88.2136367,478.563157 C88.2136367,477.079029 88.9731328,475.653317 90.3321897,474.327869 C91.7484435,472.946639 93.821177,471.666154 96.2396343,470.517035 C102.694206,467.450175 111.630108,465.293703 116.691629,464.411146 C112.793983,455.392128 109.525538,441.512906 109.525538,425.052903 C109.525538,409.673019 111.805983,392.903649 114.81334,380.451407 C99.8450668,373.717975 75.7769697,360.099072 65.5106713,325.790061 C62.6352103,316.180539 59.8347328,300.271964 57.5558465,284.648527 C51.5664575,288.527558 48.2438374,294.348953 47.5873688,302.111988 C46.4123818,316.006736 49.2312953,335.967216 56.044124,361.992711 C57.257557,364.14988 59.4485788,370.273505 61.4486596,370.431442 C68.0332623,370.951395 88.3880007,371.809276 87.8732998,377.798989 C87.3815442,383.521681 74.6516625,378.050194 72.7879226,381.269214 C69.9931952,386.09622 90.6105633,395.55694 87.5074279,400.657485 C84.4042924,405.75803 73.4771269,390.523908 71.2632644,394.711386 C69.5085944,398.03031 81.1503779,416.652853 77.4434768,418.002055 C72.3477695,419.856741 65.109352,394.655923 61.6235807,396.409085 C57.3768438,398.544973 62.6890423,414.123567 57.7591349,415.917906 C54.1614443,417.227359 53.9574207,402.039201 53.5406678,399.351025 C52.6379466,393.528211 51.5365846,386.173808 51.6604657,380.239519 C51.69101,378.77635 50.3618252,374.138886 49.4161062,370.491203 C35.057358,329.003629 31.1925154,300.016177 37.8215786,283.528846 C42.1856832,272.674757 47.8757868,265.006764 54.3041383,259.891305 C53.4868969,252.936009 52.8819583,247.071577 52.5539747,243.25041 C49.9498599,212.911225 45.1279774,141.352053 33.7842595,94.7449717 C33.6306117,94.6549433 33.4673567,94.5955136 33.2702961,94.5415396 C32.7013995,94.3857209 31.8964776,94.3112031 30.941968,94.2850579 C28.1802267,94.2094103 24.2253212,94.5607243 20.908273,94.8537743 C18.639791,95.0541872 16.6643799,95.2272663 15.5474379,95.2272663 C14.8180168,95.2272663 14.0101218,95.2710301 13.1634059,95.3165255 C10.349919,95.4676975 7.14209014,95.6054991 4.82636483,94.4444351 C3.09446533,93.5760908 1.80607996,92.0227082 1.49632035,89.2379995 C1.39349912,88.3136471 1.68884454,87.3754412 2.34715484,86.4367559 C2.98901368,85.5215282 3.98539326,84.5973533 5.24487193,83.6771878 C8.40820409,81.3660809 13.2671955,79.0446444 18.0470913,76.7665385 L19.1972589,76.2180407 C23.2106778,74.3014232 27.0611081,72.4183214 29.6388372,70.5908374 C30.6673528,69.8616695 31.4881909,69.1472797 32.0125611,68.4393206 C32.4103825,67.902217 32.6375755,67.3768754 32.5794625,66.8505436 C32.5168498,66.283459 32.1260391,65.8456108 31.5523261,65.4741428 C30.761178,64.9618899 29.6273249,64.5844604 28.2714342,64.2893055 C24.4169462,63.4502476 18.8272092,63.3167099 13.8032414,63.1919995 C7.57502739,63.0373959 2.41172498,62.6916904 1.59881809,61.4749878 C0.549530405,59.904487 0.0380872684,58.3478273 0.0380872684,56.9417424 C0.0380872684,55.4686647 0.588116916,54.1474714 1.69174351,53.111575 C3.66615717,51.2583322 13.1256039,45.8713419 25.2521302,44.2267059 C32.1468316,43.2916258 41.5252667,43.9234289 49.2101617,44.445652 C55.897913,44.9001148 61.5317254,45.5386479 62.2833296,44.4857817 C62.355823,44.3842312 62.3480628,44.2585044 62.318178,44.1237639 C62.25499,43.8388697 62.0792217,43.5192134 61.8261439,43.1619751 C61.1731395,42.2402102 60.0216408,41.1339585 58.5441347,39.9042094 C54.4184026,36.470305 47.7880173,32.1374149 41.9685522,28.3323915 C35.5865453,24.1595533 30.2672799,20.5512659 29.8469575,19.3749315 C29.1623558,17.4589722 28.9685205,15.7559582 30.0213364,14.4340741 C30.8310652,13.4174028 32.4427974,12.5818631 35.4379441,12.1522781 C44.7536705,10.8161511 65.1581435,14.7256049 73.7157982,16.8448163 C75.2305169,17.2199201 78.5836234,18.7291609 82.5332694,20.5160435 C87.5984805,22.8076254 93.6643231,25.554843 98.0297553,26.8524148 C99.5579125,27.3066411 100.868093,27.5843319 101.835977,27.5800859 C102.199567,27.5784908 102.506929,27.5399417 102.742623,27.436033 C102.870907,27.3794776 102.973762,27.3027313 103.025536,27.1826369 C103.155307,26.8816185 102.901532,26.4256863 102.581347,25.8848756 C102.099184,25.0704721 101.298851,24.0801641 100.247282,22.9689219 C98.0855945,20.6845665 94.8767779,17.9135512 91.1200389,15.1426756 C89.2140267,13.7368495 86.9746143,12.5135454 84.8709216,11.3622096 C82.5705071,10.1032093 80.4300874,8.92437482 79.0155585,7.70475475 C77.8001064,6.65678043 77.1194832,5.56314587 77.1194832,4.40814794 C77.1194832,3.55513597 77.3419343,2.86522103 77.7228011,2.30280096 C78.1323378,1.698045 78.732415,1.23702762 79.4773094,0.898389218 C81.173344,0.127350247 83.6704637,0.00842486547 86.0567247,-3.20596882e-11 L86.4239853,-3.20596882e-11 Z" id="Combined-Shape" stroke="#000000" stroke-width="2" fill="#F3A7A7"></path>
                        <g id="Group-2" transform="translate(56.085696, 123.724269)">
                            <path d="M4.235569,52.8503508 C4.03216732,48.8402357 5.32390706,43.0041678 8.00573105,35.7794946 C8.14457568,35.4054555 8.28070118,35.0384383 8.41426439,34.6783296 C11.0604964,27.5436442 12.6771851,23.1442803 14.5372435,20.5912884 C16.0738185,18.4822884 17.7843091,17.7344342 20.4667824,17.7344342 C21.8822216,17.7344342 23.1021484,18.2543816 24.1003517,19.2200973 C25.1769997,20.2617046 25.9960155,21.803453 26.5505662,23.7497479 C27.6814331,27.7187272 27.6997933,33.3313362 26.3957195,39.9667398 C25.2441355,45.8262427 22.8302003,50.1275253 19.9481146,53.1000248 C16.3520991,56.8088507 12.0342938,58.4445194 8.60588402,58.4445194 C7.26714047,58.4445194 6.23311576,57.9991638 5.51745445,57.1129238 C4.7363939,56.1456967 4.32939325,54.7001195 4.235569,52.8503508 Z" id="Oval" stroke="#000000" stroke-width="2" fill="#AD6161" transform="translate(15.800873, 38.089477) rotate(190.000000) translate(-15.800873, -38.089477) "></path>
                            <path d="M70.5450304,35.7336723 C69.2074599,35.734382 68.1745675,35.289269 67.4599996,34.4027728 C66.6800719,33.435191 66.2741795,31.9886834 66.1814139,30.1374966 C65.9803054,26.124278 67.2741269,20.2828517 69.9576856,13.0509646 C70.096619,12.6765547 70.2328316,12.3091738 70.3664802,11.948708 C73.0144253,4.80690456 74.6321881,0.403165247 76.49214,-2.15285807 C78.0286276,-4.26436247 79.7381541,-5.0137748 82.4185348,-5.01520188 C83.8327654,-5.01595236 85.0513742,-4.49627337 86.0482119,-3.53037978 C87.1234398,-2.48852886 87.9409646,-0.946007073 88.4940333,1.00151452 C89.621898,4.97306808 89.6372585,10.5901535 88.330682,17.2315598 C87.1768796,23.0964051 84.7625361,27.4024393 81.8811189,30.3788689 C78.2859773,34.0925574 73.970732,35.7318488 70.5450304,35.7336723 Z" id="Oval" stroke="#000000" stroke-width="2" fill="#AD6161" transform="translate(77.743604, 15.359235) scale(-1, -1) rotate(100.000000) translate(-77.743604, -15.359235) "></path>
                            <ellipse id="Oval" fill="#000000" cx="37.8142259" cy="78.0267448" rx="7.10007778" ry="9.75101414"></ellipse>
                            <ellipse id="Oval" fill="#000000" cx="93.8142259" cy="66.0267448" rx="7.10007778" ry="9.75101414"></ellipse>
                            <ellipse id="Oval" fill="#FFFFFF" cx="40.4767551" cy="72.7080093" rx="2.66252917" ry="2.6593675"></ellipse>
                            <ellipse id="Oval" fill="#FFFFFF" cx="96.4767552" cy="60.7080099" rx="2.66252917" ry="2.6593675"></ellipse>
                        </g>
                    </g>
                    <path d="M112.774645,301.596848 C105.116337,299.483669 98.4835442,295.343409 94.3693789,290.353766 C92.3885471,287.951421 90.9939489,285.354382 90.3681709,282.693211 C89.7870293,280.22186 89.873745,277.697689 90.77228,275.234929 C91.2865311,273.825439 91.8443979,272.808243 92.4714644,272.121472 C93.0906123,271.443374 93.7746568,271.101578 94.5398772,271.020605 C96.5747003,270.805287 99.1218965,272.30584 102.423365,274.193506 C106.021883,276.251014 110.484355,278.799437 116.091767,280.346707 C121.364037,281.8015 126.817101,282.190339 131.572786,282.527458 C136.509093,282.877382 140.686237,283.149749 143.066367,284.578671 C143.924503,285.093856 144.537387,285.762369 144.819792,286.677784 C145.091222,287.557621 145.058145,288.646797 144.706203,289.999401 C143.341032,295.246093 139.094344,299.136992 133.385131,301.238058 C127.578395,303.375013 120.249245,303.659337 112.774645,301.596848 Z" id="Oval" stroke="#000000" fill="#000000"></path>
                    <path d="M115.986879,290.419799 C109.622087,288.73583 104.07637,285.939973 100.007085,282.644043 C96.0461592,279.43588 93.4740343,275.763205 93,272.180602 C93.9231147,271.173872 94.9822403,270.916291 96.2188778,271.13296 C98.0310312,271.450465 100.197335,272.732449 102.84864,274.284724 C106.356261,276.338351 110.68803,278.871351 116.117636,280.415181 C121.272673,281.880941 126.604465,282.272783 131.25441,282.612444 C135.013716,282.887048 138.321728,283.123616 140.709829,283.890126 C142.268801,284.390509 143.436571,285.102662 144,286.278048 C141.825641,289.004394 137.93081,290.821316 133.09121,291.590364 C128.126128,292.379352 122.165322,292.054464 115.986879,290.419799 Z" id="Combined-Shape" stroke="#000000" fill="#FFFFFF"></path>
                </g>
            </g>
            <path d="M1013,520.943989 C1024.66135,521.323633 1031.59733,519.00897 1033.80793,514" id="Path-2" stroke="#000000" stroke-width="2" stroke-linecap="round" transform="translate(1023.403965, 517.492055) scale(-1, -1) translate(-1023.403965, -517.492055) "></path>
            <path d="M1133,517.943989 C1144.66135,518.323633 1151.59733,516.00897 1153.80793,511" id="Path-2" stroke="#000000" stroke-width="2" stroke-linecap="round" transform="translate(1143.403967, 514.492055) scale(1, -1) translate(-1143.403967, -514.492055) "></path>
        </g>
    </g>
</svg>