<?xml version="1.0" encoding="UTF-8"?>
<svg width="1922px" height="1018px" viewBox="0 0 1922 1018" version="1.1" xmlns="http://www.w3.org/2000/svg" xmlns:xlink="http://www.w3.org/1999/xlink">
    <!-- Generator: Sketch 62 (91390) - https://sketch.com -->
    <title>2scene8</title>
    <desc>Created with Sketch.</desc>
    <g id="Page-1" stroke="none" stroke-width="1" fill="none" fill-rule="evenodd">
        <g id="2scene8">
            <rect id="Rectangle" stroke="#979797" fill="#FFFFFF" x="0.5" y="0.5" width="1921" height="1017"></rect>
            <ellipse id="Oval" fill="#D8D8D8" cx="961.5" cy="723.5" rx="310.5" ry="76.5"></ellipse>
            <g id="charsquiggy" transform="translate(637.000000, 308.000000)">
                <path d="M640.267464,234.862574 L353.527651,233.48355 C353.556902,241.986708 353.549102,250.931681 353.541021,260.19546 C353.537172,264.607615 353.53326,269.092106 353.53326,273.635517 L353.533497,275.617852 C353.534399,279.484438 353.537733,283.306521 353.541021,287.075812 C353.585599,338.176767 353.528555,379.580751 347.447163,390.925386 C346.159534,394.423286 344.300208,397.466701 341.227447,399.534646 C338.648686,401.270132 335.20063,402.331009 330.452633,402.331011 C327.624014,402.331013 314.323105,402.765985 311.787632,401.649236 C309.521387,400.651068 301.677454,397.190223 306.773941,388.716636 C311.870428,380.243049 328.402329,378.083978 330.452633,377.304957 C325.952582,355.313698 322.46615,312.00518 322.46615,273.635636 C322.46615,259.553767 322.855741,246.03818 323.571404,233.483543 L292.519767,233.48355 C293.07368,249.506886 292.652185,265.913581 292.652185,286.138635 C292.652185,308.810313 294.192092,330.214865 295.461322,347.864943 C296.302447,359.561739 297.024476,369.615024 297.106114,377.304957 C297.497774,379.430577 297.370633,381.884908 297.224443,384.465447 C297.167456,385.471377 297.109177,386.497141 297.083882,387.529504 C297.03174,389.65764 296.617672,391.337133 295.910492,392.67311 C295.127573,394.152171 293.985256,395.22823 292.519767,396.010684 C289.242742,397.760355 284.220701,397.964324 278.050742,398.148954 C277.749822,398.157959 263.803959,398.549248 259.832865,396.911033 C258.125322,396.206611 256.780849,395.183887 255.887849,393.756897 C255.075572,392.458899 254.628981,390.813535 254.680358,388.716636 C254.778953,384.692602 259.086053,381.74359 259.832865,381.106796 C263.419618,378.048439 268.650215,376.072485 273.936373,375.626619 C266.942067,355.563397 261.634596,319.523333 261.634596,286.138635 C261.634596,265.917437 259.919694,250.891397 261.634596,234.862574 L15.4750483,234.862574 C11.6725555,234.862574 8.30494437,233.413429 5.68270062,230.877362 C3.08106209,228.361224 1.21204848,224.761834 0.420581593,220.434113 C-0.92428052,213.080441 0.842409168,203.584564 7.44033791,193.887252 C16.458194,180.633249 34.5567865,166.946787 66.1398663,158.036403 C97.638138,149.149946 121.721947,146.77216 137.047771,145.259998 C142.688197,144.703471 145.833793,143.7162 149.004039,143.109432 C149.004039,138.697695 151.25757,124.46098 155.813395,107.124474 C160.634951,88.7767655 187.34657,44.9424914 211.997407,28.135994 C239.651228,9.28211674 274.771058,0 311.099012,0 C346.327085,0 376.779255,9.8386136 401.552237,28.3178073 C426.29443,46.7740339 448.015491,72.5638044 460.505252,107.124474 C461.781436,112.461641 468.379627,136.482081 468.379627,141.376521 C473.306907,143.068889 488.570967,144.378059 507.126683,146.049076 C535.594863,148.61275 571.776797,151.883606 591.144975,158.045904 C614.923508,165.611427 629.72506,178.376148 638.240452,191.27418 C644.521864,200.788465 647.387148,210.388043 647.910456,218.07567 C648.23673,222.868785 647.649131,226.931094 646.431919,229.810325 C645.761576,231.395975 644.895748,232.635966 643.895178,233.483543 C642.828234,234.387347 641.604522,234.862574 640.267464,234.862574 Z" id="Combined-Shape" stroke="#000000" stroke-width="2" fill="#99CAF4" fill-rule="nonzero" transform="translate(324.000052, 201.207208) scale(-1, 1) translate(-324.000052, -201.207208) "></path>
                <g id="Group" transform="translate(411.000000, 45.000000)">
                    <ellipse id="Oval" fill="#000000" fill-rule="nonzero" cx="13" cy="39.5" rx="9" ry="10.5"></ellipse>
                    <ellipse id="Oval" fill="#FFFFFF" fill-rule="nonzero" cx="17.5" cy="36" rx="3.5" ry="4"></ellipse>
                    <path d="M0,6.92418062 C10.923878,-3.51014825 20.5905447,-2.1515418 29,11" id="Path-4" stroke="#000000" stroke-width="3" stroke-linecap="round"></path>
                </g>
                <path d="" id="Path-3" stroke="#979797"></path>
                <path d="M450.931678,128 C457.534982,127.246754 462.539519,127.074347 469.931678,127" id="Path-5" stroke="#000000" stroke-width="3" stroke-linecap="round"></path>
                <path d="M333,161.916089 C357.439044,177.76736 373.971674,186.947829 382.597888,189.457496 C391.945559,192.177061 405.586112,196.152943 408.979551,190.553145 C412.372991,184.953348 408.228636,175.483275 394.59761,161.916089 C358.754356,126.240706 344.153234,111.817167 350.794244,118.645472" id="Path-7" stroke="#000000" stroke-width="3" stroke-linecap="round" transform="translate(371.552006, 155.192432) rotate(-15.000000) translate(-371.552006, -155.192432) "></path>
                <path d="M506.499734,50.9089577 L506.499734,50.1931818 C506.511275,48.806907 506.691717,47.6371959 507.04106,46.6840487 C507.390403,45.7309015 507.924461,44.8928334 508.643233,44.1698442 C509.362005,43.446855 510.278254,42.750111 511.391979,42.079612 C512.727206,41.2870428 513.885598,40.3957076 514.867154,39.4056064 C515.84871,38.4155051 516.611483,37.2776989 517.155473,35.9921875 C517.699463,34.7066761 517.971458,33.2358398 517.971458,31.5796786 C517.971458,29.0909979 517.355003,26.9652544 516.122093,25.2024481 C514.889182,23.4396418 513.18608,22.0930398 511.012784,21.162642 C508.839489,20.2322443 506.340931,19.7670455 503.517112,19.7670455 C500.943204,19.7670455 498.589466,20.2236994 496.455899,21.1370073 C494.322332,22.0503152 492.609242,23.436701 491.316628,25.2961648 C490.024015,27.1556286 489.346524,29.505704 489.284157,32.3463912 L489.284157,32.3463912 L497.977006,32.3463912 C498.022505,31.1816184 498.307318,30.2043346 498.831443,29.4145397 C499.355569,28.6247448 500.027455,28.0267667 500.847101,27.6206055 C501.666748,27.2144442 502.539662,27.0113636 503.465843,27.0113636 C504.426203,27.0113636 505.299838,27.2116144 506.086748,27.612116 C506.873657,28.0126176 507.500044,28.5793568 507.965909,29.3123335 C508.431774,30.0453103 508.664706,30.9032981 508.664706,31.8862971 C508.664706,32.8124778 508.460904,33.6477162 508.0533,34.3920122 C507.645696,35.1363081 507.093162,35.8152965 506.395696,36.4289773 C505.698231,37.042658 504.909157,37.630704 504.028476,38.1931152 C502.840843,38.9375222 501.830877,39.7621072 500.99858,40.6668701 C500.166282,41.5716331 499.53135,42.7627064 499.093783,44.2400901 C498.656217,45.7174738 498.431774,47.7018377 498.420455,50.1931818 L498.420455,50.1931818 L498.420455,50.9089577 L506.499734,50.9089577 Z M502.630549,64.5453214 C503.54541,64.5453214 504.386364,64.3159402 505.153409,63.8571777 C505.920455,63.3984153 506.541903,62.7819602 507.017756,62.0078125 C507.493608,61.2336648 507.735751,60.3750666 507.744185,59.4320179 C507.735751,58.0399725 507.220892,56.8481778 506.199607,55.856634 C505.178323,54.8650901 503.988636,54.3693182 502.630549,54.3693182 C501.221413,54.3693182 500.014748,54.8650901 499.010554,55.856634 C498.006359,56.8481778 497.508478,58.0399725 497.516912,59.4320179 C497.508478,60.8495872 498.006359,62.0561967 499.010554,63.0518466 C500.014748,64.0474964 501.221413,64.5453214 502.630549,64.5453214 Z" id="?" stroke="#000000" stroke-width="2" fill="#FFFFFF" fill-rule="nonzero" stroke-linejoin="round"></path>
                <rect id="Rectangle" stroke="#000000" stroke-width="3" fill="#FDFFAD" x="191.5" y="193.5" width="61" height="68" rx="5"></rect>
            </g>
        </g>
    </g>
</svg>