<?xml version="1.0" encoding="UTF-8"?>
<svg width="1922px" height="1018px" viewBox="0 0 1922 1018" version="1.1" xmlns="http://www.w3.org/2000/svg" xmlns:xlink="http://www.w3.org/1999/xlink">
    <!-- Generator: Sketch 62 (91390) - https://sketch.com -->
    <title>2scene9</title>
    <desc>Created with Sketch.</desc>
    <g id="Page-1" stroke="none" stroke-width="1" fill="none" fill-rule="evenodd">
        <g id="2scene9">
            <rect id="Rectangle" fill="#FFFFFF" x="0" y="0" width="1922" height="1018"></rect>
            <g id="Group-3" transform="translate(619.000000, 237.000000)">
                <ellipse id="Oval" fill="#D8D8D8" cx="477" cy="497.5" rx="208" ry="47.5"></ellipse>
                <ellipse id="Oval" fill="#D8D8D8" cx="477" cy="497.5" rx="208" ry="47.5"></ellipse>
                <ellipse id="Oval" fill="#D8D8D8" cx="124" cy="497.5" rx="124" ry="47.5"></ellipse>
                <g id="charsquiggy" transform="translate(267.000000, 230.000000)">
                    <path d="M404.119433,148.242466 L263.745032,148.241672 C263.763495,153.608764 263.758572,159.254725 263.753471,165.101912 C263.751042,167.886812 263.748573,170.717369 263.748573,173.585116 L263.748722,174.836342 C263.749291,177.276886 263.751396,179.689339 263.753471,182.068471 C263.781607,214.322786 263.745603,240.456489 259.907193,247.617088 C259.094477,249.824921 257.920921,251.745888 255.981478,253.051151 C254.353834,254.146569 252.177514,254.816182 249.180708,254.816183 C247.39536,254.816184 245.829232,254.873713 244.451965,254.924213 C241.226651,255.042474 239.000188,255.090733 237.399866,254.385855 C235.969474,253.755823 234.973287,252.568008 234.262357,250.26749 C233.356549,247.336366 233.834735,244.485586 235.384458,241.987938 C236.956474,239.454361 239.647057,237.281981 243.122748,235.792033 C243.620045,235.578853 244.230807,235.290357 244.90181,234.973629 C246.111901,234.402441 247.513121,233.742152 248.807217,233.250443 C245.966907,219.369821 244.139856,197.803592 244.139856,173.585191 C244.139856,164.696883 244.385756,156.166005 244.837463,148.241667 L160.053729,148.241546 C160.403344,158.355285 160.465174,170.2778 160.465174,183.043613 C160.465174,197.353707 161.437122,210.864006 162.238225,222.004526 C162.76912,229.387404 163.224845,235.732918 163.276373,240.586713 C163.523578,241.928379 163.44333,243.477523 163.351059,245.106329 C163.31509,245.74126 163.278306,246.38871 163.262341,247.040325 C163.22943,248.383579 162.968082,249.443655 162.521729,250.286908 C162.027572,251.220474 161.306572,251.89967 160.381595,252.393545 C158.313226,253.497917 155.14345,253.62666 151.24914,253.743196 C151.059207,253.74888 150.867525,253.754615 150.674143,253.760532 C150.482071,253.766408 150.290307,253.772402 150.09898,253.778382 C146.079992,253.903997 142.256957,253.995857 139.750511,252.961835 C138.672756,252.517212 137.824161,251.871681 137.260524,250.970982 C136.747837,250.151701 136.46596,249.113167 136.498388,247.789629 C136.575098,244.658741 138.142737,241.769427 140.64001,239.639997 C142.903871,237.709598 145.930739,236.406775 149.267218,236.125349 C144.852602,223.461682 140.887714,204.115638 140.887714,183.043613 C140.887714,170.280233 141.512592,158.358753 142.594992,148.24155 L9.76743018,148.242466 C7.3674,148.242466 5.24185532,147.327783 3.58676629,145.727048 C1.94468271,144.138891 0.765012081,141.866999 0.265459678,139.135393 C-0.58338076,134.493843 0.531705787,128.500158 4.69613921,122.37933 C10.387965,114.013561 21.8113051,105.374828 41.7456872,99.7506999 C61.6265408,94.1416738 76.8275869,92.6408436 86.5008308,91.6863849 C90.0609145,91.3351116 92.0463293,90.7119582 94.0473025,90.3289734 C94.0473025,87.544337 95.478994,79.1089452 96.9228151,73.2178218 C99.7659032,61.6173656 118.248067,28.3671666 133.807005,17.7591051 C151.261346,5.8587618 173.428029,0 196.357247,0 C218.59225,0 237.812832,6.21001601 253.448866,17.8738635 C269.065466,29.5232145 282.77521,45.8014112 290.658408,67.6156949 C291.4639,70.9844513 295.628499,86.1458679 295.628499,89.2351803 C298.738464,90.3033829 308.372725,91.1297155 320.084588,92.1844415 C338.052931,93.8026021 360.889985,95.8671275 373.114652,99.7566968 C388.123017,104.531965 397.465354,112.588905 402.840038,120.72999 C406.804695,126.735294 408.613184,132.794433 408.943482,137.646772 C409.149418,140.672129 408.778541,143.23621 408.01027,145.053547 C407.587168,146.05439 407.04068,146.837058 406.409148,147.372038 C405.735722,147.942509 404.963348,148.242466 404.119433,148.242466 Z" id="Combined-Shape" stroke="#000000" stroke-width="2" fill="#99CAF4" fill-rule="nonzero"></path>
                    <ellipse id="Oval" fill="#000000" fill-rule="nonzero" cx="138.226852" cy="66.5903465" rx="5.68055556" ry="6.62747525"></ellipse>
                    <ellipse id="Oval" fill="#000000" fill-rule="nonzero" cx="257.518519" cy="64.0655941" rx="5.68055556" ry="6.62747525"></ellipse>
                    <ellipse id="Oval" fill="#FFFFFF" fill-rule="nonzero" cx="260.358796" cy="61.8564356" rx="2.20910494" ry="2.52475248"></ellipse>
                    <ellipse id="Oval" fill="#FFFFFF" fill-rule="nonzero" cx="140.435957" cy="64.3811881" rx="2.20910494" ry="2.52475248"></ellipse>
                    <path d="" id="Path-3" stroke="#979797"></path>
                    <path d="M182.927141,91.630132 C197.87146,84.09767 204.127398,85.8387689 216.742984,91.630132" id="Path-5" stroke="#000000" stroke-width="2" stroke-linecap="round" transform="translate(199.835063, 89.121339) scale(1, -1) translate(-199.835063, -89.121339) "></path>
                    <rect id="Rectangle" stroke="#000000" stroke-width="2" fill="#FDFFAD" x="150" y="96" width="38.3950617" height="42.8143564" rx="5"></rect>
                    <path d="M115.504563,107.880364 C130.929789,117.885389 141.364717,123.679919 146.809349,125.263956 C152.709344,126.980474 161.318889,129.489947 163.460761,125.955414 C165.602633,122.420882 162.98686,116.44351 154.383364,107.880129 C131.760176,85.3624243 122.544384,76.2585284 126.73599,80.5684413" id="Path-7" stroke="#000000" stroke-width="2" fill="#99CAF4" stroke-linecap="round" transform="translate(139.837535, 103.636316) rotate(-15.000000) translate(-139.837535, -103.636316) "></path>
                    <path d="M238,107.350342 C253.425383,117.355567 263.860404,123.150235 269.305064,124.734345 C275.20509,126.450943 283.81468,128.960532 285.956506,125.426033 C288.098331,121.891534 285.482473,115.914133 276.878848,107.350644 C254.255321,84.8326538 245.039392,75.7286414 249.231063,80.0386071" id="Path-7" stroke="#000000" stroke-width="2" stroke-linecap="round" transform="translate(262.333108, 103.106670) scale(-1, 1) translate(-262.333108, -103.106670) "></path>
                </g>
                <g id="charcece" transform="translate(19.000000, 0.000000)">
                    <g id="Group-3" transform="translate(151.500000, 248.500000) scale(-1, 1) translate(-151.500000, -248.500000) " fill-rule="nonzero">
                        <path d="M134.423985,2.84217094e-14 C149.878909,2.84217094e-14 176.799034,7.14762002 190.328237,28.9222178 C197.651084,40.7079845 203.676452,58.2701575 209.917372,76.484497 C213.959387,88.2812587 218.09445,100.351381 222.741731,111.289251 C226.698284,120.601419 231.144383,130.485771 235.706465,140.628097 C248.440354,168.937819 262.072816,199.255183 268.517268,224.761949 C276.122951,238.93314 286.216077,268.947153 291.058239,296.378887 C295.460752,321.319927 295.54835,344.267407 293.317985,357.432655 C298.912245,366.879229 302.327595,382.05975 302.124357,385.000445 C302.075691,385.704611 301.965426,386.873204 301.575026,387.725851 C301.24042,388.456644 300.715298,388.952524 299.990497,389.047707 C299.356346,389.137661 298.719527,389.196475 297.994325,388.781845 C297.534082,388.518703 297.024278,388.050485 296.507677,387.196339 C294.977987,384.667152 293.790962,382.057651 292.77582,379.823435 C291.752639,377.571524 290.924173,375.707477 290.069419,374.761377 C289.83528,374.502216 289.611708,374.309474 289.359505,374.273081 C289.155862,374.243696 288.956062,374.34339 288.739615,374.5157 C287.411049,375.573349 287.419118,381.670881 287.305808,385.928024 C287.254888,387.841142 287.209055,389.440384 287.088663,390.21475 C286.963561,391.019405 286.924909,391.778977 286.888568,392.476268 C286.815804,393.87239 286.716714,395.03249 286.161782,395.881079 C285.695157,396.594631 284.92834,397.135034 283.546553,397.378461 C282.785865,397.512471 282.140211,397.482198 281.594661,397.299993 C281.016057,397.106748 280.537826,396.746224 280.155447,396.19328 C279.505765,395.253798 279.13867,393.681077 279.04154,391.340122 C278.982419,389.915218 279.005717,388.188676 279.029752,386.437717 C279.066163,383.785157 279.107473,381.074935 278.846151,379.313638 C278.760716,378.737811 278.652233,378.273244 278.477722,377.979479 C278.052074,377.942009 277.506467,378.798795 276.739632,379.745814 C275.169494,381.684891 272.969935,384.362545 270.537606,385.51282 C269.95985,385.786048 269.386091,385.87284 268.844207,385.821863 C268.251906,385.766144 267.695738,385.543909 267.214164,385.205615 C266.188597,384.485179 265.519503,383.237763 265.5414,382.054544 C265.591425,379.351454 267.901664,376.369698 270.199238,373.507748 L270.589527,373.023753 C272.672719,370.447918 274.724587,367.966837 273.976513,365.930098 C273.90322,365.730546 273.857028,365.50659 273.812821,365.276672 C273.757229,364.987543 273.760479,364.624794 273.43953,364.445382 C273.158855,364.288483 272.707603,364.269274 272.00069,364.371774 C270.605732,364.574036 268.985132,365.15067 267.390653,365.712791 C265.62455,366.335416 263.888555,366.93874 262.49474,367.078447 C261.248191,367.203393 260.26624,366.954139 259.630766,366.249728 C258.976953,365.524988 258.623176,364.809545 258.483837,364.117275 C258.324435,363.325323 258.442456,362.554318 258.761782,361.812385 C259.537761,360.009449 261.588868,358.378262 263.261618,357.082956 C263.589921,356.828731 263.901469,356.587561 264.181479,356.360389 C268.401667,352.936548 274.610854,351.149678 281.262776,349.903125 C281.128191,348.65311 280.989298,347.340576 280.843764,345.96528 C279.574247,333.968361 277.798948,317.189855 273.964589,295.467514 C272.993575,289.966545 271.99646,284.748723 270.997841,279.820982 C267.604368,315.268153 257.749142,343.035471 242.489944,361.294563 C241.439021,374.172405 240.460518,391.548972 241.957736,412.937169 C243.969785,441.679863 250.078168,459.694666 253.560487,469.96537 C254.42287,472.508869 255.125038,474.582068 255.568621,476.229387 C258.240439,478.505914 260.5846,483.16296 260.5846,489.207646 C260.5846,490.868436 260.291699,492.173008 259.768587,493.201114 C259.18487,494.348329 258.314785,495.164896 257.205148,495.739629 C254.64542,497.065431 250.721323,497.041471 246.176146,496.969304 C245.139209,496.95284 244.069647,496.935832 242.978746,496.93583 C241.995892,496.938258 240.976218,496.952308 239.937679,496.966602 C234.550345,497.040755 228.66916,497.102663 224.705662,495.6622 C223.123639,495.087242 221.837995,494.274258 220.964657,493.162559 C220.152497,492.128738 219.685249,490.834615 219.685249,489.207646 C219.685249,487.819967 220.347694,486.48448 221.543824,485.23466 C222.777704,483.945397 224.586497,482.740192 226.728799,481.645399 C232.024776,478.938965 239.37927,476.884658 244.80218,475.714185 C237.483398,465.811791 229.286732,444.814888 227.415057,418.07746 C226.403715,403.630158 226.885983,388.125299 228.287599,374.449881 C217.255439,382.172309 204.34962,386.238726 189.791216,386.238726 C183.715668,386.238726 177.834482,385.424325 172.185779,383.851721 C170.757426,393.513546 169.252812,406.259273 169.252812,421.880367 C169.252812,444.079399 172.969478,458.253124 175.088219,466.333912 C175.988654,469.76813 176.590771,472.134918 176.546895,473.572692 C176.906709,475.096164 177.112989,476.769035 177.112989,478.563157 C177.112989,480.223946 176.820086,481.528519 176.296974,482.556624 C175.713257,483.70384 174.843173,484.520406 173.733536,485.095139 C171.173809,486.420941 167.249711,486.396981 162.704534,486.324814 C161.667596,486.30835 160.598034,486.291343 159.50557,486.291343 C158.470305,486.291343 157.385237,486.30661 156.27431,486.322218 C150.994861,486.396391 145.147061,486.459298 141.200235,485.010695 C139.630681,484.434622 138.352818,483.620988 137.484452,482.509102 C136.678247,481.476808 136.213637,480.18546 136.213637,478.563157 C136.213637,477.079029 136.973133,475.653317 138.33219,474.327869 C139.748443,472.946639 141.821177,471.666154 144.239634,470.517035 C150.694206,467.450175 159.630108,465.293703 164.691629,464.411146 C160.793983,455.392128 157.525538,441.512906 157.525538,425.052903 C157.525538,409.673019 159.805983,392.903649 162.81334,380.451407 C147.845067,373.717975 123.77697,360.099072 113.510671,325.790061 C110.611643,316.101777 107.788831,300.010761 105.499917,284.264429 C84.9629888,287.845318 61.2324566,285.06505 38.4385355,270.183029 C20.8594932,258.705773 11.9074066,233.351974 11.5822758,194.121631 L11.5822758,194.121631 L11.8165654,194.123156 C11.5549247,191.673287 11.8537593,187.525123 11.0633685,185.822902 C8.49160179,180.284229 5.42629427,172.966952 4.05627245,167.181706 C3.4237843,164.510874 -2.57157664,150.156883 2.01647565,150.156883 C8.30347365,150.156883 8.70655564,166.626633 14.364226,167.181706 C19.0081079,167.637317 16.8303129,141.458704 23.3287517,141.458704 C28.0560777,141.458704 22.5790389,162.957886 25.9152839,165.478631 C30.1246155,168.659049 36.1857236,150.591227 41.770699,154.325962 C47.3556744,158.060696 28.0161264,174.015772 33.1416898,177.598819 C36.5598109,179.988271 48.6523279,170.484927 51.5516307,175.698671 C54.5862149,181.155688 32.0164007,188.930068 24.8146043,191.673027 C23.7452649,192.080308 23.4601373,193.528716 23.4384158,195.129996 C26.7667193,221.795099 33.1025219,241.041594 42.4457896,252.870298 C51.8110944,264.726901 71.7958203,267.337085 102.399967,260.70085 C101.533952,253.391221 100.894603,247.218892 100.553975,243.25041 C97.9498599,212.911225 93.1279774,141.352053 81.7842595,94.7449717 C81.6306117,94.6549433 81.4673567,94.5955136 81.2702961,94.5415396 C80.7013995,94.3857209 79.8964776,94.3112031 78.941968,94.2850579 C76.1802267,94.2094103 72.2253212,94.5607243 68.908273,94.8537743 C66.639791,95.0541872 64.6643799,95.2272663 63.5474379,95.2272663 C62.8180168,95.2272663 62.0101218,95.2710301 61.1634059,95.3165255 C58.349919,95.4676975 55.1420901,95.6054991 52.8263648,94.4444351 C51.0944653,93.5760908 49.80608,92.0227082 49.4963203,89.2379995 C49.3934991,88.3136471 49.6888445,87.3754412 50.3471548,86.4367559 C50.9890137,85.5215282 51.9853933,84.5973533 53.2448719,83.6771878 C56.4082041,81.3660809 61.2671955,79.0446444 66.0470913,76.7665385 C70.4657188,74.6606138 74.81561,72.5923675 77.6388372,70.5908374 C78.6673528,69.8616695 79.4881909,69.1472797 80.0125611,68.4393206 C80.4103825,67.902217 80.6375755,67.3768754 80.5794625,66.8505436 C80.5168498,66.283459 80.1260391,65.8456108 79.5523261,65.4741428 C78.761178,64.9618899 77.6273249,64.5844604 76.2714342,64.2893055 C72.4169462,63.4502476 66.8272092,63.3167099 61.8032414,63.1919995 C55.5750274,63.0373959 50.411725,62.6916904 49.5988181,61.4749878 C48.5495304,59.904487 48.0380873,58.3478273 48.0380873,56.9417424 C48.0380873,55.4686647 48.5881169,54.1474714 49.6917435,53.111575 C51.6661572,51.2583322 61.1256039,45.8713419 73.2521302,44.2267059 C80.1468316,43.2916258 89.5252667,43.9234289 97.2101617,44.445652 C103.897913,44.9001148 109.531725,45.5386479 110.28333,44.4857817 C110.355823,44.3842312 110.348063,44.2585044 110.318178,44.1237639 C110.25499,43.8388697 110.079222,43.5192134 109.826144,43.1619751 C109.17314,42.2402102 108.021641,41.1339585 106.544135,39.9042094 C102.418403,36.470305 95.7880173,32.1374149 89.9685522,28.3323915 C83.5865453,24.1595533 78.2672799,20.5512659 77.8469575,19.3749315 C77.1623558,17.4589722 76.9685205,15.7559582 78.0213364,14.4340741 C78.8310652,13.4174028 80.4427974,12.5818631 83.4379441,12.1522781 C92.7536705,10.8161511 113.158144,14.7256049 121.715798,16.8448163 C123.230517,17.2199201 126.583623,18.7291609 130.533269,20.5160435 C135.598481,22.8076254 141.664323,25.554843 146.029755,26.8524148 C147.557913,27.3066411 148.868093,27.5843319 149.835977,27.5800859 C150.199567,27.5784908 150.506929,27.5399417 150.742623,27.436033 C150.870907,27.3794776 150.973762,27.3027313 151.025536,27.1826369 C151.155307,26.8816185 150.901532,26.4256863 150.581347,25.8848756 C150.099184,25.0704721 149.298851,24.0801641 148.247282,22.9689219 C146.085594,20.6845665 142.876778,17.9135512 139.120039,15.1426756 C137.214027,13.7368495 134.974614,12.5135454 132.870922,11.3622096 C130.570507,10.1032093 128.430087,8.92437482 127.015558,7.70475475 C125.800106,6.65678043 125.119483,5.56314587 125.119483,4.40814794 C125.119483,3.55513597 125.341934,2.86522103 125.722801,2.30280096 C126.132338,1.698045 126.732415,1.23702762 127.477309,0.898389218 C129.173344,0.127350247 131.670464,0.0084248655 134.056725,2.84217094e-14 L134.423985,2.84217094e-14 Z" id="Combined-Shape" stroke="#000000" stroke-width="2" fill="#F3A7A7"></path>
                        <g id="Group-2" transform="translate(108.085696, 118.724269)">
                            <path d="M0.235569053,57.8503512 C0.0321673724,53.8402361 1.32390711,48.0041682 4.0057311,40.779495 C4.14457573,40.4054559 4.28070123,40.0384387 4.41426444,39.67833 C7.06049642,32.5436446 8.67718513,28.1442807 10.5372436,25.5912888 C12.0738186,23.4822888 13.7843092,22.7344346 16.4667825,22.7344346 C17.8822217,22.7344346 19.1021485,23.254382 20.1003518,24.2200977 C21.1769998,25.261705 21.9960156,26.8034534 22.5505663,28.7497483 C23.6814332,32.7187276 23.6997934,38.3313366 22.3957196,44.9667402 C21.2441356,50.8262431 18.8302004,55.1275257 15.9481147,58.1000252 C12.3520992,61.8088511 8.03429387,63.4445198 4.60588407,63.4445198 C3.26714052,63.4445198 2.23311581,62.9991642 1.5174545,62.1129242 C0.73639395,61.1456971 0.329393303,59.7001199 0.235569053,57.8503512 Z" id="Oval" stroke="#000000" stroke-width="2" fill="#AD6161" transform="translate(11.800873, 43.089477) scale(-1, -1) translate(-11.800873, -43.089477) "></path>
                            <path d="M66.5450305,40.7336714 C65.20746,40.7343819 64.1745676,40.2892689 63.4599997,39.4027727 C62.680072,38.4351909 62.2741796,36.9886833 62.181414,35.1374965 C61.9803055,31.1242779 63.274127,25.2828516 65.9576857,18.0509645 C66.0966191,17.6765546 66.2328317,17.3091737 66.3664803,16.9487079 C69.0144254,9.80690449 70.6321882,5.40316518 72.4921401,2.84714186 C74.0286277,0.735637459 75.7381542,-0.0137748654 78.4185349,-0.0152011375 C79.8327655,-0.0159524317 81.0513743,0.503726558 82.048212,1.46962015 C83.1234399,2.51147107 83.9409647,4.05399286 84.4940334,6.00151445 C85.6218981,9.97306801 85.6372586,15.5901534 84.3306821,22.2315597 C83.1768797,28.096405 80.7625362,32.4024392 77.881119,35.3788688 C74.2859774,39.0925573 69.9707321,40.7318487 66.5450305,40.7336714 Z" id="Oval" stroke="#000000" stroke-width="2" fill="#AD6161" transform="translate(73.743604, 20.359235) scale(-1, 1) rotate(-120.000000) translate(-73.743604, -20.359235) "></path>
                            <ellipse id="Oval" fill="#000000" cx="34.3574496" cy="95.1174129" rx="7.10007778" ry="9.75101414"></ellipse>
                            <ellipse id="Oval" fill="#000000" cx="80.5079552" cy="63.2050025" rx="7.10007778" ry="9.75101414"></ellipse>
                            <ellipse id="Oval" fill="#FFFFFF" cx="37.0199788" cy="89.7986774" rx="2.66252917" ry="2.6593675"></ellipse>
                            <ellipse id="Oval" fill="#FFFFFF" cx="83.1704845" cy="57.8862676" rx="2.66252917" ry="2.6593675"></ellipse>
                        </g>
                    </g>
                    <path d="M113.71854,318.064545 C103.004202,318.066952 92.9412292,315.138834 85.8777338,310.258828 C82.4567341,307.895338 79.7415985,305.07472 78.0118708,301.905383 C76.3947633,298.942397 75.6422856,295.675232 75.9836562,292.19939 C76.179046,290.209927 76.568218,288.709911 77.1608851,287.60748 C77.7448794,286.521181 78.5273978,285.838951 79.5096183,285.464631 C82.0936867,284.479856 85.9271147,285.488387 90.8767793,286.724142 C96.262368,288.068733 102.940166,289.732408 110.770367,289.730649 C118.134911,289.728994 125.373823,288.316172 131.686409,287.081617 C138.24461,285.799027 143.788402,284.685864 147.378309,285.662504 C148.706915,286.023953 149.753997,286.682374 150.449284,287.767914 C151.120206,288.815414 151.463563,290.243039 151.463138,292.133224 C151.461531,299.278388 147.243444,305.730287 140.474854,310.408138 C133.626694,315.140981 124.165218,318.062198 113.71854,318.064545 Z" id="Oval" stroke="#000000" fill="#000000" transform="translate(113.682948, 301.572140) rotate(15.000000) translate(-113.682948, -301.572140) "></path>
                    <path d="M113.736383,302.681164 C104.941356,300.490287 97.2783385,296.851723 91.6551761,292.56375 C86.1075379,288.333369 82.536963,283.47715 81.9131042,278.759398 C83.2141253,277.387918 84.7083914,277.026449 86.4613759,277.315527 C88.9675177,277.728805 91.9630108,279.39659 95.6296049,281.417696 C100.468458,284.084976 106.444312,287.375143 113.934414,289.380307 C121.048446,291.284793 128.406363,291.793679 134.82338,292.235008 C140.015968,292.592127 144.585381,292.900307 147.884119,293.897099 C150.124129,294.573971 151.77546,295.559698 152.541703,297.176424 C149.546884,300.781653 144.121565,303.191805 137.362148,304.203217 C130.504076,305.22939 122.270532,304.807053 113.736383,302.681164 Z" id="Combined-Shape" stroke="#000000" fill="#FFFFFF"></path>
                </g>
            </g>
        </g>
    </g>
</svg>