<?xml version="1.0" encoding="UTF-8"?>
<svg width="1922px" height="1018px" viewBox="0 0 1922 1018" version="1.1" xmlns="http://www.w3.org/2000/svg" xmlns:xlink="http://www.w3.org/1999/xlink">
    <!-- Generator: Sketch 62 (91390) - https://sketch.com -->
    <title>2scene5</title>
    <desc>Created with Sketch.</desc>
    <g id="Page-1" stroke="none" stroke-width="1" fill="none" fill-rule="evenodd">
        <g id="2scene5">
            <rect id="Rectangle" fill="#FFFFFF" x="0" y="0" width="1922" height="1018"></rect>
            <g id="Group-3" transform="translate(565.000000, 194.000000)">
                <ellipse id="Oval" fill="#D8D8D8" cx="551.5" cy="575" rx="240.5" ry="55"></ellipse>
                <ellipse id="Oval" fill="#D8D8D8" cx="551.5" cy="575" rx="240.5" ry="55"></ellipse>
                <ellipse id="Oval" fill="#D8D8D8" cx="143.5" cy="575" rx="143.5" ry="55"></ellipse>
                <g id="charsquiggy" transform="translate(309.000000, 266.000000)">
                    <rect id="Rectangle" stroke="#000000" stroke-width="3" fill="#FDFFAD" x="70.8441358" y="138.777228" width="43.7160494" height="48.8440594" rx="5"></rect>
                    <path d="M467.355726,171.496186 L305.015649,171.495267 C305.037,177.704256 305.031306,184.235858 305.025408,191.000251 C305.022598,194.221998 305.019743,197.496564 305.019743,200.814154 L305.019916,202.261651 C305.020574,205.085024 305.023008,207.875902 305.025408,210.628231 C305.057947,247.942047 305.016308,278.175154 300.577268,286.458984 C299.637378,289.013144 298.280185,291.235439 296.037259,292.745449 C294.154923,294.012697 291.638055,294.787347 288.17231,294.787349 C286.107593,294.78735 284.296397,294.853903 282.703617,294.912324 C278.973609,295.049136 276.39875,295.104966 274.548011,294.289518 C272.893792,293.560658 271.741723,292.186519 270.919547,289.525136 C269.871999,286.134227 270.425012,282.836266 272.217234,279.946831 C274.035238,277.015829 277.146841,274.502684 281.166405,272.779018 C281.741519,272.532398 282.447853,272.198648 283.223854,271.832238 C284.623299,271.171451 286.24378,270.407587 287.740375,269.838748 C284.455616,253.780774 282.34267,228.831606 282.34267,200.814241 C282.34267,190.531688 282.627048,180.662633 283.149437,171.495262 L185.098811,171.495122 C185.503133,183.19533 185.574639,196.988043 185.574639,211.756337 C185.574639,228.311151 186.698676,243.940713 187.625136,256.828765 C188.239105,265.369742 188.766141,272.710631 188.825732,278.325805 C189.11162,279.877928 189.018815,281.670076 188.912105,283.55438 C188.870508,284.288909 188.827968,285.037919 188.809504,285.791749 C188.771444,287.345709 188.4692,288.572072 187.953002,289.5476 C187.381519,290.627607 186.547698,291.413343 185.477982,291.98469 C183.085956,293.262296 179.420176,293.411234 174.916487,293.54605 C174.696834,293.552626 174.475157,293.559261 174.251515,293.566106 C174.029388,293.572904 173.807616,293.579838 173.586351,293.586756 C168.938475,293.732075 164.517215,293.838344 161.618561,292.642123 C160.37216,292.127755 159.390778,291.380964 158.738943,290.338979 C158.146031,289.391183 157.820047,288.189742 157.857549,286.65859 C157.946262,283.036583 159.759205,279.694043 162.647249,277.230584 C165.265357,274.997378 168.765866,273.49019 172.624435,273.16462 C167.519024,258.514495 162.933714,236.133777 162.933714,211.756337 C162.933714,196.990858 163.656372,183.199342 164.908145,171.495127 L11.29583,171.496186 C8.52024499,171.496186 6.06209674,170.438024 4.14802067,168.586193 C2.24898514,166.748914 0.884720573,164.120646 0.306998601,160.960553 C-0.674667725,155.590916 0.614906692,148.657045 5.43098739,141.576087 C12.0134657,131.898041 25.224321,121.904213 48.2780197,115.397869 C71.2698137,108.908995 88.8495076,107.172741 100.036413,106.068563 C104.153576,105.662188 106.449667,104.941285 108.763751,104.498224 C108.763751,101.276782 110.419472,91.5181915 112.089221,84.7029703 C115.377194,71.2828347 136.751431,32.8169182 154.745021,20.5448471 C174.930603,6.77778326 200.565911,0 227.083075,0 C252.797394,0 275.025598,7.18413617 293.108346,20.6776068 C311.168619,34.1543069 327.023653,52.9859463 336.140408,78.2220784 C337.071943,82.1192672 341.888215,99.6589452 341.888215,103.232856 C345.484826,104.468619 356.626647,105.424573 370.171174,106.644746 C390.951189,108.516736 417.361767,110.905108 431.499341,115.404806 C448.856203,120.929136 459.660422,130.24991 465.876132,139.668027 C470.461175,146.61534 472.552656,153.624932 472.934638,159.238422 C473.172798,162.738345 472.743887,165.704635 471.855398,167.807044 C471.366089,168.964883 470.734088,169.870322 470.003733,170.489221 C469.22493,171.149177 468.331696,171.496186 467.355726,171.496186 Z" id="Combined-Shape" stroke="#000000" stroke-width="2" fill="#99CAF4" fill-rule="nonzero"></path>
                    <ellipse id="Oval" fill="#000000" fill-rule="nonzero" cx="159.856481" cy="77.0358911" rx="6.56944444" ry="7.66707921"></ellipse>
                    <ellipse id="Oval" fill="#000000" fill-rule="nonzero" cx="297.814815" cy="74.115099" rx="6.56944444" ry="7.66707921"></ellipse>
                    <ellipse id="Oval" fill="#FFFFFF" fill-rule="nonzero" cx="301.099537" cy="71.5594059" rx="2.55478395" ry="2.92079208"></ellipse>
                    <ellipse id="Oval" fill="#FFFFFF" fill-rule="nonzero" cx="162.411265" cy="74.480198" rx="2.55478395" ry="2.92079208"></ellipse>
                    <path d="M147.16894,59.2268353 C160.655047,59.6660306 168.676361,56.9882831 171.232882,51.1935929" id="Path-2" stroke="#000000" stroke-width="3" stroke-linecap="round"></path>
                    <path d="" id="Path-3" stroke="#979797"></path>
                    <path d="M286.865741,55.5849691 C295.362471,47.7469103 302.881326,48.7674683 309.422306,58.646643" id="Path-4" stroke="#000000" stroke-width="3" stroke-linecap="round"></path>
                    <path d="M200.8771,106.522959 C216.334518,98.9195171 228.049444,97.1791987 245.353464,96.428727" id="Path-5" stroke="#000000" stroke-width="3" stroke-linecap="round"></path>
                    <path d="M249.248905,88.3539604 C244.290607,94.2624765 244.290607,96.4877978 247.401552,104.621635" id="Path-6" stroke="#000000" stroke-width="3" stroke-linecap="round"></path>
                    <path d="M133.577572,124.805303 C151.415962,136.378007 163.483452,143.080334 169.780043,144.912284 C176.603252,146.89745 186.559992,149.799677 189.037417,145.710593 C191.514841,141.621509 188.49026,134.706914 178.541097,124.801303 C152.379427,98.754157 141.722192,88.2233165 146.569391,93.2087816" id="Path-7" stroke="#000000" stroke-width="3" stroke-linecap="round" transform="translate(161.718035, 119.893059) rotate(-15.000000) translate(-161.718035, -119.893059) "></path>
                    <path d="M275.913105,127.72048 C293.754164,139.296605 305.823232,146.001266 312.120308,147.834464 C318.944042,149.820983 328.901549,152.725182 331.378186,148.636674 C333.854824,144.548167 330.828784,137.63308 320.877429,127.725622 C294.709999,101.673619 284.050434,91.140799 288.898732,96.1271611" id="Path-7" stroke="#000000" stroke-width="3" stroke-linecap="round" transform="translate(304.055879, 122.814630) scale(-1, 1) rotate(20.000000) translate(-304.055879, -122.814630) "></path>
                </g>
                <g id="charcece" transform="translate(22.000000, 0.000000)">
                    <g id="Group-3" transform="translate(175.000000, 287.500000) scale(-1, 1) translate(-175.000000, -287.500000) " fill-rule="nonzero">
                        <path d="M155.275231,4.0440445e-13 C173.127452,4.0440445e-13 204.223307,8.2693793 219.851099,33.4613184 C228.309833,47.0967627 235.269829,67.4151721 242.478812,88.4881002 C247.147806,102.136265 251.924282,116.100692 257.292429,128.75517 C261.862704,139.528805 266.998462,150.964423 272.268193,162.698503 C286.977307,195.4512 302.724375,230.52662 310.168462,260.036461 C318.953904,276.431701 330.61263,311.156163 336.205887,342.893079 C341.291298,371.748406 341.392483,398.297302 338.816154,413.528726 C345.278171,424.45786 349.223294,442.020838 348.988531,445.42305 C348.932316,446.237729 348.804948,447.589723 348.353991,448.576186 C347.967482,449.42167 347.360905,449.995375 346.523676,450.105496 C345.791158,450.209568 345.055559,450.277612 344.217868,449.797909 C343.686233,449.493469 343.097351,448.951769 342.500618,447.963571 C340.733649,445.037449 339.362497,442.018409 338.189891,439.433551 C337.007999,436.828222 336.051025,434.671628 335.063685,433.577045 C334.793228,433.277212 334.534977,433.05422 334.243652,433.012116 C334.008422,432.978119 333.777629,433.093459 333.527608,433.292812 C331.992961,434.51645 332.002281,441.570939 331.871395,446.496205 C331.812577,448.70957 331.759634,450.559801 331.620567,451.455697 C331.47606,452.386635 331.431413,453.265417 331.389434,454.072142 C331.305384,455.687373 331.190924,457.029541 330.549913,458.011309 C330.010907,458.836847 329.125145,459.462062 327.529021,459.743692 C326.650339,459.898734 325.904534,459.86371 325.274361,459.652909 C324.606007,459.429336 324.053594,459.012231 323.611903,458.372507 C322.861445,457.285581 322.437407,455.466034 322.325212,452.757686 C322.256919,451.109156 322.283831,449.111647 322.311595,447.085889 C322.353654,444.017033 322.401372,440.881464 322.099514,438.843747 C322.000827,438.177547 321.875517,437.640071 321.673937,437.300202 C321.182264,437.256852 320.552024,438.248103 319.666241,439.343749 C317.852551,441.587148 315.311806,444.685037 312.502185,446.015839 C311.83481,446.331947 311.172053,446.432361 310.546114,446.373383 C309.861937,446.308919 309.219499,446.051806 308.663226,445.66042 C307.478577,444.826917 306.705697,443.38373 306.730991,442.014815 C306.788775,438.887497 309.457368,435.43778 312.111331,432.12667 C314.659586,428.947442 317.392638,425.863434 316.47452,423.359771 C316.389858,423.128902 316.336501,422.869797 316.285437,422.603796 C316.221222,422.26929 316.224976,421.849611 315.854243,421.642042 C315.53003,421.460518 315.008783,421.438295 314.192216,421.556881 C312.580878,421.790887 310.708898,422.458018 308.86709,423.108359 C306.827038,423.8287 304.821763,424.526711 303.211746,424.688344 C301.771838,424.8329 300.637571,424.544527 299.903525,423.729565 C299.148295,422.891083 298.739643,422.063357 298.57869,421.262441 C298.394562,420.346198 298.53089,419.454191 298.899748,418.595817 C299.796093,416.509926 302.165359,414.622737 304.097578,413.124144 C304.476807,412.830021 304.83668,412.551001 305.160125,412.288176 C310.034928,408.326992 317.207257,406.259688 324.890995,404.817498 C324.735534,403.371304 324.575096,401.852779 324.406988,400.261642 C322.94055,386.381907 320.889874,366.970155 316.460746,341.838673 C315.339113,335.474372 314.18733,329.437657 313.033809,323.736549 C309.113956,364.746857 297.730032,396.872023 280.103896,417.996728 C278.889958,432.895639 277.759674,452.999314 279.489134,477.744209 C281.813284,510.997829 288.869171,531.839905 292.891652,543.72251 C293.887804,546.665191 294.698889,549.063761 295.211279,550.969612 C298.297537,553.603422 301.005314,558.991353 301.005314,565.984701 C301.005314,567.906138 300.666979,569.415452 300.062724,570.60491 C299.388464,571.932172 298.383415,572.876892 297.101656,573.541824 C294.144875,575.0757 289.612089,575.047979 284.361885,574.964487 C283.164103,574.945439 281.928635,574.925761 280.668518,574.925759 C279.533209,574.928568 278.355367,574.944823 277.155735,574.961361 C270.932742,575.047151 264.139294,575.118775 259.560995,573.452243 C257.733576,572.78705 256.248509,571.846476 255.239703,570.560305 C254.301565,569.364234 253.761839,567.86701 253.761839,565.984701 C253.761839,564.379237 254.527039,562.834157 255.908708,561.388188 C257.333981,559.896586 259.423346,558.502234 261.897953,557.235623 C268.015417,554.104436 276.510707,551.727723 282.774795,550.373554 C274.320757,538.917062 264.852661,514.624871 262.690659,483.691226 C261.522443,466.976541 262.079518,449.038323 263.698547,433.216664 C250.955128,442.151062 236.047415,446.855669 219.230778,446.855669 C212.212818,446.855669 205.419369,445.913455 198.894464,444.094043 C197.244552,455.272211 195.506549,470.018274 195.506549,488.090967 C195.506549,513.773953 199.799727,530.172125 202.247118,539.521126 C203.287224,543.494315 203.982739,546.232551 203.932056,547.895972 C204.347684,549.658539 204.58596,551.593954 204.58596,553.669648 C204.58596,555.591085 204.247625,557.100399 203.64337,558.289857 C202.969109,559.617119 201.964061,560.561838 200.682302,561.226771 C197.725521,562.760646 193.192735,562.732926 187.942531,562.649433 C186.744748,562.630385 185.50928,562.610709 184.247358,562.610709 C183.051508,562.610709 181.798128,562.628372 180.51488,562.646429 C174.416506,562.732243 167.661622,562.805023 163.102582,561.129074 C161.289565,560.462591 159.813486,559.521264 158.810423,558.234876 C157.879163,557.040573 157.342485,555.546558 157.342485,553.669648 C157.342485,551.952599 158.21979,550.303133 159.789658,548.769668 C161.425595,547.171665 163.819841,545.690218 166.613439,544.360755 C174.069215,540.812576 184.391214,538.317665 190.237855,537.296598 C185.735624,526.86212 181.960192,510.80467 181.960192,491.761407 C181.960192,473.967779 184.59437,454.566596 188.068215,440.160079 C170.77813,432.36989 142.976698,416.613615 131.117937,376.92009 C127.769204,365.711243 124.508511,347.094718 121.864543,328.877025 C98.1420233,333.020232 70.7305398,329.803615 44.4009485,312.586 C24.0951241,299.307484 13.7544301,269.974618 13.3788664,224.5874 L13.3788664,224.5874 L13.6495375,224.589535 C13.3472427,221.755226 13.692501,216.955711 12.7794686,214.986254 C9.80878094,208.578333 6.26799669,200.112671 4.68546322,193.419479 C3.95486635,190.329482 -2.97046807,173.722752 2.3292623,173.722752 C9.59147121,173.722752 10.0570775,192.777292 16.5923402,193.419479 C21.9565603,193.946594 19.4409555,163.659466 26.9474029,163.659466 C32.4080105,163.659466 26.081398,188.532765 29.9351464,191.44912 C34.7974107,195.128678 41.7986906,174.225263 48.2499823,178.546133 C54.701274,182.867003 32.3618622,201.326094 38.28248,205.471471 C42.2308046,208.235927 56.1990586,197.241113 59.5480882,203.27311 C63.0533835,209.586561 36.9826411,218.581065 28.6637344,221.754508 C27.4280999,222.22587 27.0989425,223.902582 27.0740519,225.755927 C30.9189809,256.604986 38.2374786,278.871366 49.0297899,292.556179 C59.8478222,306.273607 82.9325654,309.293421 118.28402,301.615622 C117.283388,293.158326 116.544906,286.017662 116.151456,281.426531 C113.143402,246.325864 107.573571,163.536077 94.4702668,109.614404 C94.2927858,109.510246 94.1042074,109.44149 93.8765797,109.379045 C93.2194384,109.198772 92.2896606,109.112559 91.1870918,109.08231 C87.9969616,108.994791 83.4285889,109.40124 79.597015,109.740282 C76.9766562,109.972148 74.6948282,110.172391 73.4046312,110.172391 C72.5620656,110.172391 71.6288536,110.223023 70.6507989,110.275658 C67.4008965,110.450555 63.6954837,110.609984 61.0205534,109.266701 C59.0200095,108.262077 57.5317755,106.464904 57.1739674,103.243158 C57.055197,102.173737 57.3963551,101.088287 58.1567795,100.002283 C58.8982006,98.943418 60.0491341,97.8742015 61.5039775,96.8096237 C65.1579915,94.1358079 70.7706879,91.4500414 76.2920197,88.8144057 C81.3960448,86.3779737 86.4206717,83.9851334 89.6818251,81.6694799 C90.8698795,80.8258752 91.8180423,79.9993679 92.4237505,79.1803005 C92.8832801,78.558903 93.1457143,77.9511134 93.078587,77.3421782 C93.0062621,76.6860944 92.5548307,76.1795296 91.8921258,75.7497628 C90.9782584,75.1571161 89.6685271,74.7204522 88.1023167,74.3789752 C83.6499378,73.4082341 77.1931459,73.2537388 71.3898829,73.1094562 C64.1955762,72.9305889 58.2313655,72.5306277 57.2923641,71.1229739 C56.0803156,69.305996 55.4895397,67.5050316 55.4895397,65.8782734 C55.4895397,64.1740084 56.1248875,62.6454649 57.3997037,61.4469932 C59.6803796,59.3028994 70.6071332,53.070466 84.6146718,51.1677181 C92.5788484,50.085885 103.412024,50.8168443 112.288966,51.421026 C120.014091,51.9468129 126.521795,52.6855584 127.389985,51.4674537 C127.473723,51.3499656 127.464759,51.2045071 127.430239,51.0486202 C127.357249,50.7190142 127.154217,50.3491906 126.861882,49.9358867 C126.107587,48.8694584 124.777473,47.5895898 123.070783,46.1668419 C118.305086,42.1940149 110.646225,37.1811139 103.92407,32.7789238 C96.552115,27.9511935 90.407749,23.7766155 89.9222282,22.4156653 C89.1314341,20.1990121 88.907532,18.2287243 90.1236559,16.6993815 C91.0589862,15.5231521 92.9207231,14.5564815 96.3804635,14.0594767 C107.141204,12.5136557 130.710727,17.0366656 140.595807,19.4884695 C142.345482,19.9224428 146.218707,21.6685463 150.781004,23.7358653 C156.631908,26.3870918 163.638657,29.5654622 168.681235,31.066677 C170.446434,31.5921904 171.959843,31.9134624 173.077862,31.90855 C173.497849,31.9067047 173.852888,31.8621056 174.125143,31.7418893 C174.273325,31.676458 174.392134,31.587667 174.451939,31.4487248 C174.601839,31.100464 174.3087,30.5729772 173.93885,29.9472907 C173.381895,29.0050734 172.457419,27.8593448 171.242735,26.5737024 C168.745736,23.9308364 165.039182,20.7249334 160.699715,17.5191921 C158.498051,15.8927333 155.911271,14.4774419 153.481263,13.1454136 C150.824018,11.6888236 148.351586,10.3249809 146.717642,8.91395167 C145.313654,7.70150654 144.527456,6.43623516 144.527456,5.09996995 C144.527456,4.11308488 144.784413,3.31489354 145.224358,2.66420634 C145.69742,1.96453898 146.390578,1.43116877 147.251017,1.0393839 C149.210133,0.147336805 152.094595,0.0097470778 154.851002,4.0440445e-13 L155.275231,4.0440445e-13 Z" id="Combined-Shape" stroke="#000000" stroke-width="2" fill="#F3A7A7"></path>
                        <g id="Group-2" transform="translate(124.851464, 137.357052)">
                            <path d="M0.272109467,66.9294807 C0.0371570308,62.2900116 1.52926564,55.5380216 4.62708213,47.1794963 C4.78746371,46.7467548 4.94470439,46.3221374 5.09898533,45.9055125 C8.15568894,37.6510978 10.0231511,32.5612905 12.1717336,29.6076279 C13.9466551,27.167638 15.9224694,26.3024142 19.0210358,26.3024142 C20.6560316,26.3024142 22.065188,26.9039631 23.2182281,28.0212397 C24.4618809,29.2263187 25.4079388,31.0100316 26.048509,33.2617812 C27.3547908,37.8536586 27.375999,44.3471198 25.8696431,52.0238946 C24.5394306,58.8029976 21.7510565,63.7793305 18.4219147,67.218339 C14.2681014,71.5092342 9.28053748,73.4016074 5.32032813,73.4016074 C3.77392469,73.4016074 2.57950671,72.886357 1.75283523,71.861029 C0.850620074,70.7420037 0.380487314,69.0695552 0.272109467,66.9294807 Z" id="Oval" stroke="#000000" stroke-width="2" fill="#AD6161" transform="translate(13.631371, 49.852011) scale(-1, -1) translate(-13.631371, -49.852011) "></path>
                            <path d="M76.8730367,47.0921697 C75.3261568,47.0921697 74.1312802,46.576757 73.304192,45.5517818 C72.4014522,44.4330546 71.9308998,42.7611899 71.8221541,40.6219367 C71.5864016,35.9842144 73.0780679,29.2350484 76.175845,20.8802038 C76.3362233,20.447656 76.4934607,20.0232285 76.6477382,19.6067901 C79.7044,11.3560154 81.5718364,6.26845651 83.7208219,3.31625812 C85.4960774,0.877477585 87.4725267,0.0128294319 90.5723459,0.0133015077 C92.207882,0.0133015077 93.6175959,0.615041001 94.7711876,1.73198889 C96.0154965,2.93677294 96.9621715,4.71991447 97.6033272,6.97085334 C98.9108265,11.5611615 98.9330323,18.0521206 97.4272476,25.725711 C96.0975298,32.5020501 93.3087826,37.4760738 89.97882,40.9132742 C85.8240288,45.2018661 80.8348081,47.0927732 76.8730367,47.0921697 Z" id="Oval" stroke="#000000" stroke-width="2" fill="#AD6161" transform="translate(85.184521, 23.552736) scale(-1, 1) rotate(-120.000000) translate(-85.184521, -23.552736) "></path>
                            <ellipse id="Oval" fill="#000000" cx="39.686823" cy="110.045297" rx="8.20140998" ry="11.2813544"></ellipse>
                            <ellipse id="Oval" fill="#000000" cx="92.9959878" cy="73.1244998" rx="8.20140998" ry="11.2813544"></ellipse>
                            <ellipse id="Oval" fill="#FFFFFF" cx="42.7623517" cy="103.89183" rx="3.07552875" ry="3.07673302"></ellipse>
                            <ellipse id="Oval" fill="#FFFFFF" cx="96.0715168" cy="66.971034" rx="3.07552875" ry="3.07673302"></ellipse>
                        </g>
                    </g>
                    <path d="M131.368033,368.05776 C118.973162,368.055649 107.331084,364.657683 99.1576621,359.001438 C95.19361,356.258199 92.0477304,352.984485 90.0425808,349.307339 C88.1654762,345.865009 87.2914007,342.069739 87.6857714,338.032662 C87.9118635,335.718213 88.3646214,333.973829 89.0526114,332.691663 C89.7367449,331.416684 90.6543873,330.617033 91.8054866,330.178143 C94.8002967,329.036285 99.2438698,330.200475 104.98387,331.637638 C111.201057,333.194277 118.909937,335.120858 127.94837,335.122396 C136.451012,335.123843 144.807903,333.493324 152.095433,332.068918 C159.686254,330.58523 166.102207,329.302154 170.25766,330.43572 C171.813017,330.860005 173.037528,331.633796 173.851619,332.906101 C174.633732,334.128428 175.036982,335.793439 175.037358,337.999172 C175.038768,346.288436 170.159091,353.774468 162.318113,359.199261 C154.397843,364.678912 143.453734,368.059816 131.368033,368.05776 Z" id="Oval" stroke="#000000" fill="#000000" transform="translate(131.315022, 348.893364) rotate(15.000000) translate(-131.315022, -348.893364) "></path>
                    <path d="M131.360441,350.260721 C121.189158,347.723008 112.327416,343.50779 105.824731,338.540927 C99.3812803,333.619309 95.2457998,327.965896 94.5378715,322.479287 C96.0659961,320.849793 97.8221936,320.418656 99.8850749,320.759544 C102.786113,321.238937 106.25442,323.170516 110.499042,325.514065 C116.084157,328.59773 122.981604,332.402099 131.627275,334.720277 C139.839821,336.92232 148.333968,337.510282 155.741844,338.020563 C161.746802,338.434205 167.030863,338.792092 170.845595,339.946655 C173.480381,340.744096 175.410999,341.913029 176.294413,343.828112 C172.831966,348.031838 166.535498,350.845917 158.680693,352.02308 C150.750225,353.211583 141.22915,352.722941 131.360441,350.260721 Z" id="Combined-Shape" stroke="#000000" fill="#FFFFFF"></path>
                </g>
            </g>
        </g>
    </g>
</svg>