<?xml version="1.0" encoding="UTF-8"?>
<svg width="1924px" height="1020px" viewBox="0 0 1924 1020" version="1.1" xmlns="http://www.w3.org/2000/svg" xmlns:xlink="http://www.w3.org/1999/xlink">
    <!-- Generator: Sketch 62 (91390) - https://sketch.com -->
    <title>2scene6</title>
    <desc>Created with Sketch.</desc>
    <g id="Page-1" stroke="none" stroke-width="1" fill="none" fill-rule="evenodd">
        <g id="2scene6" transform="translate(1.000000, -166.000000)">
            <rect id="Rectangle" stroke="#979797" fill="#FFFFFF" x="0.5" y="167.5" width="1921" height="1017"></rect>
            <g id="charsquiggy">
                <path d="M1922,167 L1921.9996,846.152704 L1659.73409,846.152938 C1667.73031,920.957939 1659.89401,991.129846 1659.73649,1085.01825 L1659.73409,1087.87064 C1659.73409,1119.97489 1658.69383,1152.60004 1656.75808,1185.00048 L1511.81484,1185.00044 C1512.95066,1153.427 1513.64483,1120.93467 1513.64483,1087.87064 C1513.64483,992.528811 1511.65963,915.186896 1514.2685,839.652156 L1514.2685,839.652156 L1368.01888,839.652123 C1371.38957,898.835257 1373.2245,962.548354 1373.2245,1028.93093 C1373.2245,1080.02646 1371.91412,1132.97994 1369.55591,1185.00119 L1226.87136,1185.00273 C1226.81839,1155.04011 1226.83775,1124.06195 1226.86545,1092.28854 C1226.88093,1074.51992 1226.89664,1056.50245 1226.90088,1038.27519 L1226.90088,1038.27519 L1226.902,1028.93037 C1226.902,1007.51252 1226.88358,986.372425 1226.86545,965.573324 C1226.82739,921.903445 1226.79065,879.736433 1226.92842,839.652156 L1226.92842,839.652156 L-0.000404460013,845.557704 L-0.000404460013,532.594456 C29.7205854,514.356028 64.3327504,498.155088 104.431135,485.112891 L107.778288,484.035635 C199.000168,454.98628 369.412895,439.567315 503.494733,427.482038 C590.89001,419.604787 662.781969,413.4333 685.988888,405.4554 C685.988888,382.382785 717.065606,269.149328 723.076282,243.989678 C732.742243,217.21917 743.582113,191.56501 755.466128,166.997136 L1922,167 Z" id="Combined-Shape" stroke="#000000" stroke-width="2" fill="#99CAF4" fill-rule="nonzero"></path>
                <path d="M1408.36527,502.539227 C1523.45754,577.243811 1601.31774,620.506716 1641.94588,632.327944 C1685.97197,645.137843 1750.21685,663.865379 1766.20835,637.4581 C1782.19986,611.050821 1762.69179,566.405662 1698.50477,502.455741 C1529.72281,334.297216 1460.96757,266.31096 1492.23907,298.496974" id="Path-7" stroke="#000000" stroke-width="3" stroke-linecap="round" transform="translate(1589.937919, 470.780030) rotate(-15.000000) translate(-1589.937919, -470.780030) "></path>
                <rect id="Rectangle" stroke="#000000" stroke-width="3" fill="#FDFFAD" x="736.5" y="644.5" width="298" height="332" rx="5"></rect>
                <text id="Keratin-5/6-Keratin" font-family="HanziPenSC-W5, HanziPen SC" font-size="45" font-weight="bold" fill="#000000">
                    <tspan x="766" y="740">Keratin 5/6</tspan>
                    <tspan x="766" y="803">Keratin 7</tspan>
                    <tspan x="766" y="866">P60</tspan>
                    <tspan x="766" y="929">Love, mom</tspan>
                </text>
            </g>
        </g>
    </g>
</svg>