<?xml version="1.0" encoding="UTF-8"?>
<svg width="1922px" height="1163px" viewBox="0 0 1922 1163" version="1.1" xmlns="http://www.w3.org/2000/svg" xmlns:xlink="http://www.w3.org/1999/xlink">
    <!-- Generator: Sketch 62 (91390) - https://sketch.com -->
    <title>2scene1 (2)</title>
    <desc>Created with Sketch.</desc>
    <g id="Page-1" stroke="none" stroke-width="1" fill="none" fill-rule="evenodd">
        <g id="2scene1-(2)" fill-rule="nonzero">
            <g id="Layer_3" fill="#333333">
                <polygon id="Path" points="1922 1082 0.5 1082 0.5 0.5 1921 0.5"></polygon>
            </g>
            <g id="Layer_2" transform="translate(210.000000, 144.000000)">
                <path d="M1506.3,809.1 C1502.6,807.5 1495.1,804.6 1484,803.3 C1477.6,802.5 1469.8,803.9 1461.1,803.2 C1454.2,802.7 1446.7,800.4 1438.5,799.9 C1431.4,799.5 1423.7,801.3 1415.6,800.9 C1408.4,800.6 1400.8,798.8 1392.9,798.5 C1385.6,798.2 1378,798.2 1370.1,798 C1362.7,797.8 1355.2,796.8 1347.3,796.6 C1339.9,796.4 1332.3,795.6 1324.5,795.4 C1317.1,795.2 1309.5,795.5 1301.7,795.3 C1294.3,795.2 1286.6,796.8 1278.9,796.7 C1271.4,796.6 1263.9,794.5 1256.2,794.4 C1248.7,794.3 1241.1,794.8 1233.4,794.7 C1225.9,794.6 1218.3,794.7 1210.6,794.7 C1203.1,794.6 1195.5,794.8 1187.8,794.7 C1180.3,794.6 1172.7,794.3 1165,794.3 C1157.5,794.3 1149.9,793.5 1142.2,793.5 C1134.7,793.5 1127.1,794.4 1119.4,794.3 C1111.9,794.3 1104.3,795.7 1096.6,795.7 C1089.1,795.7 1081.5,794.3 1073.8,794.3 C1066.3,794.3 1058.7,793 1051,793 C1043.5,793 1035.9,793 1028.2,793 C1020.6,793 1013.1,795 1005.4,795 C997.8,795 990.2,795.4 982.6,795.4 C975,795.4 967.4,793.9 959.8,794 C952.2,794 944.6,794.5 937,794.5 C929.4,794.5 921.8,796.1 914.2,796.1 C906.6,796.1 899,795 891.4,795.1 C883.8,795.1 876.2,793.6 868.6,793.7 C861,793.8 853.4,793.7 845.8,793.8 C838.2,793.9 830.6,796.2 823,796.3 C815.4,796.4 807.8,795.5 800.2,795.6 C792.6,795.7 785,796.9 777.4,797 C769.8,797.1 762.2,796.3 754.6,796.3 C747,796.4 739.4,796.5 731.8,796.6 C724.2,796.7 716.6,797.5 709,797.6 C701.4,797.7 693.8,795.9 686.2,796 C678.6,796.1 671,795.6 663.4,795.7 C655.8,795.8 648.2,798.2 640.6,798.3 C633,798.4 625.4,797.3 617.8,797.4 C610.2,797.5 602.6,799.4 595,799.5 C587.4,799.6 579.8,798.6 572.2,798.7 C564.6,798.8 557,798.4 549.4,798.5 C541.8,798.6 534.2,798 526.6,798.1 C519,798.2 511.4,798.7 503.8,798.8 C496.2,798.9 488.6,798.4 481,798.5 C473.4,798.6 465.8,799.8 458.2,799.9 C450.6,800 442.9,799.5 435.4,799.7 C427.8,799.8 420.2,800.6 412.6,800.7 C404.9,800.9 397.4,801.7 389.8,801.9 C382.1,802.1 374.5,801.8 367,802 C359.3,802.2 351.7,802.6 344.2,802.8 C336.5,803 328.9,803.3 321.4,803.5 C313.7,803.7 306.1,802.4 298.6,802.6 C290.9,802.8 283.3,802.9 275.8,803.1 C268.1,803.3 260.6,806 253.1,806.2 C245.4,806.4 237.7,804.2 230.3,804.4 C222.6,804.6 215,805.9 207.6,806.2 C199.8,806.4 192.2,805.1 184.8,805.4 C177,805.6 169.5,807.3 162.1,807.5 C154.3,807.8 146.6,807.2 139.3,807.4 C131.4,807.7 123.9,809.5 116.6,809.8 C108.7,810.1 101.1,810.6 93.8,810.9 C85.7,811.3 78.1,810 71,810.4 C62.7,810.8 55.1,810.9 48.2,811.3 C39.4,811.8 31.9,813.6 25.6,814.1 C13,815.1 5,815.5 2.9,816.5 C5.8,815.5 5.9,816.2 8,813.9 C9.9,807.7 12,801.1 13.6,792.7 C14.9,785.9 16.1,778.5 17.2,770.5 C18.2,763.5 18.4,756 19.3,748 C20.1,740.9 23.1,733.6 23.8,725.8 C24.4,718.6 23.2,710.9 23.8,703.2 C24.3,695.9 24.7,688.4 25.1,680.7 C25.5,673.4 26.7,665.9 27.1,658.2 C27.4,650.8 29,643.4 29.3,635.7 C29.6,628.3 27.3,620.7 27.6,613.1 C27.8,605.7 30,598.2 30.2,590.6 C30.4,583.2 29.2,575.6 29.4,568 C29.5,560.5 30.5,553 30.6,545.4 C30.7,537.9 30.4,530.4 30.5,522.8 C30.6,515.3 29.6,507.8 29.6,500.2 C29.6,492.7 32.2,485.2 32.2,477.6 C32.2,470.1 30.2,462.6 30.2,455 C30.2,447.5 31.9,440 31.8,432.4 C31.7,424.9 31.5,417.4 31.4,409.8 C31.3,402.3 30,394.8 29.9,387.2 C29.8,379.7 31,372.1 30.8,364.6 C30.6,357.1 28.6,349.6 28.4,342.1 C28.2,334.5 29.5,327 29.3,319.5 C29.1,311.9 27,304.5 26.8,297 C26.6,289.4 27,281.9 26.7,274.4 C26.4,266.8 27.4,259.2 27.2,251.8 C26.9,244.2 26.3,236.7 26,229.3 C25.7,221.7 23.5,214.2 23.2,206.8 C22.8,199.2 23.9,191.6 23.5,184.2 C23.1,176.5 23,169 22.6,161.6 C22.2,153.9 21.5,146.4 21,139.1 C20.5,131.4 18.5,124 18,116.7 C17.5,108.9 17.2,101.4 16.6,94.2 C16,86.4 15.1,78.9 14.5,71.7 C13.8,63.8 13.3,56.3 12.6,49.2 C11.7,41.1 11.5,33.5 10.6,26.7 C9.5,18.2 9.8,10 8.6,3.7 C7.6,2.2 2.2,3.9 4,3.9 C11.4,4.6 19,3.8 26.6,4.5 C34,5.1 41.4,7.4 49,8 C56.4,8.6 63.9,9.7 71.5,10.2 C78.9,10.7 86.5,11.3 94.1,11.8 C101.6,12.3 109.2,10.5 116.8,11 C124.3,11.4 131.8,12.1 139.4,12.5 C146.9,12.9 154.3,14.9 161.9,15.3 C169.4,15.7 176.9,15.9 184.5,16.2 C192,16.6 199.5,16.2 207.1,16.5 C214.6,16.8 222.1,16.9 229.7,17.2 C237.2,17.5 244.7,19.5 252.2,19.7 C259.7,20 267.3,18.2 274.9,18.5 C282.4,18.7 289.9,20 297.5,20.2 C305,20.4 312.5,21.6 320.1,21.8 C327.6,22 335.2,19.6 342.8,19.8 C350.3,20 357.8,22.6 365.4,22.7 C372.9,22.9 380.5,20.6 388.1,20.7 C395.6,20.8 403.1,22.8 410.7,23 C418.2,23.1 425.8,22.6 433.3,22.7 C440.8,22.8 448.3,24.1 455.9,24.2 C463.4,24.3 471,24.7 478.5,24.8 C486,24.9 493.6,23.7 501.1,23.8 C508.6,23.9 516.2,23.2 523.7,23.2 C531.2,23.3 538.8,23.8 546.3,23.8 C553.8,23.8 561.4,25.4 568.9,25.4 C576.4,25.4 584,24.7 591.5,24.7 C599,24.7 606.6,24.1 614.1,24.1 C621.6,24.1 629.2,23.2 636.7,23.2 C644.2,23.2 651.8,23.8 659.3,23.7 C666.8,23.7 674.4,24.6 681.9,24.5 C689.4,24.5 697,22.8 704.5,22.8 C712,22.8 719.6,22.5 727.1,22.5 C734.6,22.5 742.2,24.5 749.7,24.5 C757.2,24.4 764.8,24.7 772.3,24.7 C779.8,24.6 787.4,22.5 794.9,22.4 C802.4,22.3 810,22.2 817.5,22.1 C825,22 832.6,24 840.1,23.9 C847.7,23.8 855.2,22.9 862.7,22.8 C870.3,22.7 877.8,22.2 885.3,22.1 C892.9,22 900.4,20.9 907.9,20.8 C915.5,20.7 923,20.6 930.5,20.5 C938.1,20.4 945.6,22 953.2,21.9 C960.8,21.8 968.3,21.3 975.8,21.1 C983.4,21 990.9,21.4 998.4,21.2 C1006,21 1013.5,18.6 1021,18.5 C1028.6,18.3 1036.1,19.8 1043.7,19.6 C1051.3,19.4 1058.8,17.3 1066.3,17.2 C1073.9,17 1081.5,19.1 1089,18.9 C1096.6,18.7 1104.1,18.9 1111.6,18.7 C1119.2,18.5 1126.7,17.8 1134.2,17.6 C1141.8,17.4 1149.3,15.1 1156.8,14.9 C1164.4,14.7 1172,16.8 1179.5,16.6 C1187.1,16.4 1194.6,15 1202.1,14.8 C1209.7,14.6 1217.2,13.3 1224.7,13.1 C1232.3,12.9 1239.9,14.4 1247.4,14.2 C1255,14 1262.5,13.8 1270,13.5 C1277.6,13.3 1285.1,13.3 1292.6,13.1 C1300.2,12.9 1307.7,11 1315.2,10.8 C1322.8,10.5 1330.4,11.8 1337.9,11.6 C1345.5,11.3 1353,10.2 1360.5,9.9 C1368.1,9.6 1375.6,8.5 1383.1,8.2 C1390.7,7.9 1398.3,7.6 1405.7,7.3 C1413.3,7 1420.9,6.4 1428.3,6.2 C1435.9,5.9 1443.6,8.1 1451,7.9 C1458.7,7.6 1466.2,6.3 1473.6,6 C1478.4,4.9 1477.9,0.8 1482.3,2.8 C1482,10.2 1480.8,17.2 1480.5,25 C1480.2,32.5 1480.7,40.1 1480.4,47.9 C1480.1,55.4 1479.1,63 1478.8,70.8 C1478.6,78.3 1480.5,86 1480.3,93.8 C1480.1,101.3 1480.1,109 1479.9,116.7 C1479.7,124.2 1476.9,131.8 1476.7,139.5 C1476.5,147.1 1476.2,154.7 1476,162.4 C1475.8,170 1477.6,177.6 1477.4,185.3 C1477.3,192.9 1476.1,200.5 1476,208.2 C1475.9,215.8 1477.7,223.5 1477.6,231.1 C1477.5,238.7 1474.9,246.3 1474.8,254 C1474.7,261.6 1475.6,269.3 1475.6,276.9 C1475.6,284.5 1476.2,292.2 1476.2,299.8 C1476.2,307.4 1475.9,315.1 1475.9,322.7 C1475.9,330.3 1475,338 1475,345.6 C1475,353.2 1476,360.9 1476,368.5 C1476.1,376.1 1474.9,383.8 1475,391.4 C1475.1,399.1 1477.3,406.7 1477.4,414.3 C1477.5,422 1476.2,429.6 1476.4,437.2 C1476.5,444.9 1477.2,452.5 1477.4,460.1 C1477.6,467.8 1478.2,475.4 1478.4,483 C1478.6,490.7 1477.3,498.4 1477.5,506 C1477.8,513.7 1480.5,521.2 1480.8,528.8 C1481.1,536.5 1479.3,544.2 1479.6,551.8 C1479.9,559.5 1481.5,567.1 1481.9,574.6 C1482.3,582.3 1482.2,590 1482.6,597.5 C1483,605.2 1484.7,612.8 1485.1,620.3 C1485.6,628 1485.3,635.7 1485.9,643.2 C1486.5,650.9 1487.4,658.5 1488,666 C1488.6,673.8 1488.3,681.5 1489,688.9 C1489.7,696.7 1489.7,704.4 1490.5,711.8 C1491.3,719.6 1492.6,727.2 1493.5,734.5 C1494.5,742.3 1496.6,749.7 1497.7,757.1 C1498.8,765 1500,772.5 1501.2,779.7 C1502.5,787.6 1504.3,794.9 1505.8,802 C1507.5,805.8 1508.1,806.7 1506.3,809.1 Z" id="Path" fill="#CCCCCC"></path>
                <g id="Group" fill="#000000">
                    <path d="M6.1,4.6 C7.8,16.8 9.2,29 10.5,41.2 C11.9,54.3 13.7,67.4 14.5,80.5 C15.4,93.8 16.3,107.1 17.4,120.4 C18.5,133.7 19,146.9 19.6,160.3 C20.2,173.3 21.1,186.3 21.5,199.3 C21.9,212.6 23.1,225.8 23.4,239.1 C24,265.7 24.6,292.3 25.5,318.9 C25.7,325.7 26.8,332.4 27.2,339.2 C27.6,345.8 26.8,352.2 26.5,358.8 C26.2,365.4 26.9,371.8 27.6,378.3 C28.4,385.1 28.3,391.8 28,398.6 C27.4,412.3 27.1,426.3 27.9,440 C28.3,446.5 28.8,453 28.5,459.6 C28.2,466.4 27.3,473.1 27.5,479.9 C27.7,486.4 28.9,492.9 29,499.5 C29.1,506.3 27.8,513 27.4,519.8 C27.1,526.3 27.8,532.9 28.1,539.4 C28.4,545.9 28.1,552.5 27.9,559 C27.5,572.3 28.5,585.7 27.1,598.9 C25.7,612.2 25.8,625.4 25.5,638.7 C25.3,645.5 25.4,652.2 25,659 C24.6,665.5 23.3,672 22.8,678.5 C21.6,691.8 21.1,705.1 20,718.4 C18.9,731.7 18.2,745 16.8,758.3 C15.4,771.3 13.1,784 10.7,796.8 C9.6,802.7 8.6,808.5 6.9,814.3 C5.9,817.8 12.1,818.9 13,815.7 C16.6,804 18.4,791.5 20.4,779.5 C22.5,766.8 24.1,753.8 24.8,741 C25.6,727.4 26.7,713.9 27.7,700.3 C28.2,693.8 28.5,687.2 29,680.7 C29.4,673.9 30.7,667.3 31.3,660.5 C32.3,647.3 32,633.9 32,620.6 C32,607.2 34.2,594.1 34,580.7 C33.8,567.4 34.9,554.1 34.4,540.8 C34.1,534 33.3,527.3 33.6,520.5 C33.9,514 35.1,507.5 35.2,500.9 C35.3,494.1 34.1,487.4 33.7,480.6 C33.4,473.8 34.3,467.1 34.6,460.3 C34.9,453.8 34.5,447.3 34.1,440.7 C33.7,433.6 33.8,426.6 33.8,419.5 C33.9,406.1 35.2,392.3 33.7,379 C32.9,372.2 32.1,365.6 32.5,358.7 C32.8,352.2 33.6,345.7 33.2,339.1 C32.8,332.3 31.7,325.6 31.5,318.8 C31.3,312.3 31,305.8 30.8,299.2 C30.3,285.9 30.6,272.6 30,259.3 C28.9,232.5 28.1,205.6 26.6,178.8 C25.8,165.6 25.6,152.3 24.8,139 C24,125.7 22.7,112.4 21.6,99.1 C19.4,72.8 17.1,46.6 13.5,20.4 C12.7,14.8 11.8,9.3 10.6,3.7 C10.1,2 5.8,2.4 6.1,4.6 L6.1,4.6 Z" id="Path"></path>
                    <path d="M4.4,7.4 C16.6,8.2 29,8 41.2,8.5 C53,9 64.8,10.6 76.5,11.6 C88.7,12.7 101,13.7 113.2,14.6 C125,15.4 136.8,14.1 148.6,15.2 C172.2,17.5 197.1,21.5 220.8,19.4 C232.4,18.4 243.3,21.4 254.8,21.7 C266.7,22 278.3,21.3 290.2,22.2 C302.5,23.1 314.8,23 327,23.9 C332.7,24.3 338.3,25.1 344,25.2 C350.6,25.3 357.2,24.2 363.9,24.1 C388,23.5 412.1,27.7 436.2,27.3 C441.9,27.2 447.5,26.1 453.2,25.7 C459.4,25.3 465.5,26.2 471.6,26.8 C483.7,28.1 496.2,28.3 508.4,28.2 C519.2,28.1 529.5,27.9 540.2,26.4 C552.5,24.7 565.5,26.6 577.9,27.2 C602,28.4 626.1,27.7 650.2,28.1 C662.6,28.3 674.7,26.8 687.1,26.7 C699,26.7 710.7,26.7 722.5,25.9 C734.9,25.1 747,27.6 759.4,27.3 C771.3,27 783,27.5 794.9,27.7 C807.1,27.9 819.5,25.9 831.7,25.4 C843.5,24.9 855.3,25.7 867.1,25.5 C879.4,25.3 891.7,24.8 904,24.2 C916.3,23.6 928.6,24.6 940.9,24.1 C964.9,23.1 989.2,21.3 1013.2,23.1 C1037.1,24.9 1061.5,20.8 1085.5,20.7 C1109.6,20.6 1133.7,19.1 1157.8,18.9 C1170.1,18.8 1182.4,19.2 1194.7,19.3 C1205.9,19.4 1216.3,17.3 1227.4,16.5 C1239.6,15.7 1251.9,17 1264.2,16.5 C1276,16 1287.8,16.4 1299.6,15.7 C1305.3,15.4 1310.9,14.6 1316.6,14.3 C1323.3,13.9 1329.8,15 1336.5,15.4 C1347.5,16.1 1358.1,12.8 1369,12.7 C1393.1,12.4 1417.1,10.2 1441.3,9.9 C1453.6,9.8 1465.9,10.3 1478.1,9.9 C1482.6,9.8 1482.6,4 1478.1,4 C1454,4.2 1429.9,2.8 1405.8,4.7 C1393.4,5.7 1381.4,6.3 1369,6.4 C1358.1,6.5 1347.4,9.8 1336.5,9.1 C1330.3,8.7 1324.2,7.7 1318,8 C1311.9,8.3 1305.8,9.2 1299.6,9.5 C1287.8,10.2 1276,9.7 1264.2,10.3 C1252,10.9 1239.6,9.6 1227.4,10.4 C1216.4,11.1 1205.9,13.2 1194.7,13.2 C1146,13 1097.3,14 1048.7,16.1 C1036.8,16.6 1025.2,18 1013.3,17.1 C1001.1,16.2 988.7,16.4 976.4,16.8 C964.6,17.2 952.8,17.7 941,18.2 C928.7,18.7 916.4,17.8 904.1,18.4 C880,19.6 855.9,18.7 831.8,19.7 C819.6,20.2 807.1,22.2 795,22.1 C783.1,21.9 771.4,21.4 759.5,21.7 C747.1,22 735,19.5 722.6,20.3 C710.7,21.1 699,21.1 687.2,21.2 C674.9,21.2 662.7,22.8 650.3,22.6 C638.5,22.4 626.7,22.3 614.9,22.3 C602.6,22.3 590.4,22.3 578,21.8 C566.5,21.3 554.2,19.4 542.8,20.6 C518.7,23.2 494,23.9 469.8,21.2 C464.8,20.6 459.8,20 454.8,20.2 C448.6,20.5 442.5,21.8 436.3,21.9 C424.1,22.1 411.6,20.8 399.5,19.8 C375.3,17.8 351.3,20.4 327.2,18.6 C314.9,17.7 302.6,17.8 290.4,16.9 C278.5,16 266.9,16.7 255,16.5 C243.4,16.3 232.7,13.2 221,14.3 C209,15.4 197.6,14.1 185.6,13.3 C173.3,12.5 161.1,11.4 148.8,10.2 C136.9,9.1 125.2,10.4 113.4,9.6 C89.4,8 65.4,4.6 41.3,3.7 C29,3.2 16.7,3.6 4.5,2.9 C0.9,2.6 0.9,7.2 4.4,7.4 L4.4,7.4 Z" id="Path"></path>
                    <path d="M1480.5,2.5 C1480,8.9 1479.3,15.4 1478.9,21.8 C1478.5,28.3 1478.7,34.7 1478.7,41.2 C1478.7,54.2 1476.6,67 1476.8,80 C1477,93 1476.6,106 1476.1,118.9 C1475.6,131.9 1475.7,144.8 1475.5,157.8 C1475.4,164.3 1474.5,170.7 1474.1,177.2 C1473.7,183.9 1473.7,190.7 1473.5,197.4 C1473.1,210.3 1472.1,223.4 1473.3,236.3 C1474.5,249.3 1473.7,262.2 1473.2,275.2 C1472.9,281.7 1472.3,288.1 1472.3,294.6 C1472.3,301.1 1472.9,307.5 1473,314 C1473.2,327.9 1473.2,341.6 1472.8,355.5 C1472.4,369.3 1473.4,383.3 1474,397.1 C1474.6,411 1473.8,424.9 1474.5,438.8 C1475.2,452.5 1475.2,466.3 1475.1,480 C1475,486.5 1474.8,493 1475.2,499.4 C1475.6,505.9 1476.6,512.3 1476.8,518.8 C1477,525.3 1476.3,531.8 1476.4,538.3 C1476.5,544.8 1477.5,551.2 1478.1,557.7 C1478.7,564.2 1478.5,570.7 1478.5,577.2 C1478.4,583.9 1478.8,590.7 1479,597.4 C1479.3,610.4 1481.3,623.2 1482.1,636.2 C1483.5,662 1485.1,688 1488.3,713.7 C1489.9,726.4 1490.6,739.1 1492.7,751.8 C1494.8,764.6 1497.1,777.3 1499.2,790.1 C1500.3,796.4 1501.2,802.8 1502.5,809.1 C1503.3,813.1 1510.9,811.7 1510,807.4 C1499.7,756.3 1494.6,704.5 1490.8,652.6 C1489.9,639.7 1489,626.8 1487.6,613.9 C1486.2,601.4 1486,588.4 1486.2,575.8 C1486.3,569.3 1486.3,562.8 1485.6,556.4 C1484.9,549.9 1484,543.5 1484,537 C1484,530.5 1484.6,524 1484.3,517.5 C1484,511 1483,504.6 1482.6,498.1 C1481.9,484.9 1482.5,471.4 1482.5,458.2 C1482.5,444.3 1481.4,430.5 1481.6,416.6 C1481.8,402.7 1481.3,388.8 1480.6,375 C1479.9,361.1 1480.8,347.3 1480.5,333.4 C1480.3,320.1 1479.4,306.7 1479.5,293.4 C1479.6,280.5 1480.6,267.5 1481.1,254.5 C1481.3,247.9 1480.8,241.6 1480.3,235.1 C1479.7,228.6 1480,222.2 1480.2,215.7 C1480.6,203 1480.4,190.3 1481.2,177.6 C1481.6,171.1 1482.5,164.7 1482.5,158.2 C1482.6,151.7 1482.2,145.2 1482.2,138.8 C1482.3,125.8 1483.1,112.9 1483.3,99.9 C1483.5,86.9 1482.9,73.9 1484,61 C1485.1,48 1484.3,35.2 1485,22.2 C1485.3,15.8 1486,9.3 1486.1,2.9 C1486,-0.5 1480.7,-0.5 1480.5,2.5 L1480.5,2.5 Z" id="Path"></path>
                    <path d="M1513.4,811.3 C1506.2,808.1 1498.5,805.8 1490.7,804.9 C1485.8,804.3 1480.9,804.7 1475.9,804.8 C1469.2,804.9 1463,803.9 1456.5,802.6 C1445.4,800.5 1435.1,802.3 1423.9,802 C1411.8,801.7 1399.8,799.4 1387.7,799.1 C1362.3,798.5 1337,796.1 1311.5,795.9 C1305.4,795.9 1299.3,796.7 1293.2,797 C1285.9,797.4 1278.9,796.2 1271.6,795.3 C1259.7,793.9 1247.4,795 1235.4,795 C1210,794.9 1184.7,794.8 1159.3,793.7 C1146.7,793.1 1133.8,793.6 1121.3,794.6 C1108,795.6 1095.2,794.6 1081.8,794 C1069.1,793.4 1056.5,792.6 1043.8,792.5 C1031.1,792.4 1018.5,794.3 1005.8,794.5 C993.1,794.8 980.5,793 967.8,793.2 C955.1,793.4 942.5,794.6 929.8,795.1 C904.5,796.1 879.1,790.2 853.7,792.9 C847.6,793.5 841.6,794.9 835.4,794.9 C828.8,794.9 822.3,794.1 815.7,794.1 C803,794 790.5,795.5 777.7,794.9 C764.6,794.3 751.3,794.5 738.3,795.2 C725.4,795.8 713.1,794.2 700.3,794.1 C687.9,794 676.3,793.8 664,795.6 C651.4,797.4 638.7,794.6 626,796 C600.4,798.8 574,796.2 548.2,795.8 C535.5,795.6 522.9,796.6 510.2,796.3 C497,795.9 484,797.7 470.8,797.5 C445.4,797.1 420.1,799.3 394.7,799.2 C382,799.1 369.3,799.8 356.7,800.1 C344,800.5 331.4,799.5 318.7,799.6 C307,799.6 295.2,799.5 283.7,801.7 C270.7,804.1 258.4,800.6 245.4,801.5 C239.3,801.9 233.3,802.8 227.2,802.9 C220.6,802.9 214,801.9 207.4,802 C194.6,802.1 182.1,804.1 169.3,803.8 C156.1,803.5 143.1,805.8 129.9,806.4 C117.2,807 104.6,806 92,806.4 C68.5,807.1 45.3,809.5 22,812 C15.5,812.7 8.5,813.3 2.3,815.8 C-2.4,817.7 2.2,823 6.2,821.4 C13.8,818.3 23.5,818.8 31.6,818 C42.5,817 53.3,816 64.1,814.7 C89.2,811.8 114.7,814.7 139.9,813.1 C146,812.7 152,811.5 158.1,811 C164.7,810.5 171.2,811 177.8,811.1 C190.1,811.2 202.1,808.5 214.4,809.3 C220.6,809.7 226.6,810.2 232.8,809.8 C239.4,809.4 245.9,808.2 252.5,808.4 C258.7,808.5 264.7,810 270.8,810.2 C276.4,810.4 281.7,809.3 287.2,808.4 C299.5,806.2 313.2,806.3 325.7,807 C338,807.7 350.1,807.5 362.4,807.2 C387.8,806.6 413.1,806.3 438.4,805.1 C451.1,804.5 463.7,805 476.5,804.7 C488.8,804.5 500.8,803.3 513.1,803.6 C525.8,803.9 538.4,802.8 551.1,803.1 C563.8,803.4 576.5,803.6 589.2,803.7 C601,803.8 612.3,804.9 624.1,803.5 C637.1,802 650.1,804.6 663,803.1 C669.4,802.3 675.7,801 682.2,801 C688.8,801 695.4,801.2 701.9,801.3 C708,801.4 714.1,802.5 720.2,802.8 C726.8,803.2 733.4,802.6 739.9,802.3 C752,801.7 764.4,801.5 776.5,802 C789.3,802.5 801.7,801.3 814.5,801.2 C826.9,801.1 838.4,802.2 850.8,800.4 C863.6,798.5 877.7,798.8 890.6,800 C902.7,801.1 915.1,802.2 927.2,802.1 C939.8,802 952.6,800.5 965.2,800.2 C977.9,799.9 990.5,801.7 1003.2,801.5 C1015.9,801.2 1028.6,799.4 1041.2,799.3 C1053.5,799.2 1065.6,799.5 1077.8,800.4 C1090.3,801.3 1103.3,802.8 1115.8,801.8 C1141.2,799.8 1166.4,800.8 1191.8,801.3 C1216.6,801.9 1241.7,800 1266.4,801.3 C1272.5,801.6 1278.6,803 1284.7,803.4 C1291.4,803.8 1297.9,802.7 1304.5,802.3 C1316.6,801.6 1329.1,801.9 1341.2,802.6 C1366.4,804.1 1391.8,804.3 1416.9,807.3 C1428.3,808.6 1439.6,805.8 1451,807.4 C1461.7,809 1471.4,810.2 1482.2,809.8 C1492,809.5 1501.7,811.5 1510.8,815.2 C1513.4,816 1516.5,812.7 1513.4,811.3 L1513.4,811.3 Z" id="Path"></path>
                </g>
                <g id="Group" transform="translate(324.000000, 696.000000)" fill="#000000">
                    <path d="M276.9,192.6 C277.3,185.5 277.9,178.3 277.9,171.2 C277.9,164.1 277.4,156.9 277,149.8 C276.6,142.7 276.4,135.6 275.8,128.5 C275.1,121.4 274.2,114.3 273.2,107.3 C272.2,100.2 271.1,93.2 269.8,86.2 C267.8,75.6 265.6,64.8 260.2,55.4 C256.5,48.9 251.2,43.5 245.5,38.6 C239.9,33.8 233.7,29.3 227.3,25.7 C220.4,21.8 212.9,18.8 205.5,16 C198.1,13.2 190.5,10.6 182.7,8.9 C174.9,7.2 167,6.1 159.1,5.5 C151.1,4.9 143.1,4.7 135.2,5.3 C127.2,5.9 119.3,6.9 111.5,8.7 C103.7,10.5 96.1,13 88.7,16 C81.4,19 74.4,23 67.7,27.3 C61,31.6 54.5,36.2 48.7,41.7 C42.9,47.2 37.8,53.3 33.1,59.7 C28.4,66.1 24.3,73 20.8,80.1 C17.3,87.2 14.4,94.7 12.2,102.3 C10,110 8.4,117.8 7.6,125.7 C6.8,133.6 6.7,141.6 7.5,149.5 C8.3,157.4 10.1,165.1 12.7,172.8 C13.3,183.5 12.6,183.6 12.2,194.3 C11.8,205.1 11.5,205 11.1,215.8 C10.7,226.5 10.4,226.5 10.1,237.3 C9.7,248.1 9.7,248.1 9.3,258.8 C8.9,269.6 9.3,269.6 8.9,280.3 C8.5,291.1 4.5,291.6 8.2,301.7 C12.2,312.5 16.7,301.9 31,301.8 C37.6,301.8 45.3,301.7 54,301.6 C61.1,301.6 68.8,301.2 77,301.1 C84.3,301 92,301.2 100,301.1 C107.5,301 115.2,301.3 123,301.2 C130.6,301.1 138.3,301 146,300.9 C153.7,300.8 161.4,300.2 169,300 C176.8,299.8 184.5,299.9 192,299.7 C199.9,299.5 207.6,299 215,298.8 C223.2,298.5 230.9,298.4 238,298.1 C246.7,297.7 254.4,297.2 260.9,296.8 C274.8,295.8 283,294.5 283,293 C283,290.4 282.9,280.5 282.1,267.9 C281.7,260.2 281.3,251.5 280.7,242.8 C280.2,234.1 279.2,225.4 278.7,217.7 C277.7,203.3 277.1,205.2 276.9,192.6 Z" id="Path"></path>
                    <path d="M280.4,192.6 C280.8,187.7 281.4,182.8 281.7,177.9 C282.1,173 282.2,168.1 282,163.2 C281.7,153.4 281.5,143.5 280.9,133.8 C280.3,124 279,114.2 277.7,104.5 C276.4,94.9 274.8,85.3 272.8,75.9 C270.9,67.1 268.1,58.3 263.1,50.7 C258.2,43.2 251.2,37 244.1,31.5 C236.5,25.6 228.2,20.7 219.4,16.9 C210.4,13 201.1,9.5 191.7,6.7 C182.1,3.9 172.3,2.3 162.4,1.4 C152.6,0.5 142.7,0.2 132.8,1 C113.3,2.6 93.9,7.3 76.6,16.5 C68.3,20.9 60.1,26.1 52.6,31.9 C45.1,37.7 38.5,44.5 32.5,51.9 C20.7,66.6 11.7,83.6 6.5,101.7 C1,120.8 -0.6,141.3 3.5,160.9 C4,163.3 4.6,165.7 5.2,168.1 C5.8,170.3 6.8,172.6 6.9,174.6 C7.1,177.7 7.1,180.9 6.9,184 C6.5,190.8 6.2,197.6 5.8,204.3 C5,217.8 4.4,231.3 3.9,244.8 C3.6,251.5 3.3,258.2 3.2,264.9 C3.1,271.4 3.4,278.1 2.6,284.6 C2.5,285.2 2.6,284.4 2.6,284.4 C2.6,284.6 2.5,284.8 2.5,285 C2.4,285.4 2.4,285.7 2.3,286.1 C2.1,286.8 2,287.5 1.8,288.2 C1.4,289.7 1.1,291.3 0.8,292.9 C0.3,296.3 1.1,299.9 2.3,303.1 C3.4,306.2 5,309.2 8.1,310.7 C11.3,312.2 14.6,311.597396 17.7,310.5 C18.7,310.1 19.7,309.7 20.7,309.3 C21.3,309.1 21.8,308.8 22.4,308.6 C22.6,308.5 23.8,308.2 23,308.4 C22.1,308.6 23.4,308.3 23.6,308.2 C25.1,307.7 26.7,307.4 28.3,307.1 C29,307 27.9,307.2 27.9,307.1 C27.9,307.1 28.5,307 28.6,307 C29,307 29.5,306.9 30,306.9 C31.1,306.9 32.1,306.9 33.2,306.9 C42.2,306.9 51.2,306.8 60.2,306.7 C79.4,306.3 98.5,306.5 117.7,306.5 C127.7,306.5 137.7,306.4 147.7,306.2 C157.5,306 167.3,305.4 177.1,305.3 C186.8,305.2 196.5,305 206.1,304.6 C215.5,304.2 224.8,304 234.2,303.7 C243.1,303.4 251.9,302.9 260.8,302.2 C265.4,301.9 270,301.4 274.6,300.9 C277.2,300.6 279.8,300.3 282.3,299.5 C285.3,298.6 288.4,297 288.7,293.5 C288.8,291.4 288.7,289.3 288.6,287.2 C288.4,278.7 287.9,270.2 287.5,261.8 C287,252.1 286.5,242.3 285.7,232.6 C285,224.4 284.5,216.3 283.8,208.1 C283.6,205.7 283.4,203.3 283,201 C283,200.7 282.9,200.5 282.9,200.2 C282.8,199.4 283.1,201.3 282.9,200.4 C282.8,199.7 282.7,199 282.6,198.3 C282.5,197.5 282.4,196.8 282.3,196 C282.2,195.6 282.2,195.1 282.1,194.7 C282,193.8 281.9,193.5 281.9,193 C281.8,187.5 271.7,187.5 271.8,193 C271.8,194.1 271.5,196.4 271.4,198.1 C271.3,199.4 271.2,200.7 271.2,202 C271.1,204.1 271.4,206.1 271.6,208.2 C272.4,216.2 272.8,224.2 273.5,232.2 C274.3,241.7 274.8,251.3 275.3,260.8 C275.8,269.2 276.3,277.7 276.5,286.1 C276.6,288.4 276.5,290.7 276.6,292.9 C276.6,293 276.6,293.2 276.6,293.3 C276.4,292.8 277.2,291.3 277.3,291.1 C278.1,290 278.4,290 278,290.3 C279.8,288.9 279.2,289.6 278.8,289.8 C277.4,290.3 279.7,289.6 279.1,289.7 C278.6,289.8 278.1,290 277.6,290.1 C276.4,290.4 275.2,290.6 274,290.7 C273.3,290.8 272.5,290.9 271.8,291 C271.4,291.1 271,291.1 270.6,291.2 C270.3,291.2 270,291.3 269.7,291.3 C270.6,291.2 270.6,291.2 269.9,291.3 C265.8,291.7 261.8,292.1 257.7,292.3 C239.7,293.6 221.6,293.9 203.6,294.7 C194.1,295.1 184.6,295.3 175,295.4 C165.4,295.5 155.8,296.2 146.2,296.4 C127.1,296.8 107.9,296.8 88.8,296.7 C70.7,296.6 52.6,297.2 34.4,297.4 C30.4,297.4 26.4,297.5 22.5,298.4 C19.5,299.1 16.7,300.3 13.9,301.5 C13.4,301.7 13,301.9 12.5,302.1 C11.6,302.5 13.9,301.7 13,301.9 C12.8,302 12.6,302 12.4,302.1 C12.2,302.1 12,302.2 11.8,302.2 C10.9,302.4 13.4,302.1 12.6,302.1 C12.1,302.1 11.5,301.9 13.4,302.2 C12.3,302 14.6,302.8 13.9,302.4 C13.2,302 15.1,303.3 14.4,302.7 C13.8,302.2 14.5,302.5 14.7,303.1 C14.6,302.8 14.1,302.2 13.9,301.9 C13.3,301.1 14.3,302.9 13.9,301.9 C13.8,301.6 13.6,301.3 13.5,300.9 C13.1,299.9 12.8,298.8 12.5,297.7 C12.4,297.3 12.3,296.9 12.2,296.5 C11.9,295.3 12.3,297.4 12.2,296.3 C12.1,295.6 12.1,295 12.1,294.3 C12.1,293.8 12,293 12.2,292.5 C11.7,293.6 12.1,293.1 12.2,292.6 C12.3,292.2 12.4,291.8 12.5,291.5 C13.3,288.1 14.1,284.8 14.3,281.3 C14.7,275.1 14.5,269 14.6,262.8 C14.9,249.7 15.5,236.6 16.2,223.6 C16.9,210.3 17.4,197 18.2,183.6 C18.4,180.5 18.3,177.4 18.2,174.4 C18.1,171.8 17.3,169.6 16.5,167.2 C15.8,164.8 15.2,162.4 14.6,160 C12.6,151.2 12,141.9 12.4,132.6 C13.2,114.5 18.3,95.8 26.6,79.9 C34.9,63.9 45.9,49.4 59.9,38.5 C67.2,32.8 74,28.5 82.1,24.2 C85.9,22.1 89.9,20.3 94,18.7 C98.4,17 101.7,15.8 106.4,14.5 C110.9,13.2 115.5,12.2 120.1,11.4 C125.1,10.5 128.8,10.1 133.4,9.7 C143.1,8.9 152.8,9.1 162.4,10 C166.4,10.4 171,11 175.7,11.9 C180.4,12.8 185,13.8 189.5,15.2 C198.2,17.8 206.6,20.9 215.2,24.7 C223.7,28.5 230.9,32.8 238.1,38.5 C244.8,43.8 250.6,49 255.1,56.2 C259.5,63.2 261.8,71.8 263.6,80.1 C265.6,89.1 267.1,98.2 268.4,107.3 C271.2,126.4 272.5,145.6 273.5,164.9 C274,174.2 273.5,183.4 273.4,192.6 C273.3,196.5 280.1,196.4 280.4,192.6 Z" id="Path"></path>
                </g>
                <g id="Group" transform="translate(606.000000, 697.000000)" fill="#000000">
                    <path d="M286,170.4 C285,163.2 283.6,155.9 282.4,148.6 C281.2,141.3 279.9,134.1 278.3,126.9 C276.7,119.7 275.2,112.4 273.1,105.4 C270.9,98.3 268.3,91.4 265.3,84.7 C262.3,77.9 258.5,71.6 254.4,65.5 C250.3,59.4 245.9,53.6 240.6,48.3 C236,43.8 231.3,39.5 226,35.9 C220.8,32.3 215.2,29 209.6,26 C203.9,23 197.9,20.8 192,18.4 C186.1,16 180.3,13.6 174.2,11.7 C168.1,9.8 161.9,8.4 155.7,7.3 C149.5,6.2 143.2,5.3 136.8,5.2 C128.6,5.1 120.5,5.9 112.6,7.7 C104.7,9.4 97,12.2 89.6,15.6 C82.2,19 75,22.8 68.4,27.5 C61.8,32.2 55.6,37.5 49.9,43.4 C44.3,49.3 39.5,56 35.1,62.7 C30.6,69.6 27,76.7 24.3,84.2 C21.6,91.8 20,99.6 18.6,107.6 C17.2,115.4 16,123.4 15.3,131.5 C14.6,139.5 14,147.5 13.5,155.6 C13,163.7 12.2,171.7 11.4,179.7 C10.8,185.1 10.5,193 10.3,202.1 C10.1,209 9.9,216.7 9.9,224.6 C9.9,232.1 10.1,239.7 10.2,247.1 C10.3,255.2 10.2,262.9 10.3,269.6 C10.5,282.9 0.4,288.1 10.9,292.1 C21.6,296.2 22.4,291.9 33.8,291.8 C45.3,291.7 45.3,291.8 56.7,291.7 C68.2,291.6 68.2,291.5 79.6,291.5 C91.1,291.4 91.1,291.4 102.5,291.3 C114,291.2 114,291.5 125.4,291.4 C136.9,291.3 136.9,291.3 148.3,291.2 C159.8,291.1 159.8,290.6 171.2,290.5 C182.7,290.4 182.7,290.9 194.1,290.8 C205.6,290.7 205.6,290.5 217,290.4 C228.5,290.3 228.5,290.6 239.9,290.5 C251.4,290.4 251.4,290.1 262.8,290.1 C274.3,290 278,298.3 285.9,290 C294.1,281.3 285.6,277.9 285.6,266 C285.6,254.1 285.5,254.1 285.5,242.1 C285.5,230.2 285.8,230.2 285.7,218.2 C285.7,206.3 285.5,206.3 285.7,194.3 C286.2,182.3 286.4,182.3 286,170.4 Z" id="Path"></path>
                    <path d="M289.5,170.4 C288.3,159.9 286.6,149.4 284.9,139 C283.3,128.9 281.3,118.8 278.8,108.9 C273.9,89.8 265.5,71.7 253.5,56 C241.5,40.3 225.2,28 207.3,19.9 C202.8,17.9 198.3,16.1 193.8,14.2 C188.9,12.2 184.1,10.3 179.1,8.5 C169.6,5.2 159.5,3 149.5,1.7 C138.7,0.3 128,0.4 117.3,2.1 C107.3,3.7 97.5,6.9 88.2,11 C70.1,19.1 53.5,30.7 40.8,46 C34.7,53.3 29.3,61.4 24.9,69.9 C20.2,78.9 17,88.3 14.9,98.2 C12.8,108.4 11.1,118.7 10.1,129 C9.1,139.4 8.5,149.7 7.7,160.1 C7,169.3 5.8,178.4 5.3,187.6 C4.8,197.2 4.6,206.9 4.4,216.5 C4.2,226.6 4.5,236.7 4.5,246.7 C4.5,251.7 4.5,256.6 4.6,261.6 C4.6,263.9 4.6,266.2 4.7,268.5 C4.7,269.5 4.7,270.4 4.7,271.4 C4.7,271.9 4.6,272.4 4.6,272.8 C4.6,273 4.5,273.2 4.5,273.4 C4.4,274.1 4.7,272.3 4.5,273.5 C3.9,276.4 2.8,279.1 1.8,281.9 C0.9,284.4 0.2,287.1 1.1,289.7 C2.3,293.2 5.8,295.2 9,296.4 C12.8,297.8 16.8,298.9 20.9,298.5 C24.2,298.2 27.4,297.2 30.7,296.7 C31.8,296.5 29.6,296.8 30.8,296.7 C31.3,296.7 31.9,296.6 32.4,296.6 C33.6,296.5 34.8,296.5 36,296.5 C37.9,296.5 39.9,296.5 41.8,296.5 C48.8,296.5 55.9,296.5 62.9,296.4 C76.8,296.3 90.6,296.1 104.5,296 C111.3,296 118.1,296.2 124.9,296.1 C131.7,296.1 138.5,296 145.3,296 C152.3,296 159.3,295.6 166.3,295.4 C173.3,295.2 180.3,295.5 187.4,295.6 C201.7,295.9 216,295.1 230.2,295.3 C237.4,295.4 244.6,295.3 251.8,295.1 C255.2,295 258.5,294.9 261.9,294.9 C262.9,294.9 264,294.9 265,294.9 C266.1,294.9 263.8,294.7 265.2,294.9 C265.6,295 266.1,295 266.5,295.1 C267.3,295.3 268.1,295.5 269,295.7 C269.3,295.8 269.6,295.9 270,296 C268.3,295.6 269.6,295.9 270.1,296 C273.3,297.2 276.5,298.5 280,298.3 C285,298 288.8,295.3 292,291.7 C294.4,289 296.2,285.5 295.9,281.9 C295.7,278.8 294.5,276.1 293.5,273.3 C293.3,272.6 293,271.9 292.8,271.2 C292.7,270.8 292.6,270.4 292.5,270 C292.5,269.8 292.4,269.6 292.4,269.4 C292.4,269.2 292.2,268.2 292.3,268.9 C292.4,269.6 292.2,268.3 292.2,268.1 C292.1,267.6 292.1,267.1 292.1,266.6 C292.1,265.4 292.1,264.2 292.1,263.1 C292.1,259.9 292.1,256.6 292.1,253.4 C292.1,246.2 292,239 292.2,231.8 C292.5,217.7 292.2,203.6 292.5,189.4 C292.6,183 292.6,176.6 292.3,170.2 C292.2,167.2 289.1,165.1 286.2,165.2 C283.5,165.3 280,167 280.1,170.2 C280.5,183.5 279.9,196.8 280,210.1 C280.1,224.3 279.8,238.5 279.9,252.6 C279.9,255.5 279.9,258.5 279.9,261.4 C279.9,265.7 280,269.8 281.2,274 C282,276.6 282.9,279.3 283.8,281.8 C284,282.3 283.7,281.1 283.7,281.1 C283.7,281.2 283.7,281.4 283.7,281.5 C283.7,281.8 283.8,282.1 283.7,282.4 C283.7,282.7 283.7,282.9 283.7,283.2 C283.7,283.9 283.4,282.9 283.8,282.7 C283.7,282.7 283.7,283.2 283.7,283.2 C283.6,283.5 283.5,283.8 283.4,284 C283.1,284.8 284,283.1 283.4,284.1 C282.9,284.9 282.4,285.5 281.8,286.3 C281.5,286.8 281.9,286.2 282,286.1 C281.8,286.3 281.7,286.4 281.5,286.6 C281.2,286.9 280.8,287.3 280.4,287.6 C280.3,287.7 279.5,288.2 279.5,288.3 C279.5,288.2 280.7,287.6 279.9,288.1 C279.7,288.2 279.5,288.3 279.4,288.4 C279.3,288.5 279.1,288.5 279,288.6 C278.6,288.9 279.8,288.3 279.8,288.3 C279.6,288.3 279.1,288.4 278.9,288.5 C278.6,288.6 280.5,288.5 279.5,288.4 C279.2,288.4 277.9,288.3 279.1,288.4 C280.3,288.5 279.3,288.4 279,288.3 C278.7,288.2 278.4,288.2 278.1,288.1 C277.8,288 277.6,287.9 277.3,287.9 C276.5,287.7 278.7,288.4 277.4,287.9 C275.6,287.3 273.9,286.6 272.1,286.1 C265.2,284 257.6,284.9 250.5,285.1 C236.4,285.5 222.3,285 208.2,285.3 C201.2,285.5 194.1,285.7 187,285.5 C180.1,285.4 173.2,285.2 166.3,285.4 C159.5,285.6 152.8,286 146,286 C139.4,286.1 132.9,286.1 126.3,286.2 C119.7,286.3 113,286.1 106.4,286.1 C99.6,286.1 92.8,286.2 86,286.3 C72,286.4 58.1,286.6 44.1,286.7 C40.4,286.7 36.7,286.7 33.1,286.8 C29.3,286.9 25.7,287.6 22.1,288.4 C21.5,288.5 20.8,288.7 20.2,288.8 C19.2,289 20.1,288.7 20.6,288.8 C20.2,288.8 19.8,288.9 19.5,288.9 C19.2,288.9 18.9,288.9 18.6,288.9 C18.4,288.9 18.3,288.9 18.1,288.9 C17.5,288.9 18.9,289 18.8,289 C17.9,288.7 17,288.7 16.1,288.4 C15.7,288.3 15.3,288.1 14.8,288 C14.2,287.8 15,288.1 15.1,288.1 C14.8,288 14.5,287.9 14.1,287.7 C13.4,287.4 12.7,287.1 12,286.7 C11.2,286.3 12.9,287.4 12.3,286.9 C12.1,286.7 11.4,286 12.1,286.8 C12.8,287.6 12.2,286.9 12.1,286.7 C11.8,285.9 12.7,287.8 12.3,287 C12.2,286.8 12.1,286 12.3,287 C12.5,288 12.3,287.1 12.4,286.9 C12.4,286.7 12.5,286.5 12.4,286.3 C12.4,286.3 12.1,287.5 12.3,287.1 C12.4,286.9 12.4,286.7 12.4,286.6 C12.7,285.5 13.1,284.4 13.5,283.4 C14.7,280.2 15.7,277.1 16.2,273.8 C16.8,269.7 16.4,265.5 16.4,261.3 C16.4,256.4 16.4,251.5 16.3,246.7 C16.1,227.4 15.9,208 16.9,188.7 C17.3,179.8 18.5,170.9 19.2,162 C20,151.9 20.6,141.8 21.4,131.7 C22.3,121.5 23.7,112.2 25.6,102.4 C27.5,93 30.1,83.9 34.4,75.3 C34.5,75.2 35,74.1 34.8,74.5 C35.1,74 35.4,73.4 35.7,72.9 C36.3,71.8 36.9,70.7 37.5,69.7 C38.7,67.6 40,65.6 41.3,63.6 C43.9,59.7 46.5,55.9 49.4,52.2 C52.5,48.3 54.8,45.8 58.3,42.4 C61.7,39.2 65.3,36.1 69,33.3 C76.4,27.6 83.9,23.4 92.8,19.3 C95,18.3 97.2,17.4 99.4,16.5 C100.5,16.1 101.5,15.7 102.6,15.3 C102.8,15.2 103.1,15.1 103.3,15 C104.1,14.7 102.6,15.2 103.5,14.9 C104.1,14.7 104.7,14.5 105.3,14.3 C109.9,12.8 114.6,11.7 119.3,10.8 C120.5,10.6 121.7,10.4 122.8,10.2 C123.4,10.1 124.1,10 124.7,10 C124.7,10 125.6,9.9 125.1,10 C124.6,10.1 125.7,9.9 125.7,9.9 C128.2,9.7 130.7,9.5 133.2,9.5 C135.7,9.4 138.2,9.5 140.7,9.6 C141.9,9.7 143.1,9.8 144.3,9.9 C144.7,9.9 145,10 145.4,10 C145.3,10 144.7,9.9 145.3,10 C145.9,10.1 146.6,10.2 147.2,10.2 C156.9,11.5 166.7,13.6 176,16.7 C176.3,16.8 176.7,16.9 177,17.1 C176.9,17.1 176.4,16.9 177,17.1 C177.5,17.3 178,17.5 178.5,17.7 C179.8,18.2 181,18.7 182.3,19.1 C184.5,20 186.7,20.8 188.9,21.7 C193.4,23.5 198,25.3 202.5,27.3 C206.9,29.3 211.1,31.6 215.2,34 C219.1,36.3 222.6,38.6 226.4,41.6 C233.8,47.3 240.1,53.6 245.6,60.9 C251.1,68.2 256.3,76.1 260.2,84.3 C264.4,93.1 267.8,102.3 270.4,111.7 C273.1,121.4 275.2,131.3 277.1,141.1 C279,150.7 281,160.4 282.5,170.1 C282.8,171.9 284.2,173 286,173 C287.5,173.3 289.7,172.2 289.5,170.4 Z" id="Path"></path>
                </g>
                <g id="Group" transform="translate(886.000000, 684.000000)" fill="#000000">
                    <path d="M276.9,192.6 C277.3,185.5 277.9,178.3 277.9,171.2 C277.9,164.1 277.4,156.9 277,149.8 C276.6,142.7 276.4,135.6 275.8,128.5 C275.1,121.4 274.2,114.3 273.2,107.3 C272.2,100.2 271.1,93.2 269.8,86.2 C267.8,75.6 265.6,64.8 260.2,55.4 C256.5,48.9 251.2,43.5 245.5,38.6 C239.9,33.8 233.7,29.3 227.3,25.7 C220.4,21.8 212.9,18.8 205.5,16 C198.1,13.2 190.5,10.6 182.7,8.9 C174.9,7.2 167,6.1 159.1,5.5 C151.1,4.9 143.1,4.7 135.2,5.3 C127.2,5.9 119.3,6.9 111.5,8.7 C103.7,10.5 96.1,13 88.7,16 C81.4,19 74.4,23 67.7,27.3 C61,31.6 54.5,36.2 48.7,41.7 C42.9,47.2 37.8,53.3 33.1,59.7 C28.4,66.1 24.3,73 20.8,80.1 C17.3,87.2 14.4,94.7 12.2,102.3 C10,110 8.4,117.8 7.6,125.7 C6.8,133.6 6.7,141.6 7.5,149.5 C8.3,157.4 10.1,165.1 12.7,172.8 C13.3,183.5 12.6,183.6 12.2,194.3 C11.8,205.1 11.5,205 11.1,215.8 C10.7,226.5 10.4,226.5 10.1,237.3 C9.7,248.1 9.7,248.1 9.3,258.8 C8.9,269.6 9.3,269.6 8.9,280.3 C8.5,291.1 4.5,291.6 8.2,301.7 C12.2,312.5 16.7,301.9 31,301.8 C37.6,301.8 45.3,301.7 54,301.6 C61.1,301.6 68.8,301.2 77,301.1 C84.3,301 92,301.2 100,301.1 C107.5,301 115.2,301.3 123,301.2 C130.6,301.1 138.3,301 146,300.9 C153.7,300.8 161.4,300.2 169,300 C176.8,299.8 184.5,299.9 192,299.7 C199.9,299.5 207.6,299 215,298.8 C223.2,298.5 230.9,298.4 238,298.1 C246.7,297.7 254.4,297.2 260.9,296.8 C274.8,295.8 283,294.5 283,293 C283,290.4 282.9,280.5 282.1,267.9 C281.7,260.2 281.3,251.5 280.7,242.8 C280.2,234.1 279.2,225.4 278.7,217.7 C277.7,203.3 277.1,205.2 276.9,192.6 Z" id="Path"></path>
                    <path d="M280.4,192.6 C280.8,187.7 281.4,182.8 281.7,177.9 C282.1,173 282.2,168.1 282,163.2 C281.7,153.4 281.5,143.5 280.9,133.8 C280.3,124 279,114.2 277.7,104.5 C276.4,94.9 274.8,85.3 272.8,75.9 C270.9,67.1 268.1,58.3 263.1,50.7 C258.2,43.2 251.2,37 244.1,31.5 C236.5,25.6 228.2,20.7 219.4,16.9 C210.4,13 201.1,9.5 191.7,6.7 C182.1,3.9 172.3,2.3 162.4,1.4 C152.6,0.5 142.7,0.2 132.8,1 C113.3,2.6 93.9,7.3 76.6,16.5 C68.3,20.9 60.1,26.1 52.6,31.9 C45.1,37.7 38.5,44.5 32.5,51.9 C20.7,66.6 11.7,83.6 6.5,101.7 C1,120.8 -0.6,141.3 3.5,160.9 C4,163.3 4.6,165.7 5.2,168.1 C5.8,170.3 6.8,172.6 6.9,174.6 C7.1,177.7 7.1,180.9 6.9,184 C6.5,190.8 6.2,197.6 5.8,204.3 C5,217.8 4.4,231.3 3.9,244.8 C3.6,251.5 3.3,258.2 3.2,264.9 C3.1,271.4 3.4,278.1 2.6,284.6 C2.5,285.2 2.6,284.4 2.6,284.4 C2.6,284.6 2.5,284.8 2.5,285 C2.4,285.4 2.4,285.7 2.3,286.1 C2.1,286.8 2,287.5 1.8,288.2 C1.4,289.7 1.1,291.3 0.8,292.9 C0.3,296.3 1.1,299.9 2.3,303.1 C3.4,306.2 5,309.2 8.1,310.7 C11.3,312.2 14.6,311.597396 17.7,310.5 C18.7,310.1 19.7,309.7 20.7,309.3 C21.3,309.1 21.8,308.8 22.4,308.6 C22.6,308.5 23.8,308.2 23,308.4 C22.1,308.6 23.4,308.3 23.6,308.2 C25.1,307.7 26.7,307.4 28.3,307.1 C29,307 27.9,307.2 27.9,307.1 C27.9,307.1 28.5,307 28.6,307 C29,307 29.5,306.9 30,306.9 C31.1,306.9 32.1,306.9 33.2,306.9 C42.2,306.9 51.2,306.8 60.2,306.7 C79.4,306.3 98.5,306.5 117.7,306.5 C127.7,306.5 137.7,306.4 147.7,306.2 C157.5,306 167.3,305.4 177.1,305.3 C186.8,305.2 196.5,305 206.1,304.6 C215.5,304.2 224.8,304 234.2,303.7 C243.1,303.4 251.9,302.9 260.8,302.2 C265.4,301.9 270,301.4 274.6,300.9 C277.2,300.6 279.8,300.3 282.3,299.5 C285.3,298.6 288.4,297 288.7,293.5 C288.8,291.4 288.7,289.3 288.6,287.2 C288.4,278.7 287.9,270.2 287.5,261.8 C287,252.1 286.5,242.3 285.7,232.6 C285,224.4 284.5,216.3 283.8,208.1 C283.6,205.7 283.4,203.3 283,201 C283,200.7 282.9,200.5 282.9,200.2 C282.8,199.4 283.1,201.3 282.9,200.4 C282.8,199.7 282.7,199 282.6,198.3 C282.5,197.5 282.4,196.8 282.3,196 C282.2,195.6 282.2,195.1 282.1,194.7 C282,193.8 281.9,193.5 281.9,193 C281.8,187.5 271.7,187.5 271.8,193 C271.8,194.1 271.5,196.4 271.4,198.1 C271.3,199.4 271.2,200.7 271.2,202 C271.1,204.1 271.4,206.1 271.6,208.2 C272.4,216.2 272.8,224.2 273.5,232.2 C274.3,241.7 274.8,251.3 275.3,260.8 C275.8,269.2 276.3,277.7 276.5,286.1 C276.6,288.4 276.5,290.7 276.6,292.9 C276.6,293 276.6,293.2 276.6,293.3 C276.4,292.8 277.2,291.3 277.3,291.1 C278.1,290 278.4,290 278,290.3 C279.8,288.9 279.2,289.6 278.8,289.8 C277.4,290.3 279.7,289.6 279.1,289.7 C278.6,289.8 278.1,290 277.6,290.1 C276.4,290.4 275.2,290.6 274,290.7 C273.3,290.8 272.5,290.9 271.8,291 C271.4,291.1 271,291.1 270.6,291.2 C270.3,291.2 270,291.3 269.7,291.3 C270.6,291.2 270.6,291.2 269.9,291.3 C265.8,291.7 261.8,292.1 257.7,292.3 C239.7,293.6 221.6,293.9 203.6,294.7 C194.1,295.1 184.6,295.3 175,295.4 C165.4,295.5 155.8,296.2 146.2,296.4 C127.1,296.8 107.9,296.8 88.8,296.7 C70.7,296.6 52.6,297.2 34.4,297.4 C30.4,297.4 26.4,297.5 22.5,298.4 C19.5,299.1 16.7,300.3 13.9,301.5 C13.4,301.7 13,301.9 12.5,302.1 C11.6,302.5 13.9,301.7 13,301.9 C12.8,302 12.6,302 12.4,302.1 C12.2,302.1 12,302.2 11.8,302.2 C10.9,302.4 13.4,302.1 12.6,302.1 C12.1,302.1 11.5,301.9 13.4,302.2 C12.3,302 14.6,302.8 13.9,302.4 C13.2,302 15.1,303.3 14.4,302.7 C13.8,302.2 14.5,302.5 14.7,303.1 C14.6,302.8 14.1,302.2 13.9,301.9 C13.3,301.1 14.3,302.9 13.9,301.9 C13.8,301.6 13.6,301.3 13.5,300.9 C13.1,299.9 12.8,298.8 12.5,297.7 C12.4,297.3 12.3,296.9 12.2,296.5 C11.9,295.3 12.3,297.4 12.2,296.3 C12.1,295.6 12.1,295 12.1,294.3 C12.1,293.8 12,293 12.2,292.5 C11.7,293.6 12.1,293.1 12.2,292.6 C12.3,292.2 12.4,291.8 12.5,291.5 C13.3,288.1 14.1,284.8 14.3,281.3 C14.7,275.1 14.5,269 14.6,262.8 C14.9,249.7 15.5,236.6 16.2,223.6 C16.9,210.3 17.4,197 18.2,183.6 C18.4,180.5 18.3,177.4 18.2,174.4 C18.1,171.8 17.3,169.6 16.5,167.2 C15.8,164.8 15.2,162.4 14.6,160 C12.6,151.2 12,141.9 12.4,132.6 C13.2,114.5 18.3,95.8 26.6,79.9 C34.9,63.9 45.9,49.4 59.9,38.5 C67.2,32.8 74,28.5 82.1,24.2 C85.9,22.1 89.9,20.3 94,18.7 C98.4,17 101.7,15.8 106.4,14.5 C110.9,13.2 115.5,12.2 120.1,11.4 C125.1,10.5 128.8,10.1 133.4,9.7 C143.1,8.9 152.8,9.1 162.4,10 C166.4,10.4 171,11 175.7,11.9 C180.4,12.8 185,13.8 189.5,15.2 C198.2,17.8 206.6,20.9 215.2,24.7 C223.7,28.5 230.9,32.8 238.1,38.5 C244.8,43.8 250.6,49 255.1,56.2 C259.5,63.2 261.8,71.8 263.6,80.1 C265.6,89.1 267.1,98.2 268.4,107.3 C271.2,126.4 272.5,145.6 273.5,164.9 C274,174.2 273.5,183.4 273.4,192.6 C273.3,196.5 280.1,196.4 280.4,192.6 Z" id="Path"></path>
                </g>
                <g id="Group" transform="translate(1168.000000, 685.000000)" fill="#000000">
                    <path d="M286,170.4 C285,163.2 283.6,155.9 282.4,148.6 C281.2,141.3 279.9,134.1 278.3,126.9 C276.7,119.7 275.2,112.4 273.1,105.4 C270.9,98.3 268.3,91.4 265.3,84.7 C262.3,77.9 258.5,71.6 254.4,65.5 C250.3,59.4 245.9,53.6 240.6,48.3 C236,43.8 231.3,39.5 226,35.9 C220.8,32.3 215.2,29 209.6,26 C203.9,23 197.9,20.8 192,18.4 C186.1,16 180.3,13.6 174.2,11.7 C168.1,9.8 161.9,8.4 155.7,7.3 C149.5,6.2 143.2,5.3 136.8,5.2 C128.6,5.1 120.5,5.9 112.6,7.7 C104.7,9.4 97,12.2 89.6,15.6 C82.2,19 75,22.8 68.4,27.5 C61.8,32.2 55.6,37.5 49.9,43.4 C44.3,49.3 39.5,56 35.1,62.7 C30.6,69.6 27,76.7 24.3,84.2 C21.6,91.8 20,99.6 18.6,107.6 C17.2,115.4 16,123.4 15.3,131.5 C14.6,139.5 14,147.5 13.5,155.6 C13,163.7 12.2,171.7 11.4,179.7 C10.8,185.1 10.5,193 10.3,202.1 C10.1,209 9.9,216.7 9.9,224.6 C9.9,232.1 10.1,239.7 10.2,247.1 C10.3,255.2 10.2,262.9 10.3,269.6 C10.5,282.9 0.4,288.1 10.9,292.1 C21.6,296.2 22.4,291.9 33.8,291.8 C45.3,291.7 45.3,291.8 56.7,291.7 C68.2,291.6 68.2,291.5 79.6,291.5 C91.1,291.4 91.1,291.4 102.5,291.3 C114,291.2 114,291.5 125.4,291.4 C136.9,291.3 136.9,291.3 148.3,291.2 C159.8,291.1 159.8,290.6 171.2,290.5 C182.7,290.4 182.7,290.9 194.1,290.8 C205.6,290.7 205.6,290.5 217,290.4 C228.5,290.3 228.5,290.6 239.9,290.5 C251.4,290.4 251.4,290.1 262.8,290.1 C274.3,290 278,298.3 285.9,290 C294.1,281.3 285.6,277.9 285.6,266 C285.6,254.1 285.5,254.1 285.5,242.1 C285.5,230.2 285.8,230.2 285.7,218.2 C285.7,206.3 285.5,206.3 285.7,194.3 C286.2,182.3 286.4,182.3 286,170.4 Z" id="Path"></path>
                    <path d="M289.5,170.4 C288.3,159.9 286.6,149.4 284.9,139 C283.3,128.9 281.3,118.8 278.8,108.9 C273.9,89.8 265.5,71.7 253.5,56 C241.5,40.3 225.2,28 207.3,19.9 C202.8,17.9 198.3,16.1 193.8,14.2 C188.9,12.2 184.1,10.3 179.1,8.5 C169.6,5.2 159.5,3 149.5,1.7 C138.7,0.3 128,0.4 117.3,2.1 C107.3,3.7 97.5,6.9 88.2,11 C70.1,19.1 53.5,30.7 40.8,46 C34.7,53.3 29.3,61.4 24.9,69.9 C20.2,78.9 17,88.3 14.9,98.2 C12.8,108.4 11.1,118.7 10.1,129 C9.1,139.4 8.5,149.7 7.7,160.1 C7,169.3 5.8,178.4 5.3,187.6 C4.8,197.2 4.6,206.9 4.4,216.5 C4.2,226.6 4.5,236.7 4.5,246.7 C4.5,251.7 4.5,256.6 4.6,261.6 C4.6,263.9 4.6,266.2 4.7,268.5 C4.7,269.5 4.7,270.4 4.7,271.4 C4.7,271.9 4.6,272.4 4.6,272.8 C4.6,273 4.5,273.2 4.5,273.4 C4.4,274.1 4.7,272.3 4.5,273.5 C3.9,276.4 2.8,279.1 1.8,281.9 C0.9,284.4 0.2,287.1 1.1,289.7 C2.3,293.2 5.8,295.2 9,296.4 C12.8,297.8 16.8,298.9 20.9,298.5 C24.2,298.2 27.4,297.2 30.7,296.7 C31.8,296.5 29.6,296.8 30.8,296.7 C31.3,296.7 31.9,296.6 32.4,296.6 C33.6,296.5 34.8,296.5 36,296.5 C37.9,296.5 39.9,296.5 41.8,296.5 C48.8,296.5 55.9,296.5 62.9,296.4 C76.8,296.3 90.6,296.1 104.5,296 C111.3,296 118.1,296.2 124.9,296.1 C131.7,296.1 138.5,296 145.3,296 C152.3,296 159.3,295.6 166.3,295.4 C173.3,295.2 180.3,295.5 187.4,295.6 C201.7,295.9 216,295.1 230.2,295.3 C237.4,295.4 244.6,295.3 251.8,295.1 C255.2,295 258.5,294.9 261.9,294.9 C262.9,294.9 264,294.9 265,294.9 C266.1,294.9 263.8,294.7 265.2,294.9 C265.6,295 266.1,295 266.5,295.1 C267.3,295.3 268.1,295.5 269,295.7 C269.3,295.8 269.6,295.9 270,296 C268.3,295.6 269.6,295.9 270.1,296 C273.3,297.2 276.5,298.5 280,298.3 C285,298 288.8,295.3 292,291.7 C294.4,289 296.2,285.5 295.9,281.9 C295.7,278.8 294.5,276.1 293.5,273.3 C293.3,272.6 293,271.9 292.8,271.2 C292.7,270.8 292.6,270.4 292.5,270 C292.5,269.8 292.4,269.6 292.4,269.4 C292.4,269.2 292.2,268.2 292.3,268.9 C292.4,269.6 292.2,268.3 292.2,268.1 C292.1,267.6 292.1,267.1 292.1,266.6 C292.1,265.4 292.1,264.2 292.1,263.1 C292.1,259.9 292.1,256.6 292.1,253.4 C292.1,246.2 292,239 292.2,231.8 C292.5,217.7 292.2,203.6 292.5,189.4 C292.6,183 292.6,176.6 292.3,170.2 C292.2,167.2 289.1,165.1 286.2,165.2 C283.5,165.3 280,167 280.1,170.2 C280.5,183.5 279.9,196.8 280,210.1 C280.1,224.3 279.8,238.5 279.9,252.6 C279.9,255.5 279.9,258.5 279.9,261.4 C279.9,265.7 280,269.8 281.2,274 C282,276.6 282.9,279.3 283.8,281.8 C284,282.3 283.7,281.1 283.7,281.1 C283.7,281.2 283.7,281.4 283.7,281.5 C283.7,281.8 283.8,282.1 283.7,282.4 C283.7,282.7 283.7,282.9 283.7,283.2 C283.7,283.9 283.4,282.9 283.8,282.7 C283.7,282.7 283.7,283.2 283.7,283.2 C283.6,283.5 283.5,283.8 283.4,284 C283.1,284.8 284,283.1 283.4,284.1 C282.9,284.9 282.4,285.5 281.8,286.3 C281.5,286.8 281.9,286.2 282,286.1 C281.8,286.3 281.7,286.4 281.5,286.6 C281.2,286.9 280.8,287.3 280.4,287.6 C280.3,287.7 279.5,288.2 279.5,288.3 C279.5,288.2 280.7,287.6 279.9,288.1 C279.7,288.2 279.5,288.3 279.4,288.4 C279.3,288.5 279.1,288.5 279,288.6 C278.6,288.9 279.8,288.3 279.8,288.3 C279.6,288.3 279.1,288.4 278.9,288.5 C278.6,288.6 280.5,288.5 279.5,288.4 C279.2,288.4 277.9,288.3 279.1,288.4 C280.3,288.5 279.3,288.4 279,288.3 C278.7,288.2 278.4,288.2 278.1,288.1 C277.8,288 277.6,287.9 277.3,287.9 C276.5,287.7 278.7,288.4 277.4,287.9 C275.6,287.3 273.9,286.6 272.1,286.1 C265.2,284 257.6,284.9 250.5,285.1 C236.4,285.5 222.3,285 208.2,285.3 C201.2,285.5 194.1,285.7 187,285.5 C180.1,285.4 173.2,285.2 166.3,285.4 C159.5,285.6 152.8,286 146,286 C139.4,286.1 132.9,286.1 126.3,286.2 C119.7,286.3 113,286.1 106.4,286.1 C99.6,286.1 92.8,286.2 86,286.3 C72,286.4 58.1,286.6 44.1,286.7 C40.4,286.7 36.7,286.7 33.1,286.8 C29.3,286.9 25.7,287.6 22.1,288.4 C21.5,288.5 20.8,288.7 20.2,288.8 C19.2,289 20.1,288.7 20.6,288.8 C20.2,288.8 19.8,288.9 19.5,288.9 C19.2,288.9 18.9,288.9 18.6,288.9 C18.4,288.9 18.3,288.9 18.1,288.9 C17.5,288.9 18.9,289 18.8,289 C17.9,288.7 17,288.7 16.1,288.4 C15.7,288.3 15.3,288.1 14.8,288 C14.2,287.8 15,288.1 15.1,288.1 C14.8,288 14.5,287.9 14.1,287.7 C13.4,287.4 12.7,287.1 12,286.7 C11.2,286.3 12.9,287.4 12.3,286.9 C12.1,286.7 11.4,286 12.1,286.8 C12.8,287.6 12.2,286.9 12.1,286.7 C11.8,285.9 12.7,287.8 12.3,287 C12.2,286.8 12.1,286 12.3,287 C12.5,288 12.3,287.1 12.4,286.9 C12.4,286.7 12.5,286.5 12.4,286.3 C12.4,286.3 12.1,287.5 12.3,287.1 C12.4,286.9 12.4,286.7 12.4,286.6 C12.7,285.5 13.1,284.4 13.5,283.4 C14.7,280.2 15.7,277.1 16.2,273.8 C16.8,269.7 16.4,265.5 16.4,261.3 C16.4,256.4 16.4,251.5 16.3,246.7 C16.1,227.4 15.9,208 16.9,188.7 C17.3,179.8 18.5,170.9 19.2,162 C20,151.9 20.6,141.8 21.4,131.7 C22.3,121.5 23.7,112.2 25.6,102.4 C27.5,93 30.1,83.9 34.4,75.3 C34.5,75.2 35,74.1 34.8,74.5 C35.1,74 35.4,73.4 35.7,72.9 C36.3,71.8 36.9,70.7 37.5,69.7 C38.7,67.6 40,65.6 41.3,63.6 C43.9,59.7 46.5,55.9 49.4,52.2 C52.5,48.3 54.8,45.8 58.3,42.4 C61.7,39.2 65.3,36.1 69,33.3 C76.4,27.6 83.9,23.4 92.8,19.3 C95,18.3 97.2,17.4 99.4,16.5 C100.5,16.1 101.5,15.7 102.6,15.3 C102.8,15.2 103.1,15.1 103.3,15 C104.1,14.7 102.6,15.2 103.5,14.9 C104.1,14.7 104.7,14.5 105.3,14.3 C109.9,12.8 114.6,11.7 119.3,10.8 C120.5,10.6 121.7,10.4 122.8,10.2 C123.4,10.1 124.1,10 124.7,10 C124.7,10 125.6,9.9 125.1,10 C124.6,10.1 125.7,9.9 125.7,9.9 C128.2,9.7 130.7,9.5 133.2,9.5 C135.7,9.4 138.2,9.5 140.7,9.6 C141.9,9.7 143.1,9.8 144.3,9.9 C144.7,9.9 145,10 145.4,10 C145.3,10 144.7,9.9 145.3,10 C145.9,10.1 146.6,10.2 147.2,10.2 C156.9,11.5 166.7,13.6 176,16.7 C176.3,16.8 176.7,16.9 177,17.1 C176.9,17.1 176.4,16.9 177,17.1 C177.5,17.3 178,17.5 178.5,17.7 C179.8,18.2 181,18.7 182.3,19.1 C184.5,20 186.7,20.8 188.9,21.7 C193.4,23.5 198,25.3 202.5,27.3 C206.9,29.3 211.1,31.6 215.2,34 C219.1,36.3 222.6,38.6 226.4,41.6 C233.8,47.3 240.1,53.6 245.6,60.9 C251.1,68.2 256.3,76.1 260.2,84.3 C264.4,93.1 267.8,102.3 270.4,111.7 C273.1,121.4 275.2,131.3 277.1,141.1 C279,150.7 281,160.4 282.5,170.1 C282.8,171.9 284.2,173 286,173 C287.5,173.3 289.7,172.2 289.5,170.4 Z" id="Path"></path>
                </g>
                <g id="Group" transform="translate(12.000000, 699.000000)" fill="#000000">
                    <path d="M5.9,193.7 C7.1,186.7 8.9,179.7 10.6,172.8 C12.4,165.9 14.2,159 16.6,152.3 C18.9,145.6 21.3,138.8 24.1,132.3 C27,125.8 30.4,119.5 33.8,113.2 C37.2,106.9 40.9,100.8 44.8,94.8 C48.7,88.8 52.8,83 57.1,77.3 C61.4,71.6 65.6,65.8 70.4,60.5 C75.2,55.2 80.2,50.1 85.4,45.2 C90.6,40.3 96.2,35.9 101.8,31.4 C107.4,26.9 113.3,22.7 119.4,18.9 C125.6,15.1 132,11.7 138.7,9.3 C145.5,6.8 152.5,5.2 159.8,4.7 C167.4,4.2 174.8,5.4 182,7.3 C189.2,9.1 196.3,11.6 202.9,15.2 C209.4,18.7 215.6,23.1 221.5,27.7 C227.4,32.3 232.8,37.6 238,42.8 C243.4,48.3 248.9,53.6 253.8,59.6 C258.7,65.5 263,71.9 267.3,78.3 C271.7,84.6 276.2,90.9 280,97.6 C283.8,104.3 286.9,111.4 290,118.4 C293.1,125.4 296,132.6 298.3,139.9 C300.6,147.2 302.3,154.7 303.8,162.3 C305.3,169.8 306.2,177.4 306.7,185.1 C307.2,192.6 308,200.3 308.5,207.8 C309,215.5 309.7,223.2 310.2,230.5 C310.8,238.5 311.2,246.1 311.7,253.3 C312.3,261.8 312.5,269.5 313,276.1 C314,290 325.3,294.2 314.9,298.7 C304.2,303.3 303.3,299.3 291.6,299.8 C279.9,300.3 279.9,300.5 268.3,301 C256.6,301.5 256.6,301.4 244.9,301.9 C233.2,302.4 233.2,302.2 221.5,302.7 C209.8,303.2 209.8,303.5 198.2,304.1 C186.5,304.6 186.5,304.7 174.9,305.2 C163.2,305.7 163.2,305.3 151.5,305.8 C139.8,306.3 139.8,306.2 128.1,306.7 C116.4,307.2 116.4,307.6 104.8,308.1 C93.1,308.6 93.1,308.6 81.4,309.1 C69.7,309.6 69.7,309.2 58,309.7 C46.3,310.2 46.3,310.4 34.6,310.9 C22.9,311.4 19.8,319.9 11.3,312 C2.6,304 10.6,300.2 10,288.4 C9.5,276.6 9.5,276.6 8.9,264.7 C8.4,252.9 8.7,252.9 8.2,241 C7.7,229.2 7.8,229.2 7.1,217.3 C6.4,205.5 5.9,205.5 5.9,193.7 Z" id="Path"></path>
                    <path d="M9.5,194.5 C11.4,184.3 14.2,174.2 17.1,164.2 C20,154.2 23.5,144.3 27.7,134.8 C31.8,125.3 36.9,116.1 42.2,107.3 C47.5,98.4 53.3,89.7 59.6,81.4 C65.6,73.4 71.6,65.5 78.6,58.2 C85.6,50.9 93.1,44.1 101,37.7 C116.5,25.3 133.2,13.5 152.8,9.8 C155.3,9.3 157.1,9.1 159.4,8.9 C162,8.7 164.5,8.7 167.1,8.9 C169.5,9.1 171.6,9.3 174.2,9.8 C176.7,10.3 179.2,10.8 181.6,11.5 C190.8,14 199.8,17.8 207.8,23.2 C216.2,28.8 223.9,35.3 231.1,42.5 C238.1,49.5 245.2,56.3 251.3,64.1 C257.6,72.1 263.2,80.7 268.9,89.1 C274.6,97.5 279.2,106.3 283.3,115.5 C287.5,124.9 291.5,134.5 294.4,144.4 C297.2,154.2 299.3,164.3 300.6,174.5 C301.2,179.8 301.6,185.1 302,190.4 C302.4,195.6 302.9,200.8 303.3,206 C304.1,216.6 304.9,227.2 305.6,237.8 C306.2,247.8 306.9,257.8 307.4,267.8 C307.6,272.2 307.7,276.7 308.6,281 C309.4,284.4 310.9,287.6 312.5,290.7 C312.8,291.3 313.1,291.8 313.4,292.4 C313.8,293.2 313.2,292 313.3,292.3 C313.4,292.6 313.5,292.8 313.7,293.1 C313.9,293.5 314,294 314.2,294.4 C314.5,295.1 314.2,293.8 314.1,294 C314.1,294.2 314.1,294.5 314.1,294.7 C314.1,294.9 314.3,293.5 314.1,294.2 C313.9,295 314.5,293.5 314.3,293.8 C313.8,294.6 314.1,293.5 314.6,293.6 C314.5,293.6 314,294.1 314,294.1 C313.3,294.7 314.5,293.9 314.1,294 C313.7,294.2 313.4,294.4 313.1,294.5 C312.7,294.7 312.3,294.9 311.9,295 C311.7,295.1 311.4,295.2 311.2,295.3 C311.1,295.3 310.1,295.7 310.7,295.5 C311.2,295.3 310.5,295.6 310.5,295.6 C310.2,295.7 309.9,295.8 309.7,295.9 C309.3,296 308.9,296.1 308.5,296.2 C308.1,296.3 307.8,296.4 307.4,296.4 C307.2,296.4 307.1,296.4 306.9,296.5 C306.2,296.6 308.3,296.4 307.2,296.5 C306.6,296.5 306,296.5 305.4,296.5 C305.1,296.5 304.8,296.4 304.5,296.4 C305.3,296.2 305.6,296.5 305,296.5 C304.8,296.5 304.6,296.4 304.4,296.4 C300.6,295.8 296.9,295.3 293.1,295.4 C286.1,295.5 279,296.1 272,296.5 C264.9,296.8 257.8,297 250.7,297.3 C236.3,297.9 221.8,298.3 207.4,299.2 C200.1,299.7 192.8,299.9 185.5,300.3 C178.1,300.6 170.8,301 163.4,301 C156.1,301 148.8,301.4 141.4,301.7 C134.1,302 126.8,302.2 119.5,302.7 C105.1,303.8 90.6,304.5 76.2,304.8 C69,305 61.8,305 54.6,305.3 C47.7,305.6 40.7,305.8 33.9,306.4 C29.7,306.8 25.9,308 22.1,309.6 C21.5,309.9 20.8,310.1 20.2,310.4 C19.3,310.8 19.9,310.3 20.4,310.4 C20.1,310.4 19.6,310.6 19.3,310.7 C19,310.8 18.8,310.8 18.5,310.9 C17.6,311.1 19.8,310.6 18.9,310.8 C18.8,310.8 18.4,310.7 18.3,310.8 C18.3,310.8 19.6,311 19.1,310.9 C19,310.9 18.1,310.7 18.1,310.7 C18.2,310.6 19.3,311.2 18.2,310.7 C18,310.6 17,310 17.5,310.3 C18.1,310.7 17.1,310 16.9,309.8 C16.5,309.5 16.1,309.1 15.7,308.7 C15.5,308.5 15.4,308.4 15.2,308.2 C14.6,307.7 15.6,308.7 15.1,308.2 C14.8,307.9 14.6,307.6 14.3,307.3 C14.1,307 13.9,306.7 13.7,306.4 C13.1,305.5 13.9,307 13.5,306.1 C13.4,305.8 13.3,305.5 13.2,305.3 C12.9,304.5 13.2,305.6 13.2,305.4 C13.2,304.8 13.2,304.1 13.2,303.5 C13.3,302.6 13.1,303.9 13.2,303.6 C13.3,303.3 13.3,302.9 13.4,302.6 C13.6,302 13.8,301.3 14,300.7 C15.1,297.2 16,293.6 16,289.9 C16,286.1 15.7,282.3 15.5,278.5 C15.2,271.2 14.8,263.8 14.6,256.5 C14.3,242.2 13.9,227.9 12.8,213.7 C12.3,207.1 11.6,200.5 11.6,193.9 C11.6,188 0.7,187.9 0.7,193.9 C0.7,197.6 0.6,201.4 0.9,205.1 C1.2,208.5 1.5,211.9 1.7,215.2 C2.2,222.3 2.5,229.5 2.8,236.6 C3.4,251.2 3.8,265.9 4.4,280.5 C4.6,284.6 5.1,288.8 4.6,292.9 C4.5,293.8 4.7,292.4 4.5,293.3 C4.4,293.7 4.3,294.2 4.2,294.6 C4,295.4 3.8,296.2 3.5,297 C3.1,298.3 2.7,299.7 2.4,301 C1.6,304.6 2,307.9 4,311.1 C6.2,314.7 10,317.8 14,319.2 C17.9,320.6 21.7,319.9 25.5,318.4 C26.9,317.9 28.2,317.2 29.6,316.7 C29.8,316.6 29.9,316.6 30.1,316.5 C30.7,316.3 29.7,316.7 29.7,316.6 C30,316.4 30.6,316.3 31,316.2 C31.9,316 32.8,315.8 33.7,315.6 C34,315.6 34.3,315.5 34.6,315.5 C34.5,315.5 33.6,315.6 34.3,315.5 C34.8,315.5 35.4,315.4 35.9,315.4 C37.1,315.3 38.3,315.3 39.5,315.2 C41.2,315.1 42.9,315 44.6,314.9 C47.7,314.7 50.9,314.5 54,314.4 C61.4,314 68.7,314 76,313.8 C83.3,313.6 90.6,313.2 98,312.9 C112.8,312.2 127.6,311.1 142.4,310.6 C157.3,310 172.2,309.8 187.1,309.1 C202,308.4 216.9,307.3 231.8,306.9 C246.6,306.5 261.5,306 276.3,305.2 C279.3,305 282.3,304.8 285.2,304.7 C287.4,304.6 289.6,304.5 291.8,304.4 C293.7,304.3 296.1,304 298,304.6 C296.7,304.2 297.8,304.6 298.2,304.6 C298.5,304.6 298.9,304.7 299.2,304.8 C299.9,304.9 300.7,305 301.4,305.1 C303.1,305.3 304.9,305.6 306.6,305.5 C310.9,305.3 315.3,304 319.1,302 C322,300.4 324.9,298 324.9,294.4 C324.9,291.7 323.4,289.2 322.2,286.9 C322,286.6 321.9,286.3 321.7,286 C321.5,285.5 321.3,285.3 321.7,285.9 C321.3,285.2 321,284.5 320.7,283.7 C320,282.1 319.4,280.4 319.1,278.7 C319.1,278.5 318.8,277.2 318.9,278 C318.8,277.5 318.8,277.1 318.7,276.6 C318.6,275.5 318.5,274.4 318.5,273.2 C318.4,270.9 318.2,268.6 318.1,266.2 C317,245.1 315.4,224.1 313.7,203 C312.8,192.3 312.3,181.5 310.8,170.9 C309.3,160.1 307,149.4 303.7,139 C300.5,128.9 296.3,119.3 291.9,109.7 C287.4,99.9 282.2,90.7 276,81.9 C270.2,73.5 264.6,64.8 257.9,56.9 C251.1,48.9 243.5,41.4 235.9,34.1 C228.3,26.8 220,20.3 211.1,14.8 C202.1,9.2 192.1,5.4 181.8,2.9 C171.1,0.3 160.2,-0.2 149.4,2 C139.1,4.1 129.4,8.2 120.3,13.5 C111.1,18.8 102.7,25.2 94.4,31.8 C86.3,38.3 78.6,45.4 71.5,53 C64.2,60.7 57.9,69 51.6,77.4 C45.2,86 39.3,94.9 34,104.2 C28.7,113.4 23.5,123 19.4,132.9 C15.3,142.7 12,153 9.2,163.3 C6.5,173.3 4,183.5 2.4,193.7 C2.1,195.4 4.3,196.6 5.6,196.7 C6.8,196.9 9.2,196.2 9.5,194.5 Z" id="Path"></path>
                </g>
                <g id="Group" opacity="0.85" transform="translate(75.000000, 53.000000)" fill="#909090">
                    <g id="Path">
                        <path d="M18.4,177.1 C19.1,176.5 19.8,175.9 20.5,175.3 C20.1,175.6 19.8,175.9 19.3,176.1 C18.9,176.4 18.7,176.7 18.4,177.1 Z"></path>
                        <path d="M22.4,173.6 C22.5,173.5 22.7,173.4 22.8,173.3 C22.9,173.2 23,173.1 23.1,173 L22.4,173.6 Z"></path>
                        <path d="M26,170.2 C25.3,170.8 24.7,171.3 24.2,171.9 C24.7,171.4 25.3,170.9 26,170.2 Z"></path>
                        <path d="M23,172.7 C23.3,172.6 23.4,172.5 23.1,172.9 L23.1,172.9 C23.4,172.6 23.8,172.2 24.1,171.9 C23.7,172.2 23.3,172.5 23,172.7 Z"></path>
                        <path d="M23,172.7 C22.7,172.8 22.4,173.1 22.2,173.2 C22.5,173.1 22.7,172.9 23,172.7 Z"></path>
                        <path d="M22.8,170.6 C23.1,170.2 23.4,170.7 24,169.9 C25.6,168.3 26.9,166.8 28.5,165.4 C29.1,164.7 30.6,164.1 31.3,163.3 C32.9,161.7 36.8,157.3 34.3,159.6 C30.6,163.1 28.1,165.4 24.8,168.6 C22.1,171.2 19.6,173.9 16.9,176.5 C16.1,177.2 15.3,177.8 14.5,178.5 C15.5,177.7 16.6,176.9 17.8,176 C19.2,174.8 20.6,172.8 22.8,170.6 Z"></path>
                        <path d="M2.7,190.2 C3,189.8 3.7,189.1 3.7,189.1 C5.6,188 7.2,186.4 8.8,184.8 C8.5,185 8.2,185.1 7.9,185.3 C6.9,186.2 6.9,186.4 7.9,185.7 C5.7,187.2 3.8,188.8 1.9,190.5 C2,190.5 2.1,190.6 2.7,190.2 Z"></path>
                        <path d="M0.7,191.5 C1.1,191.2 1.4,190.8 1.8,190.5 C1.8,190.5 1.8,190.5 1.7,190.5 C1.4,190.9 1,191.2 0.7,191.5 L0.7,191.5 Z"></path>
                        <path d="M33.3,163 C38.1,158.7 42.5,154.6 46.9,150.6 C47.2,150.2 47.3,149.9 47.8,149.6 C48.2,149.4 48.6,149.1 48.9,148.8 C49.5,148.2 50.2,147.6 50.8,147.1 C51,146.9 51.2,146.7 51.4,146.5 C51.4,146.5 51.4,146.5 51.4,146.5 C51.7,146.1 51.6,146.2 51.3,146.3 C51,146.5 50.8,146.7 50.5,146.8 C50.7,146.7 51,146.5 51.3,146.3 C51.6,146.1 52,145.8 52.4,145.5 C53,145 53.6,144.4 54.2,143.8 C53.5,144.5 52.9,145 52.4,145.5 C52,145.9 51.7,146.2 51.4,146.5 C51.3,146.6 51.2,146.7 51.1,146.8 C52.6,145.5 54.1,144.2 55.5,142.9 C55.8,142.6 56.1,142.3 56.4,142 C57.4,141 58.4,140 59.2,139.6 C59.5,139.4 59.7,139.1 60,138.9 L59.8,139 C59.9,138.9 60,138.8 60.1,138.8 C61.2,137.8 62.3,136.9 63.5,135.9 C64.2,135.2 64.8,134.4 65.5,133.7 C65.5,133.7 66.1,133.4 66.4,133.2 C66.6,132.8 67,132.4 67.5,131.9 C66.8,132.3 66.2,132.7 65.6,133.1 C64.7,133.6 64.3,134.9 63.1,135.4 C64.3,134.9 64.7,133.6 65.6,133.1 C66.2,132.7 66.8,132.3 67.5,131.9 C68.5,130.9 69.9,129.8 71.1,128.9 C69.9,130.3 68.6,131.2 67.5,131.9 C67,132.4 66.6,132.8 66.4,133.2 C66.1,133.4 65.5,133.7 65.5,133.7 C64.8,134.4 64.1,135.2 63.5,135.9 C65.7,134 67.9,132.1 70.2,130.1 C84.4,117 97.3,104.7 112,91 C120,83.6 127.7,76.6 135.3,69.7 C136.2,68.8 137.2,68 138.1,67.1 C139,66.2 139.9,65.3 140.8,64.5 C142.6,62.7 144.4,61 146.1,59.3 C149.6,55.8 153,52.3 156.6,48.9 C163.6,42 170.8,35.4 178.3,28.3 C181.2,25.6 185.1,21.5 189.1,17.5 C193,13.4 196.9,9.4 199.5,6.7 C206.1,-1.2 200.9,1.2 200.5,1.5 C194.9,4.8 192.1,9 182.4,17.4 C188.9,11.5 178.7,22.8 172.2,27.9 C167.5,31.6 162.2,36.5 156.9,41.9 C151.5,47.2 146.1,53.1 140.8,58.1 C139.5,59.4 138.1,60.7 136.7,62.1 C136,62.8 135.3,63.5 134.6,64.3 C133.8,65 133.1,65.7 132.3,66.5 C115.3,81.7 100.6,96.9 83.1,113.3 C78.5,117.7 74.8,121.9 71.1,125.7 C68.4,128.5 65,131 62.7,133.2 C59,136.5 55.9,139.5 53,142.4 C56.4,139.3 58.8,137 62.6,133.5 C65.1,131.2 61.2,135.5 59.6,137.1 C58.9,137.8 57.5,138.4 56.8,139.2 C55.2,140.6 53.9,142.1 52.3,143.7 C51.6,144.4 51.4,144 51.1,144.4 C48.9,146.6 47.6,148.6 46,149.9 C44.8,150.9 43.8,151.7 42.8,152.5 C42.2,153 41.5,153.6 40.9,154.2 C40.5,154.6 40.1,155 39.7,155.4 C40.1,155.2 40.4,155.2 40.6,155.3 C40,155.8 39.1,156.5 38.4,157.1 C39,156.6 39.9,155.9 40.6,155.3 C40.4,155.3 40.1,155.2 39.7,155.4 C36.9,158.4 33.6,161.7 30.5,164.8 C30.5,164.8 30.5,164.8 30.6,164.8 C32.5,163.1 34.3,161.4 36.5,159.9 C35.6,160.6 35.6,160.4 36.5,159.5 C36.8,159.3 37.1,159.2 37.4,159 C35.8,160.6 34.2,162.3 32.4,163.4 C32.4,163.4 31.7,164.1 31.4,164.5 C30.8,164.9 30.7,164.8 30.5,164.8 C30.1,165.1 29.8,165.5 29.4,165.8 C30.6,165 33.3,163 33.3,163 Z"></path>
                        <path d="M52.6,145.4 C52.4,145.6 52,145.9 51.7,146.3 C52.9,145.2 54.2,144.1 55.4,143 C54.7,143.4 53.7,144.4 52.6,145.4 Z"></path>
                    </g>
                </g>
                <g id="Group" opacity="0.85" transform="translate(106.000000, 75.000000)" fill="#909090">
                    <g id="Path">
                        <path d="M21.7,235 C22.5,234.1 23.4,233.3 24.2,232.4 C23.8,232.8 23.3,233.2 22.8,233.6 C22.3,234.2 22,234.5 21.7,235 Z"></path>
                        <path d="M26.5,230.1 C26.7,229.9 26.8,229.8 26.9,229.6 C27,229.5 27.1,229.3 27.2,229.2 L26.5,230.1 Z"></path>
                        <path d="M30.7,225.5 C29.9,226.3 29.2,227 28.5,227.8 C29.2,227.2 29.9,226.4 30.7,225.5 Z"></path>
                        <path d="M27.2,229 C27.5,228.8 27.7,228.7 27.3,229.2 L27.3,229.2 C27.7,228.7 28.1,228.3 28.6,227.8 C28.1,228.3 27.6,228.7 27.2,229 Z"></path>
                        <path d="M27.2,229 C26.9,229.2 26.4,229.6 26.3,229.7 C26.6,229.5 26.9,229.3 27.2,229 Z"></path>
                        <path d="M27.1,226.7 C27.5,226.2 27.7,226.7 28.5,225.7 C30.4,223.5 32,221.6 33.9,219.6 C34.7,218.6 36.5,217.6 37.2,216.7 C39.2,214.5 43.9,208.8 40.9,211.9 C36.3,216.7 33.3,219.8 29.3,224.1 C26.1,227.7 23,231.2 19.7,234.9 C18.8,235.9 17.8,236.8 16.9,237.7 C18.1,236.5 19.4,235.3 20.8,234 C22.7,232.3 24.4,229.6 27.1,226.7 Z"></path>
                        <path d="M2.9,253.5 C3.3,253 4.1,252.1 4.1,252.1 C6.3,250.4 8.3,248.2 10.3,246.1 C9.9,246.3 9.6,246.6 9.2,246.8 C8,248 8,248.2 9.1,247.3 C6.5,249.5 4.2,251.7 1.9,254.1 C2.1,254 2.2,254.1 2.9,253.5 Z"></path>
                        <path d="M0.5,255.4 C0.9,254.9 1.4,254.5 1.8,254 C1.8,254 1.7,254 1.7,254 C1.3,254.5 0.9,255 0.5,255.4 L0.5,255.4 Z"></path>
                        <path d="M39.7,215.8 C42.6,212.8 45.4,210 48.2,207.2 C51,204.4 53.8,201.8 56.5,199.1 C56.9,198.6 57.1,198.3 57.7,197.8 C58.2,197.4 58.7,197.1 59.1,196.7 C59.9,195.9 60.7,195.2 61.5,194.4 C61.8,194.1 62,193.8 62.3,193.5 C62.3,193.5 62.3,193.5 62.3,193.5 C62.7,193 62.5,193.1 62.2,193.3 C61.9,193.6 61.5,193.8 61.3,194 C61.5,193.9 61.9,193.5 62.2,193.3 C62.6,193 63.1,192.6 63.6,192.1 C64.3,191.4 65,190.6 65.8,189.8 C65,190.7 64.3,191.5 63.6,192.1 C63.2,192.6 62.7,193 62.3,193.5 C62.2,193.6 62.1,193.8 61.9,193.9 C63.7,192.1 65.5,190.3 67.3,188.5 C67.7,188.1 68.1,187.7 68.4,187.3 C69.6,185.9 70.9,184.6 71.8,183.9 C72.1,183.6 72.4,183.3 72.8,182.9 C72.7,183 72.7,183 72.6,183.1 C72.8,183 72.9,182.9 73,182.8 C74.3,181.4 75.7,180.1 77.1,178.7 C77.9,177.7 78.7,176.8 79.6,175.8 C79.6,175.8 80.3,175.3 80.7,175 C81,174.5 81.4,173.9 82,173.3 C81.2,173.9 80.4,174.5 79.7,175.1 C78.6,175.9 78,177.5 76.7,178.3 C78.1,177.5 78.7,175.9 79.7,175.1 C80.4,174.6 81.1,174 82,173.3 C83.2,171.9 84.9,170.3 86.3,169 C84.8,170.9 83.4,172.2 82,173.3 C81.4,174 81,174.6 80.7,175 C80.3,175.3 79.6,175.8 79.6,175.8 C78.8,176.8 77.9,177.8 77.1,178.7 C79.8,176 82.4,173.3 85.1,170.5 C93.6,161.4 102.2,153.1 110.7,144.4 C119.1,135.7 127.6,126.9 136.8,117.8 C141.8,112.9 146.6,108 151.4,103.2 C153.8,100.8 156.2,98.5 158.6,96.1 C161,93.7 163.3,91.4 165.6,89.1 C170.3,84.5 174.7,79.8 179.3,75.4 C181.6,73.2 183.9,71 186.2,68.8 C188.5,66.6 190.7,64.3 192.9,62.1 C201.7,53.1 210.7,44.2 220.4,35.1 C227.8,28.1 240.9,14.4 247.7,7.3 C256.4,-2.7 250.1,0.8 249.6,1.1 C242.7,5.7 238.9,10.8 226.7,22 C235,14.3 221.7,28.8 213.4,35.5 C207.4,40.3 200.8,46.9 194,54 C190.6,57.5 187.2,61.2 183.8,64.7 C180.3,68.2 176.7,71.6 173.3,74.9 C171.5,76.5 169.8,78.3 168.1,80.2 C166.3,82 164.5,84 162.5,86 C157.3,91.2 152.2,96.3 147.2,101.4 C142.2,106.5 137.2,111.6 132.2,116.8 C122.1,127 112.4,137.8 101.4,148.7 C98.5,151.6 95.9,154.4 93.4,157.2 C90.9,159.9 88.6,162.7 86.3,165.3 C82.9,169.1 79.1,172.8 76.3,175.7 C71.8,180.3 68.1,184.4 64.5,188.3 C68.6,184 71.5,180.8 76.1,176 C79.2,172.8 74.4,178.6 72.5,180.8 C71.7,181.8 70,182.8 69.2,183.8 C67.3,185.7 65.7,187.7 63.8,189.9 C63,190.9 62.8,190.4 62.4,190.9 C59.7,193.8 57.9,196.3 56,198 C54.6,199.3 53.3,200.4 52,201.6 C51.2,202.3 50.4,203.1 49.6,203.9 C49.1,204.4 48.6,205 48.1,205.5 C48.6,205.2 48.9,205.2 49.2,205.2 C48.4,205.9 47.3,206.9 46.6,207.6 C47.4,206.9 48.5,205.9 49.2,205.2 C48.9,205.2 48.7,205.2 48.1,205.5 C44.6,209.4 40.6,213.9 36.8,218.1 C36.8,218.1 36.9,218.1 36.9,218.1 C39.2,215.7 41.4,213.5 44,211.3 C42.9,212.3 42.9,212.1 44.1,210.8 C44.5,210.5 44.8,210.3 45.2,210.1 C43.2,212.3 41.3,214.5 39.1,216.2 C39.1,216.2 38.3,217.2 37.9,217.6 C37.2,218.2 37.1,218.1 36.9,218.1 C36.5,218.6 36,219 35.6,219.5 C36.5,218.6 39.7,215.8 39.7,215.8 Z"></path>
                        <path d="M63.7,192 C63.4,192.3 63,192.7 62.6,193.2 C64.1,191.7 65.6,190.2 67.1,188.7 C66.1,189.3 64.9,190.6 63.7,192 Z"></path>
                    </g>
                </g>
                <g id="Group" opacity="0.85" transform="translate(99.000000, 86.000000)" fill="#909090">
                    <g id="Path">
                        <path d="M25.8,279.3 C26.8,278.3 27.8,277.2 28.9,276.2 C28.4,276.7 27.8,277.2 27.2,277.6 C26.5,278.3 26.2,278.7 25.8,279.3 Z"></path>
                        <path d="M31.7,273.4 C31.9,273.2 32.1,273 32.2,272.9 C32.4,272.7 32.5,272.6 32.6,272.4 C32.3,272.7 32,273 31.7,273.4 Z"></path>
                        <path d="M36.8,267.8 C35.9,268.7 35,269.7 34.2,270.6 C35,269.9 35.8,268.9 36.8,267.8 Z"></path>
                        <path d="M32.6,272.1 C33,271.8 33.2,271.7 32.7,272.3 C32.7,272.3 32.7,272.3 32.7,272.3 C33.2,271.7 33.7,271.2 34.2,270.6 C33.6,271.2 33.1,271.7 32.6,272.1 Z"></path>
                        <path d="M32.6,272.1 C32.2,272.4 31.7,272.8 31.5,273 C31.8,272.7 32.2,272.4 32.6,272.1 Z"></path>
                        <path d="M32.7,269.5 C33.2,268.9 33.4,269.4 34.4,268.2 C36.7,265.5 38.7,263.2 41,260.8 C42,259.6 44,258.3 44.9,257.1 C47.2,254.4 53.2,247.6 49.4,251.4 C46.6,254.3 44.4,256.7 42.2,259.1 C40,261.5 37.9,263.7 35.5,266.4 C31.6,270.8 27.8,274.9 23.8,279.3 C22.6,280.5 21.5,281.6 20.4,282.7 C21.9,281.3 23.4,279.8 25.1,278.2 C27.2,276.1 29.4,273.1 32.7,269.5 Z"></path>
                        <path d="M3.4,302.1 C3.9,301.5 4.8,300.3 4.8,300.3 C7.4,298.1 9.7,295.4 12.1,292.8 C11.7,293.1 11.3,293.4 10.8,293.8 C9.4,295.3 9.4,295.5 10.7,294.3 C7.6,297.1 4.9,299.9 2.2,302.8 C2.5,302.7 2.6,302.9 3.4,302.1 Z"></path>
                        <path d="M0.7,304.5 C1.2,303.9 1.8,303.3 2.3,302.8 C2.3,302.8 2.2,302.8 2.2,302.8 C1.6,303.4 1.1,304 0.7,304.5 L0.7,304.5 Z"></path>
                        <path d="M47.6,255.9 C54.6,248.7 61.3,242 67.8,235.4 C68.2,234.8 68.5,234.4 69.2,233.7 C69.8,233.2 70.3,232.8 70.8,232.3 C71.7,231.3 72.7,230.4 73.6,229.4 C73.9,229.1 74.2,228.7 74.6,228.3 C74.6,228.3 74.6,228.3 74.6,228.3 C75.1,227.7 74.9,227.8 74.5,228.1 C74.1,228.4 73.7,228.7 73.4,229 C73.6,228.8 74.1,228.4 74.5,228.1 C75,227.7 75.5,227.2 76.1,226.6 C76.9,225.7 77.8,224.8 78.7,223.8 C77.7,224.9 76.8,225.8 76.1,226.6 C75.6,227.2 75.1,227.7 74.6,228.3 C74.5,228.5 74.3,228.6 74.2,228.8 C76.4,226.6 78.5,224.4 80.6,222.2 C81.1,221.7 81.6,221.2 81.9,220.8 C83.4,219.2 85,217.6 86.1,216.8 C86.5,216.4 86.9,216.1 87.3,215.7 C87.2,215.8 87.1,215.8 87,215.9 C87.2,215.7 87.3,215.6 87.5,215.5 C89.2,213.9 90.9,212.3 92.6,210.7 C93.6,209.6 94.7,208.4 95.7,207.3 C95.7,207.3 96.6,206.7 97,206.4 C97.4,205.9 97.9,205.2 98.6,204.4 C97.6,205.2 96.7,205.9 95.9,206.6 C94.6,207.5 93.8,209.4 92.1,210.4 C93.7,209.4 94.6,207.6 95.9,206.6 C96.7,205.9 97.6,205.2 98.6,204.4 C100.1,202.8 102.1,200.7 103.8,199.2 C102,201.4 100.2,203 98.6,204.4 C97.9,205.2 97.3,205.9 97,206.4 C96.6,206.7 95.7,207.3 95.7,207.3 C94.7,208.5 93.6,209.6 92.6,210.7 C95.9,207.6 99.2,204.3 102.4,200.9 C105,198.2 107.5,195.4 110.1,192.8 C112.7,190.1 115.4,187.6 118,185.1 C123.3,180 128.6,175 133.7,169.7 C138.9,164.5 144.1,159.3 149.4,154 C152.1,151.4 154.7,148.7 157.4,146 C158.8,144.7 160.1,143.3 161.5,141.9 C162.9,140.6 164.3,139.2 165.7,137.9 C168.8,135 171.8,132.1 174.8,129.2 C177.8,126.4 180.8,123.4 183.7,120.5 C186.6,117.6 189.4,114.7 192.3,111.9 C195.2,109.1 198.2,106.4 201.1,103.7 C204,101 206.9,98.3 209.8,95.6 C212.6,92.9 215.4,90.2 218.1,87.5 C220.9,84.8 223.6,82.1 226.3,79.4 C229.1,76.7 231.8,74.1 234.6,71.5 C245.7,61 256.9,50.6 268.9,39.8 C273.5,35.7 279.9,29.6 286.3,23.6 C289.5,20.6 292.6,17.5 295.5,14.8 C298.4,12.1 301.2,9.8 303.5,7.8 C309.3,2.3 310.3,0.4 309.7,0.1 C309.2,-0.2 307.1,0.8 306.8,1 C302.5,3.6 299,6.2 294.7,9.9 C292.5,11.7 290.2,13.9 287.5,16.4 C284.8,18.9 281.6,21.7 277.8,25 C288.1,16 271.3,32.7 261.2,40.8 C253.8,46.6 245.6,54.3 237.1,62.5 C232.8,66.6 228.5,70.8 224.2,75 C219.9,79.2 215.7,83.5 211.5,87.4 C207.4,91.4 203,95.6 198,100.4 C196.4,101.9 194.7,103.4 193.1,104.9 C191.5,106.4 189.9,107.9 188.3,109.5 C185.2,112.6 182.2,115.8 179.1,118.9 C177.6,120.4 176.1,122 174.6,123.5 L169.9,128 C166.8,131 163.7,134.1 160.6,137.1 C154.4,143.2 148.3,149.5 142.1,155.9 C139,159.1 135.8,162.3 132.6,165.5 C129.4,168.7 126.2,172 122.8,175.3 C119.3,178.8 116,182.1 112.9,185.3 C109.8,188.5 106.9,191.8 104.2,194.9 C100.1,199.5 95.6,204 92,207.4 C86.5,212.8 81.6,217.5 77.3,222.3 C82.2,217 86.1,213.4 91.7,207.8 C95.5,204.1 89.5,210.8 87,213.4 C86,214.5 83.9,215.8 82.9,216.9 C80.5,219.2 78.5,221.5 76.2,224.2 C75.2,225.4 75,224.9 74.5,225.5 C71.2,229.1 69.1,232.2 66.9,234.3 C65.2,235.9 63.7,237.4 62.2,238.8 C61.3,239.7 60.3,240.6 59.4,241.6 C58.8,242.2 58.2,242.9 57.6,243.6 C58.2,243.2 58.5,243.1 58.8,243.1 C57.9,244 56.6,245.2 55.6,246.1 C56.5,245.2 57.8,244 58.8,243.1 C58.5,243.1 58.2,243.2 57.6,243.6 C55.5,245.9 53.2,248.5 50.8,251 C49.6,252.3 48.4,253.6 47.3,254.9 C46.1,256.2 45,257.5 43.8,258.8 C43.8,258.8 43.9,258.8 43.9,258.8 C45.3,257.3 46.6,255.9 48,254.5 C49.4,253.1 50.9,251.7 52.4,250.4 C51.1,251.6 51.1,251.3 52.5,249.9 C52.9,249.6 53.3,249.3 53.8,249 C51.4,251.6 49,254.2 46.4,256.4 C46.4,256.4 45.4,257.6 45,258.2 C44.2,259 44.1,258.8 43.9,258.9 C43.4,259.5 42.8,260 42.3,260.6 C43.7,259.5 47.6,255.9 47.6,255.9 Z"></path>
                        <path d="M76.1,226.6 C75.7,227 75.3,227.5 74.8,228 C76.6,226.2 78.4,224.3 80.2,222.5 C79.1,223.3 77.6,225 76.1,226.6 Z"></path>
                    </g>
                </g>
                <g id="Group" opacity="0.85" transform="translate(88.000000, 92.000000)" fill="#909090">
                    <g id="Path">
                        <path d="M30.2,344.2 C31.4,342.9 32.6,341.5 33.8,340.2 C33.2,340.9 32.6,341.5 31.9,342.1 C31,342.9 30.7,343.5 30.2,344.2 Z"></path>
                        <path d="M37,336.5 C37.2,336.3 37.4,336 37.6,335.8 C37.8,335.6 38,335.4 38.1,335.2 C37.8,335.6 37.4,336 37,336.5 Z"></path>
                        <path d="M43.1,329.3 C42,330.5 41,331.7 40,332.9 C40.9,331.9 41.9,330.8 43.1,329.3 Z"></path>
                        <path d="M38.1,334.9 C38.5,334.5 38.8,334.4 38.2,335.1 C38.2,335.1 38.2,335.1 38.2,335.1 C38.8,334.4 39.4,333.7 40,332.9 C39.3,333.7 38.7,334.3 38.1,334.9 Z"></path>
                        <path d="M38.1,334.9 C37.7,335.3 37,335.9 36.8,336.1 C37.2,335.7 37.6,335.3 38.1,334.9 Z"></path>
                        <path d="M38.4,332 C39,331.3 39.2,331.7 40.3,330.3 C41.7,328.6 43,327 44.2,325.5 C45.5,324 46.8,322.5 48.2,321 C49.4,319.6 51.8,317.8 53,316.3 C54.4,314.6 56.9,311.7 58.5,309.7 C60.1,307.7 60.7,306.8 58.5,309.2 C55.2,312.9 52.4,315.9 49.7,318.9 C48.4,320.4 47.1,321.8 45.7,323.3 C45,324 44.3,324.8 43.6,325.6 C42.9,326.4 42.2,327.2 41.5,328.1 C36.9,333.7 32.5,339.1 27.7,344.7 C26.3,346.3 25,347.7 23.7,349.1 C25.5,347.3 27.3,345.4 29.3,343.3 C32,340.4 34.5,336.5 38.4,332 Z"></path>
                        <path d="M4,373.8 C4.6,373.1 5.7,371.5 5.7,371.5 C8.6,368.5 11.3,365 14,361.6 C13.5,362 13,362.5 12.6,362.9 C11,364.8 10.9,365.1 12.4,363.5 C8.9,367.2 5.8,370.9 2.7,374.7 C2.9,374.7 3,374.8 4,373.8 Z"></path>
                        <path d="M0.8,377.1 C1.4,376.4 2,375.6 2.6,374.9 C2.6,374.9 2.5,374.9 2.5,375 C1.9,375.7 1.3,376.4 0.8,377.1 L0.8,377.1 Z"></path>
                        <path d="M56.2,314.4 C58.3,312.1 60.4,309.9 62.4,307.6 C64.4,305.3 66.3,303 68.2,300.8 C70.1,298.5 72,296.3 73.9,294.2 C75.9,292.1 77.9,290 79.9,287.9 C80.4,287.2 80.8,286.7 81.6,285.9 C82.3,285.3 82.9,284.7 83.6,284.1 C84.8,282.9 85.9,281.7 87.1,280.5 C87.5,280.1 87.9,279.6 88.3,279.2 C88.3,279.2 88.3,279.2 88.3,279.2 C88.9,278.5 88.7,278.6 88.2,279 C87.7,279.4 87.3,279.8 86.9,280.1 C87.1,279.9 87.8,279.3 88.2,279 C88.8,278.5 89.4,277.9 90.2,277.1 C91.2,276 92.3,274.8 93.4,273.6 C92.2,275 91.1,276.1 90.2,277.1 C89.6,277.8 88.9,278.5 88.3,279.2 C88.1,279.4 88,279.6 87.8,279.8 C90.5,277.1 93,274.3 95.6,271.5 C96.2,270.8 96.7,270.2 97.2,269.7 C99,267.6 100.8,265.6 102.1,264.5 C102.6,264 103,263.5 103.5,263 C103.4,263.1 103.3,263.2 103.2,263.3 C103.4,263.1 103.6,262.9 103.8,262.8 C105.7,260.7 107.7,258.6 109.8,256.6 C111.1,255.2 112.4,253.8 113.7,252.4 C113.7,252.4 114.7,251.6 115.3,251.2 C115.8,250.6 116.5,249.7 117.4,248.8 C116.2,249.8 115.1,250.7 114.1,251.5 C112.5,252.7 111.3,254.9 109.4,256.1 C111.3,254.8 112.5,252.6 114.1,251.5 C115.1,250.7 116.2,249.8 117.4,248.8 C119.3,246.8 121.8,244.4 123.9,242.4 C121.7,245.1 119.4,247.1 117.4,248.8 C116.5,249.7 115.8,250.6 115.3,251.2 C114.8,251.6 113.7,252.4 113.7,252.4 C112.4,253.8 111.1,255.2 109.8,256.6 C113.8,252.7 118,248.8 122.1,244.6 C125.4,241.2 128.5,237.8 131.6,234.4 C134.7,231 137.9,227.8 141.1,224.5 C144.3,221.3 147.5,218 150.6,214.8 C153.8,211.6 157,208.4 160.2,205.2 C163.4,202 166.6,198.8 169.9,195.6 C173.1,192.3 176.3,189 179.5,185.7 C182.7,182.4 186,179.1 189.5,176 C193,172.8 196.6,169.7 200.1,166.3 C203.9,162.6 207.5,158.8 211.1,155.1 C214.7,151.4 218.4,148 222.1,144.6 C225.9,141.2 229.6,137.9 233.3,134.4 C237,131 240.6,127.6 244.2,124.2 C246,122.5 247.8,120.8 249.6,119.2 C251.4,117.6 253.2,116 255,114.4 C258.6,111.2 262.3,108.1 265.8,104.8 C269.3,101.6 272.8,98.3 276.3,95.1 C279.8,91.9 283.2,88.7 286.8,85.5 C300.9,72.9 314.8,59.9 330.2,47.3 C333.1,44.8 336.7,41.9 340.6,38.6 C344.4,35.3 348.6,31.8 352.7,28.3 C361,21.3 369.2,14.3 374.8,9.5 C389.3,-3.9 380.2,1.1 379.4,1.6 C374.2,4.9 370,8.3 364.6,12.7 C359.2,17.1 352.6,22.6 342.8,30.3 C349.4,25 347.2,27.3 341.8,32 C339.1,34.4 335.5,37.4 331.9,40.4 C328.2,43.4 324.6,46.5 321.4,48.9 C312.1,55.8 301.9,65.4 291.1,75.3 C285.7,80.3 280.2,85.3 274.8,90.5 C272.1,93 269.4,95.6 266.7,98.1 C264,100.6 261.4,103 258.7,105.3 C256,107.6 253.3,110 250.4,112.6 C249,113.9 247.5,115.2 246,116.6 C244.5,118 243,119.4 241.5,120.9 C237.5,124.7 233.5,128.4 229.5,132.1 C225.5,135.8 221.5,139.4 217.6,143 C215.6,144.8 213.6,146.7 211.7,148.6 C209.8,150.5 207.9,152.5 206.1,154.5 C202.4,158.4 198.8,162.3 194.9,165.9 C191,169.5 186.9,173.1 183,177 C179,180.9 175.3,184.9 171.5,188.9 C169.6,190.9 167.7,192.9 165.7,194.8 C163.7,196.8 161.7,198.8 159.8,200.8 C155.8,204.8 151.7,208.8 147.7,212.9 C143.4,217.3 139.5,221.5 135.7,225.6 C131.9,229.7 128.5,233.8 125.1,237.7 C122.6,240.5 119.9,243.3 117.3,245.9 C114.6,248.5 112.1,250.9 109.9,253.1 C108.2,254.8 106.5,256.5 104.9,258.1 C103.3,259.8 101.9,261.4 100.5,263 C97.7,266.2 95,269.3 92.3,272.3 C95.3,269 97.8,266.1 100.5,263.2 C101.8,261.7 103.2,260.2 104.6,258.6 C106.1,257 107.7,255.4 109.4,253.6 C114.1,248.9 106.5,257.2 103.6,260.6 C102.4,262.1 100,263.9 98.8,265.3 C96,268.3 93.7,271.2 90.8,274.5 C89.6,276 89.4,275.5 88.8,276.2 C84.8,280.6 82,284.3 79.3,287 C77.2,289 75.4,290.9 73.6,292.7 C72.5,293.9 71.4,295.1 70.3,296.4 C69.6,297.2 69,298.1 68.3,299 C69,298.4 69.3,298.3 69.6,298.2 C68.6,299.4 67.1,301 66,302.2 C67,301 68.5,299.4 69.6,298.2 C69.3,298.3 68.9,298.4 68.3,299 C65.9,302.1 63.3,305.4 60.5,308.7 C57.7,312 54.8,315.2 52,318.4 C52,318.4 52.1,318.4 52.1,318.3 C53.8,316.5 55.4,314.7 57.1,312.9 C58.8,311.1 60.5,309.4 62.3,307.5 C60.8,309.1 60.8,308.8 62.5,306.9 C63,306.5 63.5,306 63.9,305.6 C61.2,309.1 58.3,312.3 55.2,315.1 C55.2,315.1 54,316.6 53.4,317.3 C52.4,318.3 52.3,318.1 52,318.3 C51.4,319 50.7,319.7 50.1,320.5 C51.6,319 56.2,314.4 56.2,314.4 Z"></path>
                        <path d="M90.2,277 C89.7,277.5 89.2,278.1 88.6,278.7 C90.8,276.4 93,274.1 95.2,271.7 C93.9,272.8 92,274.9 90.2,277 Z"></path>
                    </g>
                </g>
            </g>
        </g>
    </g>
</svg>