<?xml version="1.0" encoding="utf-8"?>
<!-- Generator: Adobe Illustrator 27.2.0, SVG Export Plug-In . SVG Version: 6.00 Build 0)  -->
<svg version="1.1" xmlns="http://www.w3.org/2000/svg" xmlns:xlink="http://www.w3.org/1999/xlink" x="0px" y="0px"
	 viewBox="0 0 1920 1080" style="enable-background:new 0 0 1920 1080;" xml:space="preserve">
<style type="text/css">
	.st0{display:none;}
	.st1{fill:#333333;}
	.st2{fill:#CCCCCC;}
	.st3{display:inline;}
	.st4{opacity:0.85;}
	.st5{fill:#909090;}
</style>
<g id="Layer_1" class="st0">
	
		<image style="display:inline;overflow:visible;" width="1280" height="609" xlink:href="../../../../Desktop/thumbnail_download.jpg"  transform="matrix(0.75 0 0 0.75 81 64)">
	</image>
</g>
<g id="Layer_3">
	<polygon class="st1" points="1921,1081 -0.5,1081 -0.5,-0.5 1920,-0.5 	"/>
</g>
<g id="Layer_2">
	<g>
		<g>
			<path class="st2" d="M1715.3,952.1c-3.7-1.6-11.2-4.5-22.3-5.8c-6.4-0.8-14.2,0.6-22.9-0.1c-6.9-0.5-14.4-2.8-22.6-3.3
				c-7.1-0.4-14.8,1.4-22.9,1c-7.2-0.3-14.8-2.1-22.7-2.4c-7.3-0.3-14.9-0.3-22.8-0.5c-7.4-0.2-14.9-1.2-22.8-1.4
				c-7.4-0.2-15-1-22.8-1.2c-7.4-0.2-15,0.1-22.8-0.1c-7.4-0.1-15.1,1.5-22.8,1.4c-7.5-0.1-15-2.2-22.7-2.3
				c-7.5-0.1-15.1,0.4-22.8,0.3c-7.5-0.1-15.1,0-22.8,0c-7.5-0.1-15.1,0.1-22.8,0c-7.5-0.1-15.1-0.4-22.8-0.4
				c-7.5,0-15.1-0.8-22.8-0.8c-7.5,0-15.1,0.9-22.8,0.8c-7.5,0-15.1,1.4-22.8,1.4c-7.5,0-15.1-1.4-22.8-1.4
				c-7.5,0-15.1-1.3-22.8-1.3c-7.5,0-15.1,0-22.8,0c-7.6,0-15.1,2-22.8,2c-7.6,0-15.2,0.4-22.8,0.4c-7.6,0-15.2-1.5-22.8-1.4
				c-7.6,0-15.2,0.5-22.8,0.5c-7.6,0-15.2,1.6-22.8,1.6c-7.6,0-15.2-1.1-22.8-1c-7.6,0-15.2-1.5-22.8-1.4c-7.6,0.1-15.2,0-22.8,0.1
				c-7.6,0.1-15.2,2.4-22.8,2.5c-7.6,0.1-15.2-0.8-22.8-0.7c-7.6,0.1-15.2,1.3-22.8,1.4c-7.6,0.1-15.2-0.7-22.8-0.7
				c-7.6,0.1-15.2,0.2-22.8,0.3c-7.6,0.1-15.2,0.9-22.8,1c-7.6,0.1-15.2-1.7-22.8-1.6c-7.6,0.1-15.2-0.4-22.8-0.3
				c-7.6,0.1-15.2,2.5-22.8,2.6c-7.6,0.1-15.2-1-22.8-0.9c-7.6,0.1-15.2,2-22.8,2.1c-7.6,0.1-15.2-0.9-22.8-0.8
				c-7.6,0.1-15.2-0.3-22.8-0.2c-7.6,0.1-15.2-0.5-22.8-0.4c-7.6,0.1-15.2,0.6-22.8,0.7c-7.6,0.1-15.2-0.4-22.8-0.3
				c-7.6,0.1-15.2,1.3-22.8,1.4c-7.6,0.1-15.3-0.4-22.8-0.2c-7.6,0.1-15.2,0.9-22.8,1c-7.7,0.2-15.2,1-22.8,1.2
				c-7.7,0.2-15.3-0.1-22.8,0.1c-7.7,0.2-15.3,0.6-22.8,0.8c-7.7,0.2-15.3,0.5-22.8,0.7c-7.7,0.2-15.3-1.1-22.8-0.9
				c-7.7,0.2-15.3,0.3-22.8,0.5c-7.7,0.2-15.2,2.9-22.7,3.1c-7.7,0.2-15.4-2-22.8-1.8c-7.7,0.2-15.3,1.5-22.7,1.8
				c-7.8,0.2-15.4-1.1-22.8-0.8c-7.8,0.2-15.3,1.9-22.7,2.1c-7.8,0.3-15.5-0.3-22.8-0.1c-7.9,0.3-15.4,2.1-22.7,2.4
				c-7.9,0.3-15.5,0.8-22.8,1.1c-8.1,0.4-15.7-0.9-22.8-0.5c-8.3,0.4-15.9,0.5-22.8,0.9c-8.8,0.5-16.3,2.3-22.6,2.8
				c-12.6,1-20.6,1.4-22.7,2.4c2.9-1,3-0.3,5.1-2.6c1.9-6.2,4-12.8,5.6-21.2c1.3-6.8,2.5-14.2,3.6-22.2c1-7,1.2-14.5,2.1-22.5
				c0.8-7.1,3.8-14.4,4.5-22.2c0.6-7.2-0.6-14.9,0-22.6c0.5-7.3,0.9-14.8,1.3-22.5c0.4-7.3,1.6-14.8,2-22.5
				c0.3-7.4,1.9-14.8,2.2-22.5c0.3-7.4-2-15-1.7-22.6c0.2-7.4,2.4-14.9,2.6-22.5c0.2-7.4-1-15-0.8-22.6c0.1-7.5,1.1-15,1.2-22.6
				c0.1-7.5-0.2-15-0.1-22.6c0.1-7.5-0.9-15-0.9-22.6c0-7.5,2.6-15,2.6-22.6c0-7.5-2-15-2-22.6c0-7.5,1.7-15,1.6-22.6
				c-0.1-7.5-0.3-15-0.4-22.6c-0.1-7.5-1.4-15-1.5-22.6c-0.1-7.5,1.1-15.1,0.9-22.6c-0.2-7.5-2.2-15-2.4-22.5
				c-0.2-7.6,1.1-15.1,0.9-22.6c-0.2-7.6-2.3-15-2.5-22.5c-0.2-7.6,0.2-15.1-0.1-22.6c-0.3-7.6,0.7-15.2,0.5-22.6
				c-0.3-7.6-0.9-15.1-1.2-22.5c-0.3-7.6-2.5-15.1-2.8-22.5c-0.4-7.6,0.7-15.2,0.3-22.6c-0.4-7.7-0.5-15.2-0.9-22.6
				c-0.4-7.7-1.1-15.2-1.6-22.5c-0.5-7.7-2.5-15.1-3-22.4c-0.5-7.8-0.8-15.3-1.4-22.5c-0.6-7.8-1.5-15.3-2.1-22.5
				c-0.7-7.9-1.2-15.4-1.9-22.5c-0.9-8.1-1.1-15.7-2-22.5c-1.1-8.5-0.8-16.7-2-23c-1-1.5-6.4,0.2-4.6,0.2c7.4,0.7,15-0.1,22.6,0.6
				c7.4,0.6,14.8,2.9,22.4,3.5c7.4,0.6,14.9,1.7,22.5,2.2c7.4,0.5,15,1.1,22.6,1.6c7.5,0.5,15.1-1.3,22.7-0.8
				c7.5,0.4,15,1.1,22.6,1.5c7.5,0.4,14.9,2.4,22.5,2.8c7.5,0.4,15,0.6,22.6,0.9c7.5,0.4,15,0,22.6,0.3c7.5,0.3,15,0.4,22.6,0.7
				c7.5,0.3,15,2.3,22.5,2.5c7.5,0.3,15.1-1.5,22.7-1.2c7.5,0.2,15,1.5,22.6,1.7c7.5,0.2,15,1.4,22.6,1.6c7.5,0.2,15.1-2.2,22.7-2
				c7.5,0.2,15,2.8,22.6,2.9c7.5,0.2,15.1-2.1,22.7-2c7.5,0.1,15,2.1,22.6,2.3c7.5,0.1,15.1-0.4,22.6-0.3c7.5,0.1,15,1.4,22.6,1.5
				c7.5,0.1,15.1,0.5,22.6,0.6c7.5,0.1,15.1-1.1,22.6-1c7.5,0.1,15.1-0.6,22.6-0.6c7.5,0.1,15.1,0.6,22.6,0.6
				c7.5,0,15.1,1.6,22.6,1.6c7.5,0,15.1-0.7,22.6-0.7c7.5,0,15.1-0.6,22.6-0.6c7.5,0,15.1-0.9,22.6-0.9c7.5,0,15.1,0.6,22.6,0.5
				c7.5,0,15.1,0.9,22.6,0.8c7.5,0,15.1-1.7,22.6-1.7c7.5,0,15.1-0.3,22.6-0.3c7.5,0,15.1,2,22.6,2c7.5-0.1,15.1,0.2,22.6,0.2
				c7.5-0.1,15.1-2.2,22.6-2.3c7.5-0.1,15.1-0.2,22.6-0.3c7.5-0.1,15.1,1.9,22.6,1.8c7.6-0.1,15.1-1,22.6-1.1
				c7.6-0.1,15.1-0.6,22.6-0.7c7.6-0.1,15.1-1.2,22.6-1.3c7.6-0.1,15.1-0.2,22.6-0.3c7.6-0.1,15.1,1.5,22.7,1.4
				c7.6-0.1,15.1-0.6,22.6-0.8c7.6-0.1,15.1,0.3,22.6,0.1c7.6-0.2,15.1-2.6,22.6-2.7c7.6-0.2,15.1,1.3,22.7,1.1
				c7.6-0.2,15.1-2.3,22.6-2.4c7.6-0.2,15.2,1.9,22.7,1.7c7.6-0.2,15.1,0,22.6-0.2c7.6-0.2,15.1-0.9,22.6-1.1
				c7.6-0.2,15.1-2.5,22.6-2.7c7.6-0.2,15.2,1.9,22.7,1.7c7.6-0.2,15.1-1.6,22.6-1.8c7.6-0.2,15.1-1.5,22.6-1.7
				c7.6-0.2,15.2,1.3,22.7,1.1c7.6-0.2,15.1-0.4,22.6-0.7c7.6-0.2,15.1-0.2,22.6-0.4c7.6-0.2,15.1-2.1,22.6-2.3
				c7.6-0.3,15.2,1,22.7,0.8c7.6-0.3,15.1-1.4,22.6-1.7c7.6-0.3,15.1-1.4,22.6-1.7c7.6-0.3,15.2-0.6,22.6-0.9
				c7.6-0.3,15.2-0.9,22.6-1.1c7.6-0.3,15.3,1.9,22.7,1.7c7.7-0.3,15.2-1.6,22.6-1.9c4.8-1.1,4.3-5.2,8.7-3.2
				c-0.3,7.4-1.5,14.4-1.8,22.2c-0.3,7.5,0.2,15.1-0.1,22.9c-0.3,7.5-1.3,15.1-1.6,22.9c-0.2,7.5,1.7,15.2,1.5,23
				c-0.2,7.5-0.2,15.2-0.4,22.9c-0.2,7.5-3,15.1-3.2,22.8c-0.2,7.6-0.5,15.2-0.7,22.9c-0.2,7.6,1.6,15.2,1.4,22.9
				c-0.1,7.6-1.3,15.2-1.4,22.9c-0.1,7.6,1.7,15.3,1.6,22.9c-0.1,7.6-2.7,15.2-2.8,22.9c-0.1,7.6,0.8,15.3,0.8,22.9
				c0,7.6,0.6,15.3,0.6,22.9c0,7.6-0.3,15.3-0.3,22.9c0,7.6-0.9,15.3-0.9,22.9c0,7.6,1,15.3,1,22.9c0.1,7.6-1.1,15.3-1,22.9
				c0.1,7.7,2.3,15.3,2.4,22.9c0.1,7.7-1.2,15.3-1,22.9c0.1,7.7,0.8,15.3,1,22.9c0.2,7.7,0.8,15.3,1,22.9c0.2,7.7-1.1,15.4-0.9,23
				c0.3,7.7,3,15.2,3.3,22.8c0.3,7.7-1.5,15.4-1.2,23c0.3,7.7,1.9,15.3,2.3,22.8c0.4,7.7,0.3,15.4,0.7,22.9
				c0.4,7.7,2.1,15.3,2.5,22.8c0.5,7.7,0.2,15.4,0.8,22.9c0.6,7.7,1.5,15.3,2.1,22.8c0.6,7.8,0.3,15.5,1,22.9
				c0.7,7.8,0.7,15.5,1.5,22.9c0.8,7.8,2.1,15.4,3,22.7c1,7.8,3.1,15.2,4.2,22.6c1.1,7.9,2.3,15.4,3.5,22.6
				c1.3,7.9,3.1,15.2,4.6,22.3C1716.5,948.8,1717.1,949.7,1715.3,952.1z"/>
		</g>
	</g>
	<g>
		<g>
			<g>
				<path d="M215.1,147.6c1.7,12.2,3.1,24.4,4.4,36.6c1.4,13.1,3.2,26.2,4,39.3c0.9,13.3,1.8,26.6,2.9,39.9
					c1.1,13.3,1.6,26.5,2.2,39.9c0.6,13,1.5,26,1.9,39c0.4,13.3,1.6,26.5,1.9,39.8c0.6,26.6,1.2,53.2,2.1,79.8
					c0.2,6.8,1.3,13.5,1.7,20.3c0.4,6.6-0.4,13-0.7,19.6c-0.3,6.6,0.4,13,1.1,19.5c0.8,6.8,0.7,13.5,0.4,20.3
					c-0.6,13.7-0.9,27.7-0.1,41.4c0.4,6.5,0.9,13,0.6,19.6c-0.3,6.8-1.2,13.5-1,20.3c0.2,6.5,1.4,13,1.5,19.6
					c0.1,6.8-1.2,13.5-1.6,20.3c-0.3,6.5,0.4,13.1,0.7,19.6c0.3,6.5,0,13.1-0.2,19.6c-0.4,13.3,0.6,26.7-0.8,39.9
					c-1.4,13.3-1.3,26.5-1.6,39.8c-0.2,6.8-0.1,13.5-0.5,20.3c-0.4,6.5-1.7,13-2.2,19.5c-1.2,13.3-1.7,26.6-2.8,39.9
					c-1.1,13.3-1.8,26.6-3.2,39.9c-1.4,13-3.7,25.7-6.1,38.5c-1.1,5.9-2.1,11.7-3.8,17.5c-1,3.5,5.2,4.6,6.1,1.4
					c3.6-11.7,5.4-24.2,7.4-36.2c2.1-12.7,3.7-25.7,4.4-38.5c0.8-13.6,1.9-27.1,2.9-40.7c0.5-6.5,0.8-13.1,1.3-19.6
					c0.4-6.8,1.7-13.4,2.3-20.2c1-13.2,0.7-26.6,0.7-39.9c0-13.4,2.2-26.5,2-39.9c-0.2-13.3,0.9-26.6,0.4-39.9
					c-0.3-6.8-1.1-13.5-0.8-20.3c0.3-6.5,1.5-13,1.6-19.6c0.1-6.8-1.1-13.5-1.5-20.3c-0.3-6.8,0.6-13.5,0.9-20.3
					c0.3-6.5-0.1-13-0.5-19.6c-0.4-7.1-0.3-14.1-0.3-21.2c0.1-13.4,1.4-27.2-0.1-40.5c-0.8-6.8-1.6-13.4-1.2-20.3
					c0.3-6.5,1.1-13,0.7-19.6c-0.4-6.8-1.5-13.5-1.7-20.3c-0.2-6.5-0.5-13-0.7-19.6c-0.5-13.3-0.2-26.6-0.8-39.9
					c-1.1-26.8-1.9-53.7-3.4-80.5c-0.8-13.2-1-26.5-1.8-39.8c-0.8-13.3-2.1-26.6-3.2-39.9c-2.2-26.3-4.5-52.5-8.1-78.7
					c-0.8-5.6-1.7-11.1-2.9-16.7C219.1,145,214.8,145.4,215.1,147.6L215.1,147.6z"/>
			</g>
		</g>
		<g>
			<g>
				<path d="M213.4,150.4c12.2,0.8,24.6,0.6,36.8,1.1c11.8,0.5,23.6,2.1,35.3,3.1c12.2,1.1,24.5,2.1,36.7,3
					c11.8,0.8,23.6-0.5,35.4,0.6c23.6,2.3,48.5,6.3,72.2,4.2c11.6-1,22.5,2,34,2.3c11.9,0.3,23.5-0.4,35.4,0.5
					c12.3,0.9,24.6,0.8,36.8,1.7c5.7,0.4,11.3,1.2,17,1.3c6.6,0.1,13.2-1,19.9-1.1c24.1-0.6,48.2,3.6,72.3,3.2
					c5.7-0.1,11.3-1.2,17-1.6c6.2-0.4,12.3,0.5,18.4,1.1c12.1,1.3,24.6,1.5,36.8,1.4c10.8-0.1,21.1-0.3,31.8-1.8
					c12.3-1.7,25.3,0.2,37.7,0.8c24.1,1.2,48.2,0.5,72.3,0.9c12.4,0.2,24.5-1.3,36.9-1.4c11.9,0,23.6,0,35.4-0.8
					c12.4-0.8,24.5,1.7,36.9,1.4c11.9-0.3,23.6,0.2,35.5,0.4c12.2,0.2,24.6-1.8,36.8-2.3c11.8-0.5,23.6,0.3,35.4,0.1
					c12.3-0.2,24.6-0.7,36.9-1.3c12.3-0.6,24.6,0.4,36.9-0.1c24-1,48.3-2.8,72.3-1c23.9,1.8,48.3-2.3,72.3-2.4
					c24.1-0.1,48.2-1.6,72.3-1.8c12.3-0.1,24.6,0.3,36.9,0.4c11.2,0.1,21.6-2,32.7-2.8c12.2-0.8,24.5,0.5,36.8,0
					c11.8-0.5,23.6-0.1,35.4-0.8c5.7-0.3,11.3-1.1,17-1.4c6.7-0.4,13.2,0.7,19.9,1.1c11,0.7,21.6-2.6,32.5-2.7
					c24.1-0.3,48.1-2.5,72.3-2.8c12.3-0.1,24.6,0.4,36.8,0c4.5-0.1,4.5-5.9,0-5.9c-24.1,0.2-48.2-1.2-72.3,0.7
					c-12.4,1-24.4,1.6-36.8,1.7c-10.9,0.1-21.6,3.4-32.5,2.7c-6.2-0.4-12.3-1.4-18.5-1.1c-6.1,0.3-12.2,1.2-18.4,1.5
					c-11.8,0.7-23.6,0.2-35.4,0.8c-12.2,0.6-24.6-0.7-36.8,0.1c-11,0.7-21.5,2.8-32.7,2.8c-48.7-0.2-97.4,0.8-146,2.9
					c-11.9,0.5-23.5,1.9-35.4,1c-12.2-0.9-24.6-0.7-36.9-0.3c-11.8,0.4-23.6,0.9-35.4,1.4c-12.3,0.5-24.6-0.4-36.9,0.2
					c-24.1,1.2-48.2,0.3-72.3,1.3c-12.2,0.5-24.7,2.5-36.8,2.4c-11.9-0.2-23.6-0.7-35.5-0.4c-12.4,0.3-24.5-2.2-36.9-1.4
					c-11.9,0.8-23.6,0.8-35.4,0.9c-12.3,0-24.5,1.6-36.9,1.4c-11.8-0.2-23.6-0.3-35.4-0.3c-12.3,0-24.5,0-36.9-0.5
					c-11.5-0.5-23.8-2.4-35.2-1.2c-24.1,2.6-48.8,3.3-73,0.6c-5-0.6-10-1.2-15-1c-6.2,0.3-12.3,1.6-18.5,1.7
					c-12.2,0.2-24.7-1.1-36.8-2.1c-24.2-2-48.2,0.6-72.3-1.2c-12.3-0.9-24.6-0.8-36.8-1.7c-11.9-0.9-23.5-0.2-35.4-0.4
					c-11.6-0.2-22.3-3.3-34-2.2c-12,1.1-23.4-0.2-35.4-1c-12.3-0.8-24.5-1.9-36.8-3.1c-11.9-1.1-23.6,0.2-35.4-0.6
					c-24-1.6-48-5-72.1-5.9c-12.3-0.5-24.6-0.1-36.8-0.8C209.9,145.6,209.9,150.2,213.4,150.4L213.4,150.4z"/>
			</g>
		</g>
		<g>
			<g>
				<path d="M1689.5,145.5c-0.5,6.4-1.2,12.9-1.6,19.3c-0.4,6.5-0.2,12.9-0.2,19.4c0,13-2.1,25.8-1.9,38.8c0.2,13-0.2,26-0.7,38.9
					c-0.5,13-0.4,25.9-0.6,38.9c-0.1,6.5-1,12.9-1.4,19.4c-0.4,6.7-0.4,13.5-0.6,20.2c-0.4,12.9-1.4,26-0.2,38.9
					c1.2,13,0.4,25.9-0.1,38.9c-0.3,6.5-0.9,12.9-0.9,19.4c0,6.5,0.6,12.9,0.7,19.4c0.2,13.9,0.2,27.6-0.2,41.5
					c-0.4,13.8,0.6,27.8,1.2,41.6c0.6,13.9-0.2,27.8,0.5,41.7c0.7,13.7,0.7,27.5,0.6,41.2c-0.1,6.5-0.3,13,0.1,19.4
					c0.4,6.5,1.4,12.9,1.6,19.4c0.2,6.5-0.5,13-0.4,19.5c0.1,6.5,1.1,12.9,1.7,19.4c0.6,6.5,0.4,13,0.4,19.5
					c-0.1,6.7,0.3,13.5,0.5,20.2c0.3,13,2.3,25.8,3.1,38.8c1.4,25.8,3,51.8,6.2,77.5c1.6,12.7,2.3,25.4,4.4,38.1
					c2.1,12.8,4.4,25.5,6.5,38.3c1.1,6.3,2,12.7,3.3,19c0.8,4,8.4,2.6,7.5-1.7c-10.3-51.1-15.4-102.9-19.2-154.8
					c-0.9-12.9-1.8-25.8-3.2-38.7c-1.4-12.5-1.6-25.5-1.4-38.1c0.1-6.5,0.1-13-0.6-19.4c-0.7-6.5-1.6-12.9-1.6-19.4
					c0-6.5,0.6-13,0.3-19.5c-0.3-6.5-1.3-12.9-1.7-19.4c-0.7-13.2-0.1-26.7-0.1-39.9c0-13.9-1.1-27.7-0.9-41.6
					c0.2-13.9-0.3-27.8-1-41.6c-0.7-13.9,0.2-27.7-0.1-41.6c-0.2-13.3-1.1-26.7-1-40c0.1-12.9,1.1-25.9,1.6-38.9
					c0.2-6.6-0.3-12.9-0.8-19.4c-0.6-6.5-0.3-12.9-0.1-19.4c0.4-12.7,0.2-25.4,1-38.1c0.4-6.5,1.3-12.9,1.3-19.4
					c0.1-6.5-0.3-13-0.3-19.4c0.1-13,0.9-25.9,1.1-38.9c0.2-13-0.4-26,0.7-38.9c1.1-13,0.3-25.8,1-38.8c0.3-6.4,1-12.9,1.1-19.3
					C1695,142.5,1689.7,142.5,1689.5,145.5L1689.5,145.5z"/>
			</g>
		</g>
		<g>
			<g>
				<path d="M1722.4,954.3c-7.2-3.2-14.9-5.5-22.7-6.4c-4.9-0.6-9.8-0.2-14.8-0.1c-6.7,0.1-12.9-0.9-19.4-2.2
					c-11.1-2.1-21.4-0.3-32.6-0.6c-12.1-0.3-24.1-2.6-36.2-2.9c-25.4-0.6-50.7-3-76.2-3.2c-6.1,0-12.2,0.8-18.3,1.1
					c-7.3,0.4-14.3-0.8-21.6-1.7c-11.9-1.4-24.2-0.3-36.2-0.3c-25.4-0.1-50.7-0.2-76.1-1.3c-12.6-0.6-25.5-0.1-38,0.9
					c-13.3,1-26.1,0-39.5-0.6c-12.7-0.6-25.3-1.4-38-1.5c-12.7-0.1-25.3,1.8-38,2c-12.7,0.3-25.3-1.5-38-1.3
					c-12.7,0.2-25.3,1.4-38,1.9c-25.3,1-50.7-4.9-76.1-2.2c-6.1,0.6-12.1,2-18.3,2c-6.6,0-13.1-0.8-19.7-0.8
					c-12.7-0.1-25.2,1.4-38,0.8c-13.1-0.6-26.4-0.4-39.4,0.3c-12.9,0.6-25.2-1-38-1.1c-12.4-0.1-24-0.3-36.3,1.5
					c-12.6,1.8-25.3-1-38,0.4c-25.6,2.8-52,0.2-77.8-0.2c-12.7-0.2-25.3,0.8-38,0.5c-13.2-0.4-26.2,1.4-39.4,1.2
					c-25.4-0.4-50.7,1.8-76.1,1.7c-12.7-0.1-25.4,0.6-38,0.9c-12.7,0.4-25.3-0.6-38-0.5c-11.7,0-23.5-0.1-35,2.1
					c-13,2.4-25.3-1.1-38.3-0.2c-6.1,0.4-12.1,1.3-18.2,1.4c-6.6,0-13.2-1-19.8-0.9c-12.8,0.1-25.3,2.1-38.1,1.8
					c-13.2-0.3-26.2,2-39.4,2.6c-12.7,0.6-25.3-0.4-37.9,0c-23.5,0.7-46.7,3.1-70,5.6c-6.5,0.7-13.5,1.3-19.7,3.8
					c-4.7,1.9-0.1,7.2,3.9,5.6c7.6-3.1,17.3-2.6,25.4-3.4c10.9-1,21.7-2,32.5-3.3c25.1-2.9,50.6,0,75.8-1.6
					c6.1-0.4,12.1-1.6,18.2-2.1c6.6-0.5,13.1,0,19.7,0.1c12.3,0.1,24.3-2.6,36.6-1.8c6.2,0.4,12.2,0.9,18.4,0.5
					c6.6-0.4,13.1-1.6,19.7-1.4c6.2,0.1,12.2,1.6,18.3,1.8c5.6,0.2,10.9-0.9,16.4-1.8c12.3-2.2,26-2.1,38.5-1.4
					c12.3,0.7,24.4,0.5,36.7,0.2c25.4-0.6,50.7-0.9,76-2.1c12.7-0.6,25.3-0.1,38.1-0.4c12.3-0.2,24.3-1.4,36.6-1.1
					c12.7,0.3,25.3-0.8,38-0.5c12.7,0.3,25.4,0.5,38.1,0.6c11.8,0.1,23.1,1.2,34.9-0.2c13-1.5,26,1.1,38.9-0.4
					c6.4-0.8,12.7-2.1,19.2-2.1c6.6,0,13.2,0.2,19.7,0.3c6.1,0.1,12.2,1.2,18.3,1.5c6.6,0.4,13.2-0.2,19.7-0.5
					c12.1-0.6,24.5-0.8,36.6-0.3c12.8,0.5,25.2-0.7,38-0.8c12.4-0.1,23.9,1,36.3-0.8c12.8-1.9,26.9-1.6,39.8-0.4
					c12.1,1.1,24.5,2.2,36.6,2.1c12.6-0.1,25.4-1.6,38-1.9c12.7-0.3,25.3,1.5,38,1.3c12.7-0.3,25.4-2.1,38-2.2
					c12.3-0.1,24.4,0.2,36.6,1.1c12.5,0.9,25.5,2.4,38,1.4c25.4-2,50.6-1,76-0.5c24.8,0.6,49.9-1.3,74.6,0
					c6.1,0.3,12.2,1.7,18.3,2.1c6.7,0.4,13.2-0.7,19.8-1.1c12.1-0.7,24.6-0.4,36.7,0.3c25.2,1.5,50.6,1.7,75.7,4.7
					c11.4,1.3,22.7-1.5,34.1,0.1c10.7,1.6,20.4,2.8,31.2,2.4c9.8-0.3,19.5,1.7,28.6,5.4C1722.4,959,1725.5,955.7,1722.4,954.3
					L1722.4,954.3z"/>
			</g>
		</g>
	</g>
	<g>
		<path d="M809.9,1031.6c0.4-7.1,1-14.3,1-21.4c0-7.1-0.5-14.3-0.9-21.4s-0.6-14.2-1.2-21.3c-0.7-7.1-1.6-14.2-2.6-21.2
			c-1-7.1-2.1-14.1-3.4-21.1c-2-10.6-4.2-21.4-9.6-30.8c-3.7-6.5-9-11.9-14.7-16.8c-5.6-4.8-11.8-9.3-18.2-12.9
			c-6.9-3.9-14.4-6.9-21.8-9.7c-7.4-2.8-15-5.4-22.8-7.1c-7.8-1.7-15.7-2.8-23.6-3.4c-8-0.6-16-0.8-23.9-0.2
			c-8,0.6-15.9,1.6-23.7,3.4c-7.8,1.8-15.4,4.3-22.8,7.3c-7.3,3-14.3,7-21,11.3c-6.7,4.3-13.2,8.9-19,14.4
			c-5.8,5.5-10.9,11.6-15.6,18c-4.7,6.4-8.8,13.3-12.3,20.4c-3.5,7.1-6.4,14.6-8.6,22.2c-2.2,7.7-3.8,15.5-4.6,23.4
			c-0.8,7.9-0.9,15.9-0.1,23.8c0.8,7.9,2.6,15.6,5.2,23.3c0.6,10.7-0.1,10.8-0.5,21.5c-0.4,10.8-0.7,10.7-1.1,21.5
			c-0.4,10.7-0.7,10.7-1,21.5c-0.4,10.8-0.4,10.8-0.8,21.5c-0.4,10.8,0,10.8-0.4,21.5c-0.4,10.8-4.4,11.3-0.7,21.4
			c4,10.8,8.5,0.2,22.8,0.1c6.6,0,14.3-0.1,23-0.2c7.1,0,14.8-0.4,23-0.5c7.3-0.1,15,0.1,23,0c7.5-0.1,15.2,0.2,23,0.1
			c7.6-0.1,15.3-0.2,23-0.3c7.7-0.1,15.4-0.7,23-0.9c7.8-0.2,15.5-0.1,23-0.3c7.9-0.2,15.6-0.7,23-0.9c8.2-0.3,15.9-0.4,23-0.7
			c8.7-0.4,16.4-0.9,22.9-1.3c13.9-1,22.1-2.3,22.1-3.8c0-2.6-0.1-12.5-0.9-25.1c-0.4-7.7-0.8-16.4-1.4-25.1
			c-0.5-8.7-1.5-17.4-2-25.1C810.7,1042.3,810.1,1044.2,809.9,1031.6z"/>
		<g>
			<path d="M813.4,1031.6c0.4-4.9,1-9.8,1.3-14.7c0.4-4.9,0.5-9.8,0.3-14.7c-0.3-9.8-0.5-19.7-1.1-29.4c-0.6-9.8-1.9-19.6-3.2-29.3
				c-1.3-9.6-2.9-19.2-4.9-28.6c-1.9-8.8-4.7-17.6-9.7-25.2c-4.9-7.5-11.9-13.7-19-19.2c-7.6-5.9-15.9-10.8-24.7-14.6
				c-9-3.9-18.3-7.4-27.7-10.2c-9.6-2.8-19.4-4.4-29.3-5.3c-9.8-0.9-19.7-1.2-29.6-0.4c-19.5,1.6-38.9,6.3-56.2,15.5
				c-8.3,4.4-16.5,9.6-24,15.4c-7.5,5.8-14.1,12.6-20.1,20c-11.8,14.7-20.8,31.7-26,49.8c-5.5,19.1-7.1,39.6-3,59.2
				c0.5,2.4,1.1,4.8,1.7,7.2c0.6,2.2,1.6,4.5,1.7,6.5c0.2,3.1,0.2,6.3,0,9.4c-0.4,6.8-0.7,13.6-1.1,20.3c-0.8,13.5-1.4,27-1.9,40.5
				c-0.3,6.7-0.6,13.4-0.7,20.1c-0.1,6.5,0.2,13.2-0.6,19.7c-0.1,0.6,0-0.2,0-0.2c0,0.2-0.1,0.4-0.1,0.6c-0.1,0.4-0.1,0.7-0.2,1.1
				c-0.2,0.7-0.3,1.4-0.5,2.1c-0.4,1.5-0.7,3.1-1,4.7c-0.5,3.4,0.3,7,1.5,10.2c1.1,3.1,2.7,6.1,5.8,7.6c3.2,1.5,6.5,0.9,9.6-0.2
				c1-0.4,2-0.8,3-1.2c0.6-0.2,1.1-0.5,1.7-0.7c0.2-0.1,1.4-0.4,0.6-0.2c-0.9,0.2,0.4-0.1,0.6-0.2c1.5-0.5,3.1-0.8,4.7-1.1
				c0.7-0.1-0.4,0.1-0.4,0c0,0,0.6-0.1,0.7-0.1c0.4,0,0.9-0.1,1.4-0.1c1.1,0,2.1,0,3.2,0c9,0,18-0.1,27-0.2
				c19.2-0.4,38.3-0.2,57.5-0.2c10,0,20-0.1,30-0.3c9.8-0.2,19.6-0.8,29.4-0.9c9.7-0.1,19.4-0.3,29-0.7c9.4-0.4,18.7-0.6,28.1-0.9
				c8.9-0.3,17.7-0.8,26.6-1.5c4.6-0.3,9.2-0.8,13.8-1.3c2.6-0.3,5.2-0.6,7.7-1.4c3-0.9,6.1-2.5,6.4-6c0.1-2.1,0-4.2-0.1-6.3
				c-0.2-8.5-0.7-17-1.1-25.4c-0.5-9.7-1-19.5-1.8-29.2c-0.7-8.2-1.2-16.3-1.9-24.5c-0.2-2.4-0.4-4.8-0.8-7.1c0-0.3-0.1-0.5-0.1-0.8
				c-0.1-0.8,0.2,1.1,0,0.2c-0.1-0.7-0.2-1.4-0.3-2.1c-0.1-0.8-0.2-1.5-0.3-2.3c-0.1-0.4-0.1-0.9-0.2-1.3c-0.1-0.9-0.2-1.2-0.2-1.7
				c-0.1-5.5-10.2-5.5-10.1,0c0,1.1-0.3,3.4-0.4,5.1c-0.1,1.3-0.2,2.6-0.2,3.9c-0.1,2.1,0.2,4.1,0.4,6.2c0.8,8,1.2,16,1.9,24
				c0.8,9.5,1.3,19.1,1.8,28.6c0.5,8.4,1,16.9,1.2,25.3c0.1,2.3,0,4.6,0.1,6.8c0,0.1,0,0.3,0,0.4c-0.2-0.5,0.6-2,0.7-2.2
				c0.8-1.1,1.1-1.1,0.7-0.8c1.8-1.4,1.2-0.7,0.8-0.5c-1.4,0.5,0.9-0.2,0.3-0.1c-0.5,0.1-1,0.3-1.5,0.4c-1.2,0.3-2.4,0.5-3.6,0.6
				c-0.7,0.1-1.5,0.2-2.2,0.3c-0.4,0.1-0.8,0.1-1.2,0.2c-0.3,0-0.6,0.1-0.9,0.1c0.9-0.1,0.9-0.1,0.2,0c-4.1,0.4-8.1,0.8-12.2,1
				c-18,1.3-36.1,1.6-54.1,2.4c-9.5,0.4-19,0.6-28.6,0.7c-9.6,0.1-19.2,0.8-28.8,1c-19.1,0.4-38.3,0.4-57.4,0.3
				c-18.1-0.1-36.2,0.5-54.4,0.7c-4,0-8,0.1-11.9,1c-3,0.7-5.8,1.9-8.6,3.1c-0.5,0.2-0.9,0.4-1.4,0.6c-0.9,0.4,1.4-0.4,0.5-0.2
				c-0.2,0.1-0.4,0.1-0.6,0.2c-0.2,0-0.4,0.1-0.6,0.1c-0.9,0.2,1.6-0.1,0.8-0.1c-0.5,0-1.1-0.2,0.8,0.1c-1.1-0.2,1.2,0.6,0.5,0.2
				c-0.7-0.4,1.2,0.9,0.5,0.3c-0.6-0.5,0.1-0.2,0.3,0.4c-0.1-0.3-0.6-0.9-0.8-1.2c-0.6-0.8,0.4,1,0,0c-0.1-0.3-0.3-0.6-0.4-1
				c-0.4-1-0.7-2.1-1-3.2c-0.1-0.4-0.2-0.8-0.3-1.2c-0.3-1.2,0.1,0.9,0-0.2c-0.1-0.7-0.1-1.3-0.1-2c0-0.5-0.1-1.3,0.1-1.8
				c-0.5,1.1-0.1,0.6,0,0.1c0.1-0.4,0.2-0.8,0.3-1.1c0.8-3.4,1.6-6.7,1.8-10.2c0.4-6.2,0.2-12.3,0.3-18.5
				c0.3-13.1,0.9-26.2,1.6-39.2c0.7-13.3,1.2-26.6,2-40c0.2-3.1,0.1-6.2,0-9.2c-0.1-2.6-0.9-4.8-1.7-7.2c-0.7-2.4-1.3-4.8-1.9-7.2
				c-2-8.8-2.6-18.1-2.2-27.4c0.8-18.1,5.9-36.8,14.2-52.7c8.3-16,19.3-30.5,33.3-41.4c7.3-5.7,14.1-10,22.2-14.3
				c3.8-2.1,7.8-3.9,11.9-5.5c4.4-1.7,7.7-2.9,12.4-4.2c4.5-1.3,9.1-2.3,13.7-3.1c5-0.9,8.7-1.3,13.3-1.7c9.7-0.8,19.4-0.6,29,0.3
				c4,0.4,8.6,1,13.3,1.9c4.7,0.9,9.3,1.9,13.8,3.3c8.7,2.6,17.1,5.7,25.7,9.5c8.5,3.8,15.7,8.1,22.9,13.8
				c6.7,5.3,12.5,10.5,17,17.7c4.4,7,6.7,15.6,8.5,23.9c2,9,3.5,18.1,4.8,27.2c2.8,19.1,4.1,38.3,5.1,57.6c0.5,9.3,0,18.5-0.1,27.7
				C806.3,1035.5,813.1,1035.4,813.4,1031.6z"/>
		</g>
	</g>
	<g>
		<path d="M1101,1010.4c-1-7.2-2.4-14.5-3.6-21.8c-1.2-7.3-2.5-14.5-4.1-21.7c-1.6-7.2-3.1-14.5-5.2-21.5c-2.2-7.1-4.8-14-7.8-20.7
			c-3-6.8-6.8-13.1-10.9-19.2c-4.1-6.1-8.5-11.9-13.8-17.2c-4.6-4.5-9.3-8.8-14.6-12.4c-5.2-3.6-10.8-6.9-16.4-9.9
			c-5.7-3-11.7-5.2-17.6-7.6c-5.9-2.4-11.7-4.8-17.8-6.7c-6.1-1.9-12.3-3.3-18.5-4.4c-6.2-1.1-12.5-2-18.9-2.1
			c-8.2-0.1-16.3,0.7-24.2,2.5c-7.9,1.7-15.6,4.5-23,7.9c-7.4,3.4-14.6,7.2-21.2,11.9c-6.6,4.7-12.8,10-18.5,15.9
			c-5.6,5.9-10.4,12.6-14.8,19.3c-4.5,6.9-8.1,14-10.8,21.5c-2.7,7.6-4.3,15.4-5.7,23.4c-1.4,7.8-2.6,15.8-3.3,23.9
			c-0.7,8-1.3,16-1.8,24.1c-0.5,8.1-1.3,16.1-2.1,24.1c-0.6,5.4-0.9,13.3-1.1,22.4c-0.2,6.9-0.4,14.6-0.4,22.5
			c0,7.5,0.2,15.1,0.3,22.5c0.1,8.1,0,15.8,0.1,22.5c0.2,13.3-9.9,18.5,0.6,22.5c10.7,4.1,11.5-0.2,22.9-0.3
			c11.5-0.1,11.5,0,22.9-0.1c11.5-0.1,11.5-0.2,22.9-0.2c11.5-0.1,11.5-0.1,22.9-0.2c11.5-0.1,11.5,0.2,22.9,0.1
			c11.5-0.1,11.5-0.1,22.9-0.2c11.5-0.1,11.5-0.6,22.9-0.7c11.5-0.1,11.5,0.4,22.9,0.3c11.5-0.1,11.5-0.3,22.9-0.4
			c11.5-0.1,11.5,0.2,22.9,0.1c11.5-0.1,11.5-0.4,22.9-0.4c11.5-0.1,15.2,8.2,23.1-0.1c8.2-8.7-0.3-12.1-0.3-24
			c0-11.9-0.1-11.9-0.1-23.9c0-11.9,0.3-11.9,0.2-23.9c0-11.9-0.2-11.9,0-23.9C1101.2,1022.3,1101.4,1022.3,1101,1010.4z"/>
		<g>
			<path d="M1104.5,1010.4c-1.2-10.5-2.9-21-4.6-31.4c-1.6-10.1-3.6-20.2-6.1-30.1c-4.9-19.1-13.3-37.2-25.3-52.9
				c-12-15.7-28.3-28-46.2-36.1c-4.5-2-9-3.8-13.5-5.7c-4.9-2-9.7-3.9-14.7-5.7c-9.5-3.3-19.6-5.5-29.6-6.8
				c-10.8-1.4-21.5-1.3-32.2,0.4c-10,1.6-19.8,4.8-29.1,8.9c-18.1,8.1-34.7,19.7-47.4,35c-6.1,7.3-11.5,15.4-15.9,23.9
				c-4.7,9-7.9,18.4-10,28.3c-2.1,10.2-3.8,20.5-4.8,30.8c-1,10.4-1.6,20.7-2.4,31.1c-0.7,9.2-1.9,18.3-2.4,27.5
				c-0.5,9.6-0.7,19.3-0.9,28.9c-0.2,10.1,0.1,20.2,0.1,30.2c0,5,0,9.9,0.1,14.9c0,2.3,0,4.6,0.1,6.9c0,1,0,1.9,0,2.9
				c0,0.5-0.1,1-0.1,1.4c0,0.2-0.1,0.4-0.1,0.6c-0.1,0.7,0.2-1.1,0,0.1c-0.6,2.9-1.7,5.6-2.7,8.4c-0.9,2.5-1.6,5.2-0.7,7.8
				c1.2,3.5,4.7,5.5,7.9,6.7c3.8,1.4,7.8,2.5,11.9,2.1c3.3-0.3,6.5-1.3,9.8-1.8c1.1-0.2-1.1,0.1,0.1,0c0.5,0,1.1-0.1,1.6-0.1
				c1.2-0.1,2.4-0.1,3.6-0.1c1.9,0,3.9,0,5.8,0c7,0,14.1,0,21.1-0.1c13.9-0.1,27.7-0.3,41.6-0.4c6.8,0,13.6,0.2,20.4,0.1
				c6.8,0,13.6-0.1,20.4-0.1c7,0,14-0.4,21-0.6c7-0.2,14,0.1,21.1,0.2c14.3,0.3,28.6-0.5,42.8-0.3c7.2,0.1,14.4,0,21.6-0.2
				c3.4-0.1,6.7-0.2,10.1-0.2c1,0,2.1,0,3.1,0c1.1,0-1.2-0.2,0.2,0c0.4,0.1,0.9,0.1,1.3,0.2c0.8,0.2,1.6,0.4,2.5,0.6
				c0.3,0.1,0.6,0.2,1,0.3c-1.7-0.4-0.4-0.1,0.1,0c3.2,1.2,6.4,2.5,9.9,2.3c5-0.3,8.8-3,12-6.6c2.4-2.7,4.2-6.2,3.9-9.8
				c-0.2-3.1-1.4-5.8-2.4-8.6c-0.2-0.7-0.5-1.4-0.7-2.1c-0.1-0.4-0.2-0.8-0.3-1.2c0-0.2-0.1-0.4-0.1-0.6c0-0.2-0.2-1.2-0.1-0.5
				c0.1,0.7-0.1-0.6-0.1-0.8c-0.1-0.5-0.1-1-0.1-1.5c0-1.2,0-2.4,0-3.5c0-3.2,0-6.5,0-9.7c0-7.2-0.1-14.4,0.1-21.6
				c0.3-14.1,0-28.2,0.3-42.4c0.1-6.4,0.1-12.8-0.2-19.2c-0.1-3-3.2-5.1-6.1-5c-2.7,0.1-6.2,1.8-6.1,5c0.4,13.3-0.2,26.6-0.1,39.9
				c0.1,14.2-0.2,28.4-0.1,42.5c0,2.9,0,5.9,0,8.8c0,4.3,0.1,8.4,1.3,12.6c0.8,2.6,1.7,5.3,2.6,7.8c0.2,0.5-0.1-0.7-0.1-0.7
				c0,0.1,0,0.3,0,0.4c0,0.3,0.1,0.6,0,0.9c0,0.3,0,0.5,0,0.8c0,0.7-0.3-0.3,0.1-0.5c-0.1,0-0.1,0.5-0.1,0.5
				c-0.1,0.3-0.2,0.6-0.3,0.8c-0.3,0.8,0.6-0.9,0,0.1c-0.5,0.8-1,1.4-1.6,2.2c-0.3,0.5,0.1-0.1,0.2-0.2c-0.2,0.2-0.3,0.3-0.5,0.5
				c-0.3,0.3-0.7,0.7-1.1,1c-0.1,0.1-0.9,0.6-0.9,0.7c0-0.1,1.2-0.7,0.4-0.2c-0.2,0.1-0.4,0.2-0.5,0.3c-0.1,0.1-0.3,0.1-0.4,0.2
				c-0.4,0.3,0.8-0.3,0.8-0.3c-0.2,0-0.7,0.1-0.9,0.2c-0.3,0.1,1.6,0,0.6-0.1c-0.3,0-1.6-0.1-0.4,0c1.2,0.1,0.2,0-0.1-0.1
				c-0.3-0.1-0.6-0.1-0.9-0.2c-0.3-0.1-0.5-0.2-0.8-0.2c-0.8-0.2,1.4,0.5,0.1,0c-1.8-0.6-3.5-1.3-5.3-1.8c-6.9-2.1-14.5-1.2-21.6-1
				c-14.1,0.4-28.2-0.1-42.3,0.2c-7,0.2-14.1,0.4-21.2,0.2c-6.9-0.1-13.8-0.3-20.7-0.1c-6.8,0.2-13.5,0.6-20.3,0.6
				c-6.6,0.1-13.1,0.1-19.7,0.2c-6.6,0.1-13.3-0.1-19.9-0.1c-6.8,0-13.6,0.1-20.4,0.2c-14,0.1-27.9,0.3-41.9,0.4
				c-3.7,0-7.4,0-11,0.1c-3.8,0.1-7.4,0.8-11,1.6c-0.6,0.1-1.3,0.3-1.9,0.4c-1,0.2-0.1-0.1,0.4,0c-0.4,0-0.8,0.1-1.1,0.1
				c-0.3,0-0.6,0-0.9,0c-0.2,0-0.3,0-0.5,0c-0.6,0,0.8,0.1,0.7,0.1c-0.9-0.3-1.8-0.3-2.7-0.6c-0.4-0.1-0.8-0.3-1.3-0.4
				c-0.6-0.2,0.2,0.1,0.3,0.1c-0.3-0.1-0.6-0.2-1-0.4c-0.7-0.3-1.4-0.6-2.1-1c-0.8-0.4,0.9,0.7,0.3,0.2c-0.2-0.2-0.9-0.9-0.2-0.1
				c0.7,0.8,0.1,0.1,0-0.1c-0.3-0.8,0.6,1.1,0.2,0.3c-0.1-0.2-0.2-1,0,0c0.2,1,0,0.1,0.1-0.1c0-0.2,0.1-0.4,0-0.6
				c0,0-0.3,1.2-0.1,0.8c0.1-0.2,0.1-0.4,0.1-0.5c0.3-1.1,0.7-2.2,1.1-3.2c1.2-3.2,2.2-6.3,2.7-9.6c0.6-4.1,0.2-8.3,0.2-12.5
				c0-4.9,0-9.8-0.1-14.6c-0.2-19.3-0.4-38.7,0.6-58c0.4-8.9,1.6-17.8,2.3-26.7c0.8-10.1,1.4-20.2,2.2-30.3
				c0.9-10.2,2.3-19.5,4.2-29.3c1.9-9.4,4.5-18.5,8.8-27.1c0.1-0.1,0.6-1.2,0.4-0.8c0.3-0.5,0.6-1.1,0.9-1.6
				c0.6-1.1,1.2-2.2,1.8-3.2c1.2-2.1,2.5-4.1,3.8-6.1c2.6-3.9,5.2-7.7,8.1-11.4c3.1-3.9,5.4-6.4,8.9-9.8c3.4-3.2,7-6.3,10.7-9.1
				c7.4-5.7,14.9-9.9,23.8-14c2.2-1,4.4-1.9,6.6-2.8c1.1-0.4,2.1-0.8,3.2-1.2c0.2-0.1,0.5-0.2,0.7-0.3c0.8-0.3-0.7,0.2,0.2-0.1
				c0.6-0.2,1.2-0.4,1.8-0.6c4.6-1.5,9.3-2.6,14-3.5c1.2-0.2,2.4-0.4,3.5-0.6c0.6-0.1,1.3-0.2,1.9-0.2c0,0,0.9-0.1,0.4,0
				c-0.5,0.1,0.6-0.1,0.6-0.1c2.5-0.2,5-0.4,7.5-0.4c2.5-0.1,5,0,7.5,0.1c1.2,0.1,2.4,0.2,3.6,0.3c0.4,0,0.7,0.1,1.1,0.1
				c-0.1,0-0.7-0.1-0.1,0c0.6,0.1,1.3,0.2,1.9,0.2c9.7,1.3,19.5,3.4,28.8,6.5c0.3,0.1,0.7,0.2,1,0.4c-0.1,0-0.6-0.2,0,0
				c0.5,0.2,1,0.4,1.5,0.6c1.3,0.5,2.5,1,3.8,1.4c2.2,0.9,4.4,1.7,6.6,2.6c4.5,1.8,9.1,3.6,13.6,5.6c4.4,2,8.6,4.3,12.7,6.7
				c3.9,2.3,7.4,4.6,11.2,7.6c7.4,5.7,13.7,12,19.2,19.3c5.5,7.3,10.7,15.2,14.6,23.4c4.2,8.8,7.6,18,10.2,27.4
				c2.7,9.7,4.8,19.6,6.7,29.4c1.9,9.6,3.9,19.3,5.4,29c0.3,1.8,1.7,2.9,3.5,2.9C1102.5,1013.3,1104.7,1012.2,1104.5,1010.4z"/>
		</g>
	</g>
	<g>
		<path d="M1119.2,1156.1c-2.5-6.5-4.4-13.1-5.5-19.9c-1.2-6.8-1.8-13.7-1.8-20.6c0.1-6.9,0.8-13.8,2-20.6
			c1.2-6.8,2.9-13.5,5.1-20.1c2.2-6.5,4.9-12.9,8.1-19c3.2-6.1,7.1-11.9,11.1-17.5c4-5.6,8.4-11,13.1-16c4.7-5.1,9.3-10.2,14.6-14.8
			c5.2-4.5,11-8.4,16.6-12.4c5.7-4,11.4-7.8,17.4-11.2c6.8-3.9,14.1-7.1,21.5-10.1c7.3-3,14.7-5.8,22.4-7.9c7.7-2,15.5-3.4,23.3-4.3
			c7.9-0.9,15.9-1.4,23.7-0.9c7.9,0.5,15.8,1.8,23.4,3.9c7.6,2.1,14.8,5.4,21.8,9.3c6.2,3.5,11.9,7.6,17.2,12.2
			c5.3,4.6,10.3,9.6,14.7,15.1c4.4,5.5,8.4,11.3,11.9,17.5c3.5,6.1,6.7,12.5,9.3,19c2.6,6.6,4.7,13.3,6.5,20.1
			c1.8,6.8,3.3,13.7,4.4,20.7c1.1,6.9,2.1,13.9,2.8,21c0.6,7,0.6,14.1,0.8,21.1c0.3,7,0.7,14.1,0.7,21.1c0,7.1,0,14.1-0.1,21.1"/>
		<g>
			<path d="M1122.8,1155.3c-5.6-17.5-7.4-35.9-4.8-54c2.4-17.2,8.2-34.6,17.2-49.3c4.6-7.6,9.9-14.8,15.6-21.6
				c5.7-6.8,11.3-12.9,18-18.8c6.6-5.8,14-10.7,21.2-15.6c7.2-4.9,14.7-9.4,22.9-13.2c16.6-7.7,32.3-13.4,50.6-15.9
				c4.5-0.6,8.4-1,13.4-1.3c4.6-0.3,9.2-0.3,13.8,0c1.1,0.1,2.2,0.2,3.3,0.3c0.6,0.1,1.1,0.1,1.7,0.2c-1.1-0.1,0.7,0.1,0.7,0.1
				c2.2,0.3,4.4,0.6,6.6,1c4.5,0.8,8.9,1.9,13.3,3.3c0,0,1.7,0.6,0.7,0.2c0.4,0.2,0.8,0.3,1.3,0.5c0.9,0.3,1.8,0.7,2.7,1.1
				c2.2,0.9,4.3,1.9,6.4,2.9c2,1,3.9,2,5.8,3.1c0.9,0.5,1.8,1.1,2.8,1.6c0.3,0.2,0.6,0.4,0.9,0.6c0.3,0.2,0.6,0.4,0.9,0.6
				c-0.4-0.2-0.3-0.2,0.2,0.1c7.1,4.8,13.7,10.4,19.7,16.6c1.2,1.3,2.3,2.5,3.7,4.2c1.4,1.6,2.7,3.3,4,5c2.7,3.6,5.3,7.3,7.6,11.2
				c4.5,7.4,8.1,14.5,11.2,22.7c3.3,8.5,5.8,17.4,7.8,26.3c2,9.1,3.4,17.6,4.4,26.9c1,9.1,1.1,18.2,1.4,27.4
				c0.3,9.3,0.7,18.7,0.7,28c0,4.6,0,9.1,0,13.7c0.1,6.3,11.4,6.3,11.6,0c0.2-9.5,0.3-19.1,0-28.6c-0.3-9.5-0.6-19.1-1-28.6
				c-0.4-9.8-1.9-19.5-3.5-29.1c-1.6-9.3-3.7-18.5-6.5-27.6c-5.4-17.6-13.9-34.4-25.3-48.9c-11.2-14.3-25.8-26.1-42.2-33.9
				c-17.3-8.2-36.8-11.2-55.8-9.9c-9.8,0.7-19.5,1.9-29.1,4.1c-9.3,2.1-18.3,5.4-27.1,9c-8.5,3.5-17,7.3-24.9,12
				c-8.2,4.8-16,10.3-23.7,15.9c-3.7,2.7-7.3,5.4-10.7,8.5c-3.5,3.2-6.8,6.7-10,10.2c-6.2,6.7-12.1,13.5-17.3,21
				c-5.4,7.6-10.2,15.5-14,24c-3.8,8.4-6.8,17.2-8.7,26.2c-2,9.5-3.3,19.2-3.2,28.9c0.1,9.5,1.5,19.2,4,28.4
				c1.2,4.2,2.8,8.3,4.6,12.3c0.8,1.7,2.7,2.6,4.5,2.1C1121.9,1158.7,1123.3,1157.1,1122.8,1155.3L1122.8,1155.3z"/>
		</g>
	</g>
	<g>
		<path d="M1676.2,1029.4c-0.1-8.1-1-16.1-2.2-24c-1.1-8-2.6-15.9-4.6-23.7c-2-7.8-4.6-15.4-7.6-22.9s-6.5-14.7-10.3-21.8
			c-3.8-7.1-7.6-14.3-12.2-20.9c-4.6-6.6-9.9-12.7-15.3-18.7c-4.4-5-8.9-10-14-14.2c-5.1-4.3-10.7-8-16.8-10.9
			c-8-3.8-16.6-5.7-25.3-6.4c-8.6-0.8-17.4-0.5-26.2,0.9c-8.6,1.4-17.1,4-25.3,6.8c-6.8,2.3-13.7,4.8-20.2,7.8
			c-6.5,3.1-12.8,6.8-18.9,10.6c-6.2,3.8-12.1,7.9-17.7,12.4c-5.6,4.6-11.1,9.3-16,14.6c-4.9,5.3-9.3,11-13.4,17.1
			c-4.1,6.1-6.5,12.7-8.3,19.3c-1.8,6.7-3,13.7-3.4,20.8c-0.4,6.9-0.4,14-0.2,21.1c0.1,7,0.4,14.1,0.3,21.1
			c-0.1,7-0.2,14.1-1.4,21.1c-0.4,2.7-0.1,11.8,0.8,24.1c0.5,7.2,1.2,15.5,1.9,24.1c0.7,7.9,1.3,16.2,2,24.1
			c0.8,8.6,1.4,16.9,2.1,24.1c1.3,14.1-9,19.8,2.2,24.3c10.1,4.1,11-0.5,21.9-0.9c10.9-0.4,10.9-0.6,21.8-1
			c10.9-0.4,10.9,0,21.8-0.4c10.9-0.4,10.9-0.3,21.8-0.6c10.9-0.4,10.9-0.4,21.8-0.7c10.9-0.4,10.9-0.8,21.8-1.2
			c10.9-0.4,10.9-0.3,21.8-0.7c10.9-0.4,10.9-0.1,21.8-0.4c10.9-0.4,10.9-0.4,21.8-0.8c10.9-0.4,10.9-0.5,21.8-0.9
			c10.9-0.4,10.9-0.4,21.8-0.8c10.9-0.4,15.3,8.1,22-0.5c7.5-9.7-1.6-12.3-2.8-24.4c-1.2-12.2-1-12.2-2.3-24.3
			c-1.2-12.2-1-12.2-2.3-24.3c-1.2-12.2-1.7-12.1-3-24.3C1677,1041.6,1677.2,1041.6,1676.2,1029.4z"/>
		<g>
			<path d="M1679.6,1029.4c0.1-10.2-0.9-20.5-2.4-30.6c-1.5-10.2-3.7-20.2-6.9-30c-3.1-9.6-6.9-19-11.5-28
				c-4.5-8.9-9-17.9-14.6-26.2c-5.5-8.1-12-15.4-18.5-22.7c-3.3-3.7-6.7-7.4-10.5-10.7c-3.7-3.3-7.8-6.2-12.1-8.9
				c-17.4-10.9-38.9-13-58.9-10.5c-9.9,1.2-19.6,4.1-29,7.3c-9.8,3.3-19.4,6.8-28.5,11.8c-17.4,9.5-34.1,21.1-47.7,35.7
				c-6.6,7.2-12.9,15.2-17.3,24c-4.3,8.8-6.6,18.6-7.9,28.2c-1.3,10-1.1,20.3-0.9,30.4c0.2,10.2,0.5,20.4-0.1,30.6
				c-0.2,3.8-1,7.6-1.2,11.4c-0.1,3,0,6,0.1,9c0.4,9.3,1.1,18.6,1.9,27.9c0.8,10.1,1.6,20.2,2.5,30.2c0.4,5,0.9,10.1,1.3,15.1
				c0.4,4.5,0.9,9,1.2,13.4c0.1,1.8,0,3.7-0.3,5.5c0.1-0.8,0-0.2-0.1,0.2c-0.1,0.4-0.2,0.8-0.3,1.2c-0.2,0.7-0.4,1.5-0.6,2.2
				c-0.8,2.6-1.7,5.1-2,7.7c-0.7,7.6,8.5,11.3,14.6,12.3c3.6,0.6,7,0.1,10.4-0.8c1.5-0.4,3-0.8,4.6-1.1c0.2,0,1.1-0.3,1.3-0.2
				c0,0-1.1,0.1-0.4,0c0.3,0,0.6-0.1,1-0.1c1.2-0.1,2.5-0.1,3.7-0.2c6.8-0.3,13.7-0.7,20.5-0.9c6.8-0.2,13.6-0.1,20.4-0.4
				c6.8-0.2,13.6-0.4,20.4-0.6c6.9-0.2,13.7-0.4,20.6-0.7c6.9-0.2,13.8-0.8,20.6-1.1c13.9-0.6,27.9-0.9,41.8-1.1
				c14-0.3,27.9-0.9,41.9-1.5c7-0.3,14-0.5,21-0.8c1.7-0.1,3.4-0.1,5.1-0.2c1.1,0,2.3-0.1,3.4-0.1c0.4,0,0.9,0,1.3,0
				c0.2,0,0.4,0,0.6,0c1,0.1,0.3,0.2-0.1,0c0.5,0.3,1.7,0.3,2.3,0.4c0.8,0.2,1.6,0.5,2.4,0.7c0.9,0.3-1.1-0.4,0.1,0
				c0.3,0.1,0.6,0.2,0.9,0.3c1,0.4,2.1,0.7,3.1,1.1c3.5,1.1,7.5,1.1,10.7-0.6c3.7-2,6.6-5.8,8.2-9.7c1.2-3,1.1-6.3-0.1-9.3
				c-1-2.7-2.6-5.1-3.6-7.9c-0.3-0.7-0.5-1.5-0.7-2.2c-0.1-0.5-0.2-0.9-0.3-1.4c0-0.2-0.1-0.4-0.1-0.6c0.1,0.5,0,0.3,0-0.1
				c-0.2-2.2-0.4-4.3-0.6-6.5c-0.3-2.8-0.5-5.7-0.7-8.5c-0.6-7.2-1.4-14.3-2-21.5c-1.2-14.1-3.3-28.1-4.7-42.3
				c-0.3-2.8-0.5-5.6-0.8-8.4c-0.3-3.5-1.1-7.2-1.3-10.6c-0.2-2.6-2.6-4.4-5.2-4.3c-2.2,0.1-5.4,1.6-5.2,4.3c0.3,3.5,0,7.1,0.3,10.6
				c0.2,2.9,0.4,5.7,0.7,8.6c0.7,6.8,1.6,13.6,2.5,20.4c0.9,7,1.6,14,2.2,21c0.6,7.1,1.4,14.1,2,21.2c0.2,2.7,0.5,5.5,0.7,8.2
				c0.4,4.1,0.5,8.4,1.6,12.4c0.8,2.9,2.2,5.5,3.5,8.2c0.5,1.1,1,2.3,1.3,3.5c0,0.1,0,0.3,0.1,0.4c0,0-0.1-1.1-0.1-0.6
				c0,0.3,0,0.5,0,0.8c0,0.1-0.1,1-0.1,1c-0.1,0,0.2-1,0.1-0.6c-0.1,0.2-0.1,0.4-0.1,0.6c-0.1,0.3-0.2,0.6-0.3,0.9
				c-0.1,0.2-0.5,1.1-0.2,0.5c0.3-0.6-0.4,0.6-0.5,0.8c-0.3,0.4-0.6,0.8-0.9,1.2c-0.3,0.4-0.6,0.7-0.8,1c-0.5,0.6,0.6-0.5,0.1-0.1
				c-0.1,0.1-0.3,0.3-0.4,0.4c-0.1,0.1-0.8,0.5-0.8,0.6c0-0.1,1-0.5,0.5-0.3c-0.1,0-0.4,0.2-0.5,0.3c-0.3,0.3,0.6-0.3,0.7-0.2
				c-0.1,0-0.4,0.1-0.5,0.1c-0.9,0,1.4,0,0.5,0c-0.2,0-0.6-0.1-0.8,0c0,0,1.4,0.2,0.9,0.1c-0.2-0.1-0.5-0.1-0.7-0.1
				c-0.6-0.1-1.1-0.3-1.7-0.5c-0.8-0.3-0.4-0.2,0.2,0.1c-0.4-0.2-0.8-0.3-1.2-0.4c-3.9-1.4-7.6-2.5-11.8-2.5
				c-3.5,0-7.1,0.2-10.6,0.4c-13.8,0.5-27.6,1.1-41.4,1.6c-13.7,0.5-27.4,0.7-41,1.1c-6.8,0.2-13.5,0.4-20.3,0.7
				c-6.6,0.3-13.2,0.9-19.8,1.1c-13.3,0.4-26.5,0.8-39.8,1.2c-6.7,0.2-13.5,0.2-20.2,0.4c-6.8,0.2-13.6,0.6-20.3,0.9
				c-4.3,0.2-8.7,0.2-13,1.1c-1.4,0.3-2.8,0.7-4.1,1.1c-0.6,0.2-1.2,0.3-1.8,0.5c-0.3,0.1-0.6,0.1-0.8,0.2c-0.8,0.2,1.4-0.1,0.2,0
				c-0.4,0-0.7,0-1.1,0c-0.2,0-0.3,0-0.5,0c-0.6,0,0.7,0.1,0.7,0.1c-0.2-0.1-0.8-0.1-1.1-0.2c-0.5-0.1-1.1-0.2-1.6-0.4
				c-0.4-0.1-1.3-0.4-0.4-0.1c-0.4-0.2-0.9-0.3-1.3-0.5c-0.7-0.3-1.4-0.8-2.1-1.1c0.5,0.2,0.8,0.6,0.2,0.1c-0.1-0.1-0.4-0.4-0.5-0.5
				c0.1,0,0.7,1,0.4,0.4c0,0-0.2-0.2-0.2-0.3c0,0-0.1-0.3-0.2-0.3c0.1,0.1,0.4,1.1,0.3,0.6c0-0.2-0.1-0.4-0.2-0.6
				c-0.2-0.5,0,1.2,0.1,0.4c0-0.3,0.2-1,0.1-1.4c0.1,0.4-0.2,1.2,0,0.3c0.1-0.3,0.1-0.6,0.2-0.8c0.1-0.6,0.3-1.1,0.5-1.6
				c0.4-1.3,0.8-2.6,1.2-3.9c0.9-3.5,1.5-7.2,1.2-10.8c-0.7-9.4-1.7-18.7-2.5-28.1c-1.7-19-3.5-38-4.4-57.1
				c-0.1-3.1-0.3-6.3-0.2-9.4c0.1-3.3,0.8-6.5,1-9.8c0.8-10,0.6-20,0.3-30c-0.5-19.4-0.8-38.6,7.1-56.6c0.9-2.2,1.6-3.5,2.9-5.5
				c1.2-2,2.6-3.9,4-5.9c2.8-3.9,5.8-7.6,9-11.2c0.4-0.4,0.7-0.8,1.1-1.2c0.5-0.5,0.1-0.2,0.6-0.7c0.9-0.9,1.8-1.8,2.7-2.7
				c1.7-1.6,3.4-3.2,5.2-4.8c3.5-3.1,7.1-6.1,10.9-9c1.9-1.4,3.8-2.8,5.7-4.1c1-0.7,1.9-1.3,2.9-2c0.5-0.3,0.9-0.6,1.4-0.9
				c0.5-0.3,0.1-0.1,0,0c0.4-0.2,0.8-0.5,1.1-0.7c4.1-2.6,8.2-5.1,12.4-7.4c4.3-2.4,8.7-4.6,13.2-6.5c2.2-0.9,4.5-1.8,6.7-2.6
				c1-0.4,2.1-0.8,3.1-1.1c1.4-0.5,1.4-0.5,2.9-1c9.2-3.2,18.6-6.2,28.3-7.6c2.4-0.3,3.8-0.5,6.6-0.7c2.5-0.2,4.9-0.2,7.4-0.2
				c2.5,0,4.9,0.1,7.4,0.3c1.2,0.1,2.4,0.2,3.5,0.3c-0.8-0.1,0.5,0.1,0.7,0.1c0.7,0.1,1.4,0.2,2.1,0.3c2.3,0.4,4.6,0.8,6.8,1.4
				c1,0.3,2.1,0.5,3.1,0.8c0.6,0.2,1.2,0.4,1.8,0.6c0.3,0.1,0.5,0.2,0.8,0.3c-0.5-0.2,0.1,0,0.3,0.1c4.3,1.6,8.4,3.7,12.4,6.1
				c0,0,0.8,0.5,0.3,0.2c0.2,0.1,0.4,0.3,0.7,0.4c0.4,0.3,0.9,0.6,1.3,0.9c1,0.7,2,1.4,3,2.2c1.8,1.4,3.6,2.9,5.3,4.4
				c3.4,3.1,6.4,6.3,9.4,9.6c6.4,7.1,12.8,14.3,18.2,22.3c5.4,8,10,16.6,14.4,25.2c8.9,17.4,15.1,36.2,18.5,55.5
				c1.7,9.5,3.1,19.2,3.6,28.8C1673,1033.1,1679.6,1033.1,1679.6,1029.4z"/>
		</g>
	</g>
	<g>
		<path d="M226.9,1035.7c1.2-7,3-14,4.7-20.9c1.8-6.9,3.6-13.8,6-20.5c2.3-6.7,4.7-13.5,7.5-20c2.9-6.5,6.3-12.8,9.7-19.1
			c3.4-6.3,7.1-12.4,11-18.4c3.9-6,8-11.8,12.3-17.5c4.3-5.7,8.5-11.5,13.3-16.8c4.8-5.3,9.8-10.4,15-15.3
			c5.2-4.9,10.8-9.3,16.4-13.8c5.6-4.5,11.5-8.7,17.6-12.5c6.2-3.8,12.6-7.2,19.3-9.6c6.8-2.5,13.8-4.1,21.1-4.6
			c7.6-0.5,15,0.7,22.2,2.6c7.2,1.8,14.3,4.3,20.9,7.9c6.5,3.5,12.7,7.9,18.6,12.5c5.9,4.6,11.3,9.9,16.5,15.1
			c5.4,5.5,10.9,10.8,15.8,16.8c4.9,5.9,9.2,12.3,13.5,18.7c4.4,6.3,8.9,12.6,12.7,19.3c3.8,6.7,6.9,13.8,10,20.8
			c3.1,7,6,14.2,8.3,21.5c2.3,7.3,4,14.8,5.5,22.4c1.5,7.5,2.4,15.1,2.9,22.8c0.5,7.5,1.3,15.2,1.8,22.7c0.5,7.7,1.2,15.4,1.7,22.7
			c0.6,8,1,15.6,1.5,22.8c0.6,8.5,0.8,16.2,1.3,22.8c1,13.9,12.3,18.1,1.9,22.6c-10.7,4.6-11.6,0.6-23.3,1.1
			c-11.7,0.5-11.7,0.7-23.3,1.2c-11.7,0.5-11.7,0.4-23.4,0.9c-11.7,0.5-11.7,0.3-23.4,0.8c-11.7,0.5-11.7,0.8-23.3,1.4
			c-11.7,0.5-11.7,0.6-23.3,1.1c-11.7,0.5-11.7,0.1-23.4,0.6c-11.7,0.5-11.7,0.4-23.4,0.9c-11.7,0.5-11.7,0.9-23.3,1.4
			c-11.7,0.5-11.7,0.5-23.4,1c-11.7,0.5-11.7,0.1-23.4,0.6c-11.7,0.5-11.7,0.7-23.4,1.2s-14.8,9-23.3,1.1c-8.7-8-0.7-11.8-1.3-23.6
			c-0.5-11.8-0.5-11.8-1.1-23.7c-0.5-11.8-0.2-11.8-0.7-23.7c-0.5-11.8-0.4-11.8-1.1-23.7C227.4,1047.5,226.9,1047.5,226.9,1035.7z"
			/>
		<g>
			<path d="M230.5,1036.5c1.9-10.2,4.7-20.3,7.6-30.3c2.9-10,6.4-19.9,10.6-29.4c4.1-9.5,9.2-18.7,14.5-27.5
				c5.3-8.9,11.1-17.6,17.4-25.9c6-8,12-15.9,19-23.2c7-7.3,14.5-14.1,22.4-20.5c15.5-12.4,32.2-24.2,51.8-27.9
				c2.5-0.5,4.3-0.7,6.6-0.9c2.6-0.2,5.1-0.2,7.7,0c2.4,0.2,4.5,0.4,7.1,0.9c2.5,0.5,5,1,7.4,1.7c9.2,2.5,18.2,6.3,26.2,11.7
				c8.4,5.6,16.1,12.1,23.3,19.3c7,7,14.1,13.8,20.2,21.6c6.3,8,11.9,16.6,17.6,25c5.7,8.4,10.3,17.2,14.4,26.4
				c4.2,9.4,8.2,19,11.1,28.9c2.8,9.8,4.9,19.9,6.2,30.1c0.6,5.3,1,10.6,1.4,15.9c0.4,5.2,0.9,10.4,1.3,15.6
				c0.8,10.6,1.6,21.2,2.3,31.8c0.6,10,1.3,20,1.8,30c0.2,4.4,0.3,8.9,1.2,13.2c0.8,3.4,2.3,6.6,3.9,9.7c0.3,0.6,0.6,1.1,0.9,1.7
				c0.4,0.8-0.2-0.4-0.1-0.1c0.1,0.3,0.2,0.5,0.4,0.8c0.2,0.4,0.3,0.9,0.5,1.3c0.3,0.7,0-0.6-0.1-0.4c0,0.2,0,0.5,0,0.7
				c0,0.2,0.2-1.2,0-0.5c-0.2,0.8,0.4-0.7,0.2-0.4c-0.5,0.8-0.2-0.3,0.3-0.2c-0.1,0-0.6,0.5-0.6,0.5c-0.7,0.6,0.5-0.2,0.1-0.1
				c-0.4,0.2-0.7,0.4-1,0.5c-0.4,0.2-0.8,0.4-1.2,0.5c-0.2,0.1-0.5,0.2-0.7,0.3c-0.1,0-1.1,0.4-0.5,0.2c0.5-0.2-0.2,0.1-0.2,0.1
				c-0.3,0.1-0.6,0.2-0.8,0.3c-0.4,0.1-0.8,0.2-1.2,0.3c-0.4,0.1-0.7,0.2-1.1,0.2c-0.2,0-0.3,0-0.5,0.1c-0.7,0.1,1.4-0.1,0.3,0
				c-0.6,0-1.2,0-1.8,0c-0.3,0-0.6-0.1-0.9-0.1c0.8-0.2,1.1,0.1,0.5,0.1c-0.2,0-0.4-0.1-0.6-0.1c-3.8-0.6-7.5-1.1-11.3-1
				c-7,0.1-14.1,0.7-21.1,1.1c-7.1,0.3-14.2,0.5-21.3,0.8c-14.4,0.6-28.9,1-43.3,1.9c-7.3,0.5-14.6,0.7-21.9,1.1
				c-7.4,0.3-14.7,0.7-22.1,0.7c-7.3,0-14.6,0.4-22,0.7c-7.3,0.3-14.6,0.5-21.9,1c-14.4,1.1-28.9,1.8-43.3,2.1
				c-7.2,0.2-14.4,0.2-21.6,0.5c-6.9,0.3-13.9,0.5-20.7,1.1c-4.2,0.4-8,1.6-11.8,3.2c-0.6,0.3-1.3,0.5-1.9,0.8
				c-0.9,0.4-0.3-0.1,0.2,0c-0.3,0-0.8,0.2-1.1,0.3c-0.3,0.1-0.5,0.1-0.8,0.2c-0.9,0.2,1.3-0.3,0.4-0.1c-0.1,0-0.5-0.1-0.6,0
				c0,0,1.3,0.2,0.8,0.1c-0.1,0-1-0.2-1-0.2c0.1-0.1,1.2,0.5,0.1,0c-0.2-0.1-1.2-0.7-0.7-0.4c0.6,0.4-0.4-0.3-0.6-0.5
				c-0.4-0.3-0.8-0.7-1.2-1.1c-0.2-0.2-0.3-0.3-0.5-0.5c-0.6-0.5,0.4,0.5-0.1,0c-0.3-0.3-0.5-0.6-0.8-0.9c-0.2-0.3-0.4-0.6-0.6-0.9
				c-0.6-0.9,0.2,0.6-0.2-0.3c-0.1-0.3-0.2-0.6-0.3-0.8c-0.3-0.8,0,0.3,0,0.1c0-0.6,0-1.3,0-1.9c0.1-0.9-0.1,0.4,0,0.1
				c0.1-0.3,0.1-0.7,0.2-1c0.2-0.6,0.4-1.3,0.6-1.9c1.1-3.5,2-7.1,2-10.8c0-3.8-0.3-7.6-0.5-11.4c-0.3-7.3-0.7-14.7-0.9-22
				c-0.3-14.3-0.7-28.6-1.8-42.8c-0.5-6.6-1.2-13.2-1.2-19.8c0-5.9-10.9-6-10.9,0c0,3.7-0.1,7.5,0.2,11.2c0.3,3.4,0.6,6.8,0.8,10.1
				c0.5,7.1,0.8,14.3,1.1,21.4c0.6,14.6,1,29.3,1.6,43.9c0.2,4.1,0.7,8.3,0.2,12.4c-0.1,0.9,0.1-0.5-0.1,0.4
				c-0.1,0.4-0.2,0.9-0.3,1.3c-0.2,0.8-0.4,1.6-0.7,2.4c-0.4,1.3-0.8,2.7-1.1,4c-0.8,3.6-0.4,6.9,1.6,10.1c2.2,3.6,6,6.7,10,8.1
				c3.9,1.4,7.7,0.7,11.5-0.8c1.4-0.5,2.7-1.2,4.1-1.7c0.2-0.1,0.3-0.1,0.5-0.2c0.6-0.2-0.4,0.2-0.4,0.1c0.3-0.2,0.9-0.3,1.3-0.4
				c0.9-0.2,1.8-0.4,2.7-0.6c0.3,0,0.6-0.1,0.9-0.1c-0.1,0-1,0.1-0.3,0c0.5,0,1.1-0.1,1.6-0.1c1.2-0.1,2.4-0.1,3.6-0.2
				c1.7-0.1,3.4-0.2,5.1-0.3c3.1-0.2,6.3-0.4,9.4-0.5c7.4-0.4,14.7-0.4,22-0.6c7.3-0.2,14.6-0.6,22-0.9c14.8-0.7,29.6-1.8,44.4-2.3
				c14.9-0.6,29.8-0.8,44.7-1.5c14.9-0.7,29.8-1.8,44.7-2.2c14.8-0.4,29.7-0.9,44.5-1.7c3-0.2,6-0.4,8.9-0.5
				c2.2-0.1,4.4-0.2,6.6-0.3c1.9-0.1,4.3-0.4,6.2,0.2c-1.3-0.4-0.2,0,0.2,0c0.3,0,0.7,0.1,1,0.2c0.7,0.1,1.5,0.2,2.2,0.3
				c1.7,0.2,3.5,0.5,5.2,0.4c4.3-0.2,8.7-1.5,12.5-3.5c2.9-1.6,5.8-4,5.8-7.6c0-2.7-1.5-5.2-2.7-7.5c-0.2-0.3-0.3-0.6-0.5-0.9
				c-0.2-0.5-0.4-0.7,0-0.1c-0.4-0.7-0.7-1.4-1-2.2c-0.7-1.6-1.3-3.3-1.6-5c0-0.2-0.3-1.5-0.2-0.7c-0.1-0.5-0.1-0.9-0.2-1.4
				c-0.1-1.1-0.2-2.2-0.2-3.4c-0.1-2.3-0.3-4.6-0.4-7c-1.1-21.1-2.7-42.1-4.4-63.2c-0.9-10.7-1.4-21.5-2.9-32.1
				c-1.5-10.8-3.8-21.5-7.1-31.9c-3.2-10.1-7.4-19.7-11.8-29.3c-4.5-9.8-9.7-19-15.9-27.8c-5.8-8.4-11.4-17.1-18.1-25
				c-6.8-8-14.4-15.5-22-22.8c-7.6-7.3-15.9-13.8-24.8-19.3c-9-5.6-19-9.4-29.3-11.9c-10.7-2.6-21.6-3.1-32.4-0.9
				c-10.3,2.1-20,6.2-29.1,11.5c-9.2,5.3-17.6,11.7-25.9,18.3c-8.1,6.5-15.8,13.6-22.9,21.2c-7.3,7.7-13.6,16-19.9,24.4
				c-6.4,8.6-12.3,17.5-17.6,26.8c-5.3,9.2-10.5,18.8-14.6,28.7c-4.1,9.8-7.4,20.1-10.2,30.4c-2.7,10-5.2,20.2-6.8,30.4
				c-0.3,1.7,1.9,2.9,3.2,3C227.8,1038.9,230.2,1038.2,230.5,1036.5z"/>
		</g>
	</g>
	<g>
		<path d="M1501.7,922.2c-2.2-8.1-4.6-16.1-6.8-24.1c-2.2-8.1-4.1-16.2-6.3-24.3c-2.8-10.2-6-20.5-6.6-31c-0.4-7.4,0.2-14.7,1.2-22
			c1-7.3,2.3-14.5,3.3-21.8c1-7.3,1.6-14.6,1.2-22c0-1.7,1.9,4.5,0.6,3.4c-3.5-5.7-6.9-11.4-10.4-17.1c-3.5-5.7-7.1-11.3-10.5-16.9
			c-3.5-5.7-6.6-11.6-10.1-17.2c-2.1-3.5-4.3-7-4.5-11.1s2.4-8.6,6.4-8.9c4.3,7,8.9,13.8,13.8,20.4c4.9,6.6,10.1,12.9,15.4,19.1
			c5.4,6.2,10.9,12.4,16.7,18.1c0.9-8-0.6-16-2.7-23.8c-2.1-7.7-4.9-15.3-6.5-23.1c-1.6-7.6-1.6-16.2,0.4-23.7
			c2.1-8,6.5-14.7,14.1-18c0.8,8.3,1.7,16.4,2.7,24.6c1.1,8.2,2.6,16.4,4,24.6c1.4,8.2,2.5,16.5,4.2,24.7c6.2-1.4,8.5-9.7,7.4-16
			c-1-6.3-4.2-12.7-2.6-18.9s11.1-10.2,14.4-4.8c1.4,2.2,1,5,0.7,7.5c-1.1,9.1-1.7,18.2-2.8,27.3c0.3-10,0.6-10,0.9-20
			c-0.9,7-0.3,13.8,1.1,20.5c1.4,6.6,3.5,13.2,6.2,19.7c2.5,6.3,5.5,12.6,8.3,18.9c2.8,6.4,5.4,12.8,7.4,19.2
			c2.3,7.4,4,14.9,4.9,22.4c0.9,7.6,1,15.3,0.6,23c-0.4,7.6-1.2,15.2-2.4,22.9c-1.3,7.5-2.9,15-4.8,22.5c-1.9,7.4-4.1,14.8-6.4,22.1
			c-2.3,7.4-4.8,14.6-7.2,21.8"/>
		<g>
			<path d="M1504.6,921.5c-2.4-9.4-5-18.8-7.4-28.2c-2.3-9.4-4.5-18.8-7-28.1c-2.4-9.1-4.3-18.2-4.3-27.6c0.1-9.8,1.8-19.4,3.3-29.1
				c0.9-5.3,1.7-10.6,2.3-16c0.3-2.7,0.5-5.4,0.6-8.2c0-1.4,0.1-2.7,0.1-4.1c0-0.7,0-1.4,0-2c0-0.3,0-0.5,0-0.8
				c-0.1-1.2-0.1,0.2-0.1,0.2c-0.4,0.5-0.8,1.1-1.1,1.6c0,0,0,0,0,0c-1.1,0.4-2.1,0.7-3.2,1.1c0,0,0,0,0,0c-1.1-0.4-2.1-0.7-3.2-1.1
				c-0.2-0.1-1-1-0.9-1.3c0,0.1,0.1,0.3,0.1,0.3c0.1,0.3,0.2,0.6,0.3,1c0,0.2,0.1,0.3,0.1,0.5c0.2,0.7-0.1-0.2,0-0.3
				c0,0.1,0.1,0.4,0,0.5c0,0,0,0.1,0,0.1c0-0.9,0.4-1.6,1.2-2.2c0.7-0.3,1.3-0.6,2-1c0,0,0,0-0.1,0c0.8,0,1.6,0,2.4,0
				c2.6,0.4,2.5,1.9,1.9,0.7c-0.2-0.3-0.4-0.6-0.5-0.9c-0.4-0.6-0.7-1.2-1.1-1.8c-0.8-1.3-1.6-2.6-2.4-4c-1.5-2.4-2.9-4.8-4.4-7.3
				c-3-4.9-6-9.7-9-14.6c-3-4.8-5.8-9.6-8.6-14.5c-1.4-2.4-2.7-4.8-4.1-7.1c-1.4-2.3-2.5-4-3.4-6.3c-0.5-1.4-0.7-2.3-0.7-3.5
				c0-0.2,0.1-1.7,0-0.9c0.1-0.6,0.3-1.2,0.5-1.7c0.1-0.2,0.2-0.4,0.3-0.7c-0.2,0.5-0.1,0.2,0.1-0.1c0.1-0.2,0.3-0.4,0.4-0.6
				c0.2-0.4,0.5-0.5,0-0.1c0.2-0.2,0.3-0.3,0.5-0.4c0.8-0.8-0.6,0.7,0.1-0.1c0,0,0.1,0,0.1-0.1c0.3-0.1,0.2-0.1-0.4,0.1
				c0.2-0.2,1.4-0.2,0.1-0.1c-1.4-0.6-2.7-1.3-4.1-1.9c10.1,16.4,21.9,31.5,34.8,45.9c3.8,4.3,7.7,8.5,11.8,12.5
				c1.3,1.3,3.7,1.4,5.3,0.8c1.7-0.6,2.8-1.9,3-3.7c1.4-13.9-3.7-27.2-7.4-40.3c-1.8-6.3-3-11.7-2.9-18.3c0-5.8,0.8-11,3.2-16.4
				c0.2-0.3,0.3-0.7,0.5-1c-0.4,0.8,0.1-0.2,0.2-0.3c0.4-0.6,0.7-1.3,1.1-1.9c0.3-0.5,0.7-1,1.1-1.5c0.2-0.3,0.4-0.6,0.7-0.8
				c0.1-0.2,0.9-1,0.2-0.2c0.9-1,1.9-1.8,3-2.6c0.1-0.1,1.2-0.8,0.2-0.2c0.3-0.2,0.6-0.4,1-0.6c0.7-0.4,1.4-0.7,2-1
				c-2.5-1.2-4.9-2.3-7.4-3.5c0.9,9.8,1.9,19.5,3.4,29.2c1.4,9.7,3.2,19.3,4.7,28.8c0.9,5.7,1.8,11.3,2.9,17
				c0.5,2.5,4.1,3.4,6.1,2.9c6-1.5,9.8-6.6,10.9-12.6c0.6-3.1,0.5-6.1-0.1-9.2c-0.7-3.5-1.9-6.9-2.5-10.4c0.1,0.7-0.1-0.8-0.1-0.7
				c0-0.3-0.1-0.6-0.1-0.9c-0.1-0.9,0-1.8,0-2.7c0,0,0.1-0.8,0-0.3c0.1-0.4,0.2-0.8,0.3-1.2c0.1-0.3,0.2-0.6,0.3-0.8
				c0.3-0.9-0.5,0.7,0-0.1c0.2-0.3,0.7-1.4,1.1-1.5c0,0-0.8,0.7-0.1,0.2c0.2-0.2,0.4-0.4,0.7-0.6c0.1,0,0.7-0.6,0.7-0.5
				c0,0-0.9,0.5-0.2,0.2c0.3-0.1,0.5-0.3,0.8-0.4c0.2-0.1,0.4-0.2,0.5-0.2c0.5-0.2,0.4-0.2-0.4,0.1c0.2,0,1.2-0.2,1.4-0.3
				c-0.7,0.4-1,0.1-0.2,0c0.1,0,0.4,0,0.5,0c-0.8,0.2-1.1-0.2-0.3,0c0.3,0.1,1.2,0.4-0.2-0.1c0.1,0.1,0.3,0.1,0.5,0.2
				c-1.6-1,0.1,0.1,0,0.1c-0.2,0-0.7-0.8-0.1,0c0.3,0.4,0.1,0.2,0,0c0.2,0.4,0.3,0.8,0.4,1.2c-0.2-0.8,0,0.5,0,0.6
				c0.1,1.6-0.2,3.3-0.4,4.9c-1,8.7-1.6,17.5-2.7,26.2c3.3,0,6.6,0,9.9,0c0.2-6.7,0.7-13.4,0.9-20c0.1-2.5-2.7-4.2-5-4.1
				c-2.6,0.1-4.6,1.5-5,4.1c-1.9,14.4,2.4,29.1,7.8,42.3c5.4,13.1,11.9,25.7,16,39.4c4,13.6,5.3,27.3,4.7,41.6
				c-0.6,14.4-2.9,28.3-6.3,42.3c-3.8,15.7-9,31.1-14.1,46.4c-1.7,5.1,7.4,6.8,9,2.1c4.6-13.7,9.3-27.4,13.1-41.4
				c3.8-14.2,6.6-28.7,7.8-43.3c1.1-14.5,0.6-29.1-2.8-43.3c-3.3-14-9.4-26.9-15.2-39.9c-6.4-14.6-12.1-30.1-10-46.1
				c-3.3,0-6.6,0-9.9,0c-0.2,6.7-0.7,13.4-0.9,20c-0.1,2.5,2.7,4.2,5,4.1c2.6-0.1,4.7-1.5,5-4.1c1-8.2,1.6-16.5,2.5-24.7
				c0.4-4,1.2-8.1-0.9-11.8c-1.5-2.6-4.4-4.4-7.3-4.8c-6.6-0.9-13.4,2.9-16,9.1c-1.5,3.6-1,7.8-0.3,11.6c0.3,1.7,0.8,3.4,1.3,5.1
				c0.2,0.9,0.5,1.8,0.7,2.8c0.1,0.5,0.2,0.9,0.3,1.4c0,0.2,0.3,1.5,0.1,0.6c0.2,1.5,0.3,3.1,0.1,4.6c0,0.2-0.1,0.4-0.1,0.7
				c-0.1,0.5-0.1,0.4,0-0.1c0,0.2-0.1,0.4-0.1,0.7c-0.2,0.8-0.4,1.5-0.7,2.2c-0.1,0.3-0.3,0.6-0.4,0.9c-0.2,0.4-0.2,0.4,0.1-0.1
				c-0.1,0.2-0.2,0.4-0.3,0.5c-0.2,0.4-0.7,1.3-1.1,1.5c0.1-0.1,0.2-0.3,0.4-0.4c-0.1,0.1-0.3,0.3-0.4,0.4c-0.2,0.1-0.3,0.3-0.5,0.4
				c-0.4,0.3-0.3,0.2,0.3-0.1c0,0.1-0.7,0.4-0.8,0.4c-0.5,0.2-0.4,0.2,0.3-0.1c-0.2,0.1-0.4,0.1-0.6,0.2c2,1,4.1,1.9,6.1,2.9
				c-1.9-9.5-3.2-18.7-4.8-28.3c-1.6-9.4-3.1-18.6-4.2-28.1c-0.6-5.5-1.2-10.9-1.7-16.4c-0.3-3.6-4.4-4.8-7.4-3.5
				c-11.5,5.1-16.6,17-17.8,28.8c-0.7,6.8,0.1,13.7,1.8,20.3c1.7,6.8,4,13.4,5.8,20.2c2,7.5,3.4,14.9,2.6,22.7
				c2.8-0.9,5.5-1.9,8.3-2.8c-6.7-6.6-12.7-13.5-18.9-20.7c-6.1-7.2-12-14.6-17.4-22.4c-3.1-4.5-6.1-9-9-13.6
				c-0.8-1.2-2.7-2.1-4.1-1.9c-4.6,0.5-8.1,2.9-10,7.1c-1.6,3.5-1.3,7.7,0,11.3c1.5,4,4.1,7.6,6.3,11.3c2.2,3.7,4.3,7.5,6.5,11.2
				c4.6,7.7,9.6,15.3,14.3,23c2.3,3.8,4.7,7.6,7,11.4c0.7,1.1,1.2,2.2,2.3,2.9c1.2,0.8,2.7,1,4.1,0.7c2.1-0.4,3.6-2.4,3.4-4.5
				c-0.3-3.1-1.6-6.6-5.4-6.6c-1.7,0-3.8,1-4.3,2.7c-0.3,0.9-0.2,1.8-0.1,2.8c0.1,2.2,0.1,4.4,0,6.7c-0.3,9-1.8,17.8-3.1,26.7
				c-1.3,8.9-2.6,17.8-2.4,26.8c0.2,8.9,2,17.6,4.4,26.2c2.4,8.6,4.9,17.2,7.2,25.9c2.3,8.7,5,17.2,7.6,25.8
				c0.6,2.1,1.3,4.3,1.9,6.4C1499.7,925.9,1505.4,924.9,1504.6,921.5L1504.6,921.5z"/>
		</g>
	</g>
	<g>
		<g>
			<path d="M1321.8,955c3,2.4,6.2,4.3,9.5,6.2c2.8,1.7,5.5,3.3,8.3,4.9c5.4,3,10.9,5.9,16.1,9.2c-0.7-0.5-1.4-0.9-2.1-1.4
				c1.9,1.2,3.6,2.5,5.2,4.2c-0.6-0.6-1.1-1.2-1.7-1.8c1.1,1.2,2,2.5,2.7,3.9c-0.4-0.7-0.7-1.4-1.1-2.1c1.1,2.3,1.9,4.7,2.3,7.2
				c-0.1-0.8-0.3-1.6-0.4-2.4c0.8,4.9,0.6,10,0.4,15c-0.1,2.1,1.3,4.5,2.9,5.8c1.7,1.3,3.6,2,5.7,2.3c2.1,0.2,4.4,0,6.3-1
				c1.9-1,4.1-2.7,4.5-4.9c1-4.9,2.1-9.9,1.8-14.8c-0.3-5.6-1.6-11-4.9-15.7c-3.5-4.9-8.7-8.2-13.9-11c-4.8-2.6-9.6-5.1-14.3-7.6
				c-2.7-1.4-5.3-2.7-8-4.1c-1.3-0.7-2.7-1.3-4-2c-2.1-1-4.2-1.7-6.4-2.5c-0.8-0.1-1.6-0.2-2.4-0.3c-1.2,0-2.4,0.2-3.5,0.6
				c-1.6,0.6-3.4,1.6-4.3,3.1C1318.5,948.9,1319,952.7,1321.8,955L1321.8,955z"/>
		</g>
	</g>
	<g>
		<g>
			<path d="M1198.6,938.3c-2.4,1.6-4.8,3.1-7,5c-2,1.7-3.9,3.5-5.9,5.2c-4.1,3.6-8.1,7.2-12.2,10.8c-2.1,1.9-4.2,3.7-6.2,5.6
				c-2.2,2-4.7,3.9-6.3,6.4c-1.2,1.8-2,4-2,6.3c0,2.6,1,4.8,2.3,7c1.3,2.3,2.8,4.5,4.2,6.7c3.3,5.2,6.6,10.4,10.1,15.5
				c1.4,2,3.9,3.4,6.2,4c2.5,0.6,5.7,0.4,8-0.9c2.1-1.1,4.1-2.8,4.8-5.1c0.6-2.4,0.2-4.5-1-6.6c-2.4-4-4.9-8-7.4-11.9
				c-1.3-1.9-2.5-3.9-3.8-5.8c-1.2-1.8-2.5-3.7-3.5-5.6c0.4,0.7,0.7,1.4,1.1,2.1c-0.2-0.4-0.3-0.7-0.4-1.1c0.1,0.8,0.2,1.5,0.4,2.3
				c-0.1-0.4-0.1-0.7,0-1.1c-0.1,0.8-0.2,1.5-0.4,2.3c0.1-0.5,0.3-0.9,0.5-1.4c-0.3,0.7-0.7,1.4-1,2c0.4-0.8,1-1.4,1.6-2.1
				c-0.5,0.6-1.1,1.1-1.6,1.7c4.5-4.8,9.1-9.5,13.5-14.3c-0.5,0.5-1,1.1-1.5,1.6c4.7-5,9.3-10,14-15c-0.4,0.5-0.9,0.9-1.3,1.4
				c2.3-2.4,4.2-5.1,6.1-7.8c1.8-2.7,0.8-5.8-1.8-7.5C1204.8,935.9,1201.4,936.4,1198.6,938.3L1198.6,938.3z"/>
		</g>
	</g>
	<g>
		<path d="M1201.9,961.1c0.7,6.2,2.1,14.6,3.5,23.5c1.2,7.9,2.5,16.1,3.8,23.4c2.2,13.2-7.8,23.2,4.1,23.3
			c11.2,0.1,10.1-4.9,20.1-9.9c10-5,10-5.1,20-10.1c10-5,10-5,20-10c10-5,9.9-5.2,19.9-10.2c10-5,10.1-4.9,20.1-9.9
			c10-5,12.3-2,20-10.1c-3.1-7.9-5.1-16.1-6.9-24.4c-1.7-8.3-3.3-16.6-5.6-24.7c-2.2-8.1-5.3-16.1-9.7-23.3
			c-4.5-7.3-10.2-13.6-17.6-17.7c-7.9-4.4-17-6-26-5c-8.9,0.9-17.6,4.2-25.1,9.1c-7.6,4.9-14.1,11.2-19.6,18.4
			c-5.4,7.1-9.9,15.1-13.7,23.2c-2.5,5.4-4.9,11-6.3,16.7c-1.4,5.8-1.7,11.8-0.8,17.8"/>
		<g>
			<path d="M1197.5,961.1c1.1,9.3,2.7,18.5,4.1,27.7c0.8,5.1,1.6,10.3,2.5,15.4c0.2,1.1,0.4,2.3,0.6,3.4c0,0.3,0.1,0.6,0.1,0.9
				c0,0,0.1,0.7,0.1,0.3c-0.1-0.4,0,0.3,0,0.4c0,0.3,0.1,0.6,0.1,0.9c0.1,1.8,0.1,3.7-0.1,5.5c0,0.4-0.1,0.7-0.1,1.1
				c-0.1,0.6,0.1-0.6,0,0c0,0.2-0.1,0.4-0.1,0.6c-0.1,0.8-0.3,1.6-0.5,2.3c-0.3,1.3-0.6,2.7-0.8,4c-0.5,2.7-0.8,5.6,1,7.9
				c2.3,3.1,6.7,3.5,10.2,3.3c4.1-0.1,7.8-1,11.2-3.3c2.4-1.6,4.5-3.7,6.9-5.4c0.1-0.1,0.6-0.4,0,0c0.2-0.1,0.3-0.2,0.5-0.3
				c0.5-0.3,0.9-0.6,1.4-0.8c1.1-0.6,2.1-1.1,3.2-1.6c1.6-0.8,3.2-1.6,4.8-2.4c6.2-3.1,12.4-6.3,18.7-9.4
				c12.3-6.1,24.5-12.5,36.7-18.6c5.9-3,11.9-5.9,17.8-8.8c0.9-0.4,1.8-0.8,2.7-1.2c0.4-0.2,0.8-0.3,1.3-0.5
				c0.2-0.1,0.4-0.1,0.6-0.2c-0.2,0.1-0.7,0.2-0.2,0.1c1.3-0.4,2.6-0.8,4-1.2c3-0.9,5.8-2,8.3-3.9c1.5-1.1,2.8-2.4,4-3.7
				c0.9-1,1.7-2.2,1.1-3.6c-6.4-16.1-8-33.6-12.7-50.2c-4.2-14.8-11.6-30.2-24.5-39.3c-7.1-5-15.3-7.7-23.9-8.4
				c-8.4-0.7-16.9,0.9-24.8,3.9c-15.1,5.7-27.4,17.4-36.3,30.7c-4.7,7.1-8.7,14.7-12.1,22.5c-3.5,8-6.2,16.5-6.1,25.3
				c0,2.2,0.2,4.4,0.5,6.5c0.3,2.2,2.1,3.7,4.4,3.7c1.8-0.1,4.7-1.4,4.4-3.7c-0.6-4.1-0.7-8.4-0.2-12.5c0.5-3.9,1.7-7.8,3.1-11.5
				c2.8-7.5,6.2-14.5,10.2-21.2c2-3.4,4.2-6.7,6.6-9.9c1.1-1.5,2.3-3,3.5-4.4c1.3-1.5,2.2-2.5,3.4-3.7c2.6-2.6,5.4-5.1,8.3-7.3
				c0.7-0.6,1.5-1.1,2.3-1.6c0.4-0.2,0.7-0.5,1.1-0.7c0.2-0.1,1.1-0.7,0.7-0.5c1.6-1,3.3-2,5-2.8c1.7-0.9,3.5-1.6,5.3-2.3
				c0.4-0.2,0.8-0.3,1.2-0.5c-0.1,0-0.5,0.2,0,0c0.3-0.1,0.6-0.2,0.8-0.3c0.9-0.3,1.8-0.6,2.8-0.8c1.8-0.5,3.7-0.9,5.6-1.2
				c0.4-0.1,0.9-0.1,1.3-0.2c0,0,0.7-0.1,0.3,0c-0.5,0.1,0.4,0,0.5,0c1-0.1,1.9-0.1,2.9-0.2c1.9-0.1,3.8,0,5.7,0.2
				c0,0,0.7,0.1,0.3,0c-0.4-0.1,0.3,0,0.3,0c0.5,0.1,1,0.1,1.5,0.2c0.9,0.2,1.9,0.3,2.8,0.6c0.9,0.2,1.8,0.5,2.8,0.7
				c0.2,0.1,0.4,0.1,0.6,0.2c0,0,0.7,0.2,0.3,0.1c-0.4-0.1,0.3,0.1,0.3,0.1c0.3,0.1,0.5,0.2,0.8,0.3c1.8,0.7,3.5,1.5,5.2,2.5
				c0.4,0.2,0.7,0.4,1,0.6c0,0,0.6,0.4,0.2,0.1c-0.4-0.2,0.3,0.2,0.4,0.3c0.7,0.5,1.4,1,2.1,1.5c1.4,1,2.7,2.2,3.9,3.4
				c0.3,0.3,0.6,0.6,0.8,0.8c0.1,0.1,0.3,0.3,0.4,0.4c0.5,0.5-0.3-0.4,0.1,0.1c0.6,0.6,1.2,1.3,1.7,2c1.1,1.3,2.2,2.7,3.1,4.2
				c4.3,6.3,7.2,13.1,9.6,20.4c5,15.8,6.6,32.4,11.8,48.1c0.6,1.9,1.3,3.8,2.1,5.7c0.4-1.2,0.8-2.4,1.1-3.6c-1.3,1.3-2.6,2.6-4,3.7
				c-0.2,0.1-0.6,0.6-0.8,0.6c0,0,0.9-0.5,0.2-0.2c-0.1,0.1-0.3,0.2-0.4,0.2c-0.5,0.3-1.1,0.5-1.6,0.8c-0.1,0.1-1.2,0.5-0.4,0.2
				c0.7-0.3-0.1,0-0.3,0.1c-0.6,0.2-1.2,0.3-1.8,0.5c-1.3,0.4-2.6,0.7-3.9,1.2c-4,1.4-7.7,3.3-11.4,5.2c-2.4,1.2-4.8,2.3-7.2,3.5
				c-12.4,6.1-24.6,12.5-36.9,18.7c-6.1,3.1-12.3,6.1-18.4,9.2c-2.5,1.2-4.9,2.5-7.4,3.7c-3.8,1.9-7.6,3.7-11,6.3
				c-1.2,0.9-2.2,1.8-3.3,2.8c-0.4,0.4-0.9,0.7-1.3,1.1c-0.1,0.1-0.6,0.6-0.8,0.6c-0.1,0,0.8-0.4,0.4-0.3c-0.2,0.1-0.4,0.2-0.5,0.3
				c-0.3,0.2-0.6,0.3-0.9,0.4c-0.1,0.1-0.3,0.1-0.4,0.1c-0.5,0.2,0.8-0.2,0.3-0.1c-0.8,0.1-1.6,0.4-2.4,0.5c-0.5,0.1,0.2,0,0.3,0
				c-0.3,0-0.5,0-0.8,0.1c-0.5,0-1,0-1.4,0c-0.5,0-1,0-1.5,0c-1.1,0,0.7,0.2-0.2,0c-0.3-0.1-0.5-0.1-0.8-0.2c-0.6-0.1,1,0.3,0.1,0
				c-0.1,0-0.3-0.2-0.3-0.2c0,0,0.8,0.5,0.5,0.3c-0.8-0.5,0.3,0.4,0.1,0.1c-0.5-0.5,0.1,0.2,0.1,0.3c0-0.1-0.1-0.4-0.2-0.5
				c-0.2-0.4,0.1,0.4,0.1,0.5c0,0,0-0.3,0-0.4c0-0.3,0-0.5,0-0.8c0-0.5,0.1-1,0.2-1.6c0-0.5-0.2,0.8,0,0.3c0-0.1,0-0.2,0.1-0.4
				c0.1-0.4,0.1-0.7,0.2-1.1c0.3-1.4,0.6-2.9,0.9-4.3c0.7-3.5,1.1-7.1,0.7-10.7c-0.6-4.8-1.5-9.3-2.3-14c-1.5-9.4-3.1-18.8-4.4-28.3
				c-0.3-1.9-0.5-3.8-0.7-5.7c-0.3-2.2-2.2-3.7-4.4-3.7C1200.1,957.6,1197.2,958.8,1197.5,961.1L1197.5,961.1z"/>
		</g>
	</g>
	<g class="st0">
		<g class="st3">
			<path d="M1481.8,854.2c-3.9,3.4-7.5,7.2-10.8,11.1c-3.1,3.6-6,7.5-8.4,11.6c-5,8.5-7.8,18.1-6.7,28c0.4,3.1,0.9,6.1,1.8,9
				c0.8,2.8,1.9,5.3,3.2,7.9c0.7,1.4,1.4,2.3,2.8,3c1.3,0.7,3.3,0.9,4.7,0.5c2.9-0.8,5-3.1,4.3-6.2c-0.5-2.3-1-4.5-1.6-6.8
				c-0.6-2.2-1.4-4.6-1.5-6.8c0,0.2,0.2,1.2,0,0.1c0-0.2-0.1-0.5-0.1-0.7c-0.1-0.5-0.1-1.1-0.2-1.6c-0.1-1.2-0.2-2.5-0.2-3.7
				c0-1,0.1-2,0.2-3.1c0.1-0.6,0.1-1.1,0.2-1.7c0-0.1,0.1-0.9,0-0.1c-0.1,0.9,0.1-0.3,0.1-0.5c0.8-4.2,2.3-8.2,4.2-12
				c0.1-0.2,0.2-0.5,0.4-0.8c0,0-0.5,0.9-0.2,0.3c0.2-0.4,0.5-0.9,0.7-1.3c0.6-1,1.2-2.1,1.8-3.1c1.2-1.9,2.5-3.8,3.9-5.7
				c3.1-4.2,6.4-8.1,9.4-12.3c1.3-1.9,0.5-4.3-1.3-5.5C1486.6,852.6,1483.6,852.6,1481.8,854.2L1481.8,854.2z"/>
		</g>
	</g>
	<g>
		<g>
			<g>
				<g>
					<g class="st4">
						<g>
							<path class="st5" d="M302.4,373.1c0.7-0.6,1.4-1.2,2.1-1.8c-0.4,0.3-0.7,0.6-1.2,0.8C302.9,372.4,302.7,372.7,302.4,373.1z"
								/>
							<path class="st5" d="M306.4,369.6c0.1-0.1,0.3-0.2,0.4-0.3c0.1-0.1,0.2-0.2,0.3-0.3L306.4,369.6z"/>
							<path class="st5" d="M310,366.2c-0.7,0.6-1.3,1.1-1.8,1.7C308.7,367.4,309.3,366.9,310,366.2z"/>
							<path class="st5" d="M307,368.7c0.3-0.1,0.4-0.2,0.1,0.2l0,0c0.3-0.3,0.7-0.7,1-1C307.7,368.2,307.3,368.5,307,368.7z"/>
							<path class="st5" d="M307,368.7c-0.3,0.1-0.6,0.4-0.8,0.5C306.5,369.1,306.7,368.9,307,368.7z"/>
							<path class="st5" d="M306.8,366.6c0.3-0.4,0.6,0.1,1.2-0.7c1.6-1.6,2.9-3.1,4.5-4.5c0.6-0.7,2.1-1.3,2.8-2.1
								c1.6-1.6,5.5-6,3-3.7c-3.7,3.5-6.2,5.8-9.5,9c-2.7,2.6-5.2,5.3-7.9,7.9c-0.8,0.7-1.6,1.3-2.4,2c1-0.8,2.1-1.6,3.3-2.5
								C303.2,370.8,304.6,368.8,306.8,366.6z"/>
							<path class="st5" d="M286.7,386.2c0.3-0.4,1-1.1,1-1.1c1.9-1.1,3.5-2.7,5.1-4.3c-0.3,0.2-0.6,0.3-0.9,0.5c-1,0.9-1,1.1,0,0.4
								c-2.2,1.5-4.1,3.1-6,4.8C286,386.5,286.1,386.6,286.7,386.2z"/>
							<path class="st5" d="M284.7,387.5c0.4-0.3,0.7-0.7,1.1-1c0,0,0,0-0.1,0C285.4,386.9,285,387.2,284.7,387.5L284.7,387.5z"/>
							<path class="st5" d="M317.3,359c4.8-4.3,9.2-8.4,13.6-12.4c0.3-0.4,0.4-0.7,0.9-1c0.4-0.2,0.8-0.5,1.1-0.8
								c0.6-0.6,1.3-1.2,1.9-1.7c0.2-0.2,0.4-0.4,0.6-0.6c0,0,0,0,0,0c0.3-0.4,0.2-0.3-0.1-0.2c-0.3,0.2-0.5,0.4-0.8,0.5
								c0.2-0.1,0.5-0.3,0.8-0.5c0.3-0.2,0.7-0.5,1.1-0.8c0.6-0.5,1.2-1.1,1.8-1.7c-0.7,0.7-1.3,1.2-1.8,1.7c-0.4,0.4-0.7,0.7-1,1
								c-0.1,0.1-0.2,0.2-0.3,0.3c1.5-1.3,3-2.6,4.4-3.9c0.3-0.3,0.6-0.6,0.9-0.9c1-1,2-2,2.8-2.4c0.3-0.2,0.5-0.5,0.8-0.7l-0.2,0.1
								c0.1-0.1,0.2-0.2,0.3-0.2c1.1-1,2.2-1.9,3.4-2.9c0.7-0.7,1.3-1.5,2-2.2c0,0,0.6-0.3,0.9-0.5c0.2-0.4,0.6-0.8,1.1-1.3
								c-0.7,0.4-1.3,0.8-1.9,1.2c-0.9,0.5-1.3,1.8-2.5,2.3c1.2-0.5,1.6-1.8,2.5-2.3c0.6-0.4,1.2-0.8,1.9-1.2c1-1,2.4-2.1,3.6-3
								c-1.2,1.4-2.5,2.3-3.6,3c-0.5,0.5-0.9,0.9-1.1,1.3c-0.3,0.2-0.9,0.5-0.9,0.5c-0.7,0.7-1.4,1.5-2,2.2c2.2-1.9,4.4-3.8,6.7-5.8
								c14.2-13.1,27.1-25.4,41.8-39.1c8-7.4,15.7-14.4,23.3-21.3c0.9-0.9,1.9-1.7,2.8-2.6c0.9-0.9,1.8-1.8,2.7-2.6
								c1.8-1.8,3.6-3.5,5.3-5.2c3.5-3.5,6.9-7,10.5-10.4c7-6.9,14.2-13.5,21.7-20.6c2.9-2.7,6.8-6.8,10.8-10.8
								c3.9-4.1,7.8-8.1,10.4-10.8c6.6-7.9,1.4-5.5,1-5.2c-5.6,3.3-8.4,7.5-18.1,15.9c6.5-5.9-3.7,5.4-10.2,10.5
								c-4.7,3.7-10,8.6-15.3,14c-5.4,5.3-10.8,11.2-16.1,16.2c-1.3,1.3-2.7,2.6-4.1,4c-0.7,0.7-1.4,1.4-2.1,2.2
								c-0.8,0.7-1.5,1.4-2.3,2.2c-17,15.2-31.7,30.4-49.2,46.8c-4.6,4.4-8.3,8.6-12,12.4c-2.7,2.8-6.1,5.3-8.4,7.5
								c-3.7,3.3-6.8,6.3-9.7,9.2c3.4-3.1,5.8-5.4,9.6-8.9c2.5-2.3-1.4,2-3,3.6c-0.7,0.7-2.1,1.3-2.8,2.1c-1.6,1.4-2.9,2.9-4.5,4.5
								c-0.7,0.7-0.9,0.3-1.2,0.7c-2.2,2.2-3.5,4.2-5.1,5.5c-1.2,1-2.2,1.8-3.2,2.6c-0.6,0.5-1.3,1.1-1.9,1.7
								c-0.4,0.4-0.8,0.8-1.2,1.2c0.4-0.2,0.7-0.2,0.9-0.1c-0.6,0.5-1.5,1.2-2.2,1.8c0.6-0.5,1.5-1.2,2.2-1.8
								c-0.2,0-0.5-0.1-0.9,0.1c-2.8,3-6.1,6.3-9.2,9.4c0,0,0,0,0.1,0c1.9-1.7,3.7-3.4,5.9-4.9c-0.9,0.7-0.9,0.5,0-0.4
								c0.3-0.2,0.6-0.3,0.9-0.5c-1.6,1.6-3.2,3.3-5,4.4c0,0-0.7,0.7-1,1.1c-0.6,0.4-0.7,0.3-0.9,0.3c-0.4,0.3-0.7,0.7-1.1,1
								C314.6,361,317.3,359,317.3,359z"/>
							<path class="st5" d="M336.6,341.4c-0.2,0.2-0.6,0.5-0.9,0.9c1.2-1.1,2.5-2.2,3.7-3.3C338.7,339.4,337.7,340.4,336.6,341.4z"
								/>
						</g>
					</g>
				</g>
			</g>
		</g>
	</g>
	<g>
		<g>
			<g>
				<g>
					<g class="st4">
						<g>
							<path class="st5" d="M336.7,453c0.8-0.9,1.7-1.7,2.5-2.6c-0.4,0.4-0.9,0.8-1.4,1.2C337.3,452.2,337,452.5,336.7,453z"/>
							<path class="st5" d="M341.5,448.1c0.2-0.2,0.3-0.3,0.4-0.5c0.1-0.1,0.2-0.3,0.3-0.4L341.5,448.1z"/>
							<path class="st5" d="M345.7,443.5c-0.8,0.8-1.5,1.5-2.2,2.3C344.2,445.2,344.9,444.4,345.7,443.5z"/>
							<path class="st5" d="M342.2,447c0.3-0.2,0.5-0.3,0.1,0.2l0,0c0.4-0.5,0.8-0.9,1.3-1.4C343.1,446.3,342.6,446.7,342.2,447z"/>
							<path class="st5" d="M342.2,447c-0.3,0.2-0.8,0.6-0.9,0.7C341.6,447.5,341.9,447.3,342.2,447z"/>
							<path class="st5" d="M342.1,444.7c0.4-0.5,0.6,0,1.4-1c1.9-2.2,3.5-4.1,5.4-6.1c0.8-1,2.6-2,3.3-2.9c2-2.2,6.7-7.9,3.7-4.8
								c-4.6,4.8-7.6,7.9-11.6,12.2c-3.2,3.6-6.3,7.1-9.6,10.8c-0.9,1-1.9,1.9-2.8,2.8c1.2-1.2,2.5-2.4,3.9-3.7
								C337.7,450.3,339.4,447.6,342.1,444.7z"/>
							<path class="st5" d="M317.9,471.5c0.4-0.5,1.2-1.4,1.2-1.4c2.2-1.7,4.2-3.9,6.2-6c-0.4,0.2-0.7,0.5-1.1,0.7
								c-1.2,1.2-1.2,1.4-0.1,0.5c-2.6,2.2-4.9,4.4-7.2,6.8C317.1,472,317.2,472.1,317.9,471.5z"/>
							<path class="st5" d="M315.5,473.4c0.4-0.5,0.9-0.9,1.3-1.4c0,0-0.1,0-0.1,0C316.3,472.5,315.9,473,315.5,473.4L315.5,473.4z"
								/>
							<path class="st5" d="M354.7,433.8c2.9-3,5.7-5.8,8.5-8.6c2.8-2.8,5.6-5.4,8.3-8.1c0.4-0.5,0.6-0.8,1.2-1.3
								c0.5-0.4,1-0.7,1.4-1.1c0.8-0.8,1.6-1.5,2.4-2.3c0.3-0.3,0.5-0.6,0.8-0.9c0,0,0,0,0,0c0.4-0.5,0.2-0.4-0.1-0.2
								c-0.3,0.3-0.7,0.5-0.9,0.7c0.2-0.1,0.6-0.5,0.9-0.7c0.4-0.3,0.9-0.7,1.4-1.2c0.7-0.7,1.4-1.5,2.2-2.3
								c-0.8,0.9-1.5,1.7-2.2,2.3c-0.4,0.5-0.9,0.9-1.3,1.4c-0.1,0.1-0.2,0.3-0.4,0.4c1.8-1.8,3.6-3.6,5.4-5.4
								c0.4-0.4,0.8-0.8,1.1-1.2c1.2-1.4,2.5-2.7,3.4-3.4c0.3-0.3,0.6-0.6,1-1c-0.1,0.1-0.1,0.1-0.2,0.2c0.2-0.1,0.3-0.2,0.4-0.3
								c1.3-1.4,2.7-2.7,4.1-4.1c0.8-1,1.6-1.9,2.5-2.9c0,0,0.7-0.5,1.1-0.8c0.3-0.5,0.7-1.1,1.3-1.7c-0.8,0.6-1.6,1.2-2.3,1.8
								c-1.1,0.8-1.7,2.4-3,3.2c1.4-0.8,2-2.4,3-3.2c0.7-0.5,1.4-1.1,2.3-1.8c1.2-1.4,2.9-3,4.3-4.3c-1.5,1.9-2.9,3.2-4.3,4.3
								c-0.6,0.7-1,1.3-1.3,1.7c-0.4,0.3-1.1,0.8-1.1,0.8c-0.8,1-1.7,2-2.5,2.9c2.7-2.7,5.3-5.4,8-8.2c8.5-9.1,17.1-17.4,25.6-26.1
								c8.4-8.7,16.9-17.5,26.1-26.6c5-4.9,9.8-9.8,14.6-14.6c2.4-2.4,4.8-4.7,7.2-7.1c2.4-2.4,4.7-4.7,7-7
								c4.7-4.6,9.1-9.3,13.7-13.7c2.3-2.2,4.6-4.4,6.9-6.6c2.3-2.2,4.5-4.5,6.7-6.7c8.8-9,17.8-17.9,27.5-27
								c7.4-7,20.5-20.7,27.3-27.8c8.7-10,2.4-6.5,1.9-6.2c-6.9,4.6-10.7,9.7-22.9,20.9c8.3-7.7-5,6.8-13.3,13.5
								c-6,4.8-12.6,11.4-19.4,18.5c-3.4,3.5-6.8,7.2-10.2,10.7c-3.5,3.5-7.1,6.9-10.5,10.2c-1.8,1.6-3.5,3.4-5.2,5.3
								c-1.8,1.8-3.6,3.8-5.6,5.8c-5.2,5.2-10.3,10.3-15.3,15.4c-5,5.1-10,10.2-15,15.4c-10.1,10.2-19.8,21-30.8,31.9
								c-2.9,2.9-5.5,5.7-8,8.5c-2.5,2.7-4.8,5.5-7.1,8.1c-3.4,3.8-7.2,7.5-10,10.4c-4.5,4.6-8.2,8.7-11.8,12.6
								c4.1-4.3,7-7.5,11.6-12.3c3.1-3.2-1.7,2.6-3.6,4.8c-0.8,1-2.5,2-3.3,3c-1.9,1.9-3.5,3.9-5.4,6.1c-0.8,1-1,0.5-1.4,1
								c-2.7,2.9-4.5,5.4-6.4,7.1c-1.4,1.3-2.7,2.4-4,3.6c-0.8,0.7-1.6,1.5-2.4,2.3c-0.5,0.5-1,1.1-1.5,1.6c0.5-0.3,0.8-0.3,1.1-0.3
								c-0.8,0.7-1.9,1.7-2.6,2.4c0.8-0.7,1.9-1.7,2.6-2.4c-0.3,0-0.5,0-1.1,0.3c-3.5,3.9-7.5,8.4-11.3,12.6c0,0,0.1,0,0.1,0
								c2.3-2.4,4.5-4.6,7.1-6.8c-1.1,1-1.1,0.8,0.1-0.5c0.4-0.3,0.7-0.5,1.1-0.7c-2,2.2-3.9,4.4-6.1,6.1c0,0-0.8,1-1.2,1.4
								c-0.7,0.6-0.8,0.5-1,0.5c-0.4,0.5-0.9,0.9-1.3,1.4C351.5,436.6,354.7,433.8,354.7,433.8z"/>
							<path class="st5" d="M378.7,410c-0.3,0.3-0.7,0.7-1.1,1.2c1.5-1.5,3-3,4.5-4.5C381.1,407.3,379.9,408.6,378.7,410z"/>
						</g>
					</g>
				</g>
			</g>
		</g>
	</g>
	<g>
		<g>
			<g>
				<g>
					<g class="st4">
						<g>
							<path class="st5" d="M333.8,508.3c1-1,2-2.1,3.1-3.1c-0.5,0.5-1.1,1-1.7,1.4C334.5,507.3,334.2,507.7,333.8,508.3z"/>
							<path class="st5" d="M339.7,502.4c0.2-0.2,0.4-0.4,0.5-0.5c0.2-0.2,0.3-0.3,0.4-0.5C340.3,501.7,340,502,339.7,502.4z"/>
							<path class="st5" d="M344.8,496.8c-0.9,0.9-1.8,1.9-2.6,2.8C343,498.9,343.8,497.9,344.8,496.8z"/>
							<path class="st5" d="M340.6,501.1c0.4-0.3,0.6-0.4,0.1,0.2c0,0,0,0,0,0c0.5-0.6,1-1.1,1.5-1.7
								C341.6,500.2,341.1,500.7,340.6,501.1z"/>
							<path class="st5" d="M340.6,501.1c-0.4,0.3-0.9,0.7-1.1,0.9C339.8,501.7,340.2,501.4,340.6,501.1z"/>
							<path class="st5" d="M340.7,498.5c0.5-0.6,0.7-0.1,1.7-1.3c2.3-2.7,4.3-5,6.6-7.4c1-1.2,3-2.5,3.9-3.7
								c2.3-2.7,8.3-9.5,4.5-5.7c-2.8,2.9-5,5.3-7.2,7.7c-2.2,2.4-4.3,4.6-6.7,7.3c-3.9,4.4-7.7,8.5-11.7,12.9
								c-1.2,1.2-2.3,2.3-3.4,3.4c1.5-1.4,3-2.9,4.7-4.5C335.2,505.1,337.4,502.1,340.7,498.5z"/>
							<path class="st5" d="M311.4,531.1c0.5-0.6,1.4-1.8,1.4-1.8c2.6-2.2,4.9-4.9,7.3-7.5c-0.4,0.3-0.8,0.6-1.3,1
								c-1.4,1.5-1.4,1.7-0.1,0.5c-3.1,2.8-5.8,5.6-8.5,8.5C310.5,531.7,310.6,531.9,311.4,531.1z"/>
							<path class="st5" d="M308.7,533.5c0.5-0.6,1.1-1.2,1.6-1.7c0,0-0.1,0-0.1,0C309.6,532.4,309.1,533,308.7,533.5L308.7,533.5z"
								/>
							<path class="st5" d="M355.6,484.9c7-7.2,13.7-13.9,20.2-20.5c0.4-0.6,0.7-1,1.4-1.7c0.6-0.5,1.1-0.9,1.6-1.4
								c0.9-1,1.9-1.9,2.8-2.9c0.3-0.3,0.6-0.7,1-1.1c0,0,0,0,0,0c0.5-0.6,0.3-0.5-0.1-0.2c-0.4,0.3-0.8,0.6-1.1,0.9
								c0.2-0.2,0.7-0.6,1.1-0.9c0.5-0.4,1-0.9,1.6-1.5c0.8-0.9,1.7-1.8,2.6-2.8c-1,1.1-1.9,2-2.6,2.8c-0.5,0.6-1,1.1-1.5,1.7
								c-0.1,0.2-0.3,0.3-0.4,0.5c2.2-2.2,4.3-4.4,6.4-6.6c0.5-0.5,1-1,1.3-1.4c1.5-1.6,3.1-3.2,4.2-4c0.4-0.4,0.8-0.7,1.2-1.1
								c-0.1,0.1-0.2,0.1-0.3,0.2c0.2-0.2,0.3-0.3,0.5-0.4c1.7-1.6,3.4-3.2,5.1-4.8c1-1.1,2.1-2.3,3.1-3.4c0,0,0.9-0.6,1.3-0.9
								c0.4-0.5,0.9-1.2,1.6-2c-1,0.8-1.9,1.5-2.7,2.2c-1.3,0.9-2.1,2.8-3.8,3.8c1.6-1,2.5-2.8,3.8-3.8c0.8-0.7,1.7-1.4,2.7-2.2
								c1.5-1.6,3.5-3.7,5.2-5.2c-1.8,2.2-3.6,3.8-5.2,5.2c-0.7,0.8-1.3,1.5-1.6,2c-0.4,0.3-1.3,0.9-1.3,0.9c-1,1.2-2.1,2.3-3.1,3.4
								c3.3-3.1,6.6-6.4,9.8-9.8c2.6-2.7,5.1-5.5,7.7-8.1c2.6-2.7,5.3-5.2,7.9-7.7c5.3-5.1,10.6-10.1,15.7-15.4
								c5.2-5.2,10.4-10.4,15.7-15.7c2.7-2.6,5.3-5.3,8-8c1.4-1.3,2.7-2.7,4.1-4.1c1.4-1.3,2.8-2.7,4.2-4c3.1-2.9,6.1-5.8,9.1-8.7
								c3-2.8,6-5.8,8.9-8.7c2.9-2.9,5.7-5.8,8.6-8.6c2.9-2.8,5.9-5.5,8.8-8.2c2.9-2.7,5.8-5.4,8.7-8.1c2.8-2.7,5.6-5.4,8.3-8.1
								c2.8-2.7,5.5-5.4,8.2-8.1c2.8-2.7,5.5-5.3,8.3-7.9c11.1-10.5,22.3-20.9,34.3-31.7c4.6-4.1,11-10.2,17.4-16.2
								c3.2-3,6.3-6.1,9.2-8.8c2.9-2.7,5.7-5,8-7c5.8-5.5,6.8-7.4,6.2-7.7c-0.5-0.3-2.6,0.7-2.9,0.9c-4.3,2.6-7.8,5.2-12.1,8.9
								c-2.2,1.8-4.5,4-7.2,6.5c-2.7,2.5-5.9,5.3-9.7,8.6c10.3-9-6.5,7.7-16.6,15.8c-7.4,5.8-15.6,13.5-24.1,21.7
								c-4.3,4.1-8.6,8.3-12.9,12.5c-4.3,4.2-8.5,8.5-12.7,12.4c-4.1,4-8.5,8.2-13.5,13c-1.6,1.5-3.3,3-4.9,4.5
								c-1.6,1.5-3.2,3-4.8,4.6c-3.1,3.1-6.1,6.3-9.2,9.4c-1.5,1.5-3,3.1-4.5,4.6l-4.7,4.5c-3.1,3-6.2,6.1-9.3,9.1
								c-6.2,6.1-12.3,12.4-18.5,18.8c-3.1,3.2-6.3,6.4-9.5,9.6c-3.2,3.2-6.4,6.5-9.8,9.8c-3.5,3.5-6.8,6.8-9.9,10
								c-3.1,3.2-6,6.5-8.7,9.6c-4.1,4.6-8.6,9.1-12.2,12.5c-5.5,5.4-10.4,10.1-14.7,14.9c4.9-5.3,8.8-8.9,14.4-14.5
								c3.8-3.7-2.2,3-4.7,5.6c-1,1.1-3.1,2.4-4.1,3.5c-2.4,2.3-4.4,4.6-6.7,7.3c-1,1.2-1.2,0.7-1.7,1.3c-3.3,3.6-5.4,6.7-7.6,8.8
								c-1.7,1.6-3.2,3.1-4.7,4.5c-0.9,0.9-1.9,1.8-2.8,2.8c-0.6,0.6-1.2,1.3-1.8,2c0.6-0.4,0.9-0.5,1.2-0.5c-0.9,0.9-2.2,2.1-3.2,3
								c0.9-0.9,2.2-2.1,3.2-3c-0.3,0-0.6,0.1-1.2,0.5c-2.1,2.3-4.4,4.9-6.8,7.4c-1.2,1.3-2.4,2.6-3.5,3.9c-1.2,1.3-2.3,2.6-3.5,3.9
								c0,0,0.1,0,0.1,0c1.4-1.5,2.7-2.9,4.1-4.3c1.4-1.4,2.9-2.8,4.4-4.1c-1.3,1.2-1.3,0.9,0.1-0.5c0.4-0.3,0.8-0.6,1.3-0.9
								c-2.4,2.6-4.8,5.2-7.4,7.4c0,0-1,1.2-1.4,1.8c-0.8,0.8-0.9,0.6-1.1,0.7c-0.5,0.6-1.1,1.1-1.6,1.7
								C351.7,488.5,355.6,484.9,355.6,484.9z"/>
							<path class="st5" d="M384.1,455.6c-0.4,0.4-0.8,0.9-1.3,1.4c1.8-1.8,3.6-3.7,5.4-5.5C387.1,452.3,385.6,454,384.1,455.6z"/>
						</g>
					</g>
				</g>
			</g>
		</g>
	</g>
	<g>
		<g>
			<g>
				<g>
					<g class="st4">
						<g>
							<path class="st5" d="M327.2,579.2c1.2-1.3,2.4-2.7,3.6-4c-0.6,0.7-1.2,1.3-1.9,1.9C328,577.9,327.7,578.5,327.2,579.2z"/>
							<path class="st5" d="M334,571.5c0.2-0.2,0.4-0.5,0.6-0.7c0.2-0.2,0.4-0.4,0.5-0.6C334.8,570.6,334.4,571,334,571.5z"/>
							<path class="st5" d="M340.1,564.3c-1.1,1.2-2.1,2.4-3.1,3.6C337.9,566.9,338.9,565.8,340.1,564.3z"/>
							<path class="st5" d="M335.1,569.9c0.4-0.4,0.7-0.5,0.1,0.2c0,0,0,0,0,0c0.6-0.7,1.2-1.4,1.8-2.2
								C336.3,568.7,335.7,569.3,335.1,569.9z"/>
							<path class="st5" d="M335.1,569.9c-0.4,0.4-1.1,1-1.3,1.2C334.2,570.7,334.6,570.3,335.1,569.9z"/>
							<path class="st5" d="M335.4,567c0.6-0.7,0.8-0.3,1.9-1.7c1.4-1.7,2.7-3.3,3.9-4.8c1.3-1.5,2.6-3,4-4.5
								c1.2-1.4,3.6-3.2,4.8-4.7c1.4-1.7,3.9-4.6,5.5-6.6c1.6-2,2.2-2.9,0-0.5c-3.3,3.7-6.1,6.7-8.8,9.7c-1.3,1.5-2.6,2.9-4,4.4
								c-0.7,0.7-1.4,1.5-2.1,2.3c-0.7,0.8-1.4,1.6-2.1,2.5c-4.6,5.6-9,11-13.8,16.6c-1.4,1.6-2.7,3-4,4.4c1.8-1.8,3.6-3.7,5.6-5.8
								C329,575.4,331.5,571.5,335.4,567z"/>
							<path class="st5" d="M301,608.8c0.6-0.7,1.7-2.3,1.7-2.3c2.9-3,5.6-6.5,8.3-9.9c-0.5,0.4-1,0.9-1.4,1.3
								c-1.6,1.9-1.7,2.2-0.2,0.6c-3.5,3.7-6.6,7.4-9.7,11.2C299.9,609.7,300,609.8,301,608.8z"/>
							<path class="st5" d="M297.8,612.1c0.6-0.7,1.2-1.5,1.8-2.2c0,0-0.1,0-0.1,0.1C298.9,610.7,298.3,611.4,297.8,612.1
								L297.8,612.1z"/>
							<path class="st5" d="M353.2,549.4c2.1-2.3,4.2-4.5,6.2-6.8c2-2.3,3.9-4.6,5.8-6.8c1.9-2.3,3.8-4.5,5.7-6.6c2-2.1,4-4.2,6-6.3
								c0.5-0.7,0.9-1.2,1.7-2c0.7-0.6,1.3-1.2,2-1.8c1.2-1.2,2.3-2.4,3.5-3.6c0.4-0.4,0.8-0.9,1.2-1.3c0,0,0,0,0,0
								c0.6-0.7,0.4-0.6-0.1-0.2c-0.5,0.4-0.9,0.8-1.3,1.1c0.2-0.2,0.9-0.8,1.3-1.1c0.6-0.5,1.2-1.1,2-1.9c1-1.1,2.1-2.3,3.2-3.5
								c-1.2,1.4-2.3,2.5-3.2,3.5c-0.6,0.7-1.3,1.4-1.9,2.1c-0.2,0.2-0.3,0.4-0.5,0.6c2.7-2.7,5.2-5.5,7.8-8.3
								c0.6-0.7,1.1-1.3,1.6-1.8c1.8-2.1,3.6-4.1,4.9-5.2c0.5-0.5,0.9-1,1.4-1.5c-0.1,0.1-0.2,0.2-0.3,0.3c0.2-0.2,0.4-0.4,0.6-0.5
								c1.9-2.1,3.9-4.2,6-6.2c1.3-1.4,2.6-2.8,3.9-4.2c0,0,1-0.8,1.6-1.2c0.5-0.6,1.2-1.5,2.1-2.4c-1.2,1-2.3,1.9-3.3,2.7
								c-1.6,1.2-2.8,3.4-4.7,4.6c1.9-1.3,3.1-3.5,4.7-4.6c1-0.8,2.1-1.7,3.3-2.7c1.9-2,4.4-4.4,6.5-6.4c-2.2,2.7-4.5,4.7-6.5,6.4
								c-0.9,0.9-1.6,1.8-2.1,2.4c-0.5,0.4-1.6,1.2-1.6,1.2c-1.3,1.4-2.6,2.8-3.9,4.2c4-3.9,8.2-7.8,12.3-12
								c3.3-3.4,6.4-6.8,9.5-10.2c3.1-3.4,6.3-6.6,9.5-9.9c3.2-3.2,6.4-6.5,9.5-9.7c3.2-3.2,6.4-6.4,9.6-9.6
								c3.2-3.2,6.4-6.4,9.7-9.6c3.2-3.3,6.4-6.6,9.6-9.9c3.2-3.3,6.5-6.6,10-9.7c3.5-3.2,7.1-6.3,10.6-9.7c3.8-3.7,7.4-7.5,11-11.2
								c3.6-3.7,7.3-7.1,11-10.5c3.8-3.4,7.5-6.7,11.2-10.2c3.7-3.4,7.3-6.8,10.9-10.2c1.8-1.7,3.6-3.4,5.4-5
								c1.8-1.6,3.6-3.2,5.4-4.8c3.6-3.2,7.3-6.3,10.8-9.6c3.5-3.2,7-6.5,10.5-9.7c3.5-3.2,6.9-6.4,10.5-9.6
								c14.1-12.6,28-25.6,43.4-38.2c2.9-2.5,6.5-5.4,10.4-8.7c3.8-3.3,8-6.8,12.1-10.3c8.3-7,16.5-14,22.1-18.8
								c14.5-13.4,5.4-8.4,4.6-7.9c-5.2,3.3-9.4,6.7-14.8,11.1c-5.4,4.4-12,9.9-21.8,17.6c6.6-5.3,4.4-3-1,1.7
								c-2.7,2.4-6.3,5.4-9.9,8.4c-3.7,3-7.3,6.1-10.5,8.5c-9.3,6.9-19.5,16.5-30.3,26.4c-5.4,5-10.9,10-16.3,15.2
								c-2.7,2.5-5.4,5.1-8.1,7.6c-2.7,2.5-5.3,4.9-8,7.2c-2.7,2.3-5.4,4.7-8.3,7.3c-1.4,1.3-2.9,2.6-4.4,4c-1.5,1.4-3,2.8-4.5,4.3
								c-4,3.8-8,7.5-12,11.2c-4,3.7-8,7.3-11.9,10.9c-2,1.8-4,3.7-5.9,5.6c-1.9,1.9-3.8,3.9-5.6,5.9c-3.7,3.9-7.3,7.8-11.2,11.4
								c-3.9,3.6-8,7.2-11.9,11.1c-4,3.9-7.7,7.9-11.5,11.9c-1.9,2-3.8,4-5.8,5.9c-2,2-4,4-5.9,6c-4,4-8.1,8-12.1,12.1
								c-4.3,4.4-8.2,8.6-12,12.7c-3.8,4.1-7.2,8.2-10.6,12.1c-2.5,2.8-5.2,5.6-7.8,8.2c-2.7,2.6-5.2,5-7.4,7.2
								c-1.7,1.7-3.4,3.4-5,5c-1.6,1.7-3,3.3-4.4,4.9c-2.8,3.2-5.5,6.3-8.2,9.3c3-3.3,5.5-6.2,8.2-9.1c1.3-1.5,2.7-3,4.1-4.6
								c1.5-1.6,3.1-3.2,4.8-5c4.7-4.7-2.9,3.6-5.8,7c-1.2,1.5-3.6,3.3-4.8,4.7c-2.8,3-5.1,5.9-8,9.2c-1.2,1.5-1.4,1-2,1.7
								c-4,4.4-6.8,8.1-9.5,10.8c-2.1,2-3.9,3.9-5.7,5.7c-1.1,1.2-2.2,2.4-3.3,3.7c-0.7,0.8-1.3,1.7-2,2.6c0.7-0.6,1-0.7,1.3-0.8
								c-1,1.2-2.5,2.8-3.6,4c1-1.2,2.5-2.8,3.6-4c-0.3,0.1-0.7,0.2-1.3,0.8c-2.4,3.1-5,6.4-7.8,9.7c-2.8,3.3-5.7,6.5-8.5,9.7
								c0,0,0.1,0,0.1-0.1c1.7-1.8,3.3-3.6,5-5.4c1.7-1.8,3.4-3.5,5.2-5.4c-1.5,1.6-1.5,1.3,0.2-0.6c0.5-0.4,1-0.9,1.4-1.3
								c-2.7,3.5-5.6,6.7-8.7,9.5c0,0-1.2,1.5-1.8,2.2c-1,1-1.1,0.8-1.4,1c-0.6,0.7-1.3,1.4-1.9,2.2
								C348.6,554,353.2,549.4,353.2,549.4z"/>
							<path class="st5" d="M387.2,512c-0.5,0.5-1,1.1-1.6,1.7c2.2-2.3,4.4-4.6,6.6-7C390.9,507.8,389,509.9,387.2,512z"/>
						</g>
					</g>
				</g>
			</g>
		</g>
	</g>
</g>
</svg>
