<?xml version="1.0" encoding="UTF-8"?>
<svg width="1922px" height="1018px" viewBox="0 0 1922 1018" version="1.1" xmlns="http://www.w3.org/2000/svg" xmlns:xlink="http://www.w3.org/1999/xlink">
    <!-- Generator: Sketch 62 (91390) - https://sketch.com -->
    <title>2scene5</title>
    <desc>Created with Sketch.</desc>
    <g id="Page-1" stroke="none" stroke-width="1" fill="none" fill-rule="evenodd">
        <g id="2scene5">
            <rect id="Rectangle" stroke="#979797" fill="#FFFFFF" x="0.5" y="0.5" width="1921" height="1017"></rect>
            <g id="Group-3" transform="translate(419.000000, 78.000000)">
                <ellipse id="Oval" fill="#D8D8D8" cx="755" cy="787" rx="329" ry="75"></ellipse>
                <ellipse id="Oval" fill="#D8D8D8" cx="755" cy="787" rx="329" ry="75"></ellipse>
                <ellipse id="Oval" fill="#D8D8D8" cx="196.5" cy="787" rx="196.5" ry="75"></ellipse>
                <g id="charsquiggy" transform="translate(422.000000, 364.000000)">
                    <rect id="Rectangle" stroke="#000000" stroke-width="3" fill="#FDFFAD" x="96.5" y="189.5" width="61" height="68" rx="5"></rect>
                    <path d="M640.267464,234.862574 L417.86499,234.861315 C417.894241,243.364473 417.886441,252.309446 417.87836,261.573225 C417.874511,265.98538 417.870599,270.469871 417.870599,275.013282 L417.870836,276.995617 C417.871738,280.862203 417.875072,284.684286 417.87836,288.453577 C417.922938,339.554532 417.865894,380.958516 411.784502,392.303151 C410.496873,395.801051 408.637547,398.844466 405.564786,400.912411 C402.986025,402.647897 399.537969,403.708774 394.789972,403.708776 C391.961353,403.708778 389.480054,403.799921 387.297978,403.879929 C382.187946,404.067292 378.660444,404.14375 376.124971,403.027001 C373.858726,402.028833 372.280416,400.146961 371.154052,396.50222 C369.718933,391.858399 370.476549,387.341869 372.931855,383.384812 C375.422482,379.37083 379.685313,375.929099 385.192031,373.568554 C385.979925,373.23081 386.947587,372.773742 388.010692,372.271946 C389.927902,371.367004 392.147927,370.320899 394.198231,369.541878 C389.69818,347.550619 386.803489,313.382945 386.803489,275.013401 C386.803489,260.931532 387.19308,247.415945 387.908743,234.861308 L253.581458,234.861116 C254.135371,250.884452 254.233332,269.773455 254.233332,289.998509 C254.233332,312.670187 255.773239,334.074739 257.042469,351.724817 C257.883594,363.421613 258.605623,373.474898 258.687261,381.164831 C259.078921,383.290451 258.95178,385.744782 258.80559,388.325321 C258.748603,389.331251 258.690324,390.357015 258.665029,391.389378 C258.612887,393.517514 258.198819,395.197007 257.491639,396.532984 C256.70872,398.012045 255.566403,399.088104 254.100914,399.870558 C250.823889,401.620229 245.801848,401.824198 239.631889,402.008828 C239.330969,402.017833 239.027277,402.02692 238.720892,402.036294 C238.416582,402.045604 238.11276,402.0551 237.809631,402.064574 C231.442139,402.263587 225.385106,402.409122 221.414012,400.770907 C219.706469,400.066485 218.361996,399.043761 217.468996,397.616771 C216.656719,396.318773 216.210128,394.673409 216.261505,392.57651 C216.38304,387.616202 218.866733,383.038621 222.823292,379.664936 C226.410045,376.606579 231.205669,374.542498 236.491827,374.096632 C229.497521,354.03341 223.215743,323.383207 223.215743,289.998509 C223.215743,269.777311 224.20577,250.889946 225.920672,234.861123 L15.4750483,234.862574 C11.6725555,234.862574 8.30494437,233.413429 5.68270062,230.877362 C3.08106209,228.361224 1.21204848,224.761834 0.420581593,220.434113 C-0.92428052,213.080441 0.842409168,203.584564 7.44033791,193.887252 C16.458194,180.633249 34.5567865,166.946787 66.1398663,158.036403 C97.638138,149.149946 121.721947,146.77216 137.047771,145.259998 C142.688197,144.703471 145.833793,143.7162 149.004039,143.109432 C149.004039,138.697695 151.272343,125.333388 153.559863,116 C158.064316,97.6212381 187.34657,44.9424914 211.997407,28.135994 C239.651228,9.28211674 274.771058,0 311.099012,0 C346.327085,0 376.779255,9.8386136 401.552237,28.3178073 C426.29443,46.7740339 448.015491,72.5638044 460.505252,107.124474 C461.781436,112.461641 468.379627,136.482081 468.379627,141.376521 C473.306907,143.068889 488.570967,144.378059 507.126683,146.049076 C535.594863,148.61275 571.776797,151.883606 591.144975,158.045904 C614.923508,165.611427 629.72506,178.376148 638.240452,191.27418 C644.521864,200.788465 647.387148,210.388043 647.910456,218.07567 C648.23673,222.868785 647.649131,226.931094 646.431919,229.810325 C645.761576,231.395975 644.895748,232.635966 643.895178,233.483543 C642.828234,234.387347 641.604522,234.862574 640.267464,234.862574 Z" id="Combined-Shape" stroke="#000000" stroke-width="2" fill="#99CAF4" fill-rule="nonzero"></path>
                    <ellipse id="Oval" fill="#000000" fill-rule="nonzero" cx="219" cy="105.5" rx="9" ry="10.5"></ellipse>
                    <ellipse id="Oval" fill="#000000" fill-rule="nonzero" cx="408" cy="101.5" rx="9" ry="10.5"></ellipse>
                    <ellipse id="Oval" fill="#FFFFFF" fill-rule="nonzero" cx="412.5" cy="98" rx="3.5" ry="4"></ellipse>
                    <ellipse id="Oval" fill="#FFFFFF" fill-rule="nonzero" cx="222.5" cy="102" rx="3.5" ry="4"></ellipse>
                    <path d="M201.618337,81.110649 C220.094018,81.7121232 231.083048,78.0449708 234.585428,70.1091917" id="Path-2" stroke="#000000" stroke-width="3" stroke-linecap="round"></path>
                    <path d="" id="Path-3" stroke="#979797"></path>
                    <path d="M393,76.1231442 C404.64034,65.388989 414.941013,66.7866345 423.902018,80.3160806" id="Path-4" stroke="#000000" stroke-width="3" stroke-linecap="round"></path>
                    <path d="M275.197381,145.88229 C296.373716,135.46944 312.422917,133.086089 336.129059,132.058324" id="Path-5" stroke="#000000" stroke-width="3" stroke-linecap="round"></path>
                    <path d="M341.46573,121 C334.672967,129.091663 334.672967,132.139221 338.934895,143.278443" id="Path-6" stroke="#000000" stroke-width="3" stroke-linecap="round"></path>
                    <path d="M183,170.916089 C207.439044,186.76736 223.971674,195.947829 232.597888,198.457496 C241.945559,201.177061 255.586112,205.152943 258.979551,199.553145 C262.372991,193.953348 258.228636,184.483275 244.59761,170.916089 C208.754356,135.240706 194.153234,120.817167 200.794244,127.645472" id="Path-7" stroke="#000000" stroke-width="3" stroke-linecap="round" transform="translate(221.552006, 164.192432) rotate(-15.000000) translate(-221.552006, -164.192432) "></path>
                    <path d="M378,174.916089 C402.439044,190.76736 418.971674,199.947829 427.597888,202.457496 C436.945559,205.177061 450.586112,209.152943 453.979551,203.553145 C457.372991,197.953348 453.228636,188.483275 439.59761,174.916089 C403.754356,139.240706 389.153234,124.817167 395.794244,131.645472" id="Path-7" stroke="#000000" stroke-width="3" stroke-linecap="round" transform="translate(416.552006, 168.192432) scale(-1, 1) rotate(20.000000) translate(-416.552006, -168.192432) "></path>
                </g>
                <g id="charcece" transform="translate(31.000000, 0.000000)">
                    <g id="Group-3" transform="translate(239.000000, 393.500000) scale(-1, 1) translate(-239.000000, -393.500000) " fill-rule="nonzero">
                        <path d="M212.669227,4.54747351e-13 C237.120121,4.54747351e-13 279.709859,11.3182635 301.114113,45.798361 C312.699427,64.4611344 322.232029,92.270853 332.105651,121.113278 C338.500434,139.793462 345.042426,158.906513 352.394788,176.226641 C358.654363,190.972469 365.688438,206.62435 372.906007,222.684733 C393.052013,267.513207 414.619631,315.520783 424.815257,355.910773 C436.84804,378.350867 452.816152,425.878088 460.476831,469.316266 C467.44195,508.810427 467.580536,545.147785 464.051925,565.994969 C472.902481,580.953628 478.30583,604.991999 477.984292,609.648592 C477.907298,610.76364 477.732851,612.614108 477.115208,613.964275 C476.585835,615.121486 475.755051,615.906713 474.608359,616.057436 C473.605082,616.199878 472.597585,616.29301 471.45026,615.636443 C470.722119,615.219757 469.915569,614.478334 469.098267,613.125792 C466.678178,609.120822 464.800211,604.988674 463.194178,601.450791 C461.575426,597.884888 460.264728,594.933168 458.91244,593.435017 C458.542014,593.024636 458.188306,592.719428 457.7893,592.661801 C457.467122,592.615269 457.151022,592.773135 456.808586,593.045988 C454.706692,594.720776 454.719457,604.376224 454.540192,611.117414 C454.459632,614.146838 454.387121,616.67924 454.196651,617.905449 C453.99873,619.179621 453.93758,620.382405 453.880085,621.486566 C453.764967,623.697326 453.6082,625.534346 452.730254,626.878087 C451.992016,628.007997 450.778852,628.863726 448.592757,629.249193 C447.38929,629.461397 446.367815,629.41346 445.504712,629.124938 C444.589316,628.818935 443.832716,628.248045 443.227764,627.372458 C442.199916,625.884786 441.619142,623.394381 441.465476,619.687477 C441.371941,617.43114 441.4088,614.697159 441.446826,611.924513 C441.504431,607.724183 441.569787,603.432543 441.156355,600.643528 C441.02119,599.731704 440.849562,598.996062 440.573472,598.530885 C439.900063,598.471552 439.03687,599.828273 437.823677,601.327879 C435.339597,604.398409 431.859723,608.638477 428.011589,610.459939 C427.097534,610.892595 426.189803,611.030031 425.3325,610.949309 C424.395433,610.861077 423.515532,610.509168 422.753645,609.973479 C421.131117,608.832667 420.072559,606.857383 420.107202,604.983755 C420.186345,600.703409 423.841323,595.981796 427.476264,591.449894 C430.966424,587.098499 434.709688,582.87743 433.452208,579.450678 C433.336253,579.134688 433.263173,578.780053 433.193234,578.415978 C433.105284,577.958141 433.110425,577.383728 432.602659,577.099629 C432.158609,576.851179 431.444694,576.820762 430.326302,576.98307 C428.119369,577.303353 425.555454,578.216453 423.032863,579.106572 C420.238751,580.092499 417.492272,581.047864 415.287148,581.26909 C413.31501,581.466943 411.761487,581.072248 410.756118,579.956813 C409.721734,578.809186 409.162032,577.676281 408.941587,576.580072 C408.6894,575.326014 408.876118,574.105128 409.381317,572.930275 C410.608976,570.075325 413.853987,567.492338 416.500408,565.44122 C417.01981,565.038655 417.512702,564.656762 417.955701,564.297034 C424.632366,558.875379 434.455784,556.045869 444.979644,554.07195 C444.76672,552.09255 444.54698,550.014152 444.316734,547.836369 C442.30826,528.839236 439.499598,502.270455 433.433343,467.873105 C431.897123,459.162315 430.319609,450.899889 428.739716,443.096807 C423.370977,499.227437 407.779241,543.197013 383.638001,572.110304 C381.975358,592.502379 380.42729,620.018191 382.796006,653.886422 C385.979225,699.400507 395.643163,727.926966 401.152463,744.190636 C402.51682,748.21827 403.627705,751.501182 404.329488,754.109713 C408.556512,757.714597 412.265158,765.089034 412.265158,774.6608 C412.265158,777.290662 411.801765,779.356454 410.974161,780.98446 C410.050675,782.801077 408.674133,784.094111 406.9186,785.004201 C402.868912,787.10361 396.660684,787.065669 389.469859,786.951393 C387.829344,786.925322 386.137213,786.89839 384.411323,786.898387 C382.856372,786.902232 381.243168,786.924479 379.600118,786.947115 C371.076936,787.064536 361.772443,787.162567 355.501879,784.881592 C352.998995,783.971145 350.965007,782.683785 349.583318,780.923409 C348.298418,779.286351 347.559195,777.237107 347.559195,774.6608 C347.559195,772.463408 348.607234,770.348664 350.499606,768.369572 C352.451699,766.328023 355.313351,764.41958 358.70264,762.685974 C367.081288,758.400333 378.716671,755.147336 387.296138,753.293891 C375.717254,737.613439 362.74949,704.364823 359.788353,662.026078 C358.188332,639.148761 358.951317,614.596801 361.168783,592.941764 C343.715046,605.170236 323.297033,611.609411 300.264504,611.609411 C290.652513,611.609411 281.348018,610.319807 272.411329,607.829586 C270.151564,623.129096 267.771147,643.311968 267.771147,668.047985 C267.771147,703.200175 273.651202,725.644283 277.003216,738.440219 C278.427774,743.878306 279.38037,747.626118 279.310954,749.902835 C279.880209,752.315253 280.206559,754.964247 280.206559,757.80524 C280.206559,760.435102 279.743165,762.500894 278.915561,764.1289 C277.992075,765.945518 276.615534,767.238551 274.860001,768.148641 C270.810313,770.24805 264.602084,770.210109 257.41126,770.095833 C255.770744,770.069762 254.078613,770.042831 252.35025,770.042831 C250.71238,770.042831 248.995717,770.067006 247.238145,770.091721 C238.885645,770.209174 229.633969,770.308788 223.389783,768.014924 C220.906625,767.102712 218.884947,765.814321 217.511124,764.053648 C216.235644,762.41901 215.500595,760.374159 215.500595,757.80524 C215.500595,755.455122 216.702177,753.197506 218.852311,751.098658 C221.092935,748.911479 224.372161,746.883829 228.198349,745.064198 C238.409985,740.207822 252.547279,736.793047 260.554999,735.395517 C254.38862,721.113893 249.217684,699.136131 249.217684,673.0717 C249.217684,648.717638 252.825527,622.163323 257.5834,602.445186 C233.902424,591.782789 195.824818,570.217243 179.582733,515.888889 C174.996282,500.547609 170.53041,475.067763 166.909186,450.133628 C134.417959,455.803337 96.8744661,451.400757 60.8127605,427.835099 C33.0013448,409.660852 18.8384458,369.513086 18.3240634,307.391798 L18.3240634,307.391798 L18.6945907,307.392926 C18.2808965,303.51339 18.7534333,296.945923 17.5031117,294.250752 C13.4343762,285.480257 8.58482068,273.893342 6.41733931,264.7324 C5.41669374,260.503134 -4.06843478,237.773576 3.19022172,237.773576 C13.1367428,237.773576 13.77445,263.853441 22.7253256,264.7324 C30.0723089,265.453861 26.6268674,224 36.9079043,224 C44.3869027,224 35.7218002,258.043976 41,262.035579 C47.6594908,267.071773 57.2486365,238.461359 66.084503,244.375316 C74.9203696,250.289272 44.3236967,275.55415 52.4327377,281.227909 C57.8404717,285.011609 76.9717766,269.963053 81.5586997,278.219022 C86.3596485,286.860214 50.6524426,299.170953 39.2586391,303.514431 C37.5669101,304.159342 37.115793,306.452782 37.0814045,308.988323 C42.3469632,351.212537 52.3707164,381.689538 67.152549,400.420371 C81.9691552,419.195268 113.586431,423.328523 162.004376,412.820136 C160.634593,401.244895 159.62312,391.471249 159.084229,385.187269 C154.964316,337.145139 147.335722,223.831118 129.389076,150.028758 C129.145993,149.886198 128.887711,149.792091 128.575946,149.706623 C127.675907,149.459884 126.402458,149.341885 124.892349,149.300484 C120.523059,149.180696 114.26609,149.737002 109.018261,150.201047 C105.429346,150.518401 102.304091,150.792472 100.537002,150.792472 C99.383001,150.792472 98.1048482,150.861772 96.7652776,150.933814 C92.3141219,151.173195 87.2390865,151.391404 83.5754285,149.552858 C80.8354284,148.177834 78.7971023,145.718051 78.3070384,141.308462 C78.1443672,139.844749 78.6116267,138.359099 79.6531249,136.87269 C80.6685957,135.423426 82.2449459,133.959994 84.2375394,132.502911 C89.2421775,128.843271 96.9294808,125.167274 104.491649,121.559891 C111.482262,118.225157 118.364129,114.950087 122.830695,111.780662 C124.457886,110.626024 125.756516,109.494787 126.586111,108.373733 C127.215495,107.523229 127.574932,106.69135 127.482993,105.857903 C127.383935,104.959924 126.765642,104.266591 125.857983,103.678371 C124.606325,102.867218 122.812481,102.269558 120.667356,101.80218 C114.569256,100.473531 105.725856,100.262074 97.7775473,100.064595 C87.924027,99.8197799 79.75528,99.2723548 78.4691979,97.3457051 C76.8091429,94.8588154 76,92.3938433 76,90.1673064 C76,87.8346863 76.8701898,85.7425754 78.6162131,84.1022324 C81.7398895,81.1676206 96.7054719,72.6373161 115.890582,70.0330333 C126.798537,68.552333 141.635953,69.5527939 153.794056,70.3797347 C164.3746,71.0993769 173.287731,72.1104947 174.476827,70.4432801 C174.591517,70.2824747 174.57924,70.0833862 174.53196,69.8700245 C174.431992,69.4188942 174.153913,68.9127182 173.753524,68.347031 C172.72042,66.8874153 170.898659,65.1356646 168.561129,63.1883558 C162.033899,57.7507647 151.544113,50.8896289 142.337265,44.8643705 C132.240433,38.256677 123.82494,32.5429502 123.159957,30.6802236 C122.076864,27.6463 121.770201,24.9495757 123.435838,22.8563708 C124.716892,21.2464708 127.266778,19.9233929 132.005334,19.2431446 C146.743539,17.1273861 179.025007,23.3180102 192.563884,26.6737835 C194.960287,27.2677608 200.265163,29.6576451 206.513811,32.4871756 C214.52737,36.1158978 224.124006,40.4661196 231.03046,42.5208258 C233.448124,43.2400936 235.520931,43.6798173 237.0522,43.6730937 C237.627427,43.670568 238.113698,43.6095254 238.486585,43.4449859 C238.689539,43.3554304 238.852264,43.2339025 238.934174,43.0437329 C239.139482,42.5670699 238.73799,41.8451009 238.231433,40.9887266 C237.468613,39.6991178 236.202425,38.1309641 234.53876,36.3713109 C231.118802,32.7540318 226.042204,28.3661263 220.09875,23.978442 C217.08329,21.752315 213.540365,19.8152118 210.212159,17.9920704 C206.572724,15.9984421 203.186413,14.1317565 200.948518,12.2004869 C199.025578,10.5410185 197.948779,8.80924708 197.948779,6.98030669 C197.948779,5.62956139 198.300714,4.53708038 198.903275,3.64648763 C199.551194,2.68885596 200.500563,1.95883447 201.679044,1.42260023 C204.362303,0.201659244 208.312941,0.013340783 212.088192,4.54747351e-13 L212.669227,4.54747351e-13 Z" id="Combined-Shape" stroke="#000000" stroke-width="2" fill="#F3A7A7"></path>
                        <g id="Group-2" transform="translate(171.000000, 188.000000)">
                            <path d="M0.372688611,91.6060893 C0.0508912915,85.256068 2.09452428,76.0146487 6.33737896,64.5743714 C6.55704199,63.9820801 6.77240315,63.400908 6.98371056,62.8306754 C11.1702559,51.5328939 13.7279835,44.5664968 16.6707411,40.5238316 C19.1017225,37.184228 21.807852,36 26.0517339,36 C28.2910691,36 30.2210884,36.8233373 31.8003239,38.352549 C33.503665,40.0019353 34.7994119,42.4432954 35.6767544,45.5252553 C37.4658739,51.810138 37.4949213,60.69771 35.4317748,71.2048783 C33.6098791,80.4834071 29.7908453,87.2944924 25.2311611,92.0014483 C19.5419842,97.8743779 12.7108794,100.464461 7.28686775,100.464461 C5.16887107,100.464461 3.53296334,99.7592399 2.40073135,98.3558779 C1.16503265,96.8242729 0.521125891,94.5351999 0.372688611,91.6060893 Z" id="Oval" stroke="#000000" stroke-width="2" fill="#AD6161" transform="translate(18.669901, 68.232230) scale(-1, -1) translate(-18.669901, -68.232230) "></path>
                            <path d="M105.283978,64.4750727 C103.16641,64.4750727 101.530917,63.7703758 100.399106,62.367114 C99.1637714,60.8354993 98.5202934,58.5462468 98.3722914,55.6168091 C98.0514344,49.2660326 100.096142,40.0231596 104.340149,28.580831 C104.55987,27.9884377 104.775288,27.4071656 104.986651,26.8368348 C109.174332,15.5370356 111.732772,8.56940671 114.675771,4.52581521 C117.106953,1.18544613 119.81292,0 124.056351,0 C126.295283,0 128.224838,0.822789833 129.803572,2.35186669 C131.506456,4.00118931 132.801667,6.44263161 133.678455,9.52479631 C135.466476,15.8102117 135.494255,24.6988867 133.429847,35.2076671 C131.606824,44.4876854 127.787221,51.3002116 123.227353,56.0084387 C117.53801,61.8828895 110.70736,64.4743006 105.283978,64.4750727 Z" id="Oval" stroke="#000000" stroke-width="2" fill="#AD6161" transform="translate(116.669800, 32.237536) scale(-1, 1) rotate(-120.000000) translate(-116.669800, -32.237536) "></path>
                            <ellipse id="Oval" fill="#000000" cx="54.3561644" cy="150.618519" rx="11.2328767" ry="15.4407407"></ellipse>
                            <ellipse id="Oval" fill="#000000" cx="127.369863" cy="100.085185" rx="11.2328767" ry="15.4407407"></ellipse>
                            <ellipse id="Oval" fill="#FFFFFF" cx="58.5684932" cy="142.196296" rx="4.21232877" ry="4.21111111"></ellipse>
                            <ellipse id="Oval" fill="#FFFFFF" cx="131.582192" cy="91.662963" rx="4.21232877" ry="4.21111111"></ellipse>
                        </g>
                    </g>
                    <path d="M124.309582,451.749651 C128.435583,450.176821 134.556239,451.758964 142.468783,453.737653 C150.971107,455.863827 161.513277,458.496565 173.874448,458.496565 C185.506925,458.496565 196.940241,456.264177 206.910591,454.314909 C217.343504,452.275207 226.159825,450.522561 231.869519,452.07829 C234.047495,452.671727 235.758857,453.757773 236.897982,455.537289 C237.984085,457.233975 238.549761,459.543864 238.549761,462.607352 C238.549761,474.009213 231.841485,484.31395 221.045332,491.779841 C210.169767,499.300648 195.14367,503.94507 178.549761,503.94507 C161.532983,503.94507 145.551916,499.282447 134.332519,491.523869 C128.87862,487.75232 124.552235,483.249894 121.794142,478.193836 C119.206464,473.450176 118.002618,468.219807 118.547381,462.656076 C118.860572,459.457429 119.490149,457.047824 120.44166,455.275995 C121.402824,453.486192 122.693332,452.365765 124.309582,451.749651 Z" id="Oval" stroke="#000000" fill="#000000" transform="translate(178.484169, 477.533548) rotate(15.000000) translate(-178.484169, -477.533548) "></path>
                    <path d="M178.500421,479.579168 C164.542367,476.099034 152.382106,470.317232 143.458582,463.505949 C134.551339,456.707093 128.860751,448.888782 127.917544,441.314113 C130.071427,438.980218 132.54931,438.358745 135.465927,438.840373 C139.454756,439.499059 144.225521,442.147935 150.062428,445.368421 C157.701056,449.582998 167.134083,454.783767 178.958655,457.952151 C190.194764,460.962858 201.816284,461.765696 211.95141,462.463364 C220.192284,463.030638 227.443326,463.523686 232.678428,465.106972 C236.398381,466.232021 239.096507,467.898994 240.303409,470.623727 C235.553972,476.454459 226.860534,480.366816 215.991649,481.994677 C205.108946,483.624608 192.043237,482.955771 178.500421,479.579168 Z" id="Combined-Shape" stroke="#000000" fill="#FFFFFF"></path>
                </g>
            </g>
        </g>
    </g>
</svg>