<?xml version="1.0" encoding="UTF-8"?>
<svg width="1923px" height="1131px" viewBox="0 0 1923 1131" version="1.1" xmlns="http://www.w3.org/2000/svg" xmlns:xlink="http://www.w3.org/1999/xlink">
    <!-- Generator: Sketch 62 (91390) - https://sketch.com -->
    <title>Group 19</title>
    <desc>Created with Sketch.</desc>
    <defs>
        <filter x="-9.6%" y="-4.9%" width="119.2%" height="109.8%" filterUnits="objectBoundingBox" id="filter-1">
            <feOffset dx="0" dy="2" in="SourceAlpha" result="shadowOffsetOuter1"></feOffset>
            <feGaussianBlur stdDeviation="2" in="shadowOffsetOuter1" result="shadowBlurOuter1"></feGaussianBlur>
            <feColorMatrix values="0 0 0 0 0   0 0 0 0 0   0 0 0 0 0  0 0 0 0.5 0" type="matrix" in="shadowBlurOuter1" result="shadowMatrixOuter1"></feColorMatrix>
            <feMerge>
                <feMergeNode in="shadowMatrixOuter1"></feMergeNode>
                <feMergeNode in="SourceGraphic"></feMergeNode>
            </feMerge>
        </filter>
        <path d="M59.082729,85.3198843 C60.0555365,84.8915075 61.1208479,84.7016484 62.2090876,84.7275356 C62.8280034,87.2235516 63.1573999,89.8435914 63.1573999,92.5450569 C63.1573999,109.514968 50.1593171,123.271799 34.1253693,123.271799 C32.6968589,123.271799 31.2924457,123.162604 29.9191749,122.951669 C30.507501,120.179713 32.0239103,117.761172 34.1148366,115.566462 C38.2325317,111.244384 43.0396405,114.061607 48.1461973,107.701665 C54.2658604,100.079953 54.4098756,87.3775798 59.082729,85.3198843 Z" id="path-2"></path>
        <filter x="-4.5%" y="-3.9%" width="109.0%" height="107.8%" filterUnits="objectBoundingBox" id="filter-3">
            <feGaussianBlur stdDeviation="1" in="SourceAlpha" result="shadowBlurInner1"></feGaussianBlur>
            <feOffset dx="0" dy="1" in="shadowBlurInner1" result="shadowOffsetInner1"></feOffset>
            <feComposite in="shadowOffsetInner1" in2="SourceAlpha" operator="arithmetic" k2="-1" k3="1" result="shadowInnerInner1"></feComposite>
            <feColorMatrix values="0 0 0 0 0   0 0 0 0 0   0 0 0 0 0  0 0 0 0.5 0" type="matrix" in="shadowInnerInner1"></feColorMatrix>
        </filter>
        <filter x="-5.8%" y="-9.4%" width="112.1%" height="118.8%" filterUnits="objectBoundingBox" id="filter-4">
            <feOffset dx="0" dy="2" in="SourceAlpha" result="shadowOffsetOuter1"></feOffset>
            <feGaussianBlur stdDeviation="2" in="shadowOffsetOuter1" result="shadowBlurOuter1"></feGaussianBlur>
            <feColorMatrix values="0 0 0 0 0   0 0 0 0 0   0 0 0 0 0  0 0 0 0.5 0" type="matrix" in="shadowBlurOuter1" result="shadowMatrixOuter1"></feColorMatrix>
            <feMerge>
                <feMergeNode in="shadowMatrixOuter1"></feMergeNode>
                <feMergeNode in="SourceGraphic"></feMergeNode>
            </feMerge>
        </filter>
    </defs>
    <g id="Page-1" stroke="none" stroke-width="1" fill="none" fill-rule="evenodd">
        <g id="Group-19">
            <g id="Group-14">
                <g id="Group-6">
                    <g id="2scene1-(2)" fill="#FFFFFF" fill-rule="nonzero">
                        <g id="Layer_3">
                            <polygon id="Path" points="1922 1082 0.5 1082 0.5 0.5 1921 0.5"></polygon>
                        </g>
                    </g>
                    <rect id="Rectangle" fill="#3E3E3E" x="0" y="909" width="1923" height="222"></rect>
                </g>
                <g id="Group-11" transform="translate(440.000000, 187.000000)">
                    <rect id="Rectangle" fill="#7E6E60" x="160" y="308" width="103" height="187" rx="8"></rect>
                    <ellipse id="Oval" fill="#7E6E60" cx="51" cy="213.5" rx="41" ry="45.5"></ellipse>
                    <ellipse id="Oval" fill="#7E6E60" cx="374" cy="213.5" rx="41" ry="45.5"></ellipse>
                    <ellipse id="Oval" fill="#908073" cx="211" cy="186" rx="162" ry="183"></ellipse>
                    <path d="M270.364407,92.8911097 C351.176025,92.8911097 367,175.830582 367,116.782923 C367,57.7352629 295.217769,0 214.406151,0 C133.594533,0 59,57.7352629 59,116.782923 C59,164.391607 83.5386821,92.8911097 150.141377,92.8911097 C196.534715,92.8911097 254.70922,92.8911097 270.364407,92.8911097 Z" id="Oval" fill="#5C5C5C"></path>
                    <g id="Group-10" transform="translate(80.000000, 125.000000)">
                        <rect id="Rectangle" stroke="#393939" stroke-width="8" fill="#D8D8D8" x="4" y="4" width="116.356846" height="94" rx="8"></rect>
                        <rect id="Rectangle" stroke="#393939" stroke-width="8" fill="#D8D8D8" x="149.643154" y="4" width="116.356846" height="94" rx="8"></rect>
                        <polygon id="Rectangle" fill="#F4F4F4" points="261.037344 8.96703297 261.037344 93.032967 164.688797 93.032967"></polygon>
                        <rect id="Rectangle" stroke="#393939" stroke-width="8" fill="#393939" x="120.514523" y="48.8351648" width="26.7302905" height="5.45054945" rx="2.72527473"></rect>
                    </g>
                    <path d="M180,281 C195.161377,285.666667 207.161377,288 216,288 C224.838623,288 236.838623,285.666667 252,281" id="Line-2" stroke="#393939" stroke-width="3" stroke-linecap="square"></path>
                    <path d="M384.942911,910.942911 C367.298882,928.586941 342.923882,939.5 316,939.5 L99,939.5 C72.0761184,939.5 47.7011184,928.586941 30.0570888,910.942911 C12.4130592,893.298882 1.5,868.923882 1.5,842 L1.5,488 C1.5,461.076118 12.4130592,436.701118 30.0570888,419.057089 C47.7011184,401.413059 72.0761184,390.5 99,390.5 L157.09315,390.5 L216.010277,474.014581 L264.644389,390.5 L316,390.5 C342.923882,390.5 367.298882,401.413059 384.942911,419.057089 C402.586941,436.701118 413.5,461.076118 413.5,488 L413.5,842 C413.5,868.923882 402.586941,893.298882 384.942911,910.942911 Z" id="Rectangle" stroke="#979797" stroke-width="3" fill="#D8D8D8"></path>
                    <path d="M288.651503,438.17692 L217.247496,468.942747 L263.006325,384.209992 L288.651503,438.17692 Z" id="Triangle" stroke="#979797" stroke-width="2" fill="#D8D8D8"></path>
                    <path d="M216.733706,435.299889 L142.734816,469.628916 L197.644117,385.194286 L216.733706,435.299889 Z" id="Triangle" stroke="#979797" stroke-width="2" fill="#D8D8D8" transform="translate(179.000000, 427.500000) scale(-1, 1) translate(-179.000000, -427.500000) "></path>
                    <rect id="Rectangle" stroke="#8C8C8C" stroke-width="2" fill="#8C8C8C" x="217" y="467" width="1" height="476"></rect>
                    <rect id="Rectangle" stroke="#8C8C8C" stroke-width="2" fill="#8C8C8C" transform="translate(349.000000, 688.500000) scale(-1, 1) translate(-349.000000, -688.500000) " x="349" y="540" width="1" height="297"></rect>
                    <rect id="Rectangle" stroke="#8C8C8C" stroke-width="2" fill="#8C8C8C" x="57" y="540" width="1" height="307"></rect>
                    <g id="Group-12" transform="translate(490.000000, 523.000000)" stroke-width="2">
                        <rect id="Rectangle" stroke="#3D3D3D" fill="#969696" x="8" y="1" width="11" height="41"></rect>
                        <rect id="Rectangle" stroke="#3D3D3D" fill="#969696" x="24" y="1" width="11" height="41"></rect>
                        <rect id="Rectangle" stroke="#3D3D3D" fill="#969696" x="40" y="1" width="11" height="41"></rect>
                        <rect id="Rectangle" stroke="#3D3D3D" fill="#969696" x="56" y="1" width="11" height="41"></rect>
                        <rect id="Rectangle" stroke="#3D3D3D" fill="#969696" x="72" y="1" width="11" height="41"></rect>
                        <rect id="Rectangle" stroke="#3D3D3D" fill="#969696" x="88" y="1" width="11" height="41"></rect>
                        <rect id="Rectangle" stroke="#3D3D3D" fill="#969696" x="104" y="1" width="11" height="41"></rect>
                        <rect id="Rectangle" stroke="#3D3D3D" fill="#969696" x="120" y="1" width="11" height="41"></rect>
                        <rect id="Rectangle" stroke="#3D3D3D" fill="#969696" x="136" y="1" width="11" height="41"></rect>
                        <rect id="Rectangle" stroke="#3D3D3D" fill="#969696" x="152" y="1" width="11" height="41"></rect>
                        <rect id="Rectangle" stroke="#3D3D3D" fill="#969696" x="168" y="1" width="11" height="41"></rect>
                        <rect id="Rectangle" stroke="#3D3D3D" fill="#969696" x="184" y="1" width="11" height="41"></rect>
                        <rect id="Rectangle" stroke="#3D3D3D" fill="#969696" x="200" y="1" width="11" height="41"></rect>
                        <rect id="Rectangle" stroke="#3D3D3D" fill="#969696" x="216" y="1" width="11" height="41"></rect>
                        <rect id="Rectangle" stroke="#3D3D3D" fill="#969696" x="232" y="1" width="11" height="41"></rect>
                        <rect id="Rectangle" stroke="#3D3D3D" fill="#969696" x="248" y="1" width="11" height="41"></rect>
                        <rect id="Rectangle" stroke="#333333" fill="#636366" x="1" y="26" width="268" height="41"></rect>
                    </g>
                    <g id="Group-16" transform="translate(666.000000, 230.000000)" stroke="#333333" stroke-width="3">
                        <rect id="Rectangle" fill="#B7B7B7" x="1.5" y="1.5" width="373" height="512"></rect>
                        <rect id="Rectangle" fill="#D8D8D8" x="1.5" y="1.5" width="32" height="512"></rect>
                    </g>
                    <g id="Group-15" transform="translate(462.500000, 685.000000) rotate(60.000000) translate(-462.500000, -685.000000) translate(366.000000, 527.000000)">
                        <ellipse id="Oval" fill="#908073" transform="translate(60.500000, 57.000000) scale(-1, 1) translate(-60.500000, -57.000000) " cx="60.5" cy="57" rx="60.5" ry="57"></ellipse>
                        <rect id="Rectangle" stroke="#979797" stroke-width="3" fill="#D8D8D8" transform="translate(112.250404, 195.769156) scale(-1, 1) rotate(20.000000) translate(-112.250404, -195.769156) " x="68.7504038" y="86.2691556" width="87" height="219"></rect>
                    </g>
                </g>
                <rect id="Rectangle" fill="#535353" x="0" y="909" width="1923" height="222"></rect>
            </g>
            <g id="Group-23" transform="translate(793.000000, 121.000000)">
                <path d="M2.5,239 C2.5,173.716085 31.472711,114.625073 78.2781702,71.8468525 C125.168726,28.9908574 189.951701,2.5 261.5,2.5 C333.048299,2.5 397.831274,28.9908574 444.72183,71.8468525 C491.527289,114.625073 520.5,173.716085 520.5,239 C520.5,304.283915 491.527289,363.374927 444.72183,406.153147 C397.831274,449.009143 333.048299,475.5 261.5,475.5 L261.512013,478.67884 L231.499952,547.728471 L196.879548,468.079649 C140.154807,454.776297 90.9310376,424.364475 56.2038005,383.204258 C22.5362632,343.300043 2.5,293.290043 2.5,239 Z" id="Combined-Shape" stroke="#393939" stroke-width="5" fill="#FFFFFF"></path>
                <g id="Group-22" transform="translate(79.000000, 78.000000)">
                    <g id="Group-3" filter="url(#filter-1)" transform="translate(73.000000, 143.500000) scale(-1, 1) translate(-73.000000, -143.500000) ">
                        <path d="M137.673557,229.170606 C137.32785,229.700601 136.778221,230.132813 135.741877,230.315819 C135.17952,230.415124 134.70421,230.381705 134.302412,230.247163 C133.840866,230.092613 133.455943,229.808084 133.150258,229.364913 C132.730339,228.756128 132.458614,227.747841 132.395445,226.221501 C132.360886,225.386435 132.374105,224.374596 132.388155,223.348437 C132.406766,221.989172 132.431084,220.60272 132.325376,219.614516 C132.280911,219.721958 132.240866,219.82431 132.194831,219.881307 C131.234635,221.070157 129.875841,222.691024 128.391485,223.394788 C127.944531,223.606698 127.5005,223.671661 127.081686,223.632161 C126.629001,223.589467 126.202683,223.421817 125.834216,223.162315 C125.069798,222.623957 124.582987,221.688378 124.599241,220.80784 C124.630146,219.133624 125.998449,217.260435 127.427986,215.47519 C128.496882,214.140323 129.915721,212.813443 129.508746,211.702559 C128.285902,211.322008 127.393165,211.645967 126.513787,211.956778 C125.440756,212.336034 124.384673,212.695499 123.538365,212.780545 C122.566392,212.878219 121.833407,212.632283 121.348755,212.09368 C120.88022,211.572989 120.635653,211.055715 120.536083,210.559764 C120.41835,209.973339 120.49923,209.40115 120.735595,208.850565 C121.220566,207.720885 122.478312,206.676583 123.528019,205.861655 C123.71356,205.717612 123.889671,205.581016 124.047919,205.4523 C126.433588,203.511853 129.881885,202.434789 133.618547,201.693831 C133.560857,201.151789 133.501651,200.590469 133.440406,200.009817 C132.708753,193.073158 131.685453,183.368384 129.472775,170.801087 C129.173359,169.100498 128.869636,167.44673 128.563822,165.839948 C126.259089,184.446187 120.742252,199.128733 112.53894,209.053137 C111.940853,216.464252 111.394927,226.422481 112.249005,238.654457 C113.405298,255.214685 116.916072,265.594021 118.917288,271.511519 C119.389004,272.906359 119.778041,274.059824 120.038314,274.992868 C121.618903,276.438312 123.006787,279.231124 123.006787,282.854331 C123.006787,283.937072 122.806492,284.784115 122.466933,285.45318 C122.067231,286.240748 121.473602,286.803948 120.713149,287.19883 C119.164835,288.002826 116.798505,288.026037 114.041386,287.982148 C113.445877,287.972669 112.831632,287.962851 112.204234,287.962851 C111.609279,287.962851 110.985703,287.97167 110.347268,287.980663 C107.216213,288.024764 103.753058,288.042972 101.414194,287.182343 C100.384341,286.803389 99.5551699,286.257994 98.9868283,285.528408 C98.4418755,284.828846 98.1191095,283.955957 98.1191095,282.854331 C98.1191095,281.904656 98.5456467,280.977677 99.3678573,280.116371 C100.121582,279.326808 101.222312,278.58263 102.531788,277.911736 C105.341723,276.472101 109.139639,275.343431 112.191796,274.632439 C108.070148,268.558416 103.629003,256.680888 102.584288,241.718648 C102.030619,233.789098 102.248488,225.311523 102.958851,217.698693 C96.7369888,221.748128 89.5456707,223.876307 81.4915468,223.876307 C78.1730233,223.876307 74.9532838,223.461304 71.8504636,222.658213 C71.0613841,228.137682 70.2664709,235.245709 70.2664709,243.876142 C70.2664709,256.647922 72.39969,264.802422 73.6155511,269.45153 C74.13931,271.454235 74.4792194,272.857523 74.4792114,273.735231 C74.6867089,274.640224 74.8053966,275.631164 74.8053966,276.691852 C74.8053966,277.774593 74.6051018,278.621636 74.2655422,279.290702 C73.865841,280.07827 73.2722118,280.64147 72.5117582,281.036352 C70.9634443,281.840348 68.5971142,281.863559 65.8399956,281.81967 C65.2444866,281.81019 64.6302413,281.800372 64.0065168,281.800366 C63.4590412,281.802377 62.893852,281.810118 62.3196874,281.817964 C59.090988,281.862086 55.5991936,281.87975 53.2464762,281.027315 C52.204483,280.64978 51.3680278,280.105175 50.7949893,279.376316 C50.2435347,278.67491 49.917719,277.798845 49.917719,276.691852 C49.917719,275.682165 50.4020016,274.695794 51.3318691,273.786575 C52.1913748,272.946156 53.4452587,272.160752 54.9138407,271.461155 C58.3801725,269.809878 63.0681906,268.60602 66.1082517,268.018261 C63.9700617,262.734308 62.224457,254.913144 62.224457,245.712838 C62.224457,236.965428 63.4882576,227.446119 65.1743841,220.251078 C52.2173981,214.19949 41.795525,200.826152 35.5999282,182.355 C35.3534883,187.696542 35.1781044,193.372083 35.1781044,199.198007 C35.1781044,211.365639 35.8521406,220.649872 36.3338525,227.288514 C36.4439881,228.806331 36.5441163,230.186589 36.6243832,231.432091 C40.7105456,231.482541 44.4728458,231.918262 47.2646993,233.473367 C47.4428571,233.572604 47.6399722,233.676496 47.8476648,233.78608 C49.0228402,234.406134 50.4426538,235.215937 51.1161914,236.244198 C51.4444639,236.745358 51.6233671,237.294829 51.6091021,237.892878 C51.5970411,238.39853 51.4459096,238.950396 51.0748333,239.544563 C50.6909961,240.159162 50.011875,240.528652 49.0379635,240.601476 C48.1897517,240.6649 47.0873722,240.494554 45.9648645,240.307663 C45.0449704,240.154506 44.1096376,239.990722 43.3323102,240.014386 C42.7675766,241.68196 44.3468735,242.765329 45.6739973,243.93183 C47.3914871,245.441449 49.0638519,247.04831 49.3846009,248.691803 C49.553257,249.555984 49.2361891,250.56187 48.5768293,251.224885 C48.259025,251.54445 47.8683336,251.783631 47.4300257,251.904373 C47.0244013,252.016113 46.5758312,252.029337 46.0989021,251.898368 C44.5149788,251.46341 42.8956822,250.103418 41.7438652,249.099556 C41.6840946,249.047463 41.6275214,248.990492 41.57409,248.931977 C41.6488103,249.916866 41.9065961,251.244873 42.1545357,252.548314 C42.3462998,253.556437 42.5347633,254.550601 42.6455223,255.378987 C42.8479573,256.893036 42.755232,257.933189 42.4472632,258.605718 C42.2231347,259.095161 41.8934978,259.442199 41.4658929,259.674593 C41.0935546,259.87695 40.6312986,259.992491 40.0603121,259.992491 C39.0077496,259.992491 38.3914313,259.662299 37.9590033,259.200396 C37.4940905,258.703795 37.2611065,257.963288 37.0488261,257.040985 C36.9626223,256.666452 36.8701481,256.258101 36.7256915,255.833812 C36.5747555,255.390492 36.3790044,254.454724 36.1508049,253.333739 C35.7090844,251.163872 35.30659,247.836811 34.507991,247.401613 C34.2505388,248.043497 33.9992737,249.129636 33.6646595,250.43366 C33.3061489,251.830811 32.8854529,253.462387 32.2598637,255.082756 C31.998465,255.759817 31.6823349,256.14931 31.3880437,256.394736 C30.8715544,256.825466 30.3600855,256.878234 29.9609515,256.891379 C29.2076418,256.921611 28.6993021,256.58219 28.315598,256.024705 C27.9649677,255.515273 27.7488715,254.772231 27.6364981,254.319154 C27.2099208,252.599243 27.6325754,243.131258 30.0104524,237.049142 C27.0697851,230.642622 24.2786815,216.912306 24.2786815,201.332023 C24.2786815,186.597298 27.0077156,165.672541 29.9143027,154.086005 C29.5255074,149.691705 29.3257446,145.143711 29.3257446,140.460823 C29.3257446,122.781326 25.0919885,82.03175 18.6148104,55.0931976 C18.1450492,54.8929676 17.8274671,54.8635696 17.4632602,54.853568 C15.8886596,54.8103274 13.6338762,55.0130767 11.742743,55.1805794 C10.4090592,55.2987073 9.24765105,55.3992858 8.59100605,55.3992858 C8.18025033,55.3992858 7.72531658,55.4243563 7.24851608,55.450041 C5.51062164,55.5436591 3.54013088,55.5949398 2.11462502,54.8783873 C0.948696734,54.2923155 0.0557861395,53.2587531 -0.154065443,51.3673808 C-0.228869226,50.6931814 -0.0343688536,50.0017715 0.447898349,49.3123463 C0.851602793,48.7352306 1.47334555,48.1472806 2.26624393,47.5665128 C4.11855289,46.2097673 6.9612606,44.8425263 9.76047086,43.5050046 C12.2751595,42.3034333 14.7531962,41.1271783 16.3600927,39.985052 C16.8894005,39.6088384 17.3177623,39.2454684 17.588024,38.879651 C17.7052289,38.7210061 17.8132049,38.5703419 17.7951021,38.405964 C17.0816501,37.8084493 16.4965351,37.6249129 15.8030669,37.4735701 C13.6091863,36.9947768 10.4271608,36.9238738 7.56799189,36.8527188 C3.57662737,36.7533873 0.511611181,36.3322206 0.00768975897,35.5760562 C-0.679400035,34.5450365 -1,33.5207026 -1,32.6000216 C-1,31.5693913 -0.615493128,30.6454197 0.15452706,29.9208068 C1.3243548,28.8199624 6.91447493,25.5885271 14.1094293,24.6102289 C18.1278017,24.0638507 23.593759,24.4274939 28.0730338,24.7326596 C31.1676721,24.9434922 34.1127394,25.4836079 34.8996125,25.1405437 C34.4423158,24.487361 33.8130488,23.8910842 33.0127484,23.2232786 C30.6451934,21.2476874 26.8391855,18.7565081 23.4997461,16.5674481 C19.6192306,14.0237035 16.5035873,11.7750662 16.2501746,11.0640386 C15.762467,9.69562414 15.7207676,8.51650068 16.4516957,7.59642103 C16.981364,6.9296836 18.0038237,6.32695713 19.9864838,6.04186246 C25.4241775,5.25995458 37.3372313,7.53024382 42.3339644,8.7707973 C43.2269374,8.99249831 45.2060758,9.87786226 47.5350486,10.9342226 C50.4337765,12.2490088 53.9042726,13.8277932 56.4026264,14.5722987 C57.211063,14.8132115 57.9035763,14.9693666 58.4162597,14.9671117 C58.0422891,14.5016952 57.6070441,13.9682812 57.03966,13.3671659 C55.8115645,12.0660597 53.9874435,10.4890914 51.8532653,8.91094789 C50.7749157,8.11354943 49.5068663,7.42144337 48.3167566,6.76843833 C46.9435586,6.01497401 45.669825,5.30435525 44.8257213,4.57469887 C43.9474191,3.8154807 43.5113059,3.00963217 43.5113059,2.1864306 C43.5113059,1.53354141 43.6915527,1.01122556 43.9866566,0.585946115 C44.2955083,0.140854605 44.7421457,-0.204003165 45.3042857,-0.449428277 C46.3989009,-0.927327134 48.0094947,-1 49.5192697,-1 C58.5980625,-1 74.3983362,3.22762686 82.341547,16.0445515 C86.5903632,22.9003127 90.0932305,33.1131893 93.7145028,43.70904 C96.0436662,50.5241773 98.4259033,57.4974544 101.103849,63.8164118 C103.386964,69.2037149 105.952617,74.922019 108.58515,80.7895873 C115.941594,97.1861302 123.812348,114.74469 127.54967,129.527831 C131.957485,137.797921 137.793226,155.198902 140.594447,171.108911 C143.127157,185.493908 143.194656,198.739776 141.938011,206.443858 C145.172276,212.051101 147.111287,220.849385 146.992771,222.568614 C146.960668,223.034309 146.876714,223.803574 146.619764,224.366197 C146.323634,225.014611 145.839,225.413497 145.212285,225.496799 C144.714669,225.567202 144.221585,225.58733 143.658337,225.264471 C143.325887,225.073909 142.946926,224.745245 142.572012,224.123778 C141.674956,222.636791 140.977738,221.103135 140.382411,219.789531 C139.826806,218.563577 139.391076,217.537683 138.926121,217.021722 C138.315438,217.518177 138.49573,220.864836 138.436951,223.078855 C138.40659,224.222487 138.37607,225.178071 138.304296,225.640901 C138.235601,226.083879 138.215335,226.502121 138.195382,226.885966 C138.146253,227.831065 138.045261,228.600754 137.673557,229.170606 Z" id="Combined-Shape" stroke="#000000" stroke-width="2" fill="#F3A7A7"></path>
                        <g id="Group-2" transform="translate(35.000000, 65.000000)">
                            <path d="M1.01096253,35.9943513 C0.897135577,33.7352996 1.63653142,30.4505353 3.13630617,26.3833618 C3.21600783,26.1672223 3.29414864,25.9551405 3.37081859,25.7470507 C4.85939806,21.7068991 5.75655245,19.2078375 6.80335947,17.7615048 C7.55126012,16.7281595 8.38865875,16.3746445 9.68945756,16.3746445 C10.3289429,16.3746445 10.8788638,16.61331 11.3293778,17.0520602 C11.8797532,17.5880642 12.2849213,18.3884172 12.567571,19.3870242 C13.1964155,21.6087445 13.1910902,24.7505359 12.4664996,28.461926 C11.8339588,31.7018324 10.5162522,34.0858522 8.9320989,35.730568 C7.01412414,37.7218672 4.7159793,38.6228336 2.88259434,38.6228336 C2.33795613,38.6228336 1.9032684,38.4602928 1.6078895,38.0920774 C1.22631567,37.6164124 1.05641161,36.8963503 1.01096253,35.9943513 Z" id="Oval" stroke="#000000" stroke-width="2" fill="#AD6161"></path>
                            <path d="M41.6178222,25.2698971 C41.0686669,25.2684218 40.6303084,25.1036867 40.331652,24.7334831 C39.9479813,24.2578989 39.7752881,23.5389446 39.7273253,22.6388158 C39.6072489,20.3853124 40.3394736,17.1109968 41.8312081,13.0584767 C41.9105126,12.8430343 41.9882635,12.6316363 42.0645509,12.4242174 C43.5451932,8.39847711 44.4372052,5.90809546 45.4821742,4.4682721 C46.2287213,3.43963287 47.0672211,3.0908074 48.3698716,3.09428736 C49.0133615,3.09601755 49.5673528,3.33661834 50.0218663,3.77735547 C50.5752662,4.31398186 50.9841075,5.11410448 51.2702682,6.11195318 C51.9062695,8.32970356 51.9093182,11.4635912 51.1932376,15.163537 C50.5683708,18.3921871 49.2550998,20.7657507 47.6728566,22.4014043 C45.7560518,24.382913 43.4549875,25.2748091 41.6178222,25.2698971 Z" id="Oval" stroke="#000000" stroke-width="2" fill="#AD6161" transform="translate(45.725815, 14.182092) scale(1, -1) rotate(40.000000) translate(-45.725815, -14.182092) "></path>
                            <ellipse id="Oval" fill="#000000" cx="19.3546871" cy="58.2335278" rx="4.07467096" ry="5.63323612"></ellipse>
                            <ellipse id="Oval" fill="#000000" cx="45.8400483" cy="39.7974823" rx="4.07467096" ry="5.63323612"></ellipse>
                            <path d="M71.967314,116.800399 C69.1727359,126.192226 60.9750161,133.704047 53.7240471,136.514592 C49.9449987,137.979387 44.8303798,138.684298 40.2765828,137.711137 C36.718447,136.950752 33.498295,135.160788 31.5726392,131.863907 C29.9350788,129.060269 29.5491879,126.389877 29.9929779,123.920243 C30.5341572,120.90865 32.2949297,118.201569 34.4768457,115.911353 C36.236663,114.064186 38.1354121,113.593394 40.1216054,113.081632 C42.7883875,112.39451 45.6124726,111.655897 48.5360748,108.014707 C51.57296,104.23243 53.1676569,99.219631 54.5504645,94.8388221 C55.907311,90.5402591 56.9868131,86.7891536 59.2842328,85.7774825 C61.3485962,84.8684381 63.7168662,85.1950856 65.8381718,86.3609501 C68.050436,87.5768053 70.0009367,89.7073786 71.1021131,92.3707022 C73.863156,99.0486062 74.2376938,109.170262 71.967314,116.800399 Z" id="Oval" stroke="#000000" fill="#000000"></path>
                            <g id="Combined-Shape">
                                <use fill="#FFFFFF" fill-rule="evenodd" xlink:href="#path-2"></use>
                                <use fill="black" fill-opacity="1" filter="url(#filter-3)" xlink:href="#path-2"></use>
                                <path stroke="#000000" stroke-width="2" d="M62.1573999,92.5450569 C62.1573999,100.760637 59.014944,108.200682 53.9272475,113.585367 C48.8595049,118.948933 41.8600171,122.271799 34.1253693,122.271799 C33.1282926,122.271799 32.1433933,122.216629 31.1734286,122.108862 C31.8522507,119.948204 33.1519254,118.026904 34.8388548,116.256243 C36.5232571,114.488235 38.3485757,114.0548 40.2463605,113.565818 C42.9997603,112.856378 45.9093426,112.084775 48.9259523,108.327749 C52.0011104,104.497805 53.6266234,99.4266669 55.0272747,94.9893278 C56.3202702,90.8930485 57.2740697,87.2089906 59.4857367,86.2350808 C60.0964838,85.9661377 60.7496983,85.8080164 61.4217316,85.7505927 C61.9031044,87.9329317 62.1573999,90.2075574 62.1573999,92.5450569 Z" stroke-linejoin="square"></path>
                            </g>
                            <ellipse id="Oval" fill="#FFFFFF" cx="20.8826887" cy="55.1608535" rx="1.52800161" ry="1.53633712"></ellipse>
                            <ellipse id="Oval" fill="#FFFFFF" cx="47.36805" cy="36.724808" rx="1.52800161" ry="1.53633712"></ellipse>
                        </g>
                    </g>
                </g>
                <g id="Group-20" transform="translate(126.575223, 61.723819)">
                    <g id="Group-5" filter="url(#filter-4)" transform="translate(106.424777, 154.276181)">
                        <path d="M237.498748,87.30976 L155.502913,87.3095364 C155.511405,90.2723738 155.508695,93.3752829 155.505892,96.5811744 C155.505087,97.5016283 155.504275,98.4305762 155.503719,99.3665452 L155.503719,103.757223 C155.504275,104.693786 155.505087,105.622734 155.505892,106.543188 C155.522541,125.583801 155.443144,140.99581 153.188064,145.293651 C152.662337,146.702164 151.893542,147.915842 150.652858,148.748891 C149.611027,149.448421 148.221992,149.892058 146.29968,149.892059 C145.257461,149.892059 144.343216,149.925666 143.539219,149.955076 C141.508627,150.029355 140.116998,150.027591 139.112774,149.586317 C138.130725,149.154787 137.411391,148.370014 136.918266,146.778074 C136.328397,144.873823 136.635718,143.020633 137.645539,141.396982 C138.630185,139.813809 140.307058,138.444846 142.487043,137.512549 C142.77402,137.389819 143.126398,137.223563 143.513613,137.041222 C144.087102,136.771164 144.732081,136.468532 145.360278,136.206783 C143.741614,128.012785 142.704083,115.536863 142.704083,101.562181 C142.704083,96.5781116 142.835778,91.7849712 143.07866,87.3095169 L94.4881579,87.3087472 C94.6583743,92.595072 94.7017334,98.6848732 94.708088,105.194718 L94.7089778,107.116363 C94.7089778,115.502917 95.2803824,123.420722 95.7509893,129.949711 C96.0629321,134.277466 96.3303699,138.000375 96.3631507,140.854908 C96.5043381,141.673088 96.4624523,142.612032 96.40648,143.598907 C96.3857531,143.964353 96.3644494,144.336995 96.3552389,144.712033 C96.332979,145.61842 96.1473426,146.330399 95.8460203,146.898312 C95.4947357,147.560391 94.9846882,148.045094 94.3264501,148.395717 C93.0461544,149.077692 91.0915211,149.189543 88.6757141,149.261663 C85.5004235,149.360196 83.1761345,149.384567 81.6486449,148.7559 C80.8832515,148.440888 80.2888073,147.975722 79.8897156,147.339478 C79.5314144,146.768264 79.3222889,146.046736 79.3450217,145.121094 C79.3944485,143.10851 80.3918422,141.242923 82.0042316,139.871289 C83.2482738,138.813002 84.8576147,138.052437 86.6436941,137.758013 C84.1309242,130.269772 81.9284493,119.171119 81.9284493,107.116363 C81.9284493,99.8875296 82.2697586,93.1170997 82.8640474,87.3087453 L5.37772693,87.30976 C3.79594576,87.30976 2.39460961,86.7091639 1.30362672,85.6565066 C0.251834982,84.6416637 -0.513031292,83.1939374 -0.833418264,81.4461733 C-1.35611421,78.5947801 -0.695483421,74.9053104 1.87369391,71.1381048 C5.27899913,66.1448781 12.0931652,60.9590968 24.0305093,57.5991598 C35.7809253,54.2918365 44.7652538,53.4059606 50.4825801,52.8431675 C51.9847521,52.695299 53.2543257,52.5725848 54.2808268,52.4314576 C53.6437063,51.6825002 52.9760011,50.9529392 52.2722737,50.2583063 C47.552036,45.5990699 43.7077832,40.7828928 41.3026088,36.7669568 C40.0371156,34.6539544 39.1665395,32.7518713 38.7524166,31.1970312 C38.264928,29.366737 38.4290351,27.9800026 39.0622002,27.0938769 C39.4291292,26.5803532 39.9376292,26.2217649 40.5840764,26.0268412 C41.1308222,25.8619805 41.7903554,25.8178398 42.5509051,25.9147874 C43.8688653,26.0827882 45.5425663,26.6865762 47.4533324,27.6976499 C50.7067809,29.4191984 54.7004334,32.3329886 58.8230959,36.1130772 C62.1017421,24.5059047 69.0153053,15.6730186 78.0356806,9.53741976 C88.4080684,2.48219118 101.57917,-1 115.207063,-1 C128.442475,-1 139.880442,2.69441074 149.186662,9.61997798 C158.256901,16.3699314 165.308155,26.1985288 169.998464,38.7127944 C170.122761,38.594229 170.246732,38.4739921 170.370306,38.3520466 C174.684329,34.0949083 178.935565,30.7247227 182.316449,28.7105138 C184.12733,27.6316567 185.705629,26.9372006 186.930787,26.6672321 C187.652444,26.5082121 188.272807,26.4915815 188.777252,26.5925748 C189.436156,26.7244919 189.933006,27.0455588 190.276494,27.5263108 C190.808829,28.2713759 190.94012,29.4940798 190.403369,31.1740286 C189.972573,32.5223566 189.129471,34.1955696 187.933179,36.0719509 C185.663789,39.6314856 182.109344,43.9605676 177.802065,48.2110507 C176.689236,49.3092052 175.665236,50.4893902 174.710509,51.6846848 C177.039947,52.1934925 182.103786,52.5971704 188.092104,53.1352044 C198.714306,54.0895804 212.212461,55.3148276 219.438812,57.6086218 C228.447919,60.4683 234.044765,65.3037744 237.269571,70.176859 C239.674703,73.8113132 240.764963,77.4797747 240.965271,80.4154942 C241.094669,82.3119626 240.849648,83.9158258 240.367499,85.0536455 C240.0742,85.7457997 239.688713,86.2810391 239.25185,86.6502372 C238.736246,87.0859793 238.14363,87.30976 237.498748,87.30976 Z" id="Combined-Shape" stroke="#000000" stroke-width="2" fill="#99CAF4"></path>
                        <path d="M114.947403,51.9270612 C109.665684,52.1552225 104.995793,50.7442278 101.494802,48.6619548 C99.4646832,47.4545076 97.8296286,46.0236088 96.7113225,44.5569288 C95.6649258,43.1845593 95.0632403,41.7900996 95.1100236,40.5450487 C95.1498243,39.4858256 95.7122409,38.4737428 96.6242912,37.522286 C97.7042413,36.3956751 99.2701144,35.3659616 101.189804,34.4699401 C105.113414,32.6385817 110.487869,31.3877085 116.378288,31.1332524 C122.254469,30.8794114 127.539231,31.6636504 131.329054,33.1579982 C133.156444,33.8785479 134.627469,34.7574883 135.610035,35.7775993 C136.422929,36.621555 136.89006,37.5588394 136.851672,38.5804468 C136.753471,41.1939047 133.686107,44.6202339 129.327493,47.3482535 C125.400352,49.8062175 120.32764,51.6946441 114.947403,51.9270612 Z" id="Oval" stroke="#000000" stroke-width="2" fill="#000000" transform="translate(115.980747, 41.518737) rotate(-15.000000) translate(-115.980747, -41.518737) "></path>
                        <path d="M114.616133,48.0630003 C109.658136,48.2771773 105.267507,47.1314834 101.971764,45.4217694 C100.074574,44.4375743 98.5437288,43.2697203 97.4952292,42.0677255 C96.5572428,40.9924223 95.9918527,39.9026326 96.0289094,38.9164391 C96.0601433,38.0852047 96.5753094,37.3026595 97.3756654,36.557979 C98.3798927,35.6236093 99.8385144,34.7690594 101.628024,34.0209789 C105.302992,32.4847079 110.341768,31.4229924 115.8694,31.1842081 C121.38557,30.9459189 126.350047,31.5709976 129.914246,32.7918182 C131.623966,33.3774369 133.001604,34.0923933 133.923576,34.9291154 C134.631323,35.5714204 135.066491,36.2795757 135.036793,37.0699312 C134.956551,39.2054229 132.080281,41.9725158 128.092627,44.2025395 C124.41726,46.2579222 119.663925,47.8449442 114.616133,48.0630003 Z" id="Oval" stroke="#000000" stroke-width="2" fill="#FFFFFF" transform="translate(115.532779, 39.611520) rotate(-15.000000) translate(-115.532779, -39.611520) "></path>
                        <ellipse id="Oval" fill="#000000" cx="80.5" cy="39" rx="3.5" ry="4"></ellipse>
                        <ellipse id="Oval" fill="#000000" cx="151.5" cy="37" rx="3.5" ry="4"></ellipse>
                        <circle id="Oval" fill="#FFFFFF" cx="152.5" cy="35.5" r="1.5"></circle>
                        <circle id="Oval" fill="#FFFFFF" cx="82.5" cy="37.5" r="1.5"></circle>
                    </g>
                    <path d="M304.119911,209.252356 C270.530388,223.630807 242.569095,230.981631 220.229939,231.267569 C197.904257,231.553334 171.014563,224.740232 139.555564,210.868024 C143.496571,209.986919 146.809085,209.395819 149.493414,209.096641 C150.4134,208.994105 152.161417,208.715881 154.033382,208.417207 C155.745473,208.144041 157.562901,207.853928 158.930355,207.670659 C159.676795,207.57062 160.0706,207.473974 160.26872,207.397223 C160.455003,207.325058 160.780982,207.149347 161.333522,206.771449 C161.137097,206.484281 160.935553,206.191876 160.728745,205.894195 C158.386836,202.523227 156.443453,200.020911 154.918137,198.170266 C157.31934,194.938714 159.239113,192.558929 160.68052,191.033581 C161.388032,190.284866 161.965422,189.752449 162.422609,189.448981 C164.737615,190.811575 166.575577,192.224823 168.320121,193.564269 C170.390515,195.153899 172.33226,196.643193 174.124667,197.809093 C183.505718,203.911148 199.480661,212.184152 220.189385,213.290592 C238.591749,214.273805 258.007035,205.779962 267.156457,200.275585 C268.695705,199.34956 270.496113,197.972202 272.213477,196.655147 C274.391481,194.984824 276.572416,192.820105 277.360018,193.13777 C281.66914,194.875778 282.308942,195.255538 282.86936,195.595441 C283.400943,195.917854 283.864623,196.207192 287.006992,197.447667 C286.729256,197.820761 286.442283,198.177902 286.102051,198.594136 C284.90622,200.057096 283.065078,202.233103 280.578793,205.122298 C280.049638,205.737204 279.54807,206.318398 279.075032,206.865796 C279.846776,206.823116 280.608807,206.792606 281.361128,206.774278 C284.528957,206.697103 287.879281,206.82727 291.412125,207.163969 C294.416679,207.45032 298.652582,208.146896 304.119911,209.252356 Z" id="Rectangle" stroke="#000000" stroke-width="2" fill="#DCDCDC"></path>
                    <g id="Group-17" transform="translate(0.849555, 0.552363)" fill="#E578C0" fill-rule="nonzero">
                        <path d="M188.818983,218.723405 C188.831603,218.726485 188.846752,218.712353 188.864431,218.681009 C188.882109,218.649665 188.894291,218.618169 188.900977,218.58652 C188.905752,218.563913 188.90694,218.532111 188.904541,218.491114 C188.902143,218.450116 188.894634,218.428078 188.882015,218.424998 C188.754479,218.379612 188.645293,218.310179 188.554457,218.216696 C188.463621,218.123214 188.387212,217.99284 188.32523,217.825574 L188.32523,217.825574 L187.328078,215.16464 L188.263454,214.537112 C188.422505,214.433293 188.604743,214.350585 188.810167,214.288987 C189.015591,214.227389 189.23895,214.211768 189.480242,214.242124 C189.492861,214.245203 189.509301,214.230198 189.52956,214.197107 C189.54982,214.164015 189.562815,214.133906 189.568545,214.106778 C189.575223,214.075129 189.576896,214.041066 189.573542,214.00459 C189.570189,213.968114 189.562202,213.948336 189.549583,213.945256 C189.461247,213.9237 189.355943,213.903946 189.233671,213.885994 C189.1114,213.868042 188.98296,213.842641 188.848353,213.809793 C188.684301,213.76976 188.498307,213.718429 188.290371,213.6558 C188.082436,213.593172 187.902751,213.543381 187.751319,213.506427 C187.738699,213.503347 187.723311,213.51861 187.705155,213.552214 C187.686999,213.585818 187.675055,213.616184 187.669325,213.643312 C187.66455,213.665919 187.663601,213.696591 187.666477,213.735327 C187.669353,213.774064 187.676623,213.797233 187.688287,213.804834 C187.831694,213.858847 187.928783,213.912254 187.979556,213.965057 C188.030329,214.017859 188.049508,214.073649 188.037092,214.132426 C188.027542,214.177639 188.00867,214.214634 187.980475,214.243412 C187.95228,214.272189 187.914956,214.302305 187.868502,214.333758 L187.868502,214.333758 L186.40263,215.273986 C186.320046,215.329903 186.250076,215.36275 186.19272,215.372525 C186.135364,215.3823 186.066725,215.377436 185.986802,215.357933 L185.986802,215.357933 L186.261847,214.055792 C186.301958,213.865896 186.367177,213.740369 186.457502,213.679209 C186.547828,213.61805 186.741457,213.60706 187.038388,213.646239 C187.051008,213.649319 187.066634,213.632926 187.085268,213.597061 C187.103902,213.561196 187.115606,213.53196 187.120382,213.509354 C187.126112,213.482226 187.127539,213.449293 187.124663,213.410557 C187.121787,213.37182 187.114039,213.350912 187.10142,213.347832 C186.895303,213.297533 186.677476,213.25032 186.447939,213.206192 C186.218403,213.162065 186.006886,213.116391 185.813388,213.069172 C185.619891,213.021953 185.411813,212.965233 185.189154,212.899012 C184.966496,212.83279 184.752108,212.77453 184.545992,212.724232 C184.533372,212.721152 184.518223,212.735284 184.500544,212.766628 C184.482865,212.797972 184.470683,212.829468 184.463998,212.861117 C184.459223,212.883724 184.458274,212.914396 184.46115,212.953133 C184.464026,212.99187 184.471296,213.015038 184.48296,213.022639 C184.80247,213.143398 184.980397,213.248625 185.016742,213.338318 C185.053088,213.428012 185.051683,213.565546 185.012527,213.75092 L185.012527,213.75092 L184.383647,216.728212 C184.344492,216.913586 184.277409,217.03747 184.182399,217.099863 C184.087389,217.162257 183.914554,217.17951 183.663894,217.151622 C183.650319,217.153064 183.634454,217.170587 183.616298,217.204191 C183.598141,217.237795 183.586676,217.265901 183.5819,217.288508 C183.575223,217.320157 183.573549,217.35422 183.576903,217.390696 C183.580257,217.427172 183.588243,217.44695 183.600862,217.450029 C183.806979,217.500328 184.015341,217.545231 184.225949,217.58474 C184.436557,217.624249 184.638609,217.667612 184.832107,217.714831 C185.025604,217.762051 185.217908,217.814921 185.409018,217.873444 C185.600127,217.931966 185.798741,217.986377 186.004858,218.036675 C186.017477,218.039755 186.032865,218.024492 186.051021,217.990888 C186.069178,217.957284 186.081121,217.926918 186.086851,217.89979 C186.091626,217.877183 186.092814,217.845381 186.090416,217.804384 C186.088017,217.763386 186.080508,217.741347 186.067889,217.738268 C185.829644,217.651603 185.688046,217.557619 185.643094,217.456316 C185.598142,217.355014 185.594767,217.213936 185.632968,217.033083 L185.632968,217.033083 L185.908013,215.730942 C186.030001,215.76071 186.117097,215.798605 186.169302,215.844625 C186.221508,215.890645 186.263106,215.955472 186.294097,216.039105 L186.294097,216.039105 L186.853058,217.444926 C186.878501,217.512942 186.894525,217.567962 186.90113,217.609986 C186.907735,217.65201 186.908172,217.686586 186.902442,217.713714 C186.889072,217.777012 186.853567,217.819457 186.795926,217.841049 C186.738286,217.862641 186.655453,217.867388 186.547426,217.855289 C186.533852,217.856731 186.519038,217.874511 186.502985,217.908628 C186.486932,217.942746 186.476518,217.971108 186.471743,217.993715 C186.466012,218.020843 186.464585,218.053775 186.467461,218.092512 C186.470337,218.131249 186.478085,218.152157 186.490704,218.155236 C186.696821,218.205535 186.918855,218.253775 187.156804,218.299955 C187.394754,218.346136 187.610477,218.392836 187.803975,218.440055 C187.997472,218.487274 188.163485,218.53373 188.302015,218.579421 C188.440544,218.625112 188.612867,218.673107 188.818983,218.723405 Z M190.971762,214.712735 C191.104203,214.740411 191.228893,214.716257 191.345833,214.640272 C191.462773,214.564288 191.535524,214.458613 191.564085,214.323249 C191.591895,214.191446 191.567624,214.067357 191.491272,213.95098 C191.414919,213.834604 191.310523,213.762578 191.178082,213.734902 C191.045641,213.707226 190.92095,213.731381 190.804011,213.807365 C190.687071,213.883349 190.614696,213.987243 190.586886,214.119045 C190.558324,214.25441 190.58222,214.380281 190.658572,214.496657 C190.734924,214.613033 190.839321,214.685059 190.971762,214.712735 Z M191.366836,218.723516 C191.378427,218.726115 191.392297,218.711992 191.408446,218.681148 C191.424596,218.650304 191.435104,218.622503 191.439972,218.597745 C191.444028,218.577113 191.444675,218.548177 191.441912,218.510938 C191.439148,218.473698 191.431972,218.453778 191.420381,218.451179 C191.283725,218.407608 191.191384,218.343818 191.143358,218.259807 C191.095332,218.175797 191.090384,218.036823 191.128514,217.842887 L191.128514,217.842887 L191.31957,216.871141 C191.347154,216.730846 191.387023,216.558841 191.439178,216.355125 C191.491333,216.151409 191.535471,215.978207 191.571593,215.835519 C191.579513,215.815754 191.574471,215.795236 191.556466,215.773965 C191.538461,215.752694 191.506277,215.73686 191.459914,215.726463 C191.440596,215.722131 191.416198,215.723122 191.386718,215.729435 C191.357239,215.735749 191.335893,215.741733 191.32268,215.747386 C191.1822,215.784814 190.986925,215.823956 190.736855,215.864812 C190.486785,215.905667 190.264967,215.925932 190.071401,215.925606 C190.05981,215.923006 190.04594,215.937129 190.029791,215.967973 C190.013642,215.998818 190.003539,216.024556 189.999482,216.045187 C189.995426,216.065819 189.995185,216.092691 189.998759,216.125805 C190.002334,216.158918 190.009511,216.178838 190.02029,216.185563 C190.159999,216.234127 190.254928,216.289881 190.305079,216.352827 C190.355229,216.415773 190.364079,216.529772 190.331628,216.694824 L190.331628,216.694824 L190.14909,217.623244 C190.110148,217.821307 190.054244,217.946634 189.981378,217.999225 C189.908512,218.051816 189.798979,218.070335 189.652781,218.054782 C189.640379,218.056309 189.626103,218.072494 189.609954,218.103339 C189.593804,218.134183 189.583702,218.159921 189.579645,218.180553 C189.574777,218.205311 189.573928,218.235278 189.577097,218.270454 C189.580266,218.305631 189.587645,218.324519 189.599236,218.327118 C189.715144,218.353111 189.853316,218.378712 190.013753,218.403921 C190.174189,218.429129 190.320088,218.456463 190.451451,218.485922 C190.586677,218.516247 190.743105,218.556713 190.920734,218.607318 C191.098364,218.657923 191.247064,218.696656 191.366836,218.723516 Z M192.747533,219.685845 C193.170074,219.759315 193.534852,219.726175 193.841867,219.586426 C194.148883,219.446677 194.335331,219.23017 194.40121,218.936906 C194.450387,218.717991 194.400633,218.532302 194.251947,218.379841 C194.103261,218.227379 193.938676,218.096831 193.758192,217.988197 C193.594633,217.891088 193.42777,217.786968 193.257604,217.675836 C193.087438,217.564704 193.018129,217.438919 193.049677,217.298483 C193.073801,217.19109 193.12899,217.119142 193.215243,217.082637 C193.301496,217.046133 193.415045,217.040126 193.555892,217.064615 C193.706129,217.090738 193.838202,217.170569 193.952113,217.304108 C194.066023,217.437648 194.127459,217.603908 194.136421,217.80289 C194.137404,217.820228 194.1534,217.835885 194.184408,217.84986 C194.215417,217.863836 194.247353,217.873681 194.280217,217.879395 C194.303692,217.883476 194.336542,217.883824 194.378769,217.880436 C194.420995,217.877049 194.4435,217.869159 194.446283,217.856768 C194.460091,217.751873 194.479929,217.62013 194.505798,217.46154 C194.531668,217.302949 194.554809,217.178218 194.575223,217.087347 C194.415596,217.059592 194.260364,217.00685 194.109524,216.929121 C193.958685,216.851392 193.770588,216.792935 193.545233,216.753751 C193.197812,216.693343 192.8579,216.724369 192.525498,216.846828 C192.193097,216.969288 191.998132,217.158563 191.940604,217.414652 C191.890498,217.637698 191.936745,217.828142 192.079345,217.985983 C192.221944,218.143824 192.385369,218.279535 192.56962,218.393116 C192.736019,218.499302 192.899838,218.606112 193.061078,218.713546 C193.222318,218.82098 193.287629,218.94285 193.257009,219.079156 C193.231028,219.19481 193.175403,219.279558 193.090134,219.333401 C193.004864,219.387243 192.891806,219.40192 192.75096,219.37743 C192.567859,219.345593 192.402184,219.247044 192.253934,219.081783 C192.105684,218.916522 192.006851,218.715862 191.957436,218.479804 C191.955525,218.466596 191.938123,218.451768 191.905231,218.435319 C191.872339,218.41887 191.839461,218.407789 191.806597,218.402075 C191.783122,218.397993 191.750272,218.397646 191.708046,218.401033 C191.66582,218.404421 191.645662,218.412718 191.647573,218.425926 C191.647795,218.511801 191.63807,218.652813 191.618399,218.848962 C191.598727,219.045111 191.584335,219.196041 191.575223,219.301752 C191.819357,219.344201 192.000657,219.405768 192.119124,219.486452 C192.237591,219.567135 192.447061,219.6336 192.747533,219.685845 Z M195.769523,219.691264 C196.198845,219.759031 196.567779,219.720998 196.876323,219.577163 C197.184868,219.433328 197.369927,219.214379 197.431501,218.920317 C197.477464,218.700806 197.423796,218.515841 197.270495,218.365424 C197.117194,218.215007 196.948173,218.086711 196.763433,217.980535 C196.596039,217.885655 196.425176,217.783809 196.250844,217.674997 C196.076511,217.566186 196.004088,217.441371 196.033574,217.300552 C196.056122,217.192867 196.110762,217.120198 196.197492,217.082545 C196.284223,217.044892 196.399142,217.03736 196.54225,217.059949 C196.694898,217.084044 196.830092,217.162076 196.947833,217.294044 C197.065573,217.426012 197.130734,217.591397 197.143314,217.790199 C197.144615,217.807519 197.161094,217.822956 197.192751,217.83651 C197.224409,217.850064 197.256933,217.859477 197.290325,217.864748 C197.314176,217.868513 197.347459,217.868418 197.390175,217.864464 C197.43289,217.86051 197.455548,217.85232 197.45815,217.839895 C197.47029,217.734846 197.488068,217.602876 197.511482,217.443984 C197.534897,217.285093 197.556143,217.160088 197.575223,217.06897 C197.413034,217.043369 197.254857,216.99273 197.10069,216.917052 C196.946523,216.841374 196.754954,216.785463 196.525982,216.749321 C196.172983,216.693601 195.829202,216.729187 195.494637,216.856079 C195.160073,216.982971 194.965907,217.17481 194.912138,217.431597 C194.865307,217.65525 194.915507,217.845015 195.062737,218.000892 C195.209966,218.156769 195.377903,218.290242 195.566546,218.401313 C195.736976,218.505229 195.904803,218.609805 196.070029,218.71504 C196.235254,218.820275 196.303558,218.94123 196.274939,219.077907 C196.250656,219.193875 196.1958,219.279346 196.110371,219.334319 C196.024941,219.389292 195.910673,219.405484 195.767565,219.382895 C195.581526,219.353529 195.411964,219.257237 195.258879,219.094018 C195.105795,218.930799 195.002147,218.731528 194.947935,218.496204 C194.945767,218.483026 194.927878,218.468436 194.894269,218.452435 C194.860661,218.436433 194.82716,218.425797 194.793769,218.420526 C194.769917,218.416762 194.736634,218.416856 194.693919,218.42081 C194.651204,218.424764 194.63093,218.43333 194.633099,218.446509 C194.634835,218.532355 194.627466,218.673455 194.610991,218.86981 C194.594515,219.066165 194.582593,219.217244 194.575223,219.323046 C194.823276,219.3622 195.008015,219.421311 195.12944,219.500378 C195.250866,219.579446 195.464227,219.643074 195.769523,219.691264 Z M202.48529,221.282089 C202.532384,221.28933 202.576069,221.288642 202.616345,221.280024 C202.656621,221.271406 202.679482,221.262578 202.684926,221.253541 L202.684926,221.253541 L204.586699,217.339593 L204.325542,220.498651 C204.315129,220.694532 204.260516,220.831778 204.161702,220.910388 C204.062889,220.988998 203.896142,221.025071 203.661462,221.018608 C203.648037,221.021481 203.633647,221.041485 203.618292,221.07862 C203.602938,221.115756 203.593807,221.146443 203.5909,221.170681 C203.58683,221.204615 203.589037,221.240748 203.59752,221.27908 C203.606004,221.317412 203.616667,221.337566 203.629511,221.339541 C203.839296,221.371799 204.048737,221.397832 204.257834,221.417641 C204.466932,221.437451 204.669951,221.462497 204.866891,221.49278 C205.063832,221.523062 205.270749,221.56105 205.487643,221.606744 C205.704537,221.652437 205.917876,221.691413 206.12766,221.72367 C206.140504,221.725645 206.153533,221.7079 206.166747,221.670436 C206.179961,221.632971 206.188312,221.599696 206.191801,221.57061 C206.194708,221.546372 206.19328,221.512827 206.187519,221.469976 C206.181758,221.427125 206.172455,221.404712 206.159611,221.402737 C205.906221,221.334152 205.745447,221.247717 205.677289,221.143433 C205.609131,221.039149 205.582399,220.889395 205.597093,220.694172 L205.597093,220.694172 L205.84509,217.481251 C205.859783,217.286028 205.914396,217.148783 206.008929,217.069514 C206.103461,216.990246 206.270208,216.954173 206.509169,216.961294 C206.522013,216.963269 206.535187,216.944312 206.548692,216.904424 C206.562196,216.864535 206.570402,216.832472 206.573309,216.808234 C206.576798,216.779148 206.575516,216.744391 206.569464,216.703964 C206.563412,216.663537 206.553964,216.642336 206.54112,216.640361 C206.41268,216.620612 206.259967,216.603301 206.082979,216.588429 L205.9797,216.579213 C205.845877,216.566535 205.72759,216.552296 205.624839,216.536497 C205.513524,216.51938 205.371897,216.491432 205.199958,216.452651 C205.028018,216.41387 204.860703,216.381971 204.698013,216.356955 L204.698013,216.356955 L203.179971,219.470859 L202.405367,216.004425 C202.268365,215.983359 202.099596,215.963579 201.899061,215.945087 C201.698527,215.926594 201.538321,215.908131 201.418444,215.889698 C201.324255,215.875215 201.18798,215.848089 201.009618,215.808321 C200.831256,215.768552 200.688558,215.740439 200.581526,215.723981 C200.568682,215.722006 200.552587,215.738045 200.533242,215.772099 C200.513897,215.806152 200.502189,215.840145 200.498119,215.874079 C200.495212,215.898317 200.495714,215.930485 200.499626,215.970583 C200.503537,216.010681 200.511624,216.034141 200.523887,216.040964 C200.768133,216.11308 200.930123,216.198468 201.009856,216.297126 C201.089589,216.395785 201.110824,216.545928 201.073561,216.747555 L201.073561,216.747555 L200.427402,219.899251 C200.385857,220.10022 200.311833,220.235715 200.205329,220.305737 C200.098824,220.375759 199.917238,220.408316 199.660571,220.403409 C199.647145,220.406282 199.630906,220.423533 199.611851,220.455162 C199.592797,220.486792 199.581234,220.519573 199.577165,220.553507 C199.574257,220.577745 199.574614,220.611125 199.578235,220.653647 C199.581856,220.696169 199.590088,220.718417 199.602932,220.720392 C199.748497,220.742775 199.888366,220.758111 200.022541,220.766399 C200.156715,220.774688 200.300866,220.790682 200.454993,220.814382 C200.604839,220.837423 200.746467,220.865371 200.879875,220.898228 C201.013283,220.931084 201.161332,220.96002 201.324022,220.985036 C201.336866,220.987011 201.35189,220.970807 201.369094,220.936425 C201.386299,220.902042 201.396936,220.867884 201.401006,220.833951 C201.403913,220.809712 201.404626,220.776497 201.403146,220.734304 C201.401666,220.692112 201.394505,220.670028 201.381661,220.668053 C201.136833,220.600785 200.975913,220.515562 200.898902,220.412385 C200.821891,220.309207 200.801727,220.159229 200.838408,219.96245 L200.838408,219.96245 L201.356524,217.005827 L202.299607,221.194292 C202.307007,221.205304 202.324819,221.220386 202.353044,221.239537 C202.381269,221.258688 202.425351,221.272872 202.48529,221.282089 Z M208.010632,221.713206 C208.349435,221.746309 208.626875,221.70197 208.842951,221.580189 C209.059027,221.458408 209.225923,221.32762 209.343638,221.187823 C209.352703,221.180303 209.358669,221.17248 209.361536,221.164355 C209.364403,221.15623 209.366237,221.148003 209.367038,221.139676 C209.369041,221.118858 209.363914,221.096293 209.351656,221.07198 C209.339398,221.047667 209.323942,221.024093 209.305286,221.001256 C209.289961,220.987151 209.27267,220.971803 209.253413,220.955212 C209.234157,220.93862 209.222062,220.934287 209.217129,220.94221 C209.123678,221.046553 208.980383,221.127114 208.787243,221.183892 C208.594104,221.24067 208.423163,221.261793 208.27442,221.24726 C208.059569,221.226268 207.901943,221.141521 207.80154,220.993021 C207.701137,220.844521 207.667761,220.5954 207.701413,220.245658 L207.701413,220.245658 L207.714332,220.111382 C207.718939,220.063501 207.724711,220.02519 207.731647,219.996448 L207.731647,219.996448 L209.442188,220.163579 C209.479374,220.167212 209.509097,220.161711 209.531358,220.147075 C209.553619,220.132439 209.566152,220.110549 209.568956,220.081404 C209.601806,219.739989 209.505496,219.44059 209.280026,219.183207 C209.054555,218.925824 208.72697,218.77614 208.297268,218.734156 C207.82625,218.688134 207.433241,218.79578 207.118243,219.057092 C206.803244,219.318405 206.624513,219.669732 206.582048,220.111073 C206.544391,220.50245 206.66255,220.856518 206.936525,221.173276 C207.2105,221.490034 207.568536,221.67001 208.010632,221.713206 Z M208.575223,219.670909 C208.627177,219.373911 208.702571,219.13764 208.801404,218.962096 C208.900237,218.786552 209.035021,218.708003 209.205756,218.72645 C209.345448,218.741543 209.444949,218.813397 209.504261,218.942014 C209.563572,219.070631 209.585703,219.221418 209.570654,219.394375 C209.557611,219.544272 209.52334,219.638045 209.46784,219.675694 C209.41234,219.713344 209.327427,219.728902 209.213102,219.72237 L209.213102,219.72237 L208.575223,219.670909 Z M210.701292,223.7234 L210.710188,223.723216 C210.956349,223.595243 211.15692,223.426826 211.311901,223.217966 C211.466881,223.009105 211.553741,222.761803 211.572481,222.476058 C211.585796,222.273029 211.550611,222.100188 211.466927,221.957534 C211.383243,221.814879 211.264266,221.737468 211.109998,221.725299 C210.97287,221.714481 210.856837,221.762962 210.761897,221.87074 C210.666958,221.978518 210.614926,222.101963 210.605803,222.241075 C210.594954,222.406506 210.624712,222.530734 210.695077,222.61376 C210.765443,222.696785 210.850334,222.742219 210.949752,222.750061 C210.966892,222.751413 210.981647,222.749743 210.994016,222.745049 C211.006384,222.740356 211.017711,222.738415 211.027995,222.739226 C211.041708,222.740308 211.050519,222.750451 211.054429,222.769656 C211.058338,222.788861 211.058813,222.821022 211.055854,222.866139 C211.043526,223.054129 210.992407,223.189929 210.902499,223.273538 C210.81259,223.357148 210.706521,223.437593 210.584291,223.514874 C210.573514,223.521582 210.572342,223.539441 210.580778,223.568451 C210.589213,223.597461 210.599671,223.621906 210.61215,223.641787 C210.62463,223.661667 210.641457,223.680946 210.662631,223.699623 C210.683804,223.7183 210.699657,223.726164 210.710188,223.723216 L210.701292,223.7234 Z M216.373247,222.723819 C216.387366,222.724244 216.400848,222.706958 216.413695,222.671953 C216.426541,222.636948 216.433468,222.602942 216.434476,222.569934 C216.435196,222.546357 216.430285,222.514348 216.419743,222.473906 C216.409201,222.433465 216.39687,222.413027 216.382751,222.412595 C216.115348,222.376079 215.938304,222.311654 215.851618,222.21932 C215.764932,222.126986 215.724468,221.986511 215.730229,221.797895 L215.730229,221.797895 L215.825053,218.692807 C215.830813,218.504191 215.879772,218.366458 215.97193,218.279607 C216.064088,218.192755 216.244733,218.139295 216.513863,218.119227 C216.527982,218.119659 216.541537,218.100016 216.554527,218.060296 C216.567517,218.020575 216.574372,217.988927 216.575092,217.96535 C216.5761,217.932342 216.571261,217.897975 216.560575,217.862249 C216.549889,217.826523 216.537486,217.808443 216.523367,217.80801 C216.292752,217.800941 216.06078,217.79973 215.827452,217.804377 C215.594124,217.809023 215.369212,217.808029 215.152716,217.801392 C214.936221,217.794755 214.710492,217.781936 214.475531,217.762934 C214.240569,217.743931 214.007781,217.730896 213.777166,217.723819 C213.763047,217.723393 213.749528,217.741858 213.73661,217.779221 C213.723692,217.816583 213.716801,217.84941 213.715937,217.877703 C213.715217,217.90128 213.720164,217.93211 213.730778,217.970194 C213.741392,218.008278 213.753687,218.029894 213.767662,218.035042 C214.044333,218.076562 214.224907,218.141095 214.309384,218.228641 C214.393861,218.316188 214.433148,218.456626 214.427244,218.649958 L214.427244,218.649958 L214.332419,221.755046 C214.326515,221.948377 214.278733,222.086147 214.189072,222.168355 C214.099411,222.250563 213.915237,222.303915 213.636549,222.32841 C213.622286,222.332693 213.608695,222.353515 213.595777,222.390878 C213.582859,222.42824 213.57604,222.45871 213.57532,222.482287 C213.574456,222.510579 213.579331,222.543767 213.589945,222.581851 C213.600559,222.619935 213.612926,222.639193 213.627045,222.639626 C213.85766,222.646696 214.090809,222.647943 214.32649,222.643368 C214.562171,222.638794 214.78826,222.639825 215.004756,222.646461 C215.221251,222.653098 215.445803,222.665881 215.678412,222.684811 C215.91102,222.703741 216.142631,222.716741 216.373247,222.723819 Z M217.76907,220.723597 L217.77812,220.722313 C218.020529,220.505171 218.213864,220.233435 218.358124,219.907104 C218.502383,219.580774 218.574749,219.20537 218.575223,218.780893 C218.575556,218.479291 218.528455,218.227823 218.433917,218.026489 C218.339379,217.825154 218.213142,217.724264 218.055207,217.723819 C217.91482,217.723425 217.799783,217.808276 217.710097,217.978373 C217.620411,218.148471 217.575454,218.336846 217.575223,218.543499 C217.574951,218.789249 217.613357,218.969481 217.690443,219.084195 C217.767528,219.19891 217.856962,219.25641 217.958742,219.256696 C217.976291,219.256746 217.991211,219.252599 218.003504,219.244256 C218.015798,219.235912 218.027209,219.231756 218.037738,219.231785 C218.051776,219.231825 218.061413,219.245815 218.066646,219.273756 C218.07188,219.301697 218.074459,219.349178 218.074385,219.416201 C218.074074,219.695462 218.030851,219.901994 217.944715,220.035798 C217.858579,220.169601 217.755775,220.300565 217.636304,220.428689 C217.625762,220.43983 217.625733,220.46636 217.636215,220.508278 C217.646698,220.550197 217.658943,220.585139 217.67295,220.613105 C217.686958,220.641071 217.705354,220.667652 217.728139,220.69285 C217.750924,220.718048 217.767584,220.727869 217.77812,220.722313 L217.76907,220.723597 Z M224.530725,222.488204 C224.543218,222.487704 224.553988,222.470972 224.563034,222.438007 C224.57208,222.405042 224.57609,222.376355 224.575066,222.351944 C224.574213,222.331601 224.567855,222.304348 224.555994,222.270182 C224.544132,222.236017 224.531954,222.219185 224.519461,222.219685 C224.335542,222.210747 224.217273,222.175748 224.164654,222.114688 C224.112035,222.053627 224.081544,221.923419 224.073182,221.724064 L224.073182,221.724064 L224.026588,220.613369 C224.016518,220.373329 223.922144,220.162134 223.743465,219.979786 C223.564786,219.797438 223.31928,219.712517 223.006946,219.725022 C222.794558,219.733526 222.598795,219.790268 222.419655,219.895248 C222.240515,220.000228 222.093001,220.163034 221.977113,220.383665 C221.906624,220.194948 221.773294,220.0495 221.577121,219.947321 C221.380947,219.845142 221.170421,219.798554 220.94554,219.807558 C220.770633,219.814561 220.597646,219.867335 220.426579,219.965878 C220.255512,220.064422 220.116369,220.227912 220.009152,220.456347 L220.009152,220.456347 L220.015808,219.869235 C220.014955,219.848893 220.002735,219.831043 219.979147,219.815686 C219.95556,219.800329 219.91878,219.793651 219.868806,219.795652 C219.847984,219.796486 219.823253,219.803589 219.794614,219.816962 C219.765975,219.830334 219.745579,219.841339 219.733427,219.849976 C219.602725,219.916339 219.418482,219.999109 219.180698,220.098287 C218.942915,220.197464 218.755992,220.266078 218.61993,220.304128 C218.607437,220.304628 218.596667,220.321361 218.587622,220.354326 C218.578576,220.38729 218.57448,220.413944 218.575333,220.434286 C218.576186,220.454629 218.582459,220.479848 218.59415,220.509945 C218.605841,220.540042 218.618019,220.556874 218.630683,220.560442 C218.781286,220.570714 218.877392,220.599468 218.919003,220.646706 C218.960613,220.693944 218.984832,220.798932 218.991659,220.961671 L218.991659,220.961671 L219.032108,221.925901 C219.040642,222.129325 219.0222,222.261492 218.976784,222.322403 C218.931367,222.383313 218.817468,222.427608 218.635085,222.455287 C218.622762,222.459855 218.612078,222.478622 218.603032,222.511587 C218.593986,222.544551 218.58989,222.571205 218.590744,222.591547 C218.591938,222.620027 218.598381,222.649315 218.610072,222.679412 C218.621764,222.709508 218.633856,222.724307 218.646349,222.723819 C218.771283,222.718804 218.918908,222.707799 219.089224,222.690792 C219.25954,222.673784 219.415494,222.662446 219.557085,222.656777 C219.702841,222.650941 219.847769,222.650233 219.99187,222.654651 C220.13597,222.65907 220.272569,222.658695 220.401667,222.653526 C220.414161,222.653026 220.42493,222.636293 220.433976,222.603329 C220.443022,222.570364 220.447033,222.541676 220.446009,222.517265 C220.445155,222.496923 220.438798,222.469669 220.426936,222.435504 C220.415074,222.401339 220.402896,222.384506 220.390403,222.385006 C220.273286,222.37747 220.196619,222.339786 220.160402,222.271956 C220.124185,222.204126 220.102066,222.074601 220.094044,221.883383 L220.094044,221.883383 L220.050779,220.852023 C220.114748,220.686449 220.181379,220.559484 220.250673,220.471128 C220.319967,220.382772 220.419163,220.33601 220.548261,220.330841 C220.689852,220.325172 220.795884,220.366774 220.866355,220.455647 C220.936827,220.54452 220.976158,220.6866 220.984351,220.881887 L220.984351,220.881887 L221.0248,221.846117 C221.033163,222.045472 221.02305,222.177306 220.994462,222.241618 C220.965874,222.30593 220.891537,222.34864 220.771451,222.36975 C220.759128,222.374318 220.748444,222.393085 220.739398,222.42605 C220.730352,222.459014 220.726256,222.485668 220.727109,222.50601 C220.728133,222.530421 220.734534,222.558692 220.74631,222.590823 C220.758087,222.622954 220.770222,222.63877 220.782715,222.638269 C220.907649,222.633267 221.051109,222.622429 221.213096,222.605755 C221.375083,222.589081 221.528955,222.577826 221.674711,222.57199 C221.820467,222.566154 221.943531,222.566321 222.043905,222.572491 C222.144279,222.57866 222.259015,222.57916 222.388113,222.573992 C222.400606,222.573491 222.411418,222.557776 222.420549,222.526846 C222.42968,222.495915 222.433649,222.46621 222.432454,222.437731 C222.431601,222.417388 222.425243,222.390135 222.413381,222.355969 C222.401519,222.321804 222.389342,222.304972 222.376848,222.305472 C222.259732,222.297935 222.184106,222.26021 222.149971,222.192296 C222.115836,222.124383 222.094758,221.994817 222.086736,221.803598 L222.086736,221.803598 L222.040655,220.705109 C222.121793,220.551073 222.19631,220.438056 222.264204,220.366058 C222.332099,220.294059 222.441006,220.255058 222.590926,220.249056 C222.728353,220.243553 222.823974,220.285572 222.877787,220.375112 C222.931601,220.464652 222.962604,220.607065 222.970796,220.802352 L222.970796,220.802352 L223.011245,221.766582 C223.019608,221.965938 223.010537,222.09773 222.984031,222.161958 C222.957525,222.226187 222.884229,222.268856 222.764143,222.289965 C222.75182,222.294534 222.741136,222.313301 222.73209,222.346265 C222.723044,222.37923 222.718948,222.405884 222.719801,222.426226 C222.720996,222.454705 222.727439,222.483993 222.73913,222.51409 C222.750821,222.544187 222.762914,222.558985 222.775407,222.558485 C222.900341,222.553483 223.034431,222.54302 223.177678,222.527096 C223.320925,222.511172 223.465427,222.500293 223.611183,222.494457 C223.756939,222.488621 223.91436,222.487412 224.083447,222.49083 C224.252534,222.494249 224.401627,222.493373 224.530725,222.488204 Z M228.12184,221.711117 C228.571534,221.664346 228.934247,221.488235 229.209978,221.182784 C229.485709,220.877333 229.605324,220.484043 229.568821,220.002914 C229.543339,219.667031 229.421453,219.399503 229.203164,219.20033 C228.984876,219.001157 228.755343,218.834032 228.514567,218.698957 C228.257595,218.556417 228.025111,218.414761 227.817114,218.27399 C227.609117,218.133218 227.49651,217.949358 227.479292,217.722411 C227.466206,217.54993 227.507693,217.40151 227.603754,217.27715 C227.699815,217.15279 227.838948,217.081135 228.021151,217.062185 C228.230492,217.040412 228.414542,217.123059 228.573303,217.310124 C228.732064,217.497189 228.861703,217.763911 228.962221,218.110289 C228.971351,218.127638 228.989829,218.139441 229.017655,218.145696 C229.04548,218.151952 229.072961,218.153668 229.100098,218.150846 C229.119481,218.14883 229.145219,218.140435 229.177309,218.12566 C229.2094,218.110886 229.224929,218.09669 229.223896,218.083073 C229.196337,217.925823 229.168413,217.72515 229.140126,217.481054 C229.111839,217.236958 229.089558,217.033411 229.073284,216.870412 C228.891858,216.848108 228.721287,216.814382 228.561571,216.769234 C228.401856,216.724086 228.215389,216.7126 228.002172,216.734775 C227.525342,216.784368 227.161207,216.967489 226.909769,217.284138 C226.65833,217.600786 226.548624,217.970172 226.58065,218.392295 C226.604755,218.710022 226.725866,218.967337 226.943983,219.164241 C227.162099,219.361145 227.395422,219.526731 227.643952,219.661 C227.888605,219.795671 228.118096,219.936495 228.332424,220.08347 C228.546752,220.230446 228.663214,220.426485 228.68181,220.671589 C228.696962,220.871303 228.659501,221.034172 228.569427,221.160197 C228.479353,221.286222 228.321893,221.360927 228.097046,221.384312 C227.876076,221.407294 227.638335,221.299352 227.383823,221.060486 C227.129311,220.821619 226.949903,220.504033 226.845598,220.107727 C226.840343,220.089974 226.824773,220.077869 226.798886,220.071412 C226.772999,220.064955 226.746487,220.063138 226.71935,220.06596 C226.69609,220.068379 226.668415,220.076976 226.636324,220.09175 C226.604233,220.106525 226.588704,220.120721 226.589737,220.134338 C226.617208,220.34192 226.641274,220.58188 226.661936,220.854217 C226.682598,221.126554 226.701066,221.344223 226.717339,221.507222 C226.973455,221.535482 227.202757,221.583686 227.405244,221.651834 C227.607731,221.719983 227.846596,221.739743 228.12184,221.711117 Z M234.539352,223.494602 C234.551778,223.493138 234.561348,223.474028 234.568062,223.437272 C234.574777,223.400515 234.576769,223.368811 234.574039,223.342159 C234.571309,223.315506 234.562946,223.285022 234.548951,223.250706 C234.534956,223.216389 234.521746,223.199963 234.50932,223.201427 C234.324801,223.200689 234.204278,223.169933 234.14775,223.109158 C234.091222,223.048384 234.051582,222.906945 234.02883,222.684842 L234.02883,222.684842 L233.696428,219.439924 C233.680502,219.284452 233.670071,219.151935 233.665135,219.042373 C233.6602,218.932811 233.655935,218.840028 233.652342,218.764025 C233.650976,218.750699 233.636264,218.74007 233.608204,218.732136 C233.580144,218.724203 233.551618,218.721945 233.522624,218.725361 C233.506057,218.727313 233.481547,218.733573 233.449094,218.74414 C233.416641,218.754707 233.399027,218.766898 233.39625,218.780712 C233.385598,218.84041 233.351255,218.893909 233.293222,218.941208 C233.235189,218.988506 233.175108,219.015816 233.11298,219.023136 C232.955588,219.04168 232.812045,219.021504 232.682351,218.962606 C232.552657,218.903708 232.361482,218.889144 232.108827,218.918912 C231.640793,218.974057 231.25772,219.173169 230.959609,219.516246 C230.661498,219.859323 230.536787,220.268511 230.585476,220.743811 C230.630524,221.183574 230.790478,221.537868 231.065337,221.806693 C231.340196,222.075518 231.688862,222.185042 232.111335,222.135265 C232.293579,222.113792 232.445942,222.066619 232.568425,221.993744 C232.690909,221.920869 232.787199,221.817362 232.857296,221.683225 L232.857296,221.683225 L232.972647,222.809285 C232.996309,223.040272 232.981182,223.189287 232.927268,223.256331 C232.873353,223.323374 232.752497,223.381447 232.5647,223.430547 C232.552275,223.432011 232.542591,223.450011 232.535649,223.484547 C232.528707,223.519082 232.526829,223.551897 232.530014,223.582991 C232.533199,223.614086 232.541675,223.64568 232.555443,223.677776 C232.56921,223.709871 232.582307,223.725187 232.594733,223.723723 C232.71899,223.709083 232.879841,223.683387 233.077287,223.646636 C233.274733,223.609886 233.443868,223.583214 233.584692,223.566622 C233.729658,223.549542 233.89291,223.537051 234.074448,223.529148 C234.255985,223.521246 234.410953,223.509731 234.539352,223.494602 Z M232.160741,220.721255 C232.018226,220.737335 231.898131,220.67777 231.800454,220.542559 C231.702778,220.407349 231.636477,220.176493 231.60155,219.84999 C231.554579,219.410901 231.570459,219.118547 231.649189,218.972929 C231.72792,218.82731 231.845851,218.745637 232.002983,218.727908 C232.134535,218.713065 232.2362,218.738627 232.307977,218.804593 C232.379754,218.87056 232.420862,218.952331 232.4313,219.049906 L232.4313,219.049906 L232.575223,220.395322 C232.531249,220.502835 232.477668,220.581046 232.414481,220.629956 C232.351294,220.678865 232.266714,220.709298 232.160741,220.721255 Z M236.349079,221.535995 C236.376608,221.531394 236.403517,221.520282 236.429805,221.502659 C236.456094,221.485036 236.475137,221.475239 236.486935,221.473267 C236.607821,221.400146 236.783516,221.315219 237.014022,221.218485 C237.244528,221.121751 237.419995,221.055383 237.540421,221.019381 C237.552219,221.017409 237.561546,220.999975 237.5684,220.96708 C237.575223,220.934185 237.576944,220.899507 237.57347,220.863046 C237.570988,220.837003 237.562722,220.802666 237.548672,220.760036 C237.534621,220.717405 237.521697,220.697076 237.509899,220.699048 C237.347167,220.710372 237.240086,220.687259 237.188656,220.62971 C237.137225,220.57216 237.10084,220.4314 237.079499,220.207427 L237.079499,220.207427 L236.852443,217.824464 C236.850954,217.808838 236.835692,217.784931 236.806655,217.752743 C236.777618,217.720555 236.746146,217.715232 236.71224,217.736774 C236.567262,217.808629 236.35075,217.884504 236.062704,217.964397 C235.774658,218.04429 235.565745,218.095082 235.435964,218.116773 C235.424165,218.118745 235.415335,218.141387 235.409474,218.1847 C235.403612,218.228012 235.402419,218.267899 235.405893,218.304359 C235.408871,218.335611 235.417136,218.369948 235.430691,218.40737 C235.444245,218.444792 235.456921,218.462516 235.468719,218.460545 C235.629466,218.428386 235.744164,218.44758 235.812815,218.518126 C235.881465,218.588672 235.92646,218.735931 235.947801,218.959904 L235.947801,218.959904 L236.08999,220.452185 C236.057686,220.616333 236.008887,220.754133 235.943595,220.865587 C235.878302,220.97704 235.798463,221.040655 235.704076,221.05643 C235.570363,221.078779 235.466222,221.044591 235.391654,220.953868 C235.317085,220.863145 235.270123,220.716214 235.250768,220.513076 L235.250768,220.513076 L235.022223,218.114488 C235.020735,218.098862 235.004488,218.075119 234.973485,218.043259 C234.942482,218.0114 234.910027,218.006241 234.876121,218.027783 C234.731143,218.099639 234.516846,218.177789 234.233229,218.262233 C233.949612,218.346677 233.740946,218.400074 233.607233,218.422422 C233.595434,218.424394 233.586604,218.447036 233.580743,218.490349 C233.574881,218.533661 233.573688,218.573548 233.577162,218.610009 C233.580636,218.646469 233.589026,218.682108 233.602332,218.716926 C233.615638,218.751743 233.62819,218.768166 233.639988,218.766194 C233.796802,218.734693 233.909286,218.751611 233.97744,218.816948 C234.045594,218.882285 234.090838,219.032149 234.113171,219.266539 L234.113171,219.266539 L234.233027,220.524431 C234.273723,220.951541 234.387826,221.268487 234.575335,221.47527 C234.762844,221.682053 235.009976,221.759809 235.31673,221.708539 C235.529099,221.673044 235.704919,221.589419 235.844189,221.457664 C235.98346,221.325908 236.088148,221.145694 236.158253,220.917021 L236.158253,220.917021 L236.23986,221.459001 C236.241349,221.474627 236.252059,221.49268 236.271989,221.513161 C236.29192,221.533642 236.317616,221.541254 236.349079,221.535995 Z M241.565831,220.434454 C241.77244,220.403516 241.969341,220.336243 242.156534,220.232634 C242.343726,220.129024 242.476529,220.011964 242.554943,219.881455 C242.568333,219.868653 242.574343,219.856955 242.572975,219.846363 C242.571607,219.835771 242.572356,219.822163 242.575223,219.805538 C242.568381,219.752577 242.538001,219.70179 242.484084,219.653179 C242.430167,219.604567 242.394396,219.589679 242.376772,219.608514 C242.350677,219.639414 242.318979,219.665755 242.281677,219.687536 C242.244375,219.709317 242.203588,219.723522 242.159314,219.730151 C242.105202,219.738254 242.045039,219.71892 241.978823,219.672151 C241.912608,219.625381 241.872446,219.508577 241.858338,219.32174 L241.858338,219.32174 L241.716659,217.933932 C241.677366,217.51333 241.559585,217.193556 241.363317,216.974611 C241.167048,216.755666 240.842627,216.680078 240.390054,216.747845 C239.893207,216.822241 239.458691,217.000674 239.086506,217.283144 C238.71432,217.565613 238.545333,217.839251 238.579542,218.104056 C238.600068,218.262939 238.665649,218.392132 238.776285,218.491635 C238.886921,218.591137 239.033245,218.627262 239.215258,218.600007 C239.416949,218.569807 239.561236,218.483419 239.64812,218.340844 C239.735005,218.198268 239.769535,217.96096 239.751712,217.628918 C239.744446,217.495043 239.781119,217.400475 239.861733,217.345216 C239.942347,217.289956 240.034306,217.254592 240.137611,217.239124 C240.240916,217.223655 240.318126,217.239087 240.369242,217.285418 C240.420357,217.33175 240.45652,217.437005 240.477729,217.601185 L240.477729,217.601185 L240.556169,218.383027 C239.826782,218.675795 239.314869,218.944096 239.020431,219.187931 C238.725993,219.431766 238.598958,219.709918 238.639325,220.022389 C238.675587,220.303082 238.799768,220.497731 239.011869,220.606334 C239.223969,220.714937 239.470219,220.748245 239.750617,220.706259 C240.00642,220.667956 240.215994,220.592037 240.379339,220.478502 C240.542684,220.364967 240.668955,220.207046 240.758152,220.004741 C240.818716,220.163027 240.918047,220.281768 241.056146,220.360963 C241.194245,220.440157 241.36414,220.464654 241.565831,220.434454 Z M240.127201,219.719861 C239.980017,219.732873 239.858632,219.713802 239.763046,219.662649 C239.667461,219.611497 239.609006,219.537193 239.587682,219.43974 C239.549299,219.264324 239.599597,219.12279 239.738576,219.015138 C239.877555,218.907487 240.121988,218.81038 240.471874,218.723819 L240.471874,218.723819 L240.574779,219.322673 C240.580102,219.461277 240.5375,219.559414 240.446972,219.617087 C240.356445,219.674759 240.249855,219.709017 240.127201,219.719861 Z M248.540111,219.720109 C248.554102,219.717978 248.564074,219.69745 248.570027,219.658522 C248.57598,219.619595 248.576817,219.5862 248.572538,219.558336 C248.568972,219.535116 248.558328,219.504658 248.540607,219.466959 C248.522886,219.429261 248.50703,219.411478 248.493039,219.413608 C248.284987,219.426281 248.147452,219.400888 248.080434,219.33743 C248.013416,219.273971 247.962433,219.128465 247.927486,218.900911 L247.927486,218.900911 L247.73278,217.633112 C247.6907,217.359119 247.557475,217.12871 247.333102,216.941885 C247.10873,216.755059 246.821658,216.688279 246.471887,216.741544 C246.234043,216.777765 246.02108,216.867227 245.832998,217.00993 C245.644916,217.152634 245.499821,217.357704 245.397712,217.625139 C245.294237,217.417527 245.125608,217.267362 244.891825,217.174644 C244.658043,217.081927 244.415234,217.054744 244.163398,217.093095 C243.967527,217.122923 243.779679,217.204996 243.599854,217.339313 C243.420029,217.473631 243.28444,217.678441 243.193085,217.953744 L243.193085,217.953744 L243.12536,217.279688 C243.121794,217.256469 243.10576,217.237524 243.077257,217.222854 C243.048754,217.208185 243.006521,217.205111 242.950558,217.213633 C242.92724,217.217184 242.900328,217.228412 242.869822,217.247315 C242.839317,217.266218 242.817782,217.281379 242.805217,217.292797 C242.66668,217.385183 242.470011,217.503055 242.215212,217.646414 C241.960413,217.789773 241.758917,217.891746 241.610724,217.952335 C241.596733,217.954465 241.586761,217.974994 241.580807,218.013921 C241.574854,218.052848 241.57366,218.083922 241.577226,218.107141 C241.580792,218.130361 241.59108,218.158498 241.608088,218.191552 C241.625096,218.224606 241.640952,218.24239 241.655656,218.244903 C241.826399,218.237912 241.938202,218.258906 241.991064,218.307887 C242.043927,218.356867 242.084623,218.474237 242.113151,218.659995 L242.113151,218.659995 L242.282182,219.760611 C242.317842,219.992809 242.314028,220.14666 242.270738,220.222164 C242.227448,220.297669 242.104986,220.362656 241.903353,220.417124 C241.890076,220.423899 241.88046,220.44675 241.874507,220.485677 C241.868553,220.524604 241.86736,220.555677 241.870926,220.578897 C241.875918,220.611405 241.886919,220.644186 241.903927,220.67724 C241.920935,220.710294 241.936434,220.725756 241.950425,220.723625 C242.090333,220.702319 242.255,220.671302 242.444425,220.630574 C242.63385,220.589846 242.807844,220.557408 242.966407,220.533261 C243.129634,220.508404 243.292586,220.489529 243.455264,220.476637 C243.617941,220.463745 243.771566,220.446291 243.916138,220.424275 C243.930129,220.422144 243.940101,220.401615 243.946054,220.362688 C243.952008,220.323761 243.952845,220.290366 243.948566,220.262502 C243.944999,220.239282 243.934356,220.208823 243.916634,220.171125 C243.898913,220.133427 243.883057,220.115643 243.869066,220.117774 C243.736345,220.123728 243.645268,220.090072 243.595835,220.016806 C243.546401,219.943541 243.504924,219.797775 243.471403,219.57951 L243.471403,219.57951 L243.290605,218.402268 C243.341358,218.204436 243.400052,218.050545 243.466688,217.940593 C243.533324,217.830642 243.638928,217.764658 243.7835,217.742642 C243.942063,217.718495 244.066677,217.752984 244.157342,217.84611 C244.248007,217.939236 244.310456,218.097253 244.34469,218.320163 L244.34469,218.320163 L244.513721,219.420779 C244.548668,219.648333 244.554181,219.800764 244.530258,219.878071 C244.506336,219.955379 244.428179,220.013619 244.295787,220.05279 C244.282509,220.059565 244.272894,220.082416 244.26694,220.121343 C244.260987,220.16027 244.259793,220.191344 244.263359,220.214563 C244.267639,220.242427 244.278461,220.274047 244.295825,220.309423 C244.31319,220.344799 244.328868,220.361422 244.342859,220.359291 C244.482767,220.337985 244.64277,220.307678 244.822868,220.26837 C245.002966,220.229063 245.174628,220.19698 245.337855,220.172123 C245.501081,220.147266 245.639549,220.13212 245.753259,220.126685 C245.866969,220.12125 245.99611,220.107524 246.140682,220.085508 C246.154673,220.083378 246.164823,220.06401 246.171133,220.027405 C246.177443,219.990799 246.178102,219.956243 246.173109,219.923735 C246.169543,219.900516 246.158899,219.870057 246.141178,219.832359 C246.123457,219.794661 246.107601,219.776877 246.09361,219.779007 C245.960889,219.784961 245.870978,219.751128 245.823876,219.677507 C245.776774,219.603887 245.736463,219.457943 245.702942,219.239678 L245.702942,219.239678 L245.510376,217.985811 C245.581923,217.79907 245.651275,217.66019 245.718432,217.569169 C245.785589,217.478149 245.903112,217.419855 246.071002,217.394287 C246.224902,217.370851 246.337856,217.407116 246.409867,217.503082 C246.481878,217.599049 246.535,217.758487 246.569234,217.981396 L246.569234,217.981396 L246.738265,219.082013 C246.773212,219.309566 246.77989,219.461819 246.7583,219.538772 C246.736709,219.615725 246.659718,219.673787 246.527326,219.712959 C246.514048,219.719733 246.504433,219.742584 246.498479,219.781511 C246.492526,219.820438 246.491332,219.851512 246.494898,219.874731 C246.499891,219.907239 246.510891,219.94002 246.527899,219.973074 C246.544907,220.006128 246.560407,220.02159 246.574398,220.019459 C246.714306,219.998153 246.863816,219.969444 247.022928,219.933332 C247.182039,219.897221 247.343208,219.866736 247.506435,219.841879 C247.669661,219.817022 247.846604,219.796017 248.037264,219.778863 C248.227923,219.76171 248.395539,219.742125 248.540111,219.720109 Z M250.295159,218.689081 C250.778551,218.601371 251.12412,218.390576 251.331867,218.056696 C251.539613,217.722817 251.614349,217.361607 251.556074,216.973068 C251.496573,216.576349 251.316301,216.253008 251.015259,216.003045 C250.714217,215.753082 250.327578,215.670944 249.855341,215.756631 C249.371949,215.844341 249.026371,216.06144 248.818606,216.407926 C248.610841,216.754413 248.536095,217.121926 248.59437,217.510465 C248.653257,217.903095 248.831526,218.219447 249.129175,218.459522 C249.426825,218.699598 249.815486,218.776118 250.295159,218.689081 Z M250.244179,218.713139 C250.062608,218.756882 249.928942,218.666247 249.843182,218.441236 C249.757421,218.216224 249.686056,217.851556 249.629086,217.347232 C249.573878,216.858506 249.56111,216.478387 249.590781,216.206874 C249.620452,215.935361 249.726073,215.777733 249.907645,215.73399 C250.089216,215.690247 250.222726,215.787595 250.308174,216.026034 C250.393623,216.264472 250.464539,216.633254 250.520921,217.132378 C250.577304,217.631503 250.589779,218.009023 250.558346,218.264938 C250.526912,218.520854 250.42219,218.670254 250.244179,218.713139 Z M255.099924,218.467182 C255.133454,218.461058 255.165947,218.448619 255.197403,218.429864 C255.228859,218.411109 255.251771,218.400419 255.266141,218.397795 C255.411125,218.319275 255.622753,218.225982 255.901025,218.117914 C256.179297,218.009847 256.391433,217.934674 256.537433,217.892396 C256.551803,217.889771 256.562487,217.872209 256.569485,217.839707 C256.576483,217.807206 256.57708,217.773272 256.571274,217.737906 C256.567126,217.712644 256.55554,217.679634 256.536515,217.638877 C256.517491,217.598119 256.500793,217.579052 256.486423,217.581677 C256.287548,217.602389 256.155384,217.586199 256.089932,217.533105 C256.02448,217.480012 255.973921,217.34484 255.938256,217.127589 L255.938256,217.127589 L255.558794,214.816142 C255.556306,214.800985 255.536591,214.778566 255.499651,214.748886 C255.46271,214.719207 255.423929,214.715882 255.383308,214.738913 C255.208756,214.817629 254.94674,214.904514 254.597262,214.999568 C254.247783,215.094622 253.99401,215.156584 253.835942,215.185455 C253.821572,215.188079 253.811718,215.210695 253.806378,215.253301 C253.801039,215.295906 253.801272,215.334893 253.807078,215.370259 C253.812055,215.400573 253.823641,215.433583 253.841836,215.469288 C253.860032,215.504994 253.876314,215.521534 253.890684,215.518909 C254.086242,215.477988 254.227571,215.489902 254.314671,215.554653 C254.401771,215.619404 254.463154,215.760405 254.498819,215.977656 L254.498819,215.977656 L254.736449,217.425153 C254.703853,217.587221 254.64993,217.724564 254.57468,217.837181 C254.499431,217.949798 254.404327,218.016605 254.289368,218.037602 C254.126511,218.067347 253.997478,218.040177 253.90227,217.956092 C253.807062,217.872006 253.743285,217.731443 253.710937,217.534401 L253.710937,217.534401 L253.328987,215.207797 C253.326499,215.19264 253.305587,215.17044 253.266251,215.141197 C253.226916,215.111955 253.186937,215.108849 253.146316,215.13188 C252.971764,215.210596 252.712558,215.29957 252.368699,215.398801 C252.024839,215.498033 251.771481,215.562521 251.608623,215.592267 C251.594254,215.594891 251.584399,215.617507 251.57906,215.660113 C251.57372,215.702718 251.573953,215.741705 251.579759,215.777071 C251.585565,215.812437 251.597359,215.84671 251.61514,215.87989 C251.63292,215.913069 251.648996,215.928346 251.663365,215.925722 C251.854133,215.885675 251.992653,215.8955 252.078923,215.955199 C252.165194,216.014898 252.226991,216.158425 252.264315,216.38578 L252.264315,216.38578 L252.464622,217.605921 C252.532634,218.020214 252.685892,218.322665 252.924393,218.513277 C253.162894,218.703888 253.468952,218.765074 253.842567,218.696834 C254.101223,218.649592 254.313059,218.557561 254.478073,218.420743 C254.643087,218.283925 254.763675,218.101882 254.839837,217.874614 L254.839837,217.874614 L254.962851,218.398549 C254.96534,218.413706 254.979227,218.430684 255.004515,218.449483 C255.029802,218.468281 255.061605,218.474181 255.099924,218.467182 Z M257.307185,217.684401 C257.737704,217.618642 258.068751,217.473666 258.300328,217.249473 C258.531904,217.02528 258.617168,216.768886 258.556117,216.480292 C258.510545,216.264863 258.385384,216.110894 258.180635,216.018384 C257.975886,215.925875 257.765319,215.858381 257.548932,215.815904 C257.3534,215.778633 257.151794,215.735996 256.944115,215.687992 C256.736436,215.639989 256.617978,215.546887 256.588743,215.408687 C256.566387,215.303005 256.588318,215.21993 256.654536,215.159464 C256.720754,215.098997 256.825617,215.057804 256.969123,215.035884 C257.122197,215.012503 257.280684,215.043893 257.444585,215.130054 C257.608486,215.216215 257.736522,215.348764 257.828695,215.527704 C257.836918,215.543232 257.858632,215.552503 257.893836,215.555518 C257.929041,215.558533 257.963385,215.557483 257.99687,215.552369 C258.020788,215.548716 258.052002,215.538703 258.090513,215.522331 C258.129023,215.505958 258.146988,215.491675 258.144409,215.479481 C258.113345,215.379325 258.076692,215.252748 258.034451,215.09975 C257.992209,214.946753 257.961629,214.825542 257.942712,214.736119 C257.780072,214.760961 257.611076,214.761597 257.435726,214.738028 C257.260375,214.714459 257.057895,214.72021 256.828285,214.755281 C256.474302,214.809349 256.165883,214.944575 255.903025,215.160958 C255.640168,215.377341 255.535395,215.611538 255.588706,215.86355 C255.635139,216.083044 255.758983,216.242459 255.960238,216.341796 C256.161493,216.441134 256.373135,216.513708 256.595165,216.55952 C256.797201,216.604189 256.99706,216.65024 257.194742,216.697672 C257.392424,216.745105 257.505453,216.835889 257.533828,216.970024 C257.557904,217.083836 257.540945,217.178739 257.482949,217.254734 C257.424954,217.330729 257.324203,217.379686 257.180697,217.401606 C256.994139,217.430101 256.795999,217.392179 256.586279,217.287841 C256.376559,217.183503 256.198685,217.031291 256.052658,216.831205 C256.045295,216.819741 256.0226,216.811669 255.984574,216.806987 C255.946548,216.802305 255.910792,216.802521 255.877308,216.807636 C255.85339,216.811289 255.822176,216.821302 255.783665,216.837674 C255.745155,216.854046 255.729581,216.867964 255.736944,216.879428 C255.773276,216.957799 255.823392,217.089663 255.887293,217.275018 C255.951195,217.460374 256.001069,217.602764 256.036916,217.70219 C256.28566,217.664196 256.483021,217.663423 256.628999,217.699871 C256.774976,217.736319 257.001038,217.731162 257.307185,217.684401 Z" id="KissMe,ImSquamous"></path>
                    </g>
                </g>
            </g>
        </g>
    </g>
</svg>