<?xml version="1.0" encoding="UTF-8"?>
<svg width="1923px" height="1131px" viewBox="0 0 1923 1131" version="1.1" xmlns="http://www.w3.org/2000/svg" xmlns:xlink="http://www.w3.org/1999/xlink">
    <!-- Generator: Sketch 62 (91390) - https://sketch.com -->
    <title>Group 37</title>
    <desc>Created with Sketch.</desc>
    <defs>
        <filter x="-3.2%" y="-1.6%" width="106.5%" height="103.2%" filterUnits="objectBoundingBox" id="filter-1">
            <feOffset dx="0" dy="2" in="SourceAlpha" result="shadowOffsetOuter1"></feOffset>
            <feGaussianBlur stdDeviation="2" in="shadowOffsetOuter1" result="shadowBlurOuter1"></feGaussianBlur>
            <feColorMatrix values="0 0 0 0 0   0 0 0 0 0   0 0 0 0 0  0 0 0 0.5 0" type="matrix" in="shadowBlurOuter1" result="shadowMatrixOuter1"></feColorMatrix>
            <feMerge>
                <feMergeNode in="shadowMatrixOuter1"></feMergeNode>
                <feMergeNode in="SourceGraphic"></feMergeNode>
            </feMerge>
        </filter>
        <path d="M180.441848,258.028713 C183.412845,256.728178 186.666352,256.151771 189.989883,256.230359 C191.880057,263.807705 192.886113,271.762307 192.886113,279.964129 C192.886113,331.484292 153.189266,373.249635 104.220723,373.249635 C99.8568427,373.249635 95.5665954,372.917949 91.3715136,372.277232 C93.1708913,363.863207 97.8022939,356.520009 104.188555,349.856454 C116.764218,336.73475 131.445389,345.287757 147.041089,325.979155 C165.730871,302.839856 166.170701,264.275818 180.441848,258.028713 Z" id="path-2"></path>
        <filter x="-1.5%" y="-1.3%" width="103.0%" height="102.6%" filterUnits="objectBoundingBox" id="filter-3">
            <feGaussianBlur stdDeviation="1" in="SourceAlpha" result="shadowBlurInner1"></feGaussianBlur>
            <feOffset dx="0" dy="1" in="shadowBlurInner1" result="shadowOffsetInner1"></feOffset>
            <feComposite in="shadowOffsetInner1" in2="SourceAlpha" operator="arithmetic" k2="-1" k3="1" result="shadowInnerInner1"></feComposite>
            <feColorMatrix values="0 0 0 0 0   0 0 0 0 0   0 0 0 0 0  0 0 0 0.5 0" type="matrix" in="shadowInnerInner1"></feColorMatrix>
        </filter>
        <filter x="-1.9%" y="-3.1%" width="103.9%" height="106.2%" filterUnits="objectBoundingBox" id="filter-4">
            <feOffset dx="0" dy="2" in="SourceAlpha" result="shadowOffsetOuter1"></feOffset>
            <feGaussianBlur stdDeviation="2" in="shadowOffsetOuter1" result="shadowBlurOuter1"></feGaussianBlur>
            <feColorMatrix values="0 0 0 0 0   0 0 0 0 0   0 0 0 0 0  0 0 0 0.5 0" type="matrix" in="shadowBlurOuter1" result="shadowMatrixOuter1"></feColorMatrix>
            <feMerge>
                <feMergeNode in="shadowMatrixOuter1"></feMergeNode>
                <feMergeNode in="SourceGraphic"></feMergeNode>
            </feMerge>
        </filter>
    </defs>
    <g id="Page-1" stroke="none" stroke-width="1" fill="none" fill-rule="evenodd">
        <g id="Group-37">
            <g id="Group-6">
                <g id="2scene1-(2)">
                    <g id="Layer_3">
                        <polygon id="Path" fill="#FBFBFB" fill-rule="nonzero" points="1922 1082 0.5 1082 0.5 0.5 1921 0.5"></polygon>
                        <path d="M1046.54574,1124.13968 C1433.86152,1124.13968 1769.71823,1124.13968 1907.4696,1124.13968 C1969.6211,1124.13968 1862.05389,57.665218 919.683199,57.665218 C76.6652655,57.665218 -37.526892,1124.13968 9.882837,1124.13968 C443.381708,1124.13968 510.000424,1124.13968 1046.54574,1124.13968 Z" id="Oval" fill="#D5D5D5"></path>
                    </g>
                </g>
                <g id="Group-3" filter="url(#filter-1)" transform="translate(672.500000, 498.500000) scale(-1, 1) translate(-672.500000, -498.500000) translate(451.000000, 64.000000)">
                    <path d="M389.515734,488.67175 C383.634185,551.144472 366.338185,600.064871 339.496778,632.181309 C337.654423,654.76225 335.936735,685.239429 338.561844,722.756862 C342.088197,773.154659 352.793781,804.741948 358.896968,822.750728 C360.412996,827.224098 361.646382,830.867037 362.42252,833.757982 C367.097726,837.725875 371.198676,845.872906 371.198676,856.447433 C371.198676,859.338281 370.690729,861.609664 369.780485,863.399435 C368.76832,865.389609 367.259233,866.805743 365.335225,867.802728 C360.86209,870.120624 354.003479,870.072353 346.062096,869.946205 C344.244669,869.917336 342.370061,869.887518 340.455313,869.887518 C338.640885,869.887518 336.739171,869.914283 334.792139,869.94165 C325.555712,870.071475 315.324109,870.184829 308.418799,867.649225 C305.689608,866.647077 303.466049,865.233373 301.955864,863.298804 C300.556679,861.506425 299.751819,859.263873 299.751819,856.447433 C299.751819,854.039556 300.90509,851.724427 302.978704,849.556764 C305.133693,847.304036 308.293489,845.199211 312.034908,843.286354 C321.359576,838.518978 334.32954,834.907536 343.840026,832.865821 C330.997818,815.574039 316.581452,778.71696 313.295341,731.752644 C311.517906,706.349969 312.374211,679.081731 314.84907,655.059061 C295.494208,668.672511 272.835887,675.841501 247.265447,675.841501 C236.588098,675.841501 226.253673,674.403964 216.329065,671.627839 C213.821034,688.582547 211.171552,710.971635 211.171552,738.426369 C211.171552,777.353538 217.685905,802.207927 221.399547,816.378021 C222.976617,822.395625 224.033099,826.538794 223.951415,829.05137 C224.582192,831.717781 224.943772,834.646671 224.943772,837.788221 C224.943772,840.679069 224.435825,842.950452 223.525581,844.740223 C222.513416,846.730397 221.004329,848.146531 219.080321,849.143516 C214.607186,851.461412 207.748575,851.413141 199.807192,851.286993 C197.989765,851.258124 196.115157,851.228306 194.202881,851.228303 C192.480378,851.23256 190.693345,851.257191 188.873251,851.282254 C179.447801,851.412047 169.157498,851.52362 162.222821,849.002192 C159.471871,848.001955 157.234705,846.589372 155.715828,844.655072 C154.306328,842.860064 153.496915,840.612719 153.496915,837.788221 C153.496915,835.21201 154.819914,832.739956 157.176658,830.440442 C159.651061,828.026125 163.273114,825.788962 167.498377,823.780427 C178.856939,818.380985 194.604676,814.593015 203.439286,813.062429 C196.590913,797.265776 190.838592,772.899029 190.838592,743.987653 C190.838592,717.000979 194.84342,687.573019 200.122769,665.742606 C158.031456,646.838283 124.804,602.332581 106.550479,540.750203 C105.519394,560.148436 104.704796,581.298864 104.704796,603.146578 C104.704796,640.052124 106.752792,668.212096 108.216944,688.347718 C108.607388,693.71726 108.956376,698.517179 109.214432,702.760691 C121.953466,702.798209 133.774272,703.892375 142.422072,708.699218 C142.975091,709.006612 143.586856,709.328607 144.231556,709.668053 C147.496569,711.387145 151.517477,713.564909 153.396917,716.428147 C154.161714,717.593279 154.594383,718.867866 154.561072,720.261487 C154.531884,721.482596 154.143018,722.806985 153.247737,724.237497 C152.381528,725.621556 150.78773,726.328719 148.641431,726.48887 C146.200852,726.67098 143.03083,726.157436 139.803159,725.621176 C136.873277,725.134393 133.893754,724.63134 131.418951,724.70652 C130.131684,724.745625 129.341842,724.929653 128.893761,725.295282 C128.368374,725.723991 128.471895,726.376026 128.463534,726.924915 C128.457374,727.329263 128.446489,727.72412 128.381756,728.08555 C127.664889,732.088144 132.557145,736.007886 137.242395,740.117426 C142.057739,744.341075 146.942305,748.762614 147.848402,753.395635 C148.24026,755.399271 147.476101,757.717831 145.950937,759.248227 C145.236188,759.965428 144.360562,760.508629 143.373615,760.779937 C142.471499,761.027926 141.474281,761.051698 140.414632,760.761321 C135.881657,759.519144 131.287569,755.574685 127.998524,752.714148 C126.337672,751.269678 125.09995,749.947125 124.479443,749.947125 C124.074854,750.805827 124.025394,751.654382 124.053844,752.692001 C124.139507,755.816263 125.036811,760.488841 125.90877,765.063184 C126.483167,768.076501 127.048927,771.04791 127.380689,773.524011 C127.922282,777.566178 127.774934,780.3748 126.945584,782.182098 C126.464709,783.230008 125.765192,783.982041 124.84559,784.480774 C123.973347,784.953823 122.885099,785.196777 121.552865,785.196777 C119.135478,785.196777 117.669064,784.513815 116.662722,783.441139 C115.457541,782.156515 114.943387,780.19895 114.397792,777.833458 C114.121944,776.637488 113.822921,775.334458 113.360705,773.979716 C112.917904,772.681878 112.353258,769.939851 111.683901,766.658668 C110.18325,759.302495 108.305236,748.74849 105.679939,747.320836 C105.220943,747.071231 104.817689,746.962192 104.451103,747.082783 C104.007212,747.228805 103.658973,747.641649 103.317425,748.186508 C102.126862,750.085769 101.259551,753.565664 100.176341,757.778175 C99.1061183,761.94018 97.8539653,766.801768 95.9864027,771.628872 C95.3641619,773.237183 94.6394598,774.188461 93.9354019,774.774382 C92.8134339,775.70809 91.6939617,775.780483 90.8348412,775.808323 C89.3325789,775.870384 88.3479773,775.156724 87.5927598,774.06177 C86.6666793,772.71909 86.1265789,770.750087 85.8304922,769.558807 C84.5467506,764.393776 85.9450999,735.62115 93.2740319,717.69452 C84.2872682,698.818576 75.7017528,657.060272 75.7017528,609.608111 C75.7017528,565.006606 84.0037817,501.608134 92.8237831,466.717156 C91.6296244,453.364365 91.0157868,439.537931 91.0157868,425.297754 C91.0157868,371.365308 78.0032182,246.658187 58.1253839,164.950599 C57.8048544,164.724449 57.5081435,164.614452 57.1488932,164.51601 C56.1458452,164.241154 54.7267737,164.108736 53.0437369,164.062614 C48.2013247,163.929915 41.2668127,164.545857 35.4507178,165.059922 C31.4800171,165.410879 28.0223057,165.714214 26.0672307,165.714214 C24.7874019,165.714214 23.3698822,165.790975 21.8842489,165.870836 C16.9737879,166.134801 11.3732027,166.381178 7.33066338,164.353401 C4.32414012,162.8453 2.09190124,160.144929 1.55439278,155.31059 C1.37683979,153.713683 1.89027761,152.094035 3.02649556,150.473165 C4.14553728,148.876798 5.88350052,147.265699 8.07920058,145.660811 C13.6174993,141.612738 22.1249495,137.547318 30.4934427,133.557073 C38.241794,129.862522 45.8691934,126.23343 50.8198778,122.722045 C52.6329247,121.4361 54.078878,120.175338 55.0031591,118.926888 C55.7192002,117.959713 56.1212069,117.012963 56.016774,116.066682 C55.9038442,115.04341 55.2061628,114.247866 54.1688523,113.575923 C52.7739463,112.67234 50.7754659,112.004815 48.3845747,111.484122 C41.6255153,110.01212 31.8236824,109.776952 23.0138155,109.558164 C12.1679534,109.288814 3.13515358,108.720135 1.71666112,106.596071 C-0.108144487,103.863591 -1,101.155595 -1,98.7087762 C-1,96.1565261 -0.0475791448,93.8673554 1.86372422,92.0725366 C5.31816701,88.828625 21.8709226,79.4045688 43.0858399,76.5260335 C55.1601329,74.8877392 71.5840431,75.9956163 85.0420952,76.9105659 C96.8413754,77.7127434 106.721026,78.7891365 108.043233,76.9361166 C108.186857,76.7348332 108.181504,76.4865996 108.121624,76.2164973 C108.008464,75.7060642 107.695842,75.1323038 107.242398,74.4919438 C106.094325,72.8706174 104.070691,70.9239643 101.472929,68.7608308 C94.2415024,62.7392848 82.6202101,55.1410439 72.420061,48.4687123 C61.2708266,41.1755456 51.9581033,34.8773381 51.2234439,32.8203527 C50.0395118,29.5054411 49.6880187,26.5527069 51.511946,24.2616001 C52.9201988,22.4926385 55.7286621,21.0480772 60.9337473,20.3011889 C77.2464356,17.9604477 112.976068,24.8123299 127.961042,28.5248803 C130.61196,29.1816492 136.479846,31.8253029 143.392054,34.953913 C152.271514,38.9729427 162.905258,43.7906408 170.55797,46.0663476 C173.24808,46.8663128 175.554574,47.3538694 177.258292,47.3463919 C177.913017,47.3435183 178.465775,47.2717887 178.889947,47.0847024 C179.141874,46.9735871 179.339717,46.8196708 179.440899,46.5848616 C179.67661,46.0378573 179.244571,45.2072976 178.656443,44.2134647 C177.80855,42.7806726 176.401697,41.0379843 174.55245,39.0829138 C170.761431,35.074951 165.134219,30.212907 158.545889,25.3513195 C155.202493,22.8841972 151.27445,20.7370899 147.584282,18.716572 C143.561193,16.5137663 139.81724,14.4520881 137.343389,12.3181434 C135.243535,10.5068085 134.058277,8.61882808 134.058277,6.6202376 C134.058277,5.14690262 134.441818,3.95525395 135.100458,2.98441712 C135.809728,1.93895339 136.849888,1.14377759 138.139402,0.559391952 C141.111878,-0.787683723 145.489344,-0.986767841 149.663387,-0.999179346 L150.253675,-1 C177.306929,-1 224.431867,11.5142814 248.114951,49.6483378 C260.942278,70.3026594 271.495671,101.080525 282.427768,133.000692 C289.510824,153.682206 296.757025,174.842928 304.900722,194.018673 C311.833477,210.343046 319.624017,227.67047 327.617792,245.450123 C349.928273,295.072811 373.813867,348.214615 385.103385,392.925666 C398.427257,417.755133 416.111221,470.365295 424.594713,518.447599 C432.310274,562.177476 432.460749,602.409779 428.547419,625.474266 C438.348931,642.009983 444.338778,668.618506 443.982871,673.770525 C443.898276,674.995115 443.708501,677.027973 443.029781,678.510993 C442.460809,679.754214 441.571218,680.604723 440.336079,680.766565 C439.247477,680.921071 438.153131,681.026332 436.907238,680.313676 C436.112101,679.858853 435.233159,679.047814 434.340954,677.571975 C431.663024,673.142284 429.585162,668.571834 427.808022,664.658769 C426.009299,660.698179 424.550487,657.421621 423.047989,655.7578 C422.616901,655.280426 422.202165,654.93426 421.739593,654.867481 C421.357651,654.812342 420.979486,654.989679 420.570863,655.315125 C418.23353,657.17668 418.217973,667.896265 418.018314,675.401028 C417.929255,678.748547 417.849634,681.546926 417.639069,682.901901 C417.419276,684.316248 417.3512,685.651314 417.287344,686.876921 C417.161039,689.301139 416.994811,691.318128 416.03115,692.792429 C415.226476,694.023496 413.901011,694.950696 411.520325,695.370476 C410.208372,695.601808 409.094465,695.551479 408.153286,695.237027 C407.161042,694.905514 406.341507,694.286329 405.685874,693.337812 C404.555065,691.701846 403.921928,688.961333 403.752937,684.886561 C403.649418,682.390489 403.690279,679.366023 403.732363,676.298786 C403.796249,671.642593 403.868026,666.885256 403.409524,663.793576 C403.257244,662.766751 403.06108,661.939645 402.750177,661.416047 C401.902157,661.27172 400.913079,662.78899 399.528524,664.499651 C396.78646,667.887558 392.947508,672.569406 388.699201,674.579387 C387.706094,675.049251 386.719888,675.198907 385.788376,675.111237 C384.769323,675.015328 383.812652,674.632351 382.984176,674.050103 C381.216317,672.807662 380.060963,670.656975 380.098721,668.615831 C380.186031,663.895887 384.22813,658.693787 388.23647,653.698573 C392.13642,648.838436 396.273248,644.129223 394.871804,640.311855 C394.745256,639.967153 394.665928,639.580189 394.589606,639.183057 C394.485982,638.643869 394.474571,637.983723 393.882613,637.652665 C393.377794,637.370341 392.567946,637.326148 391.293391,637.511037 C388.843129,637.866474 385.996287,638.878952 383.195506,639.866793 C380.110041,640.955041 377.077405,642.010914 374.642255,642.255109 C372.500831,642.469849 370.80842,642.050081 369.714913,640.8374 C368.584704,639.584016 367.971642,638.347256 367.730727,637.149791 C367.455766,635.783092 367.660406,634.452758 368.211142,633.172578 C369.564538,630.026624 373.145992,627.184097 376.06274,624.924468 C376.638661,624.478297 377.185182,624.055028 377.676386,623.656333 C385.079269,617.647647 395.982105,614.52298 407.654259,612.341156 C407.415786,610.125751 407.169629,607.798 406.911546,605.35746 C404.687308,584.324168 401.576527,554.904293 394.855818,516.812989 C393.108161,506.907706 391.312253,497.526104 389.515734,488.67175 Z" id="Combined-Shape" stroke="#000000" stroke-width="2" fill="#F3A7A7"></path>
                    <g id="Group-2" transform="translate(105.000000, 198.000000)">
                        <path d="M1.03606758,108.379972 C0.679068805,101.336794 2.94341896,91.0860934 7.6505773,78.396538 C7.89392605,77.7405186 8.13250908,77.0968147 8.36660126,76.4652273 C13.0097761,63.9378081 15.8485655,56.2145398 19.1122106,51.7319871 C21.827966,48.0019501 24.8502412,46.6769781 29.5921271,46.6769781 C32.1021177,46.6769781 34.2655829,47.5993207 36.0357579,49.3130655 C37.9343151,51.1510999 39.3808429,53.8705059 40.3588774,57.3054622 C42.3443978,64.278811 42.379299,74.1399535 40.0895711,85.798615 C38.066355,96.1002722 33.823941,103.661445 28.7605926,108.88724 C22.433296,115.417534 14.8352003,118.293783 8.80359894,118.293783 C6.41941969,118.293783 4.58032925,117.496672 3.30652989,115.918172 C1.92616043,114.20761 1.20194983,111.65264 1.03606758,108.379972 Z" id="Oval" stroke="#000000" stroke-width="2" fill="#AD6161"></path>
                        <path d="M127.017414,77.8806691 C124.634027,77.8812537 122.795717,77.0845572 121.522715,75.5062287 C120.143046,73.795649 119.419656,71.2403345 119.254611,67.9670365 C118.89941,60.9224227 121.165816,50.6689551 125.87517,37.9754939 C126.11863,37.3192798 126.357322,36.675385 126.591521,36.0436102 C131.23686,23.5123488 134.077005,15.7867332 137.341109,11.302415 C140.057246,7.57090866 143.079211,6.24477251 147.820218,6.24360957 C150.329458,6.24299406 152.492051,7.16490553 154.261276,8.87840912 C156.15896,10.716325 157.604465,13.4358928 158.581437,16.8712502 C160.564856,23.8456107 160.59733,33.7088529 158.305192,45.3705851 C156.279823,55.6750691 152.036332,63.2389828 146.972644,68.4671985 C140.645031,75.0004058 133.047805,77.8791899 127.017414,77.8806691 Z" id="Oval" stroke="#000000" stroke-width="2" fill="#AD6161" transform="translate(139.632140, 42.062139) scale(1, -1) rotate(40.000000) translate(-139.632140, -42.062139) "></path>
                        <ellipse id="Oval" fill="#000000" cx="59.1102605" cy="175.795314" rx="12.4442654" ry="17.1023428"></ellipse>
                        <ellipse id="Oval" fill="#000000" cx="139.997985" cy="119.824011" rx="12.4442654" ry="17.1023428"></ellipse>
                        <path d="M220.776673,353.892196 C212.148,382.719151 186.836928,405.776508 164.448253,414.403189 C152.741447,418.913991 136.89738,421.079024 122.791636,418.082429 C111.638874,415.71316 101.568273,410.112133 95.5370579,399.847336 C90.3918176,391.09042 89.1954426,382.749177 90.5892478,375.038756 C92.2763455,365.705864 97.7441206,357.303329 104.549539,350.202416 C110.079134,344.432724 116.028937,342.92721 122.276605,341.32697 C130.243141,339.286469 138.69233,337.111263 147.430057,326.293327 C156.626563,314.907389 161.433752,299.807365 165.620415,286.622324 C169.895144,273.159938 173.450211,261.635065 180.642351,258.486751 C187.227045,255.604343 194.789626,256.593913 201.569098,260.297834 C208.513055,264.09162 214.642044,270.734774 218.099201,279.046803 C226.608236,299.505043 227.774291,330.514325 220.776673,353.892196 Z" id="Oval" stroke="#000000" fill="#000000"></path>
                        <g id="Combined-Shape">
                            <use fill="#FFFFFF" fill-rule="evenodd" xlink:href="#path-2"></use>
                            <use fill="black" fill-opacity="1" filter="url(#filter-3)" xlink:href="#path-2"></use>
                            <path stroke="#000000" stroke-width="2" d="M191.886113,279.964129 C191.886113,305.454102 182.069493,328.53297 166.191794,345.238014 C150.332013,361.924204 128.423286,372.249635 104.220723,372.249635 C100.276892,372.249635 96.3939139,371.97554 92.5885515,371.443749 C94.500078,363.640955 98.9258065,356.792955 104.910524,350.548379 C110.364815,344.857261 116.241277,343.388963 122.400667,341.811334 C130.453777,339.748659 138.98836,337.540498 147.819025,326.607499 C157.054112,315.173794 161.892315,300.01534 166.096968,286.773644 C170.307538,273.513313 173.736912,262.05537 180.842854,258.944789 C183.454238,257.801672 186.294425,257.247152 189.20407,257.224835 C190.955882,264.498472 191.886113,272.116999 191.886113,279.964129 Z" stroke-linejoin="square"></path>
                        </g>
                        <ellipse id="Oval" fill="#FFFFFF" cx="63.7768601" cy="166.466764" rx="4.66659952" ry="4.6642753"></ellipse>
                        <ellipse id="Oval" fill="#FFFFFF" cx="144.664585" cy="110.49546" rx="4.66659952" ry="4.6642753"></ellipse>
                    </g>
                </g>
                <g id="Group-5" filter="url(#filter-4)" transform="translate(855.000000, 458.000000)" fill="#99CAF4" stroke="#000000" stroke-width="2">
                    <path d="M467.73655,322.491557 C467.786559,379.798612 467.733866,426.234612 460.90905,438.946682 C459.473028,442.850171 457.401428,446.249001 453.971413,448.556676 C451.093612,450.492827 447.244885,451.673277 441.94695,451.673279 C438.77072,451.67328 435.984492,451.775568 433.534259,451.865375 C427.825186,452.074628 423.882159,452.166303 421.048801,450.918795 C418.532533,449.810901 416.787082,447.71652 415.537437,443.674308 C413.937721,438.499721 414.782981,433.467181 417.519779,429.058036 C420.303459,424.573359 425.069481,420.730227 431.223567,418.093119 C432.108934,417.713727 433.196324,417.20033 434.39095,416.636656 C436.570237,415.608378 439.098606,414.417208 441.423298,413.539484 C436.362242,388.876919 433.106083,350.507802 433.106083,307.413045 C433.106083,291.569277 433.545898,276.364576 434.353614,262.245685 L283.343298,262.244243 C283.968778,280.246501 284.079204,301.482674 284.079204,324.224695 C284.079204,349.663036 285.807561,373.679626 287.232186,393.483574 C288.176579,406.611739 288.987276,417.89406 289.078027,426.521226 C289.517868,428.898572 289.374233,431.64456 289.210667,434.531755 C289.146697,435.660923 289.081297,436.812349 289.052894,437.971176 C288.994931,440.336055 288.536352,442.203018 287.750112,443.687822 C286.883168,445.325034 285.617796,446.515602 283.995154,447.381655 C280.329666,449.338035 274.710838,449.559774 267.810758,449.766178 C267.473011,449.776281 267.132153,449.786477 266.788272,449.796994 C266.44672,449.80744 266.105717,449.818094 265.765491,449.828724 C258.639771,450.051355 251.85993,450.219433 247.415419,448.38657 C245.524507,447.606781 244.034085,446.476111 243.044961,444.896081 C242.144223,443.457239 241.651351,441.632846 241.708309,439.308962 C241.843881,433.777695 244.616822,428.674744 249.02977,424.913249 C253.072888,421.466987 258.49105,419.151771 264.458589,418.684527 C256.591301,396.189109 249.513024,361.747002 249.513024,324.224695 C249.513024,301.486555 250.629416,280.252031 252.562551,262.244243 L16.2452168,262.24632 C12.0107094,262.24632 8.26061601,260.632892 5.34049535,257.809747 C2.43714055,255.002811 0.353201803,250.986642 -0.529972413,246.159194 C-2.03486281,237.933433 -0.0529896282,227.312822 7.32912995,216.466817 C17.4390822,201.613007 37.733403,186.280241 73.1391821,176.294942 C108.479961,166.327975 135.501804,163.661252 152.697234,161.965227 C160.401045,161.205382 166.111151,160.64962 169.685694,159.700531 C171.023081,159.345438 172.040196,158.949521 172.705802,158.435076 C173.13849,158.100654 173.395327,157.716395 173.395327,157.225329 C173.395327,107.255598 191.807228,69.4138874 220.66887,43.2785108 C253.465105,13.5802021 299.792191,-1 348.021338,-1 C393.136786,-1 431.268516,13.3795873 460.905929,40.1494703 C490.793872,67.145644 512.049437,106.763205 523.065095,157.011188 C523.755584,157.339035 524.353993,157.554349 525.1145,157.770783 C526.886958,158.27521 529.475158,158.752302 532.723481,159.221596 C541.049663,160.424502 553.650325,161.55803 568.006754,162.85037 C599.948535,165.725712 640.545909,169.392734 662.277231,176.304437 C688.929646,184.781306 705.522246,199.081666 715.067092,213.533825 C722.102907,224.18698 725.313617,234.935372 725.899786,243.543396 C726.264389,248.897659 725.610072,253.436217 724.249759,256.652796 C723.505996,258.411488 722.546646,259.787971 721.436308,260.728197 C720.262173,261.722446 718.91578,262.24632 717.444139,262.24632 L467.721124,262.245697 C467.754447,271.821427 467.745658,281.897627 467.73655,292.334532 C467.73223,297.284522 467.727839,302.315665 467.727839,307.413045 C467.727839,312.510424 467.73223,317.541567 467.73655,322.491557 Z" id="Combined-Shape"></path>
                </g>
                <rect id="Rectangle" fill="#3E3E3E" x="0" y="909" width="1923" height="222"></rect>
                <g id="Group-17" transform="translate(945.424777, 586.276181)">
                    <path d="M253.199494,106.744104 C184.220464,107.619366 100.856987,86.3727072 3.12111236,43.0521379 C17.7391516,39.6449627 29.7837079,37.4166603 39.2552492,36.3701796 C42.0153116,36.0652291 47.2593699,35.2364537 52.8754445,34.3481751 C58.065162,33.5273322 63.5742137,32.6558434 67.7192606,32.1051353 C69.4310162,31.8777126 70.3806966,31.6754698 70.8978906,31.4970341 C71.4673572,31.300564 71.715339,31.0647646 71.8524053,30.8862126 C73.3059463,25.8774947 74.274712,21.5915182 75.1827947,17.5727695 C76.5429451,11.5533815 77.7123339,6.12195335 79.8568267,3.44379753 C80.5278534,2.60578389 81.2983731,2.06280777 82.2597674,1.99934148 C83.235619,1.9349208 84.3552326,2.3326499 85.6807955,3.18740459 C113.800595,21.3197246 191.076843,45.6323898 253.159291,48.9206007 C308.271679,51.8396409 393.743264,19.2368098 421.140476,2.89736054 C422.83866,1.8845793 424.419704,1.5413228 425.891046,1.97656939 C427.413916,2.42705867 428.778008,3.67153746 430.043172,5.61678274 C432.852556,9.93633293 435.080006,17.5931573 436.787809,28.5576383 C436.833256,28.8494177 436.87764,29.1390776 436.922526,29.4263928 C437.215511,29.4181467 437.508016,29.4104973 437.800039,29.4034447 C447.446222,29.1704811 457.648156,29.5625846 468.405865,30.5789603 C478.647556,31.5465833 493.603547,34.0670476 513.272525,38.1447827 C408.872579,82.9894306 322.183665,105.868778 253.199494,106.744104 Z" id="Rectangle" stroke="#000000" stroke-width="2" fill="#DCDCDC"></path>
                    <path d="M164.855028,68.0530581 C164.894206,68.061953 164.941238,68.0211338 164.996124,67.9306005 C165.05101,67.8400673 165.08883,67.7490928 165.109584,67.6576769 C165.124409,67.5923798 165.128098,67.5005225 165.120652,67.3821051 C165.113206,67.2636877 165.089893,67.2000316 165.050715,67.1911367 C164.654768,67.0600449 164.315789,66.8594914 164.033778,66.5894763 C163.751767,66.3194612 163.514547,65.9428885 163.322119,65.4597582 L163.322119,65.4597582 L160.226354,57.7738993 L163.13033,55.961344 C163.624121,55.6614751 164.189896,55.4225804 164.827657,55.2446596 C165.465418,55.0667389 166.158857,55.0216191 166.907974,55.1093001 C166.947152,55.1181949 166.998191,55.0748521 167.061088,54.9792717 C167.123986,54.8836912 167.16433,54.7967228 167.18212,54.7183663 C167.202852,54.6269504 167.208046,54.5285634 167.197635,54.4232054 C167.187223,54.3178474 167.162429,54.260721 167.12325,54.2518261 C166.849003,54.1895621 166.522076,54.1325037 166.14247,54.080651 C165.762865,54.0287984 165.364111,53.9554327 164.94621,53.8605542 C164.436893,53.7449209 163.859455,53.5966562 163.213897,53.4157599 C162.568338,53.2348636 162.01049,53.0910463 161.540351,52.9843079 C161.501172,52.975413 161.453399,53.0194971 161.397031,53.11656 C161.340663,53.2136229 161.303584,53.3013326 161.285794,53.3796891 C161.270969,53.4449862 161.268021,53.5335786 161.27695,53.6454663 C161.285879,53.757354 161.30845,53.824275 161.344664,53.8462293 C161.789883,54.0022403 162.091308,54.1565031 162.248938,54.3090175 C162.406567,54.4615319 162.46611,54.6226753 162.427566,54.7924477 C162.397916,54.9230418 162.339324,55.0298993 162.25179,55.1130201 C162.164256,55.196141 162.048379,55.2831264 161.90416,55.3739766 L161.90416,55.3739766 L157.353205,58.0897372 C157.096815,58.2512485 156.879586,58.3461218 156.701518,58.3743569 C156.523451,58.4025921 156.310353,58.3885426 156.062224,58.3322084 L156.062224,58.3322084 L156.916131,54.571097 C157.040659,54.0226016 157.243136,53.6600273 157.523563,53.4833743 C157.803989,53.3067213 158.40513,53.2749777 159.326984,53.3881437 C159.366162,53.3970386 159.414677,53.3496897 159.472527,53.2460971 C159.530378,53.1425044 159.566716,53.0580596 159.581541,52.9927625 C159.59933,52.914406 159.603761,52.8192839 159.594832,52.7073962 C159.585903,52.5955085 159.561849,52.5351172 159.522671,52.5262224 C158.88276,52.3809396 158.206494,52.2445686 157.493873,52.1171096 C156.781252,51.9896506 156.124575,51.8577271 155.523842,51.7213392 C154.923109,51.5849512 154.277109,51.4211205 153.585843,51.2298468 C152.894577,51.0385732 152.228988,50.870295 151.589077,50.7250122 C151.549898,50.7161173 151.502866,50.7569365 151.447981,50.8474697 C151.393095,50.938003 151.355275,51.0289775 151.33452,51.1203934 C151.319695,51.1856905 151.316747,51.2742829 151.325676,51.3861706 C151.334605,51.4980583 151.357176,51.5649793 151.39339,51.5869336 C152.385339,51.9357348 152.937733,52.2396714 153.050572,52.4987434 C153.16341,52.7578154 153.159048,53.1550694 153.037485,53.6905054 L153.037485,53.6905054 L151.085062,62.2901299 C150.963499,62.8255659 150.755233,63.1833928 150.460265,63.3636106 C150.165296,63.5438284 149.628712,63.5936616 148.850511,63.5131101 C148.808368,63.5172746 148.759112,63.5678884 148.702744,63.6649513 C148.646376,63.7620142 148.610779,63.8431942 148.595955,63.9084913 C148.575223,63.9999072 148.570028,64.0982942 148.58044,64.2036522 C148.590851,64.3090102 148.615646,64.3661366 148.654824,64.3750315 C149.294735,64.5203142 149.941618,64.650014 150.595471,64.7641307 C151.249325,64.8782475 151.876618,65.0034998 152.477351,65.1398877 C153.078084,65.2762757 153.675111,65.4289879 154.268432,65.5980243 C154.861752,65.7670608 155.478368,65.9242204 156.11828,66.0695032 C156.157458,66.0783981 156.205231,66.034314 156.261599,65.9372511 C156.317967,65.8401882 156.355046,65.7524785 156.372836,65.674122 C156.387661,65.6088249 156.39135,65.5169677 156.383904,65.3985503 C156.376457,65.2801329 156.353145,65.2164767 156.313967,65.2075818 C155.57431,64.957258 155.134704,64.6857944 154.995146,64.3931912 C154.855589,64.100588 154.84511,63.6930981 154.963708,63.1707215 L154.963708,63.1707215 L155.817615,59.4096101 C156.196338,59.4955938 156.466738,59.6050483 156.628815,59.7379736 C156.790893,59.8708988 156.920038,60.0581441 157.016253,60.2997092 L157.016253,60.2997092 L158.751606,64.3602917 C158.830597,64.5567487 158.880345,64.7156684 158.900851,64.8370507 C158.921356,64.9584331 158.922714,65.0583025 158.904925,65.136659 C158.863415,65.3194908 158.753186,65.4420898 158.574235,65.5044559 C158.395285,65.5668221 158.13812,65.5805323 157.80274,65.5455867 C157.760597,65.5497513 157.714606,65.6011062 157.664767,65.6996516 C157.614929,65.7981971 157.582597,65.8801183 157.567772,65.9454154 C157.549983,66.0237719 157.545552,66.118894 157.554481,66.2307817 C157.56341,66.3426694 157.587464,66.4030606 157.626642,66.4119555 C158.266553,66.5572383 158.955879,66.6965742 159.694618,66.8299631 C160.433358,66.9633521 161.103094,67.0982405 161.703827,67.2346284 C162.30456,67.3710163 162.819966,67.5051976 163.250044,67.6371721 C163.680122,67.7691466 164.215117,67.9077753 164.855028,68.0530581 Z M170.572231,58.2309418 C171.057151,58.3327653 171.513693,58.2438986 171.941857,57.9643416 C172.370021,57.6847847 172.636391,57.2959932 172.740967,56.7979672 C172.84279,56.3130472 172.753924,55.8565051 172.474367,55.4283409 C172.19481,55.0001767 171.812571,54.7351829 171.327651,54.6333594 C170.842731,54.5315359 170.386189,54.6204026 169.958025,54.8999596 C169.529861,55.1795165 169.264867,55.561755 169.163043,56.0466751 C169.058468,56.544701 169.145959,57.0077961 169.425515,57.4359603 C169.705072,57.8641245 170.087311,58.1291183 170.572231,58.2309418 Z M171.461616,69.4400026 C171.500933,69.4482586 171.547983,69.4034028 171.602764,69.3054352 C171.657544,69.2074676 171.693191,69.1191659 171.709703,69.0405302 C171.723462,68.9750005 171.725656,68.8830954 171.716283,68.7648149 C171.70691,68.6465344 171.682565,68.5832661 171.643247,68.5750102 C171.179689,68.4366208 170.866454,68.2340097 170.703542,67.9671768 C170.540631,67.700344 170.523847,67.2589378 170.65319,66.6429583 L170.65319,66.6429583 L171.301283,63.5565078 C171.394851,63.1109056 171.530093,62.5645838 171.70701,61.9175424 C171.883927,61.2705011 172.033651,60.7203783 172.156183,60.2671741 C172.183049,60.2043964 172.165944,60.1392276 172.10487,60.0716679 C172.043795,60.0041082 171.934622,59.9538165 171.77735,59.9207926 C171.711821,59.9070327 171.629057,59.9101797 171.529059,59.9302336 C171.429062,59.9502876 171.356652,59.9692925 171.31183,59.9872484 C170.835302,60.1061281 170.1729,60.2304502 169.324624,60.3602148 C168.476347,60.4899795 167.723906,60.5543439 167.067301,60.553308 C167.027983,60.545052 166.980934,60.5899079 166.926153,60.6878755 C166.871372,60.7858431 166.837102,60.8675918 166.823342,60.9331215 C166.809582,60.9986512 166.808764,61.0840034 166.820889,61.189178 C166.833014,61.2943525 166.85736,61.3576208 166.893926,61.3789827 C167.367838,61.5332299 167.689853,61.7103171 167.859971,61.9102443 C168.03009,62.1101714 168.060109,62.4722539 167.95003,62.9964918 L167.95003,62.9964918 L167.330833,65.9453298 C167.198738,66.5744153 167.009103,66.9724777 166.761929,67.1395171 C166.514755,67.3065564 166.143204,67.3653763 165.647276,67.3159766 C165.605206,67.3208266 165.556781,67.3722354 165.502,67.470203 C165.447219,67.5681706 165.412949,67.6499193 165.399189,67.715449 C165.382677,67.7940847 165.379796,67.8892663 165.390545,68.0009938 C165.401294,68.1127214 165.426327,68.1727131 165.465645,68.1809691 C165.858823,68.2635286 166.327524,68.3448417 166.871748,68.4249083 C167.415972,68.5049748 167.910885,68.5917919 168.356487,68.6853594 C168.815195,68.7816789 169.345823,68.9102048 169.948369,69.070937 C170.550916,69.2316692 171.055331,69.3546911 171.461616,69.4400026 Z M176.002741,70.6240476 C177.185128,70.8577292 178.205881,70.7523232 179.064999,70.3078294 C179.924116,69.8633357 180.44585,69.1747025 180.630199,68.2419299 C180.767811,67.5456348 180.628584,66.9550234 180.212518,66.4700956 C179.796453,65.9851678 179.335897,65.5699394 178.830853,65.2244104 C178.373166,64.9155425 177.906236,64.5843717 177.430063,64.230898 C176.95389,63.8774242 176.759943,63.4773475 176.848223,63.0306676 C176.915731,62.6890889 177.070165,62.4602454 177.311525,62.3441371 C177.552885,62.2280288 177.870629,62.2089216 178.264758,62.2868155 C178.685163,62.3699023 179.054742,62.6238173 179.373497,63.0485605 C179.692251,63.4733036 179.864166,64.0021216 179.889243,64.6350142 C179.891995,64.6901612 179.936756,64.73996 180.023527,64.7844105 C180.110297,64.8288611 180.199664,64.860174 180.291628,64.8783492 C180.357316,64.8913315 180.449241,64.8924356 180.567402,64.8816614 C180.685563,64.8708872 180.748538,64.8457937 180.756327,64.8063808 C180.794964,64.4727468 180.850477,64.0537181 180.922867,63.5492948 C180.995258,63.0448714 181.060014,62.6481457 181.117136,62.3591176 C180.670456,62.2708378 180.236071,62.1030831 179.81398,61.8558534 C179.391888,61.6086238 178.86554,61.4226938 178.234933,61.2980636 C177.262747,61.1059253 176.311577,61.2046072 175.381423,61.5941093 C174.451269,61.9836113 173.905702,62.5856293 173.744721,63.4001631 C173.604512,64.1095958 173.733924,64.7153311 174.132958,65.2173689 C174.531992,65.7194067 174.989301,66.1510571 175.504887,66.5123203 C175.970519,66.8500599 176.428933,67.1897857 176.880128,67.5314976 C177.331324,67.8732096 177.514081,68.2608367 177.428397,68.6943789 C177.355696,69.0622329 177.200042,69.3317876 176.961434,69.5030429 C176.722826,69.6742982 176.406457,69.720979 176.012328,69.6430851 C175.49996,69.541823 175.036353,69.2283725 174.621508,68.7027335 C174.206662,68.1770946 173.930101,67.5388647 173.791823,66.7880439 C173.786474,66.7460345 173.73778,66.698871 173.645739,66.6465535 C173.553697,66.5942359 173.461695,66.5589895 173.369732,66.5408142 C173.304043,66.5278319 173.212119,66.5267279 173.093958,66.537502 C172.975796,66.5482762 172.91939,66.574668 172.924738,66.6166774 C172.92536,66.8898161 172.898147,67.3383268 172.843099,67.9622095 C172.788052,68.5860921 172.747779,69.0661487 172.72228,69.4023792 C173.405438,69.5373952 173.912768,69.7332173 174.244272,69.9898452 C174.575775,70.2464732 175.161932,70.457874 176.002741,70.6240476 Z M185.376415,72.4031953 C186.562236,72.6187785 187.581259,72.4977841 188.433482,72.0402119 C189.285706,71.5826397 189.796854,70.886113 189.966925,69.9506318 C190.09388,69.2523149 189.945643,68.6639003 189.522214,68.1853881 C189.098785,67.7068759 188.631937,67.2987349 188.121671,66.9609651 C187.659317,66.6591284 187.18738,66.3351326 186.70586,65.9889778 C186.224341,65.642823 186.024302,65.2457571 186.105745,64.7977802 C186.168024,64.4552097 186.318943,64.2240326 186.5585,64.104249 C186.798057,63.9844654 187.115472,63.9605042 187.510746,64.0323653 C187.932371,64.1090171 188.305788,64.357254 188.630997,64.7770759 C188.956205,65.1968977 189.136183,65.7230264 189.17093,66.3554619 C189.174524,66.4105604 189.220041,66.4596692 189.307481,66.5027884 C189.394921,66.5459076 189.484756,66.575851 189.576986,66.5926185 C189.642865,66.6045954 189.734796,66.6042944 189.852779,66.5917156 C189.970761,66.5791367 190.033346,66.5530836 190.040532,66.5135563 C190.074064,66.1793707 190.123167,65.7595426 190.187839,65.2540718 C190.252512,64.748601 190.311197,64.3509319 190.363895,64.0610645 C189.915919,63.9796219 189.47902,63.8185257 189.0532,63.577776 C188.627379,63.3370262 188.09825,63.1591625 187.465812,63.0441847 C186.490803,62.8669274 185.541253,62.980135 184.61716,63.3838076 C183.693068,63.7874802 183.156765,64.3977661 183.008252,65.2146651 C182.878902,65.9261578 183.017557,66.5298445 183.424217,67.025725 C183.830877,67.5216055 184.294731,67.9462162 184.815778,68.2995572 C185.286517,68.6301408 185.750069,68.9628208 186.206435,69.2975969 C186.662801,69.6323731 186.85146,70.0171618 186.772413,70.4519629 C186.705342,70.820885 186.553826,71.0927872 186.317863,71.2676693 C186.0819,71.4425514 185.766282,71.4940619 185.371008,71.4222008 C184.857152,71.3287814 184.388809,71.0224531 183.965979,70.5032158 C183.543148,69.9839785 183.256864,69.35005 183.107127,68.6014304 C183.101138,68.5595076 183.051728,68.5130939 182.958898,68.4621891 C182.866068,68.4112844 182.773538,68.3774482 182.681307,68.3606806 C182.615428,68.3487038 182.523497,68.3490047 182.405515,68.3615836 C182.287532,68.3741624 182.231535,68.4014132 182.237525,68.4433359 C182.242321,68.7164333 182.221966,69.1653075 182.17646,69.7899586 C182.130954,70.4146097 182.098023,70.8952258 182.077666,71.2318066 C182.762807,71.3563659 183.273072,71.5444112 183.608458,71.7959426 C183.943845,72.0474741 184.533164,72.2498916 185.376415,72.4031953 Z M207.548806,75.9167439 C207.694776,75.9365667 207.830179,75.9346826 207.955014,75.9110914 C208.07985,75.8875003 208.150705,75.8633358 208.167579,75.8385979 L208.167579,75.8385979 L214.062132,65.124577 L213.252674,73.7721658 C213.2204,74.3083704 213.051127,74.6840659 212.744853,74.8992525 C212.438579,75.1144391 211.921748,75.2131861 211.194357,75.1954935 C211.152745,75.2033572 211.108144,75.2581163 211.060552,75.3597708 C211.012961,75.4614253 210.98466,75.5454274 210.975649,75.6117772 C210.963035,75.7046669 210.969875,75.8035772 210.996169,75.9085081 C211.022463,76.013439 211.055515,76.0686076 211.095325,76.0740138 C211.745553,76.1623157 212.394716,76.2335797 213.042814,76.2878056 C213.690912,76.3420316 214.32017,76.4105924 214.930588,76.4934881 C215.541007,76.5763837 216.182347,76.680372 216.85461,76.805453 C217.526872,76.9305339 218.188117,77.0372253 218.838345,77.1255272 C218.878155,77.1309335 218.918538,77.0823588 218.959495,76.9798033 C219.000452,76.8772478 219.026336,76.7861602 219.037149,76.7065405 C219.046159,76.6401907 219.041736,76.5483659 219.023878,76.431066 C219.006021,76.3137662 218.977188,76.2524131 218.937378,76.2470069 C218.151993,76.0592624 217.653673,75.8226563 217.442418,75.5371886 C217.231163,75.251721 217.148308,74.8417859 217.193851,74.3073834 L217.193851,74.3073834 L217.962517,65.5123507 C218.00806,64.9779483 218.177333,64.6022527 218.470337,64.3852641 C218.763341,64.1682754 219.280173,64.0695284 220.020833,64.089023 C220.060643,64.0944293 220.101476,64.0425371 220.143334,63.9333467 C220.185192,63.8241562 220.210626,63.736386 220.219636,63.6700363 C220.230449,63.5904165 220.226476,63.4952742 220.207717,63.3846093 C220.188959,63.2739445 220.159675,63.2159089 220.119865,63.2105027 C219.721766,63.1564403 219.24843,63.1090539 218.699857,63.0683436 L218.379741,63.0431162 C217.964958,63.0084116 217.598328,62.9694344 217.279849,62.9261844 C216.93483,62.8793304 216.495856,62.8028238 215.962928,62.6966647 C215.43,62.5905056 214.911407,62.5031865 214.407148,62.4347075 L214.407148,62.4347075 L209.701975,70.958693 L207.301086,61.4696939 C206.876447,61.4120274 206.353349,61.3578832 205.731791,61.3072614 C205.110232,61.2566396 204.613674,61.2060996 204.242115,61.1556414 C203.950176,61.1159956 203.52779,61.0417416 202.974957,60.9328794 C202.422124,60.8240172 201.979833,60.74706 201.648084,60.7020081 C201.608274,60.6966018 201.558389,60.7405074 201.498429,60.8337248 C201.438468,60.9269422 201.402181,61.0199958 201.389566,61.1128855 C201.380556,61.1792353 201.382112,61.2672921 201.394235,61.3770559 C201.406359,61.4868197 201.431424,61.5510397 201.469432,61.5697159 C202.226475,61.7671262 202.728563,62.0008653 202.975696,62.2709333 C203.222828,62.5410012 203.288646,62.9520012 203.173149,63.5039331 L203.173149,63.5039331 L201.170377,72.1313724 C201.04161,72.6815023 200.812171,73.052406 200.482061,73.2440835 C200.15195,73.435761 199.589124,73.5248832 198.793582,73.5114502 C198.75197,73.519314 198.701634,73.566537 198.642575,73.6531195 C198.583515,73.7397019 198.547678,73.8294379 198.535064,73.9223277 C198.526053,73.9886774 198.527159,74.0800517 198.538382,74.1964505 C198.549604,74.3128493 198.57512,74.3737519 198.61493,74.3791581 C199.066108,74.4404288 199.499635,74.4824089 199.915508,74.5050985 C200.331382,74.5277881 200.778179,74.5715703 201.255897,74.6364451 C201.720346,74.6995179 202.159319,74.7760245 202.572818,74.8659649 C202.986316,74.9559053 203.445194,75.035115 203.949453,75.103594 C203.989263,75.1090003 204.03583,75.0646442 204.089156,74.9705257 C204.142481,74.8764073 204.175451,74.7829032 204.188066,74.6900135 C204.197076,74.6236637 204.199288,74.53274 204.194701,74.4172422 C204.190113,74.3017444 204.167915,74.2412924 204.128105,74.2358862 C203.36926,74.0517458 202.870489,73.8184572 202.631794,73.5360204 C202.393098,73.2535835 202.330598,72.8430341 202.444293,72.3043721 L202.444293,72.3043721 L204.050195,64.210926 L206.973283,75.6764108 C206.996219,75.7065549 207.051429,75.7478391 207.138912,75.8002635 C207.226395,75.852688 207.363027,75.8915147 207.548806,75.9167439 Z M224.495623,77.9638776 C225.588622,78.0698536 226.483658,77.927908 227.180733,77.5380405 C227.877808,77.1481731 228.416224,76.7294677 228.795981,76.2819244 C228.825224,76.2578506 228.844471,76.2328076 228.85372,76.2067953 C228.86297,76.180783 228.868887,76.1544476 228.871472,76.1277891 C228.877933,76.0611428 228.861392,75.9889025 228.821848,75.9110683 C228.782304,75.833234 228.73244,75.7577628 228.672255,75.6846546 C228.622815,75.6394972 228.567034,75.5903614 228.504911,75.5372471 C228.442788,75.4841327 228.40377,75.4702586 228.387856,75.4956247 C228.086376,75.8296667 227.624097,76.0875722 227.001017,76.2693412 C226.377938,76.4511101 225.826471,76.5187316 225.346618,76.4722055 C224.653497,76.4050011 224.144984,76.1336959 223.821078,75.6582898 C223.497173,75.1828837 223.3895,74.385352 223.498061,73.2656947 L223.498061,73.2656947 L223.539741,72.8358263 C223.554603,72.6825398 223.573223,72.5598904 223.595599,72.4678781 L223.595599,72.4678781 L229.113909,73.002928 C229.233873,73.0145596 229.329762,72.9969478 229.401578,72.9500927 C229.473394,72.9032377 229.513825,72.8331578 229.522872,72.739853 C229.628848,71.6468542 229.318145,70.688364 228.590764,69.8643823 C227.863383,69.0404007 226.806571,68.5612055 225.420329,68.4267968 C223.900794,68.2794642 222.632924,68.6240789 221.61672,69.4606408 C220.600516,70.2972027 220.023917,71.4219341 219.886923,72.8348349 C219.765438,74.0877848 220.146626,75.2212912 221.030487,76.2353542 C221.914347,77.2494173 223.069393,77.8255917 224.495623,77.9638776 Z M223.784743,71.5578525 C223.918594,70.8711933 224.112831,70.3249348 224.367456,69.9190769 C224.62208,69.5132191 224.969325,69.3316146 225.409191,69.3742635 C225.76908,69.4091581 226.025428,69.5752862 226.178232,69.8726478 C226.331037,70.1700094 226.388054,70.518629 226.349282,70.9185066 C226.31568,71.2650672 226.227386,71.4818702 226.0844,71.5689157 C225.941415,71.6559612 225.722654,71.6919322 225.428118,71.6768289 L225.428118,71.6768289 L223.784743,71.5578525 Z M231.402794,82.1523223 L231.437456,82.1516686 C232.396575,81.6970261 233.17806,81.0987001 233.78191,80.3566907 C234.38576,79.6146813 234.724193,78.7361009 234.797209,77.7209495 C234.849088,76.9996577 234.711998,76.3856113 234.385939,75.8788104 C234.059879,75.3720095 233.596311,75.0969926 232.995234,75.0537596 C232.460944,75.0153304 232.008843,75.1875646 231.638931,75.5704622 C231.269018,75.9533598 231.066289,76.3919179 231.030742,76.8861363 C230.988469,77.4738555 231.104416,77.9151951 231.37858,78.2101549 C231.652745,78.5051147 231.983507,78.6665252 232.370868,78.6943864 C232.437654,78.6991901 232.495143,78.6932552 232.543334,78.6765819 C232.591526,78.6599086 232.635658,78.653013 232.675729,78.6558952 C232.729158,78.6597382 232.763489,78.6957733 232.778721,78.7640007 C232.793953,78.8322281 232.795805,78.9464853 232.784276,79.1067723 C232.73624,79.7746351 232.537066,80.2570846 232.186756,80.5541208 C231.836446,80.851157 231.423169,81.1369511 230.946925,81.4115031 C230.904932,81.4353354 230.900369,81.4987824 230.933235,81.601844 C230.966101,81.7049056 231.006847,81.791751 231.055472,81.8623802 C231.104098,81.9330094 231.16966,82.0015002 231.252159,82.0678526 C231.334658,82.134205 231.396423,82.1621437 231.437456,82.1516686 L231.402794,82.1523223 Z M248.917829,79.1068335 C248.957985,79.1080397 248.996331,79.0589703 249.032866,78.959603 C249.069402,78.8602356 249.089103,78.7637027 249.09197,78.6700042 C249.094017,78.6030767 249.08005,78.5122127 249.050068,78.3974121 C249.020085,78.2826115 248.985015,78.2245969 248.944859,78.2233682 C248.184343,78.1197109 247.680813,77.9368292 247.43427,77.6747233 C247.187727,77.4126174 247.072647,77.0138545 247.089029,76.4784346 L247.089029,76.4784346 L247.358718,67.6640847 C247.3751,67.1286648 247.514344,66.7376833 247.77645,66.4911403 C248.038556,66.2445973 248.552324,66.0928415 249.317755,66.0358729 C249.357911,66.0371016 249.396462,65.9813395 249.433407,65.8685866 C249.470352,65.7558338 249.489848,65.6659936 249.491896,65.5990661 C249.494763,65.5053676 249.481,65.4078108 249.450608,65.3063957 C249.420216,65.2049806 249.384941,65.1536588 249.344785,65.1524301 C248.688895,65.1323621 248.029148,65.1289237 247.365542,65.1421147 C246.701936,65.1553057 246.062266,65.1524815 245.446534,65.1336422 C244.830801,65.1148029 244.188809,65.0784126 243.520558,65.0244713 C242.852307,64.9705301 242.190237,64.9335254 241.534347,64.9134364 C241.494191,64.9122288 241.455742,64.9646445 241.419002,65.0707046 C241.382262,65.1767648 241.362663,65.2699513 241.360206,65.3502643 C241.358158,65.4171918 241.372228,65.5047094 241.402415,65.6128173 C241.432603,65.7209251 241.46757,65.7822861 241.507317,65.7969003 C242.294194,65.9147622 242.807763,66.097951 243.048023,66.3464667 C243.288283,66.5949823 243.400017,66.9936428 243.383225,67.5424482 L243.383225,67.5424482 L243.113536,76.3567982 C243.096745,76.9056036 242.960847,77.2966874 242.705843,77.5300497 C242.45084,77.7634119 241.927032,77.9148606 241.134421,77.9843956 C241.093855,77.9965524 241.055202,78.0556609 241.018462,78.161721 C240.981722,78.2677811 240.962328,78.3542749 240.96028,78.4212024 C240.957823,78.5015154 240.971688,78.5957258 241.001875,78.7038336 C241.032063,78.8119415 241.067234,78.8666097 241.107391,78.8678384 C241.76328,78.8879064 242.426374,78.8914472 243.096673,78.878461 C243.766972,78.8654748 244.409988,78.8684013 245.025721,78.8872406 C245.641453,78.90608 246.280099,78.9423679 246.941657,78.9961043 C247.603215,79.0498408 248.261939,79.0867431 248.917829,79.1068335 Z M251.508732,72.0482917 L251.543263,72.0452141 C252.468217,71.5245702 253.205917,70.8730253 253.756364,70.0905794 C254.30681,69.3081335 254.582933,68.4080245 254.58474,67.3902522 C254.586012,66.6670982 254.406289,66.0641502 254.045565,65.5814082 C253.68484,65.0986661 253.203164,64.8567623 252.600535,64.8556934 C252.064866,64.8547494 251.625925,65.0581979 251.283714,65.4660421 C250.941502,65.8738864 250.769958,66.3255557 250.769076,66.82105 C250.76804,67.4102866 250.914585,67.8424307 251.208718,68.1174824 C251.502851,68.392534 251.844098,68.5304032 252.232458,68.53109 C252.299417,68.5312084 252.356349,68.5212652 252.403256,68.5012605 C252.450163,68.4812558 252.493704,68.4712889 252.533879,68.47136 C252.587446,68.4714547 252.624214,68.5049992 252.644183,68.5719934 C252.664152,68.6389876 252.673995,68.7528352 252.673711,68.9135361 C252.672527,69.5831231 252.507602,70.0783274 252.178936,70.399149 C251.85027,70.7199705 251.458005,71.0339838 251.002141,71.3411887 C250.961918,71.3679011 250.961806,71.4315119 251.001803,71.532021 C251.041801,71.63253 251.088524,71.7163113 251.141973,71.7833647 C251.195421,71.8504182 251.265615,71.9141533 251.352555,71.97457 C251.439495,72.0349868 251.503064,72.0585348 251.543263,72.0452141 L251.508732,72.0482917 Z M273.991817,78.3501486 C274.031959,78.3485035 274.066562,78.2934734 274.095626,78.1850582 C274.12469,78.076643 274.137577,77.9822939 274.134287,77.9020107 C274.131545,77.835108 274.111118,77.7454749 274.073006,77.6331114 C274.034893,77.5207478 273.995766,77.4653886 273.955624,77.4670337 C273.364688,77.4376401 272.984686,77.3225345 272.81562,77.1217168 C272.646554,76.9208991 272.548586,76.4926673 272.521715,75.8370213 L272.521715,75.8370213 L272.372009,72.1841369 C272.339655,71.3946857 272.036427,70.7001045 271.462326,70.1003933 C270.888225,69.5006821 270.099404,69.2213905 269.095865,69.2625187 C268.413458,69.2904858 267.784463,69.4771 267.208881,69.8223612 C266.633299,70.1676224 266.159331,70.7030626 265.786979,71.4286819 C265.560498,70.8080226 265.132102,70.3296685 264.501791,69.9936195 C263.871481,69.6575705 263.195052,69.5043521 262.472503,69.5339643 C261.910521,69.5569961 261.354708,69.7305588 260.805064,70.0546524 C260.25542,70.3787461 259.808351,70.9164347 259.463857,71.6677183 L259.463857,71.6677183 L259.485245,69.7368093 C259.482503,69.6699067 259.443239,69.6112023 259.367453,69.5606963 C259.291666,69.5101902 259.17349,69.4882274 259.012923,69.4948079 C258.946021,69.4975498 258.86656,69.5209109 258.774542,69.5648911 C258.682523,69.6088713 258.616991,69.6450645 258.577946,69.6734707 C258.157995,69.8917266 257.566016,70.1639433 256.80201,70.4901206 C256.038003,70.816298 255.437415,71.041957 255.000245,71.1670976 C254.960103,71.1687428 254.9255,71.2237729 254.896436,71.3321881 C254.867371,71.4406033 254.85421,71.5282622 254.856952,71.5951648 C254.859694,71.6620674 254.879847,71.7450103 254.917411,71.8439933 C254.954975,71.9429763 254.994102,71.9983356 255.034792,72.010071 C255.518685,72.0438516 255.827479,72.1384203 255.961174,72.2937771 C256.09487,72.4491338 256.172685,72.7944228 256.19462,73.329644 L256.19462,73.329644 L256.324585,76.5008293 C256.352004,77.1698558 256.292751,77.604531 256.146826,77.804855 C256.000901,78.0051789 255.634938,78.1508565 255.048937,78.2418877 C255.009344,78.2569133 254.975015,78.3186337 254.945951,78.4270489 C254.916886,78.5354641 254.903725,78.623123 254.906467,78.6900256 C254.910306,78.7836893 254.931007,78.8800127 254.968571,78.9789957 C255.006135,79.0779787 255.044988,79.1266477 255.08513,79.1250429 C255.486546,79.1085513 255.960869,79.0723583 256.5081,79.0164236 C257.05533,78.9604889 257.556415,78.9231992 258.011353,78.9045545 C258.479671,78.8853613 258.94533,78.883031 259.408329,78.8975634 C259.871329,78.9120957 260.310226,78.9108621 260.725023,78.8938625 C260.765164,78.8922174 260.799767,78.8371872 260.828832,78.728772 C260.857896,78.6203569 260.870783,78.5260077 260.867493,78.4457245 C260.864751,78.3788219 260.844324,78.2891888 260.806211,78.1768252 C260.768099,78.0644617 260.728972,78.0091025 260.68883,78.0107476 C260.31253,77.9859605 260.066197,77.862026 259.94983,77.638944 C259.833464,77.415862 259.762393,76.9898785 259.73662,76.3609937 L259.73662,76.3609937 L259.597607,72.9690296 C259.803141,72.4244861 260.017229,72.0069205 260.239873,71.7163328 C260.462516,71.4257451 260.781236,71.2719515 261.196032,71.2549519 C261.65097,71.2363071 261.991653,71.3731287 262.21808,71.6654166 C262.444507,71.9577045 262.570881,72.4249811 262.597203,73.0672465 L262.597203,73.0672465 L262.727168,76.2384319 C262.754038,76.8940778 262.721547,77.3276562 262.629692,77.5391673 C262.537838,77.7506783 262.29899,77.8911463 261.913148,77.9605713 C261.873555,77.9755969 261.839226,78.0373173 261.810162,78.1457325 C261.781098,78.2541477 261.767937,78.3418066 261.770678,78.4087092 C261.773969,78.4889924 261.794533,78.5819706 261.832371,78.6876439 C261.87021,78.7933172 261.9092,78.8453313 261.949341,78.8436862 C262.350757,78.8272349 262.8117,78.7915903 263.332169,78.7367524 C263.852639,78.6819144 264.347033,78.6448989 264.815352,78.6257058 C265.28367,78.6065126 265.679081,78.6070612 266.001585,78.6273516 C266.324089,78.6476419 266.692739,78.6492872 267.107535,78.6322876 C267.147677,78.6306425 267.182417,78.5789575 267.211755,78.4772325 C267.241094,78.3755076 267.253844,78.2778133 267.250005,78.1841496 C267.247263,78.117247 267.226836,78.0276139 267.188723,77.9152503 C267.150611,77.8028868 267.111484,77.7475276 267.071342,77.7491727 C266.695042,77.7243856 266.452054,77.600314 266.342378,77.3769578 C266.232702,77.1536016 266.164977,76.7274811 266.139203,76.0985962 L266.139203,76.0985962 L265.991142,72.4858534 C266.251843,71.979258 266.491267,71.6075646 266.709413,71.3707732 C266.92756,71.1339818 267.277483,71.0057154 267.759182,70.9859739 C268.200739,70.9678775 268.50797,71.10607 268.680875,71.4005514 C268.85378,71.6950328 268.953393,72.1634062 268.979715,72.8056716 L268.979715,72.8056716 L269.10968,75.976857 C269.136551,76.6325029 269.107404,77.0659443 269.02224,77.2771811 C268.937076,77.4884179 268.701573,77.6287488 268.315731,77.6981738 C268.276138,77.7131995 268.241809,77.7749199 268.212745,77.883335 C268.183681,77.9917502 268.17052,78.0794091 268.173262,78.1463118 C268.1771,78.2399755 268.197802,78.3362988 268.235366,78.4352819 C268.27293,78.5342649 268.311783,78.5829338 268.351924,78.5812887 C268.75334,78.5648375 269.184177,78.5304267 269.644434,78.4780564 C270.104691,78.4256862 270.568979,78.3899045 271.037298,78.3707114 C271.505616,78.3515182 272.011417,78.3475427 272.554699,78.3587849 C273.097981,78.370027 273.577021,78.3671483 273.991817,78.3501486 Z M284.754454,77.806202 C286.301805,77.6687514 287.549863,77.151191 288.498627,76.2535209 C289.447391,75.3558508 289.858972,74.2000362 289.733371,72.7860771 C289.645687,71.7989736 289.22629,71.0127532 288.475181,70.427416 C287.724072,69.8420788 286.934274,69.3509287 286.105787,68.9539656 C285.221573,68.5350638 284.421618,68.1187606 283.705922,67.7050561 C282.990226,67.2913516 282.602755,66.7510184 282.543509,66.0840566 C282.498482,65.5771656 282.641237,65.1409832 282.971774,64.7755095 C283.30231,64.4100358 283.78105,64.1994533 284.407994,64.1437621 C285.128313,64.0797765 285.761613,64.3226607 286.307894,64.8724147 C286.854174,65.4221688 287.300249,66.2060193 287.646118,67.2239663 C287.677536,67.2749534 287.741118,67.309639 287.836862,67.328023 C287.932607,67.346407 288.027166,67.3514518 288.120541,67.3431574 C288.187237,67.3372328 288.275796,67.3125606 288.386217,67.2691407 C288.496638,67.2257208 288.550071,67.184002 288.546517,67.1439842 C288.451688,66.6818506 288.355606,66.0921056 288.258272,65.3747491 C288.160939,64.6573926 288.084274,64.0592006 288.028277,63.580173 C287.404008,63.5146261 286.817091,63.4155112 286.267525,63.2828283 C285.717959,63.1501453 285.076347,63.1163891 284.342689,63.1815597 C282.701963,63.3273047 281.449013,63.8654664 280.583839,64.7960447 C279.718665,65.726623 279.341177,66.8121867 279.451375,68.0527357 C279.534319,68.9864823 279.951049,69.7426894 280.701566,70.3213569 C281.452082,70.9000245 282.254923,71.3866549 283.110089,71.7812481 C283.951915,72.1770263 284.741569,72.5908834 285.479052,73.0228193 C286.216534,73.4547553 286.617268,74.0308827 286.681254,74.7512015 C286.73339,75.3381279 286.604491,75.8167741 286.294556,76.18714 C285.984621,76.557506 285.442815,76.7770516 284.669139,76.8457769 C283.908803,76.9133173 283.09076,76.5960934 282.215011,75.8941053 C281.339262,75.1921172 280.721936,74.2587838 280.363032,73.0941052 C280.344953,73.0419332 280.291377,73.0063589 280.202302,72.9873824 C280.113227,72.9684059 280.022002,72.9630649 279.928627,72.9713593 C279.848592,72.9784688 279.753364,73.0037335 279.642942,73.0471534 C279.532521,73.0905733 279.479088,73.1322922 279.482643,73.1723099 C279.577167,73.78236 279.659976,74.4875622 279.731071,75.2879164 C279.802167,76.0882706 279.865712,76.7279615 279.921709,77.2069891 C280.802978,77.2900402 281.591981,77.4317041 282.288719,77.6319808 C282.985456,77.8322575 283.807368,77.8903312 284.754454,77.806202 Z M304.3836,80.7047025 C304.423535,80.7003152 304.454292,80.6430469 304.475872,80.5328974 C304.497452,80.422748 304.503854,80.3277382 304.49508,80.2478682 C304.486305,80.1679982 304.459428,80.0766445 304.41445,79.9738073 C304.369471,79.87097 304.327014,79.821745 304.287079,79.8261323 C303.694053,79.8239212 303.306702,79.7317527 303.125026,79.5496269 C302.943349,79.3675011 302.81595,78.9436465 302.742828,78.278063 L302.742828,78.278063 L301.674518,68.5538883 C301.623333,68.0879799 301.589809,67.6908609 301.573947,67.3625313 C301.558085,67.0342018 301.544379,66.7561566 301.532829,66.5283958 C301.528442,66.4884608 301.481157,66.4566066 301.390975,66.4328333 C301.300793,66.4090599 301.209111,66.4022918 301.11593,66.4125288 C301.062683,66.4183786 300.98391,66.437137 300.87961,66.468804 C300.77531,66.500471 300.718698,66.5370032 300.709774,66.5784006 C300.675539,66.7573021 300.565165,66.9176236 300.378652,67.0593652 C300.192139,67.2011067 299.999045,67.2829458 299.79937,67.3048824 C299.293526,67.3604549 298.832192,67.2999909 298.415368,67.1234902 C297.998543,66.9469896 297.384125,66.9033436 296.572113,66.9925522 C295.067895,67.1578075 293.836735,67.7544917 292.878634,68.7826048 C291.920533,69.8107179 291.519723,71.0369488 291.676204,72.4612974 C291.820985,73.7791527 292.335062,74.8408794 293.218433,75.6464775 C294.101805,76.4520756 295.222386,76.7802904 296.580176,76.6311219 C297.16589,76.5667747 297.655572,76.4254074 298.049222,76.2070202 C298.442872,75.9886329 298.75234,75.6784516 298.977625,75.2764761 L298.977625,75.2764761 L299.348352,78.6509844 C299.424399,79.3431912 299.375784,79.789751 299.202508,79.9906639 C299.029232,80.1915768 298.640812,80.3656042 298.03725,80.5127463 C297.997315,80.5171337 297.966192,80.5710741 297.943881,80.6745677 C297.92157,80.7780613 297.915534,80.876399 297.925771,80.9695807 C297.936008,81.0627624 297.96325,81.1574439 298.007497,81.2536254 C298.051745,81.3498068 298.093836,81.3957039 298.133771,81.3913165 C298.533121,81.3474434 299.050083,81.2704409 299.684655,81.1603089 C300.319228,81.050177 300.862813,80.9702496 301.31541,80.9205267 C301.781318,80.8693414 302.305995,80.8319083 302.88944,80.8082273 C303.472885,80.7845463 303.970938,80.7500381 304.3836,80.7047025 Z M297.327352,75.1546496 C296.808197,75.2116846 296.370711,75.0004049 296.014895,74.5208104 C295.659078,74.041216 295.417554,73.2223611 295.290322,72.0642459 C295.119217,70.5067805 295.177065,69.4697917 295.463864,68.9532795 C295.750664,68.4367673 296.180265,68.1470687 296.752667,68.084184 C297.231887,68.0315362 297.602233,68.1222048 297.863705,68.3561898 C298.125176,68.5901747 298.274924,68.8802188 298.312947,69.2263223 L298.312947,69.2263223 L298.837231,73.9985558 C298.677042,74.3799074 298.481857,74.657325 298.251678,74.8308084 C298.021499,75.0042919 297.71339,75.1122389 297.327352,75.1546496 Z M311.61747,74.8271792 C311.710474,74.8154425 311.801383,74.7870977 311.890196,74.742145 C311.979009,74.6971922 312.043345,74.6722008 312.083204,74.6671708 C312.491602,74.4806531 313.08517,74.2640186 313.86391,74.0172674 C314.642649,73.7705162 315.235443,73.6012225 315.642291,73.5093861 C315.68215,73.5043561 315.713657,73.4598861 315.736813,73.3759761 C315.759864,73.292066 315.765679,73.2036087 315.753942,73.110604 C315.745559,73.0441721 315.717633,72.9565848 315.670165,72.8478423 C315.622697,72.7390997 315.579034,72.6872435 315.539175,72.6922735 C314.989403,72.7211584 314.627641,72.6622018 314.453889,72.5154039 C314.280137,72.3686059 314.157213,72.0095497 314.085115,71.4382352 L314.085115,71.4382352 L313.318033,65.3597144 C313.313003,65.3198553 313.261439,65.2588726 313.16334,65.1767663 C313.065242,65.0946601 312.958919,65.0810816 312.844372,65.1360309 C312.354579,65.3193223 311.623117,65.5128644 310.649985,65.7166573 C309.676852,65.9204501 308.971061,66.0500118 308.53261,66.1053423 C308.492751,66.1103724 308.46292,66.1681288 308.443118,66.2786116 C308.423315,66.3890944 308.419282,66.4908381 308.431019,66.5838428 C308.441079,66.6635611 308.469005,66.7511483 308.514796,66.8466045 C308.560587,66.9420607 308.603412,66.9872737 308.643271,66.9822437 C309.186336,66.9002133 309.573833,66.9491733 309.80576,67.1291237 C310.037688,67.309074 310.1897,67.6847065 310.261797,68.256021 L310.261797,68.256021 L310.742167,72.0625701 C310.633031,72.4812818 310.468171,72.8327868 310.247586,73.117085 C310.027002,73.4013833 309.757273,73.5636527 309.4384,73.603893 C308.986663,73.6609003 308.634834,73.5736943 308.382914,73.342275 C308.130993,73.1108558 307.972337,72.7360617 307.906947,72.2178927 L307.906947,72.2178927 L307.134834,66.0995128 C307.129804,66.0596537 307.074918,65.9990902 306.970177,65.9178222 C306.865435,65.8365543 306.755791,65.823395 306.641244,65.8783443 C306.151451,66.0616357 305.42747,66.2609827 304.469301,66.4763853 C303.511132,66.6917878 302.806179,66.8279927 302.354441,66.8849999 C302.314582,66.89003 302.284751,66.9477864 302.264949,67.0582691 C302.245146,67.1687519 302.241114,67.2704957 302.25285,67.3635004 C302.264587,67.456505 302.292932,67.5474139 302.337885,67.6362269 C302.382837,67.7250398 302.425243,67.7669313 302.465103,67.7619013 C302.994881,67.6815476 303.374896,67.7247027 303.605147,67.8913667 C303.835398,68.0580307 303.988248,68.4403063 304.063699,69.0381936 L304.063699,69.0381936 L304.468618,72.2468554 C304.606106,73.3363389 304.99159,74.1448139 305.625068,74.6722805 C306.258547,75.1997471 307.093456,75.3980898 308.129794,75.2673085 C308.847258,75.1767676 309.441246,74.9634548 309.911757,74.62737 C310.382267,74.2912851 310.735944,73.83159 310.972787,73.2482845 L310.972787,73.2482845 L311.248486,74.6307797 C311.253516,74.6706389 311.289698,74.7166903 311.357032,74.768934 C311.424366,74.8211776 311.511178,74.8405927 311.61747,74.8271792 Z M323.927399,73.1112654 C324.48449,73.0337832 325.015404,72.8652973 325.52014,72.6058076 C326.024876,72.3463179 326.38296,72.0531423 326.594391,71.726281 C326.630494,71.6942184 326.646701,71.664923 326.643011,71.6383949 C326.639321,71.6118667 326.641341,71.5777841 326.649071,71.536147 C326.630623,71.4035062 326.548709,71.2763122 326.40333,71.154565 C326.25795,71.0328179 326.1615,70.99553 326.113978,71.0427015 C326.043617,71.1200908 325.958148,71.1860609 325.85757,71.2406116 C325.756992,71.2951624 325.647014,71.3307394 325.527637,71.3473428 C325.381732,71.3676357 325.21951,71.3192146 325.040971,71.2020795 C324.862431,71.0849444 324.754141,70.7924105 324.716101,70.3244779 L324.716101,70.3244779 L324.334085,66.8487158 C324.228137,65.7953187 323.910559,64.9944469 323.381351,64.4461002 C322.852143,63.8977536 321.977391,63.7084417 320.757095,63.8781645 C319.417422,64.0644907 318.245816,64.5113757 317.242275,65.2188195 C316.238734,65.9262634 315.783084,66.6115874 315.875325,67.2747916 C315.930669,67.6727141 316.107498,67.9962774 316.405811,68.2454813 C316.704124,68.4946853 317.098667,68.5851582 317.589438,68.5169001 C318.133265,68.4412627 318.522314,68.2249045 318.756584,67.8678254 C318.990854,67.5107463 319.083961,66.9164081 319.035903,66.0848108 C319.01631,65.7495191 319.115196,65.5126748 319.332559,65.3742778 C319.549922,65.2358809 319.797876,65.1473119 320.076422,65.1085709 C320.354968,65.0698298 320.563153,65.108478 320.700978,65.2245155 C320.838803,65.340553 320.93631,65.6041651 320.993499,66.0153517 L320.993499,66.0153517 L321.204998,67.9734738 C319.238317,68.7067091 317.858023,69.3786688 317.064115,69.9893527 C316.270208,70.6000367 315.927676,71.2966692 316.03652,72.0792502 C316.134295,72.7822467 316.469131,73.2697429 317.041028,73.541739 C317.612924,73.8137351 318.276899,73.8971559 319.032952,73.7920015 C319.722684,73.6960712 320.287768,73.505932 320.728203,73.2215837 C321.168639,72.9372354 321.50911,72.5417245 321.749615,72.0350508 C321.912917,72.4314789 322.180749,72.7288644 322.553113,72.9272072 C322.925476,73.12555 323.383571,73.1869027 323.927399,73.1112654 Z M320.522115,72.1043706 C320.203777,72.1486461 319.941239,72.0837557 319.734502,71.9096995 C319.527765,71.7356432 319.401336,71.482814 319.355216,71.1512119 C319.272199,70.5543281 319.380986,70.0727346 319.681577,69.7064314 C319.982167,69.3401282 320.51084,69.0097061 321.267593,68.7151649 L321.267593,68.7151649 L321.490161,70.7528715 C321.501673,71.2244937 321.409531,71.558425 321.213734,71.7546655 C321.017936,71.950906 320.787397,72.0674743 320.522115,72.1043706 Z M345.611019,69.6084949 C345.650732,69.6024214 345.679038,69.5439027 345.695937,69.4329387 C345.712836,69.3219747 345.715212,69.2267791 345.703065,69.147352 C345.692943,69.0811627 345.66273,68.9943378 345.612428,68.8868772 C345.562125,68.7794167 345.517117,68.7287231 345.477403,68.7347965 C344.88684,68.7709219 344.496441,68.6985381 344.306208,68.5176451 C344.115974,68.336752 343.971258,67.9219781 343.872059,67.2733232 L343.872059,67.2733232 L343.319377,63.6593891 C343.199933,62.8783557 342.821766,62.2215607 342.184876,61.6890039 C341.547986,61.1564471 340.733122,60.9660865 339.740283,61.117922 C339.065152,61.2211701 338.460648,61.4761869 337.92677,61.8829722 C337.392891,62.2897576 336.981033,62.8743205 336.691194,63.6366609 C336.397476,63.0448489 335.918816,62.6167947 335.255214,62.3524985 C334.591612,62.0882022 333.902389,62.0107149 333.187545,62.1200364 C332.631555,62.2050643 332.098341,62.4390181 331.587901,62.8218977 C331.077462,63.2047773 330.692586,63.7886007 330.433272,64.5733679 L330.433272,64.5733679 L330.241031,62.6519334 C330.230909,62.5857442 330.185395,62.5317411 330.104489,62.4899243 C330.023583,62.4481075 329.903703,62.4393459 329.744848,62.4636396 C329.678659,62.473762 329.602269,62.5057656 329.515677,62.5596505 C329.429085,62.6135354 329.367957,62.6567524 329.332293,62.6893015 C328.939049,62.9526525 328.380798,63.2886541 327.657541,63.6973063 C326.934284,64.1059586 326.362328,64.3966399 325.941675,64.5693504 C325.901961,64.5754238 325.873655,64.6339425 325.856756,64.7449066 C325.839858,64.8558706 325.836469,64.9444472 325.846592,65.0106365 C325.856714,65.0768258 325.885914,65.1570318 325.934193,65.2512545 C325.982471,65.3454772 326.027479,65.3961708 326.069217,65.4033352 C326.553878,65.3834056 326.871234,65.4432516 327.021288,65.5828734 C327.171341,65.7224951 327.286857,66.0570631 327.367836,66.5865772 L327.367836,66.5865772 L327.847636,69.7239486 C327.94886,70.3858413 327.938032,70.8244028 327.815151,71.0396331 C327.692271,71.2548635 327.344659,71.4401117 326.772316,71.5953778 C326.734627,71.6146891 326.707333,71.6798267 326.690434,71.7907907 C326.673535,71.9017547 326.670147,71.9903314 326.680269,72.0565207 C326.69444,72.1491856 326.725665,72.2426295 326.773943,72.3368522 C326.822222,72.4310749 326.866217,72.4751496 326.905931,72.4690761 C327.303067,72.4083419 327.77048,72.3199258 328.308171,72.2038277 C328.845862,72.0877297 329.33975,71.9952646 329.789837,71.9264325 C330.253162,71.8555759 330.715708,71.8017728 331.177476,71.7650231 C331.639243,71.7282734 332.075313,71.6785192 332.485686,71.6157605 C332.5254,71.6096871 332.553706,71.5511684 332.570605,71.4402043 C332.587504,71.3292403 332.58988,71.2340448 332.577733,71.1546176 C332.567611,71.0884284 332.537398,71.0016034 332.487096,70.8941429 C332.436793,70.7866823 332.391785,70.7359887 332.352071,70.7420621 C331.975338,70.7590338 331.716812,70.6630958 331.576493,70.4542481 C331.436174,70.2454004 331.318439,69.8298869 331.223289,69.2077078 L331.223289,69.2077078 L330.710085,65.8519119 C330.85415,65.2879816 331.020756,64.8493049 331.209905,64.5358817 C331.399053,64.2224585 331.698814,64.0343675 332.109188,63.9716089 C332.559275,63.9027767 332.912996,64.0010908 333.170353,64.2665509 C333.427709,64.532011 333.604974,64.9824496 333.702149,65.6178666 L333.702149,65.6178666 L334.181949,68.755238 C334.281149,69.4038928 334.296796,69.8384054 334.228891,70.0587756 C334.160987,70.2791459 333.939135,70.4451617 333.563335,70.5568228 C333.525646,70.5761341 333.498352,70.6412717 333.481453,70.7522357 C333.464554,70.8631998 333.461166,70.9517764 333.471288,71.0179657 C333.483435,71.0973928 333.514154,71.1875272 333.563444,71.2883688 C333.612735,71.3892105 333.657237,71.4365946 333.69695,71.4305212 C334.094086,71.3697869 334.548261,71.2833953 335.059476,71.1713462 C335.570691,71.0592971 336.057961,70.9678442 336.521286,70.8969877 C336.984611,70.8261311 337.377658,70.7829564 337.700428,70.7674637 C338.023198,70.751971 338.389769,70.7128452 338.800143,70.6500866 C338.839856,70.6440131 338.868669,70.5888039 338.88658,70.4844588 C338.904491,70.3801137 338.906361,70.2816087 338.892189,70.1889437 C338.882067,70.1227544 338.851854,70.0359295 338.801552,69.9284689 C338.751249,69.8210084 338.706241,69.7703148 338.666527,69.7763882 C338.289794,69.7933599 338.034578,69.6969158 337.900878,69.4870558 C337.767178,69.2771958 337.652752,68.8611763 337.557602,68.2389972 L337.557602,68.2389972 L337.010994,64.6647766 C337.214084,64.1324621 337.410942,63.736575 337.60157,63.4771155 C337.792197,63.2176559 338.125792,63.0514856 338.602355,62.9786045 C339.039204,62.9117969 339.359831,63.0151721 339.564236,63.2887301 C339.768641,63.5622882 339.919431,64.0167757 340.016606,64.6521926 L340.016606,64.6521926 L340.496406,67.789564 C340.595605,68.4382189 340.614562,68.8722253 340.553276,69.0915834 C340.491991,69.3109414 340.273448,69.476451 339.897648,69.5881122 C339.859959,69.6074234 339.832665,69.6725611 339.815766,69.7835251 C339.798867,69.8944891 339.795479,69.9830657 339.805601,70.049255 C339.819773,70.14192 339.850997,70.2353638 339.899276,70.3295866 C339.947554,70.4238093 339.99155,70.4678839 340.031263,70.4618105 C340.428399,70.4010763 340.852789,70.3192397 341.304434,70.2163007 C341.756079,70.1133618 342.213563,70.026464 342.676888,69.9556074 C343.140213,69.8847508 343.642473,69.8248743 344.183667,69.7759777 C344.724861,69.7270812 345.200645,69.6712536 345.611019,69.6084949 Z M351.407826,68.9788923 C353.125539,68.6955257 354.353504,68.0145116 355.091721,66.9358502 C355.829938,65.8571887 356.095509,64.6902321 355.888434,63.4349805 C355.676999,62.1533026 355.036411,61.1086871 353.966671,60.3011342 C352.89693,59.4935813 351.523023,59.2282185 349.84495,59.5050459 C348.127237,59.7884125 346.899239,60.4897912 346.160954,61.6091821 C345.422669,62.728573 345.157064,63.9158942 345.36414,65.1711458 C345.573395,66.4396106 346.206865,67.4616479 347.26455,68.2372578 C348.322234,69.0128676 349.703326,69.2600791 351.407826,68.9788923 Z M351.250884,68.0275437 C350.577012,68.1387106 350.080934,67.9083739 349.762648,67.3365336 C349.444363,66.7646933 349.179502,65.8379342 348.968067,64.5562562 C348.763171,63.3142178 348.715783,62.3481896 348.825904,61.6581717 C348.936024,60.9681538 349.32802,60.5675614 350.001892,60.4563945 C350.675764,60.3452276 351.171264,60.5926257 351.488392,61.1985888 C351.80552,61.8045519 352.068712,62.7417658 352.277967,64.0102306 C352.487223,65.2786954 352.533521,66.238117 352.416861,66.8884954 C352.300202,67.5388737 351.911543,67.9185565 351.250884,68.0275437 Z M365.403961,66.5631926 C365.496328,66.5471982 365.58584,66.5147095 365.672495,66.4657266 C365.759151,66.4167437 365.822272,66.3888249 365.861858,66.3819701 C366.261261,66.1768989 366.844258,65.9332411 367.610847,65.6509968 C368.377437,65.3687525 368.961833,65.172421 369.364035,65.0620025 C369.403622,65.0551477 369.433054,65.009278 369.452333,64.9243934 C369.471612,64.8395087 369.473255,64.7508825 369.45726,64.6585147 C369.445836,64.5925378 369.413918,64.506325 369.361508,64.3998764 C369.309098,64.2934279 369.263099,64.243631 369.223513,64.2504857 C368.675647,64.3045811 368.31156,64.2622958 368.131252,64.12363 C367.950943,63.9849641 367.811663,63.6319301 367.713412,63.0645282 L367.713412,63.0645282 L366.668063,57.0276354 C366.661208,56.9880492 366.606898,56.9294982 366.505134,56.8519824 C366.403369,56.7744666 366.296535,56.7657839 366.184631,56.8259343 C365.703771,57.0315197 364.981965,57.2584404 364.019216,57.5066966 C363.056466,57.7549528 362.357367,57.9167819 361.921919,57.9921842 C361.882333,57.9990389 361.855185,58.058104 361.840476,58.1693795 C361.825767,58.2806549 361.82641,58.3824765 361.842404,58.4748443 C361.856114,58.5540166 361.888031,58.6402294 361.938156,58.7334826 C361.988282,58.8267357 362.033138,58.8699349 362.072724,58.8630802 C362.61145,58.7562032 363.000785,58.787321 363.24073,58.9564334 C363.480675,59.1255458 363.649773,59.493803 363.748025,60.0612049 L363.748025,60.0612049 L364.402653,63.8416853 C364.312856,64.2649662 364.164308,64.6236695 363.957009,64.9177954 C363.749709,65.2119213 363.487715,65.3864033 363.171026,65.4412412 C362.722382,65.5189284 362.366921,65.4479674 362.104641,65.2283584 C361.842361,65.0087493 361.666665,64.6416346 361.577553,64.1270142 L361.577553,64.1270142 L360.52535,58.0505352 C360.518495,58.010949 360.460886,57.9529692 360.352524,57.8765959 C360.244162,57.8002225 360.134029,57.7921111 360.022125,57.8522615 C359.541264,58.0578469 358.827199,58.2902229 357.87993,58.5493895 C356.932661,58.8085561 356.234704,58.976983 355.786061,59.0546702 C355.746475,59.0615249 355.719327,59.12059 355.704618,59.2318655 C355.689909,59.3431409 355.690551,59.4449625 355.706546,59.5373303 C355.72254,59.629698 355.755029,59.7192096 355.804012,59.8058651 C355.852995,59.8925206 355.897279,59.9324209 355.936865,59.9255662 C356.462396,59.8209742 356.843992,59.8466366 357.081652,60.0025537 C357.319311,60.1584707 357.489552,60.5333256 357.592373,61.1271183 L357.592373,61.1271183 L358.14418,64.313806 C358.331544,65.3958283 358.753739,66.1857526 359.410767,66.6835789 C360.067795,67.1814051 360.910929,67.3412065 361.94017,67.1629831 C362.652721,67.0395976 363.236289,66.7992387 363.690873,66.4419063 C364.145457,66.0845739 364.477655,65.6091256 364.687468,65.0155613 L364.687468,65.0155613 L365.02635,66.3839408 C365.033204,66.423527 365.071462,66.4678687 365.141124,66.5169658 C365.210785,66.566063 365.298397,66.5814719 365.403961,66.5631926 Z M374.282807,64.9958371 C375.469053,64.7826045 376.381217,64.3124952 377.0193,63.5855095 C377.657382,62.8585237 377.892315,62.0271226 377.724098,61.0913062 C377.598528,60.392739 377.253662,59.8934663 376.6895,59.5934881 C376.125338,59.2935099 375.545142,59.0746505 374.948914,58.9369098 C374.410147,58.8160532 373.854645,58.677795 373.282409,58.5221354 C372.710172,58.3664757 372.383777,58.0645771 372.303222,57.6164397 C372.241622,57.2737464 372.30205,57.0043626 372.484507,56.8082884 C372.666965,56.6122143 372.955901,56.4786384 373.351316,56.4075608 C373.773093,56.3317448 374.209786,56.4335321 374.661396,56.7129228 C375.113007,56.9923134 375.465797,57.4221297 375.719769,58.0023715 C375.742426,58.0527243 375.802256,58.0827888 375.899258,58.0925651 C375.99626,58.1023413 376.090893,58.0989371 376.183156,58.0823523 C376.249059,58.0705061 376.335066,58.038038 376.441177,57.9849481 C376.547288,57.9318581 376.59679,57.8855424 376.589682,57.8460009 C376.50409,57.5212266 376.403098,57.1107789 376.286705,56.6146579 C376.170312,56.118537 376.086054,55.7254908 376.033931,55.4355195 C375.585793,55.5160741 375.120145,55.5181379 374.636987,55.4417109 C374.153828,55.3652839 373.595916,55.3839325 372.963252,55.4976566 C371.987894,55.6729812 371.138078,56.1114734 370.413804,56.8131331 C369.689531,57.5147929 369.400841,58.2742187 369.547735,59.0914105 C369.675674,59.8031582 370.016912,60.3200911 370.571447,60.6422093 C371.125983,60.9643275 371.70914,61.1996626 372.320917,61.3482145 C372.877604,61.4930629 373.428292,61.6423911 373.972983,61.796199 C374.517674,61.950007 374.829112,62.2443894 374.907297,62.6793463 C374.973636,63.0484007 374.926906,63.3561413 374.767106,63.6025683 C374.607306,63.8489953 374.329699,64.0077475 373.934283,64.0788251 C373.420243,64.1712259 372.874293,64.0482588 372.296433,63.7099237 C371.718573,63.3715886 371.228462,62.8780146 370.826101,62.2292017 C370.805813,62.1920294 370.74328,62.1658523 370.638503,62.1506704 C370.533727,62.1354885 370.435206,62.1361899 370.342943,62.1527747 C370.27704,62.164621 370.191033,62.197089 370.084922,62.250179 C369.978811,62.3032689 369.935899,62.3484 369.956188,62.3855723 C370.056295,62.6397055 370.194385,63.0672959 370.370457,63.6683435 C370.54653,64.2693911 370.683953,64.7311174 370.782726,65.0535225 C371.468112,64.9303214 372.011918,64.9278149 372.414141,65.0460031 C372.816365,65.1641912 373.439254,65.1474692 374.282807,64.9958371 Z" id="KissMe,ImSquamous" fill="#E578C0" fill-rule="nonzero"></path>
                </g>
            </g>
            <rect id="Rectangle" fill="#000000" x="1077" y="563" width="79" height="10" rx="5"></rect>
            <rect id="Rectangle" fill="#000000" x="1251" y="563" width="79" height="10" rx="5"></rect>
            <ellipse id="Oval" fill="#000000" cx="1208.5" cy="603.5" rx="28.5" ry="20.5"></ellipse>
            <ellipse id="Oval" fill="#FFFFFF" cx="1208.5" cy="595" rx="19.5" ry="10"></ellipse>
        </g>
    </g>
</svg>