<?xml version="1.0" encoding="UTF-8"?>
<svg width="1922px" height="1130px" viewBox="0 0 1922 1130" version="1.1" xmlns="http://www.w3.org/2000/svg" xmlns:xlink="http://www.w3.org/1999/xlink">
    <!-- Generator: Sketch 62 (91390) - https://sketch.com -->
    <title>Group 28</title>
    <desc>Created with Sketch.</desc>
    <defs>
        <filter x="-3.2%" y="-2.0%" width="106.5%" height="103.9%" filterUnits="objectBoundingBox" id="filter-1">
            <feOffset dx="0" dy="2" in="SourceAlpha" result="shadowOffsetOuter1"></feOffset>
            <feGaussianBlur stdDeviation="2" in="shadowOffsetOuter1" result="shadowBlurOuter1"></feGaussianBlur>
            <feColorMatrix values="0 0 0 0 0   0 0 0 0 0   0 0 0 0 0  0 0 0 0.5 0" type="matrix" in="shadowBlurOuter1" result="shadowMatrixOuter1"></feColorMatrix>
            <feMerge>
                <feMergeNode in="shadowMatrixOuter1"></feMergeNode>
                <feMergeNode in="SourceGraphic"></feMergeNode>
            </feMerge>
        </filter>
        <filter x="-1.9%" y="-4.4%" width="103.9%" height="108.7%" filterUnits="objectBoundingBox" id="filter-2">
            <feOffset dx="0" dy="2" in="SourceAlpha" result="shadowOffsetOuter1"></feOffset>
            <feGaussianBlur stdDeviation="2" in="shadowOffsetOuter1" result="shadowBlurOuter1"></feGaussianBlur>
            <feColorMatrix values="0 0 0 0 0   0 0 0 0 0   0 0 0 0 0  0 0 0 0.5 0" type="matrix" in="shadowBlurOuter1" result="shadowMatrixOuter1"></feColorMatrix>
            <feMerge>
                <feMergeNode in="shadowMatrixOuter1"></feMergeNode>
                <feMergeNode in="SourceGraphic"></feMergeNode>
            </feMerge>
        </filter>
        <path d="M1090.2525,645 C1225.85054,645 1299,585.14053 1299,452.039905 C1299,318.93928 1225.85054,163 1090.2525,163 C1046.50526,163 1033.62299,211.330689 1035.68836,228.294199 C1040.03074,263.959459 1060.88168,274.815315 1060.88168,309.264461 C1060.88168,347.417132 1035.68836,361.534705 1035.68836,391.408582 C1035.68836,430.533905 1060.88168,481.574403 1054.81895,502.996988 C1031.80283,584.324221 994.513907,645 1090.2525,645 Z" id="path-3"></path>
        <filter x="-5.2%" y="-2.9%" width="110.3%" height="105.8%" filterUnits="objectBoundingBox" id="filter-4">
            <feGaussianBlur stdDeviation="13" in="SourceAlpha" result="shadowBlurInner1"></feGaussianBlur>
            <feOffset dx="0" dy="2" in="shadowBlurInner1" result="shadowOffsetInner1"></feOffset>
            <feComposite in="shadowOffsetInner1" in2="SourceAlpha" operator="arithmetic" k2="-1" k3="1" result="shadowInnerInner1"></feComposite>
            <feColorMatrix values="0 0 0 0 0   0 0 0 0 0   0 0 0 0 0  0 0 0 0.5 0" type="matrix" in="shadowInnerInner1"></feColorMatrix>
        </filter>
    </defs>
    <g id="Page-1" stroke="none" stroke-width="1" fill="none" fill-rule="evenodd">
        <g id="Group-28">
            <g id="Group-6">
                <g id="2scene1-(2)">
                    <g id="Layer_3">
                        <polygon id="Path" fill="#FBFBFB" fill-rule="nonzero" points="1922 1082 0.5 1082 0.5 0.5 1921 0.5"></polygon>
                        <path d="M1046.54574,1124.13968 C1433.86152,1124.13968 1769.71823,1124.13968 1907.4696,1124.13968 C1969.6211,1124.13968 1862.05389,57.665218 919.683199,57.665218 C76.6652655,57.665218 -37.526892,1124.13968 9.882837,1124.13968 C443.381708,1124.13968 510.000424,1124.13968 1046.54574,1124.13968 Z" id="Oval" fill="#D5D5D5"></path>
                    </g>
                </g>
                <g id="Group-27" transform="translate(446.000000, 407.000000)">
                    <g id="Group-3" filter="url(#filter-1)" transform="translate(221.500000, 357.500000) scale(-1, 1) translate(-221.500000, -357.500000) ">
                        <path d="M389.515734,488.67175 C383.634185,551.144472 366.338185,600.06487 339.496784,632.181243 C337.766299,653.39102 336.145794,681.567106 338.130712,716.000198 L312.527259,716.00128 C311.935018,695.349452 312.880064,674.176238 314.84907,655.059061 C295.494208,668.672511 272.835887,675.841501 247.265447,675.841501 C236.588098,675.841501 226.253673,674.403964 216.32912,671.627466 C214.542496,683.705292 212.684103,698.540598 211.762808,716.000134 L192.120665,716.000299 C193.709872,697.862319 196.639892,680.148435 200.122769,665.742606 C158.031456,646.838283 124.804,602.332581 106.550479,540.750203 C105.519394,560.148436 104.704796,581.298864 104.704796,603.146578 C104.704796,640.052124 106.752792,668.212096 108.216944,688.347718 C108.607388,693.71726 108.956376,698.517179 109.214432,702.760691 C121.953466,702.798209 133.774272,703.892375 142.422072,708.699218 C142.975091,709.006612 143.586856,709.328607 144.231556,709.668053 C147.331482,711.300224 151.152405,713.333057 153.084614,716.000876 L92.4963504,716.002382 C83.798177,696.417313 75.7017528,655.697773 75.7017528,609.608111 C75.7017528,565.006606 84.0037817,501.608134 92.8237831,466.717156 C91.6296244,453.364365 91.0157868,439.537931 91.0157868,425.297754 C91.0157868,371.365308 78.0032182,246.658187 58.1253839,164.950599 C57.8048544,164.724449 57.5081435,164.614452 57.1488932,164.51601 C56.1458452,164.241154 54.7267737,164.108736 53.0437369,164.062614 C48.2013247,163.929915 41.2668127,164.545857 35.4507178,165.059922 C31.4800171,165.410879 28.0223057,165.714214 26.0672307,165.714214 C24.7874019,165.714214 23.3698822,165.790975 21.8842489,165.870836 C16.9737879,166.134801 11.3732027,166.381178 7.33066338,164.353401 C4.32414012,162.8453 2.09190124,160.144929 1.55439278,155.31059 C1.37683979,153.713683 1.89027761,152.094035 3.02649556,150.473165 C4.14553728,148.876798 5.88350052,147.265699 8.07920058,145.660811 C13.6174993,141.612738 22.1249495,137.547318 30.4934427,133.557073 C38.241794,129.862522 45.8691934,126.23343 50.8198778,122.722045 C52.6329247,121.4361 54.078878,120.175338 55.0031591,118.926888 C55.7192002,117.959713 56.1212069,117.012963 56.016774,116.066682 C55.9038442,115.04341 55.2061628,114.247866 54.1688523,113.575923 C52.7739463,112.67234 50.7754659,112.004815 48.3845747,111.484122 C41.6255153,110.01212 31.8236824,109.776952 23.0138155,109.558164 C12.1679534,109.288814 3.13515358,108.720135 1.71666112,106.596071 C-0.108144487,103.863591 -1,101.155595 -1,98.7087762 C-1,96.1565261 -0.0475791448,93.8673554 1.86372422,92.0725366 C5.31816701,88.828625 21.8709226,79.4045688 43.0858399,76.5260335 C55.1601329,74.8877392 71.5840431,75.9956163 85.0420952,76.9105659 C96.8413754,77.7127434 106.721026,78.7891365 108.043233,76.9361166 C108.186857,76.7348332 108.181504,76.4865996 108.121624,76.2164973 C108.008464,75.7060642 107.695842,75.1323038 107.242398,74.4919438 C106.094325,72.8706174 104.070691,70.9239643 101.472929,68.7608308 C94.2415024,62.7392848 82.6202101,55.1410439 72.420061,48.4687123 C61.2708266,41.1755456 51.9581033,34.8773381 51.2234439,32.8203527 C50.0395118,29.5054411 49.6880187,26.5527069 51.511946,24.2616001 C52.9201988,22.4926385 55.7286621,21.0480772 60.9337473,20.3011889 C77.2464356,17.9604477 112.976068,24.8123299 127.961042,28.5248803 C130.61196,29.1816492 136.479846,31.8253029 143.392054,34.953913 C152.271514,38.9729427 162.905258,43.7906408 170.55797,46.0663476 C173.24808,46.8663128 175.554574,47.3538694 177.258292,47.3463919 C177.913017,47.3435183 178.465775,47.2717887 178.889947,47.0847024 C179.141874,46.9735871 179.339717,46.8196708 179.440899,46.5848616 C179.67661,46.0378573 179.244571,45.2072976 178.656443,44.2134647 C177.80855,42.7806726 176.401697,41.0379843 174.55245,39.0829138 C170.761431,35.074951 165.134219,30.212907 158.545889,25.3513195 C155.202493,22.8841972 151.27445,20.7370899 147.584282,18.716572 C143.561193,16.5137663 139.81724,14.4520881 137.343389,12.3181434 C135.243535,10.5068085 134.058277,8.61882808 134.058277,6.6202376 C134.058277,5.14690262 134.441818,3.95525395 135.100458,2.98441712 C135.809728,1.93895339 136.849888,1.14377759 138.139402,0.559391952 C141.111878,-0.787683723 145.489344,-0.986767841 149.663387,-0.999179346 L150.253675,-1 C177.306929,-1 224.431867,11.5142814 248.114951,49.6483378 C260.942278,70.3026594 271.495671,101.080525 282.427768,133.000692 C289.510824,153.682206 296.757025,174.842928 304.900722,194.018673 C311.833477,210.343046 319.624017,227.67047 327.617792,245.450123 C349.928273,295.072811 373.813867,348.214615 385.103385,392.925666 C398.427257,417.755133 416.111221,470.365295 424.594713,518.447599 C432.310274,562.177476 432.460749,602.409779 428.547419,625.474266 C438.348931,642.009983 444.338778,668.618506 443.982871,673.770525 C443.898276,674.995115 443.708501,677.027973 443.029781,678.510993 C442.460809,679.754214 441.571218,680.604723 440.336079,680.766565 C439.247477,680.921071 438.153131,681.026332 436.907238,680.313676 C436.112101,679.858853 435.233159,679.047814 434.340954,677.571975 C431.663024,673.142284 429.585162,668.571834 427.808022,664.658769 C426.009299,660.698179 424.550487,657.421621 423.047989,655.7578 C422.616901,655.280426 422.202165,654.93426 421.739593,654.867481 C421.357651,654.812342 420.979486,654.989679 420.570863,655.315125 C418.23353,657.17668 418.217973,667.896265 418.018314,675.401028 C417.929255,678.748547 417.849634,681.546926 417.639069,682.901901 C417.419276,684.316248 417.3512,685.651314 417.287344,686.876921 C417.161039,689.301139 416.994811,691.318128 416.03115,692.792429 C415.226476,694.023496 413.901011,694.950696 411.520325,695.370476 C410.208372,695.601808 409.094465,695.551479 408.153286,695.237027 C407.161042,694.905514 406.341507,694.286329 405.685874,693.337812 C404.555065,691.701846 403.921928,688.961333 403.752937,684.886561 C403.649418,682.390489 403.690279,679.366023 403.732363,676.298786 C403.796249,671.642593 403.868026,666.885256 403.409524,663.793576 C403.257244,662.766751 403.06108,661.939645 402.750177,661.416047 C401.902157,661.27172 400.913079,662.78899 399.528524,664.499651 C396.78646,667.887558 392.947508,672.569406 388.699201,674.579387 C387.706094,675.049251 386.719888,675.198907 385.788376,675.111237 C384.769323,675.015328 383.812652,674.632351 382.984176,674.050103 C381.216317,672.807662 380.060963,670.656975 380.098721,668.615831 C380.186031,663.895887 384.22813,658.693787 388.23647,653.698573 C392.13642,648.838436 396.273248,644.129223 394.871804,640.311855 C394.745256,639.967153 394.665928,639.580189 394.589606,639.183057 C394.485982,638.643869 394.474571,637.983723 393.882613,637.652665 C393.377794,637.370341 392.567946,637.326148 391.293391,637.511037 C388.843129,637.866474 385.996287,638.878952 383.195506,639.866793 C380.110041,640.955041 377.077405,642.010914 374.642255,642.255109 C372.500831,642.469849 370.80842,642.050081 369.714913,640.8374 C368.584704,639.584016 367.971642,638.347256 367.730727,637.149791 C367.455766,635.783092 367.660406,634.452758 368.211142,633.172578 C369.564538,630.026624 373.145992,627.184097 376.06274,624.924468 C376.638661,624.478297 377.185182,624.055028 377.676386,623.656333 C385.079269,617.647647 395.982105,614.52298 407.654259,612.341156 C407.415786,610.125751 407.169629,607.798 406.911546,605.35746 C404.687308,584.324168 401.576527,554.904293 394.855818,516.812989 C393.108161,506.907706 391.312253,497.526104 389.515734,488.67175 Z" id="Combined-Shape" stroke="#000000" stroke-width="2" fill="#F3A7A7"></path>
                        <g id="Group-2" transform="translate(105.000000, 198.000000)">
                            <path d="M1.03606758,108.379972 C0.679068805,101.336794 2.94341896,91.0860934 7.6505773,78.396538 C7.89392605,77.7405186 8.13250908,77.0968147 8.36660126,76.4652273 C13.0097761,63.9378081 15.8485655,56.2145398 19.1122106,51.7319871 C21.827966,48.0019501 24.8502412,46.6769781 29.5921271,46.6769781 C32.1021177,46.6769781 34.2655829,47.5993207 36.0357579,49.3130655 C37.9343151,51.1510999 39.3808429,53.8705059 40.3588774,57.3054622 C42.3443978,64.278811 42.379299,74.1399535 40.0895711,85.798615 C38.066355,96.1002722 33.823941,103.661445 28.7605926,108.88724 C22.433296,115.417534 14.8352003,118.293783 8.80359894,118.293783 C6.41941969,118.293783 4.58032925,117.496672 3.30652989,115.918172 C1.92616043,114.20761 1.20194983,111.65264 1.03606758,108.379972 Z" id="Oval" stroke="#000000" stroke-width="2" fill="#AD6161"></path>
                            <path d="M127.017414,77.8806691 C124.634027,77.8812537 122.795717,77.0845572 121.522715,75.5062287 C120.143046,73.795649 119.419656,71.2403345 119.254611,67.9670365 C118.89941,60.9224227 121.165816,50.6689551 125.87517,37.9754939 C126.11863,37.3192798 126.357322,36.675385 126.591521,36.0436102 C131.23686,23.5123488 134.077005,15.7867332 137.341109,11.302415 C140.057246,7.57090866 143.079211,6.24477251 147.820218,6.24360957 C150.329458,6.24299406 152.492051,7.16490553 154.261276,8.87840912 C156.15896,10.716325 157.604465,13.4358928 158.581437,16.8712502 C160.564856,23.8456107 160.59733,33.7088529 158.305192,45.3705851 C156.279823,55.6750691 152.036332,63.2389828 146.972644,68.4671985 C140.645031,75.0004058 133.047805,77.8791899 127.017414,77.8806691 Z" id="Oval" stroke="#000000" stroke-width="2" fill="#AD6161" transform="translate(139.632140, 42.062139) scale(1, -1) rotate(40.000000) translate(-139.632140, -42.062139) "></path>
                            <ellipse id="Oval" fill="#000000" cx="59.1102605" cy="175.795314" rx="12.4442654" ry="17.1023428"></ellipse>
                            <ellipse id="Oval" fill="#000000" cx="139.997985" cy="119.824011" rx="12.4442654" ry="17.1023428"></ellipse>
                            <ellipse id="Oval" fill="#FFFFFF" cx="63.7768601" cy="166.466764" rx="4.66659952" ry="4.6642753"></ellipse>
                            <ellipse id="Oval" fill="#FFFFFF" cx="144.664585" cy="110.49546" rx="4.66659952" ry="4.6642753"></ellipse>
                        </g>
                    </g>
                    <g id="Group-5" filter="url(#filter-2)" transform="translate(404.000000, 394.000000)">
                        <path d="M717.916465,262.227847 L467.721124,262.245623 C467.754447,271.821375 467.745658,281.897601 467.73655,292.334532 C467.73223,297.284522 467.727839,302.315665 467.727839,307.413045 C467.727839,312.342207 467.731945,317.209433 467.736122,322.001232 L433.231611,322.000615 C433.148646,317.208916 433.106083,312.341907 433.106083,307.413045 C433.106083,291.569277 433.545898,276.364576 434.353614,262.245685 L283.343298,262.244243 C283.948343,279.658333 284.071452,300.098407 284.078836,322.000372 L249.516591,322.000077 C249.586858,300.101966 250.692594,279.663494 252.562551,262.244243 L16.2452168,262.24632 C12.0107094,262.24632 8.26061601,260.632892 5.34049535,257.809747 C2.43714055,255.002811 0.353201803,250.986642 -0.529972413,246.159194 C-2.03486281,237.933433 -0.0529896282,227.312822 7.32912995,216.466817 C17.4390822,201.613007 37.733403,186.280241 73.1391821,176.294942 C108.479961,166.327975 135.501804,163.661252 152.697234,161.965227 C159.150104,161.328765 164.205018,160.834612 167.778801,160.132714 C165.146902,156.860282 162.343157,153.666287 159.324741,150.68095 C145.204153,136.715106 133.696913,122.283832 126.501533,110.245745 C122.79562,104.045642 120.230268,98.4699633 119.017221,93.9064673 C117.760914,89.1802277 117.985792,85.5135171 119.644078,83.1880972 C120.495772,81.9937642 121.68329,81.1723168 123.180621,80.7199307 C124.600048,80.2910816 126.313074,80.1989413 128.283959,80.4506756 C132.083902,80.9360293 136.899247,82.7096709 142.404318,85.6284662 C152.756316,91.1171079 165.609985,100.666808 178.770867,113.074872 C188.148372,76.8449334 209.175824,49.4189953 236.869073,30.5446575 C267.88533,9.40552287 307.276165,-1 348.021338,-1 C387.528594,-1 421.680421,10.0284955 449.462838,30.7451267 C477.254448,51.4686135 498.678708,81.8965452 512.685737,120.72481 C513.823617,119.702998 514.956603,118.638925 516.079024,117.5291 C528.973778,104.77905 541.675034,94.6768373 551.781154,88.643993 C557.018614,85.5174933 561.575779,83.4798508 565.121211,82.6970457 C566.974504,82.2878526 568.56988,82.2186355 569.868278,82.4791009 C571.300681,82.7664484 572.399237,83.4442847 573.149855,84.4969528 C574.506639,86.3997104 574.587172,89.5545191 573.252052,93.741559 C571.991492,97.6947753 569.510953,102.593756 566.011315,108.093858 C559.220778,118.766003 548.579613,131.740729 535.691681,144.484034 C531.540267,148.588861 527.790013,153.065042 524.337258,157.545317 C529.72063,159.470492 546.980741,160.957692 568.006838,162.850405 C599.947953,165.725659 640.545753,169.392685 662.277231,176.304437 C688.787909,184.736227 705.345455,198.929806 714.914162,213.303189 C721.908014,223.808822 725.172638,234.42282 725.859494,242.999699 C726.285408,248.318143 725.717477,252.864748 724.450728,256.154868 C723.759743,257.94956 722.856805,259.382129 721.80213,260.397563 C720.668227,261.489277 719.355512,262.114427 717.916465,262.227847 Z" id="Combined-Shape" stroke="#000000" stroke-width="2" fill="#99CAF4"></path>
                        <ellipse id="Oval" fill="#000000" cx="244.5" cy="117" rx="10.5" ry="12"></ellipse>
                        <ellipse id="Oval" fill="#000000" cx="456.5" cy="113" rx="10.5" ry="12"></ellipse>
                        <ellipse id="Oval" fill="#FFFFFF" cx="462" cy="108.5" rx="4" ry="4.5"></ellipse>
                        <ellipse id="Oval" fill="#FFFFFF" cx="249" cy="113.5" rx="4" ry="4.5"></ellipse>
                    </g>
                    <g id="Group-17" transform="translate(494.424777, 498.276181)">
                        <path d="M253.199494,130.744104 C184.220464,131.619366 100.856987,110.372707 3.12111236,67.0521379 C17.7391516,63.6449627 29.7837079,61.4166603 39.2552492,60.3701796 C42.0153116,60.0652291 47.2593699,59.2364537 52.8754445,58.3481751 C58.065162,57.5273322 63.5742137,56.6558434 67.7192606,56.1051353 C69.7109899,55.8405154 70.7697636,55.6075148 71.2992402,55.4041777 C72.1016191,55.0960368 72.251177,54.7038282 72.3278091,54.444038 C72.3730616,54.2906279 72.4220161,54.0846333 72.3486973,53.7979245 C64.2031629,43.0844861 58.0211359,35.3061429 53.3049213,29.6994933 C61.0614154,19.2968166 67.2266749,11.6929314 71.8041677,6.89088227 C74.0800384,4.50336499 75.9479996,2.81970227 77.4178611,1.85250966 C78.0541592,1.43381523 78.5986053,1.15534261 79.0615561,1.04390246 C79.2679912,0.994209995 79.4582748,0.952770429 79.5992648,1.04920738 C85.8931571,5.35422084 91.9046049,9.93023451 97.5892203,14.2569742 C103.798377,18.9829585 109.620306,23.4126673 114.995822,26.8789289 C143.132837,45.0223502 191.044415,69.6306722 253.159291,72.9206007 C308.307119,75.841518 366.47719,50.5783417 393.89235,34.2281882 C398.486129,31.4885002 403.856225,27.4092169 408.981415,23.5127754 C416.663474,17.672466 423.921173,11.6710335 426.520955,12.7105143 C439.773587,18.009364 441.733821,19.1797745 443.457157,20.2159382 C445.157692,21.2383927 446.63123,22.1337204 458.123233,26.5735822 C457.987689,26.7896263 457.84252,26.9901227 457.675796,27.2152078 C456.848458,28.3321475 455.535999,29.9799211 453.739149,32.1590896 C450.119437,36.5489729 444.546576,43.0786293 437.020733,51.7481982 C436.51362,52.3323781 436.014881,52.9064131 435.52604,53.470091 C436.287254,53.443889 437.045253,53.4216734 437.800039,53.4034447 C447.446222,53.1704811 457.648156,53.5625846 468.405865,54.5789603 C478.647556,55.5465833 493.603547,58.0670476 513.272525,62.1447827 C408.872579,106.989431 322.183665,129.868778 253.199494,130.744104 Z" id="Rectangle" stroke="#000000" stroke-width="2" fill="#DCDCDC"></path>
                        <path d="M164.855028,92.0530581 C164.894206,92.061953 164.941238,92.0211338 164.996124,91.9306005 C165.05101,91.8400673 165.08883,91.7490928 165.109584,91.6576769 C165.124409,91.5923798 165.128098,91.5005225 165.120652,91.3821051 C165.113206,91.2636877 165.089893,91.2000316 165.050715,91.1911367 C164.654768,91.0600449 164.315789,90.8594914 164.033778,90.5894763 C163.751767,90.3194612 163.514547,89.9428885 163.322119,89.4597582 L163.322119,89.4597582 L160.226354,81.7738993 L163.13033,79.961344 C163.624121,79.6614751 164.189896,79.4225804 164.827657,79.2446596 C165.465418,79.0667389 166.158857,79.0216191 166.907974,79.1093001 C166.947152,79.1181949 166.998191,79.0748521 167.061088,78.9792717 C167.123986,78.8836912 167.16433,78.7967228 167.18212,78.7183663 C167.202852,78.6269504 167.208046,78.5285634 167.197635,78.4232054 C167.187223,78.3178474 167.162429,78.260721 167.12325,78.2518261 C166.849003,78.1895621 166.522076,78.1325037 166.14247,78.080651 C165.762865,78.0287984 165.364111,77.9554327 164.94621,77.8605542 C164.436893,77.7449209 163.859455,77.5966562 163.213897,77.4157599 C162.568338,77.2348636 162.01049,77.0910463 161.540351,76.9843079 C161.501172,76.975413 161.453399,77.0194971 161.397031,77.11656 C161.340663,77.2136229 161.303584,77.3013326 161.285794,77.3796891 C161.270969,77.4449862 161.268021,77.5335786 161.27695,77.6454663 C161.285879,77.757354 161.30845,77.824275 161.344664,77.8462293 C161.789883,78.0022403 162.091308,78.1565031 162.248938,78.3090175 C162.406567,78.4615319 162.46611,78.6226753 162.427566,78.7924477 C162.397916,78.9230418 162.339324,79.0298993 162.25179,79.1130201 C162.164256,79.196141 162.048379,79.2831264 161.90416,79.3739766 L161.90416,79.3739766 L157.353205,82.0897372 C157.096815,82.2512485 156.879586,82.3461218 156.701518,82.3743569 C156.523451,82.4025921 156.310353,82.3885426 156.062224,82.3322084 L156.062224,82.3322084 L156.916131,78.571097 C157.040659,78.0226016 157.243136,77.6600273 157.523563,77.4833743 C157.803989,77.3067213 158.40513,77.2749777 159.326984,77.3881437 C159.366162,77.3970386 159.414677,77.3496897 159.472527,77.2460971 C159.530378,77.1425044 159.566716,77.0580596 159.581541,76.9927625 C159.59933,76.914406 159.603761,76.8192839 159.594832,76.7073962 C159.585903,76.5955085 159.561849,76.5351172 159.522671,76.5262224 C158.88276,76.3809396 158.206494,76.2445686 157.493873,76.1171096 C156.781252,75.9896506 156.124575,75.8577271 155.523842,75.7213392 C154.923109,75.5849512 154.277109,75.4211205 153.585843,75.2298468 C152.894577,75.0385732 152.228988,74.870295 151.589077,74.7250122 C151.549898,74.7161173 151.502866,74.7569365 151.447981,74.8474697 C151.393095,74.938003 151.355275,75.0289775 151.33452,75.1203934 C151.319695,75.1856905 151.316747,75.2742829 151.325676,75.3861706 C151.334605,75.4980583 151.357176,75.5649793 151.39339,75.5869336 C152.385339,75.9357348 152.937733,76.2396714 153.050572,76.4987434 C153.16341,76.7578154 153.159048,77.1550694 153.037485,77.6905054 L153.037485,77.6905054 L151.085062,86.2901299 C150.963499,86.8255659 150.755233,87.1833928 150.460265,87.3636106 C150.165296,87.5438284 149.628712,87.5936616 148.850511,87.5131101 C148.808368,87.5172746 148.759112,87.5678884 148.702744,87.6649513 C148.646376,87.7620142 148.610779,87.8431942 148.595955,87.9084913 C148.575223,87.9999072 148.570028,88.0982942 148.58044,88.2036522 C148.590851,88.3090102 148.615646,88.3661366 148.654824,88.3750315 C149.294735,88.5203142 149.941618,88.650014 150.595471,88.7641307 C151.249325,88.8782475 151.876618,89.0034998 152.477351,89.1398877 C153.078084,89.2762757 153.675111,89.4289879 154.268432,89.5980243 C154.861752,89.7670608 155.478368,89.9242204 156.11828,90.0695032 C156.157458,90.0783981 156.205231,90.034314 156.261599,89.9372511 C156.317967,89.8401882 156.355046,89.7524785 156.372836,89.674122 C156.387661,89.6088249 156.39135,89.5169677 156.383904,89.3985503 C156.376457,89.2801329 156.353145,89.2164767 156.313967,89.2075818 C155.57431,88.957258 155.134704,88.6857944 154.995146,88.3931912 C154.855589,88.100588 154.84511,87.6930981 154.963708,87.1707215 L154.963708,87.1707215 L155.817615,83.4096101 C156.196338,83.4955938 156.466738,83.6050483 156.628815,83.7379736 C156.790893,83.8708988 156.920038,84.0581441 157.016253,84.2997092 L157.016253,84.2997092 L158.751606,88.3602917 C158.830597,88.5567487 158.880345,88.7156684 158.900851,88.8370507 C158.921356,88.9584331 158.922714,89.0583025 158.904925,89.136659 C158.863415,89.3194908 158.753186,89.4420898 158.574235,89.5044559 C158.395285,89.5668221 158.13812,89.5805323 157.80274,89.5455867 C157.760597,89.5497513 157.714606,89.6011062 157.664767,89.6996516 C157.614929,89.7981971 157.582597,89.8801183 157.567772,89.9454154 C157.549983,90.0237719 157.545552,90.118894 157.554481,90.2307817 C157.56341,90.3426694 157.587464,90.4030606 157.626642,90.4119555 C158.266553,90.5572383 158.955879,90.6965742 159.694618,90.8299631 C160.433358,90.9633521 161.103094,91.0982405 161.703827,91.2346284 C162.30456,91.3710163 162.819966,91.5051976 163.250044,91.6371721 C163.680122,91.7691466 164.215117,91.9077753 164.855028,92.0530581 Z M170.572231,82.2309418 C171.057151,82.3327653 171.513693,82.2438986 171.941857,81.9643416 C172.370021,81.6847847 172.636391,81.2959932 172.740967,80.7979672 C172.84279,80.3130472 172.753924,79.8565051 172.474367,79.4283409 C172.19481,79.0001767 171.812571,78.7351829 171.327651,78.6333594 C170.842731,78.5315359 170.386189,78.6204026 169.958025,78.8999596 C169.529861,79.1795165 169.264867,79.561755 169.163043,80.0466751 C169.058468,80.544701 169.145959,81.0077961 169.425515,81.4359603 C169.705072,81.8641245 170.087311,82.1291183 170.572231,82.2309418 Z M171.461616,93.4400026 C171.500933,93.4482586 171.547983,93.4034028 171.602764,93.3054352 C171.657544,93.2074676 171.693191,93.1191659 171.709703,93.0405302 C171.723462,92.9750005 171.725656,92.8830954 171.716283,92.7648149 C171.70691,92.6465344 171.682565,92.5832661 171.643247,92.5750102 C171.179689,92.4366208 170.866454,92.2340097 170.703542,91.9671768 C170.540631,91.700344 170.523847,91.2589378 170.65319,90.6429583 L170.65319,90.6429583 L171.301283,87.5565078 C171.394851,87.1109056 171.530093,86.5645838 171.70701,85.9175424 C171.883927,85.2705011 172.033651,84.7203783 172.156183,84.2671741 C172.183049,84.2043964 172.165944,84.1392276 172.10487,84.0716679 C172.043795,84.0041082 171.934622,83.9538165 171.77735,83.9207926 C171.711821,83.9070327 171.629057,83.9101797 171.529059,83.9302336 C171.429062,83.9502876 171.356652,83.9692925 171.31183,83.9872484 C170.835302,84.1061281 170.1729,84.2304502 169.324624,84.3602148 C168.476347,84.4899795 167.723906,84.5543439 167.067301,84.553308 C167.027983,84.545052 166.980934,84.5899079 166.926153,84.6878755 C166.871372,84.7858431 166.837102,84.8675918 166.823342,84.9331215 C166.809582,84.9986512 166.808764,85.0840034 166.820889,85.189178 C166.833014,85.2943525 166.85736,85.3576208 166.893926,85.3789827 C167.367838,85.5332299 167.689853,85.7103171 167.859971,85.9102443 C168.03009,86.1101714 168.060109,86.4722539 167.95003,86.9964918 L167.95003,86.9964918 L167.330833,89.9453298 C167.198738,90.5744153 167.009103,90.9724777 166.761929,91.1395171 C166.514755,91.3065564 166.143204,91.3653763 165.647276,91.3159766 C165.605206,91.3208266 165.556781,91.3722354 165.502,91.470203 C165.447219,91.5681706 165.412949,91.6499193 165.399189,91.715449 C165.382677,91.7940847 165.379796,91.8892663 165.390545,92.0009938 C165.401294,92.1127214 165.426327,92.1727131 165.465645,92.1809691 C165.858823,92.2635286 166.327524,92.3448417 166.871748,92.4249083 C167.415972,92.5049748 167.910885,92.5917919 168.356487,92.6853594 C168.815195,92.7816789 169.345823,92.9102048 169.948369,93.070937 C170.550916,93.2316692 171.055331,93.3546911 171.461616,93.4400026 Z M176.002741,94.6240476 C177.185128,94.8577292 178.205881,94.7523232 179.064999,94.3078294 C179.924116,93.8633357 180.44585,93.1747025 180.630199,92.2419299 C180.767811,91.5456348 180.628584,90.9550234 180.212518,90.4700956 C179.796453,89.9851678 179.335897,89.5699394 178.830853,89.2244104 C178.373166,88.9155425 177.906236,88.5843717 177.430063,88.230898 C176.95389,87.8774242 176.759943,87.4773475 176.848223,87.0306676 C176.915731,86.6890889 177.070165,86.4602454 177.311525,86.3441371 C177.552885,86.2280288 177.870629,86.2089216 178.264758,86.2868155 C178.685163,86.3699023 179.054742,86.6238173 179.373497,87.0485605 C179.692251,87.4733036 179.864166,88.0021216 179.889243,88.6350142 C179.891995,88.6901612 179.936756,88.73996 180.023527,88.7844105 C180.110297,88.8288611 180.199664,88.860174 180.291628,88.8783492 C180.357316,88.8913315 180.449241,88.8924356 180.567402,88.8816614 C180.685563,88.8708872 180.748538,88.8457937 180.756327,88.8063808 C180.794964,88.4727468 180.850477,88.0537181 180.922867,87.5492948 C180.995258,87.0448714 181.060014,86.6481457 181.117136,86.3591176 C180.670456,86.2708378 180.236071,86.1030831 179.81398,85.8558534 C179.391888,85.6086238 178.86554,85.4226938 178.234933,85.2980636 C177.262747,85.1059253 176.311577,85.2046072 175.381423,85.5941093 C174.451269,85.9836113 173.905702,86.5856293 173.744721,87.4001631 C173.604512,88.1095958 173.733924,88.7153311 174.132958,89.2173689 C174.531992,89.7194067 174.989301,90.1510571 175.504887,90.5123203 C175.970519,90.8500599 176.428933,91.1897857 176.880128,91.5314976 C177.331324,91.8732096 177.514081,92.2608367 177.428397,92.6943789 C177.355696,93.0622329 177.200042,93.3317876 176.961434,93.5030429 C176.722826,93.6742982 176.406457,93.720979 176.012328,93.6430851 C175.49996,93.541823 175.036353,93.2283725 174.621508,92.7027335 C174.206662,92.1770946 173.930101,91.5388647 173.791823,90.7880439 C173.786474,90.7460345 173.73778,90.698871 173.645739,90.6465535 C173.553697,90.5942359 173.461695,90.5589895 173.369732,90.5408142 C173.304043,90.5278319 173.212119,90.5267279 173.093958,90.537502 C172.975796,90.5482762 172.91939,90.574668 172.924738,90.6166774 C172.92536,90.8898161 172.898147,91.3383268 172.843099,91.9622095 C172.788052,92.5860921 172.747779,93.0661487 172.72228,93.4023792 C173.405438,93.5373952 173.912768,93.7332173 174.244272,93.9898452 C174.575775,94.2464732 175.161932,94.457874 176.002741,94.6240476 Z M185.376415,96.4031953 C186.562236,96.6187785 187.581259,96.4977841 188.433482,96.0402119 C189.285706,95.5826397 189.796854,94.886113 189.966925,93.9506318 C190.09388,93.2523149 189.945643,92.6639003 189.522214,92.1853881 C189.098785,91.7068759 188.631937,91.2987349 188.121671,90.9609651 C187.659317,90.6591284 187.18738,90.3351326 186.70586,89.9889778 C186.224341,89.642823 186.024302,89.2457571 186.105745,88.7977802 C186.168024,88.4552097 186.318943,88.2240326 186.5585,88.104249 C186.798057,87.9844654 187.115472,87.9605042 187.510746,88.0323653 C187.932371,88.1090171 188.305788,88.357254 188.630997,88.7770759 C188.956205,89.1968977 189.136183,89.7230264 189.17093,90.3554619 C189.174524,90.4105604 189.220041,90.4596692 189.307481,90.5027884 C189.394921,90.5459076 189.484756,90.575851 189.576986,90.5926185 C189.642865,90.6045954 189.734796,90.6042944 189.852779,90.5917156 C189.970761,90.5791367 190.033346,90.5530836 190.040532,90.5135563 C190.074064,90.1793707 190.123167,89.7595426 190.187839,89.2540718 C190.252512,88.748601 190.311197,88.3509319 190.363895,88.0610645 C189.915919,87.9796219 189.47902,87.8185257 189.0532,87.577776 C188.627379,87.3370262 188.09825,87.1591625 187.465812,87.0441847 C186.490803,86.8669274 185.541253,86.980135 184.61716,87.3838076 C183.693068,87.7874802 183.156765,88.3977661 183.008252,89.2146651 C182.878902,89.9261578 183.017557,90.5298445 183.424217,91.025725 C183.830877,91.5216055 184.294731,91.9462162 184.815778,92.2995572 C185.286517,92.6301408 185.750069,92.9628208 186.206435,93.2975969 C186.662801,93.6323731 186.85146,94.0171618 186.772413,94.4519629 C186.705342,94.820885 186.553826,95.0927872 186.317863,95.2676693 C186.0819,95.4425514 185.766282,95.4940619 185.371008,95.4222008 C184.857152,95.3287814 184.388809,95.0224531 183.965979,94.5032158 C183.543148,93.9839785 183.256864,93.35005 183.107127,92.6014304 C183.101138,92.5595076 183.051728,92.5130939 182.958898,92.4621891 C182.866068,92.4112844 182.773538,92.3774482 182.681307,92.3606806 C182.615428,92.3487038 182.523497,92.3490047 182.405515,92.3615836 C182.287532,92.3741624 182.231535,92.4014132 182.237525,92.4433359 C182.242321,92.7164333 182.221966,93.1653075 182.17646,93.7899586 C182.130954,94.4146097 182.098023,94.8952258 182.077666,95.2318066 C182.762807,95.3563659 183.273072,95.5444112 183.608458,95.7959426 C183.943845,96.0474741 184.533164,96.2498916 185.376415,96.4031953 Z M207.548806,99.9167439 C207.694776,99.9365667 207.830179,99.9346826 207.955014,99.9110914 C208.07985,99.8875003 208.150705,99.8633358 208.167579,99.8385979 L208.167579,99.8385979 L214.062132,89.124577 L213.252674,97.7721658 C213.2204,98.3083704 213.051127,98.6840659 212.744853,98.8992525 C212.438579,99.1144391 211.921748,99.2131861 211.194357,99.1954935 C211.152745,99.2033572 211.108144,99.2581163 211.060552,99.3597708 C211.012961,99.4614253 210.98466,99.5454274 210.975649,99.6117772 C210.963035,99.7046669 210.969875,99.8035772 210.996169,99.9085081 C211.022463,100.013439 211.055515,100.068608 211.095325,100.074014 C211.745553,100.162316 212.394716,100.23358 213.042814,100.287806 C213.690912,100.342032 214.32017,100.410592 214.930588,100.493488 C215.541007,100.576384 216.182347,100.680372 216.85461,100.805453 C217.526872,100.930534 218.188117,101.037225 218.838345,101.125527 C218.878155,101.130933 218.918538,101.082359 218.959495,100.979803 C219.000452,100.877248 219.026336,100.78616 219.037149,100.70654 C219.046159,100.640191 219.041736,100.548366 219.023878,100.431066 C219.006021,100.313766 218.977188,100.252413 218.937378,100.247007 C218.151993,100.059262 217.653673,99.8226563 217.442418,99.5371886 C217.231163,99.251721 217.148308,98.8417859 217.193851,98.3073834 L217.193851,98.3073834 L217.962517,89.5123507 C218.00806,88.9779483 218.177333,88.6022527 218.470337,88.3852641 C218.763341,88.1682754 219.280173,88.0695284 220.020833,88.089023 C220.060643,88.0944293 220.101476,88.0425371 220.143334,87.9333467 C220.185192,87.8241562 220.210626,87.736386 220.219636,87.6700363 C220.230449,87.5904165 220.226476,87.4952742 220.207717,87.3846093 C220.188959,87.2739445 220.159675,87.2159089 220.119865,87.2105027 C219.721766,87.1564403 219.24843,87.1090539 218.699857,87.0683436 L218.379741,87.0431162 C217.964958,87.0084116 217.598328,86.9694344 217.279849,86.9261844 C216.93483,86.8793304 216.495856,86.8028238 215.962928,86.6966647 C215.43,86.5905056 214.911407,86.5031865 214.407148,86.4347075 L214.407148,86.4347075 L209.701975,94.958693 L207.301086,85.4696939 C206.876447,85.4120274 206.353349,85.3578832 205.731791,85.3072614 C205.110232,85.2566396 204.613674,85.2060996 204.242115,85.1556414 C203.950176,85.1159956 203.52779,85.0417416 202.974957,84.9328794 C202.422124,84.8240172 201.979833,84.74706 201.648084,84.7020081 C201.608274,84.6966018 201.558389,84.7405074 201.498429,84.8337248 C201.438468,84.9269422 201.402181,85.0199958 201.389566,85.1128855 C201.380556,85.1792353 201.382112,85.2672921 201.394235,85.3770559 C201.406359,85.4868197 201.431424,85.5510397 201.469432,85.5697159 C202.226475,85.7671262 202.728563,86.0008653 202.975696,86.2709333 C203.222828,86.5410012 203.288646,86.9520012 203.173149,87.5039331 L203.173149,87.5039331 L201.170377,96.1313724 C201.04161,96.6815023 200.812171,97.052406 200.482061,97.2440835 C200.15195,97.435761 199.589124,97.5248832 198.793582,97.5114502 C198.75197,97.519314 198.701634,97.566537 198.642575,97.6531195 C198.583515,97.7397019 198.547678,97.8294379 198.535064,97.9223277 C198.526053,97.9886774 198.527159,98.0800517 198.538382,98.1964505 C198.549604,98.3128493 198.57512,98.3737519 198.61493,98.3791581 C199.066108,98.4404288 199.499635,98.4824089 199.915508,98.5050985 C200.331382,98.5277881 200.778179,98.5715703 201.255897,98.6364451 C201.720346,98.6995179 202.159319,98.7760245 202.572818,98.8659649 C202.986316,98.9559053 203.445194,99.035115 203.949453,99.103594 C203.989263,99.1090003 204.03583,99.0646442 204.089156,98.9705257 C204.142481,98.8764073 204.175451,98.7829032 204.188066,98.6900135 C204.197076,98.6236637 204.199288,98.53274 204.194701,98.4172422 C204.190113,98.3017444 204.167915,98.2412924 204.128105,98.2358862 C203.36926,98.0517458 202.870489,97.8184572 202.631794,97.5360204 C202.393098,97.2535835 202.330598,96.8430341 202.444293,96.3043721 L202.444293,96.3043721 L204.050195,88.210926 L206.973283,99.6764108 C206.996219,99.7065549 207.051429,99.7478391 207.138912,99.8002635 C207.226395,99.852688 207.363027,99.8915147 207.548806,99.9167439 Z M224.495623,101.963878 C225.588622,102.069854 226.483658,101.927908 227.180733,101.538041 C227.877808,101.148173 228.416224,100.729468 228.795981,100.281924 C228.825224,100.257851 228.844471,100.232808 228.85372,100.206795 C228.86297,100.180783 228.868887,100.154448 228.871472,100.127789 C228.877933,100.061143 228.861392,99.9889025 228.821848,99.9110683 C228.782304,99.833234 228.73244,99.7577628 228.672255,99.6846546 C228.622815,99.6394972 228.567034,99.5903614 228.504911,99.5372471 C228.442788,99.4841327 228.40377,99.4702586 228.387856,99.4956247 C228.086376,99.8296667 227.624097,100.087572 227.001017,100.269341 C226.377938,100.45111 225.826471,100.518732 225.346618,100.472205 C224.653497,100.405001 224.144984,100.133696 223.821078,99.6582898 C223.497173,99.1828837 223.3895,98.385352 223.498061,97.2656947 L223.498061,97.2656947 L223.539741,96.8358263 C223.554603,96.6825398 223.573223,96.5598904 223.595599,96.4678781 L223.595599,96.4678781 L229.113909,97.002928 C229.233873,97.0145596 229.329762,96.9969478 229.401578,96.9500927 C229.473394,96.9032377 229.513825,96.8331578 229.522872,96.739853 C229.628848,95.6468542 229.318145,94.688364 228.590764,93.8643823 C227.863383,93.0404007 226.806571,92.5612055 225.420329,92.4267968 C223.900794,92.2794642 222.632924,92.6240789 221.61672,93.4606408 C220.600516,94.2972027 220.023917,95.4219341 219.886923,96.8348349 C219.765438,98.0877848 220.146626,99.2212912 221.030487,100.235354 C221.914347,101.249417 223.069393,101.825592 224.495623,101.963878 Z M223.784743,95.5578525 C223.918594,94.8711933 224.112831,94.3249348 224.367456,93.9190769 C224.62208,93.5132191 224.969325,93.3316146 225.409191,93.3742635 C225.76908,93.4091581 226.025428,93.5752862 226.178232,93.8726478 C226.331037,94.1700094 226.388054,94.518629 226.349282,94.9185066 C226.31568,95.2650672 226.227386,95.4818702 226.0844,95.5689157 C225.941415,95.6559612 225.722654,95.6919322 225.428118,95.6768289 L225.428118,95.6768289 L223.784743,95.5578525 Z M231.402794,106.152322 L231.437456,106.151669 C232.396575,105.697026 233.17806,105.0987 233.78191,104.356691 C234.38576,103.614681 234.724193,102.736101 234.797209,101.720949 C234.849088,100.999658 234.711998,100.385611 234.385939,99.8788104 C234.059879,99.3720095 233.596311,99.0969926 232.995234,99.0537596 C232.460944,99.0153304 232.008843,99.1875646 231.638931,99.5704622 C231.269018,99.9533598 231.066289,100.391918 231.030742,100.886136 C230.988469,101.473856 231.104416,101.915195 231.37858,102.210155 C231.652745,102.505115 231.983507,102.666525 232.370868,102.694386 C232.437654,102.69919 232.495143,102.693255 232.543334,102.676582 C232.591526,102.659909 232.635658,102.653013 232.675729,102.655895 C232.729158,102.659738 232.763489,102.695773 232.778721,102.764001 C232.793953,102.832228 232.795805,102.946485 232.784276,103.106772 C232.73624,103.774635 232.537066,104.257085 232.186756,104.554121 C231.836446,104.851157 231.423169,105.136951 230.946925,105.411503 C230.904932,105.435335 230.900369,105.498782 230.933235,105.601844 C230.966101,105.704906 231.006847,105.791751 231.055472,105.86238 C231.104098,105.933009 231.16966,106.0015 231.252159,106.067853 C231.334658,106.134205 231.396423,106.162144 231.437456,106.151669 L231.402794,106.152322 Z M248.917829,103.106834 C248.957985,103.10804 248.996331,103.05897 249.032866,102.959603 C249.069402,102.860236 249.089103,102.763703 249.09197,102.670004 C249.094017,102.603077 249.08005,102.512213 249.050068,102.397412 C249.020085,102.282611 248.985015,102.224597 248.944859,102.223368 C248.184343,102.119711 247.680813,101.936829 247.43427,101.674723 C247.187727,101.412617 247.072647,101.013855 247.089029,100.478435 L247.089029,100.478435 L247.358718,91.6640847 C247.3751,91.1286648 247.514344,90.7376833 247.77645,90.4911403 C248.038556,90.2445973 248.552324,90.0928415 249.317755,90.0358729 C249.357911,90.0371016 249.396462,89.9813395 249.433407,89.8685866 C249.470352,89.7558338 249.489848,89.6659936 249.491896,89.5990661 C249.494763,89.5053676 249.481,89.4078108 249.450608,89.3063957 C249.420216,89.2049806 249.384941,89.1536588 249.344785,89.1524301 C248.688895,89.1323621 248.029148,89.1289237 247.365542,89.1421147 C246.701936,89.1553057 246.062266,89.1524815 245.446534,89.1336422 C244.830801,89.1148029 244.188809,89.0784126 243.520558,89.0244713 C242.852307,88.9705301 242.190237,88.9335254 241.534347,88.9134364 C241.494191,88.9122288 241.455742,88.9646445 241.419002,89.0707046 C241.382262,89.1767648 241.362663,89.2699513 241.360206,89.3502643 C241.358158,89.4171918 241.372228,89.5047094 241.402415,89.6128173 C241.432603,89.7209251 241.46757,89.7822861 241.507317,89.7969003 C242.294194,89.9147622 242.807763,90.097951 243.048023,90.3464667 C243.288283,90.5949823 243.400017,90.9936428 243.383225,91.5424482 L243.383225,91.5424482 L243.113536,100.356798 C243.096745,100.905604 242.960847,101.296687 242.705843,101.53005 C242.45084,101.763412 241.927032,101.914861 241.134421,101.984396 C241.093855,101.996552 241.055202,102.055661 241.018462,102.161721 C240.981722,102.267781 240.962328,102.354275 240.96028,102.421202 C240.957823,102.501515 240.971688,102.595726 241.001875,102.703834 C241.032063,102.811941 241.067234,102.86661 241.107391,102.867838 C241.76328,102.887906 242.426374,102.891447 243.096673,102.878461 C243.766972,102.865475 244.409988,102.868401 245.025721,102.887241 C245.641453,102.90608 246.280099,102.942368 246.941657,102.996104 C247.603215,103.049841 248.261939,103.086743 248.917829,103.106834 Z M251.508732,96.0482917 L251.543263,96.0452141 C252.468217,95.5245702 253.205917,94.8730253 253.756364,94.0905794 C254.30681,93.3081335 254.582933,92.4080245 254.58474,91.3902522 C254.586012,90.6670982 254.406289,90.0641502 254.045565,89.5814082 C253.68484,89.0986661 253.203164,88.8567623 252.600535,88.8556934 C252.064866,88.8547494 251.625925,89.0581979 251.283714,89.4660421 C250.941502,89.8738864 250.769958,90.3255557 250.769076,90.82105 C250.76804,91.4102866 250.914585,91.8424307 251.208718,92.1174824 C251.502851,92.392534 251.844098,92.5304032 252.232458,92.53109 C252.299417,92.5312084 252.356349,92.5212652 252.403256,92.5012605 C252.450163,92.4812558 252.493704,92.4712889 252.533879,92.47136 C252.587446,92.4714547 252.624214,92.5049992 252.644183,92.5719934 C252.664152,92.6389876 252.673995,92.7528352 252.673711,92.9135361 C252.672527,93.5831231 252.507602,94.0783274 252.178936,94.399149 C251.85027,94.7199705 251.458005,95.0339838 251.002141,95.3411887 C250.961918,95.3679011 250.961806,95.4315119 251.001803,95.532021 C251.041801,95.63253 251.088524,95.7163113 251.141973,95.7833647 C251.195421,95.8504182 251.265615,95.9141533 251.352555,95.97457 C251.439495,96.0349868 251.503064,96.0585348 251.543263,96.0452141 L251.508732,96.0482917 Z M273.991817,102.350149 C274.031959,102.348504 274.066562,102.293473 274.095626,102.185058 C274.12469,102.076643 274.137577,101.982294 274.134287,101.902011 C274.131545,101.835108 274.111118,101.745475 274.073006,101.633111 C274.034893,101.520748 273.995766,101.465389 273.955624,101.467034 C273.364688,101.43764 272.984686,101.322534 272.81562,101.121717 C272.646554,100.920899 272.548586,100.492667 272.521715,99.8370213 L272.521715,99.8370213 L272.372009,96.1841369 C272.339655,95.3946857 272.036427,94.7001045 271.462326,94.1003933 C270.888225,93.5006821 270.099404,93.2213905 269.095865,93.2625187 C268.413458,93.2904858 267.784463,93.4771 267.208881,93.8223612 C266.633299,94.1676224 266.159331,94.7030626 265.786979,95.4286819 C265.560498,94.8080226 265.132102,94.3296685 264.501791,93.9936195 C263.871481,93.6575705 263.195052,93.5043521 262.472503,93.5339643 C261.910521,93.5569961 261.354708,93.7305588 260.805064,94.0546524 C260.25542,94.3787461 259.808351,94.9164347 259.463857,95.6677183 L259.463857,95.6677183 L259.485245,93.7368093 C259.482503,93.6699067 259.443239,93.6112023 259.367453,93.5606963 C259.291666,93.5101902 259.17349,93.4882274 259.012923,93.4948079 C258.946021,93.4975498 258.86656,93.5209109 258.774542,93.5648911 C258.682523,93.6088713 258.616991,93.6450645 258.577946,93.6734707 C258.157995,93.8917266 257.566016,94.1639433 256.80201,94.4901206 C256.038003,94.816298 255.437415,95.041957 255.000245,95.1670976 C254.960103,95.1687428 254.9255,95.2237729 254.896436,95.3321881 C254.867371,95.4406033 254.85421,95.5282622 254.856952,95.5951648 C254.859694,95.6620674 254.879847,95.7450103 254.917411,95.8439933 C254.954975,95.9429763 254.994102,95.9983356 255.034792,96.010071 C255.518685,96.0438516 255.827479,96.1384203 255.961174,96.2937771 C256.09487,96.4491338 256.172685,96.7944228 256.19462,97.329644 L256.19462,97.329644 L256.324585,100.500829 C256.352004,101.169856 256.292751,101.604531 256.146826,101.804855 C256.000901,102.005179 255.634938,102.150857 255.048937,102.241888 C255.009344,102.256913 254.975015,102.318634 254.945951,102.427049 C254.916886,102.535464 254.903725,102.623123 254.906467,102.690026 C254.910306,102.783689 254.931007,102.880013 254.968571,102.978996 C255.006135,103.077979 255.044988,103.126648 255.08513,103.125043 C255.486546,103.108551 255.960869,103.072358 256.5081,103.016424 C257.05533,102.960489 257.556415,102.923199 258.011353,102.904554 C258.479671,102.885361 258.94533,102.883031 259.408329,102.897563 C259.871329,102.912096 260.310226,102.910862 260.725023,102.893862 C260.765164,102.892217 260.799767,102.837187 260.828832,102.728772 C260.857896,102.620357 260.870783,102.526008 260.867493,102.445725 C260.864751,102.378822 260.844324,102.289189 260.806211,102.176825 C260.768099,102.064462 260.728972,102.009102 260.68883,102.010748 C260.31253,101.98596 260.066197,101.862026 259.94983,101.638944 C259.833464,101.415862 259.762393,100.989879 259.73662,100.360994 L259.73662,100.360994 L259.597607,96.9690296 C259.803141,96.4244861 260.017229,96.0069205 260.239873,95.7163328 C260.462516,95.4257451 260.781236,95.2719515 261.196032,95.2549519 C261.65097,95.2363071 261.991653,95.3731287 262.21808,95.6654166 C262.444507,95.9577045 262.570881,96.4249811 262.597203,97.0672465 L262.597203,97.0672465 L262.727168,100.238432 C262.754038,100.894078 262.721547,101.327656 262.629692,101.539167 C262.537838,101.750678 262.29899,101.891146 261.913148,101.960571 C261.873555,101.975597 261.839226,102.037317 261.810162,102.145732 C261.781098,102.254148 261.767937,102.341807 261.770678,102.408709 C261.773969,102.488992 261.794533,102.581971 261.832371,102.687644 C261.87021,102.793317 261.9092,102.845331 261.949341,102.843686 C262.350757,102.827235 262.8117,102.79159 263.332169,102.736752 C263.852639,102.681914 264.347033,102.644899 264.815352,102.625706 C265.28367,102.606513 265.679081,102.607061 266.001585,102.627352 C266.324089,102.647642 266.692739,102.649287 267.107535,102.632288 C267.147677,102.630642 267.182417,102.578957 267.211755,102.477233 C267.241094,102.375508 267.253844,102.277813 267.250005,102.18415 C267.247263,102.117247 267.226836,102.027614 267.188723,101.91525 C267.150611,101.802887 267.111484,101.747528 267.071342,101.749173 C266.695042,101.724386 266.452054,101.600314 266.342378,101.376958 C266.232702,101.153602 266.164977,100.727481 266.139203,100.098596 L266.139203,100.098596 L265.991142,96.4858534 C266.251843,95.979258 266.491267,95.6075646 266.709413,95.3707732 C266.92756,95.1339818 267.277483,95.0057154 267.759182,94.9859739 C268.200739,94.9678775 268.50797,95.10607 268.680875,95.4005514 C268.85378,95.6950328 268.953393,96.1634062 268.979715,96.8056716 L268.979715,96.8056716 L269.10968,99.976857 C269.136551,100.632503 269.107404,101.065944 269.02224,101.277181 C268.937076,101.488418 268.701573,101.628749 268.315731,101.698174 C268.276138,101.713199 268.241809,101.77492 268.212745,101.883335 C268.183681,101.99175 268.17052,102.079409 268.173262,102.146312 C268.1771,102.239975 268.197802,102.336299 268.235366,102.435282 C268.27293,102.534265 268.311783,102.582934 268.351924,102.581289 C268.75334,102.564837 269.184177,102.530427 269.644434,102.478056 C270.104691,102.425686 270.568979,102.389904 271.037298,102.370711 C271.505616,102.351518 272.011417,102.347543 272.554699,102.358785 C273.097981,102.370027 273.577021,102.367148 273.991817,102.350149 Z M284.754454,101.806202 C286.301805,101.668751 287.549863,101.151191 288.498627,100.253521 C289.447391,99.3558508 289.858972,98.2000362 289.733371,96.7860771 C289.645687,95.7989736 289.22629,95.0127532 288.475181,94.427416 C287.724072,93.8420788 286.934274,93.3509287 286.105787,92.9539656 C285.221573,92.5350638 284.421618,92.1187606 283.705922,91.7050561 C282.990226,91.2913516 282.602755,90.7510184 282.543509,90.0840566 C282.498482,89.5771656 282.641237,89.1409832 282.971774,88.7755095 C283.30231,88.4100358 283.78105,88.1994533 284.407994,88.1437621 C285.128313,88.0797765 285.761613,88.3226607 286.307894,88.8724147 C286.854174,89.4221688 287.300249,90.2060193 287.646118,91.2239663 C287.677536,91.2749534 287.741118,91.309639 287.836862,91.328023 C287.932607,91.346407 288.027166,91.3514518 288.120541,91.3431574 C288.187237,91.3372328 288.275796,91.3125606 288.386217,91.2691407 C288.496638,91.2257208 288.550071,91.184002 288.546517,91.1439842 C288.451688,90.6818506 288.355606,90.0921056 288.258272,89.3747491 C288.160939,88.6573926 288.084274,88.0592006 288.028277,87.580173 C287.404008,87.5146261 286.817091,87.4155112 286.267525,87.2828283 C285.717959,87.1501453 285.076347,87.1163891 284.342689,87.1815597 C282.701963,87.3273047 281.449013,87.8654664 280.583839,88.7960447 C279.718665,89.726623 279.341177,90.8121867 279.451375,92.0527357 C279.534319,92.9864823 279.951049,93.7426894 280.701566,94.3213569 C281.452082,94.9000245 282.254923,95.3866549 283.110089,95.7812481 C283.951915,96.1770263 284.741569,96.5908834 285.479052,97.0228193 C286.216534,97.4547553 286.617268,98.0308827 286.681254,98.7512015 C286.73339,99.3381279 286.604491,99.8167741 286.294556,100.18714 C285.984621,100.557506 285.442815,100.777052 284.669139,100.845777 C283.908803,100.913317 283.09076,100.596093 282.215011,99.8941053 C281.339262,99.1921172 280.721936,98.2587838 280.363032,97.0941052 C280.344953,97.0419332 280.291377,97.0063589 280.202302,96.9873824 C280.113227,96.9684059 280.022002,96.9630649 279.928627,96.9713593 C279.848592,96.9784688 279.753364,97.0037335 279.642942,97.0471534 C279.532521,97.0905733 279.479088,97.1322922 279.482643,97.1723099 C279.577167,97.78236 279.659976,98.4875622 279.731071,99.2879164 C279.802167,100.088271 279.865712,100.727961 279.921709,101.206989 C280.802978,101.29004 281.591981,101.431704 282.288719,101.631981 C282.985456,101.832258 283.807368,101.890331 284.754454,101.806202 Z M304.3836,104.704703 C304.423535,104.700315 304.454292,104.643047 304.475872,104.532897 C304.497452,104.422748 304.503854,104.327738 304.49508,104.247868 C304.486305,104.167998 304.459428,104.076645 304.41445,103.973807 C304.369471,103.87097 304.327014,103.821745 304.287079,103.826132 C303.694053,103.823921 303.306702,103.731753 303.125026,103.549627 C302.943349,103.367501 302.81595,102.943646 302.742828,102.278063 L302.742828,102.278063 L301.674518,92.5538883 C301.623333,92.0879799 301.589809,91.6908609 301.573947,91.3625313 C301.558085,91.0342018 301.544379,90.7561566 301.532829,90.5283958 C301.528442,90.4884608 301.481157,90.4566066 301.390975,90.4328333 C301.300793,90.4090599 301.209111,90.4022918 301.11593,90.4125288 C301.062683,90.4183786 300.98391,90.437137 300.87961,90.468804 C300.77531,90.500471 300.718698,90.5370032 300.709774,90.5784006 C300.675539,90.7573021 300.565165,90.9176236 300.378652,91.0593652 C300.192139,91.2011067 299.999045,91.2829458 299.79937,91.3048824 C299.293526,91.3604549 298.832192,91.2999909 298.415368,91.1234902 C297.998543,90.9469896 297.384125,90.9033436 296.572113,90.9925522 C295.067895,91.1578075 293.836735,91.7544917 292.878634,92.7826048 C291.920533,93.8107179 291.519723,95.0369488 291.676204,96.4612974 C291.820985,97.7791527 292.335062,98.8408794 293.218433,99.6464775 C294.101805,100.452076 295.222386,100.78029 296.580176,100.631122 C297.16589,100.566775 297.655572,100.425407 298.049222,100.20702 C298.442872,99.9886329 298.75234,99.6784516 298.977625,99.2764761 L298.977625,99.2764761 L299.348352,102.650984 C299.424399,103.343191 299.375784,103.789751 299.202508,103.990664 C299.029232,104.191577 298.640812,104.365604 298.03725,104.512746 C297.997315,104.517134 297.966192,104.571074 297.943881,104.674568 C297.92157,104.778061 297.915534,104.876399 297.925771,104.969581 C297.936008,105.062762 297.96325,105.157444 298.007497,105.253625 C298.051745,105.349807 298.093836,105.395704 298.133771,105.391317 C298.533121,105.347443 299.050083,105.270441 299.684655,105.160309 C300.319228,105.050177 300.862813,104.97025 301.31541,104.920527 C301.781318,104.869341 302.305995,104.831908 302.88944,104.808227 C303.472885,104.784546 303.970938,104.750038 304.3836,104.704703 Z M297.327352,99.1546496 C296.808197,99.2116846 296.370711,99.0004049 296.014895,98.5208104 C295.659078,98.041216 295.417554,97.2223611 295.290322,96.0642459 C295.119217,94.5067805 295.177065,93.4697917 295.463864,92.9532795 C295.750664,92.4367673 296.180265,92.1470687 296.752667,92.084184 C297.231887,92.0315362 297.602233,92.1222048 297.863705,92.3561898 C298.125176,92.5901747 298.274924,92.8802188 298.312947,93.2263223 L298.312947,93.2263223 L298.837231,97.9985558 C298.677042,98.3799074 298.481857,98.657325 298.251678,98.8308084 C298.021499,99.0042919 297.71339,99.1122389 297.327352,99.1546496 Z M311.61747,98.8271792 C311.710474,98.8154425 311.801383,98.7870977 311.890196,98.742145 C311.979009,98.6971922 312.043345,98.6722008 312.083204,98.6671708 C312.491602,98.4806531 313.08517,98.2640186 313.86391,98.0172674 C314.642649,97.7705162 315.235443,97.6012225 315.642291,97.5093861 C315.68215,97.5043561 315.713657,97.4598861 315.736813,97.3759761 C315.759864,97.292066 315.765679,97.2036087 315.753942,97.110604 C315.745559,97.0441721 315.717633,96.9565848 315.670165,96.8478423 C315.622697,96.7390997 315.579034,96.6872435 315.539175,96.6922735 C314.989403,96.7211584 314.627641,96.6622018 314.453889,96.5154039 C314.280137,96.3686059 314.157213,96.0095497 314.085115,95.4382352 L314.085115,95.4382352 L313.318033,89.3597144 C313.313003,89.3198553 313.261439,89.2588726 313.16334,89.1767663 C313.065242,89.0946601 312.958919,89.0810816 312.844372,89.1360309 C312.354579,89.3193223 311.623117,89.5128644 310.649985,89.7166573 C309.676852,89.9204501 308.971061,90.0500118 308.53261,90.1053423 C308.492751,90.1103724 308.46292,90.1681288 308.443118,90.2786116 C308.423315,90.3890944 308.419282,90.4908381 308.431019,90.5838428 C308.441079,90.6635611 308.469005,90.7511483 308.514796,90.8466045 C308.560587,90.9420607 308.603412,90.9872737 308.643271,90.9822437 C309.186336,90.9002133 309.573833,90.9491733 309.80576,91.1291237 C310.037688,91.309074 310.1897,91.6847065 310.261797,92.256021 L310.261797,92.256021 L310.742167,96.0625701 C310.633031,96.4812818 310.468171,96.8327868 310.247586,97.117085 C310.027002,97.4013833 309.757273,97.5636527 309.4384,97.603893 C308.986663,97.6609003 308.634834,97.5736943 308.382914,97.342275 C308.130993,97.1108558 307.972337,96.7360617 307.906947,96.2178927 L307.906947,96.2178927 L307.134834,90.0995128 C307.129804,90.0596537 307.074918,89.9990902 306.970177,89.9178222 C306.865435,89.8365543 306.755791,89.823395 306.641244,89.8783443 C306.151451,90.0616357 305.42747,90.2609827 304.469301,90.4763853 C303.511132,90.6917878 302.806179,90.8279927 302.354441,90.8849999 C302.314582,90.89003 302.284751,90.9477864 302.264949,91.0582691 C302.245146,91.1687519 302.241114,91.2704957 302.25285,91.3635004 C302.264587,91.456505 302.292932,91.5474139 302.337885,91.6362269 C302.382837,91.7250398 302.425243,91.7669313 302.465103,91.7619013 C302.994881,91.6815476 303.374896,91.7247027 303.605147,91.8913667 C303.835398,92.0580307 303.988248,92.4403063 304.063699,93.0381936 L304.063699,93.0381936 L304.468618,96.2468554 C304.606106,97.3363389 304.99159,98.1448139 305.625068,98.6722805 C306.258547,99.1997471 307.093456,99.3980898 308.129794,99.2673085 C308.847258,99.1767676 309.441246,98.9634548 309.911757,98.62737 C310.382267,98.2912851 310.735944,97.83159 310.972787,97.2482845 L310.972787,97.2482845 L311.248486,98.6307797 C311.253516,98.6706389 311.289698,98.7166903 311.357032,98.768934 C311.424366,98.8211776 311.511178,98.8405927 311.61747,98.8271792 Z M323.927399,97.1112654 C324.48449,97.0337832 325.015404,96.8652973 325.52014,96.6058076 C326.024876,96.3463179 326.38296,96.0531423 326.594391,95.726281 C326.630494,95.6942184 326.646701,95.664923 326.643011,95.6383949 C326.639321,95.6118667 326.641341,95.5777841 326.649071,95.536147 C326.630623,95.4035062 326.548709,95.2763122 326.40333,95.154565 C326.25795,95.0328179 326.1615,94.99553 326.113978,95.0427015 C326.043617,95.1200908 325.958148,95.1860609 325.85757,95.2406116 C325.756992,95.2951624 325.647014,95.3307394 325.527637,95.3473428 C325.381732,95.3676357 325.21951,95.3192146 325.040971,95.2020795 C324.862431,95.0849444 324.754141,94.7924105 324.716101,94.3244779 L324.716101,94.3244779 L324.334085,90.8487158 C324.228137,89.7953187 323.910559,88.9944469 323.381351,88.4461002 C322.852143,87.8977536 321.977391,87.7084417 320.757095,87.8781645 C319.417422,88.0644907 318.245816,88.5113757 317.242275,89.2188195 C316.238734,89.9262634 315.783084,90.6115874 315.875325,91.2747916 C315.930669,91.6727141 316.107498,91.9962774 316.405811,92.2454813 C316.704124,92.4946853 317.098667,92.5851582 317.589438,92.5169001 C318.133265,92.4412627 318.522314,92.2249045 318.756584,91.8678254 C318.990854,91.5107463 319.083961,90.9164081 319.035903,90.0848108 C319.01631,89.7495191 319.115196,89.5126748 319.332559,89.3742778 C319.549922,89.2358809 319.797876,89.1473119 320.076422,89.1085709 C320.354968,89.0698298 320.563153,89.108478 320.700978,89.2245155 C320.838803,89.340553 320.93631,89.6041651 320.993499,90.0153517 L320.993499,90.0153517 L321.204998,91.9734738 C319.238317,92.7067091 317.858023,93.3786688 317.064115,93.9893527 C316.270208,94.6000367 315.927676,95.2966692 316.03652,96.0792502 C316.134295,96.7822467 316.469131,97.2697429 317.041028,97.541739 C317.612924,97.8137351 318.276899,97.8971559 319.032952,97.7920015 C319.722684,97.6960712 320.287768,97.505932 320.728203,97.2215837 C321.168639,96.9372354 321.50911,96.5417245 321.749615,96.0350508 C321.912917,96.4314789 322.180749,96.7288644 322.553113,96.9272072 C322.925476,97.12555 323.383571,97.1869027 323.927399,97.1112654 Z M320.522115,96.1043706 C320.203777,96.1486461 319.941239,96.0837557 319.734502,95.9096995 C319.527765,95.7356432 319.401336,95.482814 319.355216,95.1512119 C319.272199,94.5543281 319.380986,94.0727346 319.681577,93.7064314 C319.982167,93.3401282 320.51084,93.0097061 321.267593,92.7151649 L321.267593,92.7151649 L321.490161,94.7528715 C321.501673,95.2244937 321.409531,95.558425 321.213734,95.7546655 C321.017936,95.950906 320.787397,96.0674743 320.522115,96.1043706 Z M345.611019,93.6084949 C345.650732,93.6024214 345.679038,93.5439027 345.695937,93.4329387 C345.712836,93.3219747 345.715212,93.2267791 345.703065,93.147352 C345.692943,93.0811627 345.66273,92.9943378 345.612428,92.8868772 C345.562125,92.7794167 345.517117,92.7287231 345.477403,92.7347965 C344.88684,92.7709219 344.496441,92.6985381 344.306208,92.5176451 C344.115974,92.336752 343.971258,91.9219781 343.872059,91.2733232 L343.872059,91.2733232 L343.319377,87.6593891 C343.199933,86.8783557 342.821766,86.2215607 342.184876,85.6890039 C341.547986,85.1564471 340.733122,84.9660865 339.740283,85.117922 C339.065152,85.2211701 338.460648,85.4761869 337.92677,85.8829722 C337.392891,86.2897576 336.981033,86.8743205 336.691194,87.6366609 C336.397476,87.0448489 335.918816,86.6167947 335.255214,86.3524985 C334.591612,86.0882022 333.902389,86.0107149 333.187545,86.1200364 C332.631555,86.2050643 332.098341,86.4390181 331.587901,86.8218977 C331.077462,87.2047773 330.692586,87.7886007 330.433272,88.5733679 L330.433272,88.5733679 L330.241031,86.6519334 C330.230909,86.5857442 330.185395,86.5317411 330.104489,86.4899243 C330.023583,86.4481075 329.903703,86.4393459 329.744848,86.4636396 C329.678659,86.473762 329.602269,86.5057656 329.515677,86.5596505 C329.429085,86.6135354 329.367957,86.6567524 329.332293,86.6893015 C328.939049,86.9526525 328.380798,87.2886541 327.657541,87.6973063 C326.934284,88.1059586 326.362328,88.3966399 325.941675,88.5693504 C325.901961,88.5754238 325.873655,88.6339425 325.856756,88.7449066 C325.839858,88.8558706 325.836469,88.9444472 325.846592,89.0106365 C325.856714,89.0768258 325.885914,89.1570318 325.934193,89.2512545 C325.982471,89.3454772 326.027479,89.3961708 326.069217,89.4033352 C326.553878,89.3834056 326.871234,89.4432516 327.021288,89.5828734 C327.171341,89.7224951 327.286857,90.0570631 327.367836,90.5865772 L327.367836,90.5865772 L327.847636,93.7239486 C327.94886,94.3858413 327.938032,94.8244028 327.815151,95.0396331 C327.692271,95.2548635 327.344659,95.4401117 326.772316,95.5953778 C326.734627,95.6146891 326.707333,95.6798267 326.690434,95.7907907 C326.673535,95.9017547 326.670147,95.9903314 326.680269,96.0565207 C326.69444,96.1491856 326.725665,96.2426295 326.773943,96.3368522 C326.822222,96.4310749 326.866217,96.4751496 326.905931,96.4690761 C327.303067,96.4083419 327.77048,96.3199258 328.308171,96.2038277 C328.845862,96.0877297 329.33975,95.9952646 329.789837,95.9264325 C330.253162,95.8555759 330.715708,95.8017728 331.177476,95.7650231 C331.639243,95.7282734 332.075313,95.6785192 332.485686,95.6157605 C332.5254,95.6096871 332.553706,95.5511684 332.570605,95.4402043 C332.587504,95.3292403 332.58988,95.2340448 332.577733,95.1546176 C332.567611,95.0884284 332.537398,95.0016034 332.487096,94.8941429 C332.436793,94.7866823 332.391785,94.7359887 332.352071,94.7420621 C331.975338,94.7590338 331.716812,94.6630958 331.576493,94.4542481 C331.436174,94.2454004 331.318439,93.8298869 331.223289,93.2077078 L331.223289,93.2077078 L330.710085,89.8519119 C330.85415,89.2879816 331.020756,88.8493049 331.209905,88.5358817 C331.399053,88.2224585 331.698814,88.0343675 332.109188,87.9716089 C332.559275,87.9027767 332.912996,88.0010908 333.170353,88.2665509 C333.427709,88.532011 333.604974,88.9824496 333.702149,89.6178666 L333.702149,89.6178666 L334.181949,92.755238 C334.281149,93.4038928 334.296796,93.8384054 334.228891,94.0587756 C334.160987,94.2791459 333.939135,94.4451617 333.563335,94.5568228 C333.525646,94.5761341 333.498352,94.6412717 333.481453,94.7522357 C333.464554,94.8631998 333.461166,94.9517764 333.471288,95.0179657 C333.483435,95.0973928 333.514154,95.1875272 333.563444,95.2883688 C333.612735,95.3892105 333.657237,95.4365946 333.69695,95.4305212 C334.094086,95.3697869 334.548261,95.2833953 335.059476,95.1713462 C335.570691,95.0592971 336.057961,94.9678442 336.521286,94.8969877 C336.984611,94.8261311 337.377658,94.7829564 337.700428,94.7674637 C338.023198,94.751971 338.389769,94.7128452 338.800143,94.6500866 C338.839856,94.6440131 338.868669,94.5888039 338.88658,94.4844588 C338.904491,94.3801137 338.906361,94.2816087 338.892189,94.1889437 C338.882067,94.1227544 338.851854,94.0359295 338.801552,93.9284689 C338.751249,93.8210084 338.706241,93.7703148 338.666527,93.7763882 C338.289794,93.7933599 338.034578,93.6969158 337.900878,93.4870558 C337.767178,93.2771958 337.652752,92.8611763 337.557602,92.2389972 L337.557602,92.2389972 L337.010994,88.6647766 C337.214084,88.1324621 337.410942,87.736575 337.60157,87.4771155 C337.792197,87.2176559 338.125792,87.0514856 338.602355,86.9786045 C339.039204,86.9117969 339.359831,87.0151721 339.564236,87.2887301 C339.768641,87.5622882 339.919431,88.0167757 340.016606,88.6521926 L340.016606,88.6521926 L340.496406,91.789564 C340.595605,92.4382189 340.614562,92.8722253 340.553276,93.0915834 C340.491991,93.3109414 340.273448,93.476451 339.897648,93.5881122 C339.859959,93.6074234 339.832665,93.6725611 339.815766,93.7835251 C339.798867,93.8944891 339.795479,93.9830657 339.805601,94.049255 C339.819773,94.14192 339.850997,94.2353638 339.899276,94.3295866 C339.947554,94.4238093 339.99155,94.4678839 340.031263,94.4618105 C340.428399,94.4010763 340.852789,94.3192397 341.304434,94.2163007 C341.756079,94.1133618 342.213563,94.026464 342.676888,93.9556074 C343.140213,93.8847508 343.642473,93.8248743 344.183667,93.7759777 C344.724861,93.7270812 345.200645,93.6712536 345.611019,93.6084949 Z M351.407826,92.9788923 C353.125539,92.6955257 354.353504,92.0145116 355.091721,90.9358502 C355.829938,89.8571887 356.095509,88.6902321 355.888434,87.4349805 C355.676999,86.1533026 355.036411,85.1086871 353.966671,84.3011342 C352.89693,83.4935813 351.523023,83.2282185 349.84495,83.5050459 C348.127237,83.7884125 346.899239,84.4897912 346.160954,85.6091821 C345.422669,86.728573 345.157064,87.9158942 345.36414,89.1711458 C345.573395,90.4396106 346.206865,91.4616479 347.26455,92.2372578 C348.322234,93.0128676 349.703326,93.2600791 351.407826,92.9788923 Z M351.250884,92.0275437 C350.577012,92.1387106 350.080934,91.9083739 349.762648,91.3365336 C349.444363,90.7646933 349.179502,89.8379342 348.968067,88.5562562 C348.763171,87.3142178 348.715783,86.3481896 348.825904,85.6581717 C348.936024,84.9681538 349.32802,84.5675614 350.001892,84.4563945 C350.675764,84.3452276 351.171264,84.5926257 351.488392,85.1985888 C351.80552,85.8045519 352.068712,86.7417658 352.277967,88.0102306 C352.487223,89.2786954 352.533521,90.238117 352.416861,90.8884954 C352.300202,91.5388737 351.911543,91.9185565 351.250884,92.0275437 Z M365.403961,90.5631926 C365.496328,90.5471982 365.58584,90.5147095 365.672495,90.4657266 C365.759151,90.4167437 365.822272,90.3888249 365.861858,90.3819701 C366.261261,90.1768989 366.844258,89.9332411 367.610847,89.6509968 C368.377437,89.3687525 368.961833,89.172421 369.364035,89.0620025 C369.403622,89.0551477 369.433054,89.009278 369.452333,88.9243934 C369.471612,88.8395087 369.473255,88.7508825 369.45726,88.6585147 C369.445836,88.5925378 369.413918,88.506325 369.361508,88.3998764 C369.309098,88.2934279 369.263099,88.243631 369.223513,88.2504857 C368.675647,88.3045811 368.31156,88.2622958 368.131252,88.12363 C367.950943,87.9849641 367.811663,87.6319301 367.713412,87.0645282 L367.713412,87.0645282 L366.668063,81.0276354 C366.661208,80.9880492 366.606898,80.9294982 366.505134,80.8519824 C366.403369,80.7744666 366.296535,80.7657839 366.184631,80.8259343 C365.703771,81.0315197 364.981965,81.2584404 364.019216,81.5066966 C363.056466,81.7549528 362.357367,81.9167819 361.921919,81.9921842 C361.882333,81.9990389 361.855185,82.058104 361.840476,82.1693795 C361.825767,82.2806549 361.82641,82.3824765 361.842404,82.4748443 C361.856114,82.5540166 361.888031,82.6402294 361.938156,82.7334826 C361.988282,82.8267357 362.033138,82.8699349 362.072724,82.8630802 C362.61145,82.7562032 363.000785,82.787321 363.24073,82.9564334 C363.480675,83.1255458 363.649773,83.493803 363.748025,84.0612049 L363.748025,84.0612049 L364.402653,87.8416853 C364.312856,88.2649662 364.164308,88.6236695 363.957009,88.9177954 C363.749709,89.2119213 363.487715,89.3864033 363.171026,89.4412412 C362.722382,89.5189284 362.366921,89.4479674 362.104641,89.2283584 C361.842361,89.0087493 361.666665,88.6416346 361.577553,88.1270142 L361.577553,88.1270142 L360.52535,82.0505352 C360.518495,82.010949 360.460886,81.9529692 360.352524,81.8765959 C360.244162,81.8002225 360.134029,81.7921111 360.022125,81.8522615 C359.541264,82.0578469 358.827199,82.2902229 357.87993,82.5493895 C356.932661,82.8085561 356.234704,82.976983 355.786061,83.0546702 C355.746475,83.0615249 355.719327,83.12059 355.704618,83.2318655 C355.689909,83.3431409 355.690551,83.4449625 355.706546,83.5373303 C355.72254,83.629698 355.755029,83.7192096 355.804012,83.8058651 C355.852995,83.8925206 355.897279,83.9324209 355.936865,83.9255662 C356.462396,83.8209742 356.843992,83.8466366 357.081652,84.0025537 C357.319311,84.1584707 357.489552,84.5333256 357.592373,85.1271183 L357.592373,85.1271183 L358.14418,88.313806 C358.331544,89.3958283 358.753739,90.1857526 359.410767,90.6835789 C360.067795,91.1814051 360.910929,91.3412065 361.94017,91.1629831 C362.652721,91.0395976 363.236289,90.7992387 363.690873,90.4419063 C364.145457,90.0845739 364.477655,89.6091256 364.687468,89.0155613 L364.687468,89.0155613 L365.02635,90.3839408 C365.033204,90.423527 365.071462,90.4678687 365.141124,90.5169658 C365.210785,90.566063 365.298397,90.5814719 365.403961,90.5631926 Z M374.282807,88.9958371 C375.469053,88.7826045 376.381217,88.3124952 377.0193,87.5855095 C377.657382,86.8585237 377.892315,86.0271226 377.724098,85.0913062 C377.598528,84.392739 377.253662,83.8934663 376.6895,83.5934881 C376.125338,83.2935099 375.545142,83.0746505 374.948914,82.9369098 C374.410147,82.8160532 373.854645,82.677795 373.282409,82.5221354 C372.710172,82.3664757 372.383777,82.0645771 372.303222,81.6164397 C372.241622,81.2737464 372.30205,81.0043626 372.484507,80.8082884 C372.666965,80.6122143 372.955901,80.4786384 373.351316,80.4075608 C373.773093,80.3317448 374.209786,80.4335321 374.661396,80.7129228 C375.113007,80.9923134 375.465797,81.4221297 375.719769,82.0023715 C375.742426,82.0527243 375.802256,82.0827888 375.899258,82.0925651 C375.99626,82.1023413 376.090893,82.0989371 376.183156,82.0823523 C376.249059,82.0705061 376.335066,82.038038 376.441177,81.9849481 C376.547288,81.9318581 376.59679,81.8855424 376.589682,81.8460009 C376.50409,81.5212266 376.403098,81.1107789 376.286705,80.6146579 C376.170312,80.118537 376.086054,79.7254908 376.033931,79.4355195 C375.585793,79.5160741 375.120145,79.5181379 374.636987,79.4417109 C374.153828,79.3652839 373.595916,79.3839325 372.963252,79.4976566 C371.987894,79.6729812 371.138078,80.1114734 370.413804,80.8131331 C369.689531,81.5147929 369.400841,82.2742187 369.547735,83.0914105 C369.675674,83.8031582 370.016912,84.3200911 370.571447,84.6422093 C371.125983,84.9643275 371.70914,85.1996626 372.320917,85.3482145 C372.877604,85.4930629 373.428292,85.6423911 373.972983,85.796199 C374.517674,85.950007 374.829112,86.2443894 374.907297,86.6793463 C374.973636,87.0484007 374.926906,87.3561413 374.767106,87.6025683 C374.607306,87.8489953 374.329699,88.0077475 373.934283,88.0788251 C373.420243,88.1712259 372.874293,88.0482588 372.296433,87.7099237 C371.718573,87.3715886 371.228462,86.8780146 370.826101,86.2292017 C370.805813,86.1920294 370.74328,86.1658523 370.638503,86.1506704 C370.533727,86.1354885 370.435206,86.1361899 370.342943,86.1527747 C370.27704,86.164621 370.191033,86.197089 370.084922,86.250179 C369.978811,86.3032689 369.935899,86.3484 369.956188,86.3855723 C370.056295,86.6397055 370.194385,87.0672959 370.370457,87.6683435 C370.54653,88.2693911 370.683953,88.7311174 370.782726,89.0535225 C371.468112,88.9303214 372.011918,88.9278149 372.414141,89.0460031 C372.816365,89.1641912 373.439254,89.1474692 374.282807,88.9958371 Z" id="KissMe,ImSquamous" fill="#E578C0" fill-rule="nonzero"></path>
                    </g>
                </g>
            </g>
            <g id="Group-26" transform="translate(736.000000, 81.000000)" fill="#FFFFFF" stroke="#000000" stroke-width="3">
                <path d="M254.645682,725.301587 C254.645682,728.115724 253.489565,730.662594 251.622982,732.506489 C249.74972,734.356982 247.16141,735.5 244.30333,735.5 C241.44525,735.5 238.85694,734.356982 236.983678,732.506489 C235.117095,730.662594 233.960978,728.115724 233.960978,725.301587 C233.960978,722.487451 235.117095,719.940581 236.983678,718.096686 C238.85694,716.246192 241.44525,715.103175 244.30333,715.103175 C247.16141,715.103175 249.74972,716.246192 251.622982,718.096686 C253.489565,719.940581 254.645682,722.487451 254.645682,725.301587 Z M229.206556,690.656288 C229.206556,696.579733 226.820879,701.942812 222.962509,705.824763 C219.107437,709.703397 213.781925,712.103175 207.899063,712.103175 C202.016202,712.103175 196.69069,709.703397 192.835618,705.824763 C188.977248,701.942812 186.591571,696.579733 186.591571,690.656288 C186.591571,684.732844 188.977248,679.369764 192.835618,675.487813 C196.69069,671.60918 202.016202,669.209402 207.899063,669.209402 C213.781925,669.209402 219.107437,671.60918 222.962509,675.487813 C226.820879,679.369764 229.206556,684.732844 229.206556,690.656288 Z M784.762533,482.604758 C749.603761,510.989526 701.027955,528.528083 647.381894,528.528083 C643.284336,528.528083 639.216383,528.425752 635.181744,528.224074 C634.837973,528.20689 634.494032,528.188964 634.147757,528.175033 C634.011507,528.488689 633.874111,528.801774 633.73557,529.114281 C620.143594,559.773632 595.023864,585.995281 562.614615,604.413339 C531.009949,622.374156 492.472578,632.913919 450.886576,632.913919 C396.821209,632.913919 347.905517,615.100149 312.68397,586.323019 C310.332977,585.695628 308.659344,585.366841 306.990598,585.028121 C286.704992,590.412006 265.705439,593.319292 243.864724,593.319292 C234.509078,593.319292 225.307775,592.785828 216.304954,591.754424 C215.368076,591.64709 214.430324,591.534019 213.491776,591.415611 C213.946717,592.231104 214.377585,593.059143 214.784296,593.89866 C217.853647,600.234288 219.557232,607.244349 219.557232,614.616606 C219.557232,628.848708 213.206336,641.725549 202.961791,651.049553 C192.663705,660.422286 178.434376,666.209402 162.722685,666.209402 C147.010993,666.209402 132.781664,660.422286 122.483579,651.049553 C112.239033,641.725549 105.888137,628.848708 105.888137,614.616606 C105.888137,605.033927 108.767018,596.063738 113.776424,588.380497 C118.981691,580.396852 126.484625,573.802248 135.45098,569.341328 C136.338641,568.899701 137.234329,568.482127 138.134427,568.08685 C137.254004,567.625327 136.375438,567.156457 135.498826,566.680271 C109.145766,552.365005 87.3773326,532.970263 72.3638809,510.223968 C57.9321652,488.359039 49.7466181,463.397315 49.7466181,436.89072 C49.7466181,432.433907 49.9779571,428.020718 50.4314951,423.658554 C50.4574606,423.408816 50.4841732,423.159064 50.5097841,422.904393 C50.3234539,422.735524 50.1374092,422.566177 49.9516514,422.396354 C19.8184181,394.84796 1.5,358.66002 1.5,319.006716 C1.5,268.136269 31.6403872,222.982826 78.2065395,194.433952 C78.5760219,194.207429 78.9459669,193.982301 79.3141856,193.757996 C79.1420173,193.362901 78.9718473,192.966888 78.8036747,192.569968 C72.484088,177.654539 69.0452653,161.602458 69.0452653,144.880342 C69.0452653,105.312944 88.3001689,69.5097381 119.378078,43.5863433 C150.563495,17.5732712 193.649832,1.5 241.233091,1.5 C279.333926,1.5 314.549934,11.8056622 343.084227,29.2673973 C343.345467,29.4272643 343.606427,29.5879029 343.867311,29.7493024 C344.127981,29.5878936 344.388934,29.4272549 344.650167,29.267388 C373.183692,11.8056565 408.399694,1.5 446.50052,1.5 C485.791683,1.5 522.015111,12.4596159 551.006322,30.9248429 C551.179731,31.0352916 551.353007,31.1460884 551.527175,31.2545572 C551.726009,31.2117077 551.924834,31.1691788 552.123649,31.1269701 C565.752892,28.2334694 580.035867,26.6965812 594.74922,26.6965812 C642.332479,26.6965812 685.418815,42.7698524 716.604232,68.7829245 C747.682141,94.7063193 766.937045,130.509525 766.937045,170.076923 C766.937045,193.948037 759.92858,216.452855 747.541681,236.242225 C747.246071,236.714493 746.947731,237.184682 746.648325,237.654586 C747.150253,237.895737 747.651702,238.139155 748.152653,238.384837 C776.651249,252.361393 800.34198,272.093241 816.730171,295.593469 C832.497501,318.203397 841.5,344.301781 841.5,372.099512 C841.5,415.266638 819.792473,454.323999 784.762533,482.604758 Z" id="Combined-Shape"></path>
            </g>
            <g id="Oval">
                <use fill="#A23853" fill-rule="evenodd" xlink:href="#path-3"></use>
                <use fill="black" fill-opacity="1" filter="url(#filter-4)" xlink:href="#path-3"></use>
            </g>
            <rect id="Rectangle" stroke="#000000" stroke-width="3" fill="#FF9EB0" x="941.5" y="226.5" width="173" height="70" rx="6"></rect>
            <path d="M1106.14768,415.749956 L1106.14768,407.47714 L1109.17037,403.795277 L1117.13623,415.749956 L1124.49973,415.749956 L1113.57932,399.681729 L1124.36346,386.659047 L1116.99996,386.659047 L1106.52255,399.488636 L1106.14768,399.488636 L1106.14768,386.659047 L1100,386.659047 L1100,415.749956 L1106.14768,415.749956 Z M1131.8677,391.113503 C1132.76821,391.113503 1133.53807,390.814283 1134.17727,390.215843 C1134.81648,389.617402 1135.13608,388.897816 1135.13608,388.057085 C1135.13608,387.216353 1134.81648,386.496656 1134.17727,385.897994 C1133.53807,385.299331 1132.76681,385 1131.86349,385 C1130.96742,385 1130.19793,385.29922 1129.55503,385.897661 C1128.91212,386.496101 1128.59067,387.215687 1128.59067,388.056419 C1128.59067,388.89715 1128.91172,389.616847 1129.55381,390.21551 C1130.1959,390.814172 1130.96719,391.113503 1131.8677,391.113503 Z M1134.87485,415.749956 L1134.87485,393.931774 L1128.82948,393.931774 L1128.82948,415.749956 L1134.87485,415.749956 Z M1147.74979,416.102184 C1148.92404,416.102184 1149.9198,415.907574 1150.73708,415.518355 C1151.55436,415.129136 1152.22293,414.63956 1152.7428,414.049627 C1153.26267,413.459695 1153.66273,412.863622 1153.94298,412.261408 L1153.94298,412.261408 L1154.20443,412.261408 L1154.20443,415.749956 L1160.17011,415.749956 L1160.17011,386.659047 L1154.12475,386.659047 L1154.12475,397.602317 L1153.94298,397.602317 C1153.67412,397.007502 1153.28683,396.405658 1152.78109,395.796786 C1152.27535,395.187914 1151.61247,394.677512 1150.79245,394.265581 C1149.97243,393.853649 1148.95444,393.647683 1147.73847,393.647683 C1146.14002,393.647683 1144.66985,394.061501 1143.32796,394.889138 C1141.98608,395.716775 1140.91219,396.96204 1140.10631,398.624933 C1139.30042,400.287827 1138.89748,402.36735 1138.89748,404.863503 C1138.89748,407.299139 1139.28906,409.352177 1140.07224,411.022616 C1140.85541,412.693056 1141.91602,413.957261 1143.25405,414.81523 C1144.59209,415.673199 1146.09067,416.102184 1147.74979,416.102184 Z M1149.67029,411.28418 C1148.67775,411.28418 1147.84105,411.011926 1147.16019,410.467418 C1146.47934,409.922911 1145.96231,409.16626 1145.60912,408.197465 C1145.25593,407.228671 1145.07934,406.109804 1145.07934,404.840865 C1145.07934,403.579471 1145.25405,402.470074 1145.60346,401.512673 C1145.95288,400.555272 1146.46802,399.808091 1147.14887,399.271129 C1147.82973,398.734168 1148.6702,398.465687 1149.67029,398.465687 C1150.64759,398.465687 1151.47667,398.726585 1152.15753,399.24838 C1152.83839,399.770175 1153.35733,400.507886 1153.71437,401.461515 C1154.07141,402.415143 1154.24993,403.541593 1154.24993,404.840865 C1154.24993,406.13629 1154.06952,407.266513 1153.70871,408.231534 C1153.3479,409.196555 1152.82703,409.946585 1152.1461,410.481623 C1151.46517,411.016661 1150.6399,411.28418 1149.67029,411.28418 Z M1171.17022,415.749956 L1171.17022,403.136319 C1171.17585,402.196896 1171.35196,401.394302 1171.69857,400.728538 C1172.04517,400.062774 1172.52957,399.553297 1173.15176,399.200107 C1173.77395,398.846916 1174.49224,398.670321 1175.30663,398.670321 C1176.51875,398.670321 1177.46902,399.047223 1178.15742,399.801025 C1178.84582,400.554828 1179.18721,401.598381 1179.18159,402.931685 L1179.18159,402.931685 L1179.18159,415.749956 L1185.22703,415.749956 L1185.22703,401.85214 C1185.23258,400.160911 1184.92337,398.702615 1184.29933,397.477251 C1183.67529,396.251887 1182.79935,395.307284 1181.67149,394.643444 C1180.54363,393.979603 1179.22124,393.647683 1177.70432,393.647683 C1176.085,393.647683 1174.7076,394.018888 1173.57212,394.761297 C1172.43665,395.503706 1171.62462,396.511304 1171.13604,397.784091 L1171.13604,397.784091 L1170.88613,397.784091 L1170.88613,393.931774 L1165.12486,393.931774 L1165.12486,415.749956 L1171.17022,415.749956 Z M1199.93144,416.170321 C1201.73261,416.170321 1203.32307,415.895256 1204.70284,415.345126 C1206.0826,414.794996 1207.20901,414.020404 1208.08207,413.021351 C1208.95514,412.022298 1209.53371,410.8485 1209.8178,409.499956 L1209.8178,409.499956 L1204.22698,409.136408 C1204.0225,409.683727 1203.7195,410.145375 1203.318,410.521351 C1202.9165,410.897328 1202.4378,411.180938 1201.8819,411.372181 C1201.326,411.563425 1200.70995,411.659047 1200.03376,411.659047 C1199.02612,411.659047 1198.15299,411.44694 1197.41435,411.022727 C1196.67571,410.598514 1196.10376,409.993416 1195.69848,409.207431 C1195.29321,408.421446 1195.09057,407.488607 1195.09057,406.408913 L1195.09057,406.408913 L1195.09045,406.386956 L1209.9543,406.386275 L1209.9543,404.727228 C1209.9543,402.873091 1209.69292,401.252848 1209.17016,399.866499 C1208.64741,398.480151 1207.92013,397.326253 1206.98832,396.404807 C1206.05652,395.483361 1204.96847,394.793479 1203.72416,394.335161 C1202.47986,393.876842 1201.13609,393.647683 1199.69285,393.647683 C1197.5527,393.647683 1195.69098,394.121168 1194.10769,395.068137 C1192.5244,396.015107 1191.29619,397.33613 1190.42305,399.031206 C1189.54991,400.726281 1189.11335,402.69694 1189.11335,404.943182 C1189.11335,407.246242 1189.54847,409.238207 1190.41872,410.919078 C1191.28897,412.59995 1192.53235,413.895375 1194.14886,414.805353 C1195.76536,415.715332 1197.69289,416.170321 1199.93144,416.170321 Z M1195.10154,402.556572 C1195.14991,401.806098 1195.35126,401.117704 1195.70559,400.491388 C1196.1042,399.786784 1196.65674,399.221894 1197.36319,398.79672 C1198.06965,398.371545 1198.8803,398.158958 1199.79516,398.158958 C1200.672,398.158958 1201.44426,398.351681 1202.11195,398.737127 C1202.77964,399.122573 1203.30332,399.651952 1203.68299,400.325262 C1204.06267,400.998572 1204.25539,401.76891 1204.26116,402.636275 L1204.26116,402.636275 L1195.09845,402.636956 L1195.10154,402.556572 Z M1217.02237,423.931774 C1218.5242,423.931774 1219.80353,423.692183 1220.86037,423.213002 C1221.9172,422.73382 1222.79459,422.057218 1223.49254,421.183194 C1224.19048,420.309171 1224.74209,419.286 1225.14737,418.113681 L1225.14737,418.113681 L1233.62459,393.931774 L1227.227,393.931774 L1222.67023,409.954501 L1222.44295,409.954501 L1217.92014,393.931774 L1211.5565,393.931774 L1219.38609,416.374956 L1219.03386,417.295366 C1218.76871,417.977184 1218.42351,418.460138 1217.99826,418.744229 C1217.57301,419.02832 1217.07489,419.161858 1216.5039,419.144842 C1215.93291,419.127826 1215.29133,419.009455 1214.57918,418.789728 L1214.57918,418.789728 L1213.21555,423.312544 C1213.65308,423.488622 1214.20517,423.635846 1214.87182,423.754217 C1215.53847,423.872588 1216.25532,423.931774 1217.02237,423.931774 Z" id="Kidney" fill="#FFFFFF" fill-rule="nonzero"></path>
            <path d="M978.988459,276.749956 L978.988459,252.727184 L987.897594,252.727184 L987.897594,247.659047 L964,247.659047 L964,252.727184 L972.909135,252.727184 L972.909135,276.749956 L978.988459,276.749956 Z M994.776901,252.113503 C995.67741,252.113503 996.447267,251.814283 997.086472,251.215843 C997.725676,250.617402 998.045278,249.897816 998.045278,249.057085 C998.045278,248.216353 997.725676,247.496656 997.086472,246.897994 C996.447267,246.299331 995.676005,246 994.772684,246 C993.876614,246 993.107127,246.29922 992.464224,246.897661 C991.82132,247.496101 991.499868,248.215687 991.499868,249.056419 C991.499868,249.89715 991.820913,250.616847 992.463003,251.21551 C993.105093,251.814172 993.876392,252.113503 994.776901,252.113503 Z M997.784048,276.749956 L997.784048,254.931774 L991.738682,254.931774 L991.738682,276.749956 L997.784048,276.749956 Z M1011.55676,277.170321 C1013.44493,277.170321 1015.1177,276.87062 1016.57507,276.271218 C1018.03244,275.671816 1019.17828,274.832823 1020.01257,273.754239 C1020.84687,272.675655 1021.26683,271.42044 1021.27245,269.988592 C1021.26683,268.412923 1020.74459,267.142578 1019.70573,266.177557 C1018.66688,265.212536 1017.08692,264.513184 1014.96585,264.079501 L1014.96585,264.079501 L1011.01122,263.284047 C1009.99604,263.06432 1009.2806,262.775494 1008.86489,262.417569 C1008.44919,262.059644 1008.24414,261.61738 1008.24977,261.090776 C1008.24414,260.443137 1008.5633,259.923266 1009.20724,259.531161 C1009.85118,259.139057 1010.6419,258.943004 1011.5794,258.943004 C1012.28208,258.943004 1012.8877,259.058083 1013.39625,259.288241 C1013.9048,259.518399 1014.31437,259.825721 1014.62494,260.210205 C1014.93552,260.59469 1015.14008,261.020789 1015.23863,261.488503 L1015.23863,261.488503 L1020.77263,261.147594 C1020.50748,259.140018 1019.58085,257.554806 1017.99275,256.391957 C1016.40466,255.229107 1014.23277,254.647683 1011.47708,254.647683 C1009.61925,254.647683 1007.99571,254.921823 1006.60648,255.470104 C1005.21724,256.018385 1004.14055,256.798673 1003.37639,257.810969 C1002.61223,258.823264 1002.23296,260.03017 1002.23858,261.431685 C1002.23296,263.062396 1002.74906,264.404282 1003.78688,265.457342 C1004.8247,266.510402 1006.41087,267.248076 1008.5454,267.670366 L1008.5454,267.670366 L1012.31804,268.420321 C1013.26885,268.613562 1013.97105,268.887259 1014.42464,269.241411 C1014.87822,269.595563 1015.1079,270.049183 1015.11367,270.602273 C1015.1079,271.250059 1014.77971,271.781324 1014.12912,272.196067 C1013.47852,272.61081 1012.62484,272.818182 1011.56808,272.818182 C1010.48469,272.818182 1009.59875,272.588542 1008.91028,272.129261 C1008.2218,271.669981 1007.78575,270.998076 1007.60213,270.113548 L1007.60213,270.113548 L1001.65908,270.431818 C1001.94509,272.515152 1002.94367,274.159069 1004.6548,275.36357 C1006.36593,276.568071 1008.66658,277.170321 1011.55676,277.170321 Z M1034.03397,277.170321 C1035.92214,277.170321 1037.59491,276.87062 1039.05228,276.271218 C1040.50965,275.671816 1041.65549,274.832823 1042.48978,273.754239 C1043.32408,272.675655 1043.74404,271.42044 1043.74966,269.988592 C1043.74404,268.412923 1043.2218,267.142578 1042.18294,266.177557 C1041.14409,265.212536 1039.56413,264.513184 1037.44306,264.079501 L1037.44306,264.079501 L1033.48843,263.284047 C1032.47325,263.06432 1031.7578,262.775494 1031.3421,262.417569 C1030.92639,262.059644 1030.72135,261.61738 1030.72698,261.090776 C1030.72135,260.443137 1031.04051,259.923266 1031.68445,259.531161 C1032.32839,259.139057 1033.11911,258.943004 1034.05661,258.943004 C1034.75929,258.943004 1035.36491,259.058083 1035.87346,259.288241 C1036.38201,259.518399 1036.79158,259.825721 1037.10215,260.210205 C1037.41273,260.59469 1037.61729,261.020789 1037.71583,261.488503 L1037.71583,261.488503 L1043.24984,261.147594 C1042.98468,259.140018 1042.05806,257.554806 1040.46996,256.391957 C1038.88186,255.229107 1036.70997,254.647683 1033.95429,254.647683 C1032.09646,254.647683 1030.47292,254.921823 1029.08369,255.470104 C1027.69445,256.018385 1026.61776,256.798673 1025.8536,257.810969 C1025.08944,258.823264 1024.71017,260.03017 1024.71579,261.431685 C1024.71017,263.062396 1025.22627,264.404282 1026.26409,265.457342 C1027.3019,266.510402 1028.88808,267.248076 1031.02261,267.670366 L1031.02261,267.670366 L1034.79525,268.420321 C1035.74606,268.613562 1036.44826,268.887259 1036.90185,269.241411 C1037.35543,269.595563 1037.58511,270.049183 1037.59088,270.602273 C1037.58511,271.250059 1037.25692,271.781324 1036.60633,272.196067 C1035.95573,272.61081 1035.10205,272.818182 1034.04529,272.818182 C1032.9619,272.818182 1032.07596,272.588542 1031.38749,272.129261 C1030.69901,271.669981 1030.26296,270.998076 1030.07934,270.113548 L1030.07934,270.113548 L1024.13629,270.431818 C1024.4223,272.515152 1025.42088,274.159069 1027.13201,275.36357 C1028.84314,276.568071 1031.14379,277.170321 1034.03397,277.170321 Z M1054.96577,277.034047 C1056.6021,277.034047 1057.9913,276.645308 1059.13336,275.867831 C1060.27542,275.090354 1061.09074,274.062411 1061.57932,272.784002 L1061.57932,272.784002 L1061.80659,272.784002 L1061.80659,276.749956 L1067.61336,276.749956 L1067.61336,254.931774 L1061.568,254.931774 L1061.568,267.454412 C1061.57362,268.431715 1061.37994,269.251361 1060.98694,269.913352 C1060.59395,270.575343 1060.0807,271.075351 1059.44719,271.413374 C1058.81369,271.751398 1058.1342,271.92041 1057.40873,271.92041 C1056.26112,271.92041 1055.34497,271.546357 1054.66026,270.798251 C1053.97556,270.050145 1053.6304,269.034076 1053.62477,267.750044 L1053.62477,267.750044 L1053.62477,254.931774 L1047.57941,254.931774 L1047.57941,268.82959 C1047.58503,270.526441 1047.89797,271.987586 1048.51824,273.213024 C1049.1385,274.438462 1050.00309,275.381658 1051.11201,276.042614 C1052.22093,276.703569 1053.50551,277.034047 1054.96577,277.034047 Z M1082.38598,277.170321 C1084.18715,277.170321 1085.77761,276.895256 1087.15738,276.345126 C1088.53714,275.794996 1089.66355,275.020404 1090.53662,274.021351 C1091.40968,273.022298 1091.98825,271.8485 1092.27234,270.499956 L1092.27234,270.499956 L1086.68152,270.136408 C1086.47704,270.683727 1086.17404,271.145375 1085.77254,271.521351 C1085.37104,271.897328 1084.89234,272.180938 1084.33644,272.372181 C1083.78054,272.563425 1083.16449,272.659047 1082.4883,272.659047 C1081.48066,272.659047 1080.60753,272.44694 1079.86889,272.022727 C1079.13025,271.598514 1078.5583,270.993416 1078.15303,270.207431 C1077.74775,269.421446 1077.54512,268.488607 1077.54512,267.408913 L1077.54512,267.408913 L1077.54486,267.386956 L1092.40884,267.386275 L1092.40884,265.727228 C1092.40884,263.873091 1092.14746,262.252848 1091.62471,260.866499 C1091.10195,259.480151 1090.37467,258.326253 1089.44287,257.404807 C1088.51106,256.483361 1087.42301,255.793479 1086.17871,255.335161 C1084.9344,254.876842 1083.59063,254.647683 1082.14739,254.647683 C1080.00724,254.647683 1078.14552,255.121168 1076.56223,256.068137 C1074.97894,257.015107 1073.75073,258.33613 1072.87759,260.031206 C1072.00446,261.726281 1071.56789,263.69694 1071.56789,265.943182 C1071.56789,268.246242 1072.00301,270.238207 1072.87326,271.919078 C1073.74351,273.59995 1074.98689,274.895375 1076.6034,275.805353 C1078.21991,276.715332 1080.14743,277.170321 1082.38598,277.170321 Z M1077.55608,263.556572 C1077.60446,262.806098 1077.8058,262.117704 1078.16013,261.491388 C1078.55874,260.786784 1079.11128,260.221894 1079.81773,259.79672 C1080.52419,259.371545 1081.33484,259.158958 1082.24971,259.158958 C1083.12654,259.158958 1083.8988,259.351681 1084.56649,259.737127 C1085.23418,260.122573 1085.75786,260.651952 1086.13753,261.325262 C1086.51721,261.998572 1086.70993,262.76891 1086.7157,263.636275 L1086.7157,263.636275 L1077.55286,263.636956 L1077.55608,263.556572 Z" id="Tissue" fill="#000000" fill-rule="nonzero"></path>
            <path d="M1199.5,964 C1213.58326,964 1225,959.882678 1225,944.981311 C1225,930.079944 1213.58326,918 1199.5,918 C1185.41674,918 1174,930.079944 1174,944.981311 C1174,959.882678 1185.41674,964 1199.5,964 Z" id="Oval" fill="#000000"></path>
            <path d="M1199.5,944 C1209.71727,944 1218,941.941339 1218,934.490656 C1218,927.039972 1209.71727,921 1199.5,921 C1189.28273,921 1181,927.039972 1181,934.490656 C1181,941.941339 1189.28273,944 1199.5,944 Z" id="Oval" fill="#FFFFFF"></path>
            <g id="Group-8" transform="translate(656.000000, 909.000000) rotate(80.000000) translate(-656.000000, -909.000000) translate(613.000000, 853.000000)" stroke="#000000">
                <path d="M73.8012234,70.9058614 C65.0000661,86.0334702 53.3697824,101.80935 34.9912507,108.490336 C29.3922788,110.525681 22.8689256,111.877029 16.9849068,110.485158 C12.4954858,109.423181 8.38877116,106.750059 5.36682435,101.558404 C0.995888238,94.0492067 0.132657277,88.3805516 1.47589945,83.6330657 C3.26226221,77.3194373 8.88841548,72.6568466 15.0792093,67.4735254 C19.4581645,63.8071892 24.1294067,59.8919899 28.0083339,55.0085235 C34.5082508,46.8253005 34.8596626,38.9926816 35.1760773,31.5234446 C35.5862971,21.8398567 35.9531471,12.7890855 50.5200764,4.44716985 C57.1525825,0.648990731 62.670678,0.332951953 67.2824466,2.05956135 C73.404843,4.35173772 77.9140407,10.1856578 81.3302899,16.0547182 C84.9295602,22.2382058 85.5587612,31.0062634 84.3073054,40.2071007 C82.8443936,50.9625857 78.7982437,62.3168809 73.8012234,70.9058614 Z" id="Oval" fill="#000000"></path>
                <path d="M59.2295234,66.1308311 C51.7340942,80.054255 38.889514,90.607071 26.7420199,96.2743862 C22.9029513,98.0654726 18.4468596,100.102492 13.8810936,99.9052741 C10.7126732,99.7684145 7.49797133,98.5372765 4.40746606,95.3880067 C2.51489124,93.4594454 1.41326783,91.545291 0.958970974,89.6341456 C0.466627051,87.562943 0.738270903,85.5025169 1.55047513,83.4484522 C3.75414508,77.8753701 9.86232614,72.3610524 15.9702288,66.8137449 C21.1354386,62.1226082 26.3096557,57.4119593 29.2536453,52.6551713 C33.5540381,45.7067577 33.7895605,39.0552587 33.9988827,32.7137016 C34.269677,24.5098062 34.4907489,16.8312979 44.1128849,9.75949382 C46.184646,8.23684971 48.0876143,7.37795852 49.8421674,7.06062313 C51.7238105,6.72030174 53.426893,7.00910916 54.9705053,7.75080489 C58.999244,9.68658775 61.9494715,14.6214518 64.1955847,19.5738052 C69.3590337,30.9584604 66.0756842,53.4134808 59.2295234,66.1308311 Z" id="Oval" fill="#FFFFFF"></path>
            </g>
        </g>
    </g>
</svg>