<?xml version="1.0" encoding="UTF-8"?>
<svg width="1922px" height="1126px" viewBox="0 0 1922 1126" version="1.1" xmlns="http://www.w3.org/2000/svg" xmlns:xlink="http://www.w3.org/1999/xlink">
    <!-- Generator: Sketch 62 (91390) - https://sketch.com -->
    <title>Group 28</title>
    <desc>Created with Sketch.</desc>
    <defs>
        <path d="M840.452455,959 C1063.6138,959 1184,860.51751 1184,641.536607 C1184,422.555704 1063.6138,166 840.452455,166 C768.455144,166 747.254064,245.515014 750.653164,273.423859 C757.799669,332.101351 792.115229,349.961712 792.115229,406.638418 C792.115229,469.408269 750.653164,492.634899 750.653164,541.784244 C750.653164,606.154329 792.115229,690.127596 782.137459,725.372637 C744.258538,859.174496 682.890046,959 840.452455,959 Z" id="path-1"></path>
        <filter x="-3.1%" y="-1.8%" width="106.3%" height="103.5%" filterUnits="objectBoundingBox" id="filter-2">
            <feGaussianBlur stdDeviation="13" in="SourceAlpha" result="shadowBlurInner1"></feGaussianBlur>
            <feOffset dx="0" dy="2" in="shadowBlurInner1" result="shadowOffsetInner1"></feOffset>
            <feComposite in="shadowOffsetInner1" in2="SourceAlpha" operator="arithmetic" k2="-1" k3="1" result="shadowInnerInner1"></feComposite>
            <feColorMatrix values="0 0 0 0 0   0 0 0 0 0   0 0 0 0 0  0 0 0 0.5 0" type="matrix" in="shadowInnerInner1"></feColorMatrix>
        </filter>
    </defs>
    <g id="Page-1" stroke="none" stroke-width="1" fill="none" fill-rule="evenodd">
        <g id="Group-28">
            <g id="Group-6">
                <g id="2scene1-(2)">
                    <g id="Layer_3">
                        <polygon id="Path" fill="#FBFBFB" fill-rule="nonzero" points="1922 1082 0.5 1082 0.5 0.5 1921 0.5"></polygon>
                        <path d="M1046.54574,1124.13968 C1433.86152,1124.13968 1769.71823,1124.13968 1907.4696,1124.13968 C1969.6211,1124.13968 1862.05389,57.665218 919.683199,57.665218 C76.6652655,57.665218 -37.526892,1124.13968 9.882837,1124.13968 C443.381708,1124.13968 510.000424,1124.13968 1046.54574,1124.13968 Z" id="Oval" fill="#D5D5D5"></path>
                    </g>
                </g>
                <path d="M1199.5,964 C1213.58326,964 1225,959.882678 1225,944.981311 C1225,930.079944 1213.58326,918 1199.5,918 C1185.41674,918 1174,930.079944 1174,944.981311 C1174,959.882678 1185.41674,964 1199.5,964 Z" id="Oval" fill="#000000"></path>
                <path d="M1199.5,944 C1209.71727,944 1218,941.941339 1218,934.490656 C1218,927.039972 1209.71727,921 1199.5,921 C1189.28273,921 1181,927.039972 1181,934.490656 C1181,941.941339 1189.28273,944 1199.5,944 Z" id="Oval" fill="#FFFFFF"></path>
                <g id="Group-8" transform="translate(656.000000, 909.000000) rotate(80.000000) translate(-656.000000, -909.000000) translate(613.000000, 853.000000)" stroke="#000000">
                    <path d="M73.8012234,70.9058614 C65.0000661,86.0334702 53.3697824,101.80935 34.9912507,108.490336 C29.3922788,110.525681 22.8689256,111.877029 16.9849068,110.485158 C12.4954858,109.423181 8.38877116,106.750059 5.36682435,101.558404 C0.995888238,94.0492067 0.132657277,88.3805516 1.47589945,83.6330657 C3.26226221,77.3194373 8.88841548,72.6568466 15.0792093,67.4735254 C19.4581645,63.8071892 24.1294067,59.8919899 28.0083339,55.0085235 C34.5082508,46.8253005 34.8596626,38.9926816 35.1760773,31.5234446 C35.5862971,21.8398567 35.9531471,12.7890855 50.5200764,4.44716985 C57.1525825,0.648990731 62.670678,0.332951953 67.2824466,2.05956135 C73.404843,4.35173772 77.9140407,10.1856578 81.3302899,16.0547182 C84.9295602,22.2382058 85.5587612,31.0062634 84.3073054,40.2071007 C82.8443936,50.9625857 78.7982437,62.3168809 73.8012234,70.9058614 Z" id="Oval" fill="#000000"></path>
                    <path d="M59.2295234,66.1308311 C51.7340942,80.054255 38.889514,90.607071 26.7420199,96.2743862 C22.9029513,98.0654726 18.4468596,100.102492 13.8810936,99.9052741 C10.7126732,99.7684145 7.49797133,98.5372765 4.40746606,95.3880067 C2.51489124,93.4594454 1.41326783,91.545291 0.958970974,89.6341456 C0.466627051,87.562943 0.738270903,85.5025169 1.55047513,83.4484522 C3.75414508,77.8753701 9.86232614,72.3610524 15.9702288,66.8137449 C21.1354386,62.1226082 26.3096557,57.4119593 29.2536453,52.6551713 C33.5540381,45.7067577 33.7895605,39.0552587 33.9988827,32.7137016 C34.269677,24.5098062 34.4907489,16.8312979 44.1128849,9.75949382 C46.184646,8.23684971 48.0876143,7.37795852 49.8421674,7.06062313 C51.7238105,6.72030174 53.426893,7.00910916 54.9705053,7.75080489 C58.999244,9.68658775 61.9494715,14.6214518 64.1955847,19.5738052 C69.3590337,30.9584604 66.0756842,53.4134808 59.2295234,66.1308311 Z" id="Oval" fill="#FFFFFF"></path>
                </g>
            </g>
            <g id="Group-26" transform="translate(176.000000, 1.000000)" fill="#FFFFFF" stroke="#000000" stroke-width="3">
                <path d="M1410.1647,856.694997 C1346.82692,907.183913 1259.32206,938.393617 1162.67638,938.393617 C1155.29661,938.393617 1147.97017,938.211632 1140.70373,937.852976 C1140.36267,937.836142 1140.02152,937.818908 1139.67679,937.806293 C1139.53895,938.11678 1139.40048,938.426939 1139.26137,938.736766 C1114.75474,993.319605 1069.47315,1040.01322 1011.03426,1072.80461 C954.104542,1104.74917 884.687686,1123.5 809.777315,1123.5 C712.375637,1123.5 624.258196,1091.80015 560.807079,1040.61301 C557.118986,1039.74679 554.107481,1039.16265 551.104772,1038.56087 C515.132884,1048.11638 477.310491,1053.28723 437.972945,1053.28723 C341.327263,1053.28723 253.822408,1022.07753 190.484624,971.588614 C127.284127,921.209136 88.1493236,851.623728 88.1493236,774.734043 C88.1493236,766.790206 88.5669927,758.924133 89.3858058,751.149019 C89.4124932,750.895606 89.4396175,750.642188 89.4570855,750.38086 C89.2709444,750.213653 89.0849564,750.046178 88.8991219,749.878438 C34.5292583,700.802327 1.5,636.327785 1.5,565.691489 C1.5,475.097641 55.8214189,394.653926 139.825818,343.802895 C140.200105,343.576325 140.57464,343.350549 140.944851,343.124138 C140.771251,342.726007 140.598791,342.327336 140.427471,341.92813 C129.017236,315.340377 122.809053,286.724795 122.809053,256.914894 C122.809053,186.411396 157.537252,122.602611 213.627067,76.4064797 C269.832612,30.115032 347.484073,1.5 433.246618,1.5 C501.911551,1.5 565.375398,19.8432614 616.798738,50.9148598 C617.056106,51.0703695 617.313332,51.2262945 617.578571,51.382626 C617.835647,51.226285 618.092866,51.0703588 618.350227,50.9148479 C669.772169,19.8430162 733.235629,1.5 801.900104,1.5 C872.711174,1.5 937.991122,21.0077847 990.238445,53.8654299 C990.410647,53.9737254 990.58278,54.0822112 990.75565,54.1877525 C990.952026,54.1462441 991.148395,54.1049074 991.344758,54.0637422 C1015.90354,48.9152669 1041.63895,46.1808511 1068.14984,46.1808511 C1153.91239,46.1808511 1231.56385,74.7958831 1287.76939,121.087331 C1343.85921,167.283462 1378.58741,231.092247 1378.58741,301.595745 C1378.58741,344.145027 1365.93839,384.260075 1343.57658,419.534292 C1343.27495,420.010097 1342.97177,420.484681 1342.67447,420.95791 C1343.17981,421.199823 1343.68489,421.443009 1344.18972,421.687465 C1395.56291,446.564294 1438.26328,481.690167 1467.80475,523.516945 C1496.25933,563.804814 1512.5,610.309741 1512.5,659.840426 C1512.5,736.730111 1473.3652,806.315519 1410.1647,856.694997 Z" id="Combined-Shape"></path>
            </g>
            <g id="Oval">
                <use fill="#A23853" fill-rule="evenodd" xlink:href="#path-1"></use>
                <use fill="black" fill-opacity="1" filter="url(#filter-2)" xlink:href="#path-1"></use>
            </g>
            <path d="M867.037142,582 L867.037142,568.349854 L871.972189,562.27478 L884.977823,582 L897,582 L879.170565,555.487427 L896.777508,534 L884.755331,534 L867.649177,555.168823 L867.037142,555.168823 L867.037142,534 L857,534 L857,582 L867.037142,582 Z M909.507273,541 C911.020639,541 912.314435,540.510558 913.388661,539.531675 C914.462887,538.552792 915,537.375749 915,536.000545 C915,534.62534 914.462887,533.448115 913.388661,532.468869 C912.314435,531.489623 911.018277,531 909.500186,531 C907.994281,531 906.701107,531.489442 905.620664,532.468325 C904.540221,533.447208 904,534.624251 904,535.999455 C904,537.37466 904.539537,538.551885 905.618612,539.531131 C906.697687,540.510377 907.993908,541 909.507273,541 Z M914,582 L914,546 L904,546 L904,582 L914,582 Z M935.564771,582 C937.496759,582 939.13509,581.682735 940.479764,581.048206 C941.824439,580.413677 942.92445,579.615541 943.779798,578.653797 C944.635146,577.692053 945.293363,576.720298 945.75445,575.738533 L945.75445,575.738533 L946.184619,575.738533 L946.184619,581.425776 L956,581.425776 L956,534 L946.053523,534 L946.053523,551.840388 L945.75445,551.840388 C945.312108,550.870683 944.674888,549.889521 943.842789,548.896901 C943.010691,547.904281 941.920052,547.072193 940.570874,546.400636 C939.221696,545.72908 937.546787,545.393302 935.546147,545.393302 C932.916199,545.393302 930.497319,546.067934 928.289506,547.417197 C926.081694,548.766461 924.314823,550.796569 922.988894,553.507519 C921.662965,556.21847 921,559.608636 921,563.678017 C921,567.648738 921.64428,570.995726 922.93284,573.718979 C924.2214,576.442232 925.966422,578.503215 928.167905,579.901929 C930.369388,581.300643 932.83501,582 935.564771,582 Z M938.509257,574 C936.885791,574 935.517232,573.553978 934.403579,572.661934 C933.289927,571.76989 932.444251,570.5303 931.86655,568.943165 C931.28885,567.35603 931,565.523037 931,563.444187 C931,561.377699 931.285764,559.56022 931.857293,557.99175 C932.428822,556.423279 933.271413,555.199204 934.385065,554.319522 C935.498717,553.439841 936.873448,553 938.509257,553 C940.107795,553 941.463891,553.427418 942.577543,554.282253 C943.691195,555.137088 944.540018,556.34565 945.124011,557.907939 C945.708004,559.470228 946,561.315644 946,563.444187 C946,565.566427 945.704918,567.418024 945.114754,568.998978 C944.524589,570.579932 943.67262,571.808675 942.558847,572.685205 C941.445074,573.561735 940.09521,574 938.509257,574 Z M973.924156,581 L973.924156,560.455013 C973.933386,558.924888 974.222497,557.617629 974.79149,556.533238 C975.360483,555.448847 976.155676,554.619015 977.177069,554.043742 C978.198463,553.468469 979.37762,553.180832 980.71454,553.180832 C982.704375,553.180832 984.264338,553.794726 985.394429,555.022514 C986.52452,556.250301 987.084951,557.950032 987.075721,560.121706 L987.075721,560.121706 L987.075721,581 L997,581 L997,558.363352 C997.009107,555.608692 996.501507,553.233431 995.477077,551.237568 C994.452647,549.241705 993.014681,547.703145 991.163177,546.621887 C989.311674,545.540629 987.140818,545 984.650609,545 C981.992314,545 979.73116,545.604615 977.867148,546.813846 C976.003135,548.023076 974.670101,549.664243 973.868046,551.737347 L973.868046,551.737347 L973.457788,551.737347 L973.457788,545.462725 L964,545.462725 L964,581 L973.924156,581 Z M1020.64867,582 C1023.5871,582 1026.18179,581.548125 1028.43274,580.644376 C1030.6837,579.740627 1032.52133,578.468134 1033.94564,576.826898 C1035.36996,575.185663 1036.31385,573.257356 1036.77732,571.04198 L1036.77732,571.04198 L1027.65644,570.444747 C1027.32284,571.343877 1026.82853,572.102268 1026.17352,572.71992 C1025.51851,573.337571 1024.73756,573.803483 1023.83066,574.117656 C1022.92376,574.431829 1021.91874,574.588916 1020.81559,574.588916 C1019.17173,574.588916 1017.7473,574.240469 1016.54228,573.543576 C1015.33727,572.846683 1014.40418,571.852631 1013.74302,570.561422 C1013.08185,569.270213 1012.75127,567.737753 1012.75127,565.964041 L1012.75127,565.964041 L1012.75107,565.927969 L1037,565.926851 L1037,563.201384 C1037,560.155423 1036.57359,557.493701 1035.72076,555.216219 C1034.86793,552.938737 1033.68144,551.043124 1032.1613,549.529381 C1030.64115,548.015637 1028.8661,546.882305 1026.83614,546.129383 C1024.80618,545.376461 1022.61394,545 1020.25943,545 C1016.76798,545 1013.73077,545.777837 1011.14778,547.333511 C1008.5648,548.889185 1006.56109,551.059349 1005.13665,553.844006 C1003.71222,556.628662 1003,559.866043 1003,563.55615 C1003,567.339597 1003.70986,570.611982 1005.12959,573.373303 C1006.54932,576.134624 1008.57778,578.262737 1011.21495,579.757642 C1013.85212,581.252547 1016.9967,582 1020.64867,582 Z M1013.00506,559.874344 C1013.08425,558.701205 1013.41387,557.625108 1013.99392,556.646052 C1014.64648,555.544616 1015.55102,554.661581 1016.70754,553.996949 C1017.86405,553.332316 1019.19115,553 1020.68885,553 C1022.12429,553 1023.38853,553.301265 1024.48158,553.903794 C1025.57464,554.506323 1026.43194,555.333846 1027.0535,556.386364 C1027.67505,557.438881 1027.99055,558.643072 1028,559.998936 L1028,559.998936 L1013,560 L1013.00506,559.874344 Z M1048.91654,595 C1051.36651,595 1053.4535,594.608668 1055.17753,593.826005 C1056.90156,593.043342 1058.33286,591.938225 1059.47143,590.510653 C1060.61,589.083082 1061.50985,587.411902 1062.17097,585.497115 L1062.17097,585.497115 L1076,546 L1065.56351,546 L1058.12998,572.170455 L1057.75923,572.170455 L1050.38109,546 L1040,546 L1052.77252,582.657197 L1052.19793,584.160534 C1051.76538,585.27417 1051.20225,586.062996 1050.50854,586.527011 C1049.81482,586.991026 1049.00223,587.209137 1048.07076,587.181345 C1047.13929,587.153552 1046.09269,586.960212 1044.93095,586.601326 L1044.93095,586.601326 L1042.70643,593.988592 C1043.42017,594.276185 1044.32081,594.516651 1045.40833,594.709991 C1046.49585,594.90333 1047.66525,595 1048.91654,595 Z" id="Kidney" fill="#FFFFFF" fill-rule="nonzero"></path>
        </g>
    </g>
</svg>