<?xml version="1.0" encoding="UTF-8"?>
<svg width="1922px" height="1126px" viewBox="0 0 1922 1126" version="1.1" xmlns="http://www.w3.org/2000/svg" xmlns:xlink="http://www.w3.org/1999/xlink">
    <!-- Generator: Sketch 62 (91390) - https://sketch.com -->
    <title>Group 28</title>
    <desc>Created with Sketch.</desc>
    <g id="Page-1" stroke="none" stroke-width="1" fill="none" fill-rule="evenodd">
        <g id="Group-28">
            <g id="Group-6">
                <g id="2scene1-(2)">
                    <g id="Layer_3">
                        <polygon id="Path" fill="#FBFBFB" fill-rule="nonzero" points="1922 1082 0.5 1082 0.5 0.5 1921 0.5"></polygon>
                        <path d="M1046.54574,1124.13968 C1433.86152,1124.13968 1769.71823,1124.13968 1907.4696,1124.13968 C1969.6211,1124.13968 1862.05389,57.665218 919.683199,57.665218 C76.6652655,57.665218 -37.526892,1124.13968 9.882837,1124.13968 C443.381708,1124.13968 510.000424,1124.13968 1046.54574,1124.13968 Z" id="Oval" fill="#D5D5D5"></path>
                    </g>
                </g>
                <path d="M1199.5,964 C1213.58326,964 1225,959.882678 1225,944.981311 C1225,930.079944 1213.58326,918 1199.5,918 C1185.41674,918 1174,930.079944 1174,944.981311 C1174,959.882678 1185.41674,964 1199.5,964 Z" id="Oval" fill="#000000"></path>
                <path d="M1199.5,944 C1209.71727,944 1218,941.941339 1218,934.490656 C1218,927.039972 1209.71727,921 1199.5,921 C1189.28273,921 1181,927.039972 1181,934.490656 C1181,941.941339 1189.28273,944 1199.5,944 Z" id="Oval" fill="#FFFFFF"></path>
                <g id="Group-8" transform="translate(656.000000, 909.000000) rotate(80.000000) translate(-656.000000, -909.000000) translate(613.000000, 853.000000)" stroke="#000000">
                    <path d="M73.8012234,70.9058614 C65.0000661,86.0334702 53.3697824,101.80935 34.9912507,108.490336 C29.3922788,110.525681 22.8689256,111.877029 16.9849068,110.485158 C12.4954858,109.423181 8.38877116,106.750059 5.36682435,101.558404 C0.995888238,94.0492067 0.132657277,88.3805516 1.47589945,83.6330657 C3.26226221,77.3194373 8.88841548,72.6568466 15.0792093,67.4735254 C19.4581645,63.8071892 24.1294067,59.8919899 28.0083339,55.0085235 C34.5082508,46.8253005 34.8596626,38.9926816 35.1760773,31.5234446 C35.5862971,21.8398567 35.9531471,12.7890855 50.5200764,4.44716985 C57.1525825,0.648990731 62.670678,0.332951953 67.2824466,2.05956135 C73.404843,4.35173772 77.9140407,10.1856578 81.3302899,16.0547182 C84.9295602,22.2382058 85.5587612,31.0062634 84.3073054,40.2071007 C82.8443936,50.9625857 78.7982437,62.3168809 73.8012234,70.9058614 Z" id="Oval" fill="#000000"></path>
                    <path d="M59.2295234,66.1308311 C51.7340942,80.054255 38.889514,90.607071 26.7420199,96.2743862 C22.9029513,98.0654726 18.4468596,100.102492 13.8810936,99.9052741 C10.7126732,99.7684145 7.49797133,98.5372765 4.40746606,95.3880067 C2.51489124,93.4594454 1.41326783,91.545291 0.958970974,89.6341456 C0.466627051,87.562943 0.738270903,85.5025169 1.55047513,83.4484522 C3.75414508,77.8753701 9.86232614,72.3610524 15.9702288,66.8137449 C21.1354386,62.1226082 26.3096557,57.4119593 29.2536453,52.6551713 C33.5540381,45.7067577 33.7895605,39.0552587 33.9988827,32.7137016 C34.269677,24.5098062 34.4907489,16.8312979 44.1128849,9.75949382 C46.184646,8.23684971 48.0876143,7.37795852 49.8421674,7.06062313 C51.7238105,6.72030174 53.426893,7.00910916 54.9705053,7.75080489 C58.999244,9.68658775 61.9494715,14.6214518 64.1955847,19.5738052 C69.3590337,30.9584604 66.0756842,53.4134808 59.2295234,66.1308311 Z" id="Oval" fill="#FFFFFF"></path>
                </g>
            </g>
            <g id="Group-26" transform="translate(176.000000, 1.000000)">
                <path d="M1410.1647,856.694997 C1346.82692,907.183913 1259.32206,938.393617 1162.67638,938.393617 C1155.29661,938.393617 1147.97017,938.211632 1140.70373,937.852976 C1140.36267,937.836142 1140.02152,937.818908 1139.67679,937.806293 C1139.53895,938.11678 1139.40048,938.426939 1139.26137,938.736766 C1114.75474,993.319605 1069.47315,1040.01322 1011.03426,1072.80461 C954.104542,1104.74917 884.687686,1123.5 809.777315,1123.5 C712.375637,1123.5 624.258196,1091.80015 560.807079,1040.61301 C557.118986,1039.74679 554.107481,1039.16265 551.104772,1038.56087 C515.132884,1048.11638 477.310491,1053.28723 437.972945,1053.28723 C341.327263,1053.28723 253.822408,1022.07753 190.484624,971.588614 C127.284127,921.209136 88.1493236,851.623728 88.1493236,774.734043 C88.1493236,766.790206 88.5669927,758.924133 89.3858058,751.149019 C89.4124932,750.895606 89.4396175,750.642188 89.4570855,750.38086 C89.2709444,750.213653 89.0849564,750.046178 88.8991219,749.878438 C34.5292583,700.802327 1.5,636.327785 1.5,565.691489 C1.5,475.097641 55.8214189,394.653926 139.825818,343.802895 C140.200105,343.576325 140.57464,343.350549 140.944851,343.124138 C140.771251,342.726007 140.598791,342.327336 140.427471,341.92813 C129.017236,315.340377 122.809053,286.724795 122.809053,256.914894 C122.809053,186.411396 157.537252,122.602611 213.627067,76.4064797 C269.832612,30.115032 347.484073,1.5 433.246618,1.5 C501.911551,1.5 565.375398,19.8432614 616.798738,50.9148598 C617.056106,51.0703695 617.313332,51.2262945 617.578571,51.382626 C617.835647,51.226285 618.092866,51.0703588 618.350227,50.9148479 C669.772169,19.8430162 733.235629,1.5 801.900104,1.5 C872.711174,1.5 937.991122,21.0077847 990.238445,53.8654299 C990.410647,53.9737254 990.58278,54.0822112 990.75565,54.1877525 C990.952026,54.1462441 991.148395,54.1049074 991.344758,54.0637422 C1015.90354,48.9152669 1041.63895,46.1808511 1068.14984,46.1808511 C1153.91239,46.1808511 1231.56385,74.7958831 1287.76939,121.087331 C1343.85921,167.283462 1378.58741,231.092247 1378.58741,301.595745 C1378.58741,344.145027 1365.93839,384.260075 1343.57658,419.534292 C1343.27495,420.010097 1342.97177,420.484681 1342.67447,420.95791 C1343.17981,421.199823 1343.68489,421.443009 1344.18972,421.687465 C1395.56291,446.564294 1438.26328,481.690167 1467.80475,523.516945 C1496.25933,563.804814 1512.5,610.309741 1512.5,659.840426 C1512.5,736.730111 1473.3652,806.315519 1410.1647,856.694997 Z" id="Combined-Shape" stroke="#000000" stroke-width="3" fill="#FFFFFF"></path>
                <g id="Group-44" transform="translate(590.000000, 239.000000)" fill-rule="nonzero">
                    <path d="M191.820794,1.22098833 C154.325718,-0.83917904 116.536948,11.6199284 86.0905546,33.7912534 C55.6441616,55.9625783 38.8056421,89.0233594 24.1208866,123.653792 C1.99585507,175.844698 -2.80116504,223.326651 14.3310496,277.283415 C31.4632643,331.24018 59.0706046,374.798004 107.432399,404.32707 C123.879325,414.333597 140.619946,421.985647 159.808027,423.849608 C179.289803,425.811672 195.736729,430.03011 214.141622,423.457195 C246.643881,411.97912 273.859628,398.735187 285.803229,366.263025 C295.201472,340.756191 304.599716,311.030919 291.677131,287.191839 C278.656648,263.35276 258.68538,244.124531 237.930926,226.66216 C219.917626,211.554266 200.43585,196.642578 190.058623,175.550389 C214.23952,196.838785 271.020575,162.110249 279.831428,120.22018 C281.887294,110.606065 282.474684,92.2607653 279.831428,82.8428573 C277.383969,74.209775 267.300437,45.1712255 261.818128,38.1077945 C238.90991,8.97114175 206.505549,-4.46899773 170.576848,4.5564974" id="Path" fill="#82533F"></path>
                    <g id="Group" opacity="0.4" transform="translate(45.000000, 44.000000)" fill="#FFB1A8">
                        <path d="M144.112069,0.978915663 C116.178017,-0.587349398 87.9478448,8.7123494 65.3439655,24.9623494 C42.6413793,41.310241 25.3676724,64.4126506 14.4112069,89.9623494 C-2.07284483,128.433735 -4.24439655,172.876506 8.5875,212.718373 C21.4193966,252.560241 49.0573276,287.605422 85.0853448,309.337349 C97.325,316.679217 110.749138,322.650602 124.962931,324.118976 C139.472845,325.489458 154.081466,322.161145 167.801724,317.266566 C192.083621,308.75 216.365517,293.968373 225.249138,270.082831 C232.257328,251.287651 228.210345,229.751506 218.537069,212.131024 C208.863793,194.510542 193.959052,180.316265 178.462069,167.49247 C165.037931,156.332831 150.528017,145.368976 142.730172,129.804217 C174.513793,127.944277 203.632328,103.177711 210.146983,72.1460843 C211.627586,65 212.121121,57.560241 210.048276,50.5120482 C208.271552,44.1490964 204.52069,38.4713855 200.375,33.2831325 C183.298707,11.8448795 154.871121,-3.13253012 128.022845,3.52409639" id="Path"></path>
                    </g>
                    <g id="Group" transform="translate(148.000000, 159.000000)" fill="#FFEAA9">
                        <path d="M47.6561825,111.487987 C46.5685065,100.79009 54.2811183,77.6276712 64.8612396,75.5666085 C75.5402405,73.4074 86.5158804,77.2350878 95.909446,82.5349632 C127.254291,100.201215 146.83246,133.963384 155.138349,168.805158 C163.444239,203.646932 162.059924,239.960893 160.576729,275.68598 C159.785692,294.33369 159.093535,312.981399 158.302498,331.530964 C157.313701,355.772986 156.324905,380.015009 153.358516,404.060741 C150.095488,430.560118 148.513414,451.75962 154.545071,477.768268 C157.511461,477.866414 160.47785,477.964559 163.543119,478.062705 C162.455442,453.624391 157.313701,434.878535 159.390174,410.44022 C163.345359,363.23207 176.397471,321.912671 177.682907,274.606375 C178.177305,256.056811 179.264981,232.992539 177.188509,214.54112 C173.727721,184.80293 169.278138,163.112699 159.291294,134.846697 C149.304451,106.67884 132.494912,84.8904634 109.752595,65.2612951 C82.3629356,41.6081473 59.7194984,31.3028339 25.111625,20.2123538 C23.2329119,19.6234787 18.4866893,15.5994992 16.8057354,16.5809576 C14.6303834,17.8568536 4.94017885,10.0051862 5.03830715,12.5569781 C6.42337342,43.8655016 26.5948196,79.1980046 43.8987563,105.304799 C45.6785898,104.912215 44.788673,95.7846519 44.9864323,94.0180267" id="Path"></path>
                        <path d="M50.7214513,111.487987 C50.4248124,103.538173 54.8743961,91.6625265 61.4993319,86.7552344 C66.3444342,83.1238383 74.2548052,84.5960259 79.5943057,86.1663594 C87.2080378,88.2274221 94.1296125,91.956964 100.655669,96.2753811 C123.397985,111.586132 138.922089,135.828155 147.227978,161.542366 C157.412581,192.949035 157.214822,226.416767 156.028266,259.001187 C154.742831,294.726273 153.556275,330.549505 151.380923,366.274592 C150.194367,385.609322 147.326858,404.747761 145.843663,424.082492 C144.459348,443.220931 145.349265,462.163079 149.40333,480.908935 C149.996608,483.657018 151.282043,488.466164 154.94059,488.662456 C157.906979,488.760602 160.873368,488.858748 163.938637,488.9603 C168.388221,489.153185 169.377017,480.810789 169.278138,478.062705 C167.992702,453.918828 163.1476,430.560118 165.718471,406.318095 C168.289341,382.37051 173.233323,358.815508 177.089629,335.064214 C185.09888,285.795001 187.373111,234.464726 178.869462,185.097368 C174.815397,161.738657 168.783739,137.987364 159.390174,116.198987 C150.886525,96.4716728 138.229931,79.0017129 122.903587,63.9853992 C108.071641,49.3616687 91.262103,36.4064176 72.7716106,26.6899793 C63.7735636,21.9789789 54.3799979,18.0531453 44.788673,14.519895 C39.7458115,12.655124 34.8018296,10.9866447 29.6600884,9.31816535 C25.9026621,8.14041525 22.0463563,4.60716494 18.0911707,4.21458158 C17.1023743,4.11643574 16.2124576,4.41087326 15.5203001,4.31272742 C13.9382259,4.01828989 12.3561517,2.74239395 10.9718368,1.95722722 C7.01665125,-0.103835456 3.75362319,-1.67416892 1.57827115,3.62570653 C-1.09147908,10.2996238 0.39171549,18.9364578 1.57827115,25.8066667 C2.66594717,32.1861465 4.14914174,38.4674803 6.12673451,44.6506683 C13.8393463,70.0704413 27.1880974,93.4291517 41.7234043,115.511966 C42.613321,116.787862 44.5909138,117.474883 45.9752287,116.59157 C49.5348957,114.334216 50.3259328,108.936195 50.7214513,105.206653 C50.9192106,103.047444 50.9192106,100.79009 50.9192106,98.6308813 C50.9192106,97.4531312 51.0180902,92.5458391 50.820331,97.0605478 C51.0180902,93.0365683 51.1169699,84.9886093 46.5685065,82.9275466 C42.1189228,80.9646298 40.0424504,88.2274221 39.8446911,91.1717973 C39.7458115,93.23286 39.7458115,95.2939227 39.7458115,97.3549853 C39.7458115,98.1401521 39.7458115,99.0234646 39.7458115,99.8086314 C39.7458115,100.103069 39.7458115,100.495652 39.7458115,100.79009 C39.6469319,98.3364437 40.5368486,96.0790894 42.4155617,94.1161726 C43.7998767,94.5087559 45.2830712,94.8031934 46.6673862,95.1957768 C37.5704595,81.455359 29.0668106,67.3223578 22.0463563,52.4041898 C18.8822078,45.6321268 16.0146983,38.7619178 13.8393463,31.5972714 C12.8505499,28.4566045 12.0595128,25.2177917 11.466235,21.9789789 C11.1695961,20.2123538 10.8729571,18.3475828 10.6751979,16.5809576 C10.1807997,13.0477073 10.9718368,11.8699572 9.78528112,18.2494369 C8.79648474,20.2123538 7.90656799,22.0771248 6.91777161,24.0400416 C5.63233631,25.0215 5.83009559,23.7456041 7.11553089,24.9233542 C8.00544763,25.7085209 9.38976257,26.1992501 10.3785589,26.6899793 C12.6527906,27.9658753 14.729263,28.4566045 17.201254,28.9473337 C19.376606,29.339917 21.0575599,30.615813 23.1340323,31.6954172 C26.7925789,33.5601882 31.2421626,34.4435008 35.0984685,35.8175426 C50.3259328,41.117418 65.2567581,47.3987519 79.0999075,55.6430026 C107.379484,72.6222332 133.681468,96.962402 148.513414,126.602446 C156.819303,143.287239 162.059924,161.738657 166.113989,179.797492 C169.970295,196.874869 172.541166,214.639266 173.035564,231.618497 C173.529962,250.364352 173.134443,268.521333 171.651249,286.874606 C170.069175,306.111191 166.707267,325.053338 163.24648,343.995485 C159.291294,366.372737 154.94059,389.142573 153.852914,411.912408 C152.765238,434.191514 157.017062,455.881745 158.104738,478.062705 C159.884572,474.431309 161.664405,470.799913 163.444239,467.168517 C160.47785,467.070371 157.511461,467.070371 154.446192,466.972225 C156.324905,469.524017 158.104738,472.075809 159.983452,474.725747 C151.776442,439.883973 159.884572,404.649616 161.961044,369.61155 C164.334156,329.568047 166.015109,289.230106 166.905026,249.088457 C167.696063,213.265224 166.015109,176.166096 153.160757,142.403927 C142.481756,114.530508 124.98006,88.3255679 98.3814369,73.3092541 C85.8237229,66.2427535 65.7511563,59.4706904 55.171035,73.1129624 C46.8651454,83.909005 43.0088396,100.004923 44.6897934,113.352758 C44.8875527,115.119383 45.8763491,118.554487 48.2494604,118.063758 C50.5236921,117.573029 50.820331,113.05832 50.7214513,111.487987 L50.7214513,111.487987 Z" id="Path"></path>
                    </g>
                    <path d="M213.469298,184.046941 C269.568545,207.171669 304.348113,258.90835 318.004498,316.426212 C326.159029,350.525388 327.63274,385.800397 327.63274,420.781448 C327.63274,438.810897 327.63274,456.840346 326.060782,474.869795 C324.587071,492.997231 320.755424,510.634735 317.709756,528.566198 C314.467592,547.477523 311.716666,566.486833 310.83244,585.59413 C309.948213,604.211496 310.046461,623.90671 314.958829,641.936159 C315.646561,644.287826 317.316766,642.230117 317.218519,640.662339 C315.548313,622.240945 313.583366,604.211496 314.467592,585.692116 C315.351819,567.956626 317.90625,550.319121 320.853671,532.779602 C323.89934,514.456195 327.829234,496.328759 329.401192,477.80938 C330.97315,459.77993 331.071398,441.554509 330.97315,423.427074 C330.874903,359.148168 325.471298,290.165927 286.761834,236.175566 C268.684319,210.993129 244.024229,189.436179 213.567545,181.009371 C212.879814,180.813398 212.781566,183.752983 213.469298,184.046941 L213.469298,184.046941 Z" id="Path" fill="#000000"></path>
                    <path d="M207.899135,241.432777 C221.933529,238.886408 235.575353,245.839954 246.567327,253.968747 C256.676016,261.314041 265.312567,270.520144 272.575121,280.705619 C288.27794,302.839441 296.816347,328.890752 300.938337,355.529688 C305.649183,385.890239 305.845468,417.034288 305.845468,447.590714 C305.845468,478.538889 303.784473,509.095315 299.368056,539.749678 C294.755352,571.8731 290.044507,604.877958 299.564341,636.609631 C300.64391,640.331247 302.606762,635.630258 302.017906,633.573575 C293.577641,602.821275 298.484772,570.79579 302.90119,539.749678 C307.317608,508.409754 309.182317,477.167767 308.986032,445.534032 C308.691604,389.611855 308.986032,327.323756 276.795253,278.942749 C269.238272,267.582026 259.914723,257.298614 248.92275,249.071883 C237.145635,240.355467 222.71867,233.010172 207.800992,237.221475 C206.623281,237.613224 206.819566,241.628652 207.899135,241.432777 L207.899135,241.432777 Z" id="Path" fill="#000000"></path>
                    <path d="M214.415533,183.050698 C231.137953,176.579347 248.057108,171.382656 260.844841,158.047752 C270.878293,147.556321 277.665628,134.319467 281.108479,120.396259 C288.584385,90.0985722 279.829706,58.2320735 258.680763,35.3862452 C235.564476,10.4813508 202.119636,-1.67694404 168.379694,0.1860205 C131.492002,2.24508657 96.6700217,19.4039705 70.0125166,44.5049664 C17.2877095,94.1186535 -8.18938942,174.520281 2.33589856,245.509035 C12.7628194,315.615332 56.929682,387.780695 123.819363,416.60762 C156.083797,430.530829 194.742097,435.139215 228.285305,422.98092 C257.893825,412.195336 279.829706,387.192391 291.732134,358.659618 C294.781517,351.403861 297.142329,343.853952 298.912938,336.107942 C299.503141,333.558622 296.945595,326.989221 295.666821,332.087861 C288.486018,361.012836 272.157066,388.369 246.778334,405.03763 C219.235525,423.078971 183.528239,424.941935 152.050743,417.784229 C83.1937184,401.900005 34.6986999,341.892937 13.7464911,277.179432 C-8.38612378,208.838049 7.64772613,129.809132 51.8145888,73.4299421 C72.3733288,47.152337 99.9161385,25.9733717 131.787104,15.3838891 C164.149905,4.59830493 200.545761,4.99050799 230.842852,21.6591381 C257.303622,36.2687021 279.141136,62.8404594 280.813378,93.8245012 C282.387253,123.828035 266.255035,154.027671 239.007327,167.460626 C230.842852,171.480707 222.18654,174.324179 213.726963,177.755956 C212.153088,178.148159 212.644924,183.737053 214.415533,183.050698 L214.415533,183.050698 Z" id="Path" fill="#000000"></path>
                    <path d="M219.162999,177.990235 C214.19696,179.941604 208.646682,178.087804 204.070137,175.941299 C199.006726,173.599657 194.040688,171.160446 188.879903,169.013941 C179.824186,165.306342 168.821004,160.720626 158.888927,161.013331 C157.623075,161.013331 157.817821,164.720931 158.791554,165.208773 C164.147085,167.84312 170.086857,169.209078 175.831881,171.062878 C181.479532,172.916678 187.02981,174.965615 192.482715,177.209688 C200.759445,180.624583 211.470508,188.332487 219.649865,180.819719 C220.136732,180.331877 220.234105,177.502393 219.162999,177.990235 L219.162999,177.990235 Z" id="Path" fill="#000000"></path>
                    <path d="M218.24176,237.541552 C209.610755,233.882567 203.856753,249.770264 202.110002,255.066164 C198.92475,264.79136 198,275.094292 198,285.300934 C198,286.937848 199.438501,287.900739 199.746751,285.782379 C200.774251,277.694097 201.185251,269.509525 203.343003,261.613821 C205.295253,254.199562 208.994255,243.318896 218.139009,241.778271 C219.26926,241.393115 219.26926,237.926708 218.24176,237.541552 L218.24176,237.541552 Z" id="Path" fill="#000000"></path>
                </g>
            </g>
        </g>
    </g>
</svg>