<?xml version="1.0" encoding="UTF-8"?>
<svg width="345px" height="440px" viewBox="0 0 345 440" version="1.1" xmlns="http://www.w3.org/2000/svg" xmlns:xlink="http://www.w3.org/1999/xlink">
    <!-- Generator: Sketch 62 (91390) - https://sketch.com -->
    <title>Group 50</title>
    <desc>Created with Sketch.</desc>
    <g id="Page-1" stroke="none" stroke-width="1" fill="none" fill-rule="evenodd">
        <g id="Group-50" transform="translate(0.000000, 0.875150)" fill-rule="nonzero">
            <path d="M295.6,51.9248504 C305,57.8248504 313.9,77.7248504 316.2,88.6248504 C319.3,103.42485 315.3,110.22485 313.2,125.22485 C312.4,130.82485 311.3,136.62485 312.7,142.12485 C314.7,149.62485 319.2,149.82485 324.4,155.72485 C340.5,173.72485 347.5,205.92485 338.7,228.42485 C331.8,246.22485 317.5,260.22485 302.6,272.22485 C300.4,274.02485 298.2,275.82485 297.1,278.42485 C296,281.12485 296.7,275.52485 297.1,278.42485 C299.5,295.52485 300.5,324.12485 288.1,336.22485 C280.7,343.42485 274.6,340.52485 264.5,342.72485 C256.3,344.52485 244.7,341.12485 237.9,336.12485 C240.3,350.92485 238.1,370.72485 227.1,380.82485 C216.1,390.92485 201.8,396.82485 187.2,393.12485 C186.5,408.82485 167,427.22485 152.5,433.02485 C138,438.92485 121.6,438.22485 106.2,435.22485 C83.8,430.82485 71.3,422.52485 59.5,402.92485 C52.2,390.72485 44,381.32485 44.2,367.12485 C44.5,346.42485 45.8,318.42485 56.1,300.52485 C72.6,271.72485 101.4,247.22485 102.8,214.12485 C103.6,194.22485 93.9,175.22485 81.2,159.92485 C70.1,146.62485 58.5,146.92485 54.5,111.62485 C52.5,93.7248504 57.4,82.2248504 62.8,65.0248504 C65.3,57.2248504 78.2,43.9248504 82.8,37.1248504 C89.1,27.6248504 100,23.7248504 110.1,18.4248504 C127.6,9.22485039 129,6.42485039 148.5,3.32485039 C164.3,0.824850395 180.9,-0.175149605 195.9,5.12485039 C202.4,7.42485039 208.5,10.8248504 215.2,12.3248504 C226,14.7248504 232.7,15.9248504 242.6,20.8248504 C247.8,23.3248504 265.3,36.1248504 269.6,40.0248504 C280.3,49.8248504 295.6,51.9248504 295.6,51.9248504 Z" id="Path" fill="#82533F"></path>
            <g id="Group" opacity="0.4" transform="translate(67.000000, 35.124850)" fill="#FFB1A8">
                <path d="M208.2,41.5 C215.8,46.3 219.4,55.6 221.2,64.5 C223.7,76.5 224.1,88.9 222.4,101.1 C221.8,105.7 220.8,110.4 222,114.8 C223.6,120.9 228.9,125.2 233.2,130 C246.3,144.6 250.3,166.7 243.2,185 C237.6,199.5 225.9,210.8 213.9,220.6 C212.1,222 210.3,223.5 209.4,225.6 C208.5,227.8 208.8,230.3 209.1,232.7 C211.1,246.6 212.1,262.8 202.1,272.6 C196.1,278.5 187.5,280.5 179.3,282.4 C172.7,283.9 165.1,285.2 159.6,281.2 C161.5,293.2 157.1,306.1 148.1,314.3 C139.1,322.5 125.9,325.9 114.1,322.9 C113.5,335.6 103.6,346.6 91.8,351.4 C80,356.2 66.6,355.7 54.1,353.2 C35.9,349.6 17.4,341.1 7.8,325.1 C1.9,315.2 -1.36424205e-12,303.4 0.1,291.8 C0.4,275 5,258.2 13.3,243.6 C26.7,220.2 50.1,200.3 51.3,173.3 C52,157.1 44.1,141.7 33.8,129.2 C24.8,118.4 13.5,108.6 9.3,95.2 C4.9,81.2 9.1,66.1 13.6,52.2 C15.6,45.8 17.7,39.4 21.4,33.8 C26.5,26.1 34.3,20.6 42.5,16.3 C56.8,8.8 72.5,4.5 88.5,2 C101.3,0 114.8,-0.9 127.1,3.5 C132.4,5.4 137.3,8.1 142.8,9.3 C151.6,11.2 161.4,8.9 169.5,12.9 C173.7,15 176.9,18.5 180.4,21.6 C189.1,29.7 208.2,41.5 208.2,41.5 Z" id="Path"></path>
            </g>
            <g id="Group" transform="translate(0.000000, 154.124850)" fill="#FFEAA9">
                <path d="M128.8,13.8 C119.9,24.3 110.9,34.8 99.9,43.1 C90.6,50.2 80.1,55.5 70.5,62.3 C56.5,72.3 44.9,85.1 33.5,98 C27,105.4 20.3,113.4 19.1,123.2 C18.7,126.3 21.1,113.5 20.8,116.7 C20.3,122.9 12.2,136.2 10.3,142.1 C5.5,156.7 6.6,180.5 4.2,195.8 C2.1,209.4 6.8,205.4 4.6,219 C3.6,225.1 2.4,250.8 7.8,253.7 C11.4,228.7 9.1,203.5 12.7,178.5 C16.3,153.5 20.8,126.5 38.8,108.8 C46.2,101.6 55.3,96.4 64.6,92 C76.6,86.3 104.4,68.9 117.2,65.4 C128.6,62.3 126,72.3 133.6,63.2 C139.7,55.9 141.4,45.6 139.7,36.2 C138,26.8 133.2,18.2 127.6,10.5" id="Path"></path>
                <path d="M128.1,7.7 C118.7,18.1 109.1,28.7 97.7,37 C86.1,45.4 73.1,51.5 61.9,60.7 C51,69.7 41.5,80.4 32.1,91 C23.7,100.4 16.2,110.7 16,123.8 C16,125.3 18.1,135.7 20.9,130.9 C21.9,129.3 22.1,127.4 22.5,125.5 C22.7,124.6 22.9,123.6 23.1,122.7 C23.6,120.3 24.4,121.3 22.6,123.4 C21,121.8 19.4,120.1 17.8,118.5 C17.3,113.4 18,113.7 16.4,117.7 C15.3,120.3 14.1,122.8 12.9,125.3 C10.6,129.9 8.3,134.4 6.9,139.4 C3.4,151.7 3.1,164.7 2.3,177.4 C1.6,188.9 -1.3,200.5 1.5,211.9 C1.6,212.4 1.8,213.9 1.7,212.7 C1.6,211.4 1.6,213.3 1.6,213.6 C1.2,215.6 1,217.6 0.8,219.7 C0.3,224.2 0.2,228.8 0.1,233.3 C-9.09494702e-13,238.9 0.2,244.6 1.3,250.1 C2.1,254.3 3.2,259.9 7.1,262.4 C10.2,264.4 11.5,257.5 11.6,256.1 C15,229.4 13.1,202.4 17.2,175.7 C20.5,154.1 25.4,131.2 42.6,116.1 C51,108.7 61.1,104.4 70.8,99.2 C78.7,95.1 86.4,90.6 94.2,86.4 C101.6,82.4 109.4,77.8 117.6,75.7 C120.8,74.9 123.3,75 126.2,76.4 C128.7,77.6 130,77.7 132.3,75.8 C142.2,67.9 143.9,52.3 143.4,40.6 C142.7,25.6 137.2,12.6 128.3,0.7 C126.5,-1.8 125.1,6.4 125.1,6.6 C124.8,10.2 124.4,16.1 126.6,19.2 C131.2,25.9 139.5,36.7 137,45.3 C136,48.7 133.1,54.9 129.6,56.4 C127.8,57.1 126.8,55.9 125,55.2 C118.7,52.7 111.1,57.2 105.5,59.8 C97.5,63.6 89.7,68 82,72.4 C65.6,81.6 46.6,88.6 34.2,103.2 C20.4,119.4 15,140.7 11.5,161.3 C9.3,174.5 7.7,187.7 7.2,201.1 C6.5,217.9 6.7,234.7 4.2,251.4 C5.7,249.3 7.2,247.2 8.7,245.1 C8.6,245.1 8.5,244.8 8.2,243.6 C7.8,241.2 7.7,239.9 7.6,237.4 C7.4,232.3 7.4,228.5 7.9,223.5 C8.5,217.2 9.3,211.2 7.9,204.9 C7.7,204 7.4,203.1 7.2,202.2 C6.9,200.8 6.6,203.7 7.2,201.5 C8,198.5 8.1,195.1 8.4,192 C9.8,177.8 8.5,162.2 12.7,148.4 C16.3,136.7 25.1,126.8 23.8,113.9 C23.6,111.7 21.9,105.6 19,109 C17.8,110.4 17.6,113 17.3,114.7 C17.1,115.6 16.9,116.6 16.7,117.5 C16.3,119.5 15.3,120.1 17.3,116.5 C18.9,118.9 20.6,121.2 22.2,123.6 C22.2,128 22.5,124 23,122.7 C23.5,121.4 24.1,120.1 24.8,118.8 C26.3,116.1 28,113.7 29.9,111.3 C33.9,106.1 38.4,101.2 42.8,96.3 C51.3,86.8 60.5,77.8 70.7,70.3 C80.9,62.8 92.3,57.1 102.1,49.1 C112.6,40.7 121,30.2 129.4,19.8 C131.1,17.7 131,14.4 130.7,11.9 C130.8,11.4 129.6,6 128.1,7.7 L128.1,7.7 Z" id="Path"></path>
            </g>
            <path d="M129,150.82485 C126.5,169.92485 109.1,182.22485 94.2,191.82485 C79.2,201.42485 64.4,211.12485 51,222.82485 C38.2,234.02485 26.6,247.02485 18.6,262.12485 C10.6,277.22485 6,293.82485 3.5,310.72485 C0.6,330.72485 0,351.32485 0.9,371.52485 C1,373.12485 2.4,374.22485 2.5,372.02485 C4.2,335.52485 2.8,297.72485 21.6,264.82485 C39.5,233.52485 70.2,214.52485 99.3,194.82485 C114.7,184.42485 128.6,171.22485 129.7,151.62485 C129.7,151.12485 129.2,149.52485 129,150.82485 L129,150.82485 Z" id="Path" fill="#000000"></path>
            <path d="M134.6,227.32485 C116.7,225.82485 99.7,231.62485 83.5,238.92485 C68.3,245.72485 54.3,254.42485 43.4,267.22485 C22.7,291.52485 14.9,323.92485 12.3,355.12485 C10.5,376.42485 10.4,398.12485 10.9,419.52485 C10.9,421.42485 12.7,422.72485 12.9,420.02485 C15.5,385.92485 12.1,351.62485 21.6,318.22485 C25.8,303.62485 32.1,289.62485 41.3,277.42485 C51.1,264.42485 64.1,255.02485 78.7,247.92485 C96.3,239.32485 115.2,232.72485 134.8,231.32485 C135.6,231.32485 135.6,227.32485 134.6,227.32485 L134.6,227.32485 Z" id="Path" fill="#000000"></path>
            <path d="M93.3,193.42485 C100,191.52485 101,183.62485 99.5,177.72485 C97,167.92485 86,163.12485 79.1,156.92485 C61.8,141.22485 52.6,118.92485 54.8,95.5248504 C59.1,49.6248504 98.4,18.2248504 141.5,9.72485039 C153.4,7.42485039 165.6,6.62485039 177.8,7.22485039 C190,7.92485039 202.3,10.3248504 211.5,18.8248504 C212.3,19.6248504 212.7,14.8248504 212.1,14.0248504 C199,-2.17514961 171.8,-0.875149605 153.1,1.22485039 C130.9,3.62485039 108.9,11.2248504 90.9,24.6248504 C59.4,48.2248504 43,91.8248504 56.1,129.82485 C60,141.12485 66.6,151.42485 75,159.92485 C79.6,164.52485 84.8,168.12485 90,172.12485 C95.4,176.22485 102.4,185.32485 93,189.72485 C92.2,190.22485 92.4,193.62485 93.3,193.42485 L93.3,193.42485 Z" id="Path" fill="#000000"></path>
            <path d="M205.2,24.2248504 C212.9,20.5248504 221.7,20.8248504 230,22.1248504 C238,23.3248504 246.3,25.2248504 253.4,29.2248504 C261.9,34.1248504 266.3,42.1248504 267.9,51.6248504 C269.6,62.1248504 266.2,69.7248504 260.5,78.4248504 C260.1,79.0248504 260.3,82.6248504 261.1,81.9248504 C275.2,70.1248504 273.1,43.0248504 262,29.9248504 C255.6,22.2248504 245.6,19.3248504 236.1,17.4248504 C225.4,15.3248504 214.3,14.4248504 204.7,20.5248504 C203.9,21.0248504 204.2,24.7248504 205.2,24.2248504 L205.2,24.2248504 Z" id="Path" fill="#000000"></path>
            <path d="M268.9,41.6248504 C284,49.8248504 301.4,56.8248504 310.1,72.7248504 C320.9,92.7248504 313,115.52485 306.6,135.52485 C306.2,136.72485 307.1,142.12485 308.2,139.42485 C315.9,119.02485 321.8,95.8248504 314.3,74.5248504 C307.3,54.7248504 288,44.1248504 269,38.1248504 C268.3,37.8248504 268.2,41.2248504 268.9,41.6248504 L268.9,41.6248504 Z" id="Path" fill="#000000"></path>
            <path d="M236.6,118.62485 C254.3,118.62485 274.3,117.52485 287.8,131.22485 C303.2,146.82485 301.8,169.52485 297.7,189.42485 C297.4,190.82485 298.7,194.92485 299.5,191.82485 C304.6,171.82485 305.6,148.72485 293.2,131.12485 C280.2,112.72485 257,112.22485 236.6,114.92485 C235.4,115.02485 235.5,118.62485 236.6,118.62485 L236.6,118.62485 Z" id="Path" fill="#000000"></path>
            <path d="M298.8,143.42485 C306.8,145.52485 313.2,148.42485 319.4,154.12485 C324.8,159.12485 329.3,165.12485 332.9,171.62485 C340.2,184.82485 343.3,200.52485 340.8,215.42485 C338.5,229.42485 331.4,242.42485 321.5,252.62485 C311.6,262.72485 299.8,268.12485 287.1,273.62485 C286,274.12485 286.1,278.52485 287.5,278.32485 C299.3,277.22485 310.7,269.92485 319.3,262.12485 C328.1,254.12485 335.1,244.12485 339.4,233.02485 C348.2,210.22485 345.1,183.02485 332.1,162.32485 C325.6,151.92485 312.6,136.42485 298.7,138.22485 C297.3,138.52485 297.5,143.12485 298.8,143.42485 L298.8,143.42485 Z" id="Path" fill="#000000"></path>
            <path d="M295.5,274.82485 C299.8,285.32485 299.7,296.32485 296.9,307.22485 C294.5,316.42485 290.8,326.42485 283.2,332.62485 C276.4,338.22485 267.4,340.42485 258.8,340.32485 C248.8,340.22485 239.8,336.42485 230.1,334.62485 C229.1,334.42485 229.2,337.82485 230,338.22485 C248.2,347.92485 277,349.92485 290,330.82485 C300.8,315.02485 304.9,290.22485 296.3,272.72485 C295.6,271.52485 295.3,274.22485 295.5,274.82485 L295.5,274.82485 Z" id="Path" fill="#000000"></path>
            <path d="M234.9,342.22485 C240.7,361.82485 230.7,382.22485 211,388.62485 C203,391.22485 192.7,391.72485 185.4,386.82485 C177.7,381.72485 175.1,372.22485 174.4,363.42485 C174.2,361.32485 172.8,361.32485 172.8,363.42485 C172.8,372.72485 175.2,383.12485 182.2,389.62485 C190.1,397.02485 202.5,396.82485 212.2,393.42485 C233.7,385.92485 244.4,360.92485 235.8,340.02485 C235.3,338.42485 234.7,341.62485 234.9,342.22485 L234.9,342.22485 Z" id="Path" fill="#000000"></path>
            <path d="M183.6,389.52485 C176.9,442.82485 104.8,438.32485 72.4,412.92485 C55.2,399.52485 46.1,378.32485 44.7,356.82485 C43.4,336.22485 49.7,317.62485 59.5,299.82485 C70.4,279.92485 84,261.32485 98.6,243.92485 C99.7,242.62485 98.8,236.42485 97.1,238.32485 C81.8,255.52485 67.9,274.42485 57,294.82485 C46.7,313.82485 40.3,333.62485 41.3,355.42485 C42.2,377.42485 50,400.12485 66.4,415.42485 C84.4,432.32485 112.1,440.72485 136.5,438.22485 C160.9,435.72485 187.1,417.02485 185.6,390.02485 C185.4,388.22485 183.9,387.02485 183.6,389.52485 L183.6,389.52485 Z" id="Path" fill="#000000"></path>
            <path d="M219.3,198.22485 C225.7,204.02485 232.7,209.92485 237.3,217.32485 C243.2,226.82485 242.2,237.32485 236,246.42485 C231,253.82485 223.7,259.02485 215.8,262.82485 C207.5,266.82485 198.5,268.72485 190.2,272.52485 C189.4,272.92485 189.5,275.92485 190.5,275.82485 C211.2,274.22485 235.3,262.42485 242.1,241.62485 C248.6,221.62485 235.1,206.12485 219.6,195.52485 C218.9,195.12485 218.8,197.72485 219.3,198.22485 L219.3,198.22485 Z" id="Path" fill="#000000"></path>
            <path d="M126.7,156.72485 C135.6,167.22485 141.9,179.52485 143.6,193.32485 C145.2,206.02485 143.2,221.02485 130.8,227.72485 C129.7,228.32485 130,232.62485 131.2,232.22485 C144.8,227.92485 146.8,209.42485 146.1,197.42485 C145.2,181.52485 138.7,165.42485 127,154.42485 C126.5,153.92485 126.3,156.32485 126.7,156.72485 L126.7,156.72485 Z" id="Path" fill="#000000"></path>
        </g>
    </g>
</svg>