<?xml version="1.0" encoding="UTF-8"?>
<svg width="359px" height="424px" viewBox="0 0 359 424" version="1.1" xmlns="http://www.w3.org/2000/svg" xmlns:xlink="http://www.w3.org/1999/xlink">
    <!-- Generator: Sketch 62 (91390) - https://sketch.com -->
    <title>Group 41</title>
    <desc>Created with Sketch.</desc>
    <g id="Page-1" stroke="none" stroke-width="1" fill="none" fill-rule="evenodd">
        <g id="Group-41" transform="translate(0.391609, 0.758728)" fill-rule="nonzero">
            <path d="M265.908391,3.74127228 C256.208391,0.0412722752 228.108391,10.4412723 219.008391,15.5412723 C166.508391,45.2412723 131.808391,11.4412723 69.9083907,52.6412723 C61.0083907,58.5412723 55.1083907,61.9412723 47.3083907,69.2412723 C35.3083907,80.4412723 9.60839066,109.641272 3.50839066,124.841272 C-6.19160934,149.141272 8.50839066,173.541272 28.9083907,189.941272 C38.4083907,197.641272 49.7083907,202.541272 60.3083907,208.541272 C75.8083907,217.441272 89.7083907,228.741272 103.108391,240.541272 C111.008391,247.441272 119.008391,254.741272 128.808391,258.641272 C139.408391,262.841272 151.208391,262.741272 162.608391,262.241272 C200.608391,260.541272 238.408391,255.441272 275.408391,246.841272 C282.908391,245.141272 295.908391,235.041272 302.708391,231.541272 C320.208391,222.541272 335.208391,208.241272 343.208391,190.241272 C352.208391,170.141272 358.908391,147.841272 355.208391,115.041272 C353.708391,101.541272 352.108391,83.2412723 347.208391,70.4412723 C341.208391,54.6412723 334.708391,36.7412723 322.608391,25.0412723 C302.308391,5.44127228 269.408391,-4.75872772 245.508391,10.1412723" id="Path" fill="#82533F"></path>
            <g id="Group" opacity="0.4" transform="translate(23.608391, 25.241272)" fill="#FFB1A8">
                <path d="M212.7,2.3 C204.8,-0.7 196.5,4.7 189.1,8.8 C146.4,32.9 89.4,21.3 48.6,48.6 C41.4,53.4 34.9,59.4 28.6,65.3 C18.8,74.4 8.8,84 3.8,96.4 C-4.1,116.2 3.4,140.4 20,153.8 C27.7,160 36.9,164 45.5,169 C58.1,176.2 69.4,185.4 80.3,195 C86.7,200.6 93.2,206.5 101.2,209.7 C109.8,213.1 119.4,213 128.7,212.6 C159.6,211.2 190.3,207 220.4,200.1 C226.5,198.7 232.6,197.2 238.1,194.3 C252.3,187 261,172.3 268.4,158.1 C280.7,134.3 291.8,108.2 288.8,81.6 C287.6,70.6 283.9,60 280,49.7 C275.1,36.9 269.5,23.9 259.6,14.4 C243.1,-1.5 215.6,-4.4 196.2,7.8" id="Path"></path>
            </g>
            <g id="Group" transform="translate(127.608391, 130.241272)" fill="#FFEAA9">
                <path d="M38.6,8.6 C31.8,7.5 24.9,10.5 18.1,11.6 C16.2,11.9 14.1,12.4 12.8,13.9 C11.9,15 11.6,13.4 11.4,14.8 C10.3,23.3 11.8,32.1 15.8,39.7 C19.8,32.4 25.8,26.2 32.9,21.9 C40.3,17.5 50.7,15.5 56.8,21.6 C61.3,26.2 61.4,33.5 60.9,40 C58,78.1 47,114.6 36.5,151.3 C26.8,185.1 20,219.4 12.3,253.7 C10.8,260.2 6.3,266.8 4.9,273.3 C4.4,275.6 3.9,278.1 4.5,280.3 C5.2,282.6 7.4,284.6 9.7,284.1 C10.6,280.8 17.7,273.3 18.5,270 C27.4,233.9 30,202 39,165.9 C41.5,155.9 44,145.8 47.3,136 C50.6,126.4 54.7,117.1 57.8,107.5 C66,82 73.6,36.1 60,28.2 C55.3,25.5 69.2,28.8 57.3,16.5 C51.2,10.2 36.2,8.9 27.5,10.1" id="Path"></path>
                <path d="M38.5,2 C32.7,0.3 28,1.3 22.2,2.5 C19.8,3 17.3,3.1 15,3.8 C13.9,4.2 12.4,5.6 11.4,5.6 C10.3,5.6 9.4,7.4 9.1,8.2 C5.6,20.2 8.1,34.9 13.5,46 C14.3,47.7 16.2,49.7 17.7,47.3 C22.2,39.7 29.7,32.7 38.1,29.6 C41.5,28.4 45.3,27.7 48.9,28.3 C52.4,28.8 56.6,31.6 57.1,34.1 C57.9,37.9 56.3,43.2 55.9,47 C55.2,52.4 54.5,57.9 53.5,63.3 C51.6,74.2 49.2,85.1 46.5,95.8 C41,117.8 34.2,139.5 28.4,161.4 C22.5,183.5 17.9,205.9 13.2,228.2 C11.8,234.6 10.6,241 9.1,247.4 C7.8,253.2 4.8,258.3 2.8,263.9 C0.7,269.7 -0.5,276 0.5,282.1 C1.3,287 3.9,293.4 9.9,292.6 C11.9,292.3 12.6,290.1 13.1,288.4 C12.6,290 13.4,288.2 13.8,287.7 C14.3,287.1 14.7,286.5 15.2,285.9 C16.3,284.5 17.5,283.2 18.6,281.8 C21.2,278.4 22.2,275.1 23.2,270.9 C25.9,259.5 28.2,248.1 30.2,236.6 C34,214.3 37.6,192 43.1,170.1 C45.9,158.6 49,147.2 53.1,136.1 C56.6,126.8 60.2,117.5 62.9,108 C67.4,92.1 70.6,75.6 71.2,59 C71.5,50.3 71.3,41.3 69.1,32.9 C68.2,29.5 67,26 64.9,23.1 C64.1,22 63.2,20.9 62.2,20.1 C61.4,19.5 60,17.9 60.7,19.3 C61.3,23 62,26.6 62.6,30.3 C62.6,30.3 62.6,30.2 62.6,30.2 C62.1,32.2 61.6,34.1 61.1,36.1 C60,37.6 61.8,36.4 62.5,35.9 C64.3,34.5 65.1,32.1 65.5,30 C66.8,23.4 65.5,16.2 61.2,11 C53.2,1.2 39.4,-0.2 27.5,1.6 C22.7,2.3 23.6,20.1 27.9,19.7 C36.6,18.9 47.9,19.6 55.1,25 C56.9,26.4 58.1,28.1 59.5,29.8 C63.6,34.5 64.3,16.2 60.3,17 C60.1,17 59.8,17.3 59.7,17.4 C57.3,18.2 56,21.5 55.7,25.2 C55.3,29.8 55.7,35.1 59.4,38.2 C61.5,39.9 62.4,41 63.2,43.4 C63.6,44.9 63.8,46.9 63.9,49.5 C64,53.5 63.7,57.5 63.3,61.9 C61.2,82.5 55.2,101.6 47.7,120.7 C37.7,146.4 32.1,173.8 27.4,200.8 C24.8,215.5 22.5,230.2 19.6,244.9 C18.3,251.6 17.6,260.1 14.6,266.2 C12.5,270.6 8.9,274.2 7,278.7 C7.9,277.9 8.7,277 9.6,276.2 C9,276 8.4,275.7 7.9,275.5 C8.2,278.3 8.5,278.9 8.8,277.3 C9.4,276.6 9.6,275 10,274.2 C11,271.7 12.2,269.4 13.3,266.9 C15.5,261.8 16.6,256.4 17.9,251 C20.5,239.7 23.1,228.3 25.7,217 C30.9,194.4 36.5,171.8 42.9,149.5 C49.2,127.6 55.5,105.7 59.9,83.3 C62.1,71.9 64,60.4 64.9,48.9 C65.8,38.4 66.7,26 61.4,16.4 C56.5,7.5 46.8,6.5 38,9.9 C27.4,14 19.6,22.9 14.3,32.7 C15.7,33.1 17.1,33.5 18.5,34 C17.1,31.3 15.9,28.5 15.3,25.5 C15.1,24.4 14.9,23.2 14.8,22 C14.8,21 15.4,17.2 14.5,20.7 C13.7,21.6 13,22.4 12.2,23.3 C13.5,23.3 13.7,22.7 14.8,22.1 C17.4,20.5 20,20.1 22.9,19.3 C28.2,17.9 33.6,15.9 39.1,15.5 C42.5,14.8 41.8,3 38.5,2 L38.5,2 Z" id="Path"></path>
            </g>
            <g id="Group" transform="translate(213.608391, 119.241272)" fill="#FFEAA9">
                <path d="M31.9,7.5 C5.9,30.3 0.8,67 4.7,101.4 C8.6,135.8 20.8,168 33.1,200.4 C44.1,229.4 53.7,258.9 61.9,288.8 C55.1,257.7 43.1,229.6 35.5,198.7 C32.7,187.4 26.3,175.8 24,164.4 C20.2,145.1 14,126.3 10.4,107 C6.8,87.6 6,67.2 12.7,48.7 C15.5,41.1 19.8,33.5 27,29.6 C30.3,27.8 34.1,22.9 37.3,21 C40.5,19.1 43.5,19.8 43.1,16 C42.8,12.2 32.7,9.3 30,11.9" id="Path"></path>
                <path d="M31.2,1.5 C3.1,23.6 -1.8,63.6 0.6,97 C3.8,140.9 20.9,181.3 35.6,222.2 C44.1,245.8 51.5,269.7 58.2,293.9 C59,296.8 61.5,300.6 64.3,297.3 C67.2,294 66.5,287.4 65.5,283.6 C60.1,261.2 52.6,239.6 45.8,217.6 C42.4,206.8 40.1,195.7 36.3,185.1 C34.4,179.8 32.2,174.7 30.3,169.4 C28.3,164 27.3,158.4 26,152.8 C20.9,130.4 13.1,108.4 11.7,85.3 C11.1,75.2 11.9,65.1 15.4,55.5 C16.9,51.2 19.1,47.1 22.2,43.7 C25.4,40.2 29.8,38 33.2,34.7 C34.8,33.2 36.4,31.4 38.3,30.3 C39.8,29.4 41.9,29.1 43.3,28 C47.5,24.3 46.6,15 45.5,10.3 C44,3.9 35.1,-2.1 28.9,2.7 C25.2,5.6 27.6,23.3 31,21.1 C32.5,20.1 35.1,20.7 36.7,21.1 C37.8,21.4 38.8,21.7 39.7,22.2 C41.9,23.4 41.4,24.8 40.5,21 C40.3,18.5 40.2,16 40,13.5 C40.1,12.8 40.3,12 40.4,11.3 C40.8,10.5 41.3,9.6 41.7,8.8 C40,10.9 36.3,11.3 34.1,13 C30.8,15.6 28,18.5 24.4,20.7 C17,25.4 12.8,33.6 9.8,41.6 C2.6,61.1 2.4,83 5.5,103.4 C8.7,124.5 15.3,144.8 19.7,165.6 C21.9,176 25.7,185.5 29.4,195.4 C32.9,205.1 34.8,215.3 37.8,225.2 C44.5,247.2 53,269 57.6,291.5 C60.2,288.9 62.8,286.3 65.4,283.6 C54.6,243.4 39.7,204.8 25.6,165.7 C13.8,133.1 2.6,96.5 8.2,61.5 C11.1,43.3 19.5,26.6 32.5,13.4 C34.7,11.4 33.4,-0.3 31.2,1.5 L31.2,1.5 Z" id="Path"></path>
            </g>
            <path d="M154.708391,176.041272 C156.408391,167.741272 162.208391,159.041272 171.708391,159.641272 C176.108391,159.941272 179.608391,162.541272 181.708391,166.341272 C184.808391,172.041272 183.408391,178.541272 182.008391,184.541272 C177.708391,203.241272 173.008391,221.841272 168.508391,240.541272 C159.508391,277.941272 150.408391,315.341272 141.408391,352.741272 C136.308391,374.141272 131.208391,395.441272 126.208391,416.841272 C125.708391,418.841272 127.808391,423.441272 128.708391,419.741272 C139.608391,376.041272 150.008391,332.241272 160.408391,288.441272 C165.608391,266.441272 170.908391,244.541272 176.108391,222.541272 C178.608391,211.841272 181.208391,201.241272 183.708391,190.541272 C185.708391,182.041272 187.708391,172.941272 184.608391,164.541272 C181.808391,156.841272 174.708391,151.441272 166.408391,154.141272 C157.608391,156.941272 154.008391,166.141272 153.008391,174.541272 C152.908391,175.641272 154.108391,178.441272 154.708391,176.041272 L154.708391,176.041272 Z" id="Path" fill="#000000"></path>
            <path d="M137.408391,138.541272 C157.008391,135.341272 181.708391,129.341272 192.408391,151.541272 C196.908391,160.941272 197.608391,171.841272 198.008391,182.141272 C198.508391,195.041272 197.108391,207.541272 193.808391,219.941272 C188.208391,240.841272 180.308391,261.141272 174.408391,281.941272 C168.708391,301.641272 163.608391,321.641272 159.208391,341.641272 C154.308391,363.541272 149.508391,386.141272 148.508391,408.641272 C148.408391,410.541272 150.108391,412.641272 150.508391,409.741272 C156.808391,366.141272 166.208391,323.341272 178.508391,280.941272 C184.808391,259.341272 193.508391,238.241272 198.308391,216.241272 C201.008391,203.741272 201.608391,190.941272 200.808391,178.141272 C200.208391,167.941272 199.108391,157.341272 194.908391,147.941272 C190.708391,138.441272 183.208391,131.341272 172.808391,129.241272 C160.808391,126.741272 148.108391,130.441272 137.108391,135.341272 C136.408391,135.641272 136.508391,138.741272 137.408391,138.541272 L137.408391,138.541272 Z" id="Path" fill="#000000"></path>
            <path d="M242.208391,123.841272 C235.408391,129.041272 230.508391,134.641272 226.408391,142.341272 C222.408391,149.841272 219.508391,157.941272 217.308391,166.241272 C212.408391,184.441272 211.708391,203.441272 213.408391,222.141272 C217.008391,262.241272 232.208391,299.641272 245.808391,337.141272 C253.508391,358.341272 259.808391,379.741272 265.508391,401.541272 C266.208391,404.141272 267.808391,401.241272 267.608391,399.841272 C262.808391,363.241272 246.208391,328.441272 234.008391,293.941272 C221.508391,258.641272 211.408391,220.741272 216.808391,183.041272 C219.808391,162.441272 227.708391,141.441272 242.508391,126.341272 C242.908391,125.741272 242.708391,123.341272 242.208391,123.841272 L242.208391,123.841272 Z" id="Path" fill="#000000"></path>
            <path d="M260.708391,147.641272 C244.308391,143.341272 233.108391,158.941272 229.308391,172.941272 C224.608391,190.041272 225.508391,208.741272 228.108391,226.141272 C231.008391,245.441272 236.608391,264.241272 242.108391,282.941272 C248.008391,302.941272 253.808391,322.941272 259.708391,342.941272 C266.308391,365.341272 272.908391,387.841272 279.908391,410.141272 C280.908391,413.441272 282.808391,409.341272 282.308391,407.441272 C272.408391,371.541272 261.608391,335.941272 251.008391,300.341272 C240.608391,265.541272 226.508391,228.941272 229.108391,192.041272 C230.408391,173.241272 238.608391,151.341272 260.808391,150.641272 C261.508391,150.441272 261.408391,147.841272 260.708391,147.641272 L260.708391,147.641272 Z" id="Path" fill="#000000"></path>
            <path d="M199.908391,23.5412723 C189.308391,27.5412723 176.208391,28.1412723 165.008391,27.6412723 C157.408391,27.3412723 150.108391,26.2412723 142.408391,26.5412723 C133.608391,26.8412723 124.808391,28.0412723 116.308391,30.1412723 C84.3083907,37.7412723 56.0083907,56.2412723 33.3083907,79.6412723 C22.6083907,90.6412723 11.4083907,102.841272 4.80839066,116.841272 C-1.49160934,130.141272 -1.29160934,145.241272 3.60839066,158.841272 C14.8083907,190.341272 46.5083907,205.341272 72.8083907,222.241272 C80.9083907,227.441272 88.8083907,232.941272 95.8083907,239.541272 C102.108391,245.441272 107.508391,252.241272 114.108391,257.641272 C128.208391,269.041272 147.508391,270.541272 164.608391,266.241272 C166.808391,265.741272 166.508391,258.941272 164.408391,259.241272 C149.708391,261.441272 134.108391,262.141272 120.808391,254.441272 C114.108391,250.641272 108.908391,244.941272 103.708391,239.441272 C98.7083907,234.241272 93.5083907,229.341272 87.7083907,224.941272 C63.3083907,206.241272 31.7083907,195.141272 13.5083907,169.141272 C3.90839066,155.441272 -0.591609337,138.141272 6.60839066,122.341272 C13.0083907,108.241272 24.6083907,95.6412723 35.3083907,84.6412723 C57.2083907,62.2412723 84.1083907,44.3412723 114.808391,36.7412723 C123.308391,34.6412723 132.108391,33.2412723 140.908391,32.8412723 C148.908391,32.4412723 156.708391,33.3412723 164.708391,33.8412723 C175.908391,34.4412723 190.508391,33.2412723 200.208391,27.0412723 C200.808391,26.4412723 200.508391,23.2412723 199.908391,23.5412723 L199.908391,23.5412723 Z" id="Path" fill="#000000"></path>
            <path d="M183.708391,265.341272 C188.008391,262.141272 195.308391,263.141272 200.408391,262.041272 C206.608391,260.641272 212.808391,258.941272 219.008391,257.141272 C219.908391,256.841272 219.908391,253.741272 218.908391,253.741272 C212.208391,253.741272 205.608391,256.741272 199.208391,258.241272 C194.208391,259.441272 187.408391,259.041272 183.308391,262.541272 C182.708391,263.041272 183.008391,265.841272 183.708391,265.341272 L183.708391,265.341272 Z" id="Path" fill="#000000"></path>
            <path d="M234.108391,253.841272 C242.508391,252.341272 250.908391,253.941272 259.408391,253.941272 C266.908391,253.841272 274.108391,251.841272 280.908391,248.541272 C294.408391,242.041272 307.508391,232.841272 319.308391,223.541272 C331.108391,214.141272 340.808391,203.041272 346.508391,189.041272 C352.308391,175.041272 355.308391,159.641272 356.908391,144.641272 C360.108391,113.141272 355.208391,80.4412723 342.308391,51.5412723 C336.608391,38.7412723 329.008391,26.3412723 318.208391,17.1412723 C307.008391,7.64127228 292.808391,2.24127228 278.308391,0.541272275 C260.408391,-1.45872772 242.408391,2.24127228 225.908391,9.04127228 C209.108391,15.9412723 193.608391,28.6412723 174.608391,27.5412723 C173.308391,27.4412723 173.408391,32.3412723 174.708391,32.7412723 C189.108391,37.0412723 202.808391,27.3412723 215.108391,21.1412723 C229.008391,14.2412723 243.908391,9.24127228 259.408391,7.74127228 C288.708391,5.04127228 316.508391,16.7412723 332.508391,41.7412723 C348.808391,67.1412723 355.808391,99.0412723 355.208391,128.941272 C354.908391,144.641272 352.408391,160.441272 347.608391,175.441272 C342.908391,190.141272 335.008391,202.241272 323.408391,212.441272 C311.708391,222.741272 298.108391,231.941272 284.508391,239.641272 C276.908391,243.941272 268.808391,247.241272 260.108391,248.041272 C251.208391,248.841272 242.608391,247.741272 234.008391,250.641272 C233.208391,251.041272 233.308391,254.041272 234.108391,253.841272 L234.108391,253.841272 Z" id="Path" fill="#000000"></path>
            <path d="M214.208391,46.7412723 C205.308391,70.9412723 209.208391,100.141272 221.208391,122.741272 C222.708391,125.641272 223.508391,120.141272 223.108391,119.041272 C215.908391,96.0412723 207.208391,73.0412723 215.008391,48.8412723 C215.208391,48.1412723 214.708391,45.2412723 214.208391,46.7412723 L214.208391,46.7412723 Z" id="Path" fill="#000000"></path>
            <path d="M173.608391,49.1412723 C183.008391,61.9412723 184.408391,78.5412723 178.208391,93.0412723 C175.608391,99.1412723 171.908391,104.741272 167.608391,109.841272 C162.808391,115.441272 156.808391,119.641272 151.608391,124.841272 C151.008391,125.441272 150.808391,129.341272 152.208391,128.641272 C159.408391,125.041272 165.808391,117.441272 170.608391,111.141272 C175.508391,104.641272 179.408391,97.4412723 181.608391,89.5412723 C185.508391,75.3412723 183.908391,58.7412723 174.008391,47.3412723 C173.508391,46.8412723 173.308391,48.7412723 173.608391,49.1412723 L173.608391,49.1412723 Z" id="Path" fill="#000000"></path>
        </g>
    </g>
</svg>