<?xml version="1.0" encoding="UTF-8"?>
<svg width="527px" height="450px" viewBox="0 0 527 450" version="1.1" xmlns="http://www.w3.org/2000/svg" xmlns:xlink="http://www.w3.org/1999/xlink">
    <!-- Generator: Sketch 62 (91390) - https://sketch.com -->
    <title>Group 48</title>
    <desc>Created with Sketch.</desc>
    <g id="Page-1" stroke="none" stroke-width="1" fill="none" fill-rule="evenodd">
        <g id="Group-48" transform="translate(0.036201, 0.826443)" fill-rule="nonzero">
            <path d="M153.163799,103.973557 C145.363799,90.073557 159.663799,75.873557 162.463799,60.273557 C166.163799,39.773557 142.363799,16.573557 124.763799,5.47355695 C109.863799,-3.92644305 87.2637992,8.17355695 70.4637992,13.373557 C22.9637992,28.173557 1.96352234,72.673557 1.96352234,122.373557 C1.86379918,172.073557 28.8637992,210.173557 69.0637992,234.073557 C111.763799,259.473557 155.963799,263.973557 198.763799,238.573557 C195.963799,240.473557 194.263799,247.573557 206.163799,249.473557 C247.663799,241.273557 251.063799,243.673557 274.163799,252.073557 C295.963799,259.973557 297.663799,271.973557 320.163799,277.473557 C344.263799,283.373557 385.863799,280.473557 409.463799,273.073557 C420.563799,269.573557 431.763799,266.073557 441.863799,260.173557 C455.063799,252.373557 476.963799,239.073557 487.163799,227.573557 C511.963799,199.573557 510.463799,180.373557 520.563799,144.273557 C524.163799,131.573557 527.763799,107.173557 525.463799,94.173557 C522.863799,79.373557 514.863799,64.173557 505.663799,52.273557 C490.463799,32.573557 482.763799,19.673557 458.363799,15.173557 C433.963799,10.673557 400.163799,14.573557 388.063799,36.273557 C379.263799,52.073557 377.963799,56.973557 375.963799,74.873557 C375.063799,83.073557 381.663799,104.073557 376.563799,110.573557 C372.163799,116.073557 365.563799,128.973557 358.463799,128.973557 C330.963799,129.073557 308.863799,128.873557 290.263799,135.973557 C270.863799,143.373557 265.163799,158.673557 244.963799,153.973557 C229.963799,150.473557 229.663799,136.673557 210.663799,124.373557 C189.463799,110.673557 178.263799,106.473557 153.163799,103.973557" id="Path" fill="#82533F"></path>
            <g id="Group" opacity="0.4" transform="translate(20.963799, 32.173557)" fill="#FFB1A8">
                <path d="M123.7,82 C118.3,67.3 118.4,58.1 121,45.4 C124.3,28.8 125.4,16.3 109.5,7.3 C96,-0.4 89.5,-1.8 74.2,2.4 C31.1,14.4 0.4,54 0.4,94.4 C0.4,134.8 29.3,173.5 70,191 C110.7,208.5 161,205 199.7,184.4 C197.1,185.9 194.5,187.5 192,189 C210.7,200 235.1,198.8 256.1,205.7 C275.9,212.1 292.4,225.6 312.8,230.1 C334.6,234.9 357.4,228.8 378.9,222.8 C389,220 399.2,217.1 408.3,212.3 C420.3,206 440.2,195.1 449.4,185.8 C471.9,163 483.8,140 493,110.7 C496.2,100.4 497.8,89.4 495.7,78.9 C493.4,66.9 486.5,55.9 478.2,46.2 C464.4,30.2 450.5,12 428.4,8.3 C406.2,4.6 387.5,10.6 376.5,28.3 C368.5,41.1 367.6,61.5 365.9,76.1 C365.1,82.7 353.4,91.5 348.8,96.7 C344.8,101.2 338.9,104 332.8,105.7 C315.6,110.7 296.4,108.6 279.5,114.4 C261.9,120.4 245.7,134.8 227.4,130.9 C213.8,128.1 205.4,116.2 194.6,108.2 C176.6,95 143.2,106.6 123.7,82" id="Path"></path>
            </g>
            <g id="Group" transform="translate(149.963799, 94.173557)" fill="#FFEAA9">
                <path d="M3.2,18.6 C7.2,22.3 11.4,25.7 15.8,28.9 C16.7,29.5 17.6,30.2 18.7,30.2 C19.8,30.2 20.8,26.7 21.7,26 C28.8,21.1 33.1,12.9 41.7,13.4 C48.8,13.8 54.8,18.4 58.7,19.9 C46.5,13.3 41.4,9.3 34.4,10.1 C23,11.4 16,13 6.6,19.4" id="Path"></path>
                <path d="M2.7,25.4 C5.4,27.9 8.1,30.4 10.9,32.8 C12.8,34.4 16.1,38.2 18.9,37.9 C20.8,37.7 21.4,35.4 22.4,34.2 C23.8,32.3 26.3,31 28.1,29.4 C32.2,25.8 36.1,21.9 41.9,22.3 C47.8,22.7 53,26.2 58,29 C62,31.3 63.3,13.6 59.3,10.9 C52.7,6.4 43.5,-5.68434189e-14 35.1,0.3 C24.5,0.7 14.1,4.4 5.4,10.3 C1.1,13.2 3.7,31.3 7.7,28.7 C16,23.2 25.2,20.4 35.1,19.9 C43.6,19.4 50.5,26.1 58,29.1 C58.1,23 58.3,16.8 58.4,10.7 C53.1,9.1 48.8,5.5 43,4.9 C37.7,4.3 33.3,6.7 29.5,10.3 C26.1,13.4 21.4,17 19.1,20.9 C18,22.7 18.8,23.3 16.3,21.8 C14.8,20.9 13.4,19.8 12,18.7 C9.2,16.6 6.4,14.4 3.7,12.1 C1.6,10.3 0.7,16.2 0.7,17.1 C0.4,19.5 0.6,23.4 2.7,25.4 L2.7,25.4 Z" id="Path"></path>
            </g>
            <g id="Group" transform="translate(193.963799, 245.173557)" fill="#FFEAA9">
                <path d="M23,11.3 C27.4,19.5 26.5,29.4 25.1,38.7 C19.4,78.1 6.4,118.4 5,156.4 C4.6,167.7 4.5,179.5 9.4,189.7 C10.8,192.6 14.9,195.6 16.8,192.9 C13.5,172.6 12.4,140.4 15.1,120 C20,83.4 36.9,63.8 37.4,26.9 C37.4,23.3 35.6,15.2 33.3,12.4 C31,9.6 25.8,9.2 24.1,12.4" id="Path"></path>
                <path d="M21.6,15.8 C24.5,22.2 23.8,28.3 22.8,35.1 C21.5,43.1 20,51 18.3,58.9 C15,74.2 11.3,89.4 8.1,104.8 C5,119.8 2.3,135.1 1.3,150.4 C0.3,165.1 -0.5,181.2 5.8,194.9 C7.6,198.7 12.2,205.6 17.4,202.7 C23.9,199 20.5,188.3 19.9,182.4 C18.4,169.3 17.7,156 17.8,142.8 C17.9,130.6 19.2,118.5 22.3,106.7 C25.6,94.4 30.6,82.7 34.3,70.5 C38.8,55.5 42.3,38.9 40.9,23.1 C40.3,16.7 38.9,8.6 34.9,3.4 C31.4,-1.3 25.4,-1.1 22.2,3.8 C19.9,7.4 20.4,13.6 21.3,17.6 C21.9,20 23.6,24.5 26.1,21.1 C27.5,19.1 31.5,21.1 32.5,22.5 C33.3,23.6 33.3,25.4 33.7,26.7 C34.7,30 34.2,23 33.7,27.9 C32.9,36 32,43.7 29.8,51.6 C25.5,66.8 19.3,81.5 15.3,96.8 C7,128.5 7.9,163.5 12.7,195.6 C13.6,191.7 14.6,187.9 15.5,184 C11.6,187.5 9.5,171.1 9.3,169.1 C8.8,161.5 9.2,153.8 9.8,146.2 C11.2,130.2 14.2,114.4 17.3,98.6 C20.5,82.4 24,66.2 26.5,49.8 C28.7,35.2 31,19.5 24,5.9 C22.8,3.6 21.5,6.6 21.2,7.6 C20.5,10 20.5,13.5 21.6,15.8 L21.6,15.8 Z" id="Path"></path>
            </g>
            <g id="Group" transform="translate(309.963799, 271.173557)" fill="#FFEAA9">
                <path d="M5.2,9.3 C3.2,37.3 7.2,65.7 16.8,92.1 C20.3,101.5 24.4,110.7 27.8,120.2 C33.2,135.2 36.7,150.9 38.1,166.8 C40.6,165.8 42.8,163.8 44,161.3 C21.6,121 11.2,74.1 14.4,28.1 C14.7,24.1 15,20 13.5,16.3 C11.9,12.7 7.7,9.8 4,11.3" id="Path"></path>
                <path d="M3.3,6.2 C-0.6,33.7 3,62.8 11.1,89.3 C15.2,102.8 21.2,115.6 25.6,129 C29.9,142.2 32.3,155.9 33.7,169.7 C34,172.3 35.9,178.9 39.8,177 C48.1,172.8 51.1,162.3 47.3,153.9 C43.9,146.4 39.6,139.3 36.2,131.7 C29.8,117.1 24.9,101.6 21.8,85.9 C18.8,70.7 17.2,55.2 17.6,39.7 C17.8,30.7 19.4,21.6 17.1,12.7 C15.6,6.8 11,-0.8 3.8,1.3 C-1.6,2.9 0.5,22.5 4.3,21.5 C5.7,21.2 6.9,21 8.4,21.6 C8.5,21.6 11.9,24.1 11.4,24.2 C11.6,24.1 11.3,20 11,24.6 C10.9,26.4 10.8,28.1 10.7,29.9 C10.3,36.7 10.2,43.6 10.3,50.4 C10.5,63.9 11.8,77.7 14.2,91 C19.1,118.1 27.7,144.6 41,168.7 C41.2,163.2 41.4,157.8 41.6,152.3 C40.4,154.4 39,155.5 36.8,156.5 C38.9,159.9 41,163.2 43.1,166.6 C41.9,152.5 39.3,138.7 35.1,125.2 C31,112 25.2,99.6 20.2,86.7 C10.5,61.7 7.6,35.8 7.5,9.2 C7.5,8.1 7.3,3.8 5.7,3.3 C4.1,2.8 3.5,4.9 3.3,6.2 L3.3,6.2 Z" id="Path"></path>
            </g>
            <g id="Group" transform="translate(297.963799, 109.173557)" fill="#FFEAA9">
                <path d="M60.6,34.6 C63.1,35.9 66.3,34.7 68.1,32.4 C69.9,30.1 70.7,27 70.8,24 C70.9,21.2 70.6,18.3 69.3,15.9 C67.5,12.4 64,12.1 60.4,11.2 C56.8,10.3 53,8.5 49.4,8.9 C34.3,10.5 17.4,12.6 3.5,19.2 C13.5,15.9 26.1,14 36.5,15.4 C46.9,16.8 57.1,23.7 64,32.3" id="Path"></path>
                <path d="M60.1,37.5 C62.6,40.8 65.6,41.6 68.7,38.4 C72,35 72.8,29.6 73,25.1 C73.3,19.9 72.9,14.1 70.6,9.3 C68.7,5.3 65.6,3.8 61.5,2.6 C56.8,1.2 52.5,-0.3 47.5,0.2 C42.5,0.7 37.5,1.4 32.5,2.2 C22.2,3.9 11.8,6.6 2.6,11.7 C-0.5,13.4 1.4,27.9 3.6,27.1 C13.9,23.3 25.7,21.7 36.6,23.3 C47.3,24.9 56.7,32.6 63.5,40.7 C65.4,43 66.4,35.2 66.5,34.6 C66.7,31.3 66.7,26.8 64.5,24.1 C57.6,15.8 48.5,9.8 37.8,7.9 C26.4,5.9 14.4,8.5 3.3,11.4 C3.4,16.6 3.6,21.9 3.7,27.1 C16.7,22.4 30.2,20.1 43.9,18.5 C47.1,18.1 50.4,17.6 53.6,18.2 C56.7,18.8 59.6,20 62.7,20.7 C65.3,21.2 68.4,21.7 68.1,24.7 C67.8,28.3 62.7,29.8 60.2,31.4 C59,32.1 59.3,36.4 60.1,37.5 L60.1,37.5 Z" id="Path"></path>
            </g>
            <path d="M155.663799,102.273557 C150.363799,102.373557 149.463799,97.473557 150.863799,93.273557 C151.663799,90.973557 153.763799,88.773557 155.063799,86.673557 C157.663799,82.273557 159.663799,77.473557 160.963799,72.573557 C163.463799,63.373557 163.663799,53.473557 161.763799,44.173557 C157.763799,24.673557 143.063799,8.17355695 123.963799,2.47355695 C101.363799,-4.32644305 76.9637992,3.87355695 57.2637992,15.173557 C38.5637992,25.973557 22.1637992,41.373557 12.3637992,60.773557 C-6.73620082,98.473557 -2.43620082,146.173557 16.5637992,183.073557 C35.7637992,220.473557 70.1637992,247.173557 111.463799,255.573557 C135.463799,260.473557 160.563799,259.173557 183.863799,251.673557 C203.963799,245.173557 225.763799,232.973557 236.263799,213.673557 C237.063799,212.173557 237.363799,209.973557 236.763799,208.373557 C236.463799,207.573557 235.363799,205.473557 234.363799,207.073557 C224.863799,223.273557 207.563799,234.373557 190.563799,241.073557 C171.363799,248.673557 150.363799,251.573557 129.863799,250.173557 C89.2637992,247.373557 51.9637992,227.073557 28.5637992,193.673557 C4.66379918,159.673557 -4.53620082,113.473557 11.1637992,74.073557 C19.0637992,54.173557 33.9637992,38.173557 51.6637992,26.473557 C69.9637992,14.373557 92.7637992,5.17355695 115.063799,7.97355695 C138.863799,10.973557 159.863799,30.773557 160.663799,55.373557 C160.863799,62.073557 159.663799,68.873557 157.163799,75.073557 C154.963799,80.473557 151.063799,84.973557 148.763799,90.273557 C146.563799,95.373557 146.863799,109.073557 155.863799,105.873557 C156.663799,105.573557 156.763799,102.273557 155.663799,102.273557 L155.663799,102.273557 Z" id="Path" fill="#000000"></path>
            <path d="M194.063799,117.373557 C203.263799,120.573557 212.063799,124.473557 218.763799,131.773557 C225.963799,139.573557 230.763799,149.573557 234.363799,159.473557 C239.163799,172.573557 241.163799,187.173557 236.963799,200.673557 C233.263799,212.473557 225.663799,220.573557 216.663799,228.573557 C215.963799,229.173557 215.763799,233.273557 217.063799,232.873557 C228.863799,228.973557 236.363799,215.673557 239.763799,204.473557 C243.763799,191.173557 242.963799,176.673557 239.363799,163.373557 C233.063799,140.273557 219.863799,116.873557 194.263799,113.173557 C193.063799,112.873557 193.063799,116.973557 194.063799,117.373557 L194.063799,117.373557 Z" id="Path" fill="#000000"></path>
            <path d="M368.363799,117.673557 C378.263799,118.373557 380.163799,106.773557 379.663799,99.273557 C378.763799,86.573557 376.863799,74.173557 379.263799,61.473557 C383.763799,37.673557 403.063799,20.873557 426.763799,17.573557 C473.263799,10.973557 517.263799,51.373557 523.263799,96.073557 C526.963799,123.173557 517.763799,151.273557 508.563799,176.373557 C500.063799,199.773557 487.863799,220.973557 468.563799,237.173557 C434.563799,265.673557 385.363799,279.673557 341.363799,276.073557 C327.763799,274.973557 314.363799,271.773557 302.063799,265.873557 C290.563799,260.273557 280.563799,252.073557 269.063799,246.373557 C263.963799,243.773557 258.463799,241.773557 252.863799,240.973557 C245.763799,239.973557 238.863799,241.573557 231.963799,243.273557 C217.563799,246.773557 203.463799,246.773557 189.263799,242.673557 C187.663799,242.273557 187.263799,248.973557 189.063799,249.573557 C201.863799,253.773557 215.363799,254.573557 228.563799,251.773557 C235.163799,250.373557 241.663799,248.273557 248.563799,248.373557 C254.563799,248.473557 260.263799,250.173557 265.663799,252.573557 C276.763799,257.573557 286.263799,265.273557 296.863799,271.173557 C307.363799,276.873557 318.863799,280.573557 330.663799,282.573557 C355.163799,286.673557 380.863799,283.773557 404.763799,277.273557 C426.763799,271.273557 448.063799,261.773557 466.063799,247.673557 C485.263799,232.573557 498.563799,212.873557 507.663799,190.373557 C517.563799,165.873557 526.063799,138.973557 526.763799,112.373557 C527.963799,67.273557 499.063799,23.073557 454.063799,12.273557 C428.963799,6.27355695 400.363799,13.473557 385.763799,35.873557 C378.763799,46.573557 376.163799,59.573557 375.663799,72.273557 C375.463799,78.973557 375.763799,85.673557 376.563799,92.373557 C377.363799,99.973557 379.163799,112.473557 368.263799,113.273557 C367.063799,113.273557 367.063799,117.573557 368.363799,117.673557 L368.363799,117.673557 Z" id="Path" fill="#000000"></path>
            <path d="M331.063799,129.973557 C324.163799,126.773557 314.163799,128.573557 306.863799,129.573557 C299.063799,130.673557 290.963799,132.273557 283.763799,135.473557 C271.063799,141.073557 263.363799,152.873557 260.363799,166.173557 C257.063799,180.773557 258.963799,196.273557 261.963799,210.773557 C265.263799,226.473557 270.663799,241.773557 278.763799,255.673557 C279.863799,257.573557 280.363799,253.673557 279.963799,252.773557 C273.463799,239.573557 267.963799,225.873557 264.663799,211.473557 C261.363799,197.173557 258.863799,181.273557 262.863799,166.873557 C266.563799,153.273557 275.863799,143.573557 289.263799,139.173557 C295.663799,137.073557 302.363799,135.773557 308.963799,134.973557 C312.663799,134.473557 316.363799,134.273557 320.063799,134.073557 C323.763799,133.973557 327.663799,134.373557 331.163799,133.173557 C331.763799,132.973557 331.763799,130.273557 331.063799,129.973557 L331.063799,129.973557 Z" id="Path" fill="#000000"></path>
            <path d="M231.363799,145.273557 C235.863799,153.273557 244.463799,158.173557 253.663799,156.173557 C257.863799,155.273557 261.763799,153.373557 265.563799,151.373557 C270.163799,148.873557 275.563799,146.773557 279.663799,143.473557 C280.363799,142.873557 280.563799,138.973557 279.363799,138.973557 C275.563799,138.873557 271.963799,141.373557 268.863799,143.173557 C264.563799,145.673557 260.363799,148.473557 255.663799,150.073557 C246.763799,153.173557 237.263799,150.173557 231.963799,142.273557 C231.263799,141.273557 230.963799,144.573557 231.363799,145.273557 L231.363799,145.273557 Z" id="Path" fill="#000000"></path>
            <path d="M358.463799,154.373557 C359.063799,131.973557 331.863799,120.673557 313.563799,129.573557 C312.763799,129.973557 312.863799,134.173557 313.863799,134.073557 C323.763799,133.373557 333.163799,131.773557 342.463799,136.373557 C350.263799,140.173557 354.763799,146.573557 357.163799,154.773557 C357.663799,156.373557 358.363799,155.673557 358.463799,154.373557 L358.463799,154.373557 Z" id="Path" fill="#000000"></path>
            <path d="M369.363799,117.673557 C365.863799,111.073557 358.063799,109.773557 351.263799,108.973557 C343.763799,108.173557 336.163799,108.173557 328.763799,109.573557 C314.663799,112.073557 301.463799,119.373557 294.463799,132.273557 C294.163799,132.873557 294.563799,135.673557 294.963799,135.273557 C303.763799,124.473557 315.063799,117.473557 328.863799,115.073557 C342.063799,112.773557 357.863799,112.873557 368.963799,120.973557 C369.763799,121.373557 369.563799,117.973557 369.363799,117.673557 L369.363799,117.673557 Z" id="Path" fill="#000000"></path>
            <path d="M310.863799,277.073557 C307.163799,304.173557 312.863799,331.473557 320.463799,357.473557 C324.363799,370.873557 328.763799,384.073557 332.763799,397.373557 C337.063799,411.573557 340.163799,425.973557 343.363799,440.373557 C343.863799,442.773557 345.663799,441.873557 345.463799,439.773557 C343.563799,413.273557 333.163799,387.473557 325.163799,362.273557 C316.463799,334.873557 309.463799,306.773557 311.963799,277.773557 C312.063799,276.573557 311.163799,274.973557 310.863799,277.073557 L310.863799,277.073557 Z" id="Path" fill="#000000"></path>
            <path d="M328.663799,283.573557 C325.763799,308.773557 327.763799,334.673557 332.863799,359.473557 C335.463799,372.173557 339.063799,384.673557 343.463799,396.773557 C347.663799,408.173557 352.263799,420.973557 359.663799,430.673557 C361.063799,432.573557 361.263799,427.573557 360.963799,426.773557 C356.463799,415.673557 350.663799,405.273557 346.363799,394.073557 C341.863799,382.573557 338.263799,370.673557 335.563799,358.573557 C330.063799,334.173557 328.863799,309.473557 330.163799,284.573557 C330.263799,282.873557 328.963799,280.473557 328.663799,283.573557 L328.663799,283.573557 Z" id="Path" fill="#000000"></path>
            <path d="M146.363799,113.573557 C158.963799,109.173557 171.163799,99.773557 185.063799,100.073557 C198.763799,100.373557 205.063799,111.773557 212.663799,121.273557 C213.863799,122.773557 213.963799,117.973557 213.663799,117.273557 C208.963799,107.073557 200.163799,95.973557 188.363799,94.073557 C173.663799,91.673557 157.563799,102.673557 146.163799,110.673557 C145.563799,111.073557 145.763799,113.773557 146.363799,113.573557 L146.363799,113.573557 Z" id="Path" fill="#000000"></path>
            <path d="M171.563799,130.473557 C175.763799,124.973557 181.363799,120.473557 187.663799,117.473557 C194.363799,114.273557 201.063799,114.073557 208.263799,112.873557 C209.363799,112.673557 209.263799,108.773557 208.163799,108.573557 C193.963799,105.173557 178.263799,116.573557 170.963799,127.673557 C170.463799,128.173557 170.863799,131.373557 171.563799,130.473557 L171.563799,130.473557 Z" id="Path" fill="#000000"></path>
            <path d="M226.963799,249.573557 C232.363799,258.673557 235.563799,268.873557 235.063799,279.573557 C234.663799,288.973557 231.663799,297.973557 228.363799,306.673557 C223.363799,320.373557 218.463799,333.873557 215.163799,348.173557 C208.163799,378.473557 206.263799,411.173557 216.163799,440.973557 C217.063799,443.573557 218.063799,440.173557 217.663799,438.873557 C207.763799,404.773557 211.263799,368.373557 221.163799,334.673557 C225.663799,319.273557 233.163799,304.473557 235.663799,288.473557 C237.963799,273.973557 235.463799,259.273557 227.263799,246.973557 C226.863799,246.073557 226.563799,248.873557 226.963799,249.573557 L226.963799,249.573557 Z" id="Path" fill="#000000"></path>
            <path d="M213.563799,254.173557 C218.563799,270.873557 216.863799,286.973557 212.063799,303.373557 C208.163799,317.073557 203.163799,330.473557 199.963799,344.373557 C193.163799,373.473557 188.063799,405.373557 198.463799,434.173557 C199.863799,438.173557 201.463799,432.873557 200.863799,430.873557 C191.063799,399.073557 197.163799,364.173557 206.463799,332.873557 C214.263799,306.773557 225.363799,278.273557 214.363799,251.373557 C213.663799,249.573557 213.263799,253.373557 213.563799,254.173557 L213.563799,254.173557 Z" id="Path" fill="#000000"></path>
        </g>
    </g>
</svg>