<?xml version="1.0" encoding="UTF-8"?>
<svg width="381px" height="626px" viewBox="0 0 381 626" version="1.1" xmlns="http://www.w3.org/2000/svg" xmlns:xlink="http://www.w3.org/1999/xlink">
    <!-- Generator: Sketch 62 (91390) - https://sketch.com -->
    <title>Group 42</title>
    <desc>Created with Sketch.</desc>
    <g id="Page-1" stroke="none" stroke-width="1" fill="none" fill-rule="evenodd">
        <g id="Group-42" transform="translate(0.017419, 0.595795)" fill-rule="nonzero">
            <path d="M164.482581,122.304205 C169.082581,113.404205 162.582581,121.304205 161.682581,111.304205 C161.182581,105.804205 163.082581,95.6042047 164.482581,90.3042047 C165.782581,85.2042047 167.982581,87.0042047 175.882581,73.5042047 C187.682581,53.4042047 178.682581,28.5042047 159.282581,13.3042047 C145.182581,2.20420468 125.082581,0.904204677 107.382581,3.40420468 C89.0825806,6.00420468 78.1825806,8.00420468 62.1825806,17.3042047 C33.1825806,34.1042047 10.4825806,54.7042047 5.38258065,87.8042047 C3.88258065,97.9042047 -1.41741935,114.804205 1.28258065,124.704205 C3.68258065,133.704205 8.28258065,142.004205 13.2825806,149.904205 C28.6825806,174.504205 42.4825806,203.504205 69.2825806,215.904205 C52.9825806,223.304205 40.9825806,227.504205 31.4825806,242.704205 C24.9825806,253.104205 18.9825806,268.404205 23.1825806,279.904205 C28.1825806,293.404205 47.4825806,313.804205 61.6825806,316.204205 C75.8825806,318.604205 86.1825806,310.404205 99.7825806,315.204205 C122.582581,323.304205 138.582581,350.804205 169.182581,355.604205 C196.882581,360.004205 218.582581,350.104205 243.482581,338.204205 C252.982581,333.704205 264.282581,334.904205 274.382581,331.904205 C284.482581,328.904205 286.182581,327.904205 291.482581,318.804205 C298.882581,306.204205 302.282581,286.204205 289.582581,266.804205 C281.582581,254.604205 273.782581,245.704205 260.382581,239.704205 C238.682581,230.004205 222.682581,223.804205 198.982581,221.204205 C188.382581,220.104205 183.782581,213.904205 169.082581,219.104205 C181.182581,210.004205 193.582581,206.804205 202.182581,194.304205 C210.782581,181.804205 206.882581,155.404205 201.482581,141.204205 C198.882581,134.404205 198.582581,136.004205 194.982581,129.704205 C184.382581,111.004205 167.582581,120.104205 157.282581,102.004205" id="Path" fill="#82533F"></path>
            <g id="Group" opacity="0.4" transform="translate(19.982581, 32.404205)" fill="#FFB1A8">
                <path d="M124.6,110.4 C128.3,103.2 130,94.9 129.3,86.7 C128.9,82.3 127.9,77.7 129,73.4 C130.1,69.3 133,66 135.4,62.5 C146.8,46.1 146.2,20.7 130.5,8.3 C119.1,-0.7 103.1,-1 88.7,1.1 C73.8,3.2 59.1,7.4 46.1,15 C22.5,28.6 5.7,53.3 1.6,80.3 C0.3,88.5 0.2,97 2.4,105.1 C4.4,112.4 8.1,119.2 12.2,125.6 C24.7,145.6 40.1,163.7 57.8,179.3 C44.6,185.3 33.2,195.3 25.5,207.7 C20.2,216.2 16.7,226.7 20.1,236 C24.1,247 36.4,252.7 48,254.7 C59.6,256.7 71.6,256.2 82.7,260.1 C101.3,266.7 114.2,285 133.2,290.3 C155.1,296.5 177.4,283.8 199.6,278.8 C208,276.9 216.6,276.2 224.7,273.7 C232.9,271.2 240.9,266.7 245.3,259.4 C251.3,249.2 248.8,235.6 241.8,226 C234.8,216.4 224.1,210.3 213.3,205.4 C195.6,197.5 176.7,192.4 157.5,190.3 C148.9,189.4 139.8,188.9 132.6,184.1 C142.4,176.7 152.5,169.1 159.4,159 C166.4,148.9 169.9,135.5 165.5,124 C163.4,118.5 159.6,113.7 155.8,109.1 C147.5,98.8 138.5,88 126,83.6" id="Path"></path>
            </g>
            <path d="M165.782581,118.504205 C165.982581,119.904205 165.182581,121.004205 164.082581,122.004205 C160.882581,124.904205 159.582581,139.404205 165.482581,140.204205 C172.382581,141.104205 176.082581,145.604205 179.482581,151.204205 C183.482581,157.904205 186.782581,165.004205 189.782581,172.104205 C195.982581,186.704205 199.682581,202.004205 199.882581,217.904205 C200.282581,251.204205 188.182581,284.004205 177.882581,315.304205 C155.682581,382.304205 130.482581,450.004205 131.882581,521.704205 C132.282581,540.204205 135.082581,558.204205 138.482581,576.404205 C140.682581,587.904205 143.382581,597.704205 153.682581,604.304205 C155.982581,605.704205 157.882581,602.504205 158.482581,600.904205 C159.682581,597.704205 159.582581,594.004205 158.582581,590.804205 C153.582581,574.104205 147.882581,557.504205 143.982581,540.604205 C140.082581,523.704205 141.382581,507.104205 143.782581,490.104205 C148.582581,456.004205 153.482581,421.604205 163.782581,388.704205 C182.882581,327.804205 215.182581,270.204205 214.482581,204.704205 C214.282581,185.604205 209.382581,168.204205 200.582581,151.404205 C196.482581,143.604205 191.882581,136.304205 186.082581,129.604205 C180.682581,123.304205 174.882581,117.404205 169.982581,110.604205 C167.182581,106.804205 164.982581,112.104205 164.482581,114.604205 C163.582581,118.904205 163.582581,125.404205 166.282581,129.204205 C174.982581,141.104205 186.082581,150.904205 193.482581,163.904205 C200.882581,176.804205 205.982581,190.104205 206.182581,205.104205 C206.482581,235.404205 197.182581,265.504205 187.182581,293.904205 C176.582581,324.004205 163.882581,353.404205 154.682581,384.004205 C144.782581,417.004205 139.782581,451.304205 134.982581,485.404205 C132.182581,504.904205 130.782581,524.404205 134.682581,543.804205 C138.482581,563.004205 145.082581,581.704205 150.882581,600.404205 C152.482581,595.904205 154.182581,591.404205 155.782581,586.904205 C147.282581,581.404205 147.482581,573.104205 145.782581,563.504205 C142.982581,547.104205 141.082581,530.904205 141.282581,514.304205 C141.582581,480.104205 148.682581,446.004205 157.782581,413.204205 C167.182581,379.404205 179.682581,346.804205 190.682581,313.604205 C201.882581,279.704205 211.382581,244.804205 208.682581,208.804205 C207.282581,189.704205 202.682581,170.804205 194.282581,153.504205 C190.582581,145.904205 186.582581,138.204205 181.682581,131.304205 C177.582581,125.604205 172.382581,121.004205 164.982581,122.004205 C165.782581,127.704205 166.482581,133.504205 167.282581,139.204205 C172.582581,131.904205 173.282581,121.404205 170.982581,112.904205 C170.482581,110.904205 169.382581,108.404205 167.182581,109.904205 C165.182581,111.004205 165.482581,116.504205 165.782581,118.504205 L165.782581,118.504205 Z" id="Path" fill="#FFEAA9"></path>
            <path d="M146.682581,281.804205 C128.582581,304.404205 114.282581,331.904205 124.682581,361.304205 C133.882581,387.304205 159.382581,404.404205 182.382581,417.004205 C196.082581,424.504205 208.982581,433.604205 222.182581,441.904205 C235.682581,450.304205 249.182581,458.804205 261.982581,468.304205 C286.482581,486.504205 307.082581,509.004205 325.482581,533.304205 C345.882581,560.204205 363.282581,588.704205 373.582581,621.104205 C375.482581,617.604205 377.482581,614.204205 379.382581,610.704205 C373.482581,596.004205 368.082581,581.404205 360.982581,567.204205 C353.982581,553.404205 345.982581,540.004205 336.482581,527.704205 C326.282581,514.504205 314.582581,502.504205 302.782581,490.704205 C291.182581,479.204205 279.482581,467.604205 267.182581,456.804205 C242.582581,435.104205 214.682581,418.004205 187.082581,400.404205 C165.082581,386.304205 130.582581,368.304205 135.082581,336.904205 C136.282581,328.704205 140.082581,321.504205 144.982581,315.004205 C149.782581,308.604205 156.582581,303.604205 160.982581,297.004205 C165.082581,290.904205 166.482581,278.404205 160.882581,272.904205 C154.182581,266.204205 148.482581,277.404205 144.582581,281.104205 C142.082581,283.504205 142.182581,288.504205 142.682581,291.704205 C142.882581,293.004205 144.082581,299.604205 146.682581,297.604205 C147.582581,296.904205 157.282581,285.804205 158.682581,290.104205 C158.282581,287.904205 157.882581,285.704205 157.482581,283.504205 C157.482581,283.004205 157.482581,282.404205 157.482581,281.904205 C157.782581,280.204205 157.682581,279.804205 157.082581,280.904205 C156.682581,281.104205 155.882581,282.304205 155.582581,282.604205 C154.382581,283.904205 153.182581,285.004205 151.982581,286.204205 C149.382581,288.804205 146.982581,291.504205 144.582581,294.304205 C139.982581,299.604205 136.082581,305.304205 133.082581,311.704205 C127.182581,324.404205 125.882581,339.204205 128.082581,353.004205 C130.182581,366.304205 135.782581,378.804205 145.382581,388.304205 C155.682581,398.504205 168.482581,406.004205 180.682581,413.604205 C206.882581,430.004205 233.882581,445.404205 257.682581,465.204205 C269.982581,475.404205 281.382581,486.604205 292.782581,497.704205 C303.882581,508.504205 315.082581,519.204205 325.182581,530.904205 C336.482581,544.004205 345.682581,558.804205 353.482581,574.204205 C361.082581,589.204205 368.182581,605.004205 373.582581,621.004205 C374.382581,623.504205 376.382581,626.604205 378.982581,623.904205 C381.482581,621.304205 380.982581,615.404205 380.082581,612.304205 C372.282581,583.804205 358.982581,558.004205 342.182581,533.704205 C325.782581,510.004205 307.482581,487.404205 286.282581,467.804205 C264.382581,447.504205 238.782581,432.104205 213.882581,415.804205 C208.082581,412.004205 202.382581,407.904205 196.782581,403.804205 C190.382581,399.104205 183.582581,395.504205 176.582581,391.604205 C165.182581,385.304205 153.982581,377.304205 144.382581,368.504205 C135.382581,360.204205 126.582581,349.004205 128.182581,336.004205 C130.082581,319.804205 140.582581,305.504205 149.282581,292.204205 C150.782581,289.904205 149.582581,278.104205 146.682581,281.804205 L146.682581,281.804205 Z" id="Path" fill="#FFEAA9"></path>
            <path d="M207.682581,159.304205 C205.382581,142.604205 197.582581,125.404205 183.582581,115.404205 C180.182581,113.004205 176.582581,111.204205 172.682581,109.804205 C170.482581,109.004205 168.182581,108.504205 166.182581,107.404205 C162.582581,105.404205 162.282581,102.904205 161.782581,98.9042047 C160.682581,91.3042047 158.282581,83.1042047 150.282581,80.2042047 C148.282581,79.5042047 148.082581,86.2042047 149.782581,87.0042047 C152.382581,88.3042047 154.682581,89.7042047 157.082581,91.4042047 C157.782581,91.9042047 158.082581,92.4042047 158.882581,92.6042047 C163.482581,93.4042047 169.282581,87.4042047 171.682581,84.4042047 C179.982581,74.4042047 183.482581,61.1042047 182.782581,48.2042047 C182.082581,35.7042047 177.182581,23.5042047 167.982581,14.8042047 C163.382581,10.5042047 158.182581,6.80420468 152.282581,4.40420468 C144.482581,1.20420468 136.082581,1.00420468 127.782581,0.00420467696 C126.382581,-0.195795323 126.182581,6.80420468 127.982581,7.10420468 C140.182581,9.40420468 151.682581,9.90420468 162.182581,17.4042047 C171.482581,24.0042047 178.582581,34.9042047 180.082581,46.3042047 C181.682581,58.4042047 176.882581,72.2042047 167.882581,80.6042047 C165.982581,82.4042047 161.482581,86.2042047 158.582581,85.3042047 C158.082581,85.1042047 157.382581,84.2042047 156.982581,83.8042047 C154.982581,82.3042047 152.682581,81.2042047 150.382581,80.1042047 C150.182581,82.4042047 149.982581,84.7042047 149.882581,86.9042047 C154.182581,88.4042047 157.082581,91.7042047 158.582581,96.0042047 C159.982581,100.004205 159.082581,104.404205 160.782581,108.404205 C163.782581,115.304205 173.282581,115.304205 179.182581,118.404205 C195.282581,126.604205 203.282581,144.304205 206.482581,161.204205 C206.782581,164.104205 207.782581,160.504205 207.682581,159.304205 L207.682581,159.304205 Z" id="Path" fill="#000000"></path>
            <path d="M139.582581,1.20420468 C114.282581,0.304204677 86.1825806,1.90420468 62.9825806,13.2042047 C40.3825806,24.2042047 22.3825806,44.6042047 11.5825806,67.0042047 C4.38258065,81.9042047 -0.717419351,98.6042047 0.0825806493,115.304205 C0.882580649,132.204205 7.78258065,147.804205 16.0825806,162.304205 C24.0825806,176.504205 32.5825806,191.204205 44.0825806,202.904205 C56.3825806,215.404205 71.7825806,221.304205 88.9825806,223.504205 C125.782581,228.104205 164.182581,225.604205 195.682581,204.304205 C197.182581,203.304205 196.182581,196.604205 194.882581,197.404205 C168.582581,214.104205 138.682581,219.304205 107.982581,217.404205 C91.2825806,216.404205 73.6825806,215.104205 58.8825806,206.604205 C45.3825806,198.804205 35.8825806,186.004205 27.6825806,173.104205 C18.7825806,159.004205 9.38258065,144.204205 4.98258065,128.004205 C0.182580649,110.104205 4.68258065,91.9042047 12.0825806,75.3042047 C22.0825806,52.8042047 38.9825806,32.0042047 60.7825806,20.1042047 C84.6825806,7.00420468 113.382581,7.20420468 139.782581,6.10420468 C140.782581,6.00420468 140.682581,1.20420468 139.582581,1.20420468 L139.582581,1.20420468 Z" id="Path" fill="#000000"></path>
            <path d="M150.982581,83.0042047 C143.582581,75.1042047 130.582581,70.7042047 120.382581,68.1042047 C109.082581,65.2042047 96.8825806,64.0042047 85.4825806,66.7042047 C84.6825806,66.9042047 84.7825806,70.3042047 85.5825806,70.3042047 C97.0825806,70.6042047 108.482581,70.9042047 119.782581,73.7042047 C125.682581,75.2042047 131.382581,77.2042047 136.982581,79.6042047 C141.682581,81.6042047 146.182581,85.1042047 151.082581,86.5042047 C151.682581,86.6042047 151.282581,83.4042047 150.982581,83.0042047 L150.982581,83.0042047 Z" id="Path" fill="#000000"></path>
            <path d="M158.782581,105.704205 C160.382581,112.004205 165.782581,120.404205 161.582581,126.404205 C158.482581,130.904205 153.882581,134.504205 149.882581,138.104205 C140.882581,146.304205 131.382581,153.704205 122.282581,161.704205 C121.682581,162.204205 121.882581,165.404205 122.682581,165.004205 C130.082581,160.404205 136.782581,155.004205 143.382581,149.404205 C149.182581,144.404205 155.482581,139.404205 160.382581,133.604205 C168.382581,124.304205 164.282581,112.704205 159.282581,102.804205 C158.882581,101.704205 158.682581,105.304205 158.782581,105.704205 L158.782581,105.704205 Z" id="Path" fill="#000000"></path>
            <path d="M65.9825806,216.504205 C58.5825806,216.804205 50.2825806,222.804205 44.5825806,227.004205 C37.9825806,231.804205 32.2825806,237.904205 28.0825806,244.904205 C20.6825806,257.404205 18.5825806,273.704205 24.2825806,287.304205 C27.2825806,294.404205 32.1825806,300.604205 37.7825806,305.904205 C43.5825806,311.404205 50.6825806,317.004205 58.8825806,317.604205 C63.3825806,318.004205 67.8825806,316.804205 72.4825806,317.104205 C75.8825806,317.304205 79.0825806,318.404205 82.4825806,318.504205 C88.4825806,318.704205 94.3825806,319.504205 100.282581,319.704205 C109.782581,320.104205 117.382581,314.404205 124.082581,308.404205 C131.182581,302.104205 137.582581,295.104205 144.682581,288.804205 C145.482581,288.104205 145.182581,283.704205 144.182581,284.304205 C132.282581,291.304205 124.482581,303.504205 112.282581,310.204205 C104.682581,314.404205 97.6825806,312.704205 89.4825806,312.004205 C85.7825806,311.704205 82.1825806,312.204205 78.4825806,311.604205 C75.1825806,311.104205 72.1825806,310.504205 68.7825806,310.704205 C64.8825806,310.904205 60.8825806,311.704205 56.9825806,311.104205 C49.1825806,309.904205 42.3825806,304.204205 36.9825806,298.804205 C31.1825806,293.104205 25.9825806,286.304205 23.8825806,278.304205 C21.5825806,269.304205 23.6825806,259.904205 27.8825806,251.804205 C31.7825806,244.204205 37.6825806,237.904205 44.3825806,232.604205 C51.1825806,227.304205 59.4825806,224.304205 65.9825806,218.904205 C66.4825806,218.804205 66.6825806,216.504205 65.9825806,216.504205 L65.9825806,216.504205 Z" id="Path" fill="#000000"></path>
            <path d="M195.282581,220.504205 C192.382581,218.204205 188.382581,217.604205 184.882581,216.704205 C180.582581,215.604205 176.182581,214.704205 171.782581,214.004205 C165.382581,213.104205 153.982581,211.404205 149.482581,217.404205 C148.982581,218.104205 148.482581,221.704205 149.782581,221.904205 C152.882581,222.404205 156.582581,220.504205 159.882581,220.304205 C163.882581,220.004205 167.982581,220.304205 171.982581,220.804205 C175.882581,221.304205 179.782581,222.104205 183.682581,222.904205 C187.182581,223.604205 191.782581,225.204205 195.282581,224.004205 C196.082581,223.604205 195.882581,221.004205 195.282581,220.504205 L195.282581,220.504205 Z" id="Path" fill="#000000"></path>
            <path d="M175.882581,358.404205 C195.182581,362.304205 215.282581,353.604205 233.082581,346.904205 C241.982581,343.604205 250.882581,340.004205 260.182581,337.604205 C269.782581,335.104205 279.982581,334.004205 287.682581,327.104205 C301.382581,314.904205 302.282581,293.904205 296.682581,277.604205 C291.082581,261.404205 280.182581,251.404205 266.182581,242.204205 C257.982581,236.904205 249.482581,232.104205 240.682581,227.804205 C233.982581,224.504205 226.582581,220.704205 219.082581,219.804205 C218.082581,219.704205 218.182581,223.904205 218.982581,224.304205 C231.182581,230.704205 243.882581,235.704205 255.782581,242.704205 C267.182581,249.404205 280.582581,257.204205 288.182581,268.304205 C299.782581,285.204205 302.582581,310.804205 283.382581,323.404205 C275.482581,328.604205 265.582581,329.304205 256.782581,331.904205 C248.682581,334.304205 240.782581,337.404205 232.982581,340.504205 C214.682581,347.704205 195.882581,354.804205 175.882581,354.904205 C175.082581,354.904205 175.082581,358.204205 175.882581,358.404205 L175.882581,358.404205 Z" id="Path" fill="#000000"></path>
            <path d="M134.682581,342.704205 C137.582581,346.704205 142.882581,349.704205 147.082581,352.004205 C152.082581,354.804205 161.382581,360.004205 166.882581,356.704205 C167.782581,356.204205 167.582581,352.804205 166.782581,352.204205 C163.682581,350.204205 159.582581,350.404205 156.082581,349.304205 C152.882581,348.304205 149.782581,346.904205 146.882581,345.204205 C144.182581,343.704205 137.982581,338.004205 134.682581,339.404205 C134.082581,339.804205 134.382581,342.204205 134.682581,342.704205 L134.682581,342.704205 Z" id="Path" fill="#000000"></path>
            <path d="M254.982581,334.704205 C242.882581,337.704205 230.582581,341.504205 218.882581,335.604205 C210.282581,331.204205 200.382581,323.704205 199.882581,313.204205 C199.782581,310.804205 198.482581,310.804205 198.482581,313.204205 C198.682581,324.804205 205.882581,333.104205 215.682581,338.604205 C219.682581,340.804205 224.082581,342.904205 228.682581,343.304205 C237.782581,344.104205 247.182581,340.804205 255.082581,336.704205 C255.482581,336.504205 255.382581,334.604205 254.982581,334.704205 L254.982581,334.704205 Z" id="Path" fill="#000000"></path>
            <path d="M136.682581,155.104205 C142.682581,152.004205 147.182581,147.204205 152.682581,143.304205 C158.682581,139.104205 164.082581,139.804205 170.082581,143.904205 C183.182581,152.804205 189.582581,170.104205 193.382581,184.704205 C202.182581,218.304205 196.882581,253.604205 187.382581,286.504205 C177.582581,320.404205 163.782581,353.004205 153.482581,386.804205 C143.482581,419.704205 135.882581,453.504205 133.482581,487.904205 C130.882581,525.104205 134.182581,563.304205 147.182581,598.404205 C148.482581,601.804205 150.082581,597.504205 149.482581,595.604205 C125.582581,524.604205 136.982581,449.904205 159.382581,380.104205 C179.882581,316.204205 214.682581,248.304205 195.282581,179.604205 C191.182581,165.004205 184.682581,148.204205 171.882581,139.004205 C166.482581,135.204205 160.682581,133.004205 154.582581,136.404205 C147.882581,140.204205 142.782581,146.504205 136.282581,150.604205 C134.982581,151.304205 135.382581,155.804205 136.682581,155.104205 L136.682581,155.104205 Z" id="Path" fill="#000000"></path>
            <path d="M163.182581,113.504205 C199.082581,131.804205 214.582581,173.304205 214.782581,211.704205 C214.982581,253.704205 198.882581,295.004205 182.282581,332.904205 C175.982581,347.204205 169.682581,361.304205 164.782581,376.104205 C160.082581,390.604205 156.382581,405.304205 153.382581,420.304205 C149.582581,439.204205 146.882581,458.204205 144.782581,477.404205 C142.682581,496.204205 141.182581,515.204205 142.082581,534.104205 C143.182581,557.404205 148.282581,579.704205 160.882581,599.504205 C162.482581,602.004205 163.482581,597.104205 162.682581,595.704205 C152.082581,577.304205 146.582581,557.904205 145.382581,536.704205 C144.182581,516.804205 145.882581,497.004205 148.082581,477.204205 C150.282581,457.804205 153.082581,438.504205 157.082581,419.404205 C160.282581,404.104205 164.282581,388.904205 169.482581,374.104205 C174.982581,358.504205 182.182581,343.704205 188.582581,328.504205 C204.182581,291.704205 217.782581,252.004205 217.582581,211.604205 C217.382581,172.904205 202.382581,125.404205 163.582581,109.104205 C162.282581,108.604205 162.082581,113.004205 163.182581,113.504205 L163.182581,113.504205 Z" id="Path" fill="#000000"></path>
            <path d="M144.382581,285.004205 C140.082581,287.704205 136.682581,293.504205 133.782581,297.504205 C130.482581,302.204205 127.382581,307.004205 124.982581,312.204205 C120.382581,321.904205 117.882581,332.704205 118.682581,343.504205 C119.482581,353.504205 123.482581,361.904205 129.482581,369.804205 C134.582581,376.504205 141.482581,386.304205 149.882581,389.104205 C151.482581,389.604205 151.282581,385.704205 150.582581,385.004205 C138.582581,373.804205 123.182581,360.304205 121.582581,343.004205 C120.582581,332.204205 124.182581,321.804205 129.182581,312.404205 C133.882581,303.804205 140.982581,296.404205 145.182581,287.604205 C145.282581,287.204205 145.282581,284.404205 144.382581,285.004205 L144.382581,285.004205 Z" id="Path" fill="#000000"></path>
            <path d="M168.982581,284.604205 C164.882581,288.004205 161.382581,292.404205 157.682581,296.304205 C154.382581,299.704205 151.082581,303.104205 147.982581,306.704205 C141.382581,314.304205 135.382581,322.904205 133.182581,332.904205 C131.182581,342.004205 132.482581,351.604205 135.982581,360.104205 C139.282581,368.204205 145.582581,379.104205 153.982581,382.704205 C155.682581,383.404205 155.382581,378.904205 154.682581,378.204205 C148.982581,371.804205 142.982581,366.404205 139.082581,358.404205 C134.582581,349.104205 133.682581,339.304205 137.682581,329.604205 C141.182581,321.304205 147.082581,314.204205 153.082581,307.604205 C158.682581,301.404205 165.482581,295.404205 169.582581,288.104205 C169.982581,287.604205 169.982581,283.904205 168.982581,284.604205 L168.982581,284.604205 Z" id="Path" fill="#000000"></path>
            <path d="M164.982581,400.104205 C182.782581,416.304205 203.182581,428.504205 223.582581,441.204205 C242.582581,452.904205 260.782581,465.904205 277.782581,480.404205 C307.382581,505.504205 333.782581,535.304205 351.882581,569.704205 C360.482581,586.104205 367.182581,603.504205 371.382581,621.504205 C372.182581,625.004205 374.382581,621.104205 373.982581,619.104205 C357.982581,542.404205 297.082581,481.504205 233.182581,440.804205 C222.082581,433.704205 210.482581,427.504205 199.482581,420.404205 C187.782581,412.904205 176.682581,404.404205 165.282581,396.504205 C164.382581,395.804205 164.282581,399.404205 164.982581,400.104205 L164.982581,400.104205 Z" id="Path" fill="#000000"></path>
            <path d="M164.282581,391.504205 C184.882581,404.304205 204.682581,418.104205 224.782581,431.704205 C245.082581,445.404205 266.282581,457.804205 285.382581,473.304205 C314.382581,496.904205 337.982581,526.104205 353.982581,559.904205 C360.982581,574.704205 366.282581,590.204205 372.682581,605.304205 C373.682581,607.604205 374.682581,603.404205 374.382581,602.504205 C365.882581,572.404205 352.582581,543.104205 334.482581,517.504205 C322.782581,501.004205 308.882581,486.104205 293.482581,472.904205 C275.082581,457.004205 254.682581,444.604205 234.382581,431.404205 C211.382581,416.504205 189.182581,399.904205 164.682581,387.604205 C163.482581,387.104205 163.282581,390.904205 164.282581,391.504205 L164.282581,391.504205 Z" id="Path" fill="#000000"></path>
            <path d="M119.882581,325.004205 C113.582581,325.004205 109.382581,318.004205 104.582581,314.804205 C102.282581,313.304205 101.182581,321.904205 103.482581,323.504205 C108.782581,326.904205 112.882581,334.004205 119.882581,334.004205 C122.682581,334.004205 122.682581,325.004205 119.882581,325.004205 L119.882581,325.004205 Z" id="Path" fill="#000000"></path>
        </g>
    </g>
</svg>