<?xml version="1.0" encoding="UTF-8"?>
<svg width="329px" height="621px" viewBox="0 0 329 621" version="1.1" xmlns="http://www.w3.org/2000/svg" xmlns:xlink="http://www.w3.org/1999/xlink">
    <!-- Generator: Sketch 62 (91390) - https://sketch.com -->
    <title>Group 46</title>
    <desc>Created with Sketch.</desc>
    <g id="Page-1" stroke="none" stroke-width="1" fill="none" fill-rule="evenodd">
        <g id="Group-46" fill-rule="nonzero">
            <path d="M164.877804,6.34577756 C139.877804,-3.15422244 113.377804,3.94577756 87.5778042,10.7457776 C72.0778042,14.7457776 43.7778042,28.1457776 36.2778042,42.2457776 C14.6778042,82.5457776 6.67780423,90.2457776 12.0778042,130.545778 C17.4778042,170.845778 34.7778042,202.945778 68.5778042,225.645778 C51.1778042,232.745778 44.6778042,233.945778 34.4778042,249.745778 C31.4778042,254.345778 27.3778042,267.045778 26.6778042,272.445778 C25.1778042,284.845778 33.8778042,310.745778 44.0778042,317.945778 C54.2778042,325.145778 48.6778042,319.345778 58.4778042,327.045778 C47.8778042,329.645778 50.8778042,339.245778 48.2778042,349.845778 C45.6778042,360.445778 47.1778042,371.545778 48.7778042,382.245778 C41.0778042,377.345778 31.5778042,384.745778 25.7778042,391.745778 C18.3778042,400.745778 21.3778042,406.945778 22.7778042,418.545778 C24.1778042,430.645778 46.8778042,450.345778 56.8778042,457.345778 C78.9778042,473.045778 90.0778042,475.345778 116.777804,480.045778 C143.477804,484.745778 167.677804,470.745778 188.377804,453.245778 C203.377804,440.545778 208.477804,436.045778 215.777804,417.745778 C226.377804,391.045778 236.877804,352.945778 233.377804,324.345778 C229.177804,290.845778 221.577804,250.145778 178.577804,249.645778 C196.477804,246.845778 211.477804,259.245778 215.077804,210.845778 C216.677804,189.145778 213.077804,168.045778 204.177804,148.245778 C199.877804,138.845778 195.677804,121.945778 191.377804,112.545778 C189.277804,107.845778 182.977804,109.145778 186.577804,105.545778 C194.777804,97.3457776 199.077804,97.5457776 203.777804,88.5457776 C211.177804,74.2457776 208.477804,55.7457776 203.777804,40.2457776 C198.177804,21.9457776 182.777804,13.3457776 164.877804,6.34577756" id="Path" fill="#82533F"></path>
            <g id="Group" opacity="0.4" transform="translate(24.077804, 21.845778)" fill="#FFB1A8">
                <path d="M129,4.2 C108.7,-3.5 93,1.1 72,6.6 C59.4,9.9 47.2,14.9 36.6,22.5 C9.7,41.8 -3.4,77.2 1,110 C5.4,142.8 36.1,192.3 63.6,210.8 C49.4,216.6 37.1,236.8 28.8,249.7 C26.4,253.4 24.3,257.5 23.7,261.9 C22.5,272 29.6,281.3 37.9,287.1 C46.2,292.9 55.9,296.6 63.8,302.9 C55.2,305 42.4,316.8 43.3,334.6 C44.1,350.4 63.2,363 47.7,381.6 C41.4,377.6 16.8,381.9 17.9,391.3 C19.1,401.2 27.5,408.4 35.6,414.1 C53.6,426.8 73.4,437.7 95.1,441.5 C116.8,445.3 140.6,441.3 157.4,427.1 C169.6,416.8 177.2,402.1 183.1,387.2 C191.7,365.5 197.3,331.9 194.5,308.7 C191.1,281.5 175.6,246 152.9,230.5 C165,222.1 167.7,192.8 172.5,179 C178.3,162.3 170.9,144.2 163.6,128.1 C160.1,120.4 156.7,112.8 153.2,105.1 C151.5,101.3 149.8,97.5 149.3,93.3 C148.3,85.1 152.3,77.2 156.1,69.9 C162.1,58.2 168,45 164.2,32.5 C159.8,17.5 143.5,9.9 129,4.2" id="Path"></path>
            </g>
            <g id="Group" transform="translate(166.077804, 117.845778)" fill="#FFEAA9">
                <path d="M35.6,14.1 C30.9,6.2 18.5,11.5 9.8,14.7 C6.3,16 4.7,9.9 5.4,13.5 C5.9,16 8,16.2 10.3,17.2 C28.7,25.1 52.7,45.8 54.3,103.2 C55.4,142.9 53.2,163.4 45.5,195.1 C22.7,288.5 -7,364.1 11.8,458.5 C12.9,463.9 15.4,489.1 19.3,493 C21.4,491.9 23.5,490.8 25.7,489.7 C8.8,410.7 9.6,334.6 35.3,258 C49.9,214.6 62.3,184.9 71.8,131.9 C73.9,120 72.2,102.5 70.7,90.5 C68.7,74.4 68,57 59.3,43.3 C47.8,25.2 45.5,23.9 31.3,16" id="Path"></path>
                <path d="M37.6,8.9 C34.3,2.7 29,-0.1 22,1.3 C18.5,2 15.2,3.1 11.8,4.3 C9.6,5.1 8.6,5.7 7,4 C6.5,3.2 5.8,2.8 4.9,2.7 C4.9,2.7 4.8,2.7 4.8,2.7 C1.3,3.9 0.8,9.4 1,12.5 C1.3,16.5 1.8,21.4 4.8,24.3 C6.7,26.1 9.6,26.6 11.9,27.7 C15.8,29.5 19.4,31.7 22.7,34.4 C31.2,41.3 37.3,50.5 41.4,60.5 C47.8,75.9 49.3,92.5 49.7,109 C50,126 49.7,143 47.3,159.8 C44.7,178.2 39.7,196.3 35.1,214.2 C29.9,234.3 24.4,254.3 19.3,274.5 C9.3,313.9 1.3,353.9 0.8,394.7 C0.5,417.7 3.4,440.1 7,462.8 C8,469.2 8.7,475.6 9.9,481.9 C11.1,488.4 12.2,496.5 16.6,501.8 C17.6,503 19.1,503.5 20.5,502.7 C22.6,501.6 24.7,500.5 26.9,499.4 C30.6,497.5 30.8,490.1 30.1,486.8 C14.4,414.5 14.2,340 37.3,269.2 C46.7,240.4 57.4,212.1 65.4,182.8 C69.9,166.1 74.3,149 76.4,131.8 C78.4,115.7 76,99.2 74.2,83.2 C72,64.2 69.4,46.3 58.7,29.9 C55.2,24.4 51.5,19.1 46.6,14.7 C42.3,10.8 37,8 31.9,5.2 C26.4,2.1 24.4,23.3 30,26.5 C34.4,29 39,31.4 43,34.6 C46.9,37.7 49.7,41.8 52.5,45.9 C56.8,52.2 60.3,58.4 62.2,65.9 C64,73.3 64.6,81 65.5,88.5 C67,101.9 69.3,115.7 66.8,129.1 C63.8,145.3 60.2,161.3 55.7,177.1 C47.6,205.7 36.4,233.2 27.6,261.6 C16.8,296.5 10.8,332.7 9.4,369.1 C7.9,410.5 12,451.8 20.4,492.3 C21.5,488.1 22.5,483.9 23.6,479.7 C21.5,480.8 19.4,481.9 17.2,483.1 C18.5,483.4 19.8,483.7 21.1,484 C22.5,485.6 20.9,482.8 21.3,484.4 C21,483.3 20.6,482.2 20.3,481 C19.9,479.5 19.2,475.4 18.7,472.6 C17.8,467.2 17.2,461.8 16.2,456.4 C12.8,436.9 10.2,417.6 10.1,397.8 C10,358.6 18,320 27.5,282.2 C37.1,244.1 49.6,206.3 55.5,167.4 C58,150.6 58.7,133.6 58.5,116.6 C58.3,97.5 57.4,78.2 52.2,59.8 C48.3,46.3 42.1,33 32.2,22.9 C28.5,19.1 24.5,15.8 20,12.9 C18.1,11.7 16.2,10.5 14.1,9.4 C13.1,8.9 12.1,8.4 11.1,7.9 C10.5,7.6 9.9,7.4 9.4,7.2 C5.7,5.6 8.3,5.8 8.6,12 C7.3,15.3 6.1,18.5 4.8,21.8 C4.8,21.8 4.9,21.8 4.9,21.8 C4.2,21.4 3.5,20.9 2.8,20.5 C4.2,22 5.4,23.9 7.6,24.2 C10.2,24.6 13.4,22.5 15.8,21.6 C20,20 29.8,16.1 33.5,20.2 C35.4,22.3 36.8,20.1 37.4,18.2 C39,15.7 39,11.5 37.6,8.9 L37.6,8.9 Z" id="Path"></path>
            </g>
            <g id="Group" transform="translate(1.077804, 342.845778)" fill="#FFEAA9">
                <path d="M41.4,9.7 C28.5,14.1 18.8,25.4 13.3,37.9 C7.8,50.4 5.8,64.1 3.9,77.7 C3.2,82.9 4.5,88.1 5.5,93.2 C7.2,101.4 11.2,107.9 17,113.8 C33.5,130.8 51.3,144 73.9,151.2 C81.6,153.7 89.7,158.9 97.7,160.6 C120.7,165.4 142.9,171.7 166.1,175.8 C211.2,183.7 262.2,184.7 301.8,195.5 C293.8,189.4 282.8,190.2 272.7,189.8 C253.1,189 241.7,184.8 222.2,183 C212.1,182.1 194.3,180.1 184.2,179.2 C174.3,178.4 164.5,176.4 154.8,174.5 C137.1,170.9 119.4,164.4 101.8,160.1 C82.4,155.4 62.7,150.7 46.4,139.2 C33.5,130.1 23.3,119.5 15.7,105.7 C9.6,94.5 5,82 6.2,69.3 C6.9,61.9 9.6,54.6 13.9,48.6 C22.1,37.1 35.9,29.9 42.2,17.3 C43.6,14.6 44.5,13.2 42.7,10.7" id="Path"></path>
                <path d="M41.3,3.9 C29.1,7.6 20.2,15.5 13.9,26.5 C6.7,39.2 3.6,53.7 1.3,68 C-1.1,82.7 -0.2,98.6 7.4,111.8 C13.9,123.2 25,133.2 35.3,141.1 C45.8,149.3 57.4,155.9 69.9,160.4 C76.9,162.9 83.5,166.2 90.4,168.9 C97.3,171.6 104.8,172.7 112,174.3 C127.7,177.9 143.2,182 159,185.1 C174,188 189.1,190 204.3,191.8 C237,195.6 270.3,197.8 302.2,206.4 C305.7,207.3 306.6,198.4 306.6,196.9 C306.7,193.1 306.3,187.5 302.9,185.1 C291.7,177.2 276.6,179.8 263.6,178.5 C250.3,177.2 237.2,173.9 223.9,172.5 C197.6,169.8 171.2,168.2 145.5,161.8 C130.2,158 115.3,152.9 100,149.2 C86.6,146 73.2,142.7 60.7,136.7 C38.1,125.9 15.9,104 11,78.6 C8.1,63.6 20.3,53 30.2,43.9 C41.7,33.3 54,17.9 44.5,1.7 C42.1,-2.4 39.6,3.6 39.2,5.6 C38.3,10.3 38.6,15.9 41,20.1 C41.3,20.6 41.5,21 41.8,21.5 C41.1,19.4 40.5,17.3 39.8,15.2 C39.9,15.6 39.9,16 40,16.4 C40.1,13.7 40.1,10.9 40.2,8.2 C39.9,10 37.2,13 36,14.5 C34,17.1 31.6,19.4 29.2,21.6 C24.6,26 19.7,30 15.5,34.8 C5.2,46.4 0.9,61.9 1.9,77.3 C3.7,106.3 21.2,132 44.2,148.8 C55.7,157.2 69,162.2 82.6,166.1 C97.5,170.3 112.5,173.8 127.3,178.2 C142.2,182.6 157.2,186.3 172.5,188.8 C185.5,190.9 198.8,191.7 211.9,193 C226.2,194.5 240.3,196.8 254.5,199 C262.5,200.3 270.5,200.8 278.6,201 C286.4,201.2 294.2,201.5 300.8,206.2 C301,199.1 301.3,191.9 301.5,184.8 C275.7,177.8 248.9,175.3 222.4,172.5 C194.6,169.5 167.1,166.2 139.9,159.9 C125.8,156.7 111.6,153.6 97.5,150.2 C91.2,148.7 85.6,145.5 79.6,143.1 C73.6,140.6 67.3,138.9 61.3,136.1 C50,130.9 39.9,123.9 30.3,116.1 C21.3,108.7 11.6,100.5 8.9,88.7 C7.2,81.5 8.2,75.1 9.3,67.9 C10.5,60.3 12.1,52.7 15,45.5 C19.9,33 29.4,21 42,15.6 C45,14.1 43.9,3.1 41.3,3.9 L41.3,3.9 Z" id="Path"></path>
            </g>
            <path d="M186.677804,120.045778 C212.677804,133.545778 229.977804,158.445778 237.077804,186.545778 C246.077804,221.745778 238.477804,258.845778 229.577804,293.245778 C211.677804,362.045778 186.177804,429.545778 181.477804,501.045778 C179.077804,538.345778 181.777804,577.345778 195.577804,612.445778 C197.077804,616.245778 198.977804,611.445778 198.277804,609.245778 C186.777804,574.845778 182.777804,539.145778 185.077804,503.045778 C187.377804,466.845778 195.277804,431.245778 204.677804,396.345778 C214.277804,360.745778 225.677804,325.645778 234.477804,289.745778 C242.777804,256.145778 248.377804,220.545778 240.577804,186.245778 C233.777804,156.645778 216.177804,126.645778 187.177804,114.445778 C185.477804,113.745778 185.177804,119.345778 186.677804,120.045778 L186.677804,120.045778 Z" id="Path" fill="#000000"></path>
            <path d="M164.377804,137.745778 C189.477804,149.545778 206.677804,171.245778 212.977804,198.245778 C220.877804,232.445778 213.177804,269.445778 206.777804,303.245778 C200.477804,336.645778 191.577804,369.245778 182.477804,401.945778 C173.577804,434.045778 165.577804,466.445778 164.777804,499.945778 C163.777804,538.545778 170.777804,577.445778 179.577804,614.845778 C180.377804,618.245778 182.577804,615.845778 182.177804,613.445778 C176.077804,577.645778 168.077804,542.245778 168.177804,505.745778 C168.277804,470.045778 177.177804,435.345778 186.777804,401.245778 C196.277804,367.345778 205.077804,333.345778 211.277804,298.645778 C217.077804,265.845778 223.177804,231.345778 216.377804,198.245778 C210.877804,171.445778 193.477804,140.445778 164.577804,134.345778 C163.577804,134.045778 163.577804,137.445778 164.377804,137.745778 L164.377804,137.745778 Z" id="Path" fill="#000000"></path>
            <path d="M48.5778042,364.345778 C43.1778042,366.245778 38.6778042,370.945778 34.6778042,374.945778 C30.7778042,378.745778 27.0778042,382.845778 23.7778042,387.145778 C18.4778042,394.045778 14.2778042,401.845778 11.9778042,410.345778 C8.17780423,424.645778 11.4778042,439.545778 19.7778042,451.545778 C29.1778042,465.145778 43.4778042,474.945778 57.7778042,482.845778 C74.4778042,492.045778 92.3778042,499.145778 110.577804,504.845778 C119.977804,507.745778 129.477804,510.345778 139.077804,512.645778 C146.877804,514.445778 155.077804,516.745778 163.177804,517.046824 C165.677804,517.145778 165.277804,510.045778 162.977804,509.445778 C148.877804,505.645778 134.377804,503.645778 120.277804,499.545778 C103.477804,494.745778 86.8778042,488.945778 70.9778042,481.445778 C56.2778042,474.545778 41.4778042,466.245778 29.8778042,454.745778 C20.6778042,445.645778 12.6778042,433.645778 13.8778042,420.145778 C14.5778042,411.545778 18.5778042,403.445778 23.3778042,396.345778 C26.7778042,391.445778 30.5778042,386.845778 34.7778042,382.545778 C39.4778042,377.645778 45.0778042,373.345778 49.1778042,367.845778 C49.3778042,367.345778 49.5778042,363.945778 48.5778042,364.345778 L48.5778042,364.345778 Z" id="Path" fill="#000000"></path>
            <path d="M48.5778042,342.045778 C35.9778042,341.745778 24.7778042,352.445778 17.8778042,361.945778 C10.4778042,372.145778 5.67780423,384.345778 2.77780423,396.545778 C-2.12219577,417.345778 -1.02219577,439.445778 9.97780423,458.245778 C31.2778042,494.845778 77.9778042,509.445778 116.677804,518.945778 C132.677804,522.845778 148.977804,525.245778 164.977804,528.945778 C166.477804,529.245778 166.677804,523.445778 165.177804,522.945778 C153.177804,518.445778 140.077804,516.645778 127.577804,513.845778 C108.477804,509.545778 89.4778042,504.445778 71.2778042,497.045778 C53.0778042,489.645778 34.6778042,479.745778 21.1778042,465.045778 C7.47780423,450.145778 1.17780423,431.445778 3.47780423,411.345778 C4.97780423,397.945778 9.17780423,384.445778 16.1778042,372.945778 C19.7778042,366.945778 24.2778042,361.345778 29.6778042,356.845778 C35.4778042,351.945778 42.3778042,349.045778 48.8778042,345.345778 C49.5778042,344.945778 49.5778042,342.045778 48.5778042,342.045778 L48.5778042,342.045778 Z" id="Path" fill="#000000"></path>
            <path d="M182.777804,514.845778 C207.377804,518.945778 232.277804,520.645778 256.777804,525.345778 C267.877804,527.445778 278.777804,530.145778 289.677804,533.245778 C302.477804,536.845778 315.077804,542.645778 328.077804,545.145778 C329.277804,545.345778 329.077804,541.345778 328.177804,540.845778 C316.877804,534.445778 303.377804,531.045778 290.977804,527.445778 C279.877804,524.245778 268.677804,521.645778 257.277804,519.545778 C232.777804,514.945778 207.577804,512.045778 182.677804,511.445778 C181.677804,511.445778 181.777804,514.745778 182.777804,514.845778 L182.777804,514.845778 Z" id="Path" fill="#000000"></path>
            <path d="M187.077804,527.245778 C199.977804,530.545778 213.877804,530.945778 227.077804,532.545778 C236.777804,533.745778 246.477804,534.945778 256.177804,536.445778 C263.877804,537.545778 271.477804,538.845778 279.077804,540.445778 C286.277804,541.945778 293.277804,543.945778 300.477804,545.045778 C301.477804,545.145778 301.477804,541.345778 300.577804,540.945778 C286.877804,535.245778 271.177804,533.145778 256.577804,531.045778 C246.977804,529.645778 237.377804,528.445778 227.677804,527.345778 C214.377804,525.745778 200.377804,522.945778 186.977804,523.245778 C185.777804,523.245778 185.977804,527.045778 187.077804,527.245778 L187.077804,527.245778 Z" id="Path" fill="#000000"></path>
            <path d="M26.0778042,60.7457776 C34.6778042,44.2457776 48.1778042,32.6457776 64.4778042,24.1457776 C83.7778042,14.1457776 104.477804,8.14577756 126.277804,7.14577756 C146.477804,6.24577756 171.777804,6.94577756 187.877804,20.8457776 C204.677804,35.3457776 212.277804,63.0457776 201.677804,83.0457776 C196.477804,92.9457776 188.177804,100.745778 178.777804,106.645778 C168.077804,113.445778 155.977804,116.345778 144.777804,121.945778 C143.777804,122.445778 143.777804,126.645778 145.177804,126.645778 C156.677804,126.045778 169.277804,120.445778 179.077804,114.545778 C188.177804,109.045778 196.277804,101.545778 201.877804,92.4457776 C213.377804,73.5457776 211.277804,48.9457776 201.177804,29.8457776 C196.177804,20.5457776 188.977804,12.5457776 179.477804,7.74577756 C169.077804,2.54577756 157.077804,1.04577756 145.677804,0.345777564 C120.877804,-1.25422244 96.2778042,2.64577756 73.6778042,13.1457776 C52.7778042,22.8457776 33.5778042,36.1457776 24.9778042,58.3457776 C24.5778042,59.0457776 25.1778042,62.4457776 26.0778042,60.7457776 L26.0778042,60.7457776 Z" id="Path" fill="#000000"></path>
            <path d="M187.877804,108.945778 C190.877804,111.645778 193.077804,115.145778 194.277804,119.045778 C194.877804,120.945778 195.577804,118.645778 195.477804,117.745778 C194.777804,112.645778 192.377804,108.345778 188.177804,105.345778 C187.277804,104.645778 187.077804,108.245778 187.877804,108.945778 L187.877804,108.945778 Z" id="Path" fill="#000000"></path>
            <path d="M213.177804,213.845778 C210.777804,226.545778 208.577804,237.745778 196.077804,243.745778 C190.177804,246.545778 186.177804,247.345778 179.777804,245.945778 C174.377804,244.745778 168.577804,242.345778 162.977804,244.045778 C161.777804,244.445778 161.677804,248.345778 163.077804,248.345778 C169.677804,248.745778 175.977804,251.645778 182.377804,252.845778 C188.977804,254.045778 194.177804,251.645778 199.877804,248.345778 C211.277804,241.645778 214.677804,226.945778 214.477804,214.645778 C214.577804,213.745778 213.577804,211.945778 213.177804,213.845778 L213.177804,213.845778 Z" id="Path" fill="#000000"></path>
            <path d="M65.6778042,18.5457776 C46.2778042,28.3457776 29.2778042,47.1457776 19.5778042,66.4457776 C12.0778042,81.3457776 8.67780423,98.0457776 8.87780423,114.645778 C9.17780423,140.245778 17.5778042,166.345778 30.5778042,188.245778 C42.4778042,208.245778 62.0778042,232.645778 87.2778042,234.547717 C88.4778042,234.645778 88.4778042,230.845778 87.4778042,230.545778 C52.8778042,221.345778 30.4778042,187.645778 19.0778042,155.545778 C9.87780423,129.645778 7.87780423,101.245778 18.7778042,75.5457776 C22.9778042,65.6457776 28.8778042,56.5457776 35.8778042,48.3457776 C44.7778042,37.9457776 55.4778042,30.3457776 66.0778042,21.7457776 C66.6778042,21.1457776 66.5778042,18.0457776 65.6778042,18.5457776 L65.6778042,18.5457776 Z" id="Path" fill="#000000"></path>
            <path d="M72.6778042,224.145778 C66.2778042,220.845778 58.8778042,224.445778 53.3778042,228.145778 C47.5778042,231.945778 41.8778042,236.445778 37.1778042,241.545778 C27.6778042,251.645778 24.4778042,266.245778 25.2778042,279.845778 C25.9778042,292.845778 30.7778042,306.045778 40.4778042,315.145778 C49.0778042,323.245778 63.2778042,330.045778 75.1778042,325.745778 C76.4778042,325.245778 76.2778042,321.045778 74.7778042,320.945778 C69.3778042,320.445778 64.1778042,320.545778 58.9778042,319.045778 C53.9778042,317.545778 49.1778042,315.045778 44.9778042,311.945778 C34.7778042,304.145778 28.8778042,291.845778 28.2778042,279.045778 C27.6778042,266.345778 31.6778042,253.945778 40.8778042,244.945778 C45.1778042,240.745778 49.9778042,236.645778 54.9778042,233.245778 C60.6778042,229.345778 65.8778042,228.045778 72.6778042,227.945778 C73.6778042,227.745778 73.4778042,224.545778 72.6778042,224.145778 L72.6778042,224.145778 Z" id="Path" fill="#000000"></path>
            <path d="M62.6778042,322.545778 C55.6778042,323.245778 50.5778042,332.545778 48.6778042,338.445778 C45.9778042,346.445778 45.9778042,355.145778 46.9778042,363.545778 C48.5778042,376.845778 54.7778042,397.145778 69.2778042,401.545778 C70.5778042,401.945778 70.4778042,398.845778 69.8778042,398.245778 C65.1778042,394.145778 60.5778042,390.345778 57.1778042,384.945778 C53.5778042,379.245778 51.2778042,372.745778 50.0778042,366.145778 C48.7778042,358.945778 48.2778042,351.245778 49.9778042,344.145778 C51.9778042,335.745778 57.1778042,331.645778 62.9778042,326.045778 C63.4778042,325.645778 63.9778042,322.445778 62.6778042,322.545778 L62.6778042,322.545778 Z" id="Path" fill="#000000"></path>
            <path d="M19.9778042,395.145778 C17.4778042,406.845778 21.3778042,421.345778 27.0778042,431.645778 C31.8778042,440.345778 38.8778042,447.445778 46.7778042,453.445778 C69.7778042,471.145778 97.1778042,486.045778 127.077804,483.145778 C142.477804,481.645778 159.177804,476.845778 170.577804,465.745778 C171.677804,464.645778 171.17722,459.045778 169.777804,460.145778 C148.477804,476.445778 118.377804,480.345778 93.1778042,472.245778 C78.7778042,467.645778 65.6778042,459.845778 53.3778042,451.145778 C46.4778042,446.245778 39.6778042,441.245778 34.2778042,434.645778 C30.2778042,429.845778 27.1778042,424.445778 25.0778042,418.545778 C22.3778042,410.945778 22.5778042,403.345778 21.5778042,395.445778 C21.2778042,394.445778 20.3778042,393.545778 19.9778042,395.145778 L19.9778042,395.145778 Z" id="Path" fill="#000000"></path>
            <path d="M189.777804,455.945778 C206.577804,442.545778 217.077804,422.645778 223.877804,402.645778 C231.477804,380.445778 235.177804,356.845778 235.077804,333.445778 C235.077804,321.545778 234.277804,309.145778 230.977804,297.645778 C230.077804,294.545778 228.877804,298.245778 229.077804,299.745778 C233.577804,326.845778 233.077804,353.845778 226.677804,380.645778 C220.577804,406.345778 209.377804,432.945778 188.977804,450.645778 C187.777804,451.645778 188.577804,456.945778 189.777804,455.945778 L189.777804,455.945778 Z" id="Path" fill="#000000"></path>
            <path d="M187.077804,251.545778 C198.277804,254.745778 209.077804,263.245778 211.777804,274.845778 C212.377804,277.445778 213.477804,274.345778 213.277804,273.145778 C211.677804,259.745778 199.877804,249.445778 186.877804,247.645778 C185.977804,247.645778 186.077804,251.245778 187.077804,251.545778 L187.077804,251.545778 Z" id="Path" fill="#000000"></path>
            <path d="M87.2778042,233.445778 C102.177804,232.445778 116.677804,236.345778 131.077804,239.845778 C145.777804,243.345778 160.577804,246.445778 175.277804,250.145778 C175.877804,250.245778 176.177804,246.945778 175.177804,246.645778 C160.677804,242.445778 145.777804,239.445778 130.977804,236.245778 C116.477804,233.145778 102.177804,229.745778 87.2778042,231.445778 C86.6778042,231.545778 86.7778042,233.445778 87.2778042,233.445778 L87.2778042,233.445778 Z" id="Path" fill="#000000"></path>
            <path d="M188.577804,115.545778 C177.777804,111.545778 160.477804,120.945778 162.077804,133.745778 C162.577804,137.445778 165.577804,139.445778 168.577804,141.345778 C171.077804,142.945778 176.077804,146.745778 179.377804,145.445778 C180.577804,144.945778 180.177804,141.445778 179.477804,140.645778 C175.877804,136.645778 169.977804,134.545778 165.677804,131.445778 C164.377804,130.445778 165.477804,130.845778 165.277804,131.145778 C165.677804,131.945778 165.977804,131.845778 166.177804,131.045778 C166.777804,130.145778 167.477804,129.245778 168.277804,128.445778 C169.877804,126.845778 171.677804,125.445778 173.677804,124.345778 C178.377804,121.745778 183.277804,121.445778 188.477804,120.945778 C189.777804,120.845778 189.677804,116.045778 188.577804,115.545778 L188.577804,115.545778 Z" id="Path" fill="#000000"></path>
        </g>
    </g>
</svg>