<?xml version="1.0" encoding="UTF-8"?>
<svg width="80px" height="218px" viewBox="0 0 80 218" version="1.1" xmlns="http://www.w3.org/2000/svg" xmlns:xlink="http://www.w3.org/1999/xlink">
    <!-- Generator: Sketch 62 (91390) - https://sketch.com -->
    <title>3-s-4</title>
    <desc>Created with Sketch.</desc>
    <defs>
        <path d="M38.5,108 C57.0015391,108 72,121.655315 72,138.5 C72,144.466168 70.118467,150.032234 66.866166,154.733174 C66.6305066,155.073801 66.8485991,156.548011 66.9473088,157.740025 C73.786835,164.134125 78,172.869199 78,182.5 C78,202.106109 60.5391052,218 39,218 C17.4608948,218 0,202.106109 0,182.5 C0,173.245628 3.89025098,164.81833 10.2633776,158.499178 C10.2904103,157.403564 10.7745372,155.63467 10.4182093,155.137141 C6.99146131,150.352483 5,144.63798 5,138.5 C5,121.655315 19.9984609,108 38.5,108 Z" id="path-1"></path>
        <filter x="-2.6%" y="-1.8%" width="105.1%" height="103.6%" filterUnits="objectBoundingBox" id="filter-2">
            <feGaussianBlur stdDeviation="1.5" in="SourceAlpha" result="shadowBlurInner1"></feGaussianBlur>
            <feOffset dx="0" dy="1" in="shadowBlurInner1" result="shadowOffsetInner1"></feOffset>
            <feComposite in="shadowOffsetInner1" in2="SourceAlpha" operator="arithmetic" k2="-1" k3="1" result="shadowInnerInner1"></feComposite>
            <feColorMatrix values="0 0 0 0 0.639945652   0 0 0 0 0.438547879   0 0 0 0 0.352933442  0 0 0 1 0" type="matrix" in="shadowInnerInner1"></feColorMatrix>
        </filter>
        <path d="M34.8843922,35 L41.8769908,35 C45.1906993,35 47.8769908,37.6862915 47.8769908,41 C47.8769908,41.3416779 47.8478049,41.6827315 47.7897515,42.0194415 L44,64 L44,64 L32,64 L28.9406654,41.8198244 C28.4878889,38.5371947 30.7819382,35.5090497 34.0645678,35.0562732 C34.3362355,35.0188018 34.6101525,35 34.8843922,35 Z" id="path-3"></path>
        <filter x="-5.3%" y="-6.9%" width="109.5%" height="113.8%" filterUnits="objectBoundingBox" id="filter-4">
            <feGaussianBlur stdDeviation="1.5" in="SourceAlpha" result="shadowBlurInner1"></feGaussianBlur>
            <feOffset dx="0" dy="1" in="shadowBlurInner1" result="shadowOffsetInner1"></feOffset>
            <feComposite in="shadowOffsetInner1" in2="SourceAlpha" operator="arithmetic" k2="-1" k3="1" result="shadowInnerInner1"></feComposite>
            <feColorMatrix values="0 0 0 0 0.502547554   0 0 0 0 0.444203231   0 0 0 0 0.393027044  0 0 0 0.5 0" type="matrix" in="shadowInnerInner1"></feColorMatrix>
        </filter>
    </defs>
    <g id="Page-1" stroke="none" stroke-width="1" fill="none" fill-rule="evenodd">
        <g id="Artboard" transform="translate(-300.000000, -14.000000)">
            <g id="3-s-4" transform="translate(301.000000, 14.000000)">
                <g id="Combined-Shape">
                    <use fill="#CFAB7B" fill-rule="evenodd" xlink:href="#path-1"></use>
                    <use fill="black" fill-opacity="1" filter="url(#filter-2)" xlink:href="#path-1"></use>
                </g>
                <rect id="Rectangle" fill="#000000" x="23.0153846" y="191" width="31.9076923" height="3"></rect>
                <rect id="Rectangle" stroke="#979797" fill="#D8D8D8" x="32.5" y="49.5" width="11" height="95"></rect>
                <ellipse id="Oval" stroke="#B49982" fill="#000000" cx="38.5" cy="154.5" rx="14.0461538" ry="14"></ellipse>
                <g id="Rectangle">
                    <use fill="#CFAB7B" fill-rule="evenodd" xlink:href="#path-3"></use>
                    <use fill="black" fill-opacity="1" filter="url(#filter-4)" xlink:href="#path-3"></use>
                </g>
                <line x1="40.5" y1="39.5" x2="38.512986" y2="192.500084" id="Line-2" stroke="#979797" stroke-linecap="square"></line>
                <line x1="42.5" y1="39.5" x2="40.512986" y2="192.500084" id="Line-2" stroke="#979797" stroke-linecap="square"></line>
                <line x1="44.5" y1="39.5" x2="42.512986" y2="192.500084" id="Line-2" stroke="#979797" stroke-linecap="square"></line>
                <line x1="34.5" y1="39.5" x2="32.512986" y2="192.500084" id="Line-2" stroke="#979797" stroke-linecap="square"></line>
                <line x1="36.5" y1="39.5" x2="34.512986" y2="192.500084" id="Line-2" stroke="#979797" stroke-linecap="square"></line>
                <line x1="38.5" y1="39.5" x2="36.512986" y2="192.500084" id="Line-2" stroke="#979797" stroke-linecap="square"></line>
                <polyline id="Line-3" stroke="#000000" stroke-linecap="round" points="0 29.564293 0 25 78 25 78 29.564293"></polyline>
                <text id="1-meter-in-length" font-family="PTSans-Regular, PT Sans" font-size="9" font-weight="normal" fill="#000000">
                    <tspan x="6" y="18">1 meter in length</tspan>
                </text>
                <text id="Guitar" font-family="PTSans-Bold, PT Sans" font-size="9" font-weight="bold" fill="#000000">
                    <tspan x="27" y="8">Guitar</tspan>
                </text>
            </g>
        </g>
    </g>
</svg>