<?xml version="1.0" encoding="UTF-8"?>
<svg width="359px" height="148px" viewBox="0 0 359 148" version="1.1" xmlns="http://www.w3.org/2000/svg" xmlns:xlink="http://www.w3.org/1999/xlink">
    <!-- Generator: Sketch 62 (91390) - https://sketch.com -->
    <title>Group 29</title>
    <desc>Created with Sketch.</desc>
    <g id="Page-1" stroke="none" stroke-width="1" fill="none" fill-rule="evenodd">
        <g id="Group-36" transform="translate(-923.000000, -424.000000)">
            <g id="Group-29" transform="translate(923.000000, 424.000000)">
                <rect id="Rectangle" stroke="#000000" stroke-width="3" fill="#FF9EB0" x="1.5" y="1.5" width="356" height="145" rx="6"></rect>
                <path d="M79.5818211,106.13689 L79.5818211,56.8124907 L97.7596461,56.8124907 L97.7596461,46.4064127 L49,46.4064127 L49,56.8124907 L67.177825,56.8124907 L67.177825,106.13689 L79.5818211,106.13689 Z M111.795895,55.5524598 C113.633256,55.5524598 115.204039,54.9380903 116.508245,53.7093513 C117.812451,52.4806123 118.464554,51.003133 118.464554,49.2769134 C118.464554,47.5506939 117.812451,46.0729868 116.508245,44.8437921 C115.204039,43.6145974 113.630388,43 111.787291,43 C109.958987,43 108.388959,43.6143695 107.077205,44.8431085 C105.765452,46.0718475 105.109575,47.5493268 105.109575,49.2755463 C105.109575,51.0017659 105.764621,52.479473 107.074714,53.7086677 C108.384808,54.9378624 109.958534,55.5524598 111.795895,55.5524598 Z M117.931551,106.13689 L117.931551,61.339032 L105.596841,61.339032 L105.596841,106.13689 L117.931551,106.13689 Z M146.032819,107 C149.885359,107 153.298409,106.384643 156.271969,105.153929 C159.245528,103.923216 161.583438,102.200566 163.285699,99.9859799 C164.98796,97.7713939 165.844826,95.1941408 165.856298,92.2542206 C165.844826,89.019002 164.779272,86.4106849 162.659635,84.4292692 C160.539998,82.4478535 157.316315,81.0119196 152.988585,80.1214674 L152.988585,80.1214674 L144.919715,78.4882121 C142.848382,78.0370618 141.388623,77.4440346 140.540436,76.7091305 C139.692249,75.9742264 139.273892,75.0661535 139.285364,73.9849118 C139.273892,72.6551577 139.925089,71.5877391 141.238956,70.7826561 C142.552823,69.977573 144.166174,69.5750315 146.079009,69.5750315 C147.51273,69.5750315 148.748405,69.8113158 149.786034,70.2838843 C150.823663,70.7564529 151.659321,71.3874557 152.293008,72.1768928 C152.926695,72.9663299 153.344071,73.8412121 153.545136,74.8015394 L153.545136,74.8015394 L164.836482,74.1015729 C164.295478,69.9795478 162.404832,66.7247338 159.164544,64.3371309 C155.924256,61.949528 151.492823,60.7557266 145.870246,60.7557266 C142.079595,60.7557266 138.767002,61.3186012 135.932467,62.4443503 C133.097932,63.5700994 130.901085,65.1722147 129.341925,67.250696 C127.782764,69.3291774 127.00892,71.8072382 127.020392,74.6848783 C127.00892,78.0331124 128.061946,80.7883192 130.179469,82.9504988 C132.296993,85.1126784 135.533356,86.6272978 139.888559,87.4943571 L139.888559,87.4943571 L147.586092,89.0341923 C149.526099,89.4309615 150.958838,89.9929247 151.884311,90.7200817 C152.809785,91.4472388 153.278408,92.3786287 153.290182,93.5142515 C153.278408,94.8443095 152.608795,95.935121 151.281343,96.7866862 C149.95389,97.6382514 148.212081,98.064034 146.055914,98.064034 C143.845406,98.064034 142.037782,97.5925288 140.633043,96.6495183 C139.228305,95.7065078 138.338607,94.3269297 137.963949,92.5107839 L137.963949,92.5107839 L125.838003,93.1642683 C126.421575,97.4418415 128.459019,100.81719 131.950337,103.290314 C135.441654,105.763438 140.135815,107 146.032819,107 Z M191.894371,107 C195.746911,107 199.159961,106.384643 202.133521,105.153929 C205.10708,103.923216 207.44499,102.200566 209.147251,99.9859799 C210.849512,97.7713939 211.706378,95.1941408 211.71785,92.2542206 C211.706378,89.019002 210.640824,86.4106849 208.521187,84.4292692 C206.40155,82.4478535 203.177867,81.0119196 198.850136,80.1214674 L198.850136,80.1214674 L190.781267,78.4882121 C188.709934,78.0370618 187.250174,77.4440346 186.401988,76.7091305 C185.553801,75.9742264 185.135444,75.0661535 185.146916,73.9849118 C185.135444,72.6551577 185.786641,71.5877391 187.100508,70.7826561 C188.414375,69.977573 190.027726,69.5750315 191.940561,69.5750315 C193.374282,69.5750315 194.609957,69.8113158 195.647586,70.2838843 C196.685215,70.7564529 197.520873,71.3874557 198.15456,72.1768928 C198.788247,72.9663299 199.205623,73.8412121 199.406688,74.8015394 L199.406688,74.8015394 L210.698034,74.1015729 C210.15703,69.9795478 208.266384,66.7247338 205.026096,64.3371309 C201.785808,61.949528 197.354375,60.7557266 191.731798,60.7557266 C187.941147,60.7557266 184.628554,61.3186012 181.794019,62.4443503 C178.959484,63.5700994 176.762637,65.1722147 175.203476,67.250696 C173.644316,69.3291774 172.870472,71.8072382 172.881944,74.6848783 C172.870472,78.0331124 173.923498,80.7883192 176.041021,82.9504988 C178.158545,85.1126784 181.394908,86.6272978 185.750111,87.4943571 L185.750111,87.4943571 L193.447644,89.0341923 C195.38765,89.4309615 196.82039,89.9929247 197.745863,90.7200817 C198.671336,91.4472388 199.13996,92.3786287 199.151734,93.5142515 C199.13996,94.8443095 198.470347,95.935121 197.142894,96.7866862 C195.815442,97.6382514 194.073633,98.064034 191.917466,98.064034 C189.706958,98.064034 187.899334,97.5925288 186.494595,96.6495183 C185.089857,95.7065078 184.200159,94.3269297 183.825501,92.5107839 L183.825501,92.5107839 L171.699555,93.1642683 C172.283127,97.4418415 174.320571,100.81719 177.811889,103.290314 C181.303206,105.763438 185.997367,107 191.894371,107 Z M234.602733,106.720196 C237.94144,106.720196 240.775899,105.922024 243.106111,104.325681 C245.436323,102.729338 247.099865,100.61873 248.096737,97.9938551 L248.096737,97.9938551 L248.560455,97.9938551 L248.560455,106.13689 L260.408352,106.13689 L260.408352,61.339032 L248.073642,61.339032 L248.073642,87.0509538 C248.085114,89.0575853 247.689927,90.7405126 246.888082,92.0997358 C246.086237,93.458959 245.039023,94.4855918 243.74644,95.1796342 C242.453857,95.8736765 241.067459,96.2206977 239.587245,96.2206977 C237.245712,96.2206977 235.376426,95.4526788 233.979386,93.9166412 C232.582345,92.3806035 231.878089,90.2943751 231.866617,87.657956 L231.866617,87.657956 L231.866617,61.339032 L219.531907,61.339032 L219.531907,89.8745167 C219.543379,93.3585515 220.181897,96.3586251 221.44746,98.8747374 C222.713023,101.39085 224.477097,103.327454 226.739683,104.684551 C229.00227,106.041647 231.623286,106.720196 234.602733,106.720196 Z M290.549777,107 C294.2248,107 297.469919,106.435227 300.285132,105.30568 C303.100345,104.176133 305.398631,102.585715 307.179989,100.534424 C308.961348,98.4831329 310.141851,96.0730485 310.721498,93.3041704 L310.721498,93.3041704 L299.314223,92.5577217 C298.896998,93.6814961 298.278783,94.6293675 297.459579,95.4013358 C296.640374,96.1733041 295.663654,96.7556222 294.529417,97.14829 C293.39518,97.5409579 292.138222,97.7372918 290.758541,97.7372918 C288.702605,97.7372918 286.921095,97.3017875 285.414013,96.4307788 C283.90693,95.5597701 282.739937,94.3173598 281.913035,92.7035481 C281.086132,91.0897364 280.67268,89.1743983 280.67268,86.9575338 L280.67268,86.9575338 L280.672163,86.9124494 L311,86.9110516 L311,83.504639 C311,79.6976595 310.466694,76.3709197 309.400083,73.5244195 C308.333472,70.6779193 306.84956,68.3086967 304.948348,66.4167515 C303.047136,64.5248064 300.827117,63.1083159 298.288293,62.1672802 C295.749469,61.2262445 293.007692,60.7557266 290.062964,60.7557266 C285.696289,60.7557266 281.897713,61.7279023 278.667237,63.6722538 C275.436761,65.6166053 272.930768,68.3289756 271.149259,71.8093648 C269.36775,75.2897539 268.476995,79.3359798 268.476995,83.9480422 C268.476995,88.6767658 269.364806,92.7667395 271.140428,96.2179634 C272.91605,99.6691873 275.452988,102.328999 278.751241,104.1974 C282.049493,106.0658 285.982339,107 290.549777,107 Z M280.69506,79.0477702 C280.793755,77.5068716 281.204577,76.0934361 281.927526,74.8074636 C282.740843,73.3607446 283.868212,72.2008934 285.309631,71.3279099 C286.75105,70.4549265 288.405083,70.0184348 290.271728,70.0184348 C292.060784,70.0184348 293.636474,70.4141407 294.998795,71.2055525 C296.361117,71.9969643 297.429615,73.0839024 298.204289,74.4663667 C298.978964,75.8488309 299.372188,77.4305153 299.383962,79.2114197 L299.383962,79.2114197 L280.688486,79.2128175 L280.69506,79.0477702 Z" id="Tissue" fill="#000000" fill-rule="nonzero"></path>
            </g>
        </g>
    </g>
</svg>