<?xml version="1.0" encoding="UTF-8"?>
<svg width="1922px" height="1082px" viewBox="0 0 1922 1082" version="1.1" xmlns="http://www.w3.org/2000/svg" xmlns:xlink="http://www.w3.org/1999/xlink">
    <!-- Generator: Sketch 62 (91390) - https://sketch.com -->
    <title>Artboard</title>
    <desc>Created with Sketch.</desc>
    <defs>
        <linearGradient x1="7.18436141%" y1="75.0049031%" x2="92.8878437%" y2="25.1213196%" id="linearGradient-1">
            <stop stop-color="#FFFFFF" stop-opacity="0" offset="12%"></stop>
            <stop stop-color="#FFFFFF" offset="44%"></stop>
        </linearGradient>
    </defs>
    <g id="Artboard" stroke="none" stroke-width="1" fill="none" fill-rule="evenodd">
        <g id="Group-40" fill="#FFFFFF" fill-rule="nonzero">
            <g id="Layer_3">
                <polygon id="Path" points="1921.5 1081.5 0 1081.5 0 0 1920.5 0"></polygon>
            </g>
        </g>
        <path d="M2.27373675e-13,450.088941 C29.4549794,392.782741 76.820015,369.753094 142.095107,381 C218.07436,394.091234 297.287427,508.019184 364.409253,511.918039 C480.625577,518.668609 453.910993,418.819008 538.191758,423.110287 C622.472524,427.401566 627.568401,467.946589 667.429722,467.946589 C780.023908,467.946589 799.569671,481.210423 1245.34485,492.371823 C1297.57858,493.67966 1319.34317,396 1415.47531,396 C1511.60745,396 1539.74268,468.051754 1601.56525,463.747025 C1665.60729,459.287755 1689.33967,381.172209 1766.1028,356.213933 C1798.94823,345.534779 1850.7473,345.534779 1921.5,356.213933" id="Line" stroke="#000000" stroke-width="3" stroke-linecap="square" transform="translate(960.750000, 430.225124) scale(-1, 1) translate(-960.750000, -430.225124) "></path>
        <path d="M-1.13686838e-13,222.688201 C28.0892686,227.527985 150.639548,191.093023 221.86,194.888378 C293.080452,198.683733 506.15354,245.691418 569.652955,287.361437 C649.630684,339.844967 657.751192,423.110287 676.155147,423.110287 C759.189912,423.110287 817.262158,414.32724 964.580607,424.760331 C1017.02428,428.474391 997.167688,452.43442 1114.19732,455.364629 C1166.43104,456.672466 1291.53067,287.361437 1387.66281,287.361437 C1483.79496,287.361437 1476.817,316.121768 1556.65905,316.121768 C1634.99491,316.121768 1685.69878,184.462078 1814.53475,184.462078 C1860.36517,184.462078 1910.44949,203.219139 1964.7877,240.73326" id="Line" stroke="#000000" stroke-width="3" stroke-linecap="square"></path>
        <path d="M-70,823.256018 C-3.20814125,707.342495 62.825334,655.009187 128.100426,666.256092 C204.079679,679.347326 245.201266,755.162867 326.419998,755.162867 C418.752242,755.162867 412.937182,693.761515 497.217948,698.052793 C581.498713,702.344072 617.756285,648.352328 657.617606,648.352328 C738.868785,648.352328 790.012682,669.235985 993.380176,661.297982 C1071.8301,658.235861 1227.84662,656.71595 1351.9377,659.822965 C1404.17143,661.130803 1490.20122,724.994958 1628.63244,715.094328 C1696.90331,710.21158 1723.20973,647.205625 1792.82795,653.245179 C1862.44616,659.284733 1875.71258,735.804173 1926,735.804173" id="Line" stroke="#000000" stroke-width="3" stroke-linecap="square"></path>
        <path d="M0,670.022039 C64.4463545,598.264502 128.160957,568.009187 191.143809,579.256092 C264.454927,592.347326 304.132463,668.162867 382.499068,668.162867 C471.588916,668.162867 465.978061,606.761515 547.299171,611.052793 C628.620281,615.344072 636.732718,622.946716 675.194244,622.946716 C753.592157,622.946716 825.900416,659.960169 1022.12633,652.022166 C1097.82136,648.960045 1252.27064,569.71595 1372.00406,572.822965 C1422.40351,574.130803 1462.0137,622.946716 1520.15665,622.946716 C1578.2996,622.946716 1570.63699,553.259229 1704.20697,543.358598 C1828.52435,534.1438 1822.78888,592.26141 1926,592.26141" id="Line" stroke="#000000" stroke-width="3" stroke-linecap="square" transform="translate(963.000000, 606.195101) scale(-1, 1) translate(-963.000000, -606.195101) "></path>
        <path d="M-24.6658609,466 C39.4662288,420.365344 103.538042,404.643653 167.549579,418.834927 C242.058073,435.353362 274.464516,524.596544 354.111066,524.596544 C444.656,524.596544 443.256362,484.234715 525.905673,489.649423 C608.554983,495.064131 615.431803,585.091766 654.521513,585.091766 C764.93617,585.091766 766.090036,503.713682 1203.23618,517.797064 C1254.45879,519.447285 1358.26798,498.894942 1417.36056,498.894942 C1476.45315,498.894942 1497.25074,591.35236 1575.54725,591.35236 C1631.24138,591.35236 1635.96237,521.840338 1740.85922,521.840338 C1781.43825,521.840338 1841.81851,541.400319 1922,580.520281" id="Line" stroke="#000000" stroke-width="3" stroke-linecap="square"></path>
        <g id="CenterLogo" transform="translate(582.000000, 381.000000)">
            <rect id="Rectangle" stroke="#000000" stroke-width="4" fill="#FFFFFF" x="2" y="2" width="754" height="316"></rect>
            <g id="hra-logo-with-text-black" transform="translate(34.000000, 15.000000)" fill-rule="nonzero">
                <path d="M281.354988,141.392965 C281.354988,63.3034071 218.371116,0 140.677494,0 C62.9838719,0 0,63.3034071 0,141.392965 L0,148.607035 C0,226.696593 62.9838719,290 140.677494,290 C218.371116,290 281.354988,226.696593 281.354988,148.607035 L281.354988,141.392965 Z" id="Path" fill="#FF0043"></path>
                <path d="M258.576493,96.4425309 C252.174524,81.2210629 243.012026,67.5525961 231.342517,55.8138102 C219.673008,44.0750244 206.080347,34.8585798 190.947373,28.4228815 C175.276634,21.7570612 158.632795,18.3746556 141.476798,18.3746556 C124.320802,18.3746556 107.676963,21.75449 92.0062231,28.4228815 C76.8719685,34.861151 63.2831492,44.0775956 51.609799,55.8138102 C39.9390095,67.5500249 30.7777919,81.2210629 24.3783838,96.4425309 C17.7510655,112.20395 14.387471,128.943708 14.387471,146.19899 C14.387471,163.454272 17.7472243,180.19403 24.3783838,195.955449 C30.7803527,211.175631 39.9428507,224.845384 51.6110794,236.58417 C63.279308,248.320384 76.8732489,257.5394 92.0062231,263.975098 C107.678243,270.640919 124.320802,274.022039 141.476798,274.022039 C158.632795,274.022039 175.276634,270.64349 190.947373,263.975098 C206.080347,257.535543 219.674288,248.320384 231.342517,236.58417 C243.012026,224.845384 252.177085,211.175631 258.576493,195.955449 C265.203811,180.19403 268.566125,163.454272 268.566125,146.19899 C268.566125,128.943708 265.206372,112.20395 258.576493,96.4425309 M259.876093,145.032953 L230.706161,145.032953 C230.679199,142.782341 230.568154,140.533536 230.373259,138.291283 L253.248774,135.963067 C253.725594,135.912437 254.071904,135.484256 254.023413,135.005297 C254.000787,134.774952 253.887711,134.563144 253.709186,134.416704 C253.530662,134.270265 253.301396,134.201257 253.07208,134.22494 L230.205527,136.554442 C228.911913,124.171889 225.044108,112.199847 218.852275,101.412649 L244.073472,86.8031249 C253.942748,103.982557 259.669949,123.854029 259.872251,145.032953 L259.876093,145.032953 Z M23.0787841,145.032953 C23.1428038,138.437841 23.7407477,131.970003 24.8329236,125.671863 L53.5175857,130.895244 C52.7262196,135.567157 52.3015302,140.294263 52.2474351,145.032953 L23.0787841,145.032953 Z M56.383107,131.417196 L82.4698502,136.170048 C81.9800555,139.100104 81.7061619,142.062441 81.6503981,145.032953 L55.1462466,145.032953 C55.2064251,140.399662 55.6289551,135.852506 56.3882286,131.417196 L56.383107,131.417196 Z M179.637655,187.088687 L170.394492,176.117402 C172.069537,174.479363 173.604976,172.703314 174.984704,170.807887 L186.994797,178.606318 C184.829181,181.672176 182.364619,184.513676 179.637655,187.088687 M97.8294541,181.106804 L109.022657,172.20276 C110.151055,173.622342 111.369082,174.967702 112.669218,176.230535 L103.079069,186.870135 C101.199041,185.072759 99.4449896,183.147059 97.8294541,181.106804 M104.560484,104.163826 L113.789563,115.117112 C107.301807,120.970435 102.647576,128.84086 100.819174,137.738476 L86.764291,135.177567 C89.1983196,122.93997 95.6002885,112.129385 104.557924,104.162541 L104.560484,104.163826 Z M168.60066,160.667098 L171.769635,162.308805 C170.16587,165.343574 168.122279,168.122472 165.70569,170.554624 L160.788978,164.721871 C165.185109,159.985743 167.74923,153.827091 168.018081,147.358598 L175.728613,147.358598 C175.577389,151.99118 174.493297,156.545023 172.541712,160.745519 L169.393224,159.112811 C168.971457,158.923959 168.476209,159.098594 168.264665,159.510767 C168.05312,159.92294 168.19888,160.429246 168.596819,160.664527 L168.60066,160.667098 Z M110.310733,160.544966 L126.517957,152.785103 C128.562628,157.459944 132.64971,160.919333 137.584401,162.151963 L134.444875,179.942053 C123.69853,177.680688 114.78827,170.342501 110.310733,160.544966 M118.466841,120.667034 L122.911088,125.941839 C118.713285,129.71882 115.798507,134.720603 114.575725,140.24539 L107.947126,139.036929 C109.44786,131.956716 113.129074,125.530016 118.469402,120.667034 L118.466841,120.667034 Z M114.574444,142.0208 C114.799909,142.062248 115.0325,142.010814 115.219763,141.878099 C115.52665,141.83746 115.772917,141.60367 115.83051,141.298294 C116.882892,135.798186 119.69769,130.794483 123.845776,127.050023 L130.077452,134.446063 C127.208717,137.25302 125.467923,141.021003 125.186348,145.032953 L107.219862,145.032953 C107.269798,143.584086 107.405519,142.154502 107.628308,140.754487 L114.574444,142.0208 Z M154.783931,157.595807 C154.486458,157.240969 154.006695,157.098783 153.564996,157.234554 C156.029161,154.511687 157.508523,151.035096 157.764688,147.365026 L166.573797,147.365026 C166.305029,153.405089 163.924956,159.156865 159.851729,163.609829 L154.786492,157.598378 L154.783931,157.595807 Z M128.905892,146.200276 C128.905892,139.228483 134.546027,133.556429 141.476798,133.556429 C148.40885,133.556429 154.048985,139.228483 154.048985,146.200276 C154.048985,153.172068 148.40885,158.845407 141.476798,158.845407 C134.546027,158.845407 128.905892,153.172068 128.905892,146.200276 M157.764688,145.035525 C157.593246,142.570849 156.866948,140.17738 155.640514,138.035449 L163.315195,133.591141 C165.282423,137.095641 166.398837,141.016549 166.573797,145.035525 L157.764688,145.035525 Z M155.032327,137.04554 C152.095104,132.66294 147.116933,129.771632 141.476798,129.771632 C138.011597,129.76847 134.636435,130.879474 131.845676,132.941914 L125.638327,125.578015 C130.063768,122.241388 135.448339,120.437282 140.982566,120.436912 C150.141223,120.436912 158.19362,125.297755 162.722372,132.589661 L155.029766,137.04554 L155.032327,137.04554 Z M125.188909,147.365026 C125.296462,148.875603 125.602476,150.330899 126.089026,151.705202 L109.849791,159.483063 C108.249509,155.637631 107.360063,151.531731 107.224984,147.366312 L125.188909,147.365026 Z M138.71883,162.389798 C143.831436,163.27574 149.058108,161.657949 152.786517,158.035481 C152.683083,158.408161 152.769838,158.808083 153.018268,159.103812 L158.205143,165.260536 C154.846951,168.338346 150.73211,170.461374 146.284677,171.410832 C146.182292,171.400923 146.079295,171.421965 145.988906,171.471255 C144.341188,171.800649 142.665185,171.966433 140.985127,171.96621 C140.584885,171.96621 140.260424,172.291989 140.260424,172.693858 C140.260424,173.095726 140.584885,173.421505 140.985127,173.421505 C142.61261,173.422707 144.236841,173.275545 145.837819,172.981831 L147.132298,180.204315 C143.307496,180.846 139.402036,180.832089 135.581865,180.163176 L138.71883,162.389798 Z M146.969688,172.749138 C151.506727,171.712259 155.699336,169.514207 159.139831,166.368721 L164.013009,172.152621 C159.534679,176.099948 154.106501,178.80335 148.266726,179.994763 L146.967127,172.746567 L146.969688,172.749138 Z M168.020642,145.039381 C167.844552,140.764681 166.66155,136.59281 164.5687,132.866064 L171.190897,129.029843 C173.991591,133.910659 175.551006,139.409336 175.731173,145.039381 L168.020642,145.039381 Z M163.978439,131.864584 C159.197448,124.136861 150.680269,118.982902 140.985127,118.982902 C134.933986,118.982902 129.269524,121.007718 124.703639,124.465973 L120.235065,119.165457 C126.272142,114.343003 133.760958,111.721306 141.475518,111.729545 C153.749373,111.729545 164.537971,118.252683 170.592953,128.036076 L163.978439,131.864584 Z M175.221577,121.915349 L186.985835,113.780091 C187.778083,114.901971 188.52932,116.052488 189.238047,117.229348 L176.863041,124.399122 C176.345033,123.552147 175.79754,122.723712 175.221577,121.915349 M174.179336,120.515334 C170.989919,116.417433 167.070879,112.949327 162.621221,110.287125 L169.742772,97.842546 C176.036998,101.581578 181.544031,106.517961 185.955118,112.374934 L174.179336,120.519191 L174.179336,120.515334 Z M161.110357,109.425775 C155.417073,106.33778 149.079809,104.638686 142.611227,104.465941 L142.562572,90.1006811 C151.549299,90.2669576 160.360655,92.6271129 168.235748,96.9773392 L161.110357,109.424489 L161.110357,109.425775 Z M140.296275,104.468513 C133.662914,104.65049 127.171535,106.438926 121.374616,109.681608 L114.206971,97.2640273 C122.16517,92.7553191 131.111888,90.2964353 140.24762,90.1071091 L140.296275,104.471084 L140.296275,104.468513 Z M119.875274,110.562242 C118.373237,111.488531 116.930401,112.508288 115.555226,113.615535 L106.326147,102.662249 C108.346612,101.00913 110.478895,99.4987823 112.70763,98.14209 L119.875274,110.559671 L119.875274,110.562242 Z M100.505477,139.463747 C100.207886,141.30905 100.032089,143.172083 99.9792353,145.040667 L85.6977229,145.040667 C85.7527799,142.275348 86.010139,139.558882 86.4531553,136.904124 L100.502916,139.463747 L100.505477,139.463747 Z M99.9792353,147.368883 C100.126481,152.76839 101.298041,157.912064 103.308259,162.616063 L90.4108525,168.792071 C87.4452536,162.033956 85.843753,154.752473 85.6990033,147.368883 L99.9817961,147.368883 L99.9792353,147.368883 Z M103.779444,163.677966 C104.93782,166.1921 106.341595,168.584727 107.970173,170.820743 L96.7667273,179.731215 C94.4766755,176.647295 92.5073876,173.335872 90.8897198,169.848832 L103.779444,163.677966 Z M113.945771,177.422283 C119.392816,182.301081 126.028863,185.645451 133.179846,187.115684 L130.685639,201.255965 C120.703689,199.280003 111.671791,194.619714 104.360743,188.055456 L113.948332,177.422283 L113.945771,177.422283 Z M134.316836,187.330379 C138.979499,188.148141 143.74694,188.161184 148.413972,187.368947 L150.946591,201.504085 C147.818699,202.044284 144.650623,202.315672 141.476798,202.315297 C138.250206,202.315297 134.959594,202.024752 131.822629,201.471945 L134.316836,187.330379 Z M149.550961,187.159395 C156.644314,185.7425 163.243585,182.482648 168.690288,177.705115 L177.919366,188.655829 C170.558862,195.068497 161.649521,199.42689 152.08358,201.294533 L149.550961,187.159395 Z M175.983411,169.386017 C176.787316,168.180387 177.527137,166.9329 178.199773,165.648786 L190.889755,172.227186 C190.002442,173.924258 189.029796,175.574951 187.975579,177.172877 L175.983411,169.386017 Z M178.980813,164.088072 C181.458555,158.854794 182.818027,153.158769 182.9718,147.366312 L197.254593,147.366312 C197.095257,155.447116 195.193311,163.39722 191.679758,170.669042 L178.983374,164.088072 L178.980813,164.088072 Z M182.9718,145.03681 C182.954908,144.400647 182.923317,143.764962 182.877051,143.13027 L197.085581,141.683973 C197.173501,142.793015 197.229839,143.910627 197.254593,145.03681 L182.9718,145.03681 Z M182.71188,141.393428 C182.067349,135.757284 180.279426,130.313524 177.458425,125.398031 L189.828309,118.232114 C193.658131,124.901426 196.071926,132.294356 196.917849,139.945846 L182.71188,141.393428 Z M193.337868,116.197014 L216.303011,102.894942 C222.293788,113.319136 226.047559,124.885888 227.323361,136.8527 L200.949809,139.535741 C200.048483,131.311067 197.456484,123.363821 193.337868,116.197014 M192.747607,115.195534 C191.985095,113.924166 191.176191,112.681436 190.322541,111.469874 L212.158377,96.371823 C213.412665,98.1654402 214.598319,100.006469 215.71275,101.890891 L192.747607,115.192962 L192.747607,115.195534 Z M189.298226,110.062145 C184.539858,103.706764 178.581485,98.3545443 171.763233,94.3110111 L184.983299,71.211405 C195.224929,77.2515062 204.127405,85.3317752 211.143024,94.9550952 L189.295665,110.060859 L189.298226,110.062145 Z M170.254929,93.44709 C161.7619,88.7370665 152.248275,86.1896431 142.547207,86.0279099 L142.45758,59.364629 C156.832238,59.510186 170.939242,63.2858082 183.478836,70.343627 L170.254929,93.44709 Z M140.232255,86.0291955 C130.387061,86.2249346 120.744709,88.8747112 112.172425,93.7402061 L98.8640123,70.6868814 C111.448085,63.4692133 125.650286,59.5753605 140.141347,59.3697714 L140.232255,86.0291955 Z M110.673084,94.6195544 C108.238061,96.0968761 105.910442,97.7457187 103.707742,99.5536755 L86.5696711,79.2193884 C89.9698495,76.3987696 93.5785708,73.8416414 97.3646712,71.5700865 L110.673084,94.6195544 Z M101.940799,101.060395 C92.2815078,109.627613 85.3853068,121.273836 82.7797055,134.460204 L56.6955231,129.706067 C60.4176279,110.323121 70.5621879,93.2169681 84.8091296,80.7273937 L101.940799,101.060395 Z M81.6478374,147.368883 C81.7922544,155.358394 83.5270854,163.238164 86.7502066,170.544339 L62.8081231,182.006722 C57.8921875,171.117974 55.2805908,159.323285 55.1385643,147.368883 L81.6478374,147.368883 M87.2303543,171.603671 C88.9795768,175.365681 91.110313,178.936652 93.5887899,182.259985 L72.8041574,198.794047 C69.0911458,193.901187 65.9044154,188.627424 63.2972335,183.060911 L87.2277935,171.6011 L87.2303543,171.603671 Z M94.6540775,183.643287 C96.4080444,185.859751 98.3149803,187.949709 100.360793,189.897716 L82.5633189,209.639343 C79.4384352,206.702838 76.533455,203.538977 73.8720059,200.173493 L94.6540775,183.643287 Z M101.639906,191.076608 C109.504085,198.147392 119.229956,203.162505 129.976301,205.273456 L125.342556,231.527917 C109.58475,228.520905 95.328845,221.191717 83.8424323,210.818235 L101.639906,191.076608 Z M131.115852,205.48815 C134.482007,206.082096 137.946752,206.393211 141.479359,206.393211 C145.013246,206.393211 148.356354,206.091095 151.667452,205.517719 L156.366498,231.758039 C146.478344,233.490233 136.365622,233.484143 126.479546,231.74004 L131.113291,205.48815 L131.115852,205.48815 Z M152.804442,205.308167 C163.070976,203.312576 172.634867,198.64287 180.537772,191.766974 L197.66816,212.096119 C186.413499,221.817803 172.651826,228.679034 157.504768,231.548486 L152.804442,205.308167 Z M182.259901,190.210116 C185.287831,187.372319 188.015875,184.228223 190.400645,180.82783 L197.824368,185.648818 C198.017288,185.775019 198.252436,185.818579 198.477507,185.769809 C198.702577,185.721039 198.898904,185.583983 199.022817,185.389128 C199.28277,184.983948 199.167076,184.443957 198.764177,184.181952 L191.378866,179.387961 C192.505494,177.67914 193.54481,175.913877 194.492784,174.099015 L218.05331,186.309615 C213.307856,195.431594 206.995492,203.640593 199.406935,210.558545 L182.262462,190.210116 L182.259901,190.210116 Z M195.280226,172.540872 C199.091571,164.692226 201.148084,156.101909 201.305759,147.371454 L227.812471,147.371454 C227.656466,160.349949 224.589953,173.126354 218.840752,184.751471 L195.280226,172.5383 L195.280226,172.540872 Z M201.305759,145.043238 C201.282019,143.786836 201.219249,142.531483 201.117541,141.27901 L227.491092,138.59597 C227.676323,140.724061 227.783449,142.873151 227.812471,145.043238 L201.305759,145.043238 Z M141.476798,27.1154294 C184.861661,27.1154294 222.872712,50.7074191 243.494734,85.8055016 L218.273537,100.415025 C217.117778,98.4631739 215.88988,96.5553061 214.592405,94.6954046 L234.265656,81.0937888 C234.521594,80.9174178 234.664379,80.617348 234.640224,80.3066129 C234.616069,79.9958778 234.428645,79.7216854 234.148553,79.5873214 C233.86846,79.4529573 233.538252,79.4788347 233.282314,79.6552058 L213.577053,93.281248 C210.850522,89.5427792 207.844431,86.0181969 204.584847,82.7380673 C199.16864,77.2817691 193.077081,72.5463356 186.459593,68.6479247 L198.348049,47.8701066 C198.503579,47.6002681 198.50392,47.2676157 198.348944,46.9974563 C198.193968,46.727297 197.907219,46.5606742 197.596712,46.5603534 C197.286206,46.5600325 196.999116,46.7260622 196.843587,46.9959007 L184.951289,67.7737187 C172.087173,60.5358079 157.567507,56.6173083 142.449897,56.4566087 L142.367952,32.2912427 C142.365841,31.6504774 141.84865,31.1317596 141.210476,31.1303487 L141.207915,31.1303487 C140.567719,31.1303487 140.053,31.6535866 140.053,32.2976707 L140.133665,56.4591799 C124.905942,56.6841594 110.296648,60.7183626 97.3864379,68.1195443 L85.1894066,46.9920439 C85.0336481,46.7226647 84.7465908,46.557182 84.4363665,46.5579314 C84.1261422,46.5586808 83.8398813,46.7255485 83.6854155,46.9956771 C83.5309498,47.2658057 83.5317461,47.5981563 83.6875047,47.8675354 L95.8858163,69.0001782 C91.9514076,71.3631333 88.203365,74.0257052 84.6746883,76.9644514 L65.8580211,54.6284898 C86.3827336,37.4529145 112.753724,27.110287 141.479359,27.110287 L141.476798,27.1154294 Z M64.0897973,56.1429231 L82.9103056,78.477599 C81.3492113,79.8456762 79.8344986,81.2662107 78.3687489,82.7367817 C65.5750541,95.6056073 57.1475021,111.696139 53.827441,129.186685 L25.1414985,123.959448 C30.2118579,97.0814726 44.2885073,73.3724935 64.0910777,56.1416375 M23.0800645,147.370169 L52.2487155,147.370169 C52.4087647,159.956163 55.1257603,172.129481 60.1551471,183.280749 L33.8661018,195.866743 C27.0915382,181.074664 23.2452353,164.657591 23.0800645,147.370169 M34.3552122,196.923503 L60.639136,184.34008 C63.3373998,190.108357 66.6425522,195.570228 70.4981682,200.632451 L51.5829107,215.677792 C51.3395523,215.870927 51.2172993,216.17975 51.2622034,216.487928 C51.3071075,216.796107 51.5123465,217.056823 51.800609,217.171866 C52.0888715,217.286909 52.4163635,217.238802 52.6597219,217.045667 L71.5660166,202.006754 C73.688846,204.689578 75.9604457,207.250255 78.3700292,209.676625 C79.0998537,210.410701 79.8399213,211.120351 80.5889517,211.824858 L63.8234754,230.419732 C63.5930482,230.675671 63.5340935,231.043746 63.6729815,231.35932 C63.8118695,231.674893 64.1226191,231.878932 64.466233,231.88017 C64.7109077,231.879943 64.9441952,231.776357 65.1089907,231.594768 L81.8655043,213.010178 C94.0983866,224.079168 108.884374,231.403214 124.830398,234.412796 L119.734431,263.284733 C81.9026357,256.197237 50.3409287,230.957112 34.3475298,196.924789 L34.3552122,196.923503 Z M120.879103,263.492999 L125.97251,234.623634 C131.091987,235.518874 136.278978,235.967935 141.475518,235.965797 C146.727693,235.965797 151.841586,235.517124 156.879935,234.641633 L162.048885,263.495571 C155.256445,264.696692 148.372493,265.299786 141.475518,265.297982 C134.46024,265.297982 127.570441,264.67832 120.875262,263.492999 L120.879103,263.492999 Z M163.189716,263.289875 L158.020766,234.43208 C173.353482,231.5562 187.611947,224.694969 199.568265,214.353627 L209.184022,225.765871 C209.382298,226.000855 209.665446,226.1471 209.97114,226.172417 C210.276834,226.197734 210.58002,226.100047 210.813963,225.900859 C211.300304,225.483779 211.360881,224.751036 210.949685,224.259152 L201.304479,212.810911 C202.418421,211.797003 203.51017,210.751813 204.579726,209.67534 C211.027282,203.203735 216.453714,195.782301 220.671715,187.667205 L225.79329,190.321963 C225.923037,190.387957 226.055344,190.420097 226.190212,190.418383 C226.591696,190.418155 226.940971,190.142311 227.035769,189.750594 C227.130567,189.358878 226.946307,188.952863 226.589695,188.767676 L221.464279,186.110347 C227.350249,174.201863 230.537149,161.030922 230.707442,147.370169 L259.877373,147.370169 C259.324243,205.062618 217.780586,253.069379 163.189716,263.286018 L163.189716,263.289875 Z" id="Shape" fill="url(#linearGradient-1)"></path>
                <path d="M379.546353,28.7603306 L379.546353,79.4162645 L373.826721,79.4162645 L373.826721,56.3475756 L344.080018,56.3475756 L344.080018,79.4175507 L338.360385,79.4175507 L338.360385,28.7603306 L344.080018,28.7603306 L344.080018,50.8784892 L373.826721,50.8784892 L373.826721,28.7603306 L379.546353,28.7603306 Z M423.169125,41.297298 L423.169125,79.4162645 L417.653308,79.4162645 L417.653308,73.3002001 C415.452365,77.3441341 410.545428,80.2999104 405.165486,80.2999104 C396.806517,80.2999104 390.91768,74.183846 390.91768,65.5544713 L390.91768,41.2960118 L396.433497,41.2960118 L396.433497,64.8071667 C396.433497,70.9901156 400.325206,75.3388882 405.908962,75.3388882 C412.305413,75.3388882 417.653308,70.8537743 417.653308,65.5197429 L417.653308,41.2612833 L423.169125,41.2612833 L423.169125,41.297298 Z M488.958998,55.1578049 L488.958998,79.4162645 L483.441899,79.4162645 L483.441899,55.907682 C483.441899,49.7234469 479.855271,45.3746743 474.711191,45.3746743 C468.686478,45.3746743 464.423031,49.4186084 464.423031,55.1938196 L464.423031,79.4522792 L458.907214,79.4522792 L458.907214,55.939838 C458.907214,49.7568891 455.319305,45.4081165 450.175225,45.4081165 C444.151793,45.4081165 439.887065,49.4507643 439.887065,55.2272618 L439.887065,79.4857214 L434.404575,79.4857214 L434.404575,41.297298 L439.921675,41.297298 L439.921675,46.9027257 C441.816255,42.9282485 445.945107,40.4136521 450.919982,40.4136521 C456.639614,40.4136521 461.140203,43.572654 463.17066,48.5336762 C464.726831,43.6073825 469.701706,40.4136521 475.421338,40.4136521 C483.37396,40.4136521 488.958998,46.5297165 488.958998,55.1590911 M530.956379,56.1777921 L530.956379,79.3828223 L525.440562,79.3828223 L525.440562,73.4030991 C522.733286,77.8882131 517.081592,80.2664682 512.073389,80.2664682 C504.086157,80.2664682 498.19732,75.6115708 498.19732,68.1037962 C498.19732,60.527851 504.965509,55.4304875 513.088617,55.4304875 C517.217469,55.4304875 521.548853,56.3141334 525.440562,57.5707885 L525.440562,56.1777921 C525.440562,51.0135442 523.376777,45.1354339 515.152402,45.1354339 C511.328632,45.1354339 507.503579,46.8345551 504.052829,48.6018469 L501.851885,44.116733 C507.301046,41.3989108 511.836246,40.446967 515.52414,40.446967 C525.880238,40.4136521 530.956379,46.9708964 530.956379,56.1777921 M525.440562,67.4581044 L525.440562,61.6481648 C521.713714,60.6190438 517.866683,60.0934801 514.001297,60.0853849 C508.349603,60.0853849 503.578543,63.3138437 503.578543,67.8992843 C503.578543,72.6223523 507.672784,75.4083451 513.054007,75.4083451 C518.028882,75.4417873 523.985658,72.8603065 525.440562,67.4581044 M574.512495,55.1578049 L574.512495,79.4162645 L568.995396,79.4162645 L568.995396,55.907682 C568.995396,49.7234469 565.103687,45.3746743 559.519931,45.3746743 C553.12348,45.3746743 547.776867,49.8597882 547.776867,55.1938196 L547.776867,79.4522792 L542.259768,79.4522792 L542.259768,41.297298 L547.776867,41.297298 L547.776867,47.4120762 C549.976529,43.3694283 554.883466,40.4136521 560.264688,40.4136521 C568.623658,40.4136521 574.512495,46.5297165 574.512495,55.1590911 M363.674437,149.13554 L376.737811,167.855457 L370.205483,167.855457 L357.413863,149.644891 L344.045408,149.644891 L344.045408,167.855457 L338.327057,167.855457 L338.327057,117.232965 L358.800829,117.232965 C369.224865,117.232965 377.380176,123.925264 377.380176,133.438285 C377.41463,141.423254 371.694998,147.471148 363.674437,149.13554 M344.080018,144.209247 L357.82021,144.209247 C366.043304,144.209247 371.627059,140.233483 371.627059,133.438285 C371.627059,126.643086 366.043304,122.668609 357.82021,122.668609 L344.080018,122.668609 L344.080018,144.209247 Z M414.946032,159.26081 L418.330127,162.860992 C415.012689,166.46246 408.345766,168.773831 403.067092,168.773831 C392.948136,168.773831 383.84441,160.449295 383.84441,148.727803 C383.84441,137.37932 392.372584,128.886286 402.559477,128.886286 C413.99746,128.886286 420.563116,137.583832 420.563116,150.936274 L389.496104,150.936274 C390.308799,158.377165 395.519535,163.846251 402.999153,163.846251 C407.466414,163.812809 412.575884,161.842291 414.946032,159.26081 M389.529432,145.975252 L415.080627,145.975252 C414.33587,139.113169 410.309566,133.81258 402.728682,133.81258 C395.993821,133.81258 390.57927,138.602533 389.529432,145.975252 M438.127079,129.768646 L447.467949,129.768646 L447.467949,134.696226 L438.127079,134.696226 L438.127079,167.855457 L432.611262,167.855457 L432.611262,134.696226 L426.654486,134.696226 L426.654486,129.768646 L432.611262,129.768646 L432.611262,124.537514 C432.611262,118.862629 436.435032,114.819981 441.849583,114.819981 C444.403281,114.819981 446.882802,115.681627 448.889525,117.266407 L446.18225,121.309055 C445.369554,120.425409 443.91465,119.746275 442.222603,119.746275 C440.022941,119.746275 438.093751,121.751521 438.093751,124.537514 L438.093751,129.768646 L438.127079,129.768646 Z M484.390471,159.26081 L487.774565,162.860992 C484.457127,166.46246 477.790205,168.773831 472.51153,168.773831 C462.392575,168.773831 453.288848,160.449295 453.288848,148.727803 C453.288848,137.37932 461.817022,128.886286 472.003916,128.886286 C483.441899,128.886286 490.007555,137.583832 490.007555,150.936274 L458.940542,150.936274 C459.753237,158.377165 464.963974,163.846251 472.443592,163.846251 C476.910853,163.812809 482.054933,161.842291 484.390471,159.26081 M459.00848,145.975252 L484.559675,145.975252 C483.814918,139.113169 479.787333,133.81258 472.206449,133.81258 C465.471588,133.81258 460.023709,138.602533 459.00848,145.975252 M519.720929,128.886286 L519.720929,133.81258 C511.124817,133.81258 505.033447,139.113169 505.033447,146.552773 L505.033447,167.855457 L499.517629,167.855457 L499.517629,129.769932 L505.033447,129.769932 L505.033447,137.209536 C507.301046,132.113459 512.750208,128.886286 519.720929,128.886286 M556.439636,159.26081 L559.825013,162.860992 C556.507574,166.46246 549.840652,168.773831 544.561977,168.773831 C534.443022,168.773831 525.339295,160.449295 525.339295,148.727803 C525.339295,137.37932 533.86747,128.886286 544.054363,128.886286 C555.492346,128.886286 562.058002,137.583832 562.058002,150.936274 L530.99099,150.936274 C531.802403,158.377165 537.014421,163.846251 544.494039,163.846251 C548.92669,163.812809 554.07077,161.842291 556.439636,159.26081 M531.024318,145.975252 L556.575513,145.975252 C555.830756,139.113169 551.80317,133.81258 544.256896,133.81258 C537.488707,133.81258 532.039546,138.602533 531.024318,145.975252 M603.345236,143.631725 L603.345236,167.890185 L597.829419,167.890185 L597.829419,144.37903 C597.829419,138.194795 593.93771,133.846022 588.353954,133.846022 C581.957503,133.846022 576.609608,138.331136 576.609608,143.665168 L576.609608,167.923627 L571.127119,167.923627 L571.127119,129.769932 L576.644218,129.769932 L576.644218,135.884711 C578.84388,131.842063 583.750817,128.886286 589.13204,128.886286 C597.491009,128.886286 603.345236,135.001065 603.345236,143.631725 M612.448963,148.795973 C612.448963,137.958127 621.484752,128.886286 632.111321,128.886286 C637.255401,128.886286 642.027743,131.026587 645.614371,134.491714 L641.7906,138.262966 C639.285858,135.545144 635.833825,133.846022 632.111321,133.846022 C624.565047,133.846022 618.236534,140.709391 618.236534,148.795973 C618.236534,156.984168 624.565047,163.846251 632.111321,163.846251 C635.935092,163.846251 639.455063,162.080245 642.027743,159.19264 L645.851514,162.963891 C642.263605,166.565359 637.391278,168.773831 632.111321,168.773831 C621.484752,168.773831 612.448963,159.63382 612.448963,148.795973 M683.382916,159.26081 L686.76701,162.860992 C683.450854,166.46246 676.783932,168.773831 671.503975,168.773831 C661.38502,168.773831 652.281293,160.449295 652.281293,148.727803 C652.281293,137.37932 660.809468,128.886286 670.996361,128.886286 C682.435626,128.886286 689,137.583832 689,150.936274 L657.932987,150.936274 C658.745683,158.377165 663.957701,163.846251 671.436037,163.846251 C675.903298,163.812809 681.047378,161.842291 683.382916,159.26081 M657.967597,145.975252 L683.517511,145.975252 C682.774035,139.113169 678.74645,133.81258 671.198894,133.81258 C664.430705,133.81258 659.016154,138.602533 657.967597,145.975252 M374.334335,244.844553 L346.211741,244.844553 L341.135599,256.328091 L334.908353,256.328091 L357.14211,205.670871 L363.369356,205.670871 L385.604395,256.328091 L379.377148,256.328091 L374.334335,244.844553 Z M372.000079,239.37418 L360.323671,212.770908 L348.580607,239.37418 L372.000079,239.37418 Z M412.948904,254.798753 C410.939299,256.378235 408.461658,257.239232 405.908962,257.245179 C400.461082,257.245179 396.67064,253.202531 396.67064,247.528933 L396.67064,223.202303 L390.713865,223.202303 L390.713865,218.276009 L396.67064,218.276009 L396.67064,207.811172 L402.186458,207.811172 L402.186458,218.276009 L411.527328,218.276009 L411.527328,223.202303 L402.186458,223.202303 L402.186458,247.528933 C402.186458,250.314926 404.08232,252.318885 406.315309,252.318885 C408.007357,252.318885 409.463543,251.639751 410.274956,250.756105 L412.948904,254.798753 Z M420.732321,204.820667 L426.24942,204.820667 L426.24942,256.361533 L420.732321,256.361533 L420.732321,204.820667 Z M468.246802,233.123061 L468.246802,256.328091 L462.730984,256.328091 L462.730984,250.348368 C460.023709,254.833482 454.372015,257.211737 449.362529,257.211737 C441.376579,257.211737 435.487742,252.556839 435.487742,245.047779 C435.487742,237.471833 442.255931,232.375756 450.377758,232.375756 C454.473281,232.375756 458.839276,233.258116 462.730984,234.516057 L462.730984,233.123061 C462.730984,227.958813 460.665917,222.080703 452.442824,222.080703 C448.619054,222.080703 444.794002,223.779824 441.341969,225.545829 L439.142308,221.062002 C444.591469,218.342893 449.126668,217.392363 452.814562,217.392363 C463.17066,217.324192 468.246802,223.914879 468.246802,233.123061 M462.730984,244.402087 L462.730984,238.593433 C459.004195,237.563878 455.157163,237.037882 451.291719,237.029367 C445.640025,237.029367 440.868965,240.257826 440.868965,244.844553 C440.868965,249.566335 444.997816,252.352328 450.344429,252.352328 C455.319305,252.352328 461.27608,249.770847 462.730984,244.402087 M477.214652,251.538138 L480.092414,247.494204 C484.423799,250.654493 488.755183,252.285443 492.951973,252.285443 C497.960177,252.285443 501.310943,249.94063 501.310943,246.30572 C501.310943,242.160173 496.91162,240.835347 491.76754,239.37418 C482.595875,236.724529 479.077186,234.006707 479.077186,228.536334 C479.077186,221.604794 484.795536,217.324192 492.376421,217.324192 C497.080825,217.324192 501.919824,218.955143 505.947409,221.604794 L503.308071,225.886683 C499.483019,223.440257 495.760515,222.285215 492.376421,222.285215 C488.112974,222.285215 484.593004,224.187561 484.593004,227.890642 C484.593004,231.220714 487.368217,232.239415 494.441488,234.516057 C500.532858,236.418404 506.861371,238.490534 506.861371,245.728199 C506.861371,252.726623 500.836657,257.211737 492.985301,257.211737 C487.638689,257.211737 481.749851,255.241219 477.214652,251.538138" id="Shape" fill="#000000"></path>
            </g>
        </g>
    </g>
</svg>