<?xml version="1.0" encoding="UTF-8"?>
<svg width="1922px" height="1082px" viewBox="0 0 1922 1082" version="1.1" xmlns="http://www.w3.org/2000/svg" xmlns:xlink="http://www.w3.org/1999/xlink">
    <!-- Generator: Sketch 62 (91390) - https://sketch.com -->
    <title>Artboard</title>
    <desc>Created with Sketch.</desc>
    <defs>
        <radialGradient cx="50%" cy="0%" fx="50%" fy="0%" r="99.5038007%" id="radialGradient-1">
            <stop stop-color="#FF0043" offset="0%"></stop>
            <stop stop-color="#AF0221" offset="100%"></stop>
        </radialGradient>
        <linearGradient x1="8.35909579%" y1="75.0049031%" x2="91.7111282%" y2="25.1213196%" id="linearGradient-2">
            <stop stop-color="#FFFFFF" stop-opacity="0" offset="12%"></stop>
            <stop stop-color="#FFFFFF" offset="44%"></stop>
        </linearGradient>
    </defs>
    <g id="Artboard" stroke="none" stroke-width="1" fill="none" fill-rule="evenodd">
        <g id="Group-40" fill="#FFFFFF" fill-rule="nonzero">
            <g id="Layer_3">
                <polygon id="Path" points="1921.5 1081.5 0 1081.5 0 0 1920.5 0"></polygon>
            </g>
        </g>
        <g id="Lines" transform="translate(-0.000000, 288.899513)" stroke="#000000" stroke-linecap="square" stroke-width="4">
            <path d="M3.41060513e-13,173.045833 C23.7304518,136.757579 68.2332237,124.236904 133.508316,135.48381 C209.487568,148.575044 297.787427,219.119671 364.909253,223.018526 C481.125577,229.769096 508.937401,143.22286 593.218167,147.514139 C643.467772,150.072671 844.059446,190.96253 1026.06597,183.100487 C1149.3285,177.775979 1222.83975,123.777383 1306,118.600487 C1467.72852,108.532554 1513.95,126.655216 1575.77258,122.350487 C1639.81461,117.891216 1682.86187,64.336737 1759.625,39.3784614 C1792.47043,28.6993072 1846.59543,38.0112935 1922,67.3144202" id="Line" transform="translate(961.000000, 129.246992) scale(-1, 1) translate(-961.000000, -129.246992) "></path>
            <path d="M0,0.100487 C28.0892686,4.94027114 161.112881,-2.69486792 232.333333,1.100487 C303.553786,4.89584192 471.647045,-5.3681813 579.3,59.3050546 C666.430644,111.649374 759.882194,140.764338 907.200643,151.197428 C935.950809,153.233514 1085.55845,134.486542 1227.90563,125.291479 C1345.21638,117.713669 1463.09747,164.489885 1535.817,164.489885 C1663.22498,164.489885 1782.85402,71.4898847 1922.5,110.489885" id="LogoLine1"></path>
            <path d="M1,414.981856 C21.1251921,359.239012 63.825334,336.991042 129.100426,348.237948 C205.079679,361.329182 246.201266,437.144723 327.419998,437.144723 C419.752242,437.144723 413.937182,375.74337 498.217948,380.034649 C582.498713,384.325928 760.274794,354.120251 881.469188,358.096014 C1090.34438,364.948133 1429.15097,409.976324 1567.58218,400.075694 C1635.85305,395.192946 1660.49596,338.9641 1762.97349,341.736888 C1865.45102,344.509676 1876.71258,417.786028 1927,417.786028" id="LogoLine3"></path>
            <path d="M1.13686838e-13,381.122526 C64.4463545,309.364989 128.160957,279.109674 191.143809,290.356579 C264.454927,303.447813 330.097877,363.219118 408.464482,363.219118 C497.55433,363.219118 572.499614,295.745802 699.877411,290.356579 C827.255207,284.967357 1011.66238,284.52277 1050.12391,284.52277 C1128.52182,284.52277 1362.90289,316.737085 1483.35954,319.871395 C1603.81619,323.005704 1570.63699,264.359716 1704.20697,254.459085 C1828.52435,245.244287 1822.78888,303.361897 1926,303.361897" id="Line" transform="translate(963.000000, 317.295588) scale(-1, 1) translate(-963.000000, -317.295588) "></path>
            <path d="M0,160.945598 C47.6881825,126.080869 103.538042,115.74414 167.549579,129.935414 C242.058073,146.453849 274.464516,235.697031 354.111066,235.697031 C444.656,235.697031 443.256362,195.335202 525.905673,200.74991 C608.554983,206.164618 788.456638,221.920468 827.546348,221.920468 C937.961005,221.920468 1280.90742,219.100487 1340,219.100487 C1399.09258,219.100487 1457.93294,302.612075 1525.07728,298.867461 C1632.90011,292.854225 1684.4553,221.920468 1789.35215,221.920468 C1829.93119,221.920468 1874.14714,245.153902 1922,291.620768" id="LogoLine2"></path>
        </g>
        <g id="SideLogos" transform="translate(138.000000, 236.000000)">
            <g id="Group" transform="translate(53.000000, 0.000000)">
                <g id="bg" fill="url(#radialGradient-1)">
                    <g id="Group-2">
                        <g id="Group-4">
                            <g id="Group-3">
                                <circle id="Oval" cx="53" cy="53" r="53"></circle>
                            </g>
                        </g>
                    </g>
                </g>
                <g id="building" transform="translate(28.000000, 20.000000)" fill="#FFFFFF" fill-rule="nonzero">
                    <path d="M8.33333333,10.4166667 C8.33333333,9.26607344 9.26607344,8.33333333 10.4166667,8.33333333 L14.5833333,8.33333333 C15.7339266,8.33333333 16.6666667,9.26607344 16.6666667,10.4166667 L16.6666667,14.5833333 C16.6666667,15.7339266 15.7339266,16.6666667 14.5833333,16.6666667 L10.4166667,16.6666667 C9.26607344,16.6666667 8.33333333,15.7339266 8.33333333,14.5833333 L8.33333333,10.4166667 Z M20.8333333,10.4166667 C20.8333333,9.26607344 21.7660734,8.33333333 22.9166667,8.33333333 L27.0833333,8.33333333 C28.2339266,8.33333333 29.1666667,9.26607344 29.1666667,10.4166667 L29.1666667,14.5833333 C29.1666667,15.7339266 28.2339266,16.6666667 27.0833333,16.6666667 L22.9166667,16.6666667 C21.7660734,16.6666667 20.8333333,15.7339266 20.8333333,14.5833333 L20.8333333,10.4166667 Z M35.4166667,8.33333333 C34.2660734,8.33333333 33.3333333,9.26607344 33.3333333,10.4166667 L33.3333333,14.5833333 C33.3333333,15.7339266 34.2660734,16.6666667 35.4166667,16.6666667 L39.5833333,16.6666667 C40.7339266,16.6666667 41.6666667,15.7339266 41.6666667,14.5833333 L41.6666667,10.4166667 C41.6666667,9.26607344 40.7339266,8.33333333 39.5833333,8.33333333 L35.4166667,8.33333333 Z M8.33333333,22.9166667 C8.33333333,21.7660734 9.26607344,20.8333333 10.4166667,20.8333333 L14.5833333,20.8333333 C15.7339266,20.8333333 16.6666667,21.7660734 16.6666667,22.9166667 L16.6666667,27.0833333 C16.6666667,28.2339266 15.7339266,29.1666667 14.5833333,29.1666667 L10.4166667,29.1666667 C9.26607344,29.1666667 8.33333333,28.2339266 8.33333333,27.0833333 L8.33333333,22.9166667 Z M22.9166667,20.8333333 C21.7660734,20.8333333 20.8333333,21.7660734 20.8333333,22.9166667 L20.8333333,27.0833333 C20.8333333,28.2339266 21.7660734,29.1666667 22.9166667,29.1666667 L27.0833333,29.1666667 C28.2339266,29.1666667 29.1666667,28.2339266 29.1666667,27.0833333 L29.1666667,22.9166667 C29.1666667,21.7660734 28.2339266,20.8333333 27.0833333,20.8333333 L22.9166667,20.8333333 Z M33.3333333,22.9166667 C33.3333333,21.7660734 34.2660734,20.8333333 35.4166667,20.8333333 L39.5833333,20.8333333 C40.7339266,20.8333333 41.6666667,21.7660734 41.6666667,22.9166667 L41.6666667,27.0833333 C41.6666667,28.2339266 40.7339266,29.1666667 39.5833333,29.1666667 L35.4166667,29.1666667 C34.2660734,29.1666667 33.3333333,28.2339266 33.3333333,27.0833333 L33.3333333,22.9166667 Z M10.4166667,33.3333333 C9.26607344,33.3333333 8.33333333,34.2660734 8.33333333,35.4166667 L8.33333333,39.5833333 C8.33333333,40.7339266 9.26607344,41.6666667 10.4166667,41.6666667 L14.5833333,41.6666667 C15.7339266,41.6666667 16.6666667,40.7339266 16.6666667,39.5833333 L16.6666667,35.4166667 C16.6666667,34.2660734 15.7339266,33.3333333 14.5833333,33.3333333 L10.4166667,33.3333333 Z M20.8333333,35.4166667 C20.8333333,34.2660734 21.7660734,33.3333333 22.9166667,33.3333333 L27.0833333,33.3333333 C28.2339266,33.3333333 29.1666667,34.2660734 29.1666667,35.4166667 L29.1666667,39.5833333 C29.1666667,40.7339266 28.2339266,41.6666667 27.0833333,41.6666667 L22.9166667,41.6666667 C21.7660734,41.6666667 20.8333333,40.7339266 20.8333333,39.5833333 L20.8333333,35.4166667 Z M35.4166667,33.3333333 C34.2660734,33.3333333 33.3333333,34.2660734 33.3333333,35.4166667 L33.3333333,39.5833333 C33.3333333,40.7339266 34.2660734,41.6666667 35.4166667,41.6666667 L39.5833333,41.6666667 C40.7339266,41.6666667 41.6666667,40.7339266 41.6666667,39.5833333 L41.6666667,35.4166667 C41.6666667,34.2660734 40.7339266,33.3333333 39.5833333,33.3333333 L35.4166667,33.3333333 Z" id="Shape"></path>
                    <path d="M0,4.16666667 C0,1.86548021 1.86548021,0 4.16666667,0 L45.8333333,0 C48.1345198,0 50,1.86548021 50,4.16666667 L50,62.5 C50,64.8011865 48.1345198,66.6666667 45.8333333,66.6666667 L4.16666667,66.6666667 C1.86548021,66.6666667 0,64.8011865 0,62.5 L0,4.16666667 Z M45.8333333,4.16666667 L4.16666667,4.16666667 L4.16666667,62.5 L16.6666667,62.5 L16.6666667,52.0833333 C16.6666667,50.9327401 17.5994068,50 18.75,50 L31.25,50 C32.4005932,50 33.3333333,50.9327401 33.3333333,52.0833333 L33.3333333,62.5 L45.8333333,62.5 L45.8333333,4.16666667 Z" id="Shape"></path>
                </g>
            </g>
            <g id="Group-7" transform="translate(0.000000, 145.000000)">
                <g id="Group" fill="url(#radialGradient-1)">
                    <g id="bg">
                        <g id="Group-2">
                            <g id="Group-4">
                                <g id="Group-3">
                                    <circle id="Oval" cx="53" cy="53" r="53"></circle>
                                </g>
                            </g>
                        </g>
                    </g>
                </g>
                <g id="bank" transform="translate(23.000000, 23.000000)" fill="#FFFFFF" fill-rule="nonzero">
                    <path d="M30,0 L54.7875,11.25 L58.125,11.25 C59.1605339,11.25 60,12.0894661 60,13.125 L60,20.625 C60,21.6605339 59.1605339,22.5 58.125,22.5 L56.25,22.5 L56.25,48.75 C57.1116631,48.750666 57.8619511,49.3385205 58.06875,50.175 L59.94375,57.675 C60.0851902,58.2347381 59.959792,58.8284246 59.6040766,59.2831536 C59.2483611,59.7378827 58.7023263,60.0025228 58.125,60.0000179 L1.875,60.0000179 C1.2976737,60.0025228 0.751638927,59.7378827 0.395923449,59.2831536 C0.0402079698,58.8284246 -0.085190214,58.2347381 0.05625,57.675 L1.93125,50.175 C2.13804895,49.3385205 2.88833691,48.750666 3.75,48.75 L3.75,22.5 L1.875,22.5 C0.839466094,22.5 1.26851654e-16,21.6605339 0,20.625 L0,13.125 C-1.26851654e-16,12.0894661 0.839466094,11.25 1.875,11.25 L5.2125,11.25 L30,0 Z M14.16375,11.25 L45.84,11.25 L30,3.75 L14.16375,11.25 Z M7.5,22.5 L7.5,48.75 L11.25,48.75 L11.25,22.5 L7.5,22.5 Z M15,22.5 L15,48.75 L24.375,48.75 L24.375,22.5 L15,22.5 Z M28.125,22.5 L28.125,48.75 L31.875,48.75 L31.875,22.5 L28.125,22.5 Z M35.625,22.5 L35.625,48.75 L45,48.75 L45,22.5 L35.625,22.5 Z M48.75,22.5 L48.75,48.75 L52.5,48.75 L52.5,22.5 L48.75,22.5 Z M56.25,18.75 L56.25,15 L3.75,15 L3.75,18.75 L56.25,18.75 Z M54.7875,52.5 L5.2125,52.5 L4.275,56.25 L55.725,56.25 L54.7875,52.5 Z" id="Shape"></path>
                </g>
            </g>
            <g id="Group-8" transform="translate(0.000000, 384.000000)">
                <g id="Group" fill="url(#radialGradient-1)">
                    <g id="bg">
                        <g id="Group-2">
                            <g id="Group-4">
                                <g id="Group-3">
                                    <circle id="Oval" cx="53" cy="53" r="53"></circle>
                                </g>
                            </g>
                        </g>
                    </g>
                </g>
                <g id="database-fill" opacity="0.900000036" transform="translate(28.000000, 22.000000)" fill="#FFFFFF" fill-rule="nonzero">
                    <path d="M7.93333333,3.2375 C12.4083333,1.20416667 18.4458333,0 25,0 C31.5541667,0 37.5916667,1.20416667 42.0666667,3.2375 C46.3541667,5.1875 50,8.30416667 50,12.5 C50,16.6958333 46.3541667,19.8125 42.0666667,21.7625 C37.5916667,23.7958333 31.5541667,25 25,25 C18.4458333,25 12.4083333,23.7958333 7.93333333,21.7625 C3.64583333,19.8125 0,16.6958333 0,12.5 C0,8.30416667 3.64583333,5.1875 7.93333333,3.2375" id="Path"></path>
                    <path d="M0,21.5 L0,24.9958333 C0,29.1916667 3.64583333,32.3083333 7.93333333,34.2583333 C12.4083333,36.2875 18.4458333,37.4958333 25,37.4958333 C31.5541667,37.4958333 37.5916667,36.2916667 42.0666667,34.2583333 C46.3541667,32.3083333 50,29.1916667 50,24.9958333 L50,21.5 C48.0958333,23.3 45.8166667,24.6291667 43.7916667,25.55 C38.6583333,27.8833333 32.0083333,29.1625 25,29.1625 C17.9916667,29.1625 11.3416667,27.8833333 6.20833333,25.55 C4.18333333,24.6333333 1.90416667,23.3 0,21.5" id="Path"></path>
                    <path d="M0,33.9958333 L0,37.4916667 C0,41.6875 3.64583333,44.8041667 7.93333333,46.7541667 C12.4083333,48.7875 18.4458333,49.9916667 25,49.9916667 C31.5541667,49.9916667 37.5916667,48.7875 42.0666667,46.7541667 C46.3541667,44.8041667 50,41.6875 50,37.4916667 L50,33.9958333 C48.0958333,35.7958333 45.8166667,37.125 43.7916667,38.0458333 C38.6583333,40.3791667 32.0083333,41.6583333 25,41.6583333 C17.9916667,41.6583333 11.3416667,40.3791667 6.20833333,38.0458333 C4.18333333,37.1291667 1.90416667,35.7958333 0,33.9958333" id="Path"></path>
                    <path d="M0,46.4916667 L0,49.9875 C0,54.1833333 3.64583333,57.3 7.93333333,59.25 C12.4083333,61.2833333 18.4458333,62.4875 25,62.4875 C31.5541667,62.4875 37.5916667,61.2833333 42.0666667,59.25 C46.3541667,57.3 50,54.1833333 50,49.9875 L50,46.4916667 C48.0958333,48.2916667 45.8166667,49.6208333 43.7916667,50.5416667 C38.6583333,52.875 32.0083333,54.1541667 25,54.1541667 C17.9916667,54.1541667 11.3416667,52.875 6.20833333,50.5416667 C4.18333333,49.625 1.90416667,48.2916667 0,46.4916667" id="Path"></path>
                </g>
            </g>
        </g>
        <g id="CenterLogo" transform="translate(703.000000, 381.000000)">
            <rect id="Rectangle" stroke="#000000" stroke-width="4" fill="#FFFFFF" x="2" y="2" width="793" height="337"></rect>
            <g id="hra-logo-with-text-black" transform="translate(36.000000, 16.000000)" fill-rule="nonzero">
                <path d="M295.647332,150.656642 C295.647332,67.4508717 229.463989,0 147.823666,0 C66.1833429,0 0,67.4508717 0,150.656642 L0,158.343358 C0,241.549128 66.1833429,309 147.823666,309 C229.463989,309 295.647332,241.549128 295.647332,158.343358 L295.647332,150.656642 Z" id="Path" fill="#FF0043"></path>
                <path d="M271.711728,102.761179 C264.984551,86.5424429 255.356614,71.9784558 243.094314,59.4705771 C230.832014,46.9626984 216.54887,37.1424178 200.647167,30.2850703 C184.180381,23.1825239 166.691064,19.5785124 148.663573,19.5785124 C130.636082,19.5785124 113.146765,23.1797842 96.679979,30.2850703 C80.7769306,37.1451575 66.4978229,46.9654381 54.2314869,59.4705771 C41.9678417,71.9757161 32.3412502,86.5424429 25.6167632,102.761179 C18.6527887,119.555243 15.1183295,137.391744 15.1183295,155.777544 C15.1183295,174.163345 18.6487524,191.999846 25.6167632,208.793909 C32.343941,225.011276 41.971878,239.576633 54.2328323,252.084512 C66.4937866,264.589651 80.7782761,274.412671 96.679979,281.270019 C113.14811,288.372565 130.636082,291.975207 148.663573,291.975207 C166.691064,291.975207 184.180381,288.375305 200.647167,281.270019 C216.54887,274.408562 230.83336,264.589651 243.094314,252.084512 C255.356614,239.576633 264.987241,225.011276 271.711728,208.793909 C278.675703,191.999846 282.208817,174.163345 282.208817,155.777544 C282.208817,137.391744 278.678394,119.555243 271.711728,102.761179 M273.077346,154.535112 L242.425632,154.535112 C242.397301,152.137046 242.280614,149.740905 242.075819,147.351746 L266.113371,144.870992 C266.614412,144.817045 266.978314,144.36081 266.92736,143.850472 C266.903584,143.605035 266.784764,143.37935 266.597171,143.223316 C266.409578,143.067282 266.168666,142.993753 265.927701,143.018988 L241.899567,145.501112 C240.540239,132.307289 236.475957,119.550872 229.96959,108.056926 L256.47198,92.4902262 C266.842597,110.795207 272.86073,131.968604 273.073309,154.535112 L273.077346,154.535112 Z M24.2511461,154.535112 C24.3184179,147.507907 24.9467363,140.616313 26.0943928,133.905537 L56.2361859,139.471139 C55.4046197,144.449144 54.9583568,149.485956 54.9015138,154.535112 L24.2511461,154.535112 Z M59.2472707,140.027288 L86.6591749,145.091534 C86.1444996,148.213559 85.8566926,151.36998 85.7980962,154.535112 L57.9475799,154.535112 C58.0108154,149.598261 58.4548091,144.753187 59.2526524,140.027288 L59.2472707,140.027288 Z M188.762935,199.346221 L179.050235,187.656129 C180.810369,185.910769 182.423806,184.018359 183.873622,181.998748 L196.493808,190.308111 C194.218182,193.574836 191.628424,196.602504 188.762935,199.346221 M102.79902,192.972422 L114.560818,183.485009 C115.746536,184.997599 117.026437,186.431104 118.392618,187.776673 L108.315306,199.113351 C106.339776,197.198215 104.496622,195.146349 102.79902,192.972422 M109.871975,110.988353 L119.569874,122.659268 C112.752552,128.896084 107.861894,137.282158 105.940612,146.762721 L91.1717658,144.034028 C93.7294388,130.994657 100.456617,119.475793 109.869284,110.986983 L109.871975,110.988353 Z M177.16528,171.193563 L180.495233,172.942831 C178.81,176.176429 176.662598,179.137392 174.12325,181.728893 L168.956778,175.513993 C173.576225,170.467567 176.270599,163.905418 176.553107,157.013127 L184.65532,157.013127 C184.496414,161.949223 183.357253,166.801421 181.306531,171.277122 L177.998105,169.537444 C177.554912,169.336218 177.034507,169.522295 176.812217,169.961472 C176.589926,170.40065 176.743091,170.940128 177.161244,171.190823 L177.16528,171.193563 Z M115.914326,171.06343 L132.944849,162.795162 C135.093385,167.776285 139.388085,171.462324 144.573449,172.775712 L141.274441,191.73136 C129.9822,189.321837 120.619314,181.502872 115.914326,171.06343 M124.48475,128.572806 L129.154757,134.1932 C124.743713,138.217639 121.680869,143.547125 120.395972,149.433881 L113.430652,148.146245 C115.00762,140.602156 118.875834,133.754397 124.487441,128.572806 L124.48475,128.572806 Z M120.394626,151.325611 C120.631545,151.369774 120.87595,151.314971 121.072726,151.17356 C121.395202,151.130259 121.65398,150.881151 121.714499,150.555769 C122.820339,144.695308 125.778124,139.363776 130.136925,135.37399 L136.68516,143.254598 C133.670698,146.24546 131.841475,150.26031 131.545596,154.535112 L112.666444,154.535112 C112.718916,152.991319 112.861533,151.468073 113.095638,149.976332 L120.394626,151.325611 Z M162.646685,167.921049 C162.334101,167.542964 161.829967,167.391462 161.36583,167.536128 C163.95517,164.634866 165.509682,160.930499 165.778859,157.019976 L175.035456,157.019976 C174.753035,163.455768 172.252058,169.584383 167.971919,174.329094 L162.649376,167.923789 L162.646685,167.921049 Z M135.454087,155.778914 C135.454087,148.350349 141.38073,142.306678 148.663573,142.306678 C155.947761,142.306678 161.874405,148.350349 161.874405,155.778914 C161.874405,163.207479 155.947761,169.25252 148.663573,169.25252 C141.38073,169.25252 135.454087,163.207479 135.454087,155.778914 M165.778859,154.537852 C165.598709,151.911698 164.835516,149.361415 163.546781,147.079151 L171.611322,142.343664 C173.678482,146.077769 174.851609,150.255564 175.035456,154.537852 L165.778859,154.537852 Z M162.907699,146.024385 C159.82127,141.354649 154.590217,138.273911 148.663573,138.273911 C145.022345,138.270542 141.475731,139.454336 138.543207,141.651902 L132.020535,133.80554 C136.670781,130.250307 142.328879,128.328001 148.144235,128.327607 C157.768136,128.327607 166.22958,133.506918 170.988385,141.276569 L162.905009,146.024385 L162.907699,146.024385 Z M131.548287,157.019976 C131.661304,158.629522 131.982863,160.180164 132.494128,161.644508 L115.429969,169.931954 C113.748396,165.834579 112.813767,161.459672 112.671826,157.021346 L131.548287,157.019976 Z M145.765505,173.02913 C151.137822,173.973116 156.630001,172.249331 160.547805,168.38953 C160.439118,168.786626 160.530279,169.212751 160.791329,169.527855 L166.241689,176.08795 C162.712906,179.36741 158.389038,181.629533 153.715684,182.641197 C153.608098,182.630639 153.499868,182.653059 153.404888,182.705578 C151.673469,183.056554 149.912328,183.233199 148.146926,183.232961 C147.726352,183.232961 147.385409,183.580085 147.385409,184.008283 C147.385409,184.436481 147.726352,184.783604 148.146926,184.783604 C149.857082,184.784885 151.563821,184.628081 153.246127,184.315124 L154.606362,192.010805 C150.587267,192.694531 146.483417,192.679709 142.469188,191.96697 L145.765505,173.02913 Z M154.435492,184.067185 C159.203005,182.962372 163.608591,180.62031 167.223857,177.26874 L172.344585,183.431586 C167.638762,187.637531 161.934843,190.518053 155.798418,191.787523 L154.432801,184.064446 L154.435492,184.067185 Z M176.555798,154.541962 C176.370763,149.987194 175.127666,145.541994 172.928504,141.571082 L179.887096,137.483522 C182.830061,142.684116 184.468691,148.543051 184.658011,154.541962 L176.555798,154.541962 Z M172.308258,140.503988 C167.284401,132.269965 158.334564,126.778334 148.146926,126.778334 C141.788397,126.778334 135.83619,128.935809 131.038367,132.620641 L126.342797,126.972849 C132.686547,121.834441 140.555782,119.040977 148.662228,119.049756 C161.559573,119.049756 172.896213,126.000273 179.258778,136.424647 L172.308258,140.503988 Z M184.122527,129.902906 L196.484389,121.234649 C197.316883,122.430032 198.106281,123.655927 198.851011,124.909892 L185.847376,132.54941 C185.303053,131.646943 184.727749,130.764231 184.122527,129.902906 M183.027343,128.411166 C179.675909,124.044782 175.557788,120.349455 170.882096,117.512833 L178.365409,104.25292 C184.979371,108.236923 190.766151,113.496724 195.401314,119.73743 L183.027343,128.415276 L183.027343,128.411166 Z M169.294482,116.595049 C163.311989,113.304738 156.652804,111.494324 149.855629,111.310262 L149.804502,96.0038292 C159.247739,96.1809996 168.506697,98.6957858 176.781831,103.331027 L169.294482,116.59368 L169.294482,116.595049 Z M147.423081,111.313001 C140.452757,111.506901 133.631628,113.412511 127.540235,116.867645 L120.008486,103.636498 C128.370948,98.8323917 137.772143,96.2124086 147.371955,96.0106783 L147.423081,111.315741 L147.423081,111.313001 Z M125.96473,117.805975 C124.386391,118.792952 122.870262,119.879521 121.42523,121.059311 L111.72733,109.388396 C113.850431,107.626969 116.09103,106.017668 118.432981,104.572089 L125.96473,117.803236 L125.96473,117.805975 Z M105.61098,148.601027 C105.298272,150.567229 105.113544,152.552323 105.058006,154.543331 L90.051018,154.543331 C90.1088717,151.596836 90.3793043,148.702395 90.844825,145.873704 L105.608289,148.601027 L105.61098,148.601027 Z M105.058006,157.024086 C105.212731,162.777354 106.443805,168.258027 108.556139,173.270219 L95.0035663,179.850862 C91.8873202,172.649973 90.2044661,164.891428 90.0523634,157.024086 L105.060697,157.024086 L105.058006,157.024086 Z M109.051259,174.401695 C110.268479,177.080548 111.743563,179.629933 113.45487,182.012447 L101.682308,191.506709 C99.2759261,188.220739 97.2066018,184.69236 95.5067592,180.976858 L109.051259,174.401695 Z M119.734018,189.046502 C125.457763,194.244945 132.43091,197.808428 139.945151,199.374988 L137.324242,214.441701 C126.835226,212.336279 117.344524,207.37066 109.662087,200.37633 L119.736708,189.046502 L119.734018,189.046502 Z M141.139897,199.603749 C146.039415,200.475088 151.049034,200.488986 155.953143,199.644843 L158.614415,214.706077 C155.327631,215.281669 151.998623,215.570836 148.663573,215.570438 C145.273075,215.570438 141.815306,215.260857 138.518989,214.671832 L141.139897,199.603749 Z M157.14789,199.421562 C164.601572,197.911836 171.536075,194.438408 177.259461,189.347863 L186.95736,201.016039 C179.222955,207.848846 169.861035,212.49279 159.809161,214.482796 L157.14789,199.421562 Z M184.923062,180.483721 C185.767804,179.199102 186.545207,177.869883 187.252011,176.501638 L200.586623,183.511036 C199.654236,185.319296 198.63218,187.078138 197.524411,188.780756 L184.923062,180.483721 Z M188.072726,174.838669 C190.676334,169.262522 192.104865,163.193309 192.266449,157.021346 L207.274783,157.021346 C207.107352,165.631582 205.108792,174.102556 201.416756,181.850807 L188.075417,174.838669 L188.072726,174.838669 Z M192.266449,154.539222 C192.248699,153.861379 192.215502,153.184046 192.166887,152.50777 L207.097185,150.966716 C207.189572,152.148419 207.248771,153.339255 207.274783,154.539222 L192.266449,154.539222 Z M191.993326,150.657136 C191.316053,144.651727 189.437306,138.851307 186.473003,133.613764 L199.471256,125.978356 C203.495627,133.084622 206.032038,140.961918 206.920933,149.114712 L191.993326,150.657136 Z M203.159095,123.809922 L227.290828,109.636335 C233.585925,120.743493 237.530381,133.068067 238.870992,145.818911 L211.15771,148.677738 C210.210598,139.914206 207.486929,131.446278 203.159095,123.809922 M202.53885,122.742827 C201.737603,121.388163 200.887609,120.064013 199.990595,118.773072 L222.935653,102.685839 C224.253657,104.596969 225.49954,106.558617 226.670582,108.566501 L202.53885,122.740088 L202.53885,122.742827 Z M198.914246,117.273113 C193.914162,110.501346 187.653113,104.798463 180.488506,100.490008 L194.380128,75.8769798 C205.142016,82.3128118 214.496721,90.9224777 221.868722,101.176291 L198.911555,117.271743 L198.914246,117.273113 Z M178.903583,99.5694855 C169.979123,94.5508743 159.982222,91.8365508 149.788357,91.6642213 L149.694177,63.2540358 C164.799043,63.4091293 179.622658,67.4321198 192.799241,74.9523474 L178.903583,99.5694855 Z M147.35581,91.6655911 C137.010497,91.8741544 126.87833,94.6975371 117.870589,99.8818058 L103.886132,75.3180909 C117.109454,67.627541 132.033101,63.4785738 147.260284,63.2595151 L147.35581,91.6655911 Z M116.295084,100.818767 C113.736366,102.392878 111.290508,104.149749 108.975915,106.076158 L90.9672596,84.4096242 C94.5401611,81.4042063 98.3321992,78.6795421 102.310627,76.2591612 L116.295084,100.818767 Z M107.119214,107.681593 C96.9692477,116.810112 89.7227317,129.219363 86.9847703,143.269666 L59.5755569,138.20405 C63.4867381,117.551188 74.1466241,99.3242867 89.1172857,86.0164298 L107.119214,107.681593 Z M85.7954053,157.024086 C85.9471585,165.537047 87.7701158,173.933079 91.156966,181.717934 L65.9986663,193.9313 C60.8330098,182.329152 58.0887485,169.761707 57.9395073,157.024086 L85.7954053,157.024086 M91.6615044,182.846671 C93.4995843,186.855156 95.7385582,190.660088 98.3429374,194.201156 L76.5024818,211.818485 C72.6008557,206.605057 69.2522449,200.985772 66.5126227,195.054557 L91.6588135,182.843931 L91.6615044,182.846671 Z M99.4623398,195.675088 C101.305405,198.036769 103.30921,200.263655 105.458946,202.339291 L86.7573917,223.374334 C83.4737693,220.245438 80.4212212,216.874289 77.6245751,213.288308 L99.4623398,195.675088 Z M106.803036,203.595421 C115.066702,211.129462 125.28663,216.473152 136.578871,218.722406 L131.709739,246.696987 C115.151464,243.492965 100.171384,235.683588 88.1014819,224.630465 L106.803036,203.595421 Z M137.776308,218.951167 C141.313459,219.584027 144.954207,219.915524 148.666264,219.915524 C152.379666,219.915524 155.892598,219.593615 159.371895,218.982673 L164.309643,246.942186 C153.919189,248.787869 143.292759,248.78138 132.904486,246.923008 L137.773618,218.951167 L137.776308,218.951167 Z M160.566642,218.759392 C171.354697,216.633055 181.404418,211.657403 189.708776,204.331017 L207.709358,225.992071 C195.88298,236.350693 181.422238,243.661453 165.505736,246.718904 L160.566642,218.759392 Z M191.518387,202.672158 C194.70013,199.648437 197.566754,196.298348 200.072666,192.67517 L207.873502,197.812017 C208.076221,197.946486 208.323315,197.9929 208.559819,197.940934 C208.796322,197.888969 209.002622,197.742933 209.132829,197.535312 C209.405987,197.103586 209.284416,196.528217 208.861051,196.249045 L201.100579,191.140965 C202.284438,189.320187 203.376549,187.439269 204.372678,185.505502 L229.130038,198.516107 C224.143524,208.235733 217.510503,216.982563 209.53646,224.35376 L191.521078,202.672158 L191.518387,202.672158 Z M205.200121,183.845273 C209.205076,175.482406 211.366057,166.329275 211.531741,157.026825 L239.384948,157.026825 C239.221018,170.855636 235.998732,184.469115 229.957481,196.855878 L205.200121,183.842534 L205.200121,183.845273 Z M211.531741,154.546071 C211.506795,153.207353 211.440837,151.869752 211.333962,150.535221 L239.047244,147.676395 C239.241883,149.943913 239.354451,152.233805 239.384948,154.546071 L211.531741,154.546071 Z M148.663573,28.8919575 C194.252312,28.8919575 234.194258,54.0296293 255.863843,91.4272414 L229.361453,106.993941 C228.146983,104.914209 226.85671,102.881343 225.493326,100.899586 L246.165943,86.4068301 C246.434883,86.2189038 246.58492,85.8991743 246.559539,85.5680807 C246.534157,85.2369871 246.337212,84.9448303 246.042891,84.8016631 C245.748571,84.6584959 245.401588,84.6860687 245.132649,84.8739952 L224.426395,99.392778 C221.561362,95.4093751 218.402566,91.6538718 214.977401,88.1588372 C209.286061,82.3450575 202.885061,77.2993714 195.931415,73.1455473 L208.423785,51.006424 C208.587215,50.7189064 208.587574,50.3644595 208.424725,50.0766 C208.261876,49.7887405 207.960561,49.6112012 207.634281,49.6108593 C207.308002,49.6105174 207.006328,49.7874249 206.842898,50.0749425 L194.346492,72.2140658 C180.828901,64.501947 165.571662,60.3267182 149.686104,60.15549 L149.599996,34.4068759 C149.597777,33.7241293 149.054315,33.1714267 148.383722,33.1699232 L148.381032,33.1699232 C147.708314,33.1699232 147.167449,33.7274423 147.167449,34.413725 L147.252211,60.1582296 C131.250946,60.3979491 115.899526,64.6964622 102.333499,72.5825489 L89.5168801,50.070833 C89.3532093,49.7838048 89.05157,49.6074801 88.7255868,49.6082786 C88.3996037,49.6090771 88.0988012,49.7868776 87.9364889,50.0747043 C87.7741765,50.3625309 87.7750134,50.7166561 87.9386842,51.0036843 L100.756649,73.5208796 C96.622379,76.0386489 92.6839424,78.8756652 88.976015,82.0069499 L69.2034939,58.2075978 C90.770826,39.9067261 118.481417,28.8864782 148.666264,28.8864782 L148.663573,28.8919575 Z M67.3454473,59.8212525 L87.1220048,83.6192348 C85.4816095,85.0769447 83.8899521,86.5905487 82.3497448,88.1574674 C68.9061526,101.869423 60.0504957,119.014162 56.5617813,137.650641 L26.4186428,132.080929 C31.7465677,103.441983 46.5382863,78.1796568 67.3467928,59.8198827 M24.2524915,157.025456 L54.9028592,157.025456 C55.0710387,170.436049 57.9260529,183.406929 63.2109238,195.288798 L35.5864408,208.699391 C28.4677412,192.938177 24.4260527,175.445502 24.2524915,157.025456 M36.1003972,209.825388 L63.7194985,196.417534 C66.5548294,202.563732 70.0278778,208.38345 74.0793524,213.777335 L54.2032327,229.808406 C53.9475121,230.014195 53.8190489,230.34325 53.8662341,230.67162 C53.9134192,230.99999 54.129084,231.277787 54.4319897,231.400368 C54.7348954,231.522948 55.0790234,231.47169 55.334744,231.2659 L75.2014456,215.241679 C77.432111,218.100275 79.8191041,220.82872 82.3510902,223.414059 C83.1179885,224.19623 83.8956503,224.952374 84.6827301,225.703038 L67.0655968,245.516197 C66.8234643,245.788904 66.7615148,246.181095 66.907458,246.517344 C67.0534013,246.853593 67.3799364,247.071 67.7410054,247.072319 C67.9981091,247.072077 68.2432472,246.961704 68.4164141,246.768218 L86.0241293,226.966017 C98.8784208,238.760217 114.415511,246.564114 131.171565,249.770876 L125.816732,280.534422 C86.063147,272.982573 52.8981602,246.088785 36.0923245,209.826758 L36.1003972,209.825388 Z M127.019551,280.756334 L132.371694,249.995527 C137.751232,250.949421 143.201713,251.427903 148.662228,251.425626 C154.181204,251.425626 159.554874,250.947556 164.849163,250.014705 L170.280686,280.759074 C163.143202,282.038889 155.909558,282.681496 148.662228,282.679574 C141.290586,282.679574 134.050797,282.019313 127.015515,280.756334 L127.019551,280.756334 Z M171.479469,280.539901 L166.047946,249.791423 C182.159537,246.727123 197.142307,239.416363 209.705985,228.397485 L219.810206,240.557428 C220.018555,240.807807 220.316085,240.963634 220.637308,240.99061 C220.958531,241.017585 221.277118,240.913499 221.522945,240.70126 C222.033992,240.256855 222.097646,239.476103 221.665562,238.951993 L211.530395,226.753694 C212.700924,225.673359 213.848132,224.55969 214.97202,223.41269 C221.7471,216.517084 227.449186,208.609417 231.881454,199.962643 L237.263196,202.791333 C237.399534,202.861651 237.538562,202.895896 237.680281,202.89407 C238.10216,202.893827 238.469177,202.599911 238.568791,202.18253 C238.668405,201.765149 238.474784,201.332533 238.100057,201.135214 L232.714278,198.303784 C238.899246,185.615088 242.248035,171.581224 242.426978,157.025456 L273.078691,157.025456 C272.497463,218.497755 228.84346,269.649787 171.479469,280.535792 L171.479469,280.539901 Z" id="Shape" fill="url(#linearGradient-2)"></path>
                <path d="M398.826647,30.6446281 L398.826647,84.6193991 L392.816467,84.6193991 L392.816467,60.0393133 L361.558683,60.0393133 L361.558683,84.6207696 L355.548504,84.6207696 L355.548504,30.6446281 L361.558683,30.6446281 L361.558683,54.2119074 L392.816467,54.2119074 L392.816467,30.6446281 L398.826647,30.6446281 Z M444.66538,44.002983 L444.66538,84.6193991 L438.869368,84.6193991 L438.869368,78.102627 C436.556621,82.4115084 431.40042,85.560939 425.747188,85.560939 C416.963597,85.560939 410.775617,79.0441669 410.775617,69.8494195 L410.775617,44.0016125 L416.571628,44.0016125 L416.571628,69.0531535 C416.571628,75.6411921 420.661029,80.2748843 426.52843,80.2748843 C433.24981,80.2748843 438.869368,75.4959181 438.869368,69.8124157 L438.869368,43.9646088 L444.66538,43.9646088 L444.66538,44.002983 Z M513.797264,58.7715921 L513.797264,84.6193991 L507.999905,84.6193991 L507.999905,59.5705991 C507.999905,52.98119 504.231083,48.3474978 498.825693,48.3474978 C492.494934,48.3474978 488.014913,52.6563793 488.014913,58.8099664 L488.014913,84.6577733 L482.218901,84.6577733 L482.218901,59.6048618 C482.218901,53.0168232 478.448732,48.383131 473.043342,48.383131 C466.71393,48.383131 462.232561,52.690642 462.232561,58.8455996 L462.232561,84.6934066 L456.471571,84.6934066 L456.471571,44.002983 L462.26893,44.002983 L462.26893,49.9756629 C464.259751,45.7407889 468.598341,43.0614431 473.825932,43.0614431 C479.836111,43.0614431 484.565323,46.4274141 486.698923,51.7134688 C488.334144,46.4644179 493.561735,43.0614431 499.571914,43.0614431 C507.928516,43.0614431 513.797264,49.5782152 513.797264,58.7729626 M557.928039,59.8584061 L557.928039,84.5837658 L552.132027,84.5837658 L552.132027,78.2122677 C549.287227,82.9912339 543.348436,85.5253058 538.085825,85.5253058 C529.692856,85.5253058 523.504876,80.5654323 523.504876,72.5657691 C523.504876,64.4934688 530.616877,59.0621401 539.152625,59.0621401 C543.491215,59.0621401 548.042627,60.0036801 552.132027,61.3426677 L552.132027,59.8584061 C552.132027,54.3558109 549.963406,48.092583 541.321247,48.092583 C537.303236,48.092583 533.283877,49.9030259 529.657834,51.7861058 L527.345087,47.0071396 C533.071056,44.1112533 537.836636,43.0969407 541.711868,43.0969407 C552.594038,43.0614431 557.928039,50.0482999 557.928039,59.8584061 M552.132027,71.8777733 L552.132027,65.6871825 C548.215862,64.5906363 544.173409,64.0306392 540.111668,64.0220136 C534.172877,64.0220136 529.159455,67.4619921 529.159455,72.3478581 C529.159455,77.3803685 533.461677,80.3488918 539.116257,80.3488918 C544.343847,80.3845251 550.603216,77.6339127 552.132027,71.8777733 M603.696729,58.7715921 L603.696729,84.6193991 L597.899371,84.6193991 L597.899371,59.5705991 C597.899371,52.98119 593.80997,48.3474978 587.942569,48.3474978 C581.221189,48.3474978 575.602978,53.126464 575.602978,58.8099664 L575.602978,84.6577733 L569.805619,84.6577733 L569.805619,44.002983 L575.602978,44.002983 L575.602978,50.5183846 C577.914378,46.2108737 583.070579,43.0614431 588.725159,43.0614431 C597.50875,43.0614431 603.696729,49.5782152 603.696729,58.7729626 M382.148465,158.90649 L395.875436,178.852883 L389.011277,178.852883 L375.569864,159.449211 L361.522315,159.449211 L361.522315,178.852883 L355.513482,178.852883 L355.513482,124.913745 L377.027286,124.913745 C387.980845,124.913745 396.550432,132.044506 396.550432,142.180793 C396.586636,150.688915 390.576456,157.13305 382.148465,158.90649 M361.558683,153.657439 L375.996854,153.657439 C384.637666,153.657439 390.505067,149.421194 390.505067,142.180793 C390.505067,134.940392 384.637666,130.705518 375.996854,130.705518 L361.558683,130.705518 L361.558683,153.657439 Z M436.024568,169.695139 L439.580569,173.531195 C436.09461,177.368621 429.08902,179.831427 423.542198,179.831427 C412.909217,179.831427 403.343037,170.96149 403.343037,158.472038 C403.343037,146.380034 412.304428,137.33056 423.008798,137.33056 C435.02781,137.33056 441.92699,146.597945 441.92699,160.825203 L409.281827,160.825203 C410.135806,168.753599 415.611239,174.581005 423.470808,174.581005 C428.164999,174.545372 433.534021,172.445752 436.024568,169.695139 M409.316849,155.539148 L436.166,155.539148 C435.38341,148.22748 431.152578,142.579611 423.186598,142.579611 C416.109618,142.579611 410.420017,147.683388 409.316849,155.539148 M460.383172,138.27073 L470.198542,138.27073 L470.198542,143.521151 L460.383172,143.521151 L460.383172,178.852883 L454.58716,178.852883 L454.58716,143.521151 L448.327791,143.521151 L448.327791,138.27073 L454.58716,138.27073 L454.58716,132.696868 C454.58716,126.650181 458.605172,122.34267 464.294772,122.34267 C466.978194,122.34267 469.58367,123.260768 471.692331,124.949379 L468.847531,129.25689 C467.993552,128.31535 466.464741,127.591721 464.686741,127.591721 C462.37534,127.591721 460.348151,129.728345 460.348151,132.696868 L460.348151,138.27073 L460.383172,138.27073 Z M508.996663,169.695139 L512.552663,173.531195 C509.066705,177.368621 502.061115,179.831427 496.514293,179.831427 C485.881312,179.831427 476.315132,170.96149 476.315132,158.472038 C476.315132,146.380034 485.276523,137.33056 495.980893,137.33056 C507.999905,137.33056 514.899085,146.597945 514.899085,160.825203 L482.253922,160.825203 C483.107901,168.753599 488.583334,174.581005 496.442903,174.581005 C501.137093,174.545372 506.542484,172.445752 508.996663,169.695139 M482.325312,155.539148 L509.174463,155.539148 C508.391873,148.22748 504.159694,142.579611 496.193714,142.579611 C489.116734,142.579611 483.392112,147.683388 482.325312,155.539148 M546.121848,137.33056 L546.121848,142.579611 C537.089067,142.579611 530.688266,148.22748 530.688266,156.154507 L530.688266,178.852883 L524.892255,178.852883 L524.892255,138.2721 L530.688266,138.2721 L530.688266,146.199127 C533.071056,140.769168 538.797025,137.33056 546.121848,137.33056 M584.705801,169.695139 L588.263148,173.531195 C584.77719,177.368621 577.7716,179.831427 572.224777,179.831427 C561.591797,179.831427 552.025617,170.96149 552.025617,158.472038 C552.025617,146.380034 560.987007,137.33056 571.691377,137.33056 C583.71039,137.33056 590.60957,146.597945 590.60957,160.825203 L557.964407,160.825203 C558.817039,168.753599 564.293819,174.581005 572.153388,174.581005 C576.81121,174.545372 582.2166,172.445752 584.705801,169.695139 M557.999428,155.539148 L584.848579,155.539148 C584.06599,148.22748 579.83381,142.579611 571.904199,142.579611 C564.792197,142.579611 559.066228,147.683388 557.999428,155.539148 M633.994124,153.04208 L633.994124,178.889887 L628.198112,178.889887 L628.198112,153.838346 C628.198112,147.248937 624.108711,142.615245 618.24131,142.615245 C611.519931,142.615245 605.900372,147.394211 605.900372,153.077713 L605.900372,178.92552 L600.139382,178.92552 L600.139382,138.2721 L605.93674,138.2721 L605.93674,144.787502 C608.248141,140.479991 613.404342,137.33056 619.058921,137.33056 C627.842512,137.33056 633.994124,143.845962 633.994124,153.04208 M643.560304,158.544675 C643.560304,146.996763 653.055095,137.33056 664.221475,137.33056 C669.626866,137.33056 674.641635,139.611088 678.410456,143.30324 L674.392445,147.321574 C671.760466,144.425687 668.133076,142.615245 664.221475,142.615245 C656.291863,142.615245 649.641873,149.928283 649.641873,158.544675 C649.641873,167.269338 656.291863,174.581005 664.221475,174.581005 C668.239487,174.581005 671.938266,172.699296 674.641635,169.622502 L678.659646,173.640836 C674.889477,177.478262 669.769644,179.831427 664.221475,179.831427 C653.055095,179.831427 643.560304,170.092587 643.560304,158.544675 M718.097578,169.695139 L721.653578,173.531195 C718.168967,177.368621 711.163377,179.831427 705.615208,179.831427 C694.982227,179.831427 685.416047,170.96149 685.416047,158.472038 C685.416047,146.380034 694.377438,137.33056 705.081808,137.33056 C717.102167,137.33056 724,146.597945 724,160.825203 L691.354837,160.825203 C692.208816,168.753599 697.685596,174.581005 705.543818,174.581005 C710.238008,174.545372 715.643399,172.445752 718.097578,169.695139 M691.391205,155.539148 L718.23901,155.539148 C717.457767,148.22748 713.225588,142.579611 705.294629,142.579611 C698.182628,142.579611 692.493027,147.683388 691.391205,155.539148 M393.349867,260.886093 L363.798694,260.886093 L358.464694,273.122 L351.921114,273.122 L375.284307,219.145859 L381.827887,219.145859 L405.192427,273.122 L398.648847,273.122 L393.349867,260.886093 Z M390.897035,255.057316 L378.627486,226.711071 L366.287895,255.057316 L390.897035,255.057316 Z M433.925989,271.492465 C431.8143,273.17543 429.210799,274.092837 426.52843,274.099174 C420.803808,274.099174 416.820818,269.791663 416.820818,263.746346 L416.820818,237.825902 L410.561449,237.825902 L410.561449,232.576851 L416.820818,232.576851 L416.820818,221.426387 L422.616829,221.426387 L422.616829,232.576851 L432.432199,232.576851 L432.432199,237.825902 L422.616829,237.825902 L422.616829,263.746346 C422.616829,266.714869 424.608998,268.850123 426.95542,268.850123 C428.73342,268.850123 430.263578,268.126494 431.11621,267.184954 L433.925989,271.492465 Z M442.10479,218.239952 L447.902149,218.239952 L447.902149,273.157634 L442.10479,273.157634 L442.10479,218.239952 Z M492.032924,248.396641 L492.032924,273.122 L486.236912,273.122 L486.236912,266.750502 C483.392112,271.529468 477.453321,274.06354 472.189363,274.06354 C463.797741,274.06354 457.609761,269.103667 457.609761,261.102633 C457.609761,253.030333 464.721762,247.600375 473.256163,247.600375 C477.559732,247.600375 482.147512,248.540544 486.236912,249.880902 L486.236912,248.396641 C486.236912,242.894045 484.066944,236.630818 475.426132,236.630818 C471.408121,236.630818 467.388762,238.44126 463.761372,240.32297 L461.449972,235.545374 C467.175941,232.648117 471.941521,231.635311 475.816753,231.635311 C486.698923,231.562674 492.032924,238.585164 492.032924,248.396641 M486.236912,260.414637 L486.236912,254.225417 C482.320809,253.128408 478.278355,252.56795 474.216553,252.558878 C468.277762,252.558878 463.26434,255.998856 463.26434,260.886093 C463.26434,265.917233 467.602931,268.885756 473.221142,268.885756 C478.448732,268.885756 484.708101,266.135144 486.236912,260.414637 M501.456325,268.018223 L504.480273,263.709342 C509.031684,267.076683 513.583095,268.814489 517.993075,268.814489 C523.255686,268.814489 526.776666,266.316051 526.776666,262.442991 C526.776666,258.02584 522.153865,256.614215 516.748475,255.057316 C507.110905,252.234067 503.413473,249.338181 503.413473,243.509404 C503.413473,236.123729 509.422305,231.562674 517.388285,231.562674 C522.331665,231.562674 527.416476,233.30048 531.648656,236.123729 L528.875245,240.686155 C524.855887,238.079446 520.944286,236.848729 517.388285,236.848729 C512.908263,236.848729 509.209484,238.875712 509.209484,242.821408 C509.209484,246.369657 512.125674,247.455101 519.558254,249.880902 C525.959055,251.907886 532.609045,254.115776 532.609045,261.827633 C532.609045,269.284574 526.278287,274.06354 518.028096,274.06354 C512.409885,274.06354 506.221905,271.96392 501.456325,268.018223" id="Shape" fill="#000000"></path>
            </g>
        </g>
        <g id="Mess" transform="translate(0.001509, 280.845111)" stroke="#9B9B9B" stroke-dasharray="8" stroke-linecap="square" stroke-width="4">
            <path d="M-0.00150901564,219.437958 C23.8699899,245.056335 68.4432853,263.488977 133.718377,274.735882 C209.69763,287.827116 302.484869,192.605267 369.606695,196.504122 C485.823019,203.254692 521.547095,117.957088 591.888921,117.377824 C740.393701,116.154889 841.87755,241.290045 1023.88408,233.428002 C1147.1466,228.103493 1228.33824,6.33178486 1311.49849,1.15488859 C1473.22702,-8.91304421 1521.41444,200.808851 1583.23701,196.504122 C1647.27905,192.044851 1682.36036,72.3911386 1759.12349,47.4328629 C1791.96892,36.7537088 1846.09392,56.6610507 1921.49849,107.154889" transform="translate(960.748491, 138.388238) scale(-1, 1) translate(-960.748491, -138.388238) "></path>
            <path d="M-0.00150901564,8.15488859 C28.0877596,12.9946727 142.278039,114.748931 213.498491,118.544286 C284.718943,122.339641 471.645536,2.68622029 579.298491,67.3594562 C626.408536,95.6611323 726.186744,241.664716 870.170056,273.168016 C992.485762,299.930481 1158.75041,215.218686 1224.13291,210.995236 C1295.42338,206.390153 1455.75238,141.86918 1625.67437,131.831785 C1735.36445,125.352326 1866.71624,164.715039 1921.49849,180.014497"></path>
            <path d="M0.998490984,423.036257 C62.3900658,271.204325 125.723399,200.911812 190.998491,212.158718 C266.977744,225.249952 246.199757,445.199124 327.418489,445.199124 C419.750733,445.199124 413.935673,383.797772 498.216439,388.089051 C531.965585,389.807438 584.85708,258.26582 638.953701,253.330885 C719.951004,245.941949 839.263334,382.656924 911.926995,385.040644 C1120.80219,391.892763 1436.18762,274.496277 1574.61884,264.595646 C1642.88971,259.712899 1663.15842,405.357307 1765.63595,408.130095 C1868.11348,410.902883 1875.71107,262.028593 1925.99849,262.028593"></path>
            <path d="M-0.00150901564,389.176927 C62.3747146,264.372555 125.054252,207.593822 188.037103,218.840728 C261.348222,231.931961 328.159252,389.312522 406.525857,389.312522 C495.615705,389.312522 650.303846,291.476065 777.681642,286.086842 C905.059439,280.69762 995.736177,313.486096 1034.1977,313.486096 C1112.59562,313.486096 1326.54184,156.985188 1446.99849,160.119497 C1567.45514,163.253807 1591.11601,376.051047 1724.68599,366.150416 C1849.00337,356.935618 1822.78737,311.416299 1925.99849,311.416299" transform="translate(962.998491, 274.692781) scale(-1, 1) translate(-962.998491, -274.692781) "></path>
        </g>
        <g id="TypeLogos" transform="translate(284.000000, 251.000000)">
            <g id="Group-2" transform="translate(0.000000, 409.000000)">
                <g id="Group-4" fill="url(#radialGradient-1)">
                    <g id="Group-3">
                        <circle id="Oval" cx="53" cy="53" r="53"></circle>
                    </g>
                </g>
                <g id="filetype-json" transform="translate(24.000000, 19.000000)" fill="#FFFFFF" fill-rule="nonzero">
                    <path d="M56.0706582,19.1163638 L56.0706582,46.7288893 L51.7691284,46.7288893 L51.7691284,19.1163638 L43.1660689,19.1163638 C39.602565,19.1163638 36.7137742,16.263468 36.7137742,12.7442425 L36.7137742,4.24808085 L13.0553605,4.24808085 C10.6796912,4.24808085 8.7538307,6.15001143 8.7538307,8.4961617 L8.7538307,46.7288893 L4.45230092,46.7288893 L4.45230092,8.4961617 C4.45230092,3.80386116 8.30402188,0 13.0553605,0 L36.7137742,0 L56.0706582,19.1163638 Z M13.7048915,64.9531562 C13.4219975,64.353953 13.2598292,63.7061259 13.2274217,63.0457679 L16.5137904,63.0457679 C16.6355315,63.7158221 17.0325619,64.3062742 17.6106805,64.6770309 C17.9117876,64.8837709 18.2702484,65.0451979 18.6860629,65.1613122 C19.0932744,65.2774264 19.5506704,65.3354835 20.0582509,65.3354835 C20.7608341,65.3354835 21.3530114,65.2363616 21.8347827,65.0381178 C22.2733373,64.8759306 22.6545131,64.5910176 22.9316728,64.2182382 C23.1777805,63.8541714 23.3039783,63.4239021 23.2930013,62.9862948 C23.3164928,62.4470486 23.0725254,61.9303044 22.6391688,61.6014204 C22.2032805,61.2615739 21.539411,60.9882807 20.6475605,60.7815408 L17.9892151,60.1740652 C17.1693544,60.0044165 16.3851041,59.6969134 15.6706906,59.2649759 C15.0383776,58.8828273 14.5168007,58.3457812 14.1565521,57.7059303 C13.7962562,57.0186502 13.6144512,56.2537549 13.6274639,55.4799359 C13.6274639,54.4434042 13.8998942,53.538563 14.4447546,52.7654122 C14.9953504,51.9950936 15.7524196,51.3975302 16.7159623,50.9727221 C17.6823727,50.547914 18.7964689,50.336926 20.0582509,50.3397299 C21.365916,50.3397299 22.4828799,50.5549942 23.4091426,50.9854664 C24.3440084,51.4187706 25.0609301,51.9993417 25.5599075,52.7271795 C26.0760911,53.4493533 26.3628598,54.2508245 26.4202135,55.1315933 L23.1940662,55.1315933 C23.1204253,54.7284618 22.9426245,54.3509401 22.6778826,54.0355884 C22.3982198,53.6934371 22.0336846,53.4285549 21.6197063,53.2666858 C21.1157128,53.060748 20.5733439,52.962308 20.0281402,52.9778163 C19.0990098,52.9778163 18.3648821,53.1930524 17.825757,53.6235246 C17.3117262,54.0104066 17.0159691,54.6166744 17.029974,55.2547876 C17.029974,55.7645573 17.2364474,56.1893654 17.6493943,56.5292119 C18.1655504,56.901438 18.7592097,57.1553971 19.3872123,57.272626 L22.0584623,57.8801016 C22.9933281,58.0925056 23.8048834,58.3912873 24.4931281,58.7764466 C25.1568474,59.134525 25.7132381,59.6590926 26.1062018,60.2972596 C26.4933395,60.9259755 26.6869083,61.7189506 26.6869083,62.6761849 C26.6869083,63.7240448 26.4173458,64.6529585 25.8782207,65.4629259 C25.3086213,66.296859 24.5019248,66.9457261 23.5596962,67.3278334 C22.5531382,67.7752979 21.3229007,67.9990302 19.8689836,67.9990302 C18.7763951,67.9990302 17.8228893,67.8715877 17.0084663,67.6167029 C16.2591996,67.3951136 15.5608163,67.0315032 14.9523351,66.5461865 C14.4242249,66.1110249 13.9985263,65.5673924 13.7048915,64.9531562 M0.352943047,64.8129695 C0.113737309,64.1799657 -0.00581770792,63.5089855 0.00021760521,62.8333639 L3.28658635,62.8333639 C3.29962444,63.2351306 3.40869771,63.6281556 3.60489956,63.9803457 C4.00927105,64.6593789 4.76096874,65.0616254 5.55779407,65.0253736 C6.37508473,65.0253736 6.98016659,64.7931451 7.37303964,64.3286883 C7.76591269,63.8613994 7.96234922,63.2015309 7.96234922,62.3490826 L7.96234922,50.6881007 L11.3648593,50.6881007 L11.3648593,62.264121 C11.3648593,64.1332766 10.8529772,65.5563837 9.82921314,66.5334423 C8.81118443,67.5105009 7.39884882,67.9990302 5.59220631,67.9990302 C4.76003421,68.0129145 3.93221241,67.8776181 3.1489374,67.5997106 C2.49048381,67.3505782 1.89357015,66.9653052 1.39821478,66.4697211 C0.935575005,65.9963005 0.579380508,65.4317336 0.352943047,64.8129695 M39.4581502,58.0797614 L39.4581502,60.2972596 C39.4581502,61.3847683 39.2903906,62.2924416 38.9548712,63.0202794 C38.6695638,63.69246 38.1871935,64.2649996 37.5697787,64.6642867 C36.9584216,65.0226488 36.258948,65.2078372 35.5480597,65.1995449 C34.8371713,65.2078372 34.1376977,65.0226488 33.5263407,64.6642867 C32.9138601,64.2618122 32.4350825,63.6899853 32.1498511,63.0202794 C31.7886196,62.1580759 31.6170699,61.2298965 31.6465722,60.2972596 L31.6465722,58.0797614 C31.6465722,56.9865886 31.8143318,56.0789153 32.1498511,55.3567416 C32.4350825,54.6870357 32.9138601,54.1152087 33.5263407,53.7127343 C34.1336152,53.3435715 34.8350493,53.1534424 35.5480597,53.1647318 C36.3079966,53.1647318 36.9819029,53.3473993 37.5697787,53.7127343 C38.1871935,54.1120213 38.6695638,54.6845609 38.9548712,55.3567416 C39.2903906,56.0789153 39.4581502,56.9865886 39.4581502,58.0797614 M42.9122786,60.2845153 L42.9122786,58.1052499 C42.9122786,56.5051394 42.6183408,55.1273452 42.030465,53.9718672 C41.4769495,52.8475586 40.5923149,51.914686 39.4925625,51.2955763 C38.4028416,50.6725244 37.0894412,50.3609985 35.5523612,50.3609985 C34.0210166,50.3609985 32.7018808,50.6725244 31.5949538,51.2955763 C30.4946887,51.9088556 29.6106283,52.8397408 29.0613528,53.963371 C28.473477,55.116017 28.1795392,56.4966432 28.1795392,58.1052499 L28.1795392,60.2845153 C28.1795392,61.8761296 28.473477,63.2539239 29.0613528,64.417898 C29.6492285,65.5705439 30.4937622,66.4569768 31.5949538,67.0771966 C32.7018808,67.6917523 34.0210166,67.9990302 35.5523612,67.9990302 C37.0894412,67.9990302 38.4042754,67.6917523 39.496864,67.0771966 C40.5980556,66.4541448 41.4425893,65.5677119 42.030465,64.417898 C42.6154731,63.2567559 42.909411,61.8789617 42.9122786,60.2845153 M48.4612521,56.3125597 L48.4612521,67.676176 L45.2523108,67.676176 L45.2523108,50.6881007 L48.0999235,50.6881007 L55.6362037,61.9879958 L55.7738527,61.9879958 L55.7738527,50.6881007 L59,50.6881007 L59,67.6804241 L56.1781965,67.6804241 L48.6032025,56.3125597 L48.4612521,56.3125597 Z" id="Shape"></path>
                </g>
            </g>
            <g id="Group-5" transform="translate(41.000000, 202.000000)">
                <g id="TypeLogos" fill="url(#radialGradient-1)">
                    <g id="Group-2">
                        <g id="Group-4">
                            <g id="Group-3">
                                <circle id="Oval" cx="53" cy="53" r="53"></circle>
                            </g>
                        </g>
                    </g>
                </g>
                <g id="filetype-csv" transform="translate(24.000000, 19.000000)" fill="#FFFFFF" fill-rule="nonzero">
                    <path d="M59,19.0556318 L59,59.2841877 C59,63.9615809 55.2264,67.7533574 50.5714286,67.7533574 L46.3571429,67.7533574 L46.3571429,63.5187725 L50.5714286,63.5187725 C52.8989143,63.5187725 54.7857143,61.6228843 54.7857143,59.2841877 L54.7857143,19.0556318 L46.3571429,19.0556318 C42.8659143,19.0556318 40.0357143,16.2117994 40.0357143,12.7037545 L40.0357143,4.23458484 L16.8571429,4.23458484 C14.5296571,4.23458484 12.6428571,6.13047304 12.6428571,8.46916967 L12.6428571,46.5804332 L8.42857143,46.5804332 L8.42857143,8.46916967 C8.42857143,3.79177642 12.2021714,0 16.8571429,0 L40.0357143,0 L59,19.0556318 Z M14.8216429,62.8454735 C14.870428,64.1946964 15.4841875,65.4604249 16.5115714,66.3305369 C17.0594286,66.787872 17.7309048,67.1435771 18.526,67.3976522 C19.3239048,67.6545504 20.2580714,67.7829995 21.3285,67.7829995 C22.7529286,67.7829995 23.959619,67.559978 24.9485714,67.1139351 C25.9431429,66.6678921 26.7003095,66.0468197 27.2200714,65.2507177 C27.7454524,64.4489697 28.0081429,63.5230071 28.0081429,62.4728301 C28.0081429,61.5242831 27.8199048,60.7338272 27.4434286,60.1014626 C27.057857,59.4668782 26.5128016,58.9454861 25.8630714,58.5897158 C25.1173358,58.1737296 24.3130804,57.8738937 23.4777857,57.700453 L20.8607143,57.0906727 C20.2450978,56.9725459 19.663453,56.7179356 19.1581429,56.3453858 C18.7682689,56.0432753 18.5432951,55.5738921 18.5512857,55.079245 C18.5512857,54.4186497 18.8111667,53.8766229 19.3309286,53.4531644 C19.859119,53.0240598 20.5783571,52.8095075 21.4886429,52.8095075 C22.089881,52.8095075 22.6096429,52.9054914 23.0479286,53.0974592 C23.4535106,53.2588141 23.8106522,53.5228548 24.0846429,53.8639191 C24.3440153,54.178269 24.5182098,54.5545912 24.5903571,54.956442 L27.7510714,54.956442 C27.6967,54.0944482 27.4048802,53.2646202 26.9082143,52.559667 C26.3771596,51.7981134 25.6483175,51.1975841 24.8010714,50.8234872 C23.7667627,50.3655437 22.643682,50.1456328 21.5139286,50.1798303 C20.2805476,50.1798303 19.1904524,50.3915595 18.2436429,50.815018 C17.2968333,51.2356534 16.5565238,51.8299069 16.0227143,52.5977782 C15.4889048,53.3684727 15.222,54.2704392 15.222,55.3036779 C15.222,56.156241 15.393381,56.8958818 15.7361429,57.5226004 C16.0845238,58.152142 16.579,58.6701729 17.2195714,59.076693 C17.8601429,59.4803901 18.6173095,59.7810456 19.4910714,59.9786596 L22.0955,60.5884398 C22.9664524,60.794523 23.6168571,61.0669479 24.0467143,61.4057147 C24.4712815,61.7335539 24.7103007,62.2486563 24.6872857,62.7861894 C24.6967968,63.2228598 24.5716755,63.6518002 24.3290714,64.014219 C24.0575331,64.385814 23.6840883,64.6698219 23.2544286,64.8314938 C22.7852381,65.0291078 22.2050714,65.1279148 21.5139286,65.1279148 C21.0222619,65.1279148 20.5727381,65.0714536 20.1653571,64.9585314 C19.7917509,64.8576597 19.4382096,64.6929295 19.1202143,64.4715541 C18.5538211,64.1019753 18.1648433,63.5133991 18.0455714,62.8454735 L14.8216429,62.8454735 Z M3.39671429,57.9841701 C3.39671429,56.9311701 3.54,56.0376727 3.82657143,55.3036779 C4.07698295,54.6273921 4.51953019,54.0398859 5.09928571,53.6140786 C5.68885906,53.2131924 6.38958908,53.0101136 7.10107143,53.0339405 C7.73321429,53.0339405 8.29230952,53.1708587 8.77835714,53.4446952 C9.25329547,53.6996901 9.64971353,54.0804443 9.92464286,54.5456873 C10.2183664,55.0354789 10.3917244,55.5885419 10.4303571,56.1590641 L13.6542857,56.1590641 L13.6542857,55.854174 C13.5977511,54.2770902 12.8853106,52.7961874 11.6904286,51.7720342 C11.0876356,51.2526664 10.3867092,50.8609071 9.62964286,50.6202271 C8.8080344,50.3374203 7.94419552,50.198483 7.07578571,50.2094724 C5.5755,50.2094724 4.2957619,50.5242432 3.23657143,51.1537848 C2.183,51.7805034 1.37947619,52.6725892 0.826,53.8300424 C0.278142857,54.9874956 0.00280952381,56.3693818 0,57.975701 L0,60.0845242 C0,61.6880204 0.271119048,63.065672 0.813357143,64.217479 C1.36683333,65.366463 2.17035714,66.2500797 3.22392857,66.8683291 C4.2775,67.4809324 5.56145238,67.787234 7.07578571,67.787234 C8.30916667,67.787234 9.41190476,67.5557434 10.384,67.0927621 C11.3560952,66.6297809 12.1287143,65.988947 12.7018571,65.1702606 C13.283251,64.32939 13.6136733,63.3392247 13.6542857,62.3161504 L13.6542857,61.994322 L10.4345714,61.994322 C10.3946685,62.5395183 10.2240505,63.0669136 9.93728571,63.5314763 C9.65643001,63.9811339 9.26054684,64.3467497 8.791,64.5901225 C8.26343699,64.8420395 7.68509786,64.9681189 7.10107143,64.9585314 C6.3892292,64.9775397 5.68790115,64.7829346 5.08664286,64.3995662 C4.50899221,63.9872588 4.06957872,63.4083967 3.82657143,62.7396089 C3.51853422,61.8895809 3.37270299,60.9888299 3.39671429,60.0845242 L3.39671429,57.9841701 Z M38.1182143,67.461171 L34.102,67.461171 L28.4632857,50.5270663 L32.3277857,50.5270663 L36.1037857,63.8151935 L36.2639286,63.8151935 L40.0062143,50.5270663 L43.7105714,50.5270663 L38.1182143,67.461171 Z" id="Shape"></path>
                </g>
            </g>
            <g id="Group-6" transform="translate(53.000000, 0.000000)">
                <g id="Group-5" fill="url(#radialGradient-1)">
                    <g id="TypeLogos">
                        <g id="Group-2">
                            <g id="Group-4">
                                <g id="Group-3">
                                    <circle id="Oval" cx="53" cy="53" r="53"></circle>
                                </g>
                            </g>
                        </g>
                    </g>
                </g>
                <g id="filetype-xml" transform="translate(24.000000, 19.000000)" fill="#FFFFFF" fill-rule="nonzero">
                    <path d="M59,18.9642857 L59,59 C59,63.6549715 55.2264,67.4285714 50.5714286,67.4285714 L50.5714286,63.2142857 C52.8989143,63.2142857 54.7857143,61.3274857 54.7857143,59 L54.7857143,18.9642857 L46.3571429,18.9642857 C42.8659143,18.9642857 40.0357143,16.1340857 40.0357143,12.6428571 L40.0357143,4.21428571 L16.8571429,4.21428571 C14.5296571,4.21428571 12.6428571,6.1010857 12.6428571,8.42857143 L12.6428571,46.3571429 L8.42857143,46.3571429 L8.42857143,8.42857143 C8.42857143,3.77359997 12.2021714,0 16.8571429,0 L40.0357143,0 L59,18.9642857 Z M14.8637857,49.9392857 L11.1004286,49.9392857 L7.63207143,56.0036429 L7.48035714,56.0036429 L3.97407143,49.9392857 L0.0505714286,49.9392857 L5.2215,58.2962143 L0,66.7964286 L3.6285,66.7964286 L7.22328571,60.8332143 L7.37078571,60.8332143 L10.9529286,66.7964286 L14.7795,66.7964286 L9.49478571,58.4015714 L14.8637857,49.9392857 Z M18.8842143,66.7922143 L18.8842143,55.5822143 L19.0443571,55.5822143 L23.0563571,64.6808571 L25.2309286,64.6808571 L29.2176429,55.578 L29.3777857,55.578 L29.3777857,66.7922143 L32.391,66.7922143 L32.391,49.9392857 L29.0195714,49.9392857 L24.2152857,60.8795714 L24.1099286,60.8795714 L19.3014286,49.9392857 L15.9047143,49.9392857 L15.9047143,66.7922143 L18.8842143,66.7922143 Z M38.7335,63.9517857 L45.8809286,63.9517857 L45.8809286,66.7922143 L35.4,66.7922143 L35.4,49.9392857 L38.7335,49.9392857 L38.7335,63.9517857 Z" id="Shape"></path>
                </g>
            </g>
        </g>
        <g id="Locks" transform="translate(451.000000, 282.000000)">
            <g id="Group-3" transform="translate(53.000000, 0.000000)">
                <circle id="Oval" fill="url(#radialGradient-1)" cx="53" cy="53" r="53"></circle>
                <g id="lock-fill" transform="translate(28.000000, 23.000000)" fill="#FFFFFF" fill-rule="nonzero">
                    <path d="M24.5,3.875 C29.9123905,3.875 34.3,7.34479319 34.3,11.625 L34.3,27.125 L14.7,27.125 L14.7,11.625 C14.7,7.34479319 19.0876095,3.875 24.5,3.875 M39.2,11.625 C39.2,5.20468978 32.6185858,0 24.5,0 C16.3814142,0 9.8,5.20468978 9.8,11.625 L9.8,27.125 C4.38760945,27.125 0,30.5947932 0,34.875 L0,54.25 C0,58.5302068 4.38760945,62 9.8,62 L39.2,62 C44.6123905,62 49,58.5302068 49,54.25 L49,34.875 C49,30.5947932 44.6123905,27.125 39.2,27.125 L39.2,11.625 Z" id="Shape"></path>
                </g>
            </g>
            <g id="Group-3" transform="translate(13.000000, 153.000000)">
                <circle id="Oval" fill="url(#radialGradient-1)" cx="53" cy="53" r="53"></circle>
                <g id="lock-fill" transform="translate(28.000000, 23.000000)" fill="#FFFFFF" fill-rule="nonzero">
                    <path d="M24.5,3.875 C29.9123905,3.875 34.3,7.34479319 34.3,11.625 L34.3,27.125 L14.7,27.125 L14.7,11.625 C14.7,7.34479319 19.0876095,3.875 24.5,3.875 M39.2,11.625 C39.2,5.20468978 32.6185858,0 24.5,0 C16.3814142,0 9.8,5.20468978 9.8,11.625 L9.8,27.125 C4.38760945,27.125 0,30.5947932 0,34.875 L0,54.25 C0,58.5302068 4.38760945,62 9.8,62 L39.2,62 C44.6123905,62 49,58.5302068 49,54.25 L49,34.875 C49,30.5947932 44.6123905,27.125 39.2,27.125 L39.2,11.625 Z" id="Shape"></path>
                </g>
            </g>
            <g id="Group-3" transform="translate(0.000000, 341.000000)">
                <circle id="Oval" fill="url(#radialGradient-1)" cx="53" cy="53" r="53"></circle>
                <g id="lock-fill" transform="translate(28.000000, 23.000000)" fill="#FFFFFF" fill-rule="nonzero">
                    <path d="M24.5,3.875 C29.9123905,3.875 34.3,7.34479319 34.3,11.625 L34.3,27.125 L14.7,27.125 L14.7,11.625 C14.7,7.34479319 19.0876095,3.875 24.5,3.875 M39.2,11.625 C39.2,5.20468978 32.6185858,0 24.5,0 C16.3814142,0 9.8,5.20468978 9.8,11.625 L9.8,27.125 C4.38760945,27.125 0,30.5947932 0,34.875 L0,54.25 C0,58.5302068 4.38760945,62 9.8,62 L39.2,62 C44.6123905,62 49,58.5302068 49,54.25 L49,34.875 C49,30.5947932 44.6123905,27.125 39.2,27.125 L39.2,11.625 Z" id="Shape"></path>
                </g>
            </g>
        </g>
    </g>
</svg>