<?xml version="1.0" encoding="UTF-8"?>
<svg width="1922px" height="1082px" viewBox="0 0 1922 1082" version="1.1" xmlns="http://www.w3.org/2000/svg" xmlns:xlink="http://www.w3.org/1999/xlink">
    <!-- Generator: Sketch 62 (91390) - https://sketch.com -->
    <title>Artboard</title>
    <desc>Created with Sketch.</desc>
    <defs>
        <radialGradient cx="48.8349452%" cy="54.3460082%" fx="48.8349452%" fy="54.3460082%" r="68.6138795%" gradientTransform="translate(0.488349,0.543460),scale(0.562955,1.000000),rotate(90.000000),translate(-0.488349,-0.543460)" id="radialGradient-1">
            <stop stop-color="#F1B0B0" offset="0%"></stop>
            <stop stop-color="#986A6A" offset="100%"></stop>
        </radialGradient>
        <filter x="-3.2%" y="-2.8%" width="106.5%" height="105.7%" filterUnits="objectBoundingBox" id="filter-2">
            <feOffset dx="0" dy="2" in="SourceAlpha" result="shadowOffsetOuter1"></feOffset>
            <feGaussianBlur stdDeviation="2" in="shadowOffsetOuter1" result="shadowBlurOuter1"></feGaussianBlur>
            <feColorMatrix values="0 0 0 0 0   0 0 0 0 0   0 0 0 0 0  0 0 0 0.5 0" type="matrix" in="shadowBlurOuter1" result="shadowMatrixOuter1"></feColorMatrix>
            <feMerge>
                <feMergeNode in="shadowMatrixOuter1"></feMergeNode>
                <feMergeNode in="SourceGraphic"></feMergeNode>
            </feMerge>
        </filter>
        <filter x="-4.3%" y="-2.2%" width="108.9%" height="104.4%" filterUnits="objectBoundingBox" id="filter-3">
            <feOffset dx="0" dy="2" in="SourceAlpha" result="shadowOffsetOuter1"></feOffset>
            <feGaussianBlur stdDeviation="2" in="shadowOffsetOuter1" result="shadowBlurOuter1"></feGaussianBlur>
            <feColorMatrix values="0 0 0 0 0   0 0 0 0 0   0 0 0 0 0  0 0 0 0.5 0" type="matrix" in="shadowBlurOuter1" result="shadowMatrixOuter1"></feColorMatrix>
            <feMerge>
                <feMergeNode in="shadowMatrixOuter1"></feMergeNode>
                <feMergeNode in="SourceGraphic"></feMergeNode>
            </feMerge>
        </filter>
    </defs>
    <g id="Artboard" stroke="none" stroke-width="1" fill="none" fill-rule="evenodd">
        <rect id="Rectangle" fill="url(#radialGradient-1)" x="0" y="0" width="1922" height="1082"></rect>
        <rect id="Rectangle" fill="#513636" x="0" y="905" width="1922" height="177"></rect>
        <g id="5Mac2" filter="url(#filter-2)" transform="translate(1125.000000, 570.000000)">
            <path d="M286.202405,303.111143 C284.224893,303.111143 278.734806,301.207528 271.668382,298.811038 C266.981623,297.221582 261.618411,295.402863 256.118988,293.724233 C255.91323,293.661428 255.70752,293.598892 255.502081,293.53694 C255.341898,293.678044 255.186578,293.850608 255.006534,294.109044 C254.684674,294.571042 254.592867,294.863837 254.498074,295.253699 C254.352016,295.8544 254.186296,296.766729 254.005566,297.955647 C253.628704,300.434797 253.178673,304.150122 252.676209,308.760124 C251.366618,320.775359 249.697421,338.889443 248.027551,357.011606 C246.35684,375.142883 244.685454,393.282252 243.373081,405.321324 C242.873231,409.906709 242.425962,413.604047 242.050685,416.07335 C241.880849,417.190863 241.727519,418.049662 241.590142,418.615802 C241.234805,418.876147 240.709355,419.007945 239.991506,419.213287 C235.781832,420.417475 225.511511,423.375019 218.043135,422.961383 C215.833439,422.838999 213.875362,422.428374 212.454192,421.52174 C211.335148,420.807847 210.582918,419.769584 210.361005,418.313036 C210.203754,417.28091 210.331789,416.381924 210.688422,415.597727 C211.101722,414.688924 211.810091,413.938038 212.681999,413.295626 C215.453469,411.253637 219.814297,410.289906 223.00139,409.561058 C224.444855,409.230956 225.666598,408.946847 226.450799,408.655025 C226.874146,408.497487 227.194935,408.325702 227.408899,408.158175 C227.536659,408.058143 227.675029,407.921501 227.819954,407.747254 C226.254211,384.12044 227.470344,351.706137 228.292438,329.755466 C228.589777,321.81622 228.835776,315.241868 228.87338,310.975575 C228.888806,309.225475 228.868704,307.85691 228.804681,306.932601 C228.770343,306.436846 228.721045,306.054937 228.662551,305.793287 C228.626806,305.633396 228.568831,305.434335 228.486678,305.197947 C228.299155,305.14298 228.118995,305.09224 227.946544,305.045824 C220.987332,303.172731 199.635779,301.088983 186.784009,304.688762 C186.520474,304.762578 186.105437,304.9647 185.808954,305.750232 C185.690687,306.06358 185.570255,306.514389 185.454567,307.094824 C185.234818,308.19735 185.017703,309.815005 184.800516,311.861838 C184.266074,316.898575 183.722474,324.578455 183.086543,333.56823 C181.445859,356.761596 179.193236,388.709671 174.863076,406.331658 C174.201209,409.025186 172.147588,411.311643 169.38992,413.193983 C166.048564,415.474739 161.661369,417.153684 157.198207,418.164803 C152.206424,419.295681 147.113699,419.593072 143.266429,418.918425 C141.568043,418.6206 140.120528,418.138441 139.068932,417.429764 C138.242349,416.872725 137.671533,416.175299 137.506932,415.292628 C137.198212,413.637115 137.88036,412.393075 139.065007,411.366922 C141.002845,409.688346 144.171692,408.540527 147.307637,407.374179 C150.40546,406.222011 153.478412,405.0585 155.518842,403.501842 C157.252443,402.179267 158.271005,400.581344 158.238867,398.578217 C158.103545,390.143845 158.140036,378.74936 158.178111,366.831624 C158.271259,337.676223 157.920637,306.155819 155.693856,304.797923 C154.273397,303.931723 151.864337,304.263289 148.735063,305.7293 C145.108467,307.428297 140.493409,310.498476 135.757095,313.6559 C130.537289,317.135639 125.167394,320.724153 120.841952,322.606097 C118.155708,323.774847 115.842332,324.424266 114.443195,323.436637 C108.127889,318.978765 108.747518,305.963634 109.041528,295.513258 C109.172773,290.848227 109.284158,286.624163 108.858169,283.693609 C108.673713,282.424659 108.383646,281.381127 107.978871,280.61045 C107.498398,279.695644 106.851876,279.127286 106.064893,278.881908 C98.81403,276.621117 89.874775,276.77478 81.5634208,276.936489 C74.0398354,277.08287 67.0411455,277.257675 62.4299885,275.438198 C60.799694,274.794914 59.4828975,273.896969 58.6066778,272.606402 C57.797532,271.414628 57.3740745,269.898297 57.3740745,267.989377 C57.3740745,255.648654 55.3677717,248.760969 51.8715726,244.809102 C47.4492154,239.810369 40.5617632,239.400037 31.6942069,239.048996 C25.6923458,238.811399 18.779578,238.543372 11.1806949,236.573478 C9.0212129,236.013666 7.47118715,235.417218 6.45329543,234.693941 C5.65404966,234.126027 5.227847,233.48666 5.18192536,232.690331 C5.04385708,230.296081 7.4534298,227.012349 10.8306779,222.078247 C16.429159,213.898963 24.9172752,201.490734 31.2198934,181.965433 C31.4618057,181.215997 31.3405508,180.359442 30.7649538,179.417767 C30.3042896,178.664122 29.5318335,177.833016 28.5079806,176.954059 C26.0843635,174.873433 22.191976,172.449439 18.0946156,169.905021 C13.4478218,167.01941 8.53171258,163.974409 5.29732445,161.085879 C3.27550309,159.280254 1.81645397,157.573879 1.93595714,155.979041 C2.2229647,152.148759 11.0187839,147.063742 18.5066317,142.440784 C25.5942,138.064957 31.3236652,134.060953 31.2679184,131.875658 C30.9811599,120.634615 29.6056276,111.162813 28.4412058,103.153947 C26.4775701,89.6481057 24.9372506,80.3449048 30.9992727,73.8503805 C38.2106304,66.12452 52.2378387,68.1130772 66.421987,69.9055954 C82.0237602,71.8772656 97.8451027,73.676327 106.491345,64.5984035 C112.686842,58.093583 118.459224,51.0351498 124.163094,44.0589851 C142.03821,22.1966771 159.189925,1 187.053728,1 C191.99727,1 195.303024,2.72264045 197.675947,5.57004648 C200.996536,9.55461108 202.553556,15.6085176 204.25827,22.0603155 C205.732527,27.6399047 207.294914,33.5194767 210.030105,38.7282126 C210.646005,39.9010966 211.405992,40.6443682 212.252277,41.0784836 C213.186985,41.5579572 214.247154,41.6695606 215.41275,41.4685112 C217.923806,41.0353883 221.003278,39.0342134 224.206469,36.8984853 C227.155801,34.9320183 230.221451,32.8602926 233.044369,32.1096335 C234.81285,31.6393663 236.485571,31.7084469 237.913976,32.8788684 C239.358598,34.0625769 239.201106,38.3333391 239.286058,42.6730035 C239.364685,46.6895601 239.467346,50.9169199 240.376394,53.7528132 C240.770043,54.9808536 241.318827,55.9652745 242.030169,56.6365326 C242.764419,57.3294083 243.671071,57.7209947 244.797031,57.7178325 C253.693586,57.6928469 266.459511,51.9692794 278.433373,46.5541302 C286.478147,42.9159014 294.15776,39.4329413 300.009429,38.0508487 C302.156385,37.5437639 304.043686,37.3193349 305.591238,37.5127519 C306.817142,37.6659685 307.816783,38.0835545 308.49712,38.9023687 C313.311498,44.6966749 312.03153,55.2881895 310.851299,66.4575141 C309.537903,78.8870754 308.244052,92.0640947 313.996792,101.00233 C318.889276,108.603955 329.768155,112.708277 340.026442,116.486527 C346.452827,118.853442 352.605994,121.099619 356.676133,124.14147 C359.459265,126.221467 361.253146,128.676936 361.253146,131.901159 C361.253146,137.858212 355.508057,143.785511 349.64635,150.040194 C342.177505,158.009758 334.494796,166.452771 335.716956,175.74306 C336.455254,181.355249 346.455211,188.587837 355.572042,194.945335 C362.293186,199.632234 368.719097,203.768612 368.893142,206.428402 C369.233229,211.625687 367.164955,215.175318 363.611617,217.809004 C358.570862,221.545143 350.69171,223.50704 342.355294,225.620712 C332.368424,228.152852 321.737651,230.882491 314.222078,236.753426 C306.253083,242.97856 305.063298,256.548446 304.043032,270.051642 C303.308144,279.77786 302.622414,289.415531 299.069903,295.82441 C297.779148,298.152987 296.10231,300.042094 293.871358,301.30869 C291.814587,302.476397 289.294597,303.111143 286.202405,303.111143 Z" id="Oval" stroke="#000000" stroke-width="2" fill="#F4A9C4"></path>
            <path d="M190.625,213 C209.41053,213 226.161369,215.39199 238.388977,219.069131 C244.791802,220.994616 249.94377,223.265789 253.467597,225.737903 C256.490907,227.858882 258.339295,230.100491 258.473741,232.433424 C258.294637,232.515318 258.053846,232.579756 257.761545,232.643091 C256.752785,232.861664 255.240751,232.982007 253.30323,233.039607 C248.299182,233.188372 240.554367,232.895741 231.284727,232.546977 C219.899869,232.118629 206.224546,231.604401 192.492535,231.706914 C179.9372,231.800642 167.330931,232.3512 156.317892,232.832352 C145.210226,233.317638 135.729517,233.73342 129.575739,233.532032 C127.199112,233.454255 125.33436,233.28856 124.088614,232.987222 C123.624189,232.874881 123.2604,232.755086 123.021562,232.593717 C123.065183,230.190618 124.917036,227.895106 127.992984,225.726524 C131.499266,223.254551 136.62643,220.983904 143.004722,219.05932 C155.17307,215.387646 171.856093,213 190.625,213 Z" id="Oval" stroke="#000000" stroke-width="2" fill="#B897FD"></path>
            <circle id="Oval" stroke="#000000" stroke-width="2" fill="#B897FD" cx="137" cy="124" r="9"></circle>
            <circle id="Oval" stroke="#000000" stroke-width="2" fill="#B897FD" cx="106.93014" cy="166" r="9"></circle>
            <circle id="Oval" stroke="#000000" stroke-width="2" fill="#B897FD" cx="193" cy="166" r="9"></circle>
            <circle id="Oval" stroke="#000000" stroke-width="2" fill="#B897FD" cx="244" cy="124" r="9"></circle>
            <circle id="Oval" stroke="#000000" stroke-width="2" fill="#B897FD" cx="273.93014" cy="166" r="9"></circle>
            <g id="glasses" transform="translate(87.000000, 83.000000)">
                <path d="M73.6880772,82.6880772 C67.6257696,88.7503848 59.2507696,92.5 50,92.5 L36,92.5 C26.7492304,92.5 18.3742304,88.7503848 12.3119228,82.6880772 C6.24961522,76.6257696 2.5,68.2507696 2.5,59 L2.5,33 C2.5,30.9289322 3.33946609,29.0539322 4.69669914,27.6966991 C6.05393219,26.3394661 7.92893219,25.5 10,25.5 L76,25.5 C78.0710678,25.5 79.9460678,26.3394661 81.3033009,27.6966991 C82.6605339,29.0539322 83.5,30.9289322 83.5,33 L83.5,59 C83.5,68.2507696 79.7503848,76.6257696 73.6880772,82.6880772 Z" id="Rectangle" stroke="#000000" stroke-width="5" fill-opacity="0.452086976" fill="#FFFFFF"></path>
                <path d="M188.688077,82.6880772 C182.62577,88.7503848 174.25077,92.5 165,92.5 L151,92.5 C141.74923,92.5 133.37423,88.7503848 127.311923,82.6880772 C121.249615,76.6257696 117.5,68.2507696 117.5,59 L117.5,33 C117.5,30.9289322 118.339466,29.0539322 119.696699,27.6966991 C121.053932,26.3394661 122.928932,25.5 125,25.5 L191,25.5 C193.071068,25.5 194.946068,26.3394661 196.303301,27.6966991 C197.660534,29.0539322 198.5,30.9289322 198.5,33 L198.5,59 C198.5,68.2507696 194.750385,76.6257696 188.688077,82.6880772 Z" id="Rectangle" stroke="#000000" stroke-width="5" fill-opacity="0.452086976" fill="#FFFFFF"></path>
                <path d="M86,51.7536885 C90.244399,47.2512295 95.1871538,45 100.828265,45 C106.469375,45 111.193287,47.2512295 115,51.7536885" id="Line" stroke="#000000" stroke-width="7" stroke-linecap="square"></path>
                <polygon id="Rectangle" fill="#000000" points="20 0 27.2539967 8.19828755 35.2482535 0 42.9541658 8.19828755 52.4695334 0 58.654335 8.19828755 67 0 67 26 20 26"></polygon>
                <polygon id="Rectangle" fill="#000000" points="136 0 143.253997 8.19828755 151.248253 0 158.954166 8.19828755 168.469533 0 174.654335 8.19828755 183 0 183 26 136 26"></polygon>
                <path d="M109.449612,54.6820054 L116.621936,74.8255552 L124.928677,98.1551239 C125.438125,99.5859153 125.319402,101.087749 124.715618,102.359246 C124.111834,103.630744 123.02299,104.671906 121.592199,105.181354 C120.99997,105.392224 120.375973,105.5 119.747323,105.5 L81.2526774,105.5 C79.7338944,105.5 78.3588944,104.884392 77.3635901,103.889087 C76.3682859,102.893783 75.7526774,101.518783 75.7526774,100 C75.7526774,99.3713499 75.8604538,98.7473528 76.0713232,98.1551239 L91.5503881,54.6820054 C92.4303445,52.2106383 94.228715,50.3299082 96.4249382,49.2870089 C98.6211613,48.2441096 101.215237,48.0390413 103.686604,48.9189977 C106.375911,49.8765537 108.492056,51.9926991 109.449612,54.6820054 Z" id="Triangle" stroke="#000000" stroke-width="5" fill="#FFD1BA"></path>
            </g>
        </g>
        <g id="5cece2" filter="url(#filter-3)" transform="translate(502.500000, 675.500000) scale(-1, 1) translate(-502.500000, -675.500000) translate(340.000000, 357.000000)">
            <path d="M308.710844,480.572415 C307.019851,481.918082 307.082506,489.698675 306.938849,495.093952 C306.873106,497.563039 306.812972,499.626908 306.657538,500.626288 C306.497793,501.653383 306.448728,502.622964 306.402324,503.513013 C306.306659,505.347939 306.1662,506.867925 305.437493,507.981821 C304.815181,508.93308 303.798022,509.662794 301.95144,509.987924 C300.937596,510.166433 300.077647,510.122876 299.350977,509.880262 C298.569539,509.619362 297.922733,509.133676 297.406131,508.386916 C296.557589,507.16033 296.067851,505.110281 295.940872,502.051073 C295.864749,500.217094 295.894627,497.99488 295.925574,495.741236 C295.972222,492.344216 296.026399,488.873212 295.691602,486.617543 C295.586373,485.908572 295.45771,485.334222 295.242502,484.972087 C294.807623,485.17324 294.182707,486.192453 293.314626,487.264106 C291.280479,489.775278 288.426923,493.236792 285.276698,494.726008 C284.500835,495.092785 283.730291,495.208631 283.002708,495.140211 C282.208841,495.065558 281.463062,494.768543 280.817492,494.315216 C279.447695,493.353328 278.557919,491.686714 278.587144,490.108148 C278.652051,486.602197 281.631904,482.726792 284.616099,479.010954 C287.390157,475.556773 290.447702,472.196167 289.441549,469.457796 C289.344004,469.192315 289.281767,468.89456 289.222924,468.588635 C289.162428,468.274119 289.196418,467.850811 288.836092,467.649462 C288.49784,467.460449 287.951003,467.453978 287.10438,467.576688 C285.321767,467.835062 283.251207,468.573125 281.213724,469.291153 C278.927929,470.096689 276.680714,470.874909 274.876908,471.055643 C273.200466,471.223616 271.889454,470.873328 271.038004,469.929866 C270.170358,468.968458 269.7036,468.018374 269.518777,467.100474 C269.306158,466.044522 269.461669,465.016107 269.887763,464.026478 C270.896199,461.684321 273.554582,459.558578 275.729717,457.87488 C276.150536,457.549138 276.549889,457.240137 276.908806,456.949057 C282.318264,452.562008 290.258055,450.252142 298.777329,448.645153 C298.611061,447.098536 298.439586,445.477966 298.260258,443.783166 C296.629278,428.369069 294.347962,406.805678 289.417487,378.884127 C288.250235,372.27392 287.053634,365.981967 285.853496,360.010918 C281.378997,404.981665 268.75783,440.241714 249.324895,463.512766 C247.976795,480.047287 246.724947,502.344485 248.646297,529.781217 C251.230974,566.690184 259.07787,589.823031 263.551272,603.011799 C264.651685,606.256106 265.549275,608.905916 266.120969,611.016776 C269.566811,613.981378 272.590451,619.994329 272.590451,627.798636 C272.590451,629.968987 272.204609,631.672777 271.520924,633.015961 C270.752017,634.526575 269.606593,635.602668 268.144705,636.359564 C264.833766,638.07381 259.760142,638.05388 253.87881,637.960533 C252.54685,637.939393 251.172983,637.917547 249.769699,637.917547 C248.439768,637.917547 247.045859,637.937159 245.618732,637.957202 C238.808211,638.052849 231.265944,638.128359 226.17505,636.260551 C224.121004,635.506938 222.451452,634.43948 221.315465,632.985469 C220.255332,631.628548 219.641853,629.931765 219.641853,627.798636 C219.641853,625.971904 220.506425,624.20987 222.083355,622.562774 C223.681596,620.89342 226.023294,619.331085 228.798462,617.913406 C235.527885,614.475718 244.837606,611.854156 251.793269,610.338787 C242.416486,597.501752 231.973086,570.607257 229.578498,536.412748 C228.287734,517.980724 228.888475,498.209955 230.659849,480.727424 C216.521521,490.521096 200.009991,495.676681 181.402416,495.676681 C173.648428,495.676681 166.140193,494.647329 158.926009,492.658332 C157.100498,505.04064 155.189062,521.33773 155.189062,541.286072 C155.189062,569.786841 159.962698,587.984103 162.683917,598.358818 C163.842931,602.77759 164.614416,605.829584 164.565631,607.690885 C165.028016,609.654238 165.292835,611.80982 165.292835,614.12094 C165.292835,616.291291 164.906993,617.995081 164.223308,619.338265 C163.454401,620.848879 162.308977,621.924972 160.84709,622.681867 C157.53615,624.396113 152.462526,624.376184 146.581194,624.282837 C145.475056,624.265281 144.340034,624.247247 143.185634,624.241636 L142.472083,624.239851 C141.142152,624.239851 139.748243,624.259463 138.321116,624.279506 C131.510595,624.375153 123.968329,624.450663 118.877435,622.582855 C116.823388,621.829241 115.153836,620.761784 114.017849,619.307773 C112.957716,617.950852 112.344238,616.254068 112.344238,614.12094 C112.344238,612.169039 113.33406,610.288918 115.124505,608.543411 C116.957337,606.756581 119.638564,605.098208 122.768636,603.611532 C130.982533,599.710214 142.316503,596.952553 148.872736,595.793208 C143.896416,584.181584 139.739373,566.412273 139.739373,545.362641 C139.739373,525.647243 142.654566,504.156307 146.506156,488.160312 C115.99901,474.376139 91.8330517,442.300861 78.3543516,397.925906 C77.6369515,411.721168 77.0813967,426.684227 77.0813967,442.122405 C77.0813967,469.166738 78.5835051,489.802321 79.6573234,504.557675 C79.936194,508.38964 80.1862387,511.825972 80.3753378,514.875568 C89.6763882,514.918007 98.2939915,515.75127 104.614821,519.261765 C105.018909,519.48619 105.465935,519.721251 105.937012,519.969077 C108.371786,521.24997 111.35935,522.882358 112.759712,525.013975 C113.351401,525.914638 113.683353,526.900419 113.657595,527.977133 C113.635202,528.913209 113.340726,529.929867 112.653392,531.027203 C111.978884,532.104062 110.748622,532.676524 109.068213,532.801808 C107.260396,532.936591 104.912002,532.559857 102.52087,532.162913 C100.389458,531.809084 98.2219913,531.441261 96.4215149,531.495912 C95.5665323,531.521863 95.029185,531.622976 94.7289725,531.867743 C94.4092588,532.12841 94.5164695,532.539255 94.5115906,532.859281 C94.5068419,533.170774 94.497328,533.474813 94.4474297,533.753186 C93.932751,536.624488 97.5282992,539.403862 100.861065,542.324684 C104.445989,545.466499 108.054454,548.766225 108.728044,552.207545 C109.031367,553.757203 108.444809,555.552908 107.262994,556.737794 C106.705998,557.296239 106.023122,557.718112 105.254203,557.92931 C104.549594,558.122844 103.770634,558.142385 102.942798,557.91572 C99.5815468,556.995395 96.1694842,554.08134 93.7296178,551.961107 C92.6883029,551.056209 91.8956284,550.160972 91.438813,550.017914 C91.2835715,550.431556 91.2567628,551.019434 91.2764214,551.735819 C91.3389723,554.01526 91.9959365,557.424116 92.6326196,560.761423 C93.0550059,562.975448 93.4708733,565.158706 93.7148364,566.978011 C94.1217959,570.012827 93.9959585,572.116704 93.3735976,573.471813 C92.9946358,574.296952 92.4420164,574.887515 91.7176899,575.280018 C91.0442248,575.64496 90.2048785,575.836993 89.1753522,575.836993 C87.3005112,575.836993 86.1720044,575.294869 85.3937993,574.466054 C84.4825006,573.49549 84.0799162,572.023035 83.6666347,570.23269 C83.4661546,569.364206 83.2492214,568.417859 82.9132883,567.434065 C82.5864242,566.476829 82.1683005,564.454766 81.6741837,562.034617 C80.5944125,556.745975 79.3028374,549.072682 77.4034825,548.040655 C77.1480009,547.901838 76.9213933,547.816282 76.7119143,547.885134 C76.4354423,547.976007 76.2323666,548.248428 76.0226986,548.582626 C75.1588599,549.959535 74.5364238,552.485155 73.7507247,555.538139 C72.9632446,558.598044 72.0414012,562.172113 70.6672391,565.720978 C70.1882231,566.958068 69.6257192,567.685405 69.0843075,568.135597 C68.2029472,568.868462 67.3250826,568.932913 66.6489023,568.954848 C65.4444451,569.004076 64.6494487,568.439637 64.0420057,567.559664 C63.3443851,566.549055 62.9328923,565.068649 62.70974,564.171557 C61.766545,560.379833 62.7766718,539.303341 68.137019,526.09498 C61.5531346,512.186366 55.2710376,481.60302 55.2710376,446.85888 C55.2710376,414.164171 61.358409,367.69897 67.8294338,342.094654 C66.9552467,332.312688 66.5059384,322.184889 66.5059384,311.75451 C66.5059384,272.252989 56.9715468,180.939638 42.4053514,121.069969 C42.2703621,120.97894 42.0815347,120.913823 41.856198,120.852127 C41.1357165,120.654864 40.1161105,120.562207 38.9074315,120.529113 C35.3632895,120.432071 30.2879881,120.883307 26.0312423,121.259235 C23.1083068,121.517369 20.5629852,121.739878 19.1238148,121.739878 C18.1892471,121.739878 17.1541388,121.796036 16.0692895,121.854304 C12.4195762,122.050334 8.26148249,122.219056 5.25889418,120.714176 C2.98318487,119.573604 1.28303083,117.537469 0.875631583,113.876366 C0.738835358,112.647043 1.12558351,111.397106 2.00245122,110.147249 C2.83732739,108.957245 4.13187186,107.754045 5.77031575,106.55746 C9.84413094,103.58228 16.1009279,100.592491 22.256684,97.6597497 C27.9256933,94.9589056 33.5072333,92.3075134 37.1294252,89.7405201 C38.43236,88.8171497 39.4739618,87.9140588 40.13836,87.017383 C40.615969,86.372799 40.9011479,85.7437025 40.8310791,85.1093256 C40.7562738,84.4320664 40.2764446,83.9190819 39.59563,83.4784333 C38.5937312,82.8299671 37.1566996,82.3552488 35.4400714,81.9817077 C30.4947074,80.9055883 23.3228548,80.7358686 16.8771323,80.5759259 C8.75531687,80.3743931 2.09320279,79.864935 1.03810255,78.2863274 C-0.335042811,76.2318708 -1,74.1947821 -1,72.3561455 C-1,70.4102783 -0.273122651,68.6650687 1.18525452,67.2967071 C3.7319714,64.9071814 15.9290816,57.9519962 31.5735464,55.8310437 C40.4470759,54.628041 52.5171923,55.4392585 62.4078103,56.1111179 C70.8641223,56.6855464 78.0906613,57.5808558 79.0476233,56.2408227 C78.9848269,55.5801115 78.7671135,55.1931614 78.4595447,54.759168 C77.6270114,53.5844259 76.1574287,52.1760357 74.2738902,50.6089291 C68.9749122,46.2001722 60.4586882,40.6376957 52.9843449,35.7524753 C44.7226901,30.3526693 37.8719894,25.6686453 37.3285175,24.1482298 C36.4207472,21.6086542 36.1925916,19.3626354 37.5827892,17.6178005 C38.6419297,16.2884747 40.7407733,15.1797072 44.6653692,14.6170254 C56.6572124,12.8977169 82.9240377,17.9232279 93.9404793,20.6503069 C95.8929245,21.1336274 100.215705,23.0763306 105.306883,25.3787953 C111.810202,28.3198949 119.597998,31.8465298 125.202886,33.511889 C127.145573,34.0891123 128.810979,34.444584 130.0416,34.4391874 C130.478456,34.4372716 130.848978,34.3949275 131.132591,34.2699405 C131.551527,33.6894968 131.20269,33.1592256 130.839448,32.5459176 C130.225062,31.5085721 129.204299,30.2479295 127.864438,28.8325674 C125.0917,25.9035874 120.975505,22.351013 116.156867,18.7982423 C113.71338,16.9966648 110.842163,15.4295128 108.145274,13.9540795 C105.175012,12.329087 102.412489,10.8060421 100.586151,9.2319481 C98.970965,7.83984248 98.0833863,6.38293476 98.0833863,4.85280938 C98.0833863,3.71607155 98.3812019,2.79702359 98.8876515,2.04701014 C99.4301065,1.24367523 100.223347,0.628417567 101.210799,0.177367509 C103.398089,-0.821746538 106.617068,-0.98745519 109.703549,-0.999081573 L110.231251,-1 C130.1431,-1 164.822287,8.21108117 182.251723,36.2523794 C191.670832,51.4062847 199.423087,73.9864677 207.450615,97.4062854 C212.644898,112.560285 217.958592,128.065508 223.930687,142.116189 C229.016104,154.080762 234.730755,166.78049 240.594467,179.811678 C256.963707,216.189767 274.486583,255.147404 282.775461,287.927497 C292.556914,306.156575 305.533591,344.731395 311.759547,379.989283 C317.415815,412.021068 317.533555,441.495843 314.676504,458.438117 C321.868807,470.619061 326.248383,490.12656 325.986797,493.910084 C325.923037,494.832286 325.77522,496.36163 325.263923,497.477902 C324.803361,498.48341 324.07492,499.153914 323.08142,499.28447 C322.227861,499.405408 321.372619,499.47676 320.398196,498.919848 C319.786795,498.570413 319.10645,497.951721 318.419668,496.816624 C316.449242,493.559948 314.919878,490.200022 313.612247,487.323149 C312.307532,484.452691 311.255296,482.073299 310.165108,480.867058 C309.900378,480.574147 309.65289,480.341018 309.364693,480.299447 C309.146489,480.267972 308.938238,480.391459 308.710844,480.572415 Z" id="Combined-Shape" stroke="#000000" stroke-width="2" fill="#F3A7A7"></path>
            <g id="Group-2" transform="translate(77.000000, 145.000000)">
                <path d="M1.02614373,80.0773095 C0.765180537,74.9448256 2.42757468,67.4762693 5.86800924,58.2304101 C6.04676075,57.7500314 6.2220116,57.2786711 6.39396369,56.8161831 C9.79153877,47.6779546 11.8635939,42.0407369 14.2519246,38.7706195 C16.1912915,36.1152263 18.3518383,35.1781665 21.7358102,35.1781665 C23.5080819,35.1781665 25.0354051,35.8278894 26.2851998,37.0340774 C27.650869,38.3520969 28.6858499,40.3050668 29.3890185,42.7669809 C30.8386714,47.8424648 30.857428,55.0198078 29.185926,63.5041487 C27.7119845,70.9856961 24.6246245,76.479328 20.9354543,80.2750085 C16.3480775,84.9948277 10.8411683,87.0824143 6.46636029,87.0824143 C4.80774947,87.0824143 3.52230745,86.5383064 2.63433843,85.4413543 C1.64914299,84.2242935 1.14436976,82.4025156 1.02614373,80.0773095 Z" id="Oval" stroke="#000000" stroke-width="2" fill="#AD6161" transform="translate(15.728158, 61.130290) scale(-1, -1) translate(-15.728158, -61.130290) "></path>
                <path d="M93.2647406,57.5395002 C91.6107919,57.5424406 90.3297267,57.0007259 89.4461115,55.9050399 C88.4645317,54.6878774 87.9640847,52.8642989 87.8501823,50.5358409 C87.5987348,45.3956087 89.272013,37.9121864 92.7241825,28.6453682 C92.903524,28.1639535 93.079354,27.6915767 93.2518744,27.2280915 C96.661015,18.0692515 98.7403588,12.4194737 101.131183,9.13991157 C103.072581,6.47684088 105.231483,5.53345163 108.611106,5.5274322 C110.379034,5.52428906 111.901472,6.17161673 113.146057,7.37623404 C114.507104,8.69357298 115.536643,10.6473126 116.234236,13.1111793 C117.672806,18.1921418 117.678739,25.3807595 115.994442,33.8815581 C114.509056,41.3784384 111.415814,46.8868221 107.724652,50.6954859 C103.135581,55.4306427 97.6332475,57.5317192 93.2647406,57.5395002 Z" id="Oval" stroke="#000000" stroke-width="2" fill="#AD6161" transform="translate(102.555181, 31.533466) scale(1, -1) rotate(40.000000) translate(-102.555181, -31.533466) "></path>
                <ellipse id="Oval" fill="#000000" cx="43.417271" cy="129.454389" rx="9.14047811" ry="12.5228055"></ellipse>
                <ellipse id="Oval" fill="#000000" cx="102.830379" cy="88.470662" rx="9.14047811" ry="12.5228055"></ellipse>
                <ellipse id="Oval" fill="#FFFFFF" cx="46.8449503" cy="122.623768" rx="3.42767929" ry="3.41531059"></ellipse>
                <ellipse id="Oval" fill="#FFFFFF" cx="106.258058" cy="81.6400408" rx="3.42767929" ry="3.41531059"></ellipse>
            </g>
            <path d="M143,330 C151.209387,353.879125 159.648138,368.747868 168.316251,374.606229 C176.984364,380.46459 190.545614,380.46459 209,374.606229" id="Line-5" stroke="#000000" stroke-width="3" stroke-linecap="round" transform="translate(176.000000, 354.500000) scale(-1, 1) translate(-176.000000, -354.500000) "></path>
        </g>
        <g id="5squiggy2" transform="translate(532.000000, 640.000000)">
            <path d="M564.186719,206.606294 L311.518962,205.393181 C311.544738,212.873324 311.537864,220.74213 311.530744,228.891385 C311.527352,232.772714 311.523905,236.717677 311.523905,240.714471 L311.524113,242.458311 C311.524909,245.859709 311.527846,249.221957 311.530744,252.537765 C311.570025,297.490773 311.519759,333.913449 306.160993,343.893214 C305.026367,346.970282 303.387977,349.647543 300.680339,351.466695 C298.408001,352.993385 295.369662,353.926627 291.185849,353.926629 C288.693343,353.926632 276.972924,354.309272 274.73873,353.326878 C272.741773,352.4488 265.8299,349.404329 270.320794,341.950198 C274.811688,334.496068 289.379174,332.596754 291.185849,331.911457 C287.22052,312.565962 284.148366,274.467885 284.148366,240.714575 C284.148366,228.326894 284.491663,216.437365 285.122287,205.393174 L257.760382,205.393181 C258.248476,219.488751 257.877065,233.92156 257.877065,251.713341 C257.877065,271.657393 259.233992,290.486766 260.352405,306.013365 C261.093582,316.302922 261.729816,325.146698 261.801753,331.911457 C262.146874,333.781344 262.03484,335.940395 261.906022,338.210469 C261.855806,339.095376 261.804452,339.997731 261.782163,340.90589 C261.736216,342.77799 261.371351,344.255424 260.748202,345.430669 C260.058314,346.731784 259.051733,347.678383 257.760382,348.3667 C254.872752,349.905869 250.447458,350.085298 245.010649,350.247715 C244.745486,350.255637 232.45675,350.59985 228.957524,349.158728 C227.452881,348.539056 226.268165,347.639375 225.481277,346.384066 C224.765519,345.24223 224.371994,343.79482 224.417267,341.950198 C224.504146,338.410294 228.299451,335.816078 228.957524,335.255897 C232.118079,332.56549 236.727145,330.827262 241.385172,330.435038 C235.22197,312.78562 230.545163,281.081531 230.545163,251.713341 C230.545163,233.924952 229.034036,220.706692 230.545163,206.606294 L13.6356921,206.606294 C10.2850331,206.606294 7.3175807,205.331495 5.00692687,203.100543 C2.71442982,200.887121 1.06750304,197.720772 0.370082749,193.913719 C-0.814975201,187.444766 0.741786372,179.091337 6.5557117,170.560706 C14.5020149,158.90129 30.4500296,146.861445 58.2802282,139.023068 C86.0356962,131.205739 107.25773,129.114024 120.762452,127.78379 C125.732651,127.294219 128.504469,126.425727 131.298009,125.891959 C131.298009,122.010996 133.283763,109.487099 137.298238,94.2363448 C141.546869,78.0960466 165.084462,39.5354672 186.806146,24.750957 C211.173984,8.16538672 242.120675,0 274.131936,0 C305.174008,0 332.007678,8.65493152 353.836994,24.9108963 C375.639179,41.1466571 394.77922,63.8336644 405.784877,94.2363448 C406.909417,98.931398 412.723573,120.061943 412.723573,124.367534 C417.065366,125.856293 430.515663,127.007957 446.866484,128.477934 C471.951913,130.733173 503.834504,133.610513 520.901244,139.031426 C541.854276,145.686742 554.897024,156.915741 562.400569,168.262013 C567.935587,176.631636 570.460402,185.07629 570.921528,191.83902 C571.209032,196.055476 570.691255,199.629049 569.618679,202.161881 C569.027991,203.556761 568.265045,204.647569 567.383368,205.393174 C566.443205,206.188241 565.364901,206.606294 564.186719,206.606294 Z" id="Combined-Shape" stroke="#000000" stroke-width="2" fill="#99CAF4" fill-rule="nonzero" transform="translate(285.500000, 177.000000) scale(-1, 1) translate(-285.500000, -177.000000) "></path>
            <g id="Group" transform="translate(362.000000, 47.000000)">
                <ellipse id="Oval" fill="#000000" fill-rule="nonzero" cx="13.0643679" cy="27.935" rx="7.6137931" ry="9.065"></ellipse>
                <ellipse id="Oval" fill="#FFFFFF" fill-rule="nonzero" cx="16.8712644" cy="24.9133333" rx="2.96091954" ry="3.45333333"></ellipse>
                <path d="M0.876392779,6.18609136 C7.23626908,0.331591895 12.8587086,1.08788546 17.7437114,8.45497206" id="Path-4" stroke="#000000" stroke-width="2" stroke-linecap="round" transform="translate(9.310052, 5.376259) rotate(-10.000000) translate(-9.310052, -5.376259) "></path>
            </g>
            <path d="M293.421417,143.169606 C314.951561,157.15552 329.517174,165.254397 337.118255,167.466236 C345.355057,169.863063 357.374573,173.36713 360.368193,168.420002 C363.361813,163.472875 359.714303,155.111744 347.708212,143.137306 C316.137781,111.650106 303.277181,98.9199052 309.126411,104.946703" id="Path-7" stroke="#000000" stroke-width="2" stroke-linecap="round" transform="translate(327.391417, 137.209463) rotate(-15.000000) translate(-327.391417, -137.209463) "></path>
            <polygon id="Rectangle" fill="#000000" points="392 106 423 106 410.073204 122.84219 406.377205 122.84219"></polygon>
            <rect id="Rectangle" fill="#FFFFFF" x="391" y="99" width="34" height="7"></rect>
            <path d="M424.095656,125.123475 C423.386404,125.690877 422.505162,126 421.596876,126 L394.403124,126 C393.298555,126 392.298555,125.552285 391.574697,124.828427 C390.850839,124.104569 390.403124,123.104569 390.403124,122 C390.403124,121.091714 390.712247,120.210472 391.279649,119.50122 L404.876525,102.505125 C405.566544,101.642601 406.540846,101.141418 407.558274,101.02837 C408.575702,100.915323 409.636256,101.190411 410.49878,101.88043 C410.729439,102.064957 410.938948,102.274466 411.123475,102.505125 L424.720351,119.50122 C425.41037,120.363744 425.685458,121.424298 425.572411,122.441726 C425.459363,123.459154 424.95818,124.433456 424.095656,125.123475 Z" id="Triangle" stroke="#000000" stroke-width="2" transform="translate(408.000000, 112.000000) scale(1, -1) translate(-408.000000, -112.000000) "></path>
        </g>
    </g>
</svg>