<?xml version="1.0" encoding="UTF-8"?>
<svg width="1922px" height="1082px" viewBox="0 0 1922 1082" version="1.1" xmlns="http://www.w3.org/2000/svg" xmlns:xlink="http://www.w3.org/1999/xlink">
    <!-- Generator: Sketch 62 (91390) - https://sketch.com -->
    <title>Artboard</title>
    <desc>Created with Sketch.</desc>
    <defs>
        <radialGradient cx="48.8349452%" cy="54.3460082%" fx="48.8349452%" fy="54.3460082%" r="68.6138795%" gradientTransform="translate(0.488349,0.543460),scale(0.562955,1.000000),rotate(90.000000),translate(-0.488349,-0.543460)" id="radialGradient-1">
            <stop stop-color="#F1B0B0" offset="0%"></stop>
            <stop stop-color="#986A6A" offset="100%"></stop>
        </radialGradient>
        <filter x="-2.2%" y="-3.2%" width="104.5%" height="106.4%" filterUnits="objectBoundingBox" id="filter-2">
            <feOffset dx="0" dy="2" in="SourceAlpha" result="shadowOffsetOuter1"></feOffset>
            <feGaussianBlur stdDeviation="2" in="shadowOffsetOuter1" result="shadowBlurOuter1"></feGaussianBlur>
            <feColorMatrix values="0 0 0 0 0   0 0 0 0 0   0 0 0 0 0  0 0 0 0.5 0" type="matrix" in="shadowBlurOuter1" result="shadowMatrixOuter1"></feColorMatrix>
            <feMerge>
                <feMergeNode in="shadowMatrixOuter1"></feMergeNode>
                <feMergeNode in="SourceGraphic"></feMergeNode>
            </feMerge>
        </filter>
        <filter x="-3.0%" y="-2.0%" width="106.2%" height="104.1%" filterUnits="objectBoundingBox" id="filter-3">
            <feOffset dx="0" dy="2" in="SourceAlpha" result="shadowOffsetOuter1"></feOffset>
            <feGaussianBlur stdDeviation="2" in="shadowOffsetOuter1" result="shadowBlurOuter1"></feGaussianBlur>
            <feColorMatrix values="0 0 0 0 0   0 0 0 0 0   0 0 0 0 0  0 0 0 0.5 0" type="matrix" in="shadowBlurOuter1" result="shadowMatrixOuter1"></feColorMatrix>
            <feMerge>
                <feMergeNode in="shadowMatrixOuter1"></feMergeNode>
                <feMergeNode in="SourceGraphic"></feMergeNode>
            </feMerge>
        </filter>
    </defs>
    <g id="Artboard" stroke="none" stroke-width="1" fill="none" fill-rule="evenodd">
        <rect id="Rectangle" fill="url(#radialGradient-1)" x="0" y="0" width="1922" height="1082"></rect>
        <g id="5Mac3" filter="url(#filter-2)" transform="translate(1155.000000, 707.000000)">
            <path d="M497.908282,329.830831 C483.410912,333.511412 467.970879,337.465596 457.05939,346.000489 C449.37638,352.010088 446.032832,362.712261 444.269091,374.999307 L80.7870397,374.997298 C79.1736259,364.463518 75.7297784,358.448655 70.849371,354.898896 C64.5348967,350.30607 55.6913899,349.878835 44.8357784,349.44853 C36.0566563,349.100534 25.9455688,348.705383 14.8306331,345.82023 C11.610952,344.984483 9.30487928,344.085556 7.78795244,343.006272 C6.48437438,342.078783 5.81629785,341.025183 5.74184979,339.732483 C5.53729747,336.180681 9.04077786,331.291729 14.0573353,323.953018 C22.2034357,312.036105 34.555829,293.958595 43.7265637,265.510726 C44.0442513,264.52525 43.8597671,263.404006 43.1085263,262.173367 C42.4564877,261.105236 41.3591933,259.930908 39.910507,258.68561 C36.3904103,255.659717 30.7355315,252.136625 24.784598,248.436313 C17.9858007,244.208797 10.7949179,239.74534 6.06274514,235.513645 C2.96249525,232.74128 0.828159341,230.10709 1.0097694,227.680222 C1.43324947,222.021229 14.2801866,214.424328 25.3863266,207.558468 C35.4449196,201.340206 43.8544037,195.675238 43.7744721,192.537781 C43.3569231,176.148245 41.3532938,162.338358 39.6577828,150.661387 C36.7643595,130.734403 34.5918584,117.063236 43.5062712,107.500296 C54.0975701,96.1384753 74.6693398,98.9577871 95.5440189,101.599277 C118.109005,104.45466 141.051723,107.157226 153.576475,93.9899132 C162.601544,84.5018293 171.009919,74.2059434 179.31882,64.0303544 C205.481304,31.9901714 230.606874,1 271.367184,1 C278.743372,1 283.66753,3.58554601 287.205744,7.8368168 C292.083766,13.6979067 294.388934,22.5947761 296.894028,32.088181 C299.034801,40.2009382 301.299938,48.7514475 305.271853,56.3252428 C306.116525,57.9358939 307.15297,58.9643477 308.315095,59.5612599 C309.593688,60.2179943 311.044458,60.3618899 312.636852,60.0868637 C316.250712,59.4627051 320.674742,56.5613117 325.28211,53.4853219 C329.626716,50.5847589 334.146525,47.5394549 338.303905,46.4324922 C341.036496,45.7049003 343.610829,45.8387995 345.810929,47.6439022 C347.968657,49.4142411 347.851591,55.7446989 347.979543,62.2895325 C348.093227,68.104561 348.23278,74.2269098 349.54736,78.3332869 C350.093836,80.0403247 350.847831,81.4149793 351.83639,82.3490557 C352.823295,83.28157 354.042382,83.8069412 355.555323,83.8026866 C368.479215,83.7663428 387.018653,75.4208636 404.409934,67.5453906 C416.169867,62.2200191 427.397164,57.125949 435.950991,55.1029912 C439.143743,54.3479139 441.950173,54.0207798 444.250869,54.3087036 C446.169386,54.5487991 447.721234,55.2200133 448.782845,56.4993808 C455.860617,65.0289421 454.056735,80.6014964 452.318816,97.0701649 C450.416213,115.099383 448.49558,134.231349 456.834283,147.204468 C463.922187,158.231631 479.706299,164.150229 494.558462,169.627629 C503.974844,173.100341 512.986121,176.403519 518.949404,180.866068 C523.139286,184.001515 525.806985,187.71323 525.806985,192.563249 C525.806985,201.348534 517.408064,210.119641 508.760076,219.359495 C497.982828,230.874335 486.804881,243.062102 488.571424,256.508135 C489.638678,264.631533 504.178192,275.042738 517.327437,284.224206 C527.322538,291.20329 536.687751,297.398254 536.945074,301.335877 C537.452842,309.105862 534.36532,314.412951 529.059841,318.350454 C521.671578,323.833711 510.129362,326.728153 497.908282,329.830831 Z" id="Combined-Shape" stroke="#000000" stroke-width="2" fill="#F4A9C4"></path>
            <path d="M306.767683,336.374693 C298.491684,339.079731 286.567431,340.907593 271.295226,340.996465 C255.619824,341.087683 243.096223,339.404237 234.098777,336.79984 C228.950875,335.30973 224.942912,333.511924 222.133501,331.576648 C218.969983,329.397443 217.309187,327.013162 217.040065,324.696403 C216.771761,322.386693 217.824947,320.040165 220.503125,317.894812 C222.776913,316.073395 226.259892,314.383024 231.029274,312.98579 C239.268888,310.571922 251.419805,309 267.804919,309 C284.021416,309 296.30939,310.501334 304.911512,312.824302 C309.848699,314.15757 313.590103,315.768657 316.189736,317.516295 C319.194342,319.53618 320.704302,321.768396 320.960131,323.970719 C321.233377,326.322984 320.11218,328.750551 317.42813,331.003133 C315.081596,332.972456 311.515619,334.822814 306.767683,336.374693 Z" id="Oval" stroke="#000000" stroke-width="2" fill="#B897FD"></path>
            <circle id="Oval" stroke="#000000" stroke-width="2" fill="#B897FD" cx="198.5" cy="181.5" r="13.5"></circle>
            <circle id="Oval" stroke="#000000" stroke-width="2" fill="#B897FD" cx="153.5" cy="242.5" r="13.5"></circle>
            <circle id="Oval" stroke="#000000" stroke-width="2" fill="#B897FD" cx="279.5" cy="242.5" r="13.5"></circle>
            <circle id="Oval" stroke="#000000" stroke-width="2" fill="#B897FD" cx="353.5" cy="181.5" r="13.5"></circle>
            <circle id="Oval" stroke="#000000" stroke-width="2" fill="#B897FD" cx="397.5" cy="242.5" r="13.5"></circle>
            <g id="glasses" transform="translate(125.000000, 121.000000)">
                <path d="M113.051261,126.959922 C106.988954,133.022229 98.6139536,136.771845 89.3631841,136.771845 L36,136.771845 C26.7492304,136.771845 18.3742304,133.022229 12.3119228,126.959922 C6.24961522,120.897614 2.5,112.522614 2.5,103.271845 L2.5,43.7184466 C2.5,41.6473788 3.33946609,39.7723788 4.69669914,38.4151457 C6.05393219,37.0579127 7.92893219,36.2184466 10,36.2184466 L115.363184,36.2184466 C117.434252,36.2184466 119.309252,37.0579127 120.666485,38.4151457 C122.023718,39.7723788 122.863184,41.6473788 122.863184,43.7184466 L122.863184,103.271845 C122.863184,112.522614 119.113569,120.897614 113.051261,126.959922 Z" id="Rectangle" stroke="#000000" stroke-width="5" fill-opacity="0.452086976" fill="#FFFFFF"></path>
                <path d="M280.688077,126.959922 C274.62577,133.022229 266.25077,136.771845 257,136.771845 L203.636816,136.771845 C194.386046,136.771845 186.011046,133.022229 179.948739,126.959922 C173.886431,120.897614 170.136816,112.522614 170.136816,103.271845 L170.136816,43.7184466 C170.136816,41.6473788 170.976282,39.7723788 172.333515,38.4151457 C173.690748,37.0579127 175.565748,36.2184466 177.636816,36.2184466 L283,36.2184466 C285.071068,36.2184466 286.946068,37.0579127 288.303301,38.4151457 C289.660534,39.7723788 290.5,41.6473788 290.5,43.7184466 L290.5,103.271845 C290.5,112.522614 286.750385,120.897614 280.688077,126.959922 Z" id="Rectangle" stroke="#000000" stroke-width="5" fill-opacity="0.452086976" fill="#FFFFFF"></path>
                <path d="M125.363184,75.8719123 C131.550293,69.27122 138.755403,65.9708738 146.978515,65.9708738 C155.201627,65.9708738 162.087727,69.27122 167.636816,75.8719123" id="Line" stroke="#000000" stroke-width="7" stroke-linecap="square"></path>
                <polygon id="Rectangle" fill="#000000" points="29.1542289 0 39.7284628 12.0188487 51.3817824 0 62.6147791 12.0188487 76.4854392 0 85.5010953 12.0188487 97.6666667 0 97.6666667 38.1165049 29.1542289 38.1165049"></polygon>
                <polygon id="Rectangle" fill="#000000" points="198.248756 0 208.82299 12.0188487 220.47631 0 231.709306 12.0188487 245.579967 0 254.595623 12.0188487 266.761194 0 266.761194 38.1165049 198.248756 38.1165049"></polygon>
                <path d="M155.455308,72.0463544 L168.924646,110.090733 L181.696272,146.164411 C182.203156,147.596113 182.081741,149.097732 181.47568,150.368145 C180.869619,151.638559 179.778911,152.677768 178.347209,153.184652 C177.757723,153.393355 177.136961,153.5 176.51162,153.5 L116.48838,153.5 C114.969597,153.5 113.594597,152.884392 112.599292,151.889087 C111.603988,150.893783 110.98838,149.518783 110.98838,148 C110.98838,147.374659 111.095025,146.753898 111.303728,146.164411 L137.544692,72.0463544 C138.420219,69.5734145 140.215216,67.6894649 142.409567,66.6426318 C144.603918,65.5957988 147.197622,65.3860824 149.670562,66.261609 C152.372824,67.2183252 154.498591,69.3440929 155.455308,72.0463544 Z" id="Triangle" stroke="#000000" stroke-width="5" fill="#FFD1BA"></path>
            </g>
        </g>
        <g id="5cece3" filter="url(#filter-3)" transform="translate(346.500000, 739.000000) scale(-1, 1) translate(-346.500000, -739.000000) translate(113.000000, 395.000000)">
            <path d="M455.194062,555.449211 C463.468193,602.306117 463.627557,645.414606 459.427051,670.111854 C462.572091,675.408185 465.357217,681.673165 467.702129,688.00009 L423.718717,688.00036 C423.775379,687.297691 423.701333,686.619621 423.463177,685.971448 C423.32873,685.605536 423.244741,685.194689 423.163658,684.773137 C423.048398,684.173901 423.024664,683.450487 422.370197,683.084774 C421.820107,682.777386 420.938808,682.722947 419.54789,682.924548 C416.916523,683.30594 413.859103,684.391783 410.85127,685.451771 C407.54902,686.615516 404.303467,687.745559 401.69716,688.006701 C399.429862,688.233875 397.634155,687.795657 396.475104,686.511353 C395.273486,685.179882 394.620684,683.866429 394.364517,682.594204 C394.072569,681.144278 394.290558,679.733071 394.87526,678.375065 C396.322251,675.01434 400.154125,671.980237 403.272098,669.566719 C403.890081,669.08836 404.47651,668.634549 405.003588,668.207091 C412.947182,661.764869 424.653932,658.422648 437.180017,656.086802 C436.921987,653.692669 436.655604,651.17584 436.376182,648.535823 C433.991109,626.001274 430.65544,594.482258 423.449295,553.673466 C421.543193,542.879109 419.583563,532.665196 417.623244,523.049476 C411.362501,590.203063 392.800206,642.774923 363.949961,677.253312 C363.671117,680.667869 363.39491,684.250905 363.134055,687.999844 L176.963712,688.002316 C149.607058,662.81882 127.925035,625.384332 114.197219,578.907289 C113.081154,599.805672 112.195888,622.613706 112.195888,646.1789 C112.195888,661.514409 112.52621,675.440269 113.022211,688.001572 L82.6771465,688.000386 C81.7594866,676.87518 81.2422858,665.159898 81.2422858,653.10144 C81.2422858,605.321217 90.1436543,537.403533 99.6014609,500.024757 C98.3210736,485.716581 97.6625254,470.900652 97.6625254,455.641207 C97.6625254,397.857426 83.7092695,264.244909 62.3942899,176.702547 C62.0162724,176.414681 61.6909425,176.292921 61.2963238,176.184877 C60.2165911,175.889253 58.6891133,175.746176 56.8773401,175.696568 C51.6828216,175.554337 44.2440691,176.214298 38.0050598,176.765287 C33.7502583,177.141043 30.0451532,177.465976 27.9501909,177.465976 C26.5767148,177.465976 25.0554712,177.548244 23.4611307,177.633878 C18.2089408,177.915978 12.2173182,178.183181 7.89287649,176.015796 C4.68787109,174.409466 2.31131365,171.531461 1.73847641,166.383645 C1.54982881,164.688358 2.09763965,162.969714 3.3044869,161.249515 C4.50061734,159.544591 6.35886942,157.824513 8.7057441,156.110549 C14.6411806,151.775793 23.758968,147.422963 32.7275094,143.150148 C41.0397663,139.190001 49.2219848,135.299586 54.5329485,131.535786 C56.4842839,130.152904 58.0398565,128.796524 59.0345911,127.454024 C59.814968,126.400823 60.2486522,125.36938 60.1349411,124.339883 C60.0117023,123.224124 59.25494,122.353202 58.1213162,121.619479 C56.6197844,120.647631 54.4689895,119.928503 51.8951624,119.368434 C44.6442033,117.790613 34.1290848,117.537935 24.6780269,117.303418 C13.0938904,117.015972 3.41796959,116.43173 1.90094738,114.16201 C-0.0465715096,111.248194 -1,108.36075 -1,105.75129 C-1,103.03688 0.013643515,100.602188 2.04809935,98.6933047 C5.74868373,95.2211318 23.4825551,85.1375021 46.2079569,82.0565723 C59.1501936,80.3019665 76.7547121,81.4891302 91.1801352,82.4690342 C103.886737,83.3321805 114.485465,84.4565592 115.906738,82.4663513 C116.07176,82.2352714 116.07152,81.9508602 116.002324,81.638997 C115.879364,81.0848152 115.541063,80.4612071 115.048205,79.7657623 C113.814583,78.0250669 111.640737,75.9345478 108.849338,73.6121005 C101.093858,67.1595307 88.6305171,59.017224 77.6911676,51.8672803 C65.7586527,44.0682052 55.7781882,37.338572 54.9916719,35.1382162 C53.7325615,31.6157325 53.3477821,28.4739515 55.2896644,26.0366979 C56.7925631,24.1504119 59.7934472,22.6162495 65.3456574,21.8202116 C82.8300116,19.3134244 121.125621,26.6533685 137.186719,30.6292333 C140.027034,31.3323426 146.313881,34.1632869 153.719875,37.512618 C163.243739,41.8197469 174.649302,46.982502 182.857378,49.4213367 C185.750292,50.2808974 188.23074,50.8037652 190.062824,50.795731 C190.77678,50.7926001 191.37907,50.7129506 191.841451,50.5091806 C192.129753,50.3821266 192.353724,50.2043015 192.469227,49.9364801 C192.727502,49.3376098 192.272578,48.4269898 191.623999,47.3319124 C190.712809,45.7934344 189.201294,43.9219223 187.213968,41.8226114 C183.146814,37.5262751 177.10985,32.3142582 170.041623,27.1028707 C166.454178,24.457856 162.239534,22.1557323 158.279995,19.9895195 C153.971399,17.6323416 149.961294,15.4267603 147.311848,13.1432417 C145.080139,11.2197636 143.81418,9.21639826 143.81418,7.09256755 C143.81418,5.52847617 144.221378,4.26344772 144.921995,3.23326392 C145.67712,2.12293022 146.785135,1.27966978 148.15762,0.659794514 C151.346482,-0.780437672 156.043334,-0.986957892 160.515075,-0.999237009 L161.107213,-1 C190.097096,-1 240.596987,12.3970776 265.975915,53.2278922 C279.727555,75.3521783 291.04063,108.320832 302.760451,142.512685 C310.355703,164.671365 318.125958,187.343456 326.858549,207.888817 C334.292273,225.378305 342.645762,243.942437 351.217176,262.991073 C375.137698,316.150712 400.747457,373.080199 412.85252,420.984443 C427.137144,447.577071 446.098143,503.938585 455.194062,555.449211 Z" id="Combined-Shape" stroke="#000000" stroke-width="2" fill="#F3A7A7"></path>
            <g id="Group-2" transform="translate(113.000000, 213.000000)">
                <path d="M1.03881375,116.755508 C0.655125716,109.231916 3.08714193,98.2817846 8.14629004,84.7264577 C8.40763178,84.0262267 8.66385542,83.3391412 8.91525615,82.6649888 C13.9049072,69.2848152 16.9568763,61.0365328 20.4640113,56.2489094 C23.3965264,52.2457051 26.6597444,50.8231018 31.7803891,50.8231018 C34.4966805,50.8231018 36.8383341,51.8145323 38.7541429,53.6579642 C40.8002181,55.6267412 42.3607586,58.5388567 43.4148771,62.2184639 C45.5492214,69.6688114 45.5882776,80.2044854 43.1268776,92.6608709 C40.951084,103.67189 36.3876673,111.753067 30.942602,117.338575 C24.1299051,124.326989 15.948191,127.401829 9.45460254,127.401829 C6.86759645,127.401829 4.87337568,126.540555 3.49161125,124.8387 C2.00234322,123.004438 1.21782003,120.265574 1.03881375,116.755508 Z" id="Oval" stroke="#000000" stroke-width="2" fill="#AD6161" transform="translate(22.996473, 89.112466) scale(-1, -1) translate(-22.996473, -89.112466) "></path>
                <path d="M136.322162,84.4041845 C133.746206,84.4125513 131.762948,83.5570709 130.392463,81.8574561 C128.913198,80.0229359 128.140354,77.2791576 127.973302,73.7600816 C127.615187,66.2161336 130.07643,55.2267472 135.166774,41.6159976 C135.429691,40.9129991 135.687462,40.2231989 135.94038,39.5463827 C140.960765,26.1117002 144.031961,17.830098 147.545594,13.0174037 C150.483544,8.99323451 153.742357,7.55415229 158.850322,7.53750514 C161.556106,7.52871601 163.885501,8.51407775 165.787892,10.3542455 C167.821533,12.3213707 169.367548,15.2358338 170.406528,18.9212238 C172.510961,26.3859139 172.515503,36.9513797 170.019827,49.4513463 C167.813439,60.5023763 163.234796,68.6224211 157.784989,74.2422798 C150.967798,81.2721911 142.798471,84.3830764 136.322162,84.4041845 Z" id="Oval" stroke="#000000" stroke-width="2" fill="#AD6161" transform="translate(149.939055, 45.970845) scale(1, -1) rotate(40.000000) translate(-149.939055, -45.970845) "></path>
                <ellipse id="Oval" fill="#000000" cx="63.4813129" cy="188.71168" rx="13.3644869" ry="18.2550756"></ellipse>
                <ellipse id="Oval" fill="#000000" cx="150.350478" cy="128.967796" rx="13.3644869" ry="18.2550756"></ellipse>
                <ellipse id="Oval" fill="#FFFFFF" cx="68.4929955" cy="178.754366" rx="5.0116826" ry="4.97865698"></ellipse>
                <ellipse id="Oval" fill="#FFFFFF" cx="155.362161" cy="119.010482" rx="5.0116826" ry="4.97865698"></ellipse>
            </g>
            <path d="M209,483 C220.940927,517.600364 233.215473,539.14487 245.823637,547.633516 C258.431802,556.122161 278.157256,556.122161 305,547.633516" id="Line-5" stroke="#000000" stroke-width="3" stroke-linecap="round" transform="translate(257.000000, 518.500000) scale(-1, 1) translate(-257.000000, -518.500000) "></path>
        </g>
        <g id="5squiggy3" transform="translate(286.000000, 809.000000)">
            <path d="M434.124052,0 C480.935616,0 526.190409,11.9251552 561.824638,36.1475841 C593.589272,57.7396513 628.009394,114.055526 634.222366,137.627656 C640.092921,159.90065 642.996782,178.1912 642.996782,183.85916 C647.081905,184.638703 651.135266,185.907094 658.403419,186.622088 C678.152006,188.564832 709.185978,191.619681 749.774097,203.036514 C790.471498,214.484088 813.793026,232.067704 825.413276,249.095721 C831.358886,257.808265 834.25994,266.394246 834.874303,274.000916 L0.887282522,274.00081 C2.43370226,265.388615 6.09269229,255.528457 12.5753494,245.73859 C23.548135,229.167904 42.6211544,212.768491 73.2617528,203.04872 C98.2192461,195.131738 144.842649,190.929521 181.526245,187.635853 C205.436815,185.489021 225.105814,183.807072 231.45502,181.63281 C231.45502,175.344702 239.957333,144.484556 241.6018,137.627656 C257.695887,93.2260014 285.685264,60.0927168 317.567619,36.3811678 C349.489648,12.6401119 388.729778,0 434.124052,0 Z" id="Combined-Shape" stroke="#000000" stroke-width="2" fill="#99CAF4" fill-rule="nonzero"></path>
            <g id="Group" transform="translate(529.000000, 68.000000)">
                <ellipse id="Oval" fill="#000000" fill-rule="nonzero" cx="19.2854954" cy="40.77" rx="11.2394089" ry="13.23"></ellipse>
                <ellipse id="Oval" fill="#FFFFFF" fill-rule="nonzero" cx="24.9051998" cy="36.36" rx="4.37088123" ry="5.04"></ellipse>
                <path d="M1.30219922,9.00348795 C10.6706287,0.474326414 18.9697478,1.59457454 26.1995564,12.3642323" id="Path-4" stroke="#000000" stroke-width="2" stroke-linecap="round" transform="translate(13.750878, 7.856747) rotate(-10.000000) translate(-13.750878, -7.856747) "></path>
            </g>
            <path d="M429.091151,209.074895 C460.579579,229.512624 481.881543,241.348573 492.997043,244.582739 C505.042193,248.087395 522.619028,253.211055 526.994015,245.986803 C531.369003,238.76255 526.03158,226.548732 508.470364,209.053433 C462.292538,163.048938 443.481483,144.449383 452.037198,153.254768" id="Path-7" stroke="#000000" stroke-width="2" stroke-linecap="round" transform="translate(478.767852, 200.387375) rotate(-15.000000) translate(-478.767852, -200.387375) "></path>
            <path d="M587.502554,142.181012 C593.352584,139.285178 598.767256,138.36651 603.746572,139.425011 C608.725888,140.483511 613.073585,142.376656 616.789663,145.104447 L620,153 L582,153 L587.502554,142.181012 Z" id="Rectangle" fill="#FFFFFF"></path>
            <path d="M585.273232,158.680379 C591.927068,153.509246 598.085727,151.868768 603.749211,153.758947 C609.412695,155.649126 614.357774,159.029743 618.584448,163.900799 C620.744595,168.389151 621.879836,171.45198 621.990171,173.089286 C622.100505,174.726592 621.281969,176.363496 619.534562,178 L581.3764,178 C580.611942,176.620893 580.195927,175.638301 580.128354,175.052225 C579.643659,170.848359 580.635384,167.78743 581.3764,165.5 C582.272378,162.734221 583.571322,160.461014 585.273232,158.680379 Z" id="Rectangle" fill="#000000" transform="translate(601.000000, 165.500000) scale(1, -1) translate(-601.000000, -165.500000) "></path>
            <path d="M580,158.5 C580,153.111271 582.109455,148.23129 585.524354,144.699412 C588.927268,141.17993 593.627485,139 598.821019,139 C604.277587,139 610.061028,141.387629 614.362933,145.192328 C618.29145,148.666795 621,153.339478 621,158.5 C621,163.660522 618.29145,168.333205 614.362933,171.807672 C610.061028,175.612371 604.277587,178 598.821019,178 C593.627485,178 588.927268,175.82007 585.524354,172.300588 C582.109455,168.76871 580,163.888729 580,158.5 Z" id="Oval" stroke="#000000" stroke-width="2"></path>
        </g>
    </g>
</svg>