<?xml version="1.0" encoding="UTF-8"?>
<svg width="1922px" height="1082px" viewBox="0 0 1922 1082" version="1.1" xmlns="http://www.w3.org/2000/svg" xmlns:xlink="http://www.w3.org/1999/xlink">
    <!-- Generator: Sketch 62 (91390) - https://sketch.com -->
    <title>Artboard</title>
    <desc>Created with Sketch.</desc>
    <defs>
        <radialGradient cx="48.8349452%" cy="54.3460082%" fx="48.8349452%" fy="54.3460082%" r="68.6138795%" gradientTransform="translate(0.488349,0.543460),scale(0.562955,1.000000),rotate(90.000000),translate(-0.488349,-0.543460)" id="radialGradient-1">
            <stop stop-color="#B0E6F1" offset="0%"></stop>
            <stop stop-color="#81AAFC" offset="100%"></stop>
        </radialGradient>
        <linearGradient x1="50%" y1="0%" x2="50%" y2="100%" id="linearGradient-2">
            <stop stop-color="#92D386" offset="0%"></stop>
            <stop stop-color="#5E9651" offset="100%"></stop>
        </linearGradient>
        <filter x="-4.1%" y="-3.6%" width="108.3%" height="107.1%" filterUnits="objectBoundingBox" id="filter-3">
            <feOffset dx="0" dy="2" in="SourceAlpha" result="shadowOffsetOuter1"></feOffset>
            <feGaussianBlur stdDeviation="2" in="shadowOffsetOuter1" result="shadowBlurOuter1"></feGaussianBlur>
            <feColorMatrix values="0 0 0 0 0   0 0 0 0 0   0 0 0 0 0  0 0 0 0.5 0" type="matrix" in="shadowBlurOuter1" result="shadowMatrixOuter1"></feColorMatrix>
            <feMerge>
                <feMergeNode in="shadowMatrixOuter1"></feMergeNode>
                <feMergeNode in="SourceGraphic"></feMergeNode>
            </feMerge>
        </filter>
        <filter x="-5.5%" y="-2.8%" width="110.9%" height="105.6%" filterUnits="objectBoundingBox" id="filter-4">
            <feOffset dx="0" dy="2" in="SourceAlpha" result="shadowOffsetOuter1"></feOffset>
            <feGaussianBlur stdDeviation="2" in="shadowOffsetOuter1" result="shadowBlurOuter1"></feGaussianBlur>
            <feColorMatrix values="0 0 0 0 0   0 0 0 0 0   0 0 0 0 0  0 0 0 0.5 0" type="matrix" in="shadowBlurOuter1" result="shadowMatrixOuter1"></feColorMatrix>
            <feMerge>
                <feMergeNode in="shadowMatrixOuter1"></feMergeNode>
                <feMergeNode in="SourceGraphic"></feMergeNode>
            </feMerge>
        </filter>
    </defs>
    <g id="Artboard" stroke="none" stroke-width="1" fill="none" fill-rule="evenodd">
        <rect id="Rectangle" stroke="#8B3535" stroke-width="2" fill="url(#radialGradient-1)" x="1" y="1" width="1920" height="1080"></rect>
        <path d="M974.5,1062 C1247.60481,1062 1630,1001.33458 1630,926.5 C1630,851.665416 1247.60481,791 974.5,791 C701.395191,791 338.947737,820.496381 338.947737,895.330965 C338.947737,970.165549 701.395191,1062 974.5,1062 Z" id="Oval" fill="url(#linearGradient-2)"></path>
        <g id="d" filter="url(#filter-3)" transform="translate(1262.000000, 816.000000) scale(-1, 1) translate(-1262.000000, -816.000000) translate(1117.000000, 648.000000)" stroke="#000000" stroke-width="2">
            <path d="M224.197715,239.993736 C222.652837,239.993736 218.365431,238.485192 212.846468,236.597917 C209.161172,235.337686 204.943956,233.895709 200.619646,232.564775 C200.419583,232.5032 200.219576,232.44195 200.019636,232.381263 C199.84749,232.518472 199.691027,232.679598 199.502755,232.952096 C199.23074,233.3458 199.152681,233.595154 199.072555,233.927437 C198.956842,234.407299 198.825305,235.136058 198.682122,236.085817 C198.385653,238.05235 198.031564,240.999445 197.636287,244.65623 C196.606979,254.178563 195.295017,268.534362 193.982539,282.896566 C192.669629,297.263502 191.356201,311.636853 190.324886,321.176424 C189.932435,324.806554 189.581329,327.733649 189.286686,329.688533 C189.15435,330.566554 189.035134,331.241359 188.928088,331.686175 C188.68131,331.77462 188.308873,331.866585 187.819211,332.00782 C184.524903,332.958012 176.488052,335.296159 170.643108,334.969741 C168.94994,334.875184 167.446582,334.564214 166.356731,333.863154 C165.526741,333.329254 164.969742,332.552306 164.805197,331.463305 C164.68816,330.688725 164.781268,330.013533 165.046854,329.424675 C165.357579,328.735733 165.892577,328.168677 166.547632,327.682021 C168.703615,326.080287 172.098652,325.331233 174.577032,324.759739 C175.723216,324.495438 176.693008,324.267035 177.315673,324.033395 C177.674602,323.898716 177.945318,323.750138 178.126589,323.607026 C178.251855,323.50813 178.389572,323.368293 178.533405,323.184931 C177.298023,304.390318 178.253898,278.712134 178.899771,261.323111 C179.133542,255.029223 179.326903,249.817362 179.356469,246.435231 C179.368651,245.041631 179.352573,243.951856 179.302013,243.215835 C179.274132,242.809957 179.233499,242.497388 179.186009,242.283192 C179.151789,242.128846 179.092754,241.929712 179.006846,241.688112 C178.819408,241.63171 178.64083,241.580475 178.471636,241.534557 C172.982391,240.044806 156.141033,238.389228 146.004191,241.252202 C145.005467,242.432558 144.907394,242.821 144.808927,243.319147 C144.635402,244.197011 144.463689,245.484999 144.292186,247.114758 C143.871993,251.107754 143.444535,257.19616 142.944549,264.323023 C141.655882,282.691857 139.888017,307.994573 136.486899,321.951006 C135.977627,324.040795 134.389703,325.808567 132.269977,327.267508 C129.664611,329.060699 126.243073,330.37895 122.76325,331.173862 C118.871669,332.062833 114.90121,332.299297 111.901581,331.768909 C110.60191,331.539104 109.492318,331.170538 108.687196,330.623443 C108.088212,330.216422 107.667149,329.710141 107.547511,329.063235 C107.319313,327.829331 107.831044,326.906003 108.704549,326.143063 C110.211418,324.826928 112.67871,323.932597 115.116404,323.018399 C117.573068,322.097086 120.007671,321.163292 121.625511,319.918752 C123.045897,318.826105 123.870517,317.5032 123.844232,315.851239 C123.737898,309.168415 123.766589,300.1402 123.796508,290.697396 C123.870173,267.4481 123.500932,242.442619 121.744635,241.362706 C120.589568,240.652478 118.633167,240.877405 116.067335,242.089464 C113.209465,243.439476 109.572041,245.878041 105.839624,248.386946 C101.748906,251.136699 97.5413194,253.973841 94.1514333,255.461019 C92.1478022,256.340032 90.3948134,256.893568 89.3374575,256.140982 C84.4126703,252.635704 84.9509411,242.381255 85.1796034,234.185922 C85.28313,230.475492 85.369533,227.115932 85.0335206,224.785112 C84.8846452,223.752407 84.6481531,222.904062 84.3215576,222.277056 C83.9131907,221.493064 83.3592011,221.013021 82.6922132,220.803324 C76.9729227,219.005221 69.922301,219.122976 63.3660027,219.251599 C57.488195,219.366912 52.0178069,219.513429 48.4144356,218.079765 C47.1766497,217.58729 46.1734848,216.903071 45.5077256,215.914321 C44.89152,214.999166 44.5738241,213.833706 44.5738241,212.36894 C44.5738241,202.510837 42.9661391,197.019817 40.1983397,193.86523 C36.6887001,189.865134 31.234686,189.509022 24.1865197,189.227682 C19.4834265,189.039949 14.0663078,188.829428 8.11167281,187.272926 C6.44846644,186.838174 5.25220348,186.378914 4.46789139,185.81697 C3.90101398,185.410814 3.58801834,184.957151 3.55527602,184.384636 C3.44819374,182.512252 5.34570992,179.951455 7.95975512,176.100575 C12.3668926,169.608202 19.0480298,159.75875 24.0094356,144.260478 C24.2147935,143.618988 24.1223294,142.883878 23.6319999,142.07502 C23.2610594,141.463109 22.6408607,140.786793 21.8162028,140.072945 C19.9051468,138.418679 16.8366889,136.490425 13.6057998,134.467368 C9.9649509,132.18761 6.11213712,129.783024 3.57788125,127.500912 C2.05565155,126.130135 0.913380914,124.840621 1.00401924,123.620927 C1.22729819,120.616325 8.12860925,116.663281 13.9291305,113.052246 C19.6207541,109.509004 24.1011509,106.256109 24.0567266,104.500156 C23.8311274,95.5829335 22.7492736,88.0691714 21.8331962,81.7159398 C20.3031302,71.1045402 19.059948,63.7722207 23.7908912,58.661533 C29.4215326,52.5789298 40.3889489,54.1941191 51.4426876,55.6026659 C63.7921268,57.1763203 76.2852417,58.5662972 83.1192574,51.3313245 C87.9919479,46.1727494 92.5320206,40.5752647 97.0180545,35.0428915 C111.018412,17.7770386 124.44096,1 146.275991,1 C150.081351,1 152.629429,2.33245724 154.457006,4.54373407 C157.050552,7.68179679 158.258552,12.4530044 159.589668,17.532805 C160.752086,21.968822 161.985601,26.6426912 164.14218,30.7837555 C164.650624,31.76007 165.281141,32.3749177 165.979011,32.7358828 C166.754338,33.1369112 167.633452,33.2344649 168.601334,33.066128 C170.597292,32.7189854 173.049132,31.1235119 175.596575,29.4108591 C177.893298,27.8667664 180.278622,26.2349764 182.477413,25.6454135 C183.793134,25.2926286 185.042538,25.332087 186.108627,26.2129045 C187.221288,27.1322005 187.046753,30.4730469 187.111735,33.8202429 C187.173939,37.0243015 187.259003,40.3956732 187.978088,42.6576342 C188.299682,43.6692417 188.751806,44.4773784 189.332466,45.0298819 C189.949475,45.6169715 190.711313,45.9488856 191.657531,45.946206 C198.672165,45.9263417 208.7405,41.3856948 218.183035,37.0797685 C224.490742,34.2033672 230.511536,31.4477764 235.099788,30.3550627 C236.756693,29.9604628 238.21331,29.7823469 239.407983,29.9329037 C240.309513,30.0465176 241.050327,30.3489276 241.552042,30.9577911 C245.310196,35.518556 244.276623,43.8630173 243.356478,52.643494 C242.318954,62.5440524 241.317183,73.0324323 245.859481,80.1487356 C249.725643,86.2057542 258.311236,89.491758 266.421925,92.5038996 C271.450287,94.371329 276.267241,96.1399729 279.452223,98.5401181 C281.581223,100.144494 282.96659,102.034562 282.96659,104.525447 C282.96659,109.206613 278.462021,113.852231 273.899773,118.760877 C267.981107,125.128933 261.93189,131.879912 262.899188,139.294096 C263.483573,143.773312 271.361354,149.570067 278.590206,154.65299 C283.785424,158.305975 288.836176,161.514908 288.971345,163.597786 C289.233332,167.634866 287.641252,170.39295 284.903554,172.438993 C280.960512,175.385861 274.794022,176.926225 268.274173,178.59308 C260.395186,180.607409 252.012157,182.785099 246.083631,187.454849 C239.785512,192.41572 238.812458,203.216144 238.005274,213.98817 C237.43017,221.663038 236.902019,229.271282 234.121439,234.329342 C233.126551,236.139108 231.836038,237.609543 230.116005,238.594203 C228.528752,239.502852 226.583374,239.993736 224.197715,239.993736 Z" id="Oval" fill="#F4A9C4"></path>
            <path d="M187.410236,175.028384 C192.423592,176.303101 196.457435,177.804381 199.216571,179.440983 C201.277702,180.663559 202.684134,181.925787 202.953017,183.280529 C201.845162,183.521206 200.661557,183.600481 199.144674,183.638609 C195.214619,183.737395 189.132032,183.543014 181.851881,183.31142 C172.907607,183.026889 162.163878,182.685326 151.375611,182.75342 C141.511896,182.815679 131.608166,183.181375 122.956109,183.500978 C114.232283,183.823232 106.786254,184.099412 101.953157,183.96568 C100.091997,183.914182 98.6319118,183.804967 97.6564092,183.605455 C97.337535,181.882236 98.7506943,180.635241 100.767223,179.433205 C103.512513,177.79676 107.52678,176.295916 112.520728,175.021847 C122.074505,172.584464 135.17281,171 149.908999,171 C164.658294,171 177.809895,172.587362 187.410236,175.028384 Z" id="Oval" fill="#B897FD" transform="translate(150.000000, 177.500000) scale(1, -1) translate(-150.000000, -177.500000) "></path>
            <circle id="Oval" fill="#B897FD" cx="106.5" cy="97.5" r="6.5"></circle>
            <circle id="Oval" fill="#B897FD" cx="83.5" cy="133.5" r="6.5"></circle>
            <circle id="Oval" fill="#B897FD" cx="151.5" cy="133.5" r="6.5"></circle>
            <circle id="Oval" fill="#B897FD" cx="188.5" cy="97.5" r="6.5"></circle>
            <circle id="Oval" fill="#B897FD" cx="215.5" cy="133.5" r="6.5"></circle>
        </g>
        <g id="d" filter="url(#filter-4)" transform="translate(806.000000, 755.500000) scale(-1, 1) translate(-806.000000, -755.500000) translate(678.000000, 504.000000)">
            <path d="M243.653533,379.471301 C241.988887,380.690319 242.096567,386.773313 241.985605,390.950994 C241.933504,392.912545 241.884802,394.552039 241.761627,395.345967 C241.636964,396.149476 241.598992,396.908016 241.56278,397.604302 C241.48508,399.098329 241.359958,400.330949 240.769048,401.23644 C240.253342,402.026692 239.416338,402.64261 237.881886,402.913451 C237.041828,403.061576 236.329962,403.021768 235.728373,402.820376 C235.070309,402.600078 234.524454,402.191335 234.089199,401.56061 C233.406072,400.570694 233.000573,398.919732 232.898219,396.447696 C232.83812,394.996179 232.861577,393.237392 232.88601,391.453727 C232.922583,388.783812 232.966437,386.055604 232.703941,384.282689 C232.659075,383.979659 232.610355,383.708908 232.546577,383.482414 C231.998595,383.599502 231.654054,384.34143 231.207407,384.894182 C229.587266,386.899202 227.309892,389.656131 224.801861,390.844691 C224.15258,391.152386 223.507695,391.248791 222.898949,391.191404 C222.236467,391.128952 221.613688,390.881363 221.074821,390.502028 C219.938874,389.702382 219.204462,388.315893 219.228678,387.004628 C219.280472,384.200059 221.639057,381.091455 224.023625,378.114919 C226.141267,375.471573 228.566657,372.889332 227.791325,370.773957 C227.710832,370.554344 227.658665,370.308231 227.6101,370.055117 C227.574656,369.870386 227.635224,369.5838 227.409486,369.457347 C227.168914,369.322585 226.776226,369.338368 226.180713,369.424895 C224.788638,369.627162 223.172177,370.206646 221.581184,370.768712 C219.762785,371.411117 217.974622,372.029051 216.539837,372.173167 C215.134668,372.314307 214.0463,372.003821 213.336116,371.214947 C212.622578,370.422346 212.241551,369.638071 212.089644,368.881779 C211.913702,368.005823 212.040411,367.152317 212.39316,366.331009 C213.199757,364.45301 215.318106,362.741332 217.059277,361.390219 C217.389404,361.134048 217.702704,360.891059 217.984269,360.662146 C222.228473,357.211608 228.436719,355.372662 235.113346,354.097414 C234.988348,352.930303 234.859548,351.710385 234.725153,350.437471 C233.440536,338.270302 231.644065,321.252065 227.76278,299.217822 C226.933194,294.508218 226.084777,290.003259 225.232163,285.707325 C221.584664,320.566023 211.698532,347.934375 196.597293,366.092113 C195.538321,379.133586 194.558643,396.70632 196.068577,418.321351 C198.10268,447.439962 204.278251,465.690486 207.798723,476.095512 C208.656497,478.630729 209.357926,480.707242 209.809979,482.367164 C212.535945,484.750053 214.929709,489.530183 214.929709,495.734245 C214.929709,497.487987 214.615493,498.863615 214.064603,499.948583 C213.438078,501.182512 212.5054,502.062272 211.314032,502.68063 C208.682424,504.046518 204.652252,504.043229 199.974977,503.968809 C198.926908,503.952133 197.845863,503.934892 196.741671,503.934892 C195.695061,503.934892 194.598102,503.950372 193.475002,503.966184 C188.08266,504.042101 182.112637,504.095605 178.08247,502.613315 C176.423236,502.003051 175.077623,501.135375 174.160451,499.958537 C173.29918,498.853425 172.797891,497.472248 172.797891,495.734245 C172.797891,494.243399 173.493589,492.801272 174.779199,491.455161 C176.051927,490.122538 177.915298,488.873351 180.125519,487.7415 C185.340892,485.070714 192.517841,483.020832 197.976079,481.809933 C190.624336,471.552066 182.499209,450.410625 180.625418,423.586913 C179.619004,409.179888 180.071131,393.737717 181.432518,380.033825 C170.345676,387.622521 157.427289,391.615966 142.889288,391.615966 C136.844995,391.615966 130.98968,390.82246 125.359778,389.288744 C123.933935,399.029701 122.453538,411.8078 122.453538,427.420556 C122.453538,449.899528 126.209412,464.25195 128.350384,472.434633 C129.264226,475.927289 129.86913,478.347717 129.839942,479.832551 C130.203621,481.390934 130.412202,483.100993 130.412202,484.933804 C130.412202,486.687545 130.097987,488.063174 129.547096,489.148141 C128.920571,490.38207 127.987893,491.261831 126.796526,491.880188 C124.164917,493.246076 120.134746,493.242787 115.457471,493.168367 C114.409401,493.151691 113.328356,493.134451 112.226434,493.134448 C110.977792,493.137282 109.978437,493.151368 108.957495,493.165742 C103.565154,493.24166 97.5951302,493.295164 93.5649634,491.812874 C91.9057289,491.20261 90.5601163,490.334934 89.6429445,489.158095 C88.7816735,488.052983 88.280384,486.671806 88.280384,484.933804 C88.280384,483.342725 89.0753225,481.804995 90.5335996,480.379805 C91.991263,478.955216 94.1223135,477.630978 96.6119588,476.44556 C102.99116,473.408171 111.752894,471.245534 116.967041,470.300292 C113.085271,461.108891 109.859322,447.149689 109.859322,430.639573 C109.859322,415.124013 112.137719,398.217371 115.154042,385.588461 C91.4185573,374.765142 72.5515341,349.869129 61.8695606,315.434884 C61.3346172,325.988454 60.928731,337.378782 60.928731,349.117064 C60.928731,370.465788 62.111642,386.755457 62.9572215,398.403293 C63.171015,401.348292 63.3633004,403.997457 63.5099107,406.357305 C70.8015252,406.401662 77.5474502,407.083929 82.5082878,409.845914 C82.8252825,410.022403 83.1759711,410.207238 83.5455173,410.402131 C85.4946941,411.430094 87.8778593,412.747607 88.9980213,414.45692 C89.4879076,415.204462 89.7607781,416.023002 89.7394615,416.916272 C89.7210592,417.687422 89.4818897,418.525957 88.9167248,419.430479 C88.3542213,420.330741 87.3363069,420.825572 85.92816,420.930816 C84.4901627,421.038292 82.6219631,420.740572 80.7197381,420.42401 C79.0554249,420.14704 77.3630065,419.857344 75.9570017,419.900126 C75.3554403,419.918431 74.9659397,419.971202 74.7523779,420.145752 C74.5519227,420.309589 74.6611989,420.581384 74.6583365,420.769603 C74.6544175,421.027302 74.6457383,421.278732 74.6045663,421.50899 C74.2079831,423.726925 77.0444434,425.848321 79.5883363,428.083289 C82.453108,430.600168 85.3151528,433.251616 85.8526867,436.004624 C86.1039829,437.291651 85.6213316,438.784637 84.6414252,439.769518 C84.1765959,440.236707 83.6062834,440.588746 82.9647664,440.765386 C82.375209,440.927719 81.7233838,440.944863 81.0305762,440.7547 C78.3544031,440.020142 75.6333088,437.700934 73.6899171,436.007961 C73.1150986,435.507212 72.646894,434.980576 72.3071113,434.704894 C72.1207208,435.053468 72.1009638,435.337567 72.1099647,435.66638 C72.1590073,437.457976 72.6754617,440.137098 73.1746333,442.760076 C73.5081111,444.512389 73.8363122,446.24037 74.028923,447.680274 C74.3569501,450.132514 74.2440303,451.828965 73.7429875,452.922616 C73.4237854,453.619354 72.9571671,454.116705 72.3473785,454.447958 C71.7898596,454.750816 71.0957184,454.913669 70.242739,454.913669 C68.6846306,454.913669 67.7534318,454.452511 67.1084211,453.763855 C66.3693783,452.974805 66.0322844,451.782614 65.6965756,450.324722 C65.5401293,449.645318 65.3711507,448.904913 65.1089988,448.135293 C64.8499688,447.374838 64.517598,445.768716 64.1260132,443.846023 C63.2920662,439.751315 62.3430439,433.742114 60.8678555,432.938581 C60.3136454,432.889937 60.1955621,433.081122 60.0629289,433.293054 C59.3899754,434.368353 58.9105235,436.342909 58.2986347,438.726396 C57.6765316,441.14967 56.947895,443.980005 55.8623239,446.790493 C55.4673065,447.813173 54.9998781,448.411163 54.5538513,448.782958 C53.8130174,449.400496 53.0762762,449.460542 52.5067733,449.479114 C51.4761167,449.521118 50.7913332,449.042831 50.2700186,448.285761 C49.7062909,447.467099 49.3702161,446.26908 49.1898114,445.542046 C48.4457865,442.543611 49.2293582,425.912383 53.4398995,415.432185 C48.2607485,404.395317 43.3242635,380.264257 43.3242635,352.857169 C43.3242635,327.038985 48.1169523,290.352863 53.2137352,270.115455 C52.527082,262.396185 52.1739084,254.40405 52.1739084,246.173499 C52.1739084,215.033625 44.68604,143.104326 33.2421372,95.8396902 C32.3580394,95.4799152 31.572234,95.4103157 30.6412059,95.3847602 C27.8563146,95.3083189 23.8683127,95.6644176 20.523502,95.9605393 C18.2131336,96.16508 16.2012326,96.3409086 15.0636818,96.3409086 C14.3310524,96.3409086 13.519611,96.385163 12.6691748,96.4309537 C9.75620508,96.5877989 6.44119096,96.7114649 4.04637798,95.5082323 C2.19883633,94.5799668 0.809885546,92.9278327 0.478693029,89.9442075 C0.365846542,88.9276035 0.678466942,87.8917515 1.40284916,86.85669 C2.07148527,85.9012834 3.10663113,84.9335991 4.4190694,83.9727331 C7.63656285,81.6171328 12.5773261,79.2484932 17.4392386,76.9264439 C21.892316,74.7996542 26.2775211,72.7130798 29.1228545,70.6916513 C30.1276353,69.9778184 30.9328935,69.2814056 31.4453916,68.5880259 C31.7844847,68.1292528 32.0013623,67.683074 31.9512731,67.2284642 C31.8986773,66.7511054 31.5462424,66.4009489 31.072869,66.0938069 C30.3009123,65.592933 29.1923458,65.2297957 27.8702279,64.9413897 C23.9855554,64.0939896 18.3517705,63.9621283 13.2886595,63.8361829 C6.75845723,63.6737436 1.48321774,63.1977499 0.640561117,61.933878 C-0.467836263,60.2714307 -1,58.622279 -1,57.1352295 C-1,55.5399073 -0.405172108,54.10931 0.787448183,52.9875365 C2.80343605,51.0913071 12.4538143,45.5615157 24.8413915,43.8779559 C31.8434563,42.9263255 41.3679391,43.5661772 49.1727075,44.0976572 C55.6721183,44.5402465 61.3484152,45.3321081 62.0917529,44.2886406 C62.0131463,43.9548995 61.8507638,43.6756358 61.6280886,43.3606546 C60.9800042,42.4439183 59.8342937,41.3464769 58.3682516,40.1237136 C54.1992623,36.6465369 47.4987036,32.2599609 41.6182602,28.407013 C35.045689,24.1005733 29.634853,20.3490176 29.2032037,19.1384523 C28.4577211,17.0477383 28.301235,15.210423 29.4368777,13.7815569 C30.2919563,12.7056969 31.9759043,11.7904955 35.152093,11.3339899 C44.6175891,9.973538 65.35166,13.9442183 74.0477685,16.1022274 C75.5918378,16.4854005 79.0112687,18.0233354 83.0377512,19.848796 C88.1515571,22.1672094 94.2750974,24.9480554 98.6824658,26.2608364 C100.187785,26.7092115 101.478039,26.9883571 102.431826,26.9841642 C102.740869,26.9828056 103.004517,26.9576217 103.205681,26.8687501 C103.410528,26.5579282 103.11124,26.2005683 102.878003,25.8057917 C102.400085,24.9968679 101.604973,24.0146515 100.562807,22.9110397 C98.3854776,20.6053344 95.1527997,17.8091713 91.3689307,15.0124391 C89.4516766,13.5953587 87.1984455,12.3632608 85.0823901,11.202733 C82.7277494,9.91135571 80.5391207,8.69930014 79.091406,7.44845206 C77.7608028,6.29879018 77.0472212,5.09138139 77.0472212,3.83196722 C77.0472212,2.88954318 77.2949474,2.12796246 77.7124325,1.50560596 C78.1579862,0.841406866 78.807848,0.329817396 79.6197264,-0.0443847479 C81.3529124,-0.843225991 83.9019802,-0.988240082 86.359036,-0.999051465 C102.570488,-1.0000148 129.96806,6.30580405 143.739179,28.5161806 C151.165206,40.4930493 157.279364,58.3382842 163.608336,76.8483018 C167.698205,88.8097277 171.881914,101.048453 176.584217,112.139006 C180.589422,121.585428 185.090219,131.612273 189.708399,141.900822 C202.603525,170.629056 216.405871,201.394153 222.940216,227.283666 C230.649887,241.699685 240.873909,272.167587 245.779732,300.018169 C250.231883,325.293264 250.330395,348.55476 248.09022,361.961619 C253.756983,371.625443 257.195533,387.031878 256.989106,390.024972 C256.937565,390.772295 256.814434,392.010487 256.401302,392.914673 C256.004175,393.783828 255.36961,394.350231 254.517817,394.462839 C253.801123,394.564549 253.085199,394.616324 252.268923,394.148645 C251.765125,393.859997 251.200995,393.352296 250.634511,392.413711 C249.077881,389.834591 247.869321,387.173881 246.836292,384.895533 C245.820252,382.654655 245.005584,380.793464 244.156337,379.851491 C243.989045,379.665933 243.839677,379.498217 243.653533,379.471301 Z" id="Combined-Shape" stroke="#000000" stroke-width="2" fill="#F3A7A7"></path>
            <g id="Group-2" transform="translate(62.000000, 114.000000)">
                <path d="M1.02051022,63.1484083 C0.813952843,59.1202794 2.13569552,53.2598569 4.85846422,46.0044958 C5.00065991,45.6255869 5.14007085,45.2537915 5.27685765,44.8889943 C7.96908447,37.7090858 9.60686885,33.2770771 11.4995457,30.7075118 C13.0000393,28.6703885 14.6738072,27.9574271 17.289849,27.9574271 C18.6454352,27.9574271 19.8137212,28.4501109 20.7696937,29.3649317 C21.832918,30.3823875 22.6344078,31.8923736 23.1815682,33.791887 C24.3275462,37.7702463 24.3368336,43.3961294 23.0157032,50.0453573 C21.8530023,55.897212 19.4199908,60.1959882 16.5094865,63.1652159 C12.9060014,66.8414064 8.58140827,68.4734535 5.14369568,68.4734535 C3.89497578,68.4734535 2.92196665,68.0750343 2.25186097,67.2542151 C1.49143441,66.322761 1.11162177,64.9251982 1.02051022,63.1484083 Z" id="Oval" stroke="#000000" stroke-width="2" fill="#AD6161" transform="translate(12.511034, 48.215440) scale(-1, -1) translate(-12.511034, -48.215440) "></path>
                <path d="M74.1194934,45.2771737 C72.884321,45.284503 71.9234957,44.892934 71.2652112,44.076369 C70.5140666,43.1446161 70.1456226,41.7423551 70.0656187,39.9572193 C69.884157,35.9082479 71.2346209,30.0080289 73.9886401,22.6966283 C74.1324008,22.3149706 74.273348,21.9404786 74.4116422,21.5730357 C77.1346672,14.3380483 78.7919741,9.87256194 80.6914004,7.2778173 C82.1972798,5.22068424 83.8667179,4.49060782 86.4720361,4.4750525 C87.8151904,4.46708153 88.9698899,4.953149 89.9116521,5.86308423 C90.9626968,6.87860888 91.7497434,8.39039691 92.2823394,10.2945995 C93.3992027,14.287747 93.374721,19.9437983 92.0197506,26.6369839 C90.8267196,32.5302328 88.3777281,36.868549 85.4614607,39.8724715 C81.853445,43.5889346 77.5408321,45.2567438 74.1194934,45.2771737 Z" id="Oval" stroke="#000000" stroke-width="2" fill="#AD6161" transform="translate(81.564119, 24.876113) scale(1, -1) rotate(40.000000) translate(-81.564119, -24.876113) "></path>
                <ellipse id="Oval" fill="#000000" cx="34.5364656" cy="102.10487" rx="7.27083486" ry="9.87714235"></ellipse>
                <ellipse id="Oval" fill="#000000" cx="81.7968922" cy="69.7796771" rx="7.27083486" ry="9.87714235"></ellipse>
                <ellipse id="Oval" fill="#FFFFFF" cx="37.2630287" cy="96.717338" rx="2.72656307" ry="2.6937661"></ellipse>
                <ellipse id="Oval" fill="#FFFFFF" cx="84.5234552" cy="64.3921449" rx="2.72656307" ry="2.6937661"></ellipse>
            </g>
            <path d="M116,258 C122.219233,277.005834 128.612225,288.84014 135.178978,293.502917 C141.74573,298.165694 152.019404,298.165694 166,293.502917" id="Line-5" stroke="#000000" stroke-width="3" stroke-linecap="round" transform="translate(141.000000, 277.500000) scale(-1, 1) translate(-141.000000, -277.500000) "></path>
        </g>
        <g id="d" transform="translate(792.000000, 728.000000)">
            <path d="M446.60665,162.833774 L246.596446,161.877676 C246.61685,167.773044 246.611409,173.974729 246.605773,180.397448 C246.603088,183.456461 246.600359,186.565627 246.600359,189.715642 L246.600524,191.090025 C246.601154,193.770787 246.603479,196.420695 246.605773,199.034002 C246.636867,234.463067 246.597077,263.169075 242.355112,271.034482 C241.456949,273.459629 240.16001,275.569674 238.01666,277.003412 C236.217892,278.206651 233.812762,278.942172 230.500882,278.942174 C228.52783,278.942176 219.25002,279.243748 217.481446,278.469489 C215.900668,277.777444 210.429273,275.377988 213.984236,269.503122 C217.539199,263.628257 229.07073,262.13134 230.500882,261.591233 C227.361952,246.34436 224.930055,216.317909 224.930055,189.715725 C224.930055,179.952552 225.201807,170.581991 225.701004,161.877671 L204.041493,161.877676 C204.427866,172.986897 204.133859,184.361907 204.133859,198.384243 C204.133859,214.10286 205.207994,228.94296 206.093322,241.180025 C206.680034,249.289591 207.183672,256.259686 207.240617,261.591233 C207.513813,263.064957 207.425128,264.766582 207.323156,266.555708 C207.283405,267.253135 207.242754,267.964313 207.22511,268.680066 C207.188739,270.155534 206.899913,271.319952 206.406632,272.246205 C205.860522,273.271661 205.063719,274.017709 204.041493,274.560196 C201.755663,275.77327 198.252629,275.914684 193.948885,276.042691 C193.738983,276.048934 184.011298,276.320221 181.241332,275.184421 C180.050266,274.696036 179.112453,273.986965 178.489557,272.997611 C177.922968,272.09769 177.611456,270.956934 177.647294,269.503122 C177.716067,266.713198 180.720406,264.668604 181.241332,264.227105 C183.743208,262.1067 187.391715,260.736741 191.07898,260.427615 C186.200228,246.51748 182.498097,221.530359 182.498097,198.384243 C182.498097,184.36458 181.301899,173.9468 182.498097,162.833774 L10.7939279,162.833774 C8.14156739,162.833774 5.79255075,161.82906 3.96345174,160.070767 C2.14872553,158.32629 0.845028675,155.830778 0.29295517,152.830304 C-0.645129231,147.731892 0.587193415,141.148257 5.18946005,134.424964 C11.4797035,125.235763 24.1040515,115.746732 46.1342612,109.569028 C68.1053147,103.407913 84.9045429,101.759358 95.5947957,100.710953 C99.5291734,100.325105 101.723328,99.6406154 103.934676,99.2199337 C103.934676,96.1612088 105.506586,86.2906796 108.68442,74.2710175 C112.047609,61.550274 130.679819,31.1593089 147.874567,19.5071102 C167.163994,6.4354319 191.6612,0 217.001112,0 C241.573821,0 262.815184,6.82125959 280.095133,19.633164 C297.353606,32.429145 312.504741,50.309583 321.21675,74.2710175 C322.106929,77.971356 326.709379,94.6250907 326.709379,98.0184798 C330.146314,99.1918243 340.793485,100.099491 353.736691,101.258033 C373.594159,103.035467 398.832216,105.303201 412.342141,109.575615 C428.928429,114.820907 439.252986,123.670881 445.192745,132.613281 C449.57423,139.209679 451.572858,145.865211 451.937882,151.195159 C452.165468,154.518299 451.755599,157.334759 450.906555,159.330974 C450.43897,160.430329 449.835027,161.290033 449.137097,161.877671 C448.39287,162.504292 447.539291,162.833774 446.60665,162.833774 Z" id="Combined-Shape" stroke="#000000" stroke-width="2" fill="#99CAF4" fill-rule="nonzero" transform="translate(226.000000, 139.500000) scale(-1, 1) translate(-226.000000, -139.500000) "></path>
            <g id="Group" transform="translate(289.000000, 35.000000)">
                <ellipse id="Oval" fill="#000000" fill-rule="nonzero" cx="9.33169133" cy="22.65" rx="5.43842365" ry="7.35"></ellipse>
                <ellipse id="Oval" fill="#FFFFFF" fill-rule="nonzero" cx="12.0509031" cy="20.2" rx="2.11494253" ry="2.8"></ellipse>
                <path d="M0.576973354,5.15919247 C5.23489196,0.324360072 9.25480086,0.842561533 12.6367,6.71379685" id="Path-4" stroke="#000000" stroke-width="2" stroke-linecap="round" transform="translate(6.606837, 4.298946) rotate(-10.000000) translate(-6.606837, -4.298946) "></path>
            </g>
            <path d="M232.283853,112.805233 C249.334082,123.849882 260.867757,130.247364 266.884877,131.997677 C273.405241,133.894377 282.920059,136.66726 285.28482,132.769695 C287.649581,128.87213 284.755851,122.277335 275.244334,112.826701 C250.233472,87.9759303 240.045075,77.9287385 244.679144,82.6851256" id="Path-7" stroke="#000000" stroke-width="2" stroke-linecap="round" transform="translate(259.175719, 108.138830) rotate(-15.000000) translate(-259.175719, -108.138830) "></path>
            <polygon id="Rectangle" fill="#000000" points="310 84 336 84 325.158171 97 322.058301 97"></polygon>
            <path d="M311,77 L335,77 C335.552285,77 336,77.4477153 336,78 L336,83 L336,83 L310,83 L310,78 C310,77.4477153 310.447715,77 311,77 Z" id="Rectangle" fill="#FFFFFF"></path>
        </g>
        <path d="M1921.5,0.5 L1921.5,1081.5 L0.5,1081.5 L0.5,0.5 L1921.5,0.5 Z M943.5,147.5 L570.5,147.5 L570.5,525.293814 L943.5,525.293814 L943.5,147.5 Z M1352.5,147.5 L978.5,147.5 L978.5,525.293814 L1352.5,525.293814 L1352.5,147.5 Z M943.5,556.706186 L570.5,556.706186 L570.5,934.5 L943.5,934.5 L943.5,556.706186 Z M1352.5,556.706186 L978.5,556.706186 L978.5,934.5 L1352.5,934.5 L1352.5,556.706186 Z" id="Combined-Shape" stroke="#979797" fill="#D8D8D8"></path>
        <rect id="Rectangle" stroke="#000000" stroke-width="2" fill="#A48A7D" x="1530" y="1" width="391" height="1081"></rect>
        <rect id="Rectangle" stroke="#745A4D" stroke-width="4" fill="#BF9D8C" x="1531" y="-14" width="97" height="1118"></rect>
    </g>
</svg>