<?xml version="1.0" encoding="UTF-8"?>
<svg width="759px" height="656px" viewBox="0 0 759 656" version="1.1" xmlns="http://www.w3.org/2000/svg" xmlns:xlink="http://www.w3.org/1999/xlink">
    <!-- Generator: Sketch 62 (91390) - https://sketch.com -->
    <title>5bubble2</title>
    <desc>Created with Sketch.</desc>
    <defs>
        <filter x="-13.2%" y="-11.4%" width="126.4%" height="122.9%" filterUnits="objectBoundingBox" id="filter-1">
            <feOffset dx="0" dy="2" in="SourceAlpha" result="shadowOffsetOuter1"></feOffset>
            <feGaussianBlur stdDeviation="2" in="shadowOffsetOuter1" result="shadowBlurOuter1"></feGaussianBlur>
            <feColorMatrix values="0 0 0 0 0   0 0 0 0 0   0 0 0 0 0  0 0 0 0.5 0" type="matrix" in="shadowBlurOuter1" result="shadowMatrixOuter1"></feColorMatrix>
            <feMerge>
                <feMergeNode in="shadowMatrixOuter1"></feMergeNode>
                <feMergeNode in="SourceGraphic"></feMergeNode>
            </feMerge>
        </filter>
        <filter x="-17.5%" y="-8.9%" width="135.0%" height="117.8%" filterUnits="objectBoundingBox" id="filter-2">
            <feOffset dx="0" dy="2" in="SourceAlpha" result="shadowOffsetOuter1"></feOffset>
            <feGaussianBlur stdDeviation="2" in="shadowOffsetOuter1" result="shadowBlurOuter1"></feGaussianBlur>
            <feColorMatrix values="0 0 0 0 0   0 0 0 0 0   0 0 0 0 0  0 0 0 0.5 0" type="matrix" in="shadowBlurOuter1" result="shadowMatrixOuter1"></feColorMatrix>
            <feMerge>
                <feMergeNode in="shadowMatrixOuter1"></feMergeNode>
                <feMergeNode in="SourceGraphic"></feMergeNode>
            </feMerge>
        </filter>
    </defs>
    <g id="Page-1" stroke="none" stroke-width="1" fill="none" fill-rule="evenodd">
        <g id="5bubble2">
            <path d="M561.838897,645.47876 C561.838897,647.967646 560.814989,650.219978 559.1624,651.850699 C557.50253,653.488605 555.208983,654.5 552.676566,654.5 C550.144149,654.5 547.850601,653.488605 546.190732,651.850699 C544.538142,650.219978 543.514235,647.967646 543.514235,645.47876 C543.514235,642.989875 544.538142,640.737543 546.190732,639.106822 C547.850601,637.468916 550.144149,636.457521 552.676566,636.457521 C555.208983,636.457521 557.50253,637.468916 559.1624,639.106822 C560.814989,640.737543 561.838897,642.989875 561.838897,645.47876 Z M533.865093,614.224167 C533.865093,619.50979 531.733925,624.295359 528.287262,627.759302 C524.843308,631.220523 520.08571,633.361983 514.830233,633.361983 C509.574757,633.361983 504.817158,631.220523 501.373204,627.759302 C497.926541,624.295359 495.795374,619.50979 495.795374,614.224167 C495.795374,608.938544 497.926541,604.152975 501.373204,600.689032 C504.817158,597.227811 509.574757,595.086351 514.830233,595.086351 C520.08571,595.086351 524.843308,597.227811 528.287262,600.689032 C531.733925,604.152975 533.865093,608.938544 533.865093,614.224167 Z M706.472288,433.923868 C674.84075,459.43312 631.137763,475.193084 582.874089,475.193084 C579.187204,475.193084 575.526957,475.101108 571.896686,474.919836 C571.553024,474.902675 571.209175,474.884692 570.863053,474.869888 C570.726907,475.183771 570.589484,475.497014 570.450784,475.809611 C558.490453,502.76538 536.594484,525.902774 508.344156,542.388966 C507.994131,542.593233 507.643696,542.796147 507.29557,542.998028 C507.425443,543.374986 507.549854,543.753352 507.668824,544.133022 C508.928822,548.154046 509.604203,552.403069 509.604203,556.795506 C509.604203,569.552146 503.904023,581.093096 494.711863,589.450147 C485.465515,597.856465 472.689122,603.045747 458.58235,603.045747 C447.171941,603.045747 436.632914,599.650746 428.127007,593.904371 C419.139874,587.832892 412.421711,579.135772 409.371538,569.05234 L405.958377,569.074914 C357.317434,569.074914 313.308607,553.067628 281.620609,527.205698 C279.43804,526.6107 277.932214,526.315201 276.430785,526.010778 C258.110331,530.851639 239.216099,533.464565 219.565036,533.464565 C171.301363,533.464565 127.598376,517.7046 95.9668383,492.195348 C64.4648552,466.790575 44.9391259,431.70644 44.9391259,392.927831 C44.9391259,388.924546 45.1471629,384.960448 45.5550197,381.042187 C45.5811331,380.791317 45.6080867,380.540431 45.6312577,380.285161 C45.4453841,380.117052 45.259825,379.948414 45.074582,379.77925 C17.9761857,355.032863 1.5,322.526833 1.5,286.906109 C1.5,241.204727 28.6134303,200.644238 70.4912745,174.997724 C70.8618975,174.77075 71.2330354,174.545337 71.6000585,174.31938 C71.4274168,173.924877 71.2569971,173.529347 71.0887982,173.132807 C65.4067971,159.737118 62.3147763,145.320219 62.3147763,130.301505 C62.3147763,94.7600636 79.6324568,62.6018291 107.577875,39.3168167 C135.631505,15.9416394 174.39133,1.5 217.19563,1.5 C251.470665,1.5 283.150833,10.7599801 308.820097,26.4511925 C309.08174,26.611131 309.343074,26.77193 309.605455,26.9306854 C309.864916,26.770006 310.124688,26.6101751 310.384766,26.4511943 C336.054159,10.7599812 367.734328,1.5 402.009365,1.5 C437.355548,1.5 469.942304,11.3477667 496.02271,27.9410679 C496.196219,28.0514604 496.369579,28.1622402 496.544143,28.270116 C496.742486,28.2273428 496.940819,28.1849239 497.139141,28.142859 C509.40068,25.5421377 522.249739,24.1611313 535.485952,24.1611313 C578.290252,24.1611313 617.050077,38.6027707 645.103706,61.9779481 C673.049125,85.2629604 690.366805,117.421195 690.366805,152.962637 C690.366805,174.402736 684.064687,194.61548 672.927124,212.389416 C672.630738,212.862404 672.331306,213.333064 672.02992,213.802395 C672.533247,214.043379 673.036044,214.286897 673.53829,214.532942 C699.173174,227.091205 720.484103,244.820027 735.225601,265.935809 C749.403899,286.244859 757.5,309.687211 757.5,334.65635 C757.5,373.434959 737.974271,408.519095 706.472288,433.923868 Z" id="bubble" stroke="#000000" stroke-width="3" fill="#FFFFFF" transform="translate(379.500000, 328.000000) scale(-1, 1) translate(-379.500000, -328.000000) "></path>
            <g id="Group-3" transform="translate(144.374137, 84.000000)">
                <rect id="Rectangle" fill="#D8D8D8" x="241.374137" y="129" width="266" height="227"></rect>
                <path d="M506.374137,156 L506.374137,355 L242.374137,355 L242.374137,156 L197.041967,156 L374.374137,1.32694069 L551.706307,156 L506.374137,156 Z" id="Combined-Shape" stroke="#000000" stroke-width="2" fill="#D8D8D8"></path>
                <rect id="Rectangle" fill="#D5F8FF" x="332.374137" y="205" width="85" height="75"></rect>
                <polygon id="Triangle" fill="#F68A8A" points="374.874137 3 549.374137 155 200.374137 155"></polygon>
                <rect id="Rectangle" fill="#D8D8D8" x="332.374137" y="238" width="85" height="13"></rect>
                <rect id="Rectangle" fill="#D8D8D8" transform="translate(374.874137, 244.500000) rotate(90.000000) translate(-374.874137, -244.500000) " x="332.374137" y="238" width="85" height="13"></rect>
                <polygon id="Rectangle" fill="#90D472" points="176.374137 318 213.263026 342 250.151915 318 287.040804 342 323.929692 318 360.818581 342 397.70747 318 434.596359 342 471.485248 318 508.374137 342 508.374137 366 176.374137 366"></polygon>
                <polygon id="Rectangle" fill="#90D472" points="29.1519147 318 66.0408036 342 102.929692 318 139.818581 342 176.70747 318 213.596359 342 250.485248 318 287.374137 342 287.374137 366 -2.55239507e-13 366"></polygon>
                <circle id="Oval" fill="#FFE9B8" cx="85.8741369" cy="91.5" r="29.5"></circle>
                <rect id="Rectangle" fill="#FFE9B8" x="120.374137" y="87" width="37" height="5" rx="2.5"></rect>
                <rect id="Rectangle" fill="#FFE9B8" transform="translate(129.874137, 53.500000) rotate(-45.000000) translate(-129.874137, -53.500000) " x="111.374137" y="51" width="37" height="5" rx="2.5"></rect>
                <rect id="Rectangle" fill="#FFE9B8" transform="translate(46.874137, 129.500000) rotate(-45.000000) translate(-46.874137, -129.500000) " x="28.3741369" y="127" width="37" height="5" rx="2.5"></rect>
                <rect id="Rectangle" fill="#FFE9B8" x="13.3741369" y="87" width="37" height="5" rx="2.5"></rect>
                <rect id="Rectangle" fill="#FFE9B8" transform="translate(85.874137, 38.500000) rotate(90.000000) translate(-85.874137, -38.500000) " x="67.3741369" y="36" width="37" height="5" rx="2.5"></rect>
                <rect id="Rectangle" fill="#FFE9B8" transform="translate(83.874137, 144.500000) rotate(90.000000) translate(-83.874137, -144.500000) " x="65.3741369" y="142" width="37" height="5" rx="2.5"></rect>
                <rect id="Rectangle" fill="#FFE9B8" transform="translate(123.874137, 129.500000) rotate(45.000000) translate(-123.874137, -129.500000) " x="105.374137" y="127" width="37" height="5" rx="2.5"></rect>
                <rect id="Rectangle" fill="#FFE9B8" transform="translate(46.874137, 50.500000) rotate(45.000000) translate(-46.874137, -50.500000) " x="28.3741369" y="48" width="37" height="5" rx="2.5"></rect>
            </g>
            <g id="d" filter="url(#filter-1)" transform="translate(333.500000, 380.500000) scale(-1, 1) translate(-333.500000, -380.500000) translate(288.000000, 328.000000)" stroke="#000000" stroke-width="2">
                <path d="M70.3516969,74.3105426 C69.8957547,74.3105426 68.6350334,73.8391328 67.0105926,73.2859251 C65.848125,72.8900436 64.5178428,72.4371615 63.1538093,72.0190699 C62.8713284,71.9324864 62.5892104,71.8479498 62.3088755,71.765473 C62.1678135,72.0184072 62.0554004,72.2436656 61.9155169,72.6487847 C61.7616601,73.0943722 61.7159066,73.3482228 61.6666314,73.6737274 C61.5726015,74.2948748 61.4600875,75.2257152 61.3347187,76.3807481 C61.0114212,79.359313 60.5992969,83.849771 60.1870578,88.3422374 C59.7754681,92.8276266 59.3637637,97.3150233 59.0404525,100.293298 C58.918636,101.415447 58.8098623,102.320303 58.7184048,102.9246 C57.210523,103.522712 55.1387862,104.078035 53.5846638,103.991601 C53.1891164,103.969602 52.8286159,103.917888 52.571252,103.753018 C53.2759662,102.504706 54.2396525,102.317078 54.9343767,102.157541 C55.3306833,102.066532 55.6650294,101.985008 55.8802358,101.90459 C56.0531995,101.839957 56.2847311,101.725395 56.5552473,101.583474 C56.5458131,101.363565 56.5372335,101.146345 56.529556,100.932051 C56.3212959,95.1191356 56.6210014,87.1117053 56.8232426,81.6891434 C56.8969077,79.7140073 56.9576868,78.0784286 56.9670033,77.0170555 C56.9710293,76.5584001 56.9650172,76.1997741 56.9483092,75.9575504 C56.9377932,75.8050961 56.9167492,75.607549 56.8855889,75.3687528 C56.6817363,75.2585169 56.4947149,75.1682815 56.3283526,75.1004255 C54.4941133,74.3522742 48.962175,73.7920634 45.629635,74.7294024 C45.4599977,74.7771161 45.2875198,74.831112 45.113084,74.8908641 C45.0578006,75.042827 45.0019637,75.2101395 44.9439852,75.4000281 C44.7137015,76.1542424 44.6543365,76.5941711 44.5954993,77.1509836 C44.4630574,78.404362 44.328102,80.3154585 44.1705096,82.5525431 C43.7687508,88.2556667 43.222571,96.1126123 42.1621776,100.445988 C42.0384397,100.951652 41.6249642,101.356152 41.1179441,101.70368 C40.3653207,102.219552 39.3747549,102.592895 38.3703167,102.821398 C37.246677,103.077018 36.0997252,103.153331 35.2327288,103.000663 C34.9350886,102.948252 34.6750204,102.875737 34.489379,102.75011 C34.9823472,102.07201 35.6827446,101.841292 36.362422,101.587446 C37.2031299,101.273458 38.0292655,100.944238 38.5820622,100.520746 C39.2233333,100.029474 39.5592704,99.4238938 39.5475848,98.6925087 C39.5142739,96.6076317 39.5233211,93.7910501 39.5326938,90.8451275 C39.5573911,83.0825573 39.1326105,75.1895763 38.5604836,74.8392361 C38.0765258,74.5428861 37.2634759,74.4971687 36.1294729,75.0306463 C35.2082269,75.464035 34.033845,76.2437446 32.8305153,77.0492814 C31.5835894,77.8840025 30.303301,78.7498328 29.2697773,79.2013819 C28.9735917,79.3307861 28.6290328,79.6240378 28.4298036,79.4828184 C27.0140571,78.4792958 27.3511175,75.472135 27.4147088,73.2023909 C27.4485072,71.9960359 27.4717016,70.9042671 27.3620344,70.1466728 C27.3019492,69.7315964 27.1987949,69.3938171 27.067334,69.1424756 C24.336383,67.7670212 22.0247248,67.7866661 19.8704358,67.8287555 C18.1346013,67.8626693 16.511275,67.9333021 15.4444779,67.5106074 C15.1963779,67.4123033 14.9833632,67.2876514 14.8481405,67.0876535 C14.7220711,66.9011936 14.6731655,66.6599152 14.6731655,66.3652938 C14.6731655,63.0174304 14.0652729,61.1912975 13.1284219,60.1279258 C11.9195351,58.7557802 10.0772266,58.5444999 7.61676837,58.446691 C6.18378887,58.3897268 4.53257084,58.3297583 2.7179504,57.857383 C2.30347991,57.7494896 1.99762724,57.6484719 1.80085458,57.5082543 C1.8299869,57.0163908 2.41397443,56.373358 3.06439082,55.4191457 C4.47179731,53.354369 6.60286515,50.2207379 8.18716448,45.2921514 C7.90477104,43.8003355 7.62946227,43.5414164 7.2933385,43.2516569 C6.67340121,42.7172326 5.68028944,42.0910635 4.63200679,41.4373746 C3.52518112,40.7471794 2.35096535,40.0228353 1.58037824,39.3317766 C1.3293187,39.1066276 0.981893569,38.9167533 0.999351584,38.6827938 C1.06191284,37.8443939 3.19319796,36.8674289 4.7319491,35.9134479 C6.92720277,34.5524544 8.25077096,33.2667138 8.23481963,32.6388064 C8.16322233,29.8204537 7.82094166,27.4455564 7.53020559,25.4375363 C7.09528453,22.4336771 6.59603539,20.2758068 7.96758675,18.8002691 C9.61851313,17.0241751 12.8797549,17.6547947 16.0561332,18.0578837 C20.2055135,18.5844486 24.3129008,18.9045096 26.5796801,16.5146258 C28.1205407,14.890084 29.5567207,13.1277514 30.9753217,11.3854799 C35.2174074,6.17551276 39.2511322,1 45.9003972,1 C46.841573,1 47.4842905,1.31046597 47.9398999,1.85945904 C48.6992603,2.77446135 49.0260995,4.17776895 49.4145994,5.65425197 C49.7922638,7.08955519 50.1983858,8.59949497 50.8988475,9.93897897 C51.1380614,10.3964248 51.4431167,10.673363 51.7693072,10.8413858 C52.1393054,11.0319743 52.5580336,11.0911219 53.0228323,11.0106159 C53.7201032,10.8898444 54.5884477,10.3609442 55.4822661,9.762504 C56.1361419,9.32471303 56.8093366,8.8460704 57.4368731,8.67850214 C57.6179442,8.63015155 57.8062261,8.59292922 57.964095,8.72282521 C58.2366617,8.94709559 58.0139844,9.84811183 58.028296,10.5822508 C58.0492293,11.6560659 58.0909542,12.7828398 58.3326333,13.5399354 C58.4744499,13.9841966 58.6851474,14.3301097 58.9396986,14.5713195 C59.2589523,14.8738405 59.6525342,15.0470691 60.142743,15.0456867 C62.4149314,15.0392787 65.6844983,13.6046765 68.7476288,12.213603 C70.6807949,11.3356854 72.5242663,10.4885513 73.9307654,10.1549672 C74.3565779,10.0539758 74.7312086,9.99753653 75.0392819,10.036201 C76.3615314,11.433375 75.9444429,13.8769859 75.6811595,16.3790115 C75.3373066,19.6467026 75.0738452,23.0811324 76.5715997,25.4179569 C77.8526405,27.4166608 80.6623412,28.553323 83.3637242,29.5524265 C84.8714155,30.1100444 86.322952,30.6267025 87.2787861,31.3440337 C87.7503174,31.6979068 88.1067577,32.0993672 88.1067577,32.6642022 C88.1067577,33.9948694 86.7271263,35.2711822 85.4466311,36.6432246 C83.4226092,38.8119511 81.4891889,41.1274425 81.8155807,43.6188729 C82.012655,45.1231906 84.5450825,47.1549069 87.0265774,48.8925646 C88.3653589,49.8300413 89.9553744,50.5998899 89.992466,51.1690968 C90.0569246,52.1582773 89.6651062,52.8340001 88.9915621,53.3353049 C87.8126428,54.21275 85.9593672,54.6486082 84.0135758,55.1440161 C81.445937,55.7977495 78.7259884,56.5246317 76.7963171,58.0383215 C74.7013426,59.6816801 74.271529,63.2129166 74.0001481,66.819623 C73.8280883,69.1063318 73.6988463,71.3849895 72.8652015,72.8951953 C72.6168062,73.3451809 72.3002573,73.717544 71.86944,73.963156 C71.4623896,74.1952183 70.9614684,74.3105426 70.3516969,74.3105426 Z" id="Oval" fill="#F4A9C4"></path>
                <path d="M62.3987237,56.8811505 C61.1697448,56.9105626 59.292048,56.8463533 57.0510982,56.7708717 C54.2269877,56.6757476 50.8347064,56.5617239 47.4283667,56.5844891 C44.3152233,56.6052949 41.1894473,56.7273907 38.458721,56.8341961 C35.7322963,56.9408332 33.4052039,57.0331149 31.8947194,56.9888614 C31.5591279,56.8575778 31.7529317,56.7797228 31.8733367,56.7037285 C32.6928532,56.1864856 33.8940348,55.7188236 35.3839289,55.3163589 C38.3448481,54.5165266 42.4046611,54 46.9713516,54 C51.5425545,54 55.6192714,54.5175884 58.5949096,55.3186922 C60.0912896,55.7215488 61.2988327,56.189609 62.1228576,56.7071373 C62.216457,56.7659223 62.3097732,56.8235355 62.3987237,56.8811505 Z" id="Oval" fill="#B897FD" transform="translate(47.000000, 55.500000) scale(1, -1) translate(-47.000000, -55.500000) "></path>
                <circle id="Oval" fill="#B897FD" cx="33.5" cy="30.5" r="1.5"></circle>
                <circle id="Oval" fill="#B897FD" cx="26.5" cy="41.5" r="1.5"></circle>
                <circle id="Oval" fill="#B897FD" cx="47.5" cy="41.5" r="1.5"></circle>
                <circle id="Oval" fill="#B897FD" cx="59.5" cy="30.5" r="1.5"></circle>
                <circle id="Oval" fill="#B897FD" cx="67.5" cy="41.5" r="1.5"></circle>
            </g>
            <g id="d" filter="url(#filter-2)" transform="translate(191.000000, 361.500000) scale(-1, 1) translate(-191.000000, -361.500000) translate(151.000000, 283.000000)">
                <path d="M72.0991418,121.204726 C71.6405297,121.865822 71.1055605,122.349545 70.5445839,122.615075 C67.5270448,122.116053 67.8119532,121.302587 67.8215795,120.781962 C67.8399592,119.787922 68.6141759,118.657928 69.4711935,117.589432 C69.9095703,117.042882 70.7251635,116.471918 70.5394143,115.965734 C70.3839024,116.045828 69.9252879,116.216054 69.4727759,116.375727 C68.8471014,116.596501 68.2304109,116.800351 67.7372904,116.849823 C67.0256432,116.921218 66.5061356,116.714348 66.1569822,116.32697 C65.8350722,115.969817 65.6722642,115.613088 65.6040212,115.273735 C65.5210673,114.861228 65.574498,114.458007 65.7413334,114.070027 C66.0334117,113.390792 66.7749742,112.748113 67.4099002,112.255788 C68.9456181,111.021442 70.7660007,110.392569 72.7226735,109.973562 C72.7049379,109.806117 72.6869149,109.635512 72.6685578,109.461743 C72.2687702,105.677347 71.7098073,100.383119 70.501361,93.5279281 C69.05849,102.44578 66.1823527,109.559054 62.1047138,114.537541 C61.7826049,118.559496 61.4966343,123.935478 61.9572533,130.521469 C62.5868222,139.52313 64.4985929,145.164889 65.5882013,148.381455 C65.8295425,149.093903 66.0316031,149.69302 66.1750514,150.187743 C67.0699738,151.065424 67.853034,152.662883 67.853034,154.73216 C67.853034,155.41136 67.7209438,155.940488 67.5079771,156.359421 C67.2442798,156.878149 66.8540166,157.25078 66.3519168,157.511075 C65.4537486,157.976696 64.0859268,158.015679 62.481262,157.990178 C62.1572795,157.985029 61.8231036,157.979678 61.4817721,157.979678 C61.1578018,157.979678 60.8182465,157.984488 60.4705996,157.989377 C58.696553,158.014324 56.7377386,158.011386 55.4138159,157.525029 C54.7615764,157.285423 54.2422782,156.934128 53.8832312,156.473978 C53.527676,156.018303 53.3118408,155.45108 53.3118408,154.73216 C53.3118408,154.108032 53.5769292,153.490793 54.1216943,152.921057 C54.5640089,152.458467 55.2071501,152.018341 55.976168,151.624987 C57.3592632,150.917531 59.1706471,150.343106 60.74775,149.94482 C58.5647169,146.438919 56.3093624,140.121316 55.7596203,132.261031 C55.4763113,128.21024 55.5594027,123.899493 55.8859054,119.950912 C52.5874077,121.900015 48.8276766,122.921882 44.6529024,122.921882 C42.96991,122.921882 41.3323308,122.731396 39.7476151,122.362066 C39.3416004,125.272171 38.9542306,128.970742 38.9542306,133.409597 C38.9542306,140.338857 40.1137823,144.76298 40.7745314,147.285315 C41.0632372,148.387417 41.2451301,149.175808 41.2610565,149.686657 C41.3757175,150.200407 41.4413132,150.761549 41.4413132,151.361048 C41.4413132,152.040248 41.3092229,152.569376 41.0962563,152.988309 C40.832559,153.507037 40.4422958,153.879668 39.940196,154.139963 C39.0420277,154.605584 37.674206,154.644567 36.0695412,154.619066 C35.7455586,154.613917 35.4113828,154.608566 35.0700513,154.608566 C34.746081,154.608566 34.4065257,154.613376 34.0588787,154.618265 C32.2848322,154.643212 30.3260178,154.640274 29.002095,154.153917 C28.3498555,153.914311 27.8305574,153.563016 27.4715104,153.102866 C27.1159552,152.647191 26.90012,152.079968 26.90012,151.361048 C26.90012,150.701064 27.1981039,150.046145 27.8117056,149.447202 C28.3124262,148.958444 29.0401771,148.49741 29.8962811,148.090286 C31.6371826,147.262394 33.9301347,146.635281 35.6073859,146.278953 C34.5106152,143.364922 33.6435381,139.230734 33.6435381,134.41434 C33.6435381,129.736315 34.3005147,124.657762 35.1900252,120.737688 C28.6671868,117.56492 23.3104031,111.042176 19.8624751,102.077886 C19.780367,104.302715 19.7277284,106.613311 19.7277284,108.968944 C19.7277284,115.610859 20.0964344,120.678812 20.359821,124.302628 C20.4083052,124.969699 20.4532505,125.588312 20.4919427,126.159198 C22.6528741,126.21313 24.6277939,126.494197 26.1179302,127.322656 C27.200398,127.897211 27.9965204,128.391256 28.3866073,128.9858 C28.6182895,129.338914 28.7409352,129.726728 28.7308854,130.147363 C28.7226174,130.493417 28.6242354,130.873002 28.3692376,131.280628 C28.0926608,131.72275 27.616965,132.016693 26.9037023,132.069939 C26.4094832,132.106832 25.7667594,132.013149 25.1122492,131.904357 C24.7866617,131.850238 24.4573644,131.791705 24.1533241,131.764466 C24.3169102,132.336047 24.8715881,132.701711 25.3246734,133.0993 C26.3542327,134.002753 27.3129374,134.981147 27.5036797,135.956878 C27.62292,136.566845 27.4051646,137.280045 26.9373896,137.749634 C25.1190622,137.957137 24.0821254,137.63757 23.3836462,137.219468 C23.4323309,137.495594 23.4880253,137.783229 23.5424106,138.068664 C23.6491603,138.628929 23.7537923,139.181478 23.8154481,139.64185 C23.9426626,140.591735 23.8618321,141.237139 23.6695235,141.6564 C22.6388817,142.717414 22.3124673,142.678819 21.9508559,142.678819 C21.2019602,142.678819 20.7747549,142.427698 20.4700124,142.102723 C20.1693099,141.782056 19.9986274,141.313349 19.8602713,140.713222 C19.8162374,140.522223 19.7696964,140.313767 19.6958975,140.097368 C19.6097918,139.844883 19.4959638,139.312503 19.3657555,138.673939 C19.2408705,138.061481 19.1643542,137.19162 19.0362165,136.55365 C18.9749089,136.730714 18.933878,136.91634 18.8841585,137.10978 C18.6837743,137.889405 18.4478037,138.799558 18.0981532,139.703706 C17.9167629,140.172756 17.6912604,140.436764 17.4878284,140.606137 C17.3608573,140.71185 17.1960724,140.819338 16.9697502,140.907821 C14.7149382,140.230449 14.7850562,139.555518 14.704619,139.231742 C14.468426,138.281015 14.6757606,133.119711 15.9546092,129.689397 C14.3569315,126.077873 12.8513323,118.603654 12.8513323,110.136333 C12.8513323,102.073415 14.3417089,90.6368608 15.9341421,84.2557625 C15.724679,81.8627758 15.6168464,79.3864515 15.6168464,76.8374539 C15.6168464,67.241451 13.3271031,45.1928506 9.81911641,30.4889379 C8.70805889,30.4365343 7.4931187,30.5469938 6.47411836,30.6371 C5.72651701,30.7032074 5.07546714,30.7584943 4.70740058,30.7584943 C4.48973744,30.7584943 4.24867306,30.7720206 3.99601721,30.7856083 C2.9634781,30.8411378 1.79997074,30.8489873 0.956266484,30.4255882 C0.198764663,30.0454484 -0.396567586,29.383947 -0.533697115,28.1500572 C-0.585752059,27.6816674 -0.46209294,27.1972034 -0.124551023,26.7154689 C0.120243965,26.3661014 0.494017958,26.0067488 0.975292509,25.654817 C2.00847198,24.899305 3.59232936,24.1348365 5.15388886,23.3899253 C6.505574,22.7451306 7.83932726,22.1166798 8.70318002,21.5036994 C8.88845566,21.3722298 9.04963045,21.2465909 9.17107859,21.1198168 C9.00343454,21.0469244 8.79550638,20.9927205 8.56316374,20.9420979 C7.38366592,20.6851099 5.67256636,20.6508577 4.13563939,20.6126722 C1.66840378,20.5513726 -0.0708890788,20.16369 -0.371537688,19.7132954 C-0.806262491,19.0620443 -1,18.4134757 -1,17.8334613 C-1,17.1424901 -0.741578,16.5231513 -0.224522426,16.0373912 C0.437570071,15.4153727 3.5913958,13.567596 7.67050759,13.013877 C9.89855448,12.7114308 12.9292464,12.9088503 15.4130988,13.077791 C16.4445978,13.147949 17.5717506,13.4127367 18.2477088,13.4860068 C18.1108862,13.3191672 17.9637984,13.1886368 17.8001772,13.05233 C16.5134844,11.9804344 14.4442139,10.6299564 12.6293792,9.44227002 C10.3637143,7.9595458 8.62505079,6.61535167 8.47856278,6.20501454 C8.144995,5.27063598 8.17246323,4.48730868 8.66117273,3.87314771 C8.99554283,3.452945 9.62107564,3.03853374 10.8873878,2.85674699 C13.908237,2.42308583 20.5282991,3.6699547 23.3052432,4.35825365 C23.8075238,4.48274992 24.9223918,4.97530302 26.2327647,5.56866974 C27.6992298,6.23271858 29.4353807,7.02294214 30.7606083,7.4522306 C30.1086162,6.79105724 29.1964769,6.01583218 28.1446096,5.23930373 C27.5695927,4.81480435 26.892645,4.44764095 26.2580915,4.10004202 C25.4737684,3.67040158 24.7489664,3.26165082 24.2670346,2.84575091 C23.659344,2.3213231 23.3897566,1.75681484 23.3897566,1.19606134 C23.3897566,0.732337953 23.521811,0.363096112 23.7313224,0.0616653202 C23.9457669,-0.24686296 24.2525984,-0.490643592 24.6439467,-0.661219866 C25.2905641,-0.943059805 26.2399127,-1 27.1338464,-1 C32.218268,-1 41.0571716,1.37674736 45.5025114,8.53774185 C47.8450916,12.3114024 49.7812797,17.9307826 51.7780111,23.7635533 C53.050727,27.4813597 54.3520535,31.2855906 55.8153572,34.7327288 C57.0652104,37.6770371 58.4697677,40.8022317 59.9109038,44.0090178 C63.944305,52.9840579 68.25629,62.5946393 70.3150468,70.692767 C72.7420575,75.2644822 75.9447397,84.8007814 77.4832058,93.5243112 C78.8645492,101.356912 78.913127,108.576537 78.2458267,112.846974 C80.0201816,116.009065 81.0607426,120.832159 80.9949607,121.784827 C80.974498,122.081172 80.9139508,122.56843 80.7505377,122.925651 C80.6752145,123.090308 80.5646973,123.256495 80.4466444,123.408326 C77.9110205,123.866674 77.9826925,123.248879 77.7349554,122.838903 C77.2335862,122.009195 76.8431266,121.153835 76.5103827,120.420843 C76.4270811,120.23734 76.3500959,120.062018 76.2768227,119.899697 C76.1296466,120.541228 76.3210314,121.545616 76.3077582,122.044749 C76.2904338,122.696223 76.2707986,123.240282 76.2298527,123.503883 C76.1947594,123.729806 76.1851296,123.943173 76.1749371,124.138914 C76.142911,124.753952 76.0562217,125.245177 75.8157782,125.613188 C75.5721042,125.986143 75.1950016,126.307638 74.4574724,126.437684 C74.0620828,126.507402 73.7289898,126.477877 73.4473133,126.383717 C72.2957491,125.37273 72.1336617,124.732598 72.0937842,123.77063 C72.0745459,123.306545 72.0816216,122.744221 72.0894429,122.173932 C72.0939291,121.846817 72.0995653,121.516668 72.0991418,121.204726 Z" id="Combined-Shape" stroke="#000000" stroke-width="2" fill="#F3A7A7"></path>
                <g id="Group-2" transform="translate(19.000000, 36.000000)">
                    <path d="M1.00553129,19.6983778 C0.94390995,18.503512 1.3572479,16.7685946 2.16837215,14.6194726 C3.10871252,12.1260173 3.5905658,10.780963 4.16463375,10.0060162 C4.49356379,9.56198643 4.8670261,9.42419596 5.43395255,9.42419596 C5.6763826,9.42419596 5.88481134,9.51272209 6.05558411,9.67521508 C6.31449849,9.92157621 6.49484174,10.2950645 6.62713522,10.751723 C6.9643703,11.915811 6.94923893,13.5619908 6.56115295,15.5041233 C6.22741903,17.174257 5.53758993,18.4072232 4.70100127,19.2558419 C3.72309923,20.2478061 2.55413509,20.7104542 1.61659007,20.7104542 C1.07324783,20.3803918 1.02470207,20.070108 1.00553129,19.6983778 Z" id="Oval" stroke="#000000" stroke-width="2" fill="#AD6161" transform="translate(3.932039, 15.067325) scale(-1, -1) translate(-3.932039, -15.067325) "></path>
                    <path d="M22.7016339,12.4806011 C22.6509172,11.274755 23.0768233,9.51969527 23.9029536,7.34253644 C24.8602971,4.81764275 25.3520959,3.4564639 25.9298631,2.6693647 C26.2612537,2.21790717 26.6328225,2.07060162 27.198917,2.06562572 C27.4312034,2.06360208 27.6302531,2.14775563 27.7925223,2.30435808 C28.0461946,2.54917174 28.2198391,2.92231061 28.3464586,3.37879276 C28.6715763,4.55089083 28.6419997,6.21226629 28.2387503,8.17616425 C27.8911479,9.86905148 27.1920491,11.1223261 26.3504652,11.9882136 C25.37033,12.9966535 24.2061856,13.4756794 23.2744675,13.4838705 C22.7611863,13.1668795 22.717374,12.8548402 22.7016339,12.4806011 Z" id="Oval" stroke="#000000" stroke-width="2" fill="#AD6161" transform="translate(25.631553, 7.774748) scale(1, -1) rotate(40.000000) translate(-25.631553, -7.774748) "></path>
                    <ellipse id="Oval" fill="#000000" cx="10.8543178" cy="31.9077719" rx="2.28511953" ry="3.08660699"></ellipse>
                    <ellipse id="Oval" fill="#000000" cx="25.7075947" cy="21.8061491" rx="2.28511953" ry="3.08660699"></ellipse>
                    <ellipse id="Oval" fill="#FFFFFF" cx="11.7112376" cy="30.2241681" rx="1" ry="1"></ellipse>
                    <ellipse id="Oval" fill="#FFFFFF" cx="26.5645145" cy="20.1225453" rx="1" ry="1"></ellipse>
                </g>
                <path d="M36,81 C37.9901545,86.8479489 40.0359121,90.4892738 42.1372729,91.9239745 C44.2386337,93.3586752 47.5262094,93.3586752 52,91.9239745" id="Line-5" stroke="#000000" stroke-width="3" stroke-linecap="round" transform="translate(44.000000, 87.000000) scale(-1, 1) translate(-44.000000, -87.000000) "></path>
            </g>
            <g id="d" transform="translate(182.000000, 353.000000)">
                <path d="M139.317561,50.7761231 L76.9249977,50.477985 C76.9313625,52.3163254 76.9296652,54.2501844 76.927907,56.2529675 C76.9270695,57.2068535 76.9262183,58.1763782 76.9262183,59.1586411 L76.9262697,59.5872121 C76.9264661,60.4231487 76.9271915,61.249464 76.927907,62.0643661 C76.9376069,73.1121391 76.9251944,82.0634749 75.6019264,84.5161288 C75.3217474,85.2723574 74.9171712,85.9303285 74.24856,86.377408 C73.6874397,86.7526116 72.9371669,86.9819678 71.9040364,86.9819683 C71.2885488,86.9819688 68.3943647,87.0760075 67.8426636,86.8345718 C67.3495447,86.6187729 65.64276,85.8705555 66.7517197,84.0386079 C67.8606795,82.2066607 71.4579046,81.7398802 71.9040364,81.5714597 C70.9248568,76.8170585 70.1662339,67.4539717 70.1662339,59.1586668 C70.1662339,56.1142367 70.251006,53.1922337 70.4067293,50.4779835 L63.6501119,50.477985 C63.7706395,53.9421508 63.678925,57.4891969 63.678925,61.8617533 C63.678925,66.7632575 64.013998,71.3908154 64.2901736,75.2066746 C64.4731964,77.7354639 64.6303047,79.9089343 64.6480687,81.5714597 C64.7332912,82.0310082 64.7056261,82.5616224 64.6738163,83.119522 C64.6614163,83.3369991 64.6487351,83.5587643 64.6432311,83.781956 C64.6318853,84.2420483 64.5417871,84.6051465 64.3879097,84.893978 C64.2175521,85.2137436 63.9689919,85.4463824 63.6501119,85.615545 C62.9370543,85.9938153 61.8442935,86.0379123 60.501754,86.0778284 C60.4362758,86.0797753 57.4017543,86.1643699 56.5376722,85.8101959 C56.1661229,85.6579035 55.873575,85.4367957 55.6792644,85.1282874 C55.5025187,84.8476668 55.4053436,84.4919472 55.416523,84.0386079 C55.4379766,83.1686316 56.3751709,82.53107 56.5376722,82.3933983 C57.3181245,81.7321968 58.4562652,81.3050051 59.606496,81.2086111 C58.0845844,76.8710422 56.9297162,69.0793593 56.9297162,61.8617533 C56.9297162,57.4900305 56.5565657,54.2414752 56.9297162,50.7761231 L3.36713238,50.7761231 C2.53973673,50.7761231 1.80696826,50.4628251 1.23638649,49.9145401 C0.670288273,49.3705635 0.263604078,48.5923932 0.091386458,47.6567615 C-0.201246065,46.066934 0.183173167,44.0139725 1.61883599,41.9174617 C3.58105796,39.0520121 7.5191842,36.093067 14.3914399,34.1666861 C21.245242,32.2454783 26.4857092,31.7314128 29.8205004,31.4044907 C31.0478174,31.2841724 31.732277,31.0707295 32.4221002,30.9395492 C32.4221002,29.9857533 32.9124528,26.9078463 33.9037681,23.1597796 C34.9529047,19.1930962 40.7651648,9.71634364 46.1290133,6.08286231 C52.1462902,2.00674758 59.7881176,0 67.6928247,0 C75.3582052,0 81.9843828,2.12705944 87.3748093,6.12216943 C92.7585362,10.112314 97.4848861,15.6879345 100.20257,23.1597796 C100.480259,24.3136487 101.915979,29.5067487 101.915979,30.5649023 C102.98812,30.9307839 106.309472,31.2138198 110.347065,31.5750855 C116.541541,32.129339 124.414475,32.836482 128.628854,34.1687402 C133.802895,35.8043689 137.023608,38.564038 138.876498,41.3525286 C140.243289,43.4094699 140.866754,45.4848509 140.980623,47.1468777 C141.051617,48.1831255 140.92376,49.0613765 140.658903,49.683852 C140.513041,50.0266617 140.324643,50.2947416 140.106926,50.4779835 C139.874767,50.6733813 139.608496,50.7761231 139.317561,50.7761231 Z" id="Combined-Shape" stroke="#000000" stroke-width="2" fill="#99CAF4" fill-rule="nonzero" transform="translate(70.500000, 43.500000) scale(-1, 1) translate(-70.500000, -43.500000) "></path>
                <g id="Group" transform="translate(90.000000, 11.000000)">
                    <ellipse id="Oval" fill="#000000" fill-rule="nonzero" cx="3.11056378" cy="6.795" rx="1.81280788" ry="2.205"></ellipse>
                    <ellipse id="Oval" fill="#FFFFFF" fill-rule="nonzero" cx="4.01696771" cy="6.06" rx="1" ry="1"></ellipse>
                    <path d="M0.206055203,1.51237479 C1.72645279,0.0836171685 3.06533584,0.262513293 4.22270435,2.04906316" id="Path-4" stroke="#000000" stroke-width="2" stroke-linecap="round" transform="translate(2.214380, 1.304556) rotate(-10.000000) translate(-2.214380, -1.304556) "></path>
                </g>
                <path d="M72.4605892,35.1749586 C77.7795481,38.6195842 81.3775407,40.6148917 83.2545666,41.1608811 C85.2885784,41.7525343 88.2567032,42.6175018 88.9942482,41.4021712 C89.7317931,40.1868406 88.82893,38.1302607 85.8616367,35.1829306 C78.0590359,27.4328238 74.8805796,24.2994455 76.3262675,25.7827957" id="Path-7" stroke="#000000" stroke-width="2" stroke-linecap="round" transform="translate(80.849462, 33.720688) rotate(-15.000000) translate(-80.849462, -33.720688) "></path>
                <polygon id="Rectangle" fill="#000000" points="97 26 105 26 101.664053 30 100.710247 30"></polygon>
                <path d="M98,24 L104,24 C104.552285,24 105,24.4477153 105,25 L105,26 L105,26 L97,26 L97,25 C97,24.4477153 97.4477153,24 98,24 Z" id="Rectangle" fill="#FFFFFF"></path>
            </g>
        </g>
    </g>
</svg>