<?xml version="1.0" encoding="UTF-8"?>
<svg width="1922px" height="1082px" viewBox="0 0 1922 1082" version="1.1" xmlns="http://www.w3.org/2000/svg" xmlns:xlink="http://www.w3.org/1999/xlink">
    <!-- Generator: Sketch 62 (91390) - https://sketch.com -->
    <title>Artboard</title>
    <desc>Created with Sketch.</desc>
    <defs>
        <filter x="-3.2%" y="-2.7%" width="106.5%" height="105.3%" filterUnits="objectBoundingBox" id="filter-1">
            <feOffset dx="0" dy="2" in="SourceAlpha" result="shadowOffsetOuter1"></feOffset>
            <feGaussianBlur stdDeviation="2" in="shadowOffsetOuter1" result="shadowBlurOuter1"></feGaussianBlur>
            <feColorMatrix values="0 0 0 0 0   0 0 0 0 0   0 0 0 0 0  0 0 0 0.5 0" type="matrix" in="shadowBlurOuter1" result="shadowMatrixOuter1"></feColorMatrix>
            <feMerge>
                <feMergeNode in="shadowMatrixOuter1"></feMergeNode>
                <feMergeNode in="SourceGraphic"></feMergeNode>
            </feMerge>
        </filter>
        <filter x="-3.9%" y="-2.2%" width="107.7%" height="104.4%" filterUnits="objectBoundingBox" id="filter-2">
            <feOffset dx="0" dy="2" in="SourceAlpha" result="shadowOffsetOuter1"></feOffset>
            <feGaussianBlur stdDeviation="2" in="shadowOffsetOuter1" result="shadowBlurOuter1"></feGaussianBlur>
            <feColorMatrix values="0 0 0 0 0   0 0 0 0 0   0 0 0 0 0  0 0 0 0.5 0" type="matrix" in="shadowBlurOuter1" result="shadowMatrixOuter1"></feColorMatrix>
            <feMerge>
                <feMergeNode in="shadowMatrixOuter1"></feMergeNode>
                <feMergeNode in="SourceGraphic"></feMergeNode>
            </feMerge>
        </filter>
        <filter x="-2.7%" y="-4.3%" width="105.3%" height="108.5%" filterUnits="objectBoundingBox" id="filter-3">
            <feOffset dx="0" dy="2" in="SourceAlpha" result="shadowOffsetOuter1"></feOffset>
            <feGaussianBlur stdDeviation="2" in="shadowOffsetOuter1" result="shadowBlurOuter1"></feGaussianBlur>
            <feColorMatrix values="0 0 0 0 0   0 0 0 0 0   0 0 0 0 0  0 0 0 0.5 0" type="matrix" in="shadowBlurOuter1" result="shadowMatrixOuter1"></feColorMatrix>
            <feMerge>
                <feMergeNode in="shadowMatrixOuter1"></feMergeNode>
                <feMergeNode in="SourceGraphic"></feMergeNode>
            </feMerge>
        </filter>
    </defs>
    <g id="Artboard" stroke="none" stroke-width="1" fill="none" fill-rule="evenodd">
        <rect id="Rectangle" fill="#000000" x="0" y="0" width="1922" height="1082"></rect>
        <g id="5falling" transform="translate(461.000000, 170.000000)">
            <g id="5Mac2" filter="url(#filter-1)" transform="translate(680.000000, 302.500000) scale(-1, 1) translate(-680.000000, -302.500000) translate(495.000000, 78.000000)" stroke="#000000" stroke-width="2">
                <path d="M362.51329,143.260059 C362.496651,143.509309 362.479375,143.764397 362.461237,144.024807 C362.293086,146.438957 362.050281,149.305041 361.826854,151.718581 C361.213561,150.699146 360.419722,149.751657 359.468522,148.864524 C360.606995,146.815534 361.638737,144.930128 362.51329,143.260059 Z M356.92102,149.32759 C356.408968,150.244476 355.879089,151.189958 355.335557,152.159803 C346.517494,167.894213 334.29741,189.952334 335.716956,200.74306 C336.455254,206.355249 346.455211,213.587837 355.572042,219.945335 C362.293186,224.632234 368.719097,228.768612 368.893142,231.428402 C369.233229,236.625687 367.164955,240.175318 363.611617,242.809004 C358.570862,246.545143 350.69171,248.50704 342.355294,250.620712 C332.368424,253.152852 321.737651,255.882491 314.222078,261.753426 C306.253083,267.97856 305.063298,281.548446 304.043032,295.051642 C303.308144,304.77786 302.622414,314.415531 299.069903,320.82441 C297.779148,323.152987 296.10231,325.042094 293.871358,326.30869 C291.814587,327.476397 289.294597,328.111143 286.202405,328.111143 C284.224893,328.111143 278.734806,326.207528 271.668382,323.811038 C266.981623,322.221582 261.618411,320.402863 256.118988,318.724233 C255.91323,318.661428 255.70752,318.598892 255.502081,318.53694 C255.341898,318.678044 255.186578,318.850608 255.006534,319.109044 C254.684674,319.571042 254.592867,319.863837 254.498074,320.253699 C254.352016,320.8544 254.186296,321.766729 254.005566,322.955647 C253.628704,325.434797 253.178673,329.150122 252.676209,333.760124 C251.366618,345.775359 249.697421,363.889443 248.027551,382.011606 C246.35684,400.142883 244.685454,418.282252 243.373081,430.321324 C242.873231,434.906709 242.425962,438.604047 242.050685,441.07335 C241.880849,442.190863 241.727519,443.049662 241.590142,443.615802 C241.234805,443.876147 240.709355,444.007945 239.991506,444.213287 C235.781832,445.417475 225.511511,448.375019 218.043135,447.961383 C215.833439,447.838999 213.875362,447.428374 212.454192,446.52174 C211.335148,445.807847 210.582918,444.769584 210.361005,443.313036 C210.203754,442.28091 210.331789,441.381924 210.688422,440.597727 C211.101722,439.688924 211.810091,438.938038 212.681999,438.295626 C215.453469,436.253637 219.814297,435.289906 223.00139,434.561058 C224.444855,434.230956 225.666598,433.946847 226.450799,433.655025 C226.874146,433.497487 227.194935,433.325702 227.408899,433.158175 C227.536659,433.058143 227.675029,432.921501 227.819954,432.747254 C226.254211,409.12044 227.470344,376.706137 228.292438,354.755466 C228.589777,346.81622 228.835776,340.241868 228.87338,335.975575 C228.888806,334.225475 228.868704,332.85691 228.804681,331.932601 C228.770343,331.436846 228.721045,331.054937 228.662551,330.793287 C228.626806,330.633396 228.568831,330.434335 228.486678,330.197947 C228.299155,330.14298 228.118995,330.09224 227.946544,330.045824 C220.987332,328.172731 199.635779,326.088983 186.784009,329.688762 C186.520474,329.762578 186.105437,329.9647 185.808954,330.750232 C185.690687,331.06358 185.570255,331.514389 185.454567,332.094824 C185.234818,333.19735 185.017703,334.815005 184.800516,336.861838 C184.266074,341.898575 183.722474,349.578455 183.086543,358.56823 C181.445859,381.761596 179.193236,413.709671 174.863076,431.331658 C174.201209,434.025186 172.147588,436.311643 169.38992,438.193983 C166.048564,440.474739 161.661369,442.153684 157.198207,443.164803 C152.206424,444.295681 147.113699,444.593072 143.266429,443.918425 C141.568043,443.6206 140.120528,443.138441 139.068932,442.429764 C138.242349,441.872725 137.671533,441.175299 137.506932,440.292628 C137.198212,438.637115 137.88036,437.393075 139.065007,436.366922 C141.002845,434.688346 144.171692,433.540527 147.307637,432.374179 C150.40546,431.222011 153.478412,430.0585 155.518842,428.501842 C157.252443,427.179267 158.271005,425.581344 158.238867,423.578217 C158.103545,415.143845 158.140036,403.74936 158.178111,391.831624 C158.271259,362.676223 157.920637,331.155819 155.693856,329.797923 C154.273397,328.931723 151.864337,329.263289 148.735063,330.7293 C145.108467,332.428297 140.493409,335.498476 135.757095,338.6559 C130.537289,342.135639 125.167394,345.724153 120.841952,347.606097 C118.155708,348.774847 115.842332,349.424266 114.443195,348.436637 C108.127889,343.978765 108.747518,330.963634 109.041528,320.513258 C109.172773,315.848227 109.284158,311.624163 108.858169,308.693609 C108.673713,307.424659 108.383646,306.381127 107.978871,305.61045 C107.498398,304.695644 106.851876,304.127286 106.064893,303.881908 C98.81403,301.621117 89.874775,301.77478 81.5634208,301.936489 C74.0398354,302.08287 67.0411455,302.257675 62.4299885,300.438198 C60.799694,299.794914 59.4828975,298.896969 58.6066778,297.606402 C57.797532,296.414628 57.3740745,294.898297 57.3740745,292.989377 C57.3740745,280.648654 55.3677717,273.760969 51.8715726,269.809102 C47.4492154,264.810369 40.5617632,264.400037 31.6942069,264.048996 C25.6923458,263.811399 18.779578,263.543372 11.1806949,261.573478 C9.0212129,261.013666 7.47118715,260.417218 6.45329543,259.693941 C5.65404966,259.126027 5.227847,258.48666 5.18192536,257.690331 C5.04385708,255.296081 7.4534298,252.012349 10.8306779,247.078247 C16.429159,238.898963 24.9172752,226.490734 31.2198934,206.965433 C31.4618057,206.215997 31.3405508,205.359442 30.7649538,204.417767 C30.3042896,203.664122 29.5318335,202.833016 28.5079806,201.954059 C26.0843635,199.873433 22.191976,197.449439 18.0946156,194.905021 C13.4478218,192.01941 8.53171258,188.974409 5.29732445,186.085879 C3.27550309,184.280254 1.81645397,182.573879 1.93595714,180.979041 C2.2229647,177.148759 11.0187839,172.063742 18.5066317,167.440784 C25.5942,163.064957 31.3236652,159.060953 31.2679184,156.875658 C31.1532148,152.379234 30.9744643,147.291749 30.7832076,141.848887 C29.6766994,110.359419 27.9203796,66.6658932 36.207316,57.7877156 C37.5110856,56.3909271 39.0142124,55.6848668 40.6856274,55.5466751 C42.6216588,55.3866051 44.7585211,55.9597578 47.0501103,57.0211069 C53.4285315,59.9752715 60.9046735,66.6779064 68.4909778,73.4505401 C76.6167326,80.7047656 84.8656775,88.0378879 92.0246901,91.206555 C94.9049537,92.4813951 97.6214648,93.0906446 100.098735,92.8337017 C102.4483,92.5900043 104.600358,91.5838012 106.491345,89.5984035 C116.651228,78.9312665 122.973612,62.9596279 129.091961,47.425218 C134.501752,33.6898269 139.74783,20.3016991 147.507854,11.4174922 C153.092,5.02437859 159.994459,1 169.265599,1 C174.803949,1 179.940703,5.65129281 184.703787,12.2636434 C191.958348,22.3347856 198.284444,37.126765 203.388004,49.0402834 C205.91181,54.9317394 208.139054,60.127007 210.030105,63.7282126 C210.646005,64.9010966 211.405992,65.6443682 212.252277,66.0784836 C213.186985,66.5579572 214.247154,66.6695606 215.41275,66.4685112 C217.923806,66.0353883 221.003278,64.0342134 224.206469,61.8984853 C227.155801,59.9320183 230.221451,57.8602926 233.044369,57.1096335 C234.81285,56.6393663 236.485571,56.7084469 237.913976,57.8788684 C239.358598,59.0625769 239.201106,63.3333391 239.286058,67.6730035 C239.364685,71.6895601 239.467346,75.9169199 240.376394,78.7528132 C240.770043,79.9808536 241.318827,80.9652745 242.030169,81.6365326 C242.764419,82.3294083 243.671071,82.7209947 244.797031,82.7178325 C249.488307,82.7046573 253.973937,79.4774119 258.134222,74.450573 C263.760847,67.6519681 268.8264,57.6234623 273.226554,48.8923378 C276.51768,42.3618306 279.423146,36.5673128 281.927005,33.5007863 C282.754621,32.4871894 283.501359,31.7684734 284.228453,31.5652472 C284.420403,31.5115963 284.606673,31.5068045 284.78616,31.5751916 C285.015576,31.6626024 285.224296,31.8444045 285.433257,32.0958983 C290.514716,38.2116467 294.850886,57.5990812 299.363871,77.430898 C303.869081,97.2285484 308.517096,117.488332 313.996792,126.00233 C318.889276,133.603955 329.768155,137.708277 340.026442,141.486527 C346.585588,143.902339 352.864007,146.187212 356.92102,149.32759 Z" id="Oval" fill="#F4A9C4"></path>
                <path d="M137.865929,240.256887 C149.946659,230.410895 166.510773,224 185.143316,224 C203.792989,224 220.424863,230.422755 232.56479,240.283703 C245.217366,250.561061 253,264.579157 253,278.930495 C253,279.649752 252.626259,280.160515 251.986516,280.534926 C251.033243,281.092832 249.596928,281.385664 247.77122,281.532268 C242.792846,281.93203 235.087976,281.139977 225.86655,280.202844 C214.459316,279.043578 200.757068,277.653263 186.998156,277.930698 C174.421758,278.184289 161.794218,279.672958 150.762661,280.974762 C139.708934,282.279183 130.27381,283.404125 124.149398,282.86276 C121.891418,282.663167 120.105675,282.251366 118.918786,281.47589 C118.011124,280.882851 117.518316,280.055674 117.518316,278.930495 C117.518316,264.566831 125.252849,250.536753 137.865929,240.256887 Z" id="Oval" fill="#B897FD"></path>
                <circle id="Oval" fill="#B897FD" cx="137" cy="149" r="9"></circle>
                <circle id="Oval" fill="#B897FD" cx="106.93014" cy="191" r="9"></circle>
                <circle id="Oval" fill="#B897FD" cx="193" cy="191" r="9"></circle>
                <circle id="Oval" fill="#B897FD" cx="244" cy="149" r="9"></circle>
                <circle id="Oval" fill="#B897FD" cx="273.93014" cy="191" r="9"></circle>
            </g>
            <g id="5cece2" filter="url(#filter-2)" transform="translate(181.000000, 318.500000) scale(-1, 1) translate(-181.000000, -318.500000) ">
                <path d="M301.590451,627.798636 C301.590451,629.968987 301.204609,631.672777 300.520924,633.015961 C299.752017,634.526575 298.606593,635.602668 297.144705,636.359564 C293.833766,638.07381 288.760142,638.05388 282.87881,637.960533 C281.54685,637.939393 280.172983,637.917547 278.769699,637.917547 C277.439768,637.917547 276.045859,637.937159 274.618732,637.957202 C267.808211,638.052849 260.265944,638.128359 255.17505,636.260551 C253.121004,635.506938 251.451452,634.43948 250.315465,632.985469 C249.255332,631.628548 248.641853,629.931765 248.641853,627.798636 C248.641853,625.971904 249.506425,624.20987 251.083355,622.562774 C252.681596,620.89342 255.023294,619.331085 257.798462,617.913406 C264.527885,614.475718 273.837606,611.854156 280.793269,610.338787 C271.416486,597.501752 260.973086,570.607257 258.578498,536.412748 C257.287734,517.980724 257.888475,498.209955 259.659849,480.727424 C245.521521,490.521096 229.009991,495.676681 210.402416,495.676681 C202.648428,495.676681 195.140193,494.647329 187.926009,492.658332 C186.100498,505.04064 184.189062,521.33773 184.189062,541.286072 C184.189062,569.786841 188.962698,587.984103 191.683917,598.358818 C192.842931,602.77759 193.614416,605.829584 193.565631,607.690885 C194.028016,609.654238 194.292835,611.80982 194.292835,614.12094 C194.292835,616.291291 193.906993,617.995081 193.223308,619.338265 C192.454401,620.848879 191.308977,621.924972 189.84709,622.681867 C186.53615,624.396113 181.462526,624.376184 175.581194,624.282837 C174.475056,624.265281 173.340034,624.247247 172.185634,624.241636 L171.472083,624.239851 C170.142152,624.239851 168.748243,624.259463 167.321116,624.279506 C160.510595,624.375153 152.968329,624.450663 147.877435,622.582855 C145.823388,621.829241 144.153836,620.761784 143.017849,619.307773 C141.957716,617.950852 141.344238,616.254068 141.344238,614.12094 C141.344238,612.169039 142.33406,610.288918 144.124505,608.543411 C145.957337,606.756581 148.638564,605.098208 151.768636,603.611532 C159.982533,599.710214 171.316503,596.952553 177.872736,595.793208 C172.896416,584.181584 168.739373,566.412273 168.739373,545.362641 C168.739373,525.647243 171.654566,504.156307 175.504993,488.159776 C151.541369,477.331552 131.493621,455.228029 117.463963,424.73429 C103.715679,394.852122 95.7420384,356.906721 95.5099114,313.688182 C81.9391996,296.342281 68.0160474,276.484088 58.3461782,259.735384 C42.2790969,231.906383 32.6413416,204.473279 30.2975428,188.386223 C28.0389555,188.695227 25.7025897,188.045413 23.3670924,186.640158 C20.4681708,184.895894 17.5620696,181.975266 14.8279983,178.462588 C6.35045221,167.570813 -0.484836637,151.007075 -0.859988159,147.456307 C-0.95711688,146.536994 -1.07676885,145.005129 -0.766868463,143.816867 C-0.487612673,142.746107 0.113831799,141.958944 1.07032899,141.657986 C1.8894102,141.390676 2.71889078,141.172267 3.7743645,141.551098 C4.43709998,141.788967 5.2144444,142.280051 6.08768216,143.278703 C8.59275535,146.143554 10.6814083,149.186791 12.4679467,151.792827 C14.2504445,154.392969 15.699156,156.55339 16.9818293,157.551811 C17.2931553,157.794144 17.5771576,157.98068 17.8680366,157.971513 C18.0884314,157.964567 18.2721109,157.806666 18.4647067,157.588841 C19.8965427,155.969436 18.4858053,148.317153 17.6916362,142.978152 C17.3282144,140.534958 17.029536,138.491834 17.0092939,137.480533 C16.9884902,136.441172 16.8686711,135.477701 16.7600216,134.593025 C16.5360452,132.769301 16.4107415,131.247953 16.9351298,130.024239 C17.3829321,128.979246 18.2579643,128.083844 20.0197385,127.442611 C20.9871768,127.090492 21.8415835,126.983871 22.5992511,127.096465 C23.4141392,127.217563 24.1354161,127.583504 24.7737379,128.229269 C25.8220402,129.289794 26.6598571,131.223753 27.3154086,134.214736 C27.708397,136.007763 28.0643279,138.20159 28.4246558,140.426558 C28.9677954,143.780359 29.5163486,147.208331 30.2371847,149.371699 C30.4637296,150.051603 30.6899876,150.594859 30.9646842,150.914076 C31.3577366,150.639641 31.7964042,149.527351 32.4653822,148.320954 C34.0329442,145.494103 36.2425686,141.588793 39.0863421,139.574355 C39.7867293,139.078223 40.5253962,138.830165 41.2537044,138.771037 C42.048485,138.706513 42.8344681,138.869387 43.5488725,139.203649 C45.0646704,139.912874 46.2300222,141.399669 46.4750055,142.959614 C47.019039,146.423778 44.7567641,150.758675 42.4626007,154.937131 C40.329806,158.821679 37.9016975,162.663186 39.3673803,165.185297 C39.5094788,165.429816 39.6224062,165.712265 39.7334055,166.003348 C39.8474456,166.302406 39.8872178,166.725143 40.2768036,166.860741 C40.6426263,166.988067 41.1821503,166.899299 41.994447,166.631264 C43.7050329,166.066819 45.6159825,164.979862 47.4978381,163.918386 C49.6090047,162.727565 51.6869224,161.570353 53.431813,161.078697 C55.0537303,160.621692 56.4055926,160.738856 57.4077298,161.520077 C58.4289236,162.316154 59.0533576,163.170783 59.3945573,164.042748 C59.7870195,165.045719 59.8122439,166.085584 59.564283,167.1343 C58.9774291,169.616316 56.7283472,172.172066 54.8784992,174.208454 C54.5205926,174.602452 54.1809215,174.976229 53.877961,175.325325 C51.2150063,178.3938 47.5899181,180.919569 43.4187178,183.094949 C45.4307175,186.867125 47.7759023,191.709052 50.6178981,197.578017 C57.0654398,210.892742 66.0819187,229.513361 79.6027406,252.932112 C84.3667828,261.183675 89.2236021,269.172666 94.0120188,276.799529 C90.7922119,231.439877 82.5805664,167.000457 71.4050749,121.069783 C71.2701043,120.978851 71.0813809,120.913781 70.856198,120.852127 C70.1357165,120.654864 69.1161105,120.562207 67.9074315,120.529113 C64.3632895,120.432071 59.2879881,120.883307 55.0312423,121.259235 C52.1083068,121.517369 49.5629852,121.739878 48.1238148,121.739878 C47.1892471,121.739878 46.1541388,121.796036 45.0692895,121.854304 C41.4195762,122.050334 37.2614825,122.219056 34.2588942,120.714176 C31.9831849,119.573604 30.2830308,117.537469 29.8756316,113.876366 C29.7388354,112.647043 30.1255835,111.397106 31.0024512,110.147249 C31.8373274,108.957245 33.1318719,107.754045 34.7703158,106.55746 C38.8441309,103.58228 45.1009279,100.592491 51.256684,97.6597497 C56.9256933,94.9589056 62.5072333,92.3075134 66.1294252,89.7405201 C67.43236,88.8171497 68.4739618,87.9140588 69.13836,87.017383 C69.615969,86.372799 69.9011479,85.7437025 69.8310791,85.1093256 C69.7562738,84.4320664 69.2764446,83.9190819 68.59563,83.4784333 C67.5937312,82.8299671 66.1566996,82.3552488 64.4400714,81.9817077 C59.4947074,80.9055883 52.3228548,80.7358686 45.8771323,80.5759259 C37.7553169,80.3743931 31.0932028,79.864935 30.0381026,78.2863274 C28.6649572,76.2318708 28,74.1947821 28,72.3561455 C28,70.4102783 28.7268773,68.6650687 30.1852545,67.2967071 C32.7319714,64.9071814 44.9290816,57.9519962 60.5735464,55.8310437 C69.4470759,54.628041 81.5171923,55.4392585 91.4078103,56.1111179 C99.8641223,56.6855464 107.090661,57.5808558 108.047623,56.2408227 C107.984827,55.5801115 107.767113,55.1931614 107.459545,54.759168 C106.627011,53.5844259 105.157429,52.1760357 103.27389,50.6089291 C97.9749122,46.2001722 89.4586882,40.6376957 81.9843449,35.7524753 C73.7226901,30.3526693 66.8719894,25.6686453 66.3285175,24.1482298 C65.4207472,21.6086542 65.1925916,19.3626354 66.5827892,17.6178005 C67.6419297,16.2884747 69.7407733,15.1797072 73.6653692,14.6170254 C85.6572124,12.8977169 111.924038,17.9232279 122.940479,20.6503069 C124.892924,21.1336274 129.215705,23.0763306 134.306883,25.3787953 C140.810202,28.3198949 148.597998,31.8465298 154.202886,33.511889 C156.145573,34.0891123 157.810979,34.444584 159.0416,34.4391874 C159.478456,34.4372716 159.848978,34.3949275 160.132591,34.2699405 C160.551527,33.6894968 160.20269,33.1592256 159.839448,32.5459176 C159.225062,31.5085721 158.204299,30.2479295 156.864438,28.8325674 C154.0917,25.9035874 149.975505,22.351013 145.156867,18.7982423 C142.71338,16.9966648 139.842163,15.4295128 137.145274,13.9540795 C134.175012,12.329087 131.412489,10.8060421 129.586151,9.2319481 C127.970965,7.83984248 127.083386,6.38293476 127.083386,4.85280938 C127.083386,3.71607155 127.381202,2.79702359 127.887651,2.04701014 C128.430106,1.24367523 129.223347,0.628417567 130.210799,0.177367509 C132.398089,-0.821746538 135.617068,-0.98745519 138.703549,-0.999081573 L139.231251,-1 C159.1431,-1 193.822287,8.21108117 211.251723,36.2523794 C220.670832,51.4062847 228.423087,73.9864677 236.450615,97.4062854 C241.644898,112.560285 246.958592,128.065508 252.930687,142.116189 C258.016104,154.080762 263.730755,166.78049 269.594467,179.811678 C278.420902,199.427058 287.584507,219.792624 295.452527,239.529582 C297.44846,234.396279 299.502636,228.953759 301.59821,223.191762 C311.051425,197.199178 317.37198,175.635588 322.089086,159.543356 C324.534419,151.201189 326.550713,144.324745 328.347825,139.057932 C322.562443,137.545391 317.36697,135.459037 313.474568,132.302315 C313.115651,132.011235 312.716299,131.702234 312.295479,131.376492 C310.120345,129.692793 307.461962,127.567051 306.453525,125.224894 C306.027431,124.235264 305.87192,123.206849 306.08454,122.150898 C306.269363,121.232998 306.73612,120.282914 307.603766,119.321506 C308.455216,118.378043 309.766229,118.027756 311.442671,118.195729 C313.246477,118.376463 315.493691,119.154682 317.779487,119.960218 C319.81697,120.678247 321.88753,121.41631 323.670143,121.674684 C324.516766,121.797394 325.063603,121.790923 325.401855,121.601909 C325.762181,121.400561 325.728191,120.977252 325.788686,120.662736 C325.847529,120.356812 325.909766,120.059057 326.007311,119.793576 C327.013465,117.055204 323.95592,113.694598 321.181862,110.240418 C318.197667,106.52458 315.217814,102.649175 315.152906,99.1432239 C315.123681,97.5646578 316.013458,95.8980438 317.383255,94.9361555 C318.028825,94.4828288 318.774604,94.1858142 319.56847,94.1111607 C320.296054,94.0427403 321.066597,94.1585866 321.842461,94.5253634 C324.992686,96.0145798 327.846241,99.4760942 329.880388,101.987265 C330.748528,103.058991 331.373469,104.078268 331.798412,104.298075 C332.023473,103.917149 332.152136,103.3428 332.257365,102.633829 C332.592162,100.37816 332.537984,96.9071562 332.491336,93.5101357 C332.460389,91.2564916 332.430512,89.0342778 332.506635,87.2002983 C332.633614,84.1410907 333.123351,82.091042 333.971893,80.8644557 C334.488496,80.1176953 335.135301,79.6320094 335.916739,79.3711099 C336.64341,79.1284956 337.503359,79.0849392 338.517203,79.2634478 C340.363785,79.5885778 341.380944,80.3182922 342.003255,81.2695509 C342.731963,82.3834468 342.872422,83.9034329 342.968087,85.7383589 C343.01449,86.6284082 343.063556,87.597989 343.2233,88.6250832 C343.378735,89.6244638 343.438869,91.688333 343.504612,94.1574198 C343.648268,99.5526965 343.585614,107.33329 345.276607,108.678956 C345.504001,108.859913 345.712252,108.983399 345.930455,108.951925 C346.218652,108.910354 346.466141,108.677225 346.730871,108.384314 C347.821059,107.178073 348.873294,104.798681 350.17801,101.928222 C351.48564,99.0513499 353.015004,95.6914235 354.985431,92.4347477 C355.672213,91.2996502 356.352557,90.6809585 356.963959,90.3315239 C357.960878,89.7617541 358.837731,89.8517259 359.508113,89.9475504 C360.700891,90.1088346 361.384851,90.8022993 361.829686,91.7734692 C362.340983,92.8897413 362.4888,94.4190862 362.552559,95.3412879 C362.782444,98.6662831 359.440405,114.135918 353.73267,126.104396 C350.327075,133.245544 346.05335,139.032152 341.336662,140.627103 C340.802254,161.169878 332.724764,201.416329 320.394424,235.319886 C316.027705,247.326623 311.119017,258.564598 306.105862,268.58799 C312.545454,288.2084 316.675099,306.40362 316.675099,321.619294 C316.675099,385.12104 302.988424,433.977794 278.325143,463.509719 C276.976949,480.044548 275.724829,502.342799 277.646297,529.781217 C280.230974,566.690184 288.07787,589.823031 292.551272,603.011799 C293.651685,606.256106 294.549275,608.905916 295.120969,611.016776 C298.566811,613.981378 301.590451,619.994329 301.590451,627.798636 Z" id="Combined-Shape" stroke="#000000" stroke-width="2" fill="#F3A7A7"></path>
                <g id="Group-2" transform="translate(94.000000, 149.000000)">
                    <path d="M13.0261437,76.0773095 C12.7651805,70.9448256 14.4275747,63.4762693 17.8680092,54.2304101 C18.0467607,53.7500314 18.2220116,53.2786711 18.3939637,52.8161831 C21.7915388,43.6779546 23.8635939,38.0407369 26.2519246,34.7706195 C28.1912915,32.1152263 30.3518383,31.1781665 33.7358102,31.1781665 C35.5080819,31.1781665 37.0354051,31.8278894 38.2851998,33.0340774 C39.650869,34.3520969 40.6858499,36.3050668 41.3890185,38.7669809 C42.8386714,43.8424648 42.857428,51.0198078 41.185926,59.5041487 C39.7119845,66.9856961 36.6246245,72.479328 32.9354543,76.2750085 C28.3480775,80.9948277 22.8411683,83.0824143 18.4663603,83.0824143 C16.8077495,83.0824143 15.5223075,82.5383064 14.6343384,81.4413543 C13.649143,80.2242935 13.1443698,78.4025156 13.0261437,76.0773095 Z" id="Oval" stroke="#000000" stroke-width="2" fill="#AD6161" transform="translate(27.728158, 57.130290) scale(-1, -1) rotate(30.000000) translate(-27.728158, -57.130290) "></path>
                    <path d="M105.264741,53.5395002 C103.610792,53.5424406 102.329727,53.0007259 101.446111,51.9050399 C100.464532,50.6878774 99.9640847,48.8642989 99.8501823,46.5358409 C99.5987348,41.3956087 101.272013,33.9121864 104.724182,24.6453682 C104.903524,24.1639535 105.079354,23.6915767 105.251874,23.2280915 C108.661015,14.0692515 110.740359,8.41947372 113.131183,5.13991157 C115.072581,2.47684088 117.231483,1.53345163 120.611106,1.5274322 C122.379034,1.52428906 123.901472,2.17161673 125.146057,3.37623404 C126.507104,4.69357298 127.536643,6.64731257 128.234236,9.11117932 C129.672806,14.1921418 129.678739,21.3807595 127.994442,29.8815581 C126.509056,37.3784384 123.415814,42.8868221 119.724652,46.6954859 C115.135581,51.4306427 109.633247,53.5317192 105.264741,53.5395002 Z" id="Oval" stroke="#000000" stroke-width="2" fill="#AD6161" transform="translate(114.555181, 27.533466) scale(1, -1) rotate(60.000000) translate(-114.555181, -27.533466) "></path>
                    <ellipse id="Oval" fill="#000000" cx="55.417271" cy="125.454389" rx="9.14047811" ry="12.5228055"></ellipse>
                    <ellipse id="Oval" fill="#000000" cx="114.830379" cy="84.470662" rx="9.14047811" ry="12.5228055"></ellipse>
                    <ellipse id="Oval" fill="#FFFFFF" cx="58.8449503" cy="118.623768" rx="3.42767929" ry="3.41531059"></ellipse>
                    <ellipse id="Oval" fill="#FFFFFF" cx="118.258058" cy="77.6400408" rx="3.42767929" ry="3.41531059"></ellipse>
                </g>
            </g>
            <g id="5squiggy1" filter="url(#filter-3)" transform="translate(416.000000, 503.500000) scale(-1, 1) translate(-416.000000, -503.500000) translate(152.000000, 339.000000)">
                <path d="M522.497246,191.576584 L340.902653,191.57571 C340.925831,198.4805 340.919511,205.739736 340.912963,213.255359 C340.909817,216.86625 340.90662,220.53634 340.90662,224.254629 L340.906813,225.876968 C340.90755,229.041373 340.910276,232.169358 340.912963,235.254138 C340.949425,277.105914 340.886034,311.011199 335.916352,320.320469 C334.850442,323.215334 333.30811,325.730525 330.768144,327.442025 C328.635955,328.878753 325.786194,329.761658 321.859296,329.76166 C319.549905,329.761661 317.524079,329.836202 315.74255,329.901609 C311.527133,330.056373 308.620218,330.110099 306.529621,329.188089 C304.636963,328.353376 303.308311,326.788124 302.366145,323.735429 C301.177004,319.882513 301.803684,316.134912 303.838318,312.85153 C305.891202,309.538696 309.40242,306.694926 313.942136,304.746353 C314.584434,304.470661 315.373258,304.097518 316.23991,303.687914 C317.766036,302.966624 319.526296,302.136347 321.165821,301.503803 C317.503754,283.492175 315.148982,255.584209 315.148982,224.254749 C315.148982,212.798189 315.463566,201.799472 316.041745,191.575699 L206.633284,191.575039 C207.080398,204.650248 207.159751,220.042867 207.159751,236.51868 C207.159751,255.068615 208.418176,272.581784 209.4553,287.02305 C210.142606,296.593329 210.732501,304.819863 210.799981,311.114204 C211.118817,312.86264 211.016494,314.879866 210.896512,317.000751 C210.850054,317.821973 210.802512,318.659388 210.781889,319.50219 C210.738448,321.277515 210.390924,322.677634 209.801918,323.791819 C209.144539,325.035342 208.186053,325.940826 206.955371,326.598773 C204.258522,328.040561 200.127817,328.218128 195.048285,328.370327 C194.802373,328.377695 194.554195,328.385131 194.303816,328.392801 C194.055132,328.400419 193.806848,328.408189 193.55913,328.415942 C188.32406,328.579776 183.346573,328.691675 180.082542,327.343385 C178.648935,326.751197 177.52247,325.889253 176.773065,324.690155 C176.09304,323.602069 175.715652,322.223517 175.758684,320.464917 C175.859244,316.355276 177.910855,312.560505 181.185477,309.764638 C184.091635,307.283367 187.959651,305.593559 192.227943,305.186521 C186.536835,288.74911 181.442588,263.744062 181.442588,236.51868 C181.442588,220.046664 182.243988,204.655653 183.633102,191.575043 L11.8309992,191.576584 C8.6737016,191.576584 5.87727921,190.372129 3.69989026,188.26354 C1.54905309,186.180663 0.00114102138,183.202243 -0.653304391,179.619065 C-1.75909125,173.564732 -0.31378232,165.744641 5.11256595,157.758815 C12.499192,146.888095 27.3181028,135.654215 53.191326,128.345166 C78.9502098,121.068416 98.6456035,119.121076 111.178877,117.882829 C115.608352,117.445211 119.130638,117.101188 121.69393,116.63392 C119.865995,114.376679 117.923821,112.175726 115.840695,110.111994 C105.538535,99.9057462 97.1439971,89.3587015 91.8944009,80.5613277 C89.1799679,76.0124288 87.3031244,71.9209153 86.4146582,68.572924 C85.4711259,65.0174275 85.6708302,62.2721529 86.9122038,60.5284684 C87.5669833,59.6087383 88.4787474,58.9741168 89.630405,58.6255801 C90.6956113,58.3032069 91.9810212,58.230357 93.4606452,58.4196488 C96.2525437,58.776823 99.7919628,60.07793 103.837241,62.2262905 C111.304972,66.1922432 120.557559,73.0572474 130.047435,81.9710557 C136.951603,55.6952009 152.246019,35.7849751 172.35252,22.0587163 C194.983861,6.60880526 223.724815,-1 253.45554,-1 C282.291891,-1 307.217987,7.06591887 327.495891,22.2117975 C347.684512,37.2909889 363.271977,59.3978227 373.495322,87.5945881 C374.219693,86.9358235 374.940931,86.2530093 375.656253,85.5445358 C385.065614,76.2252556 394.334583,68.8425004 401.708989,64.4330122 C405.554781,62.1334408 408.902139,60.6382945 411.505211,60.0625974 C412.89924,59.7542931 414.098905,59.7063681 415.075071,59.9025185 C416.193318,60.1272186 417.047611,60.6610928 417.632901,61.4832729 C418.654298,62.9180705 418.754827,65.2920086 417.74466,68.4652534 C416.821209,71.3660982 415.005887,74.961852 412.442034,78.997972 C407.487985,86.7968359 399.725437,96.2789713 390.322963,105.591431 C387.399454,108.486952 384.750114,111.63667 382.305328,114.796462 C386.531383,116.142761 398.817151,117.187179 413.69164,118.528411 C436.973467,120.627732 466.563644,123.308434 482.403338,128.354688 C501.88921,134.562552 514.01554,145.039548 520.993262,155.622355 C526.147699,163.439867 528.496996,171.327855 528.926397,177.644212 C529.195402,181.601198 528.707512,184.953893 527.704114,187.330469 C527.143489,188.658327 526.417406,189.694973 525.580871,190.404526 C524.673949,191.173782 523.63337,191.576584 522.497246,191.576584 Z" id="Combined-Shape" stroke="#000000" stroke-width="2" fill="#99CAF4"></path>
                <g id="Group" transform="translate(249.085594, 108.357802) scale(-1, 1) rotate(25.000000) translate(-249.085594, -108.357802) translate(203.260710, 77.082494)" stroke="#000000" stroke-width="2">
                    <path d="M44.4834052,50.9338872 C34.1962132,51.1978118 25.0545185,48.4497833 18.1699726,44.5024421 C14.1430898,42.1935781 10.8908099,39.4768146 8.64896753,36.713281 C6.46640006,34.022816 5.23352313,31.3001971 5.29014044,28.8972523 C5.33910804,26.8189758 6.43994787,24.8340494 8.30623315,22.9892517 C10.3962687,20.9232799 13.4388186,19.0450201 17.1884519,17.4332484 C24.7157061,14.1976747 35.0613656,12.059719 46.43677,11.7678757 C57.8042557,11.4762354 68.0542541,13.0825021 75.4331625,15.9336342 C79.0927193,17.3476482 82.0368161,19.0610471 84.0222426,21.0126532 C85.7827309,22.7431528 86.7777589,24.6550253 86.7293528,26.7094692 C86.6144826,31.5847791 80.801825,37.9636558 72.2472777,42.9516023 C64.7009664,47.351671 54.9138741,50.6662868 44.4834052,50.9338872 Z" id="Oval" fill="#000000" transform="translate(46.009685, 31.342706) rotate(-15.000000) translate(-46.009685, -31.342706) "></path>
                    <path d="M43.7905665,43.9639334 C34.1402026,44.2115198 25.5564811,41.961823 19.0873875,38.7104056 C15.3160207,36.814887 12.2671884,34.582255 10.1636843,32.306125 C8.16210103,30.14028 7.00297961,27.9517028 7.04884425,26.0051218 C7.08828338,24.3312512 8.10881968,22.7458347 9.79805417,21.2619837 C11.7490464,19.5482004 14.5919988,17.9890649 18.0974969,16.6461431 C25.1500411,13.9443828 34.8489261,12.144278 45.5190299,11.8705296 C56.1827766,11.5969442 65.8024543,12.8990227 72.7321727,15.2406176 C76.1612827,16.3993352 78.9213504,17.8050238 80.7848427,19.4129013 C82.3792964,20.7886441 83.311977,22.3028385 83.2731406,23.9511307 C83.2278204,25.874604 81.8711402,28.0854268 79.6544249,30.3319841 C77.2821176,32.7362278 73.9009771,35.1537813 69.8134442,37.2743942 C62.7461086,40.9409296 53.5736902,43.7129411 43.7905665,43.9639334 Z" id="Oval" fill="#FFFFFF" transform="translate(45.160948, 27.908569) rotate(-15.000000) translate(-45.160948, -27.908569) "></path>
                </g>
                <ellipse id="Oval" fill="#000000" cx="178.5" cy="85" rx="7.5" ry="9"></ellipse>
                <ellipse id="Oval" fill="#000000" cx="332.5" cy="82" rx="7.5" ry="9"></ellipse>
                <circle id="Oval" fill="#FFFFFF" cx="336" cy="79" r="3"></circle>
                <circle id="Oval" fill="#FFFFFF" cx="181" cy="83" r="3"></circle>
            </g>
            <path d="M120,324 L184,324 C190.075132,324 195,328.924868 195,335 L195,380 C195,403.748244 175.748244,423 152,423 C128.251756,423 109,403.748244 109,380 L109,335 C109,328.924868 113.924868,324 120,324 Z" id="Rectangle" fill="#000000" transform="translate(152.000000, 373.500000) rotate(15.000000) translate(-152.000000, -373.500000) "></path>
            <path d="M203.317486,351.22667 L119.317486,351.22667 L119.317486,336.22667 C119.317486,333.465247 120.436774,330.965247 122.246418,329.155602 C124.056062,327.345958 126.556062,326.22667 129.317486,326.22667 L193.317486,326.22667 C196.078909,326.22667 198.578909,327.345958 200.388553,329.155602 C202.198197,330.965247 203.317486,333.465247 203.317486,336.22667 L203.317486,351.22667 Z" id="Rectangle" stroke="#000000" stroke-width="2" fill="#FFFFFF" transform="translate(161.317486, 338.726670) rotate(15.000000) translate(-161.317486, -338.726670) "></path>
        </g>
    </g>
</svg>