<?xml version="1.0" encoding="UTF-8"?>
<svg width="776px" height="649px" viewBox="0 0 776 649" version="1.1" xmlns="http://www.w3.org/2000/svg" xmlns:xlink="http://www.w3.org/1999/xlink">
    <!-- Generator: Sketch 62 (91390) - https://sketch.com -->
    <title>5move1</title>
    <desc>Created with Sketch.</desc>
    <defs>
        <filter x="-4.3%" y="-2.2%" width="108.9%" height="104.4%" filterUnits="objectBoundingBox" id="filter-1">
            <feOffset dx="0" dy="2" in="SourceAlpha" result="shadowOffsetOuter1"></feOffset>
            <feGaussianBlur stdDeviation="2" in="shadowOffsetOuter1" result="shadowBlurOuter1"></feGaussianBlur>
            <feColorMatrix values="0 0 0 0 0   0 0 0 0 0   0 0 0 0 0  0 0 0 0.5 0" type="matrix" in="shadowBlurOuter1" result="shadowMatrixOuter1"></feColorMatrix>
            <feMerge>
                <feMergeNode in="shadowMatrixOuter1"></feMergeNode>
                <feMergeNode in="SourceGraphic"></feMergeNode>
            </feMerge>
        </filter>
        <path d="M132.536933,189.667944 C134.719033,188.715716 137.108614,188.293648 139.549633,188.351129 C140.938436,193.899383 141.677411,199.724008 141.677411,205.729659 C141.677411,243.454138 112.519549,274.035871 76.5515042,274.035871 C73.3462593,274.035871 70.1950958,273.793013 67.1138285,273.323886 C68.4353322,267.16275 71.8371354,261.785924 76.5278766,256.90674 C85.7648684,247.298667 96.5483828,253.561414 108.003632,239.423125 C121.731525,222.479895 122.054586,194.242246 132.536933,189.667944 Z" id="path-2"></path>
        <filter x="-2.0%" y="-1.8%" width="104.0%" height="103.5%" filterUnits="objectBoundingBox" id="filter-3">
            <feGaussianBlur stdDeviation="1" in="SourceAlpha" result="shadowBlurInner1"></feGaussianBlur>
            <feOffset dx="0" dy="1" in="shadowBlurInner1" result="shadowOffsetInner1"></feOffset>
            <feComposite in="shadowOffsetInner1" in2="SourceAlpha" operator="arithmetic" k2="-1" k3="1" result="shadowInnerInner1"></feComposite>
            <feColorMatrix values="0 0 0 0 0   0 0 0 0 0   0 0 0 0 0  0 0 0 0.5 0" type="matrix" in="shadowInnerInner1"></feColorMatrix>
        </filter>
        <filter x="-2.7%" y="-4.3%" width="105.3%" height="108.5%" filterUnits="objectBoundingBox" id="filter-4">
            <feOffset dx="0" dy="2" in="SourceAlpha" result="shadowOffsetOuter1"></feOffset>
            <feGaussianBlur stdDeviation="2" in="shadowOffsetOuter1" result="shadowBlurOuter1"></feGaussianBlur>
            <feColorMatrix values="0 0 0 0 0   0 0 0 0 0   0 0 0 0 0  0 0 0 0.5 0" type="matrix" in="shadowBlurOuter1" result="shadowMatrixOuter1"></feColorMatrix>
            <feMerge>
                <feMergeNode in="shadowMatrixOuter1"></feMergeNode>
                <feMergeNode in="SourceGraphic"></feMergeNode>
            </feMerge>
        </filter>
    </defs>
    <g id="Page-1" stroke="none" stroke-width="1" fill="none" fill-rule="evenodd">
        <g id="Artboard" transform="translate(-573.000000, -353.000000)">
            <g id="5move1" transform="translate(579.000000, 357.000000)">
                <g id="5cece1" filter="url(#filter-1)" transform="translate(162.500000, 318.500000) scale(-1, 1) translate(-162.500000, -318.500000) ">
                    <path d="M308.710844,480.572415 C307.019851,481.918082 307.082506,489.698675 306.938849,495.093952 C306.873106,497.563039 306.812972,499.626908 306.657538,500.626288 C306.497793,501.653383 306.448728,502.622964 306.402324,503.513013 C306.306659,505.347939 306.1662,506.867925 305.437493,507.981821 C304.815181,508.93308 303.798022,509.662794 301.95144,509.987924 C300.937596,510.166433 300.077647,510.122876 299.350977,509.880262 C298.569539,509.619362 297.922733,509.133676 297.406131,508.386916 C296.557589,507.16033 296.067851,505.110281 295.940872,502.051073 C295.864749,500.217094 295.894627,497.99488 295.925574,495.741236 C295.972222,492.344216 296.026399,488.873212 295.691602,486.617543 C295.586373,485.908572 295.45771,485.334222 295.242502,484.972087 C294.807623,485.17324 294.182707,486.192453 293.314626,487.264106 C291.280479,489.775278 288.426923,493.236792 285.276698,494.726008 C284.500835,495.092785 283.730291,495.208631 283.002708,495.140211 C282.208841,495.065558 281.463062,494.768543 280.817492,494.315216 C279.447695,493.353328 278.557919,491.686714 278.587144,490.108148 C278.652051,486.602197 281.631904,482.726792 284.616099,479.010954 C287.390157,475.556773 290.447702,472.196167 289.441549,469.457796 C289.344004,469.192315 289.281767,468.89456 289.222924,468.588635 C289.162428,468.274119 289.196418,467.850811 288.836092,467.649462 C288.49784,467.460449 287.951003,467.453978 287.10438,467.576688 C285.321767,467.835062 283.251207,468.573125 281.213724,469.291153 C278.927929,470.096689 276.680714,470.874909 274.876908,471.055643 C273.200466,471.223616 271.889454,470.873328 271.038004,469.929866 C270.170358,468.968458 269.7036,468.018374 269.518777,467.100474 C269.306158,466.044522 269.461669,465.016107 269.887763,464.026478 C270.896199,461.684321 273.554582,459.558578 275.729717,457.87488 C276.150536,457.549138 276.549889,457.240137 276.908806,456.949057 C282.318264,452.562008 290.258055,450.252142 298.777329,448.645153 C298.611061,447.098536 298.439586,445.477966 298.260258,443.783166 C296.629278,428.369069 294.347962,406.805678 289.417487,378.884127 C288.250235,372.27392 287.053634,365.981967 285.853496,360.010918 C281.378997,404.981665 268.75783,440.241714 249.324895,463.512766 C247.976795,480.047287 246.724947,502.344485 248.646297,529.781217 C251.230974,566.690184 259.07787,589.823031 263.551272,603.011799 C264.651685,606.256106 265.549275,608.905916 266.120969,611.016776 C269.566811,613.981378 272.590451,619.994329 272.590451,627.798636 C272.590451,629.968987 272.204609,631.672777 271.520924,633.015961 C270.752017,634.526575 269.606593,635.602668 268.144705,636.359564 C264.833766,638.07381 259.760142,638.05388 253.87881,637.960533 C252.54685,637.939393 251.172983,637.917547 249.769699,637.917547 C248.439768,637.917547 247.045859,637.937159 245.618732,637.957202 C238.808211,638.052849 231.265944,638.128359 226.17505,636.260551 C224.121004,635.506938 222.451452,634.43948 221.315465,632.985469 C220.255332,631.628548 219.641853,629.931765 219.641853,627.798636 C219.641853,625.971904 220.506425,624.20987 222.083355,622.562774 C223.681596,620.89342 226.023294,619.331085 228.798462,617.913406 C235.527885,614.475718 244.837606,611.854156 251.793269,610.338787 C242.416486,597.501752 231.973086,570.607257 229.578498,536.412748 C228.287734,517.980724 228.888475,498.209955 230.659849,480.727424 C216.521521,490.521096 200.009991,495.676681 181.402416,495.676681 C173.648428,495.676681 166.140193,494.647329 158.926009,492.658332 C157.100498,505.04064 155.189062,521.33773 155.189062,541.286072 C155.189062,569.786841 159.962698,587.984103 162.683917,598.358818 C163.842931,602.77759 164.614416,605.829584 164.565631,607.690885 C165.028016,609.654238 165.292835,611.80982 165.292835,614.12094 C165.292835,616.291291 164.906993,617.995081 164.223308,619.338265 C163.454401,620.848879 162.308977,621.924972 160.84709,622.681867 C157.53615,624.396113 152.462526,624.376184 146.581194,624.282837 C145.475056,624.265281 144.340034,624.247247 143.185634,624.241636 L142.472083,624.239851 C141.142152,624.239851 139.748243,624.259463 138.321116,624.279506 C131.510595,624.375153 123.968329,624.450663 118.877435,622.582855 C116.823388,621.829241 115.153836,620.761784 114.017849,619.307773 C112.957716,617.950852 112.344238,616.254068 112.344238,614.12094 C112.344238,612.169039 113.33406,610.288918 115.124505,608.543411 C116.957337,606.756581 119.638564,605.098208 122.768636,603.611532 C130.982533,599.710214 142.316503,596.952553 148.872736,595.793208 C143.896416,584.181584 139.739373,566.412273 139.739373,545.362641 C139.739373,525.647243 142.654566,504.156307 146.506156,488.160312 C115.99901,474.376139 91.8330517,442.300861 78.3543516,397.925906 C77.6369515,411.721168 77.0813967,426.684227 77.0813967,442.122405 C77.0813967,469.166738 78.5835051,489.802321 79.6573234,504.557675 C79.936194,508.38964 80.1862387,511.825972 80.3753378,514.875568 C89.6763882,514.918007 98.2939915,515.75127 104.614821,519.261765 C105.018909,519.48619 105.465935,519.721251 105.937012,519.969077 C108.371786,521.24997 111.35935,522.882358 112.759712,525.013975 C113.351401,525.914638 113.683353,526.900419 113.657595,527.977133 C113.635202,528.913209 113.340726,529.929867 112.653392,531.027203 C111.978884,532.104062 110.748622,532.676524 109.068213,532.801808 C107.260396,532.936591 104.912002,532.559857 102.52087,532.162913 C100.389458,531.809084 98.2219913,531.441261 96.4215149,531.495912 C95.5665323,531.521863 95.029185,531.622976 94.7289725,531.867743 C94.4092588,532.12841 94.5164695,532.539255 94.5115906,532.859281 C94.5068419,533.170774 94.497328,533.474813 94.4474297,533.753186 C93.932751,536.624488 97.5282992,539.403862 100.861065,542.324684 C104.445989,545.466499 108.054454,548.766225 108.728044,552.207545 C109.031367,553.757203 108.444809,555.552908 107.262994,556.737794 C106.705998,557.296239 106.023122,557.718112 105.254203,557.92931 C104.549594,558.122844 103.770634,558.142385 102.942798,557.91572 C99.5815468,556.995395 96.1694842,554.08134 93.7296178,551.961107 C92.6883029,551.056209 91.8956284,550.160972 91.438813,550.017914 C91.2835715,550.431556 91.2567628,551.019434 91.2764214,551.735819 C91.3389723,554.01526 91.9959365,557.424116 92.6326196,560.761423 C93.0550059,562.975448 93.4708733,565.158706 93.7148364,566.978011 C94.1217959,570.012827 93.9959585,572.116704 93.3735976,573.471813 C92.9946358,574.296952 92.4420164,574.887515 91.7176899,575.280018 C91.0442248,575.64496 90.2048785,575.836993 89.1753522,575.836993 C87.3005112,575.836993 86.1720044,575.294869 85.3937993,574.466054 C84.4825006,573.49549 84.0799162,572.023035 83.6666347,570.23269 C83.4661546,569.364206 83.2492214,568.417859 82.9132883,567.434065 C82.5864242,566.476829 82.1683005,564.454766 81.6741837,562.034617 C80.5944125,556.745975 79.3028374,549.072682 77.4034825,548.040655 C77.1480009,547.901838 76.9213933,547.816282 76.7119143,547.885134 C76.4354423,547.976007 76.2323666,548.248428 76.0226986,548.582626 C75.1588599,549.959535 74.5364238,552.485155 73.7507247,555.538139 C72.9632446,558.598044 72.0414012,562.172113 70.6672391,565.720978 C70.1882231,566.958068 69.6257192,567.685405 69.0843075,568.135597 C68.2029472,568.868462 67.3250826,568.932913 66.6489023,568.954848 C65.4444451,569.004076 64.6494487,568.439637 64.0420057,567.559664 C63.3443851,566.549055 62.9328923,565.068649 62.70974,564.171557 C61.766545,560.379833 62.7766718,539.303341 68.137019,526.09498 C61.5531346,512.186366 55.2710376,481.60302 55.2710376,446.85888 C55.2710376,414.164171 61.358409,367.69897 67.8294338,342.094654 C66.9552467,332.312688 66.5059384,322.184889 66.5059384,311.75451 C66.5059384,272.252989 56.9715468,180.939638 42.4053514,121.069969 C42.2703621,120.97894 42.0815347,120.913823 41.856198,120.852127 C41.1357165,120.654864 40.1161105,120.562207 38.9074315,120.529113 C35.3632895,120.432071 30.2879881,120.883307 26.0312423,121.259235 C23.1083068,121.517369 20.5629852,121.739878 19.1238148,121.739878 C18.1892471,121.739878 17.1541388,121.796036 16.0692895,121.854304 C12.4195762,122.050334 8.26148249,122.219056 5.25889418,120.714176 C2.98318487,119.573604 1.28303083,117.537469 0.875631583,113.876366 C0.738835358,112.647043 1.12558351,111.397106 2.00245122,110.147249 C2.83732739,108.957245 4.13187186,107.754045 5.77031575,106.55746 C9.84413094,103.58228 16.1009279,100.592491 22.256684,97.6597497 C27.9256933,94.9589056 33.5072333,92.3075134 37.1294252,89.7405201 C38.43236,88.8171497 39.4739618,87.9140588 40.13836,87.017383 C40.615969,86.372799 40.9011479,85.7437025 40.8310791,85.1093256 C40.7562738,84.4320664 40.2764446,83.9190819 39.59563,83.4784333 C38.5937312,82.8299671 37.1566996,82.3552488 35.4400714,81.9817077 C30.4947074,80.9055883 23.3228548,80.7358686 16.8771323,80.5759259 C8.75531687,80.3743931 2.09320279,79.864935 1.03810255,78.2863274 C-0.335042811,76.2318708 -1,74.1947821 -1,72.3561455 C-1,70.4102783 -0.273122651,68.6650687 1.18525452,67.2967071 C3.7319714,64.9071814 15.9290816,57.9519962 31.5735464,55.8310437 C40.4470759,54.628041 52.5171923,55.4392585 62.4078103,56.1111179 C70.8641223,56.6855464 78.0906613,57.5808558 79.0476233,56.2408227 C78.9848269,55.5801115 78.7671135,55.1931614 78.4595447,54.759168 C77.6270114,53.5844259 76.1574287,52.1760357 74.2738902,50.6089291 C68.9749122,46.2001722 60.4586882,40.6376957 52.9843449,35.7524753 C44.7226901,30.3526693 37.8719894,25.6686453 37.3285175,24.1482298 C36.4207472,21.6086542 36.1925916,19.3626354 37.5827892,17.6178005 C38.6419297,16.2884747 40.7407733,15.1797072 44.6653692,14.6170254 C56.6572124,12.8977169 82.9240377,17.9232279 93.9404793,20.6503069 C95.8929245,21.1336274 100.215705,23.0763306 105.306883,25.3787953 C111.810202,28.3198949 119.597998,31.8465298 125.202886,33.511889 C127.145573,34.0891123 128.810979,34.444584 130.0416,34.4391874 C130.478456,34.4372716 130.848978,34.3949275 131.132591,34.2699405 C131.551527,33.6894968 131.20269,33.1592256 130.839448,32.5459176 C130.225062,31.5085721 129.204299,30.2479295 127.864438,28.8325674 C125.0917,25.9035874 120.975505,22.351013 116.156867,18.7982423 C113.71338,16.9966648 110.842163,15.4295128 108.145274,13.9540795 C105.175012,12.329087 102.412489,10.8060421 100.586151,9.2319481 C98.970965,7.83984248 98.0833863,6.38293476 98.0833863,4.85280938 C98.0833863,3.71607155 98.3812019,2.79702359 98.8876515,2.04701014 C99.4301065,1.24367523 100.223347,0.628417567 101.210799,0.177367509 C103.398089,-0.821746538 106.617068,-0.98745519 109.703549,-0.999081573 L110.231251,-1 C130.1431,-1 164.822287,8.21108117 182.251723,36.2523794 C191.670832,51.4062847 199.423087,73.9864677 207.450615,97.4062854 C212.644898,112.560285 217.958592,128.065508 223.930687,142.116189 C229.016104,154.080762 234.730755,166.78049 240.594467,179.811678 C256.963707,216.189767 274.486583,255.147404 282.775461,287.927497 C292.556914,306.156575 305.533591,344.731395 311.759547,379.989283 C317.415815,412.021068 317.533555,441.495843 314.676504,458.438117 C321.868807,470.619061 326.248383,490.12656 325.986797,493.910084 C325.923037,494.832286 325.77522,496.36163 325.263923,497.477902 C324.803361,498.48341 324.07492,499.153914 323.08142,499.28447 C322.227861,499.405408 321.372619,499.47676 320.398196,498.919848 C319.786795,498.570413 319.10645,497.951721 318.419668,496.816624 C316.449242,493.559948 314.919878,490.200022 313.612247,487.323149 C312.307532,484.452691 311.255296,482.073299 310.165108,480.867058 C309.900378,480.574147 309.65289,480.341018 309.364693,480.299447 C309.146489,480.267972 308.938238,480.391459 308.710844,480.572415 Z" id="Combined-Shape" stroke="#000000" stroke-width="2" fill="#F3A7A7"></path>
                    <g id="Group-2" transform="translate(77.000000, 145.000000)">
                        <path d="M1.02614373,80.0773095 C0.765180537,74.9448256 2.42757468,67.4762693 5.86800924,58.2304101 C6.04676075,57.7500314 6.2220116,57.2786711 6.39396369,56.8161831 C9.79153877,47.6779546 11.8635939,42.0407369 14.2519246,38.7706195 C16.1912915,36.1152263 18.3518383,35.1781665 21.7358102,35.1781665 C23.5080819,35.1781665 25.0354051,35.8278894 26.2851998,37.0340774 C27.650869,38.3520969 28.6858499,40.3050668 29.3890185,42.7669809 C30.8386714,47.8424648 30.857428,55.0198078 29.185926,63.5041487 C27.7119845,70.9856961 24.6246245,76.479328 20.9354543,80.2750085 C16.3480775,84.9948277 10.8411683,87.0824143 6.46636029,87.0824143 C4.80774947,87.0824143 3.52230745,86.5383064 2.63433843,85.4413543 C1.64914299,84.2242935 1.14436976,82.4025156 1.02614373,80.0773095 Z" id="Oval" stroke="#000000" stroke-width="2" fill="#AD6161"></path>
                        <path d="M93.2647406,57.5395002 C91.6107919,57.5424406 90.3297267,57.0007259 89.4461115,55.9050399 C88.4645317,54.6878774 87.9640847,52.8642989 87.8501823,50.5358409 C87.5987348,45.3956087 89.272013,37.9121864 92.7241825,28.6453682 C92.903524,28.1639535 93.079354,27.6915767 93.2518744,27.2280915 C96.661015,18.0692515 98.7403588,12.4194737 101.131183,9.13991157 C103.072581,6.47684088 105.231483,5.53345163 108.611106,5.5274322 C110.379034,5.52428906 111.901472,6.17161673 113.146057,7.37623404 C114.507104,8.69357298 115.536643,10.6473126 116.234236,13.1111793 C117.672806,18.1921418 117.678739,25.3807595 115.994442,33.8815581 C114.509056,41.3784384 111.415814,46.8868221 107.724652,50.6954859 C103.135581,55.4306427 97.6332475,57.5317192 93.2647406,57.5395002 Z" id="Oval" stroke="#000000" stroke-width="2" fill="#AD6161" transform="translate(102.555181, 31.533466) scale(1, -1) rotate(40.000000) translate(-102.555181, -31.533466) "></path>
                        <ellipse id="Oval" fill="#000000" cx="43.417271" cy="129.454389" rx="9.14047811" ry="12.5228055"></ellipse>
                        <ellipse id="Oval" fill="#000000" cx="102.830379" cy="88.470662" rx="9.14047811" ry="12.5228055"></ellipse>
                        <path d="M162.036352,259.823018 C155.710737,280.890075 137.154997,297.740099 120.742184,304.044513 C112.16436,307.339388 100.555066,308.921507 90.2193616,306.732645 C82.0645611,305.005648 74.6979436,300.926268 70.2873414,293.443026 C66.5274186,287.063758 65.6509659,280.987371 66.6695826,275.369999 C67.9042271,268.561297 71.9084797,262.433163 76.888322,257.253264 C80.9299498,253.049271 85.2807361,251.956782 89.8463636,250.791009 C95.72085,249.291036 101.949508,247.689486 108.39212,239.73789 C115.157481,231.38795 118.696763,220.315605 121.776775,210.64592 C124.899426,200.842372 127.477307,192.421405 132.736912,190.126211 C137.537819,188.031184 143.050714,188.755966 147.992109,191.447265 C153.067945,194.211784 157.547397,199.053123 160.074407,205.109894 C166.314109,220.065301 167.167629,242.733626 162.036352,259.823018 Z" id="Oval" stroke="#000000" fill="#000000"></path>
                        <g id="Combined-Shape">
                            <use fill="#FFFFFF" fill-rule="evenodd" xlink:href="#path-2"></use>
                            <use fill="black" fill-opacity="1" filter="url(#filter-3)" xlink:href="#path-2"></use>
                            <path stroke="#000000" stroke-width="2" d="M140.677411,205.729659 C140.677411,224.321407 133.495812,241.154995 121.878719,253.339387 C110.278473,265.50611 94.2541451,273.035871 76.5515042,273.035871 C73.7687366,273.035871 71.027391,272.849877 68.3383136,272.48846 C69.7688913,266.939282 72.9621161,262.058649 77.2487674,257.599789 C81.2151505,253.474063 85.4926445,252.418716 89.9700633,251.275466 C95.9310993,249.753394 102.245097,248.118909 108.780609,240.052654 C115.584714,231.654896 119.155113,220.524074 122.253191,210.797669 C125.311522,201.196053 127.763717,192.841954 132.936891,190.584478 C134.759604,189.789079 136.736748,189.390279 138.764302,189.349964 C140.01438,194.592973 140.677411,200.080098 140.677411,205.729659 Z" stroke-linejoin="square"></path>
                        </g>
                        <ellipse id="Oval" fill="#FFFFFF" cx="46.8449503" cy="122.623768" rx="3.42767929" ry="3.41531059"></ellipse>
                        <ellipse id="Oval" fill="#FFFFFF" cx="106.258058" cy="81.6400408" rx="3.42767929" ry="3.41531059"></ellipse>
                    </g>
                </g>
                <g id="5squiggy1" filter="url(#filter-4)" transform="translate(500.000000, 472.500000) scale(-1, 1) translate(-500.000000, -472.500000) translate(236.000000, 308.000000)">
                    <path d="M522.497246,191.576584 L340.902653,191.57571 C340.925831,198.4805 340.919511,205.739736 340.912963,213.255359 C340.909817,216.86625 340.90662,220.53634 340.90662,224.254629 L340.906813,225.876968 C340.90755,229.041373 340.910276,232.169358 340.912963,235.254138 C340.949425,277.105914 340.886034,311.011199 335.916352,320.320469 C334.850442,323.215334 333.30811,325.730525 330.768144,327.442025 C328.635955,328.878753 325.786194,329.761658 321.859296,329.76166 C319.549905,329.761661 317.524079,329.836202 315.74255,329.901609 C311.527133,330.056373 308.620218,330.110099 306.529621,329.188089 C304.636963,328.353376 303.308311,326.788124 302.366145,323.735429 C301.177004,319.882513 301.803684,316.134912 303.838318,312.85153 C305.891202,309.538696 309.40242,306.694926 313.942136,304.746353 C314.584434,304.470661 315.373258,304.097518 316.23991,303.687914 C317.766036,302.966624 319.526296,302.136347 321.165821,301.503803 C317.503754,283.492175 315.148982,255.584209 315.148982,224.254749 C315.148982,212.798189 315.463566,201.799472 316.041745,191.575699 L206.633284,191.575039 C207.080398,204.650248 207.159751,220.042867 207.159751,236.51868 C207.159751,255.068615 208.418176,272.581784 209.4553,287.02305 C210.142606,296.593329 210.732501,304.819863 210.799981,311.114204 C211.118817,312.86264 211.016494,314.879866 210.896512,317.000751 C210.850054,317.821973 210.802512,318.659388 210.781889,319.50219 C210.738448,321.277515 210.390924,322.677634 209.801918,323.791819 C209.144539,325.035342 208.186053,325.940826 206.955371,326.598773 C204.258522,328.040561 200.127817,328.218128 195.048285,328.370327 C194.802373,328.377695 194.554195,328.385131 194.303816,328.392801 C194.055132,328.400419 193.806848,328.408189 193.55913,328.415942 C188.32406,328.579776 183.346573,328.691675 180.082542,327.343385 C178.648935,326.751197 177.52247,325.889253 176.773065,324.690155 C176.09304,323.602069 175.715652,322.223517 175.758684,320.464917 C175.859244,316.355276 177.910855,312.560505 181.185477,309.764638 C184.091635,307.283367 187.959651,305.593559 192.227943,305.186521 C186.536835,288.74911 181.442588,263.744062 181.442588,236.51868 C181.442588,220.046664 182.243988,204.655653 183.633102,191.575043 L11.8309992,191.576584 C8.6737016,191.576584 5.87727921,190.372129 3.69989026,188.26354 C1.54905309,186.180663 0.00114102138,183.202243 -0.653304391,179.619065 C-1.75909125,173.564732 -0.31378232,165.744641 5.11256595,157.758815 C12.499192,146.888095 27.3181028,135.654215 53.191326,128.345166 C78.9502098,121.068416 98.6456035,119.121076 111.178877,117.882829 C115.608352,117.445211 119.130638,117.101188 121.69393,116.63392 C119.865995,114.376679 117.923821,112.175726 115.840695,110.111994 C105.538535,99.9057462 97.1439971,89.3587015 91.8944009,80.5613277 C89.1799679,76.0124288 87.3031244,71.9209153 86.4146582,68.572924 C85.4711259,65.0174275 85.6708302,62.2721529 86.9122038,60.5284684 C87.5669833,59.6087383 88.4787474,58.9741168 89.630405,58.6255801 C90.6956113,58.3032069 91.9810212,58.230357 93.4606452,58.4196488 C96.2525437,58.776823 99.7919628,60.07793 103.837241,62.2262905 C111.304972,66.1922432 120.557559,73.0572474 130.047435,81.9710557 C136.951603,55.6952009 152.246019,35.7849751 172.35252,22.0587163 C194.983861,6.60880526 223.724815,-1 253.45554,-1 C282.291891,-1 307.217987,7.06591887 327.495891,22.2117975 C347.684512,37.2909889 363.271977,59.3978227 373.495322,87.5945881 C374.219693,86.9358235 374.940931,86.2530093 375.656253,85.5445358 C385.065614,76.2252556 394.334583,68.8425004 401.708989,64.4330122 C405.554781,62.1334408 408.902139,60.6382945 411.505211,60.0625974 C412.89924,59.7542931 414.098905,59.7063681 415.075071,59.9025185 C416.193318,60.1272186 417.047611,60.6610928 417.632901,61.4832729 C418.654298,62.9180705 418.754827,65.2920086 417.74466,68.4652534 C416.821209,71.3660982 415.005887,74.961852 412.442034,78.997972 C407.487985,86.7968359 399.725437,96.2789713 390.322963,105.591431 C387.399454,108.486952 384.750114,111.63667 382.305328,114.796462 C386.531383,116.142761 398.817151,117.187179 413.69164,118.528411 C436.973467,120.627732 466.563644,123.308434 482.403338,128.354688 C501.88921,134.562552 514.01554,145.039548 520.993262,155.622355 C526.147699,163.439867 528.496996,171.327855 528.926397,177.644212 C529.195402,181.601198 528.707512,184.953893 527.704114,187.330469 C527.143489,188.658327 526.417406,189.694973 525.580871,190.404526 C524.673949,191.173782 523.63337,191.576584 522.497246,191.576584 Z" id="Combined-Shape" stroke="#000000" stroke-width="2" fill="#99CAF4"></path>
                    <g id="Group" transform="translate(249.085594, 108.357802) scale(-1, 1) rotate(25.000000) translate(-249.085594, -108.357802) translate(203.260710, 77.082494)" stroke="#000000" stroke-width="2">
                        <path d="M44.4834052,50.9338872 C34.1962132,51.1978118 25.0545185,48.4497833 18.1699726,44.5024421 C14.1430898,42.1935781 10.8908099,39.4768146 8.64896753,36.713281 C6.46640006,34.022816 5.23352313,31.3001971 5.29014044,28.8972523 C5.33910804,26.8189758 6.43994787,24.8340494 8.30623315,22.9892517 C10.3962687,20.9232799 13.4388186,19.0450201 17.1884519,17.4332484 C24.7157061,14.1976747 35.0613656,12.059719 46.43677,11.7678757 C57.8042557,11.4762354 68.0542541,13.0825021 75.4331625,15.9336342 C79.0927193,17.3476482 82.0368161,19.0610471 84.0222426,21.0126532 C85.7827309,22.7431528 86.7777589,24.6550253 86.7293528,26.7094692 C86.6144826,31.5847791 80.801825,37.9636558 72.2472777,42.9516023 C64.7009664,47.351671 54.9138741,50.6662868 44.4834052,50.9338872 Z" id="Oval" fill="#000000" transform="translate(46.009685, 31.342706) rotate(-15.000000) translate(-46.009685, -31.342706) "></path>
                        <path d="M43.7905665,43.9639334 C34.1402026,44.2115198 25.5564811,41.961823 19.0873875,38.7104056 C15.3160207,36.814887 12.2671884,34.582255 10.1636843,32.306125 C8.16210103,30.14028 7.00297961,27.9517028 7.04884425,26.0051218 C7.08828338,24.3312512 8.10881968,22.7458347 9.79805417,21.2619837 C11.7490464,19.5482004 14.5919988,17.9890649 18.0974969,16.6461431 C25.1500411,13.9443828 34.8489261,12.144278 45.5190299,11.8705296 C56.1827766,11.5969442 65.8024543,12.8990227 72.7321727,15.2406176 C76.1612827,16.3993352 78.9213504,17.8050238 80.7848427,19.4129013 C82.3792964,20.7886441 83.311977,22.3028385 83.2731406,23.9511307 C83.2278204,25.874604 81.8711402,28.0854268 79.6544249,30.3319841 C77.2821176,32.7362278 73.9009771,35.1537813 69.8134442,37.2743942 C62.7461086,40.9409296 53.5736902,43.7129411 43.7905665,43.9639334 Z" id="Oval" fill="#FFFFFF" transform="translate(45.160948, 27.908569) rotate(-15.000000) translate(-45.160948, -27.908569) "></path>
                    </g>
                    <ellipse id="Oval" fill="#000000" cx="178.5" cy="85" rx="7.5" ry="9"></ellipse>
                    <ellipse id="Oval" fill="#000000" cx="332.5" cy="82" rx="7.5" ry="9"></ellipse>
                    <circle id="Oval" fill="#FFFFFF" cx="336" cy="79" r="3"></circle>
                    <circle id="Oval" fill="#FFFFFF" cx="181" cy="83" r="3"></circle>
                </g>
            </g>
        </g>
    </g>
</svg>