<?xml version="1.0" encoding="UTF-8"?>
<svg width="694px" height="625px" viewBox="0 0 694 625" version="1.1" xmlns="http://www.w3.org/2000/svg" xmlns:xlink="http://www.w3.org/1999/xlink">
    <!-- Generator: Sketch 62 (91390) - https://sketch.com -->
    <title>Group 25</title>
    <desc>Created with Sketch.</desc>
    <defs>
        <linearGradient x1="50%" y1="0%" x2="50%" y2="99.5671453%" id="linearGradient-1">
            <stop stop-color="#DDBEFF" offset="0%"></stop>
            <stop stop-color="#876BA9" offset="100%"></stop>
        </linearGradient>
        <linearGradient x1="50%" y1="0%" x2="50%" y2="100%" id="linearGradient-2">
            <stop stop-color="#FFFCCA" offset="0%"></stop>
            <stop stop-color="#EDC792" offset="100%"></stop>
        </linearGradient>
        <linearGradient x1="50%" y1="0%" x2="50%" y2="100%" id="linearGradient-3">
            <stop stop-color="#FFFCCA" offset="0%"></stop>
            <stop stop-color="#EDC792" offset="100%"></stop>
        </linearGradient>
        <linearGradient x1="50%" y1="0%" x2="50%" y2="100%" id="linearGradient-4">
            <stop stop-color="#E6FFE4" offset="0%"></stop>
            <stop stop-color="#83DCC6" offset="100%"></stop>
        </linearGradient>
        <linearGradient x1="50%" y1="0%" x2="50%" y2="100%" id="linearGradient-5">
            <stop stop-color="#E6FFE4" offset="0%"></stop>
            <stop stop-color="#83DCC6" offset="100%"></stop>
        </linearGradient>
    </defs>
    <g id="Page-1" stroke="none" stroke-width="1" fill="none" fill-rule="evenodd">
        <g id="Group-25">
            <g id="charsquigg_popup" transform="translate(31.000000, 0.000000)">
                <polygon id="Star" fill="url(#linearGradient-1)" fill-rule="nonzero" points="324.5 469.016357 157.862881 544.856318 178.497268 362.939163 54.8754776 227.893682 234.265349 191.302658 324.5 32 414.734651 191.302658 594.124522 227.893682 470.502732 362.939163 491.137119 544.856318"></polygon>
                <g id="Star" transform="translate(74.000000, 0.000000)">
                    <g id="path-3-link" fill="#000000" fill-rule="nonzero">
                        <polygon id="path-3" points="127 205.02002 48.824561 240.59926 58.504891 155.25541 0.5094833 91.9007397 84.667695 74.7345803 127 0 169.332305 74.7345803 253.490517 91.9007397 195.495109 155.25541 205.175439 240.59926"></polygon>
                    </g>
                    <g id="path-3-link" fill="url(#linearGradient-3)">
                        <polygon id="path-3" points="127 205.02002 48.824561 240.59926 58.504891 155.25541 0.5094833 91.9007397 84.667695 74.7345803 127 0 169.332305 74.7345803 253.490517 91.9007397 195.495109 155.25541 205.175439 240.59926"></polygon>
                    </g>
                </g>
                <g id="Star" transform="translate(425.000000, 469.000000)">
                    <g id="path-6-link" fill="#000000" fill-rule="nonzero">
                        <polygon id="path-6" points="79 127.944824 30.213824 150.148411 36.254932 96.888714 0.062309 57.351589 52.582095 46.638873 79 0 105.417905 46.638873 157.937691 57.351589 121.745068 96.888714 127.786176 150.148411"></polygon>
                    </g>
                    <g id="path-6-link" fill="url(#linearGradient-5)">
                        <polygon id="path-6" points="79 127.944824 30.213824 150.148411 36.254932 96.888714 0.062309 57.351589 52.582095 46.638873 79 0 105.417905 46.638873 157.937691 57.351589 121.745068 96.888714 127.786176 150.148411"></polygon>
                    </g>
                </g>
                <g id="Group" transform="translate(0.000000, 216.000000)">
                    <g id="charsquigg_popup" fill-rule="nonzero">
                        <path d="M640.267464,234.862574 L417.86499,234.861315 C416,243.297758 399.870599,274.469871 399.870599,279.013282 L399.870836,280.995617 C399.871738,284.862203 399.875072,288.684286 399.87836,292.453577 C399.922938,343.554532 399.865894,384.958516 393.784502,396.303151 C392.496873,399.801051 390.637547,402.844466 387.564786,404.912411 C384.986025,406.647897 381.537969,407.708774 376.789972,407.708776 C373.961353,407.708778 371.480054,407.799921 369.297978,407.879929 C364.187946,408.067292 360.660444,408.14375 358.124971,407.027001 C355.858726,406.028833 354.280416,404.146961 353.154052,400.50222 C351.718933,395.858399 352.476549,391.341869 354.931855,387.384812 C357.422482,383.37083 361.685313,379.929099 367.192031,377.568554 C367.979925,377.23081 368.947587,376.773742 370.010692,376.271946 C371.927902,375.367004 374.147927,374.320899 376.198231,373.541878 C371.69818,351.550619 368.803489,317.382945 368.803489,279.013401 C368.803489,264.931532 380.19308,247.415945 380.908743,234.861308 L253.581458,234.861116 C249.446007,249.927181 236.233332,273.773455 236.233332,293.998509 C236.233332,316.670187 237.773239,338.074739 239.042469,355.724817 C239.883594,367.421613 240.605623,377.474898 240.687261,385.164831 C241.078921,387.290451 240.95178,389.744782 240.80559,392.325321 C240.748603,393.331251 240.690324,394.357015 240.665029,395.389378 C240.612887,397.517514 240.198819,399.197007 239.491639,400.532984 C238.70872,402.012045 237.566403,403.088104 236.100914,403.870558 C232.823889,405.620229 227.801848,405.824198 221.631889,406.008828 C221.330969,406.017833 221.027277,406.02692 220.720892,406.036294 C220.416582,406.045604 220.11276,406.0551 219.809631,406.064574 C213.442139,406.263587 207.385106,406.409122 203.414012,404.770907 C201.706469,404.066485 200.361996,403.043761 199.468996,401.616771 C198.656719,400.318773 198.210128,398.673409 198.261505,396.57651 C198.38304,391.616202 200.866733,387.038621 204.823292,383.664936 C208.410045,380.606579 213.205669,378.542498 218.491827,378.096632 C211.497521,358.03341 205.215743,327.383207 205.215743,293.998509 C205.215743,273.777311 224.20577,250.889946 225.920672,234.861123 L15.4750483,234.862574 C11.6725555,234.862574 8.30494437,233.413429 5.68270062,230.877362 C3.08106209,228.361224 1.21204848,224.761834 0.420581593,220.434113 C-0.92428052,213.080441 0.842409168,203.584564 7.44033791,193.887252 C16.458194,180.633249 34.5567865,166.946787 66.1398663,158.036403 C97.638138,149.149946 121.721947,146.77216 137.047771,145.259998 C142.688197,144.703471 147.12873,144.269605 150.298976,143.662837 C149.468539,142.63283 150.256201,113.074122 157.577383,96 C170.62011,65.5823582 196.208978,38.9002608 211.997407,28.135994 C239.651228,9.28211674 274.771058,0 311.099012,0 C346.327085,0 376.779255,9.8386136 401.552237,28.3178073 C426.29443,46.7740339 447.990896,70.3105618 460.480657,104.871231 C461.452789,103.994684 469.342945,136.568178 468.379627,141.376521 C473.306907,143.068889 488.570967,144.378059 507.126683,146.049076 C535.594863,148.61275 571.776797,151.883606 591.144975,158.045904 C614.923508,165.611427 629.72506,178.376148 638.240452,191.27418 C644.521864,200.788465 647.387148,210.388043 647.910456,218.07567 C648.23673,222.868785 647.649131,226.931094 646.431919,229.810325 C645.761576,231.395975 644.895748,232.635966 643.895178,233.483543 C642.828234,234.387347 641.604522,234.862574 640.267464,234.862574 Z" id="Combined-Shape" stroke="#000000" stroke-width="2" fill="#99CAF4"></path>
                        <ellipse id="Oval" fill="#000000" cx="219" cy="105.5" rx="9" ry="10.5"></ellipse>
                        <ellipse id="Oval" fill="#000000" cx="408" cy="101.5" rx="9" ry="10.5"></ellipse>
                        <ellipse id="Oval" fill="#FFFFFF" cx="412.5" cy="98" rx="3.5" ry="4"></ellipse>
                        <ellipse id="Oval" fill="#FFFFFF" cx="222.5" cy="102" rx="3.5" ry="4"></ellipse>
                    </g>
                    <path d="M287.3946,147 C320.370911,147 316.8946,147 316.8946,147" id="Path-2" stroke="#000000" stroke-width="4" stroke-linecap="round" transform="translate(302.197300, 147.000000) scale(-1, 1) translate(-302.197300, -147.000000) "></path>
                    <path d="M285.079183,137 C286.954661,141.653965 287.8924,145.153965 287.8924,147.5 C287.8924,149.846035 286.2616,152.678347 283,155.996936" id="Line-3" stroke="#000000" stroke-width="3" stroke-linecap="round"></path>
                    <path d="M215.380261,79 C218.767781,81.5024281 220.292324,84.6345121 219.953889,88.3962519 C219.615454,92.1579917 216.964158,94.6925744 212,96" id="Line-3" stroke="#000000" stroke-width="3" stroke-linecap="round" transform="translate(216.000000, 87.500000) rotate(60.000000) translate(-216.000000, -87.500000) "></path>
                    <path d="M410.380261,74 C413.767781,76.5024281 415.292324,79.6345121 414.953889,83.3962519 C414.615454,87.1579917 411.964158,89.6925744 407,91" id="Line-3" stroke="#000000" stroke-width="3" stroke-linecap="round" transform="translate(411.000000, 82.500000) scale(1, -1) rotate(60.000000) translate(-411.000000, -82.500000) "></path>
                </g>
            </g>
            <path d="M675.406221,504.484353 C662.928123,517.068903 445.775665,516.624229 24.890679,504.057021 C4.74289445,473.66573 -2.5208164,449.221092 3.58419594,430.729824 C9.15189055,413.86602 18.6034211,400.923965 31.9944417,390.561089 C49.2583745,377.201093 98.8734468,363.266959 180.717937,348.577481 C222.740313,373.501387 273.587503,385.985644 333.27313,385.985644 C392.937904,385.985644 448.88916,375.011784 501.137273,353.072476 C558.275217,362.823736 589.567196,368.058766 595.012978,368.779284 C638.343706,374.512263 653.461365,385.738018 667.164644,398.137568 C682.98858,412.456015 690.326739,431.431542 691.732721,449.812849 C693.424104,471.925385 686.561718,493.233687 675.406221,504.484353 Z" id="Rectangle" stroke="#000000" stroke-width="3" fill="#FFFFFF"></path>
            <rect id="Rectangle" stroke="#000000" stroke-width="3" fill="#D8D8D8" x="392.5" y="416.5" width="62" height="13"></rect>
            <line x1="333.5" y1="386.384848" x2="333.5" y2="512.615152" id="Line-4" stroke="#000000" stroke-width="3" stroke-linecap="square"></line>
            <line x1="385.5" y1="383.38961" x2="333.5" y2="442.61039" id="Line-4" stroke="#000000" stroke-width="3" stroke-linecap="square"></line>
            <path d="M465.697858,383 C421.232619,397.39021 399,409.651762 399,419.784657 C399,429.917552 427.86645,426.990557 485.59935,411.003673" id="Path-4" stroke="#000000" stroke-width="3" fill="#99CAF4" stroke-linecap="round"></path>
            <path d="M247.697858,383 C203.232619,397.39021 181,409.651762 181,419.784657 C181,429.917552 209.86645,426.990557 267.59935,411.003673" id="Path-4" stroke="#000000" stroke-width="3" fill="#99CAF4" stroke-linecap="round" transform="translate(224.299675, 404.340541) scale(-1, 1) translate(-224.299675, -404.340541) "></path>
            <line x1="282.5" y1="383.38961" x2="333.5" y2="442.61039" id="Line-4" stroke="#000000" stroke-width="3" stroke-linecap="square"></line>
        </g>
    </g>
</svg>