<?xml version="1.0" encoding="UTF-8"?>
<svg width="658px" height="414px" viewBox="0 0 658 414" version="1.1" xmlns="http://www.w3.org/2000/svg" xmlns:xlink="http://www.w3.org/1999/xlink">
    <!-- Generator: Sketch 62 (91390) - https://sketch.com -->
    <title>Group 5</title>
    <desc>Created with Sketch.</desc>
    <defs>
        <filter x="-2.2%" y="-3.5%" width="104.3%" height="107.0%" filterUnits="objectBoundingBox" id="filter-1">
            <feOffset dx="0" dy="2" in="SourceAlpha" result="shadowOffsetOuter1"></feOffset>
            <feGaussianBlur stdDeviation="2" in="shadowOffsetOuter1" result="shadowBlurOuter1"></feGaussianBlur>
            <feColorMatrix values="0 0 0 0 0   0 0 0 0 0   0 0 0 0 0  0 0 0 0.5 0" type="matrix" in="shadowBlurOuter1" result="shadowMatrixOuter1"></feColorMatrix>
            <feMerge>
                <feMergeNode in="shadowMatrixOuter1"></feMergeNode>
                <feMergeNode in="SourceGraphic"></feMergeNode>
            </feMerge>
        </filter>
    </defs>
    <g id="Page-1" stroke="none" stroke-width="1" fill="none" fill-rule="evenodd">
        <g id="Group-5" filter="url(#filter-1)" transform="translate(6.000000, 4.000000)">
            <path d="M639.267464,233.862574 L416.86499,233.861315 C416.894241,242.364473 416.886441,251.309446 416.87836,260.573225 C416.874511,264.98538 416.870599,269.469871 416.870599,274.013282 L416.870836,275.995617 C416.871738,279.862203 416.875072,283.684286 416.87836,287.453577 C416.922938,338.554532 416.865894,379.958516 410.784502,391.303151 C409.496873,394.801051 407.637547,397.844466 404.564786,399.912411 C401.986025,401.647897 398.537969,402.708774 393.789972,402.708776 C390.961353,402.708778 388.480054,402.799921 386.297978,402.879929 C381.187946,403.067292 377.660444,403.14375 375.124971,402.027001 C372.858726,401.028833 371.280416,399.146961 370.154052,395.50222 C368.718933,390.858399 369.476549,386.341869 371.931855,382.384812 C374.422482,378.37083 378.685313,374.929099 384.192031,372.568554 C384.979925,372.23081 385.947587,371.773742 387.010692,371.271946 C388.927902,370.367004 391.147927,369.320899 393.198231,368.541878 C388.69818,346.550619 385.803489,312.382945 385.803489,274.013401 C385.803489,259.931532 386.19308,246.415945 386.908743,233.861308 L252.581458,233.861116 C253.135371,249.884452 253.233332,268.773455 253.233332,288.998509 C253.233332,311.670187 254.773239,333.074739 256.042469,350.724817 C256.883594,362.421613 257.605623,372.474898 257.687261,380.164831 C258.078921,382.290451 257.95178,384.744782 257.80559,387.325321 C257.748603,388.331251 257.690324,389.357015 257.665029,390.389378 C257.612887,392.517514 257.198819,394.197007 256.491639,395.532984 C255.70872,397.012045 254.566403,398.088104 253.100914,398.870558 C249.823889,400.620229 244.801848,400.824198 238.631889,401.008828 C238.330969,401.017833 238.027277,401.02692 237.720892,401.036294 C237.416582,401.045604 237.11276,401.0551 236.809631,401.064574 C230.442139,401.263587 224.385106,401.409122 220.414012,399.770907 C218.706469,399.066485 217.361996,398.043761 216.468996,396.616771 C215.656719,395.318773 215.210128,393.673409 215.261505,391.57651 C215.38304,386.616202 217.866733,382.038621 221.823292,378.664936 C225.410045,375.606579 230.205669,373.542498 235.491827,373.096632 C228.497521,353.03341 222.215743,322.383207 222.215743,288.998509 C222.215743,268.777311 223.20577,249.889946 224.920672,233.861123 L14.4750483,233.862574 C10.6725555,233.862574 7.30494437,232.413429 4.68270062,229.877362 C2.08106209,227.361224 0.212048481,223.761834 -0.579418407,219.434113 C-1.92428052,212.080441 -0.157590832,202.584564 6.44033791,192.887252 C15.458194,179.633249 33.5567865,165.946787 65.1398663,157.036403 C96.638138,148.149946 120.721947,145.77216 136.047771,144.259998 C141.688197,143.703471 146.12873,143.269605 149.298976,142.662837 C146.989112,139.797867 144.530616,137.002463 141.887087,134.386971 C129.297729,121.931132 119.038716,109.059919 112.623616,98.3234329 C109.315275,92.786503 107.026011,87.806907 105.943117,83.7315943 C104.812175,79.4754629 105.02702,76.1787884 106.518184,74.0869786 C107.290904,73.0030039 108.367817,72.2566181 109.726511,71.8459588 C111.003837,71.4598925 112.545319,71.3755021 114.319123,71.6021284 C117.714749,72.0359632 122.018324,73.6197477 126.937884,76.2289935 C136.133333,81.1060937 147.543027,89.5776222 159.23127,100.581142 C167.617876,68.3495496 186.34657,43.9424914 210.997407,27.135994 C238.651228,8.28211674 273.771058,-1 310.099012,-1 C345.327085,-1 375.779255,8.8386136 400.552237,27.3178073 C425.29443,45.7740339 444.377796,72.8592599 456.867557,107.419929 C457.839689,106.543382 458.807916,105.631851 459.767465,104.682731 C471.264526,93.3106307 482.589385,84.3006722 491.600048,78.91984 C496.279408,76.1255008 500.351401,74.3057607 503.51892,73.6061465 C505.187991,73.2374965 506.624641,73.1768249 507.793786,73.4114453 C509.100204,73.6736131 510.100789,74.2936079 510.785103,75.2536333 C512.007455,76.9684756 512.096085,79.8097004 510.891193,83.5896862 C509.765809,87.120237 507.552018,91.4958035 504.427619,96.4079247 C498.373534,105.926044 488.886727,117.498005 477.396501,128.863344 C473.737337,132.482736 470.428371,136.426412 467.379627,140.376521 C472.306907,142.068889 487.570967,143.378059 506.126683,145.049076 C534.594863,147.61275 570.776797,150.883606 590.144975,157.045904 C613.923508,164.611427 628.72506,177.376148 637.240452,190.27418 C643.521864,199.788465 646.387148,209.388043 646.910456,217.07567 C647.23673,221.868785 646.649131,225.931094 645.431919,228.810325 C644.761576,230.395975 643.895748,231.635966 642.895178,232.483543 C641.828234,233.387347 640.604522,233.862574 639.267464,233.862574 Z" id="Combined-Shape" stroke="#000000" stroke-width="2" fill="#99CAF4"></path>
            <path d="M309.453798,141.790897 C294.865054,142.430933 281.972055,138.525123 272.306765,132.768506 C266.63548,129.390706 262.077578,125.377928 258.955652,121.273811 C255.855583,117.198428 254.165925,113.042562 254.306136,109.360943 C254.429059,106.133264 256.067539,103.009224 258.858574,100.091826 C261.889557,96.9236178 266.272107,94.0096663 271.660715,91.48693 C282.392469,86.4627409 297.087488,83.0108995 313.197169,82.304137 C329.292356,81.5980104 343.759962,83.7641366 354.135468,87.8584307 C359.318072,89.9035457 363.470208,92.4231528 366.253284,95.31858 C368.800275,97.9683906 370.184702,100.929093 370.06323,104.118665 C369.782055,111.501692 361.412579,121.369038 348.998146,129.159347 C338.196877,135.937364 324.245494,141.141957 309.453798,141.790897 Z" id="Oval" stroke="#000000" stroke-width="2" fill="#000000" transform="translate(312.184401, 112.015881) rotate(-15.000000) translate(-312.184401, -112.015881) "></path>
            <path d="M308.565264,131.366497 C294.881923,131.966811 282.770101,128.795439 273.678728,124.073467 C268.358196,121.310034 264.075815,118.018756 261.137489,114.642877 C258.262342,111.339586 256.665202,107.968767 256.779603,104.964839 C256.879652,102.337798 258.394909,99.8013449 260.949079,97.4198222 C263.774161,94.7856991 267.866,92.3574829 272.901394,90.2457872 C282.946834,86.0330267 296.716108,83.103847 311.824286,82.4410224 C326.920794,81.7787097 340.501721,83.5033811 350.252164,86.844873 C355.113542,88.5108746 359.012087,90.5711719 361.630233,92.951792 C363.9717,95.0808342 365.27544,97.4598372 365.176969,100.045446 C364.945218,106.130725 357.124538,114.256462 345.604017,120.716845 C335.501055,126.382301 322.43627,130.757949 308.565264,131.366497 Z" id="Oval" stroke="#000000" stroke-width="2" fill="#FFFFFF" transform="translate(310.978086, 106.870284) rotate(-15.000000) translate(-310.978086, -106.870284) "></path>
            <ellipse id="Oval" fill="#000000" cx="218" cy="104.5" rx="9" ry="10.5"></ellipse>
            <ellipse id="Oval" fill="#000000" cx="407" cy="100.5" rx="9" ry="10.5"></ellipse>
            <ellipse id="Oval" fill="#FFFFFF" cx="411.5" cy="97" rx="3.5" ry="4"></ellipse>
            <ellipse id="Oval" fill="#FFFFFF" cx="221.5" cy="101" rx="3.5" ry="4"></ellipse>
        </g>
    </g>
</svg>