<?xml version="1.0" encoding="UTF-8"?>
<svg width="666px" height="645px" viewBox="0 0 666 645" version="1.1" xmlns="http://www.w3.org/2000/svg" xmlns:xlink="http://www.w3.org/1999/xlink">
    <!-- Generator: Sketch 62 (91390) - https://sketch.com -->
    <title>Group 3</title>
    <desc>Created with Sketch.</desc>
    <defs>
        <linearGradient x1="50%" y1="0%" x2="50%" y2="99.5671453%" id="linearGradient-1">
            <stop stop-color="#DDBEFF" offset="0%"></stop>
            <stop stop-color="#876BA9" offset="100%"></stop>
        </linearGradient>
        <linearGradient x1="50%" y1="0%" x2="50%" y2="100%" id="linearGradient-2">
            <stop stop-color="#FFFCCA" offset="0%"></stop>
            <stop stop-color="#EDC792" offset="100%"></stop>
        </linearGradient>
        <polygon id="path-3" points="201 205.02002 122.824561 240.59926 132.504891 155.25541 74.5094833 91.9007397 158.667695 74.7345803 201 0 243.332305 74.7345803 327.490517 91.9007397 269.495109 155.25541 279.175439 240.59926"></polygon>
        <filter x="-3.9%" y="-4.9%" width="107.9%" height="103.2%" filterUnits="objectBoundingBox" id="filter-4">
            <feOffset dx="0" dy="4" in="SourceAlpha" result="shadowOffsetOuter1"></feOffset>
            <feGaussianBlur stdDeviation="5" in="shadowOffsetOuter1" result="shadowBlurOuter1"></feGaussianBlur>
            <feColorMatrix values="0 0 0 0 0   0 0 0 0 0   0 0 0 0 0  0 0 0 0.5 0" type="matrix" in="shadowBlurOuter1"></feColorMatrix>
        </filter>
        <linearGradient x1="50%" y1="0%" x2="50%" y2="100%" id="linearGradient-5">
            <stop stop-color="#E6FFE4" offset="0%"></stop>
            <stop stop-color="#83DCC6" offset="100%"></stop>
        </linearGradient>
        <polygon id="path-6" points="504 596.944824 455.213824 619.148411 461.254932 565.888714 425.062309 526.351589 477.582095 515.638873 504 469 530.417905 515.638873 582.937691 526.351589 546.745068 565.888714 552.786176 619.148411"></polygon>
        <filter x="-7.8%" y="-7.8%" width="115.6%" height="110.9%" filterUnits="objectBoundingBox" id="filter-7">
            <feOffset dx="0" dy="4" in="SourceAlpha" result="shadowOffsetOuter1"></feOffset>
            <feGaussianBlur stdDeviation="5" in="shadowOffsetOuter1" result="shadowBlurOuter1"></feGaussianBlur>
            <feColorMatrix values="0 0 0 0 0   0 0 0 0 0   0 0 0 0 0  0 0 0 0.5 0" type="matrix" in="shadowBlurOuter1"></feColorMatrix>
        </filter>
        <filter x="-4.7%" y="-7.5%" width="109.4%" height="115.0%" filterUnits="objectBoundingBox" id="filter-8">
            <feOffset dx="0" dy="7" in="SourceAlpha" result="shadowOffsetOuter1"></feOffset>
            <feGaussianBlur stdDeviation="4" in="shadowOffsetOuter1" result="shadowBlurOuter1"></feGaussianBlur>
            <feColorMatrix values="0 0 0 0 0   0 0 0 0 0   0 0 0 0 0  0 0 0 0.5 0" type="matrix" in="shadowBlurOuter1" result="shadowMatrixOuter1"></feColorMatrix>
            <feMerge>
                <feMergeNode in="shadowMatrixOuter1"></feMergeNode>
                <feMergeNode in="SourceGraphic"></feMergeNode>
            </feMerge>
        </filter>
    </defs>
    <g id="Page-1" stroke="none" stroke-width="1" fill="none" fill-rule="evenodd">
        <g id="Group-3" transform="translate(9.000000, 5.000000)">
            <polygon id="Star" fill="url(#linearGradient-1)" points="324.5 469.016357 157.862881 544.856318 178.497268 362.939163 54.8754776 227.893682 234.265349 191.302658 324.5 32 414.734651 191.302658 594.124522 227.893682 470.502732 362.939163 491.137119 544.856318"></polygon>
            <g id="Star">
                <use fill="black" fill-opacity="1" filter="url(#filter-4)" xlink:href="#path-3"></use>
                <use fill="url(#linearGradient-2)" fill-rule="evenodd" xlink:href="#path-3"></use>
            </g>
            <g id="Star">
                <use fill="black" fill-opacity="1" filter="url(#filter-7)" xlink:href="#path-6"></use>
                <use fill="url(#linearGradient-5)" fill-rule="evenodd" xlink:href="#path-6"></use>
            </g>
            <g id="Group" filter="url(#filter-8)" transform="translate(0.000000, 216.000000)">
                <g id="charsquigg_popup">
                    <path d="M640.267464,234.862574 L417.86499,234.861315 C416,243.297758 399.870599,274.469871 399.870599,279.013282 L399.870836,280.995617 C399.871738,284.862203 399.875072,288.684286 399.87836,292.453577 C399.922938,343.554532 399.865894,384.958516 393.784502,396.303151 C392.496873,399.801051 390.637547,402.844466 387.564786,404.912411 C384.986025,406.647897 381.537969,407.708774 376.789972,407.708776 C373.961353,407.708778 371.480054,407.799921 369.297978,407.879929 C364.187946,408.067292 360.660444,408.14375 358.124971,407.027001 C355.858726,406.028833 354.280416,404.146961 353.154052,400.50222 C351.718933,395.858399 352.476549,391.341869 354.931855,387.384812 C357.422482,383.37083 361.685313,379.929099 367.192031,377.568554 C367.979925,377.23081 368.947587,376.773742 370.010692,376.271946 C371.927902,375.367004 374.147927,374.320899 376.198231,373.541878 C371.69818,351.550619 368.803489,317.382945 368.803489,279.013401 C368.803489,264.931532 380.19308,247.415945 380.908743,234.861308 L253.581458,234.861116 C249.446007,249.927181 236.233332,273.773455 236.233332,293.998509 C236.233332,316.670187 237.773239,338.074739 239.042469,355.724817 C239.883594,367.421613 240.605623,377.474898 240.687261,385.164831 C241.078921,387.290451 240.95178,389.744782 240.80559,392.325321 C240.748603,393.331251 240.690324,394.357015 240.665029,395.389378 C240.612887,397.517514 240.198819,399.197007 239.491639,400.532984 C238.70872,402.012045 237.566403,403.088104 236.100914,403.870558 C232.823889,405.620229 227.801848,405.824198 221.631889,406.008828 C221.330969,406.017833 221.027277,406.02692 220.720892,406.036294 C220.416582,406.045604 220.11276,406.0551 219.809631,406.064574 C213.442139,406.263587 207.385106,406.409122 203.414012,404.770907 C201.706469,404.066485 200.361996,403.043761 199.468996,401.616771 C198.656719,400.318773 198.210128,398.673409 198.261505,396.57651 C198.38304,391.616202 200.866733,387.038621 204.823292,383.664936 C208.410045,380.606579 213.205669,378.542498 218.491827,378.096632 C211.497521,358.03341 205.215743,327.383207 205.215743,293.998509 C205.215743,273.777311 224.20577,250.889946 225.920672,234.861123 L15.4750483,234.862574 C11.6725555,234.862574 8.30494437,233.413429 5.68270062,230.877362 C3.08106209,228.361224 1.21204848,224.761834 0.420581593,220.434113 C-0.92428052,213.080441 0.842409168,203.584564 7.44033791,193.887252 C16.458194,180.633249 34.5567865,166.946787 66.1398663,158.036403 C97.638138,149.149946 121.721947,146.77216 137.047771,145.259998 C142.688197,144.703471 147.12873,144.269605 150.298976,143.662837 C147.989112,140.797867 145.530616,138.002463 142.887087,135.386971 C130.297729,122.931132 120.038716,110.059919 113.623616,99.3234329 C110.315275,93.786503 108.026011,88.806907 106.943117,84.7315943 C105.812175,80.4754629 106.02702,77.1787884 107.518184,75.0869786 C108.290904,74.0030039 109.367817,73.2566181 110.726511,72.8459588 C112.003837,72.4598925 113.545319,72.3755021 115.319123,72.6021284 C118.714749,73.0359632 123.018324,74.6197477 127.937884,77.2289935 C137.133333,82.1060937 148.543027,90.5776222 160.23127,101.581142 C168.617876,69.3495496 187.34657,44.9424914 211.997407,28.135994 C239.651228,9.28211674 274.771058,0 311.099012,0 C346.327085,0 376.779255,9.8386136 401.552237,28.3178073 C426.29443,46.7740339 447.990896,70.3105618 460.480657,104.871231 C461.452789,103.994684 469.342945,136.568178 468.379627,141.376521 C473.306907,143.068889 488.570967,144.378059 507.126683,146.049076 C535.594863,148.61275 571.776797,151.883606 591.144975,158.045904 C614.923508,165.611427 629.72506,178.376148 638.240452,191.27418 C644.521864,200.788465 647.387148,210.388043 647.910456,218.07567 C648.23673,222.868785 647.649131,226.931094 646.431919,229.810325 C645.761576,231.395975 644.895748,232.635966 643.895178,233.483543 C642.828234,234.387347 641.604522,234.862574 640.267464,234.862574 Z" id="Combined-Shape" stroke="#000000" stroke-width="2" fill="#99CAF4" fill-rule="nonzero"></path>
                    <ellipse id="Oval" fill="#000000" fill-rule="nonzero" cx="219" cy="105.5" rx="9" ry="10.5"></ellipse>
                    <ellipse id="Oval" fill="#000000" fill-rule="nonzero" cx="408" cy="101.5" rx="9" ry="10.5"></ellipse>
                    <ellipse id="Oval" fill="#FFFFFF" fill-rule="nonzero" cx="412.5" cy="98" rx="3.5" ry="4"></ellipse>
                    <ellipse id="Oval" fill="#FFFFFF" fill-rule="nonzero" cx="222.5" cy="102" rx="3.5" ry="4"></ellipse>
                    <path d="" id="Path-3" stroke="#979797"></path>
                </g>
                <g id="Group-2" transform="translate(170.000000, 70.000000)">
                    <path d="M46.0345339,59 C71.4608516,59 88,34.1179433 88,8.59110114 C88,5.5577232 87.9342641,0 84.4366177,0 C51.9407824,0 28.1139424,0 3.3017232,0 C0.193536947,0 0,5.61866253 0,8.59110114 C0,34.1179433 20.6082162,59 46.0345339,59 Z" id="Oval" fill="#000000"></path>
                    <path d="M87.6091362,3.99935939 C87.9546774,5.54027251 87.9951957,7.31330298 87.9995169,8.68089631 L88,9.03714107 C88,10.5513128 87.9403426,12.0631872 87.8226856,13.5675771 L25.1842328,52.9998412 C22.6444259,51.5104259 20.2407478,49.7697317 18.0003592,47.8189397 Z" id="Combined-Shape" fill="#363434"></path>
                </g>
                <g id="Group-2" transform="translate(353.000000, 70.000000)">
                    <path d="M46.0345339,59 C71.4608516,59 88,34.1179433 88,8.59110114 C88,5.5577232 87.9342641,0 84.4366177,0 C51.9407824,0 28.1139424,0 3.3017232,0 C0.193536947,0 0,5.61866253 0,8.59110114 C0,34.1179433 20.6082162,59 46.0345339,59 Z" id="Oval" fill="#000000"></path>
                    <path d="M87.6091362,3.99935939 C87.9546774,5.54027251 87.9951957,7.31330298 87.9995169,8.68089631 L88,9.03714107 C88,10.5513128 87.9403426,12.0631872 87.8226856,13.5675771 L25.1842328,52.9998412 C22.6444259,51.5104259 20.2407478,49.7697317 18.0003592,47.8189397 Z" id="Combined-Shape" fill="#363434"></path>
                </g>
                <path d="M276.805705,122.999841 C342.349169,122.999841 334.113728,116 334.113728,116" id="Path-2" stroke="#000000" stroke-width="5" stroke-linecap="round"></path>
                <path d="M434.378078,134.156395 C389.912839,148.546605 367.68022,160.808157 367.68022,170.941052 C367.68022,181.073947 396.54667,178.146952 454.27957,162.160068" id="Path-4" stroke="#000000" stroke-width="3" stroke-linecap="round"></path>
            </g>
        </g>
    </g>
</svg>