<?xml version="1.0" encoding="UTF-8"?>
<svg width="260px" height="449px" viewBox="0 0 260 449" version="1.1" xmlns="http://www.w3.org/2000/svg" xmlns:xlink="http://www.w3.org/1999/xlink">
    <!-- Generator: Sketch 62 (91390) - https://sketch.com -->
    <title>Group 2</title>
    <desc>Created with Sketch.</desc>
    <g id="Page-1" stroke="none" stroke-width="1" fill="none" fill-rule="evenodd">
        <g id="characters">
            <g id="Group-2">
                <g id="Group" fill-rule="nonzero">
                    <path d="M137,51.1 C143.1,49 147.1,43.5 151.3,38.6 C162.5,25.9 177.3,16.3 193.5,11.4 C196.4,10.5 199.6,9.8 202.5,10.5 C205.4,11.2 208.1,14 207.8,17 C197.3,15.6 186.3,19 178.4,26.1 C170.5,33.2 166.1,43.9 166.5,54.4 C166.6,55.9 166.7,57.4 167.5,58.6 C170.2,62.9 176.9,60.5 181,57.3 C197.8,44.1 210.9,26.2 229.6,15.7 C237.9,11.1 248.2,8.1 256.7,12.5 C232,27.2 208.4,43.7 186.2,62 C182.2,65.3 178.1,71.2 181.8,74.8 C184.1,77.1 188,76.3 191.1,75 C198.4,71.8 204.7,66.5 212.1,63.5 C219.5,60.5 229.2,60.5 234.3,66.6 C219.7,66.3 205.1,73.8 196.8,85.9 C194.9,88.6 193.4,91.6 192.7,94.8 C191.9,98.7 192.4,102.8 192.6,106.7 C194.5,141.2 173.2,174.4 177.1,208.7 C178.3,219.1 176.6,263.1 177.3,273.8 C178.1,287.4 177.2,329.5 173.9,343.7 C171.4,354.6 175,361.2 175,361.2 C175.1,366.6 176.8,371.9 176.3,377.3 C176.3,377.6 176.2,378 176,378.2 C175.7,378.6 175,378.6 174.5,378.3 C174,378 173.8,377.5 173.5,377 C171.5,373 168.6,368.4 168.8,363.9 C165,368.5 168.7,381.8 165.3,385.2 C165.2,385.3 162.5,383.9 161.2,377.5 C160.6,374.6 161.5,371.5 162.5,368.7 C163.2,366.9 164.1,365.1 164,363.2 C159.2,368.2 157.2,375.3 152.9,380.8 C152.2,381.8 150.9,382.7 149.9,382 C149.1,381.5 149.9,375 149.9,375 C151.6,369.9 155,365.5 158.3,361.3 C154.7,360 149.3,363.6 147.8,367.1 C146.3,370.6 143.6,372.4 143.6,372.4 C141.7,372.1 141.4,369.8 142.1,368 C145.6,360 156.1,353.9 160.2,346.1 C172,323.7 162.6,309.3 169.9,285.1 C160.7,305.7 147.8,324.7 131.9,340.8 C129.4,343.3 126.8,345.9 125.8,349.3 C125.1,351.9 125.5,354.7 125.8,357.4 C128.4,378.1 127.4,399.2 123,419.6 C127.2,421 150.2,425.7 149.8,432.1 C149.4,438.4 146.5,444.2 140.4,445.8 C135.3,447.1 123,445.7 118,444.2 C115.5,443.5 112.9,442.6 111.2,440.6 C108.7,437.5 109.4,432.9 110.2,429 C115.8,401.8 118.1,373.9 117,346.1 C103.5,353.4 85.4,351.3 74,340.9 L73,340.1 C70.9,364.6 68.9,384.2 66.8,408.7 C66.5,412 66.1,411.2 66,414.5 C65.7,422.1 86.2,422.3 90,425.7 C92.6,428 92.1,437.4 90,440.1 C87.9,442.8 74.8,443.3 71.4,443.7 C62.9,444.6 56.1,443.3 51.3,439.6 C48.2,437.2 47.2,437.9 47.1,433.9 C46.6,419.6 54.2,410.4 57.7,396.5 C60.4,385.6 60.5,374.3 60.2,363.1 C59.9,351.8 62.2,340.3 57.8,329.9 C53.9,320.6 47.3,312.7 42.6,303.7 C34.2,287.6 32.5,268.2 37.9,250.9 L35.4,249 C28,261 27.1,274.1 25.1,288.1 C23.1,302.1 21.5,317.3 34,323.9 C37.8,325.9 44.4,332.7 40.3,333 C36.6,333.3 33.4,333.3 30.9,330.6 C28,331.1 27.4,335.2 28.7,337.8 C30,340.4 32.4,342.5 33.2,345.3 C34.1,348.1 31.9,352 29.1,351.1 C27.7,350.6 26.9,349.1 26.2,347.7 C24.7,344.5 23.2,341.2 21.8,338 C17.8,339.2 19,345 20.4,349 C21.8,353 21.4,363.9 18.8,360.7 C14.3,355.2 14.3,347.3 13.3,340.3 C9.8,346.8 8.8,357.2 2.7,359.9 C-3.1,362.4 2.9,347.9 4.3,341.9 C5.7,336.1 10.5,324.1 11,318.2 C13.2,290.7 17.5,270.3 26.5,244.2 C45.8,188.3 65,132.4 84.3,76.5 C88.3,65 92.3,53.3 99.1,43.2 C108.9,28.5 124.3,17.8 141.3,12.9 C150.4,10.2 162,-3.1 168.2,4.1 C177.6,14.9 140.9,26.1 131.7,37.1 C128.2,41.3 122.7,49.6 127.7,51.8 C129.9,53.1 137,51.1 137,51.1 Z" id="Path" fill="#FFB1A8"></path>
                    <path d="M137.5,52.8 C144,50.4 148.2,45 152.7,39.9 C157.4,34.6 162.7,29.8 168.6,25.7 C174.4,21.6 180.7,18.2 187.4,15.6 C190.8,14.3 194.3,12.9 197.9,12.3 C201.3,11.8 206.3,12.7 206.1,17.1 C206.7,16.5 207.4,15.8 208,15.2 C196.3,13.8 184,17.9 175.8,26.4 C171.7,30.6 168.7,35.7 166.8,41.3 C165.9,44 165.3,46.8 165,49.7 C164.7,52.6 164.5,56 165.6,58.7 C167.4,63.3 172.6,63.7 176.7,62.2 C181.9,60.3 186.1,56.1 190.1,52.5 C199.3,44.2 207.7,34.9 217.2,27 C227.1,18.8 242.7,7.8 256,14.3 C256,13.3 256,12.2 256,11.2 C235.6,23.3 216.1,36.7 197.3,51.3 C192.7,54.8 187.8,58.3 183.7,62.3 C180.9,65 177.9,69.3 179,73.4 C180.2,77.8 184.8,78.8 188.7,78 C193.8,76.9 198.5,73.5 203,70.8 C211.4,65.6 225,58.8 233.2,68.2 C233.6,67.2 234.1,66.1 234.5,65.1 C221.3,64.9 208.2,70.6 199.3,80.4 C194.5,85.8 190.8,92.1 190.7,99.5 C190.6,103.3 191.1,107.1 191.2,110.8 C191.2,114.5 191,118.3 190.6,122 C187.3,151.5 172.6,179.1 175.6,209.3 C176.4,217.4 176,225.6 176,233.7 C175.9,243.9 175.7,254.1 175.7,264.3 C175.7,271.4 176.1,278.6 176.1,285.7 C176.1,296.7 175.9,307.8 175.2,318.8 C174.9,324 174.5,329.3 174,334.5 C173.5,339 172.4,343.5 171.9,348 C171.4,352.9 172.1,357.2 173.6,361.8 C174.2,363.5 174,365.9 174.4,368.1 C174.7,370.1 175,372.1 175.1,374.1 C175.1,374.9 174.8,376.3 175.1,376.9 C175.2,376.9 175.3,377 175.4,377 C175.8,377.2 175.9,377.1 175.5,376.6 C175.4,376.2 175,375.7 174.8,375.3 C173,371.8 170.9,368.3 171,364.3 C171,362.5 168.9,362.3 167.9,363.5 C163.6,369.1 167.4,377.1 165.3,383.2 C165.3,383.3 165,383.9 165,384 C164.9,384.1 164.9,384.2 164.8,384.3 C165.3,383.9 165.8,383.9 166.3,384.1 C166.3,384.1 166.1,384 165.9,383.7 C164.8,382.4 164.1,380.7 163.6,379 C162.8,376.2 163.2,373.7 164,371 C164.8,368.5 166,366.3 166.1,363.7 C166.1,362.3 164.3,361.5 163.4,362.6 C160.7,365.5 158.8,369 156.9,372.5 C155.9,374.3 155,376.1 153.9,377.9 C153.4,378.7 152.7,379.5 152.2,380.3 C151.8,381.1 151.7,382.2 151.7,380.8 C151.6,378.9 151.7,376.7 152.4,374.9 C154.2,370.5 157.1,366.7 160,362.9 C160.7,362 160.5,360.6 159.3,360.3 C155.7,359.2 151.9,361.2 149.3,363.7 C146.9,366 146.2,369.6 143.4,371.6 C143.8,371.5 144.2,371.5 144.6,371.4 C142.1,370.7 146.7,364.9 147.5,364 C149.4,361.7 151.5,359.7 153.6,357.6 C158.1,353.2 161.8,348.8 164.3,342.9 C169.1,331.7 168.8,320.3 168.9,308.4 C169,300.8 169.8,293.3 172,286 C172.5,284.4 170,283.3 169.2,284.8 C161.5,302.1 151.2,318.2 138.7,332.4 C135.7,335.8 132.5,338.9 129.5,342.2 C126.5,345.4 124.5,348.9 124.6,353.3 C124.7,358.4 125.7,363.6 126,368.7 C126.3,373.8 126.4,378.8 126.4,383.9 C126.2,395.9 124.8,407.8 122.3,419.6 C122.1,420.3 122.5,421.1 123.3,421.3 C130,423.4 136.9,424.6 143.3,427.6 C145.5,428.6 149.3,430.1 149.1,433.1 C148.6,438.3 146,443.6 140.5,445 C135.9,446.1 130.7,445.4 126.1,444.8 C121.7,444.2 114.1,443.5 112.1,438.9 C110.8,435.9 111.6,432.4 112.2,429.4 C112.9,425.7 113.6,422.1 114.3,418.4 C115.5,411.2 116.6,404 117.3,396.8 C119.1,380.1 119.7,363.4 119.1,346.6 C119.1,345.5 117.9,344.8 116.9,345.3 C109.9,349 101.6,350.2 93.8,348.9 C90,348.2 86.3,347 82.8,345.2 C79.8,343.6 77.3,341.5 74.7,339.4 C73.6,338.5 72.1,339.1 72,340.5 C70.8,354.7 69.4,368.9 68.1,383.1 C67.4,390.2 66.8,397.3 66.1,404.4 C65.9,407.1 65.6,409.8 65.1,412.5 C64.8,414.3 64.7,416.2 65.5,417.9 C67,420.7 70.5,422.1 73.4,423 C77.1,424.2 80.9,424.9 84.7,425.8 C86.1,426.2 87.6,426.5 88.9,427.2 C90.1,427.9 90.4,429.5 90.5,430.9 C90.8,433.9 91,439 87.7,440.2 C83.7,441.6 79.3,441.7 75.1,442 C70,442.4 65,442.9 60,441.7 C57.5,441.1 55.2,440 53.1,438.4 C51.7,437.3 50.1,436.9 49.9,435 C49.3,428.9 51.1,422.6 53.2,417 C55.3,411.3 57.9,405.9 59.6,400 C61.6,393.1 62.5,385.8 62.8,378.7 C63.1,371.5 62.7,364.3 62.9,357.1 C63.1,350.3 63.6,343.4 62.3,336.7 C59.8,323.2 49.4,312.9 43.6,300.9 C37.7,288.7 35.5,274.5 37.6,261.2 C38.1,258 38.9,254.8 39.8,251.6 C40,251 39.7,250.5 39.2,250.1 C38.4,249.5 37.5,248.9 36.7,248.2 C36.1,247.8 35.2,248.1 34.9,248.7 C29.1,258.4 27,269.4 25.5,280.4 C24.2,289.8 22.1,299.6 23.5,309.1 C24.1,313 25.3,316.9 27.8,320.1 C30.4,323.4 34.1,324.9 37.2,327.6 C38.4,328.7 39.7,329.9 40.5,331.3 C41,332.2 41.3,332.2 40.3,332.1 C38.9,332 37.6,332.3 36.2,332 C35,331.8 33.9,331.3 33,330.5 C32.2,329.8 31.9,329.5 30.8,329.8 C29.3,330.2 28.2,331.7 27.8,333.1 C27.2,335.2 27.6,337.4 28.6,339.3 C29.9,341.6 32.6,343.8 32.8,346.5 C32.9,347.7 32.3,349.9 30.9,350.1 C29.4,350.4 28.6,348.3 28.1,347.3 C26.6,344.1 25.1,340.8 23.7,337.6 C23.5,337.1 22.8,336.8 22.3,337 C18.8,338.3 18.3,341.8 18.9,345.2 C19.2,347 19.9,348.7 20.3,350.6 C20.7,352.3 20.8,354 20.8,355.7 C20.8,356.5 20.8,357.2 20.7,358 C20.6,358.5 20.1,359.7 20.2,360.2 C20.3,360.5 19.6,360.3 20.4,360.4 C21.1,360.4 20.1,359.5 19.9,359.3 C19.1,358.1 18.4,356.8 17.9,355.4 C16.2,350.6 16,345.3 15.3,340.3 C15.2,339.2 13.5,339.1 13,340 C11.2,343.4 10.2,347.1 8.8,350.7 C7.8,353.3 6,358.5 2.8,359.2 C2,359.4 2.2,359.2 2.2,358.2 C2.2,356.7 2.6,355.3 3,353.9 C3.8,350.9 4.8,347.9 5.7,344.9 C7.7,338.2 10.1,331.5 11.9,324.7 C13,320.8 13.2,316.9 13.6,312.8 C14.1,307.8 14.7,302.7 15.4,297.7 C18.3,277.9 24,258.9 30.6,240 C38.2,218.3 45.7,196.6 53.2,175 C60.7,153.3 68.3,131.6 75.8,110 C79.6,99.2 83.3,88.3 87.1,77.5 C90.5,67.7 93.9,57.8 99.2,48.7 C108.5,32.8 123.9,21.1 141.4,15.7 C148.5,13.5 153.9,8.5 160.6,5.5 C162.9,4.5 165.8,3.7 167.7,6 C168.7,7.2 168.8,8.3 168.2,9.7 C166.2,14 160.4,16.9 156.6,19.2 C151,22.5 145.2,25.5 139.7,29 C134.5,32.3 130.3,36 127.2,41.4 C125.6,44 123.9,47.5 124.8,50.7 C125.7,53.8 128.8,54.7 131.7,54.4 C134,54.2 136.2,53.7 138.4,53 C140.8,52.3 139.8,48.5 137.4,49.2 C135.2,49.8 132.5,50.6 130.2,50.4 C126.8,50 130.3,44.4 131.2,43 C134.6,37.7 139,34.4 144.3,31.2 C150.1,27.7 156.2,24.5 162,20.8 C165.9,18.3 171,15 172.5,10.2 C174,5.3 169.7,0.3 164.7,0.3 C161.4,0.3 158.1,2 155.3,3.7 C152,5.6 148.9,7.9 145.5,9.7 C141.9,11.6 137.8,12.5 134,14.1 C129.8,15.8 125.7,17.9 121.9,20.3 C114,25.2 107,31.4 101.3,38.8 C95,47 90.8,56.4 87.3,66 C83.3,76.9 79.6,88 75.9,99 C68.2,121.4 60.6,143.8 52.9,166.2 C45.2,188.7 37.5,211.3 29.8,233.8 C23,253.6 16.9,273.4 13.7,294.1 C12.9,299.1 12.3,304.2 11.8,309.3 C11.3,313.9 11.3,318.5 10.1,323 C8.3,330 5.8,336.9 3.8,343.9 C2.9,347.1 1.8,350.3 1,353.5 C0.5,355.5 -0.5,358.6 0.6,360.6 C1.7,362.7 4.2,361.7 5.7,360.7 C8.5,358.8 10,355.6 11.2,352.6 C12.7,348.9 13.7,344.9 15.5,341.4 C14.7,341.2 14,341 13.2,340.8 C13.9,346.4 14.1,352.2 16.3,357.5 C17,359.2 20.1,365.6 22.5,362 C24.2,359.5 23.7,354.9 23.3,352.1 C22.9,349.1 19,341.4 23.2,339.8 C22.7,339.6 22.3,339.4 21.8,339.2 C22.8,341.4 23.8,343.7 24.9,345.9 C25.7,347.6 26.4,349.7 27.6,351.2 C29.5,353.6 32.7,353.6 34.5,351.1 C36.5,348.4 35.8,345.2 34.1,342.5 C33,340.8 31.5,339.3 30.8,337.4 C30.2,335.7 30.2,332.9 32.3,332.4 C31.9,332.3 31.5,332.2 31.1,332.1 C33.7,334.6 36.9,335.1 40.4,334.9 C42.3,334.8 44.3,334.3 43.9,331.9 C43.4,329.6 41.1,327.5 39.5,326.1 C37.2,324.1 34.4,323 32.2,320.9 C27,316.2 26.1,308.9 26.2,302.2 C26.4,294.2 27.8,286.2 29,278.4 C30.4,268.6 32.5,258.9 37.7,250.3 C37.1,250.5 36.5,250.6 35.9,250.8 C36.7,251.4 37.6,252 38.4,252.7 C38.2,252.2 38,251.7 37.8,251.2 C33.8,264.2 33.5,278.3 37,291.5 C38.8,298.2 41.6,304.5 45.1,310.4 C48.7,316.5 53,322.3 56.1,328.8 C59.4,335.7 59.9,343 59.7,350.5 C59.5,358 59.6,365.5 59.5,373.1 C59.4,380.9 58.9,388.7 57.1,396.3 C55.6,402.7 52.9,408.6 50.5,414.7 C48.2,420.4 46.5,426.3 46.4,432.5 C46.3,434.7 46.2,437.6 47.8,439.3 C49.1,440.7 51.2,441.9 52.8,442.9 C57.7,446.1 63.9,446.9 69.6,446.6 C74,446.4 78.4,446 82.7,445.4 C86,445 91.1,444.6 93.1,441.5 C95.3,438.1 95.4,432.6 94.4,428.7 C93.5,425.1 91.1,423.8 87.7,422.8 C83.8,421.7 79.8,421.1 76,419.9 C73.7,419.2 69.2,418.1 69,415.1 C68.9,412.8 69.7,410.3 69.9,408 C70.2,404.1 70.6,400.1 70.9,396.2 C72.2,381.5 73.6,366.9 74.8,352.2 C75.1,348.4 75.4,344.5 75.8,340.7 C74.9,341.1 74,341.5 73.1,341.8 C76,344 78.7,346.3 81.9,348 C85.8,350 90,351.4 94.3,352 C102.8,353.3 111.5,352 119.1,347.9 C118.4,347.5 117.6,347 116.9,346.6 C117.6,363.3 117.1,380.1 115.3,396.8 C114.4,405.4 113.2,413.9 111.6,422.4 C110.5,428.2 107.3,436.5 111.4,441.8 C114.5,445.9 120.9,446.7 125.7,447.4 C130.8,448.1 136.4,448.8 141.6,447.8 C147,446.7 150.5,442.3 151.9,437.2 C152.9,433.3 153,430.3 149.6,427.8 C142.5,422.6 133,421.5 124.8,418.9 C125.1,419.5 125.4,420 125.8,420.6 C130.1,400.6 131.2,380 128.9,359.7 C128.6,357.3 128.2,354.8 128.3,352.3 C128.5,349.7 129.7,347.5 131.4,345.5 C134.4,342 137.8,338.9 140.9,335.5 C147,328.7 152.6,321.4 157.6,313.8 C163.4,305.1 168.4,296 172.6,286.5 C171.7,286.1 170.8,285.7 169.8,285.3 C167.3,293.7 166.6,302.3 166.6,311 C166.6,318.9 166.8,326.9 164.7,334.6 C163.5,339 161.8,343.6 159.3,347.5 C157.2,350.8 154.2,353.5 151.4,356.2 C148.4,359.2 137.2,369 142.9,373.7 C145.5,375.9 147.8,372.6 149.2,370.6 C150.5,368.7 151.1,366.8 152.9,365.3 C154.6,363.9 156.9,362.7 159.1,363.4 C158.9,362.5 158.6,361.6 158.4,360.8 C155.1,365 150.8,369.9 149.6,375.2 C149.1,377.3 148.7,380.6 149.4,382.7 C149.9,384.2 151.4,384.7 152.9,384.3 C155.1,383.6 156.5,381.1 157.6,379.3 C160.6,374.5 162.6,369.2 166.4,365 C165.5,364.6 164.6,364.2 163.7,363.9 C163.6,367.1 161.5,370.1 160.9,373.3 C160.4,376.1 160.7,378.7 161.6,381.4 C162.2,383.2 164.2,388.2 167,387.4 C170.1,386.5 169.8,380.2 169.8,377.8 C169.8,374 169,368.6 171.5,365.3 C170.5,365 169.5,364.7 168.4,364.5 C168.3,368.1 169.7,371.3 171.3,374.5 C172.4,376.6 173.7,381.1 176.8,380.8 C180.2,380.4 179.4,375 179.2,372.7 C179,370.9 178.8,369.2 178.5,367.4 C178.2,365.4 178.4,363.1 177.8,361.2 C177.6,360.3 177.1,359.6 176.8,358.6 C176.1,356 175.9,353.4 176,350.8 C176.2,346 177.6,341.2 178.2,336.4 C179.5,325.5 180,314.4 180.3,303.4 C180.6,294 180.8,284.5 180.4,275.1 C179.5,256.6 180.9,238 180.7,219.5 C180.7,216.2 180.6,212.9 180.3,209.6 C179.6,202.3 179.7,194.9 180.7,187.6 C182.8,172.5 187.7,157.9 191.3,143.1 C193.1,135.9 194.5,128.6 195.3,121.2 C195.7,117.5 195.9,113.7 195.8,110 C195.7,105.9 195.1,101.8 195.4,97.8 C196.1,90.5 201.5,83.9 206.9,79.3 C212.1,74.8 218.5,71.7 225.2,70.1 C228.6,69.3 232,69 235.4,69 C237,69 237.7,67 236.7,65.9 C231.1,59.5 221.5,59.2 213.9,61.9 C209.2,63.5 205,66.2 200.8,68.8 C198.6,70.1 196.4,71.5 194.1,72.7 C191.9,73.8 189.3,75.2 186.7,75.1 C180.2,74.7 184.8,67.4 187.2,65.1 C190.9,61.4 195.4,58.3 199.5,55.1 C208.4,48.1 217.6,41.4 227,35 C237.4,27.9 248,21.1 258.8,14.7 C259.9,14.1 260,12.2 258.8,11.6 C248.4,6.5 236.7,10.6 227.4,16.2 C217.7,22.1 209.5,29.9 201.4,37.8 C197.2,41.9 193.1,46 188.7,49.9 C185,53.3 181,57.5 176.2,59.1 C174.5,59.7 172.2,60.1 170.8,58.7 C168.8,56.6 169.7,51.7 170,49.2 C170.7,43.8 172.8,38.5 175.9,34 C183.2,23.2 196.4,17.8 209.1,19.4 C210.2,19.5 211,18.4 211,17.5 C211.3,11.6 205.3,8.4 200,8.8 C194,9.3 187.8,12 182.4,14.5 C171.3,19.5 161.1,26.8 152.9,35.8 C148.3,40.8 144.3,47.2 137.7,49.7 C134.3,50.1 135.3,53.6 137.5,52.8 Z" id="Path" fill="#000000"></path>
                </g>
                <g id="Group" transform="translate(71.000000, 240.000000)" fill="#000000" fill-rule="nonzero">
                    <path d="M19.5,5 C16.6,3 13.2,1.1 9.8,1.8 C4.3,2.9 2.5,9.8 2.3,15.4 C2.2,20 2.4,24.8 4.8,28.7 C7.1,32.7 11.1,35.3 15.1,37.5 C20.2,40.4 25.4,43 30.8,45.2 C34.7,46.8 38.8,48.3 43,48.5 C54.8,49.2 66,38.4 65.9,26.5 C65.9,25.1 65.7,23.7 64.8,22.7 C63.8,21.6 62.2,21.3 60.7,21.2 C53.3,20.4 46.9,25.2 38.4,21.9 C30.8,19.2 27.5,10.4 19.5,5 Z" id="Path"></path>
                    <path d="M20,4 C15.6,1 10.4,-1.7 5.6,2 C1.6,5 0.4,10.6 0.1,15.3 C-0.3,22.1 1,28.8 6.1,33.6 C11.1,38.4 17.9,41.4 24.1,44.4 C36.1,50 48.7,54.1 59.7,44.2 C65.9,38.6 74.5,20.6 60.8,18.8 C52.8,17.8 44.6,23.2 37,18.8 C33.8,17 31.5,14 29.1,11.3 C26.4,8.3 23.5,6.3 20,4 C19,3.3 17.8,4.9 18.7,5.7 C27.3,12.5 30.6,24.5 43.1,25.5 C45.8,25.7 48.5,25.3 51.2,24.8 C54,24.3 58.6,22.5 61.4,23.8 C64.9,25.5 63.1,31.3 62.2,33.9 C60.9,37.3 58.5,40.2 55.6,42.4 C43.2,51.9 26.8,42.2 15.3,35.4 C7.6,30.8 4.3,25.1 4.4,16.1 C4.4,13.2 4.7,10.2 5.8,7.5 C8.4,1.2 14.2,2.8 19,5.8 C20.1,6.6 21.2,4.8 20,4 Z" id="Path"></path>
                </g>
                <path d="M173.8,357 C175.1,357 175.1,355 173.8,355 C172.5,354.9 172.5,357 173.8,357 L173.8,357 Z" id="Path" fill="#000000" fill-rule="nonzero"></path>
                <path d="M77.9,271.3 C94.4,267.7 103.7,266.5 115,279.1 C117.3,281.7 119.4,284.6 120.5,288" id="Path" fill="#FFB1A8" fill-rule="nonzero"></path>
                <path d="M134.6,186.9 C141.8,187.5 150,192.4 154.2,198.3 C155.1,199.6 156.8,198.8 156.6,197.3 C155.4,188.6 142.1,183.8 134.6,184.1 C132.8,184.2 132.8,186.8 134.6,186.9 L134.6,186.9 Z" id="Path" fill="#000000" fill-rule="nonzero"></path>
                <path d="M87.7,164.2 C86,166.9 84.1,169.5 83,172.5 C82.6,173.6 84.2,174.5 85,173.6 C87.1,171.2 88.6,168.4 90.2,165.6 C91.1,164 88.7,162.7 87.7,164.2 L87.7,164.2 Z" id="Path" fill="#000000" fill-rule="nonzero"></path>
                <ellipse id="Oval_00000178169178283625557760000000040811353669057213_" fill="#000000" fill-rule="nonzero" cx="105" cy="167.4" rx="6.2" ry="8.5"></ellipse>
                <circle id="Oval_00000103977672558894237880000001204188077136237456_" fill="#FFFFFF" cx="103.7" cy="164.8" r="2.3"></circle>
                <ellipse id="Oval_00000183966728348901712750000000671093819929642419_" fill="#000000" fill-rule="nonzero" transform="translate(149.105120, 183.700740) rotate(-79.029424) translate(-149.105120, -183.700740) " cx="149.10512" cy="183.70074" rx="8.49978316" ry="6.19984184"></ellipse>
                <circle id="Oval_00000127735570471646384950000007090644104950563496_" fill="#FFFFFF" transform="translate(148.676000, 180.706020) rotate(-79.029424) translate(-148.676000, -180.706020) " cx="148.676" cy="180.70602" r="2.29994133"></circle>
                <path d="M159.2,185 C159.1,186 159.2,187 159.1,188 C159.1,189 159,189.9 159,190.9 C158.9,192.8 158.7,194.8 158.7,196.7 C158.7,197.6 160,197.8 160.2,196.9 C160.8,195 161,192.9 161.1,190.9 C161.2,188.9 161.3,186.8 160.9,184.8 C160.8,184.4 160.3,184.1 159.9,184.2 C159.5,184.2 159.3,184.6 159.2,185 L159.2,185 Z" id="Path" fill="#000000" fill-rule="nonzero"></path>
                <path d="M119.4,163.8 C111.3,155.2 98.6,156.6 90,163.5 C88.9,164.4 90.1,165.9 91.3,165.7 C96.1,164.6 101,161.8 106,163 C109.7,163.9 113.3,165.7 116.5,167.7 C118.8,169.2 121.2,165.8 119.4,163.8 L119.4,163.8 Z" id="Path" fill="#000000" fill-rule="nonzero"></path>
                <path d="M141.7,174.7 C148.9,175.2 154.9,177.5 158,184.4 C158.6,185.8 160.9,185.1 160.8,183.6 C160.5,173.4 150.8,168.9 141.7,169.2 C138.3,169.5 138.3,174.5 141.7,174.7 L141.7,174.7 Z" id="Path" fill="#000000" fill-rule="nonzero"></path>
                <path d="M115.2,180 C110,169.1 96.3,172.6 86.8,172.6 C85.5,172.6 85.2,174.6 86.5,174.9 C94.9,176.9 107.3,173 113.2,181.3 C114,182.5 115.8,181.4 115.2,180 L115.2,180 Z" id="Path" fill="#000000" fill-rule="nonzero"></path>
                <g id="Group" transform="translate(82.000000, 122.000000)" fill-rule="nonzero">
                    <path d="M44.2,7 C45.6,2.8 36.7,1.9 31.6,2.1 C30,2.1 28.5,2.7 27.1,3.3 C19.3,6.4 11.3,9.5 4.6,14.2 C3,15.3 1.3,17 1.9,18.7 C2.5,20.2 4.8,18.8 6.6,18.4 C8.4,18 9.9,16.9 11.3,15.8 C17.5,11.4 25,8.3 32.9,6.9 C36.2,6.4 43.3,9.4 44.2,7 Z" id="Path" fill="#AD6161"></path>
                    <path d="M44.9,7.3 C46.9,0.7 33.3,0.5 29.7,1.3 C23.9,2.5 17.7,5.8 12.4,8.5 C9.3,10 1.3,13.2 0.8,17.4 C-0.2,25.8 17.2,13.4 18.8,12.6 C25.4,9.4 31.9,7.6 39.2,8.7 C41,9 43.8,9.7 44.4,7.2 C44.4,7 44.3,6.9 44.1,7 C42.3,8.2 38.2,6.6 36.2,6.3 C33.7,6 31.7,6.3 29.3,6.9 C21.7,8.7 15.8,12.3 9.2,16.3 C8.9,16.5 4.7,18.8 4.1,18.3 C1.6,16.4 7.8,13.5 8.9,12.8 C13,10.4 17.2,8.5 21.6,6.8 C25.4,5.2 29.2,3.4 33.3,3.3 C35.6,3.2 43.8,3.2 43.4,7.1 C43.2,8 44.7,8.1 44.9,7.3 Z" id="Path" fill="#000000"></path>
                </g>
                <g id="Group" transform="translate(144.000000, 132.000000)" fill-rule="nonzero">
                    <path d="M1,3.2 C5.2,0.3 11.1,1 15.3,3.9 C19.5,6.8 22.2,11.4 23.9,16.2 C25.4,20.5 26.2,25.3 24.4,29.5 C22,28.6 21.5,25.6 20.9,23.2 C18.7,14.2 11.5,6.7 2.6,4.2" id="Path" fill="#AD6161"></path>
                    <path d="M1.3,3.8 C15.5,-3.8 27.5,17.3 23.4,29.1 C23.9,28.9 24.4,28.7 24.9,28.5 C22,26.7 21.7,21.4 20.5,18.5 C19.5,16.1 18.1,13.9 16.5,12 C13.1,7.9 8.2,4.1 2.8,3.2 C1.9,3.1 1.2,4.3 2.1,4.8 C8.6,7.9 14,10.9 17.6,17.5 C19.8,21.5 19.6,27.7 23.9,30.3 C24.5,30.6 25.1,30.3 25.4,29.7 C30,16.6 16.1,-7.1 0.7,2.6 C-0.2,3 0.5,4.2 1.3,3.8 L1.3,3.8 Z" id="Path" fill="#000000"></path>
                </g>
            </g>
        </g>
    </g>
</svg>