<?xml version="1.0" encoding="UTF-8"?>
<svg width="642px" height="789px" viewBox="0 0 642 789" version="1.1" xmlns="http://www.w3.org/2000/svg" xmlns:xlink="http://www.w3.org/1999/xlink">
    <!-- Generator: Sketch 62 (91390) - https://sketch.com -->
    <title>charcece_popup</title>
    <desc>Created with Sketch.</desc>
    <defs>
        <linearGradient x1="50%" y1="0%" x2="50%" y2="99.5671453%" id="linearGradient-1">
            <stop stop-color="#BEF3FF" offset="0%"></stop>
            <stop stop-color="#456E8E" offset="100%"></stop>
        </linearGradient>
        <linearGradient x1="50%" y1="0%" x2="50%" y2="100%" id="linearGradient-2">
            <stop stop-color="#E1CAFF" offset="0%"></stop>
            <stop stop-color="#7C4AB3" offset="100%"></stop>
        </linearGradient>
        <linearGradient x1="50%" y1="0%" x2="50%" y2="100%" id="linearGradient-3">
            <stop stop-color="#E1CAFF" offset="0%"></stop>
            <stop stop-color="#7C4AB3" offset="100%"></stop>
        </linearGradient>
        <linearGradient x1="50%" y1="0%" x2="50%" y2="100%" id="linearGradient-4">
            <stop stop-color="#F8E4FF" offset="0%"></stop>
            <stop stop-color="#AD5AC1" offset="100%"></stop>
        </linearGradient>
        <linearGradient x1="50%" y1="0%" x2="50%" y2="100%" id="linearGradient-5">
            <stop stop-color="#F8E4FF" offset="0%"></stop>
            <stop stop-color="#AD5AC1" offset="100%"></stop>
        </linearGradient>
    </defs>
    <g id="Page-1" stroke="none" stroke-width="1" fill="none" fill-rule="evenodd">
        <g id="charcece_popup" transform="translate(0.000000, -65.000000)">
            <polygon id="Star" fill="url(#linearGradient-1)" fill-rule="nonzero" transform="translate(321.000000, 426.819364) scale(-1, 1) translate(-321.000000, -426.819364) " points="321 641.486816 122.91637 731.638727 147.444724 515.391528 0.493954 354.861273 213.736941 311.365064 321 122 428.263059 311.365064 641.506046 354.861273 494.555276 515.391528 519.08363 731.638727"></polygon>
            <g id="Star" transform="translate(153.000000, 239.000000) scale(-1, 1) translate(-153.000000, -239.000000) translate(2.000000, 96.000000)">
                <g id="path-3-link" fill="#000000" fill-rule="nonzero">
                    <polygon id="path-3" points="151 243.709864 58.1299301 286.003353 69.6298707 184.55405 0.7330704 109.24356 100.710494 88.837931 151 0 201.289506 88.837931 301.26693 109.24356 232.370129 184.55405 243.87007 286.003353"></polygon>
                </g>
                <g id="path-3-link" fill="url(#linearGradient-3)">
                    <polygon id="path-3" points="151 243.709864 58.1299301 286.003353 69.6298707 184.55405 0.7330704 109.24356 100.710494 88.837931 151 0 201.289506 88.837931 301.26693 109.24356 232.370129 184.55405 243.87007 286.003353"></polygon>
                </g>
            </g>
            <g id="Star" transform="translate(538.500000, 670.500000) scale(-1, 1) translate(-538.500000, -670.500000) translate(444.000000, 581.000000)">
                <g id="path-6-link" fill="#000000" fill-rule="nonzero">
                    <polygon id="path-6" points="94.5 152.089615 36.603153 178.483296 43.772419 115.172828 0.820933 68.174553 63.148631 55.440213 94.5 0 125.851369 55.440213 188.179067 68.174553 145.227581 115.172828 152.396847 178.483296"></polygon>
                </g>
                <g id="path-6-link" fill="url(#linearGradient-5)">
                    <polygon id="path-6" points="94.5 152.089615 36.603153 178.483296 43.772419 115.172828 0.820933 68.174553 63.148631 55.440213 94.5 0 125.851369 55.440213 188.179067 68.174553 145.227581 115.172828 152.396847 178.483296"></polygon>
                </g>
            </g>
            <g id="Group-3" transform="translate(354.000000, 459.500000) scale(-1, 1) translate(-354.000000, -459.500000) translate(153.000000, 66.000000)">
                <path d="M380.808586,593.045988 C378.706692,594.720776 378.719457,604.376224 378.540192,611.117414 C378.459632,614.146838 378.387121,616.67924 378.196651,617.905449 C377.99873,619.179621 377.93758,620.382405 377.880085,621.486566 C377.764967,623.697326 377.6082,625.534346 376.730254,626.878087 C375.992016,628.007997 374.778852,628.863726 372.592757,629.249193 C371.38929,629.461397 370.367815,629.41346 369.504712,629.124938 C368.589316,628.818935 367.832716,628.248045 367.227764,627.372458 C366.199916,625.884786 365.619142,623.394381 365.465476,619.687477 C365.371941,617.43114 365.4088,614.697159 365.446826,611.924513 C365.504431,607.724183 365.569787,603.432543 365.156355,600.643528 C365.02119,599.731704 364.849562,598.996062 364.573472,598.530885 C363.900063,598.471552 363.03687,599.828273 361.823677,601.327879 C359.339597,604.398409 355.859723,608.638477 352.011589,610.459939 C351.097534,610.892595 350.189803,611.030031 349.3325,610.949309 C348.395433,610.861077 347.515532,610.509168 346.753645,609.973479 C345.131117,608.832667 344.072559,606.857383 344.107202,604.983755 C344.186345,600.703409 347.841323,595.981796 351.476264,591.449894 C354.966424,587.098499 358.709688,582.87743 357.452208,579.450678 C357.336253,579.134688 357.263173,578.780053 357.193234,578.415978 C357.105284,577.958141 357.110425,577.383728 356.602659,577.099629 C356.158609,576.851179 355.444694,576.820762 354.326302,576.98307 C352.119369,577.303353 349.555454,578.216453 347.032863,579.106572 C344.238751,580.092499 341.492272,581.047864 339.287148,581.26909 C337.31501,581.466943 335.761487,581.072248 334.756118,579.956813 C333.721734,578.809186 333.162032,577.676281 332.941587,576.580072 C332.6894,575.326014 332.876118,574.105128 333.381317,572.930275 C334.608976,570.075325 337.853987,567.492338 340.500408,565.44122 C341.01981,565.038655 341.512702,564.656762 341.955701,564.297034 C348.632366,558.875379 358.455784,556.045869 368.979644,554.07195 C368.76672,552.09255 368.54698,550.014152 368.316734,547.836369 C366.30826,528.839236 363.499598,502.270455 357.433343,467.873105 C355.897123,459.162315 354.319609,450.899889 352.739716,443.096807 C347.370977,499.227437 331.779241,543.197013 307.638001,572.110304 C305.975358,592.502379 304.42729,620.018191 306.796006,653.886422 C309.979225,699.400507 319.643163,727.926966 325.152463,744.190636 C326.51682,748.21827 327.627705,751.501182 328.329488,754.109713 C332.556512,757.714597 336.265158,765.089034 336.265158,774.6608 C336.265158,777.290662 335.801765,779.356454 334.974161,780.98446 C334.050675,782.801077 332.674133,784.094111 330.9186,785.004201 C326.868912,787.10361 320.660684,787.065669 313.469859,786.951393 C311.829344,786.925322 310.137213,786.89839 308.411323,786.898387 C306.856372,786.902232 305.243168,786.924479 303.600118,786.947115 C295.076936,787.064536 285.772443,787.162567 279.501879,784.881592 C276.998995,783.971145 274.965007,782.683785 273.583318,780.923409 C272.298418,779.286351 271.559195,777.237107 271.559195,774.6608 C271.559195,772.463408 272.607234,770.348664 274.499606,768.369572 C276.451699,766.328023 279.313351,764.41958 282.70264,762.685974 C291.081288,758.400333 302.716671,755.147336 311.296138,753.293891 C299.717254,737.613439 286.74949,704.364823 283.788353,662.026078 C282.188332,639.148761 282.951317,614.596801 285.168783,592.941764 C267.715046,605.170236 247.297033,611.609411 224.264504,611.609411 C214.652513,611.609411 205.348018,610.319807 196.411329,607.829586 C194.151564,623.129096 191.771147,643.311968 191.771147,668.047985 C191.771147,703.200175 197.651202,725.644283 201.003216,738.440219 C202.427774,743.878306 203.38037,747.626118 203.310954,749.902835 C203.880209,752.315253 204.206559,754.964247 204.206559,757.80524 C204.206559,760.435102 203.743165,762.500894 202.915561,764.1289 C201.992075,765.945518 200.615534,767.238551 198.860001,768.148641 C194.810313,770.24805 188.602084,770.210109 181.41126,770.095833 C179.770744,770.069762 178.078613,770.042831 176.35025,770.042831 C174.71238,770.042831 172.995717,770.067006 171.238145,770.091721 C162.885645,770.209174 153.633969,770.308788 147.389783,768.014924 C144.906625,767.102712 142.884947,765.814321 141.511124,764.053648 C140.235644,762.41901 139.500595,760.374159 139.500595,757.80524 C139.500595,755.455122 140.702177,753.197506 142.852311,751.098658 C145.092935,748.911479 148.372161,746.883829 152.198349,745.064198 C162.409985,740.207822 176.547279,736.793047 184.554999,735.395517 C178.38862,721.113893 173.217684,699.136131 173.217684,673.0717 C173.217684,648.717638 176.825527,622.163323 181.5834,602.445186 C143.715343,585.395033 113.790435,545.394088 97.2755111,490.045062 C96.3585163,507.41384 95.6386389,526.321047 95.6386389,545.844722 C95.6386389,579.179853 97.4877116,604.615494 98.8096254,622.803101 C99.1594268,627.615859 99.4723772,631.922081 99.7055144,635.733393 C111.191781,635.772571 121.845266,636.772496 129.645127,641.10995 C130.143873,641.387299 130.695604,641.677814 131.277033,641.984084 C134.239471,643.544561 137.883782,645.524893 139.588628,648.123302 C140.290196,649.192585 140.686116,650.362495 140.655563,651.641272 C140.628856,652.759105 140.274415,653.971978 139.455056,655.281761 C138.658681,656.554805 137.1973,657.21324 135.220733,657.360792 C133.01069,657.525773 130.140012,657.061762 127.217117,656.575923 C124.578252,656.137295 121.8947,655.68321 119.665667,655.750954 C118.53609,655.785284 117.83831,655.939177 117.44416,656.260942 C116.993467,656.628867 117.098309,657.193639 117.091212,657.65976 C117.085568,658.030447 117.07519,658.392383 117.015877,658.723705 C116.372654,662.316706 120.792167,665.823729 124.985066,669.503057 C129.351867,673.334986 133.771356,677.350267 134.592701,681.551809 C134.952231,683.390968 134.252805,685.520034 132.853048,686.92522 C132.195765,687.585052 131.390341,688.084385 130.482823,688.33397 C129.652568,688.562306 128.734761,688.584558 127.759453,688.317174 C123.653442,687.191497 119.490038,683.620038 116.510419,681.02746 C115.055091,679.761173 113.969322,678.574871 113.412905,678.552117 C113.125525,679.256349 113.084273,680.010601 113.109526,680.932025 C113.186768,683.750431 113.996498,687.965499 114.782737,692.091991 C115.301735,694.815896 115.812869,697.501927 116.112633,699.740211 C116.605113,703.41746 116.465689,705.97082 115.711839,707.614324 C115.268144,708.581643 114.622184,709.275226 113.77383,709.735524 C112.973951,710.169521 111.976318,710.394096 110.754276,710.394096 C108.534465,710.394096 107.191115,709.762031 106.267856,708.777474 C105.169871,707.606592 104.696437,705.824688 104.199109,703.667504 C103.950717,702.590088 103.681596,701.416184 103.265383,700.19573 C102.86484,699.021227 102.353607,696.539902 101.748124,693.570506 C100.400773,686.962861 98.7363684,677.451931 96.3755276,676.167517 C95.9908944,675.958258 95.652172,675.857665 95.342962,675.959427 C94.9600405,676.085448 94.6647276,676.447417 94.371217,676.915853 C93.2996727,678.62601 92.5215442,681.76042 91.5467092,685.55316 C90.579531,689.316111 89.4477602,693.711508 87.7600157,698.07578 C87.1900299,699.549683 86.5244924,700.419879 85.8797744,700.956656 C84.8455661,701.817714 83.8142212,701.887367 83.0216581,701.913086 C81.627714,701.97062 80.7119794,701.310968 80.0105041,700.293479 C79.1677524,699.071069 78.6745721,697.279018 78.4050884,696.194288 C77.2454529,691.526509 78.5023959,665.540482 85.113169,649.321518 C77.0023955,632.242646 69.2566593,594.531392 69.2566593,551.681665 C69.2566593,511.390982 76.7517671,454.123022 84.7158173,422.592655 C83.6380317,410.533441 83.084229,398.047075 83.084229,385.187269 C83.084229,336.472792 71.3357223,223.831118 53.389076,150.028758 C53.1459931,149.886198 52.887711,149.792091 52.5759458,149.706623 C51.675907,149.459884 50.4024578,149.341885 48.8923492,149.300484 C44.5230591,149.180696 38.2660902,149.737002 33.0182613,150.201047 C29.4293458,150.518401 26.3040914,150.792472 24.5370021,150.792472 C23.383001,150.792472 22.1048482,150.861772 20.7652776,150.933814 C16.3141219,151.173195 11.2390865,151.391404 7.57542848,149.552858 C4.83542843,148.177834 2.79710231,145.718051 2.30703844,141.308462 C2.14436724,139.844749 2.61162673,138.359099 3.65312495,136.87269 C4.66859569,135.423426 6.24494588,133.959994 8.23753936,132.502911 C13.2421775,128.843271 20.9294808,125.167274 28.4916487,121.559891 C35.4822619,118.225157 42.3641291,114.950087 46.8306946,111.780662 C48.4578865,110.626024 49.7565164,109.494787 50.586111,108.373733 C51.2154954,107.523229 51.5749325,106.69135 51.4829931,105.857903 C51.3839349,104.959924 50.765642,104.266591 49.8579832,103.678371 C48.6063253,102.867218 46.8124813,102.269558 44.6673564,101.80218 C38.5692558,100.473531 29.725856,100.262074 21.7775473,100.064595 C11.924027,99.8197799 3.75527996,99.2723548 2.46919786,97.3457051 C0.809142924,94.8588154 0,92.3938433 0,90.1673064 C0,87.8346863 0.870189793,85.7425754 2.61621312,84.1022324 C5.7398895,81.1676206 20.7054719,72.6373161 39.890582,70.0330333 C50.7985373,68.552333 65.635953,69.5527939 77.7940561,70.3797347 C88.3746002,71.0993769 97.2877307,72.1104947 98.4768271,70.4432801 C98.5915173,70.2824747 98.5792401,70.0833862 98.5319601,69.8700245 C98.4319917,69.4188942 98.1539126,68.9127182 97.7535238,68.347031 C96.7204199,66.8874153 94.8986591,65.1356646 92.5611292,63.1883558 C86.0338994,57.7507647 75.5441128,50.8896289 66.3372652,44.8643705 C56.2404326,38.256677 47.8249399,32.5429502 47.1599572,30.6802236 C46.0768639,27.6463 45.7702014,24.9495757 47.4358382,22.8563708 C48.7168923,21.2464708 51.2667783,19.9233929 56.005334,19.2431446 C70.7435395,17.1273861 103.025007,23.3180102 116.563884,26.6737835 C118.960287,27.2677608 124.265163,29.6576451 130.513811,32.4871756 C138.52737,36.1158978 148.124006,40.4661196 155.03046,42.5208258 C157.448124,43.2400936 159.520931,43.6798173 161.0522,43.6730937 C161.627427,43.670568 162.113698,43.6095254 162.486585,43.4449859 C162.689539,43.3554304 162.852264,43.2339025 162.934174,43.0437329 C163.139482,42.5670699 162.73799,41.8451009 162.231433,40.9887266 C161.468613,39.6991178 160.202425,38.1309641 158.53876,36.3713109 C155.118802,32.7540318 150.042204,28.3661263 144.09875,23.978442 C141.08329,21.752315 137.540365,19.8152118 134.212159,17.9920704 C130.572724,15.9984421 127.186413,14.1317565 124.948518,12.2004869 C123.025578,10.5410185 121.948779,8.80924708 121.948779,6.98030669 C121.948779,5.62956139 122.300714,4.53708038 122.903275,3.64648763 C123.551194,2.68885596 124.500563,1.95883447 125.679044,1.42260023 C128.362303,0.201659244 132.312941,0.013340783 136.088192,0 L136.669227,0 C161.120121,0 203.709859,11.3182635 225.114113,45.798361 C236.699427,64.4611344 246.232029,92.270853 256.105651,121.113278 C262.500434,139.793462 269.042426,158.906513 276.394788,176.226641 C282.654363,190.972469 289.688438,206.62435 296.906007,222.684733 C317.052013,267.513207 338.619631,315.520783 348.815257,355.910773 C360.84804,378.350867 376.816152,425.878088 384.476831,469.316266 C391.44195,508.810427 391.580536,545.147785 388.051925,565.994969 C396.902481,580.953628 402.30583,604.991999 401.984292,609.648592 C401.907298,610.76364 401.732851,612.614108 401.115208,613.964275 C400.585835,615.121486 399.755051,615.906713 398.608359,616.057436 C397.605082,616.199878 396.597585,616.29301 395.45026,615.636443 C394.722119,615.219757 393.915569,614.478334 393.098267,613.125792 C390.678178,609.120822 388.800211,604.988674 387.194178,601.450791 C385.575426,597.884888 384.264728,594.933168 382.91244,593.435017 C382.542014,593.024636 382.188306,592.719428 381.7893,592.661801 C381.467122,592.615269 381.151022,592.773135 380.808586,593.045988 Z" id="Combined-Shape" stroke="#000000" stroke-width="2" fill="#F3A7A7" fill-rule="nonzero"></path>
                <g id="Group-2" transform="translate(87.000000, 185.000000)" fill-rule="nonzero">
                    <path d="M10.0324323,92.7481004 C9.71063498,86.3980791 11.754268,77.1566598 15.9971227,65.7163825 C16.2167857,65.1240912 16.4321468,64.5429191 16.6434543,63.9726865 C20.8299996,52.674905 23.3877272,45.7085079 26.3304848,41.6658427 C28.7614662,38.3262391 31.4675957,37.1420111 35.7114776,37.1420111 C37.9508128,37.1420111 39.8808321,37.9653484 41.4600676,39.4945601 C43.1634087,41.1439464 44.4591556,43.5853065 45.3364981,46.6672664 C47.1256176,52.9521491 47.154665,61.8397211 45.0915185,72.3468894 C43.2696228,81.6254182 39.450589,88.4365035 34.8909048,93.1434594 C29.2017279,99.016389 22.3706231,101.606472 16.9466114,101.606472 C14.8286148,101.606472 13.192707,100.901251 12.060475,99.497889 C10.8247763,97.966284 10.1808696,95.677211 10.0324323,92.7481004 Z" id="Oval" stroke="#000000" stroke-width="2" fill="#AD6161" transform="translate(28.329645, 69.374242) scale(-1, -1) rotate(20.000000) translate(-28.329645, -69.374242) "></path>
                    <path d="M123.655163,65.1150467 C121.537595,65.1150467 119.902102,64.4103498 118.770291,63.007088 C117.534956,61.4754733 116.891478,59.1862208 116.743476,56.2567831 C116.422619,49.9060066 118.467327,40.6631336 122.711334,29.220805 C122.931055,28.6284117 123.146473,28.0471396 123.357836,27.4768088 C127.545517,16.1770096 130.103957,9.20938075 133.046956,5.16578929 C135.478138,1.82542021 138.184105,0.639974069 142.427536,0.639974069 C144.666468,0.639974069 146.596023,1.46276391 148.174757,2.99184077 C149.877641,4.64116339 151.172852,7.08260565 152.04964,10.1647703 C153.837661,16.4501857 153.86544,25.3388607 151.801032,35.8476411 C149.978009,45.1276594 146.158406,51.9401856 141.598538,56.6484127 C135.909195,62.5228635 129.078545,65.1142746 123.655163,65.1150467 Z" id="Oval" stroke="#000000" stroke-width="2" fill="#AD6161" transform="translate(135.040984, 32.877510) scale(-1, 1) rotate(-120.000000) translate(-135.040984, -32.877510) "></path>
                    <ellipse id="Oval" fill="#000000" cx="57.7671233" cy="125.440741" rx="11.2328767" ry="15.4407407"></ellipse>
                    <ellipse id="Oval" fill="#000000" cx="135.369863" cy="103.085185" rx="11.2328767" ry="15.4407407"></ellipse>
                    <ellipse id="Oval" fill="#FFFFFF" cx="50.7876712" cy="118.211111" rx="4.21232877" ry="4.21111111"></ellipse>
                    <ellipse id="Oval" fill="#FFFFFF" cx="128.787671" cy="99.2111111" rx="4.21232877" ry="4.21111111"></ellipse>
                </g>
                <g id="Group-10" transform="translate(186.000000, 308.000000) rotate(-15.000000) translate(-186.000000, -308.000000) translate(83.000000, 269.000000)">
                    <rect id="Rectangle" stroke="#393939" stroke-width="8" fill="#D8D8D8" x="4" y="4" width="87" height="70" rx="8"></rect>
                    <rect id="Rectangle" stroke="#393939" stroke-width="8" fill="#D8D8D8" x="115" y="4" width="87" height="70" rx="8"></rect>
                    <polygon id="Rectangle" fill="#F4F4F4" points="199 7 199 71 125 71"></polygon>
                    <rect id="Rectangle" stroke="#393939" stroke-width="8" fill="#393939" x="93" y="38" width="18" height="2" rx="1"></rect>
                </g>
            </g>
            <path d="M302,465 C319.408534,487.079263 333.61858,499.976854 344.630137,503.692772 C362.794233,509.822358 390.184532,503.887496 405.236128,496.635959" id="Path-5" stroke="#000000" stroke-width="5" stroke-linecap="round"></path>
        </g>
    </g>
</svg>