<?xml version="1.0" encoding="UTF-8"?>
<svg width="332px" height="246px" viewBox="0 0 332 246" version="1.1" xmlns="http://www.w3.org/2000/svg" xmlns:xlink="http://www.w3.org/1999/xlink">
    <!-- Generator: Sketch 62 (91390) - https://sketch.com -->
    <title>Group 3</title>
    <desc>Created with Sketch.</desc>
    <g id="Page-1" stroke="none" stroke-width="1" fill="none" fill-rule="evenodd">
        <g id="characters" transform="translate(-213.000000, -197.000000)">
            <g id="Group-3" transform="translate(213.000000, 197.000000)">
                <g id="Group" transform="translate(48.000000, 55.000000)" fill-rule="nonzero">
                    <path d="M42.4,47.6 C34.5,32.6 26.7,17.5 18.8,2.5 C15.3,4.7 14.7,9.8 16.3,13.5 C17.9,17.2 21.2,20.1 24.3,22.7 C18.3,19.1 12.1,15.9 5.7,13.1 C8.3,17.7 12,21.6 16.4,24.3 C11.6,24.3 6.8,24.4 2,24.8 C2.1,27.6 5.2,29.3 8,29.4 C10.8,29.5 13.6,28.7 16.3,29.3 C20.4,30.1 23.3,33.7 25.8,37 C29.5,41.9 33.2,46.9 36.9,51.8" id="Path" fill="#86A2AE"></path>
                    <path d="M43.4,47.1 C36.2,31.7 28.2,16.7 20.3,1.7 C19.9,1 18.7,0.5 18,1.1 C8.8,8.2 16.7,18.5 23.2,24 C23.9,23.1 24.6,22.2 25.3,21.3 C19.3,17.7 13.1,14.5 6.8,11.7 C5.2,11 3.3,12.5 4.3,14.2 C7.2,19.1 10.9,23 15.7,26.1 C16,25 16.3,23.8 16.6,22.7 C11.8,22.7 7,22.9 2.2,23.2 C0.9,23.3 0.2,24.3 0.4,25.5 C1.8,33 9.6,30.6 14.9,31.2 C20.5,31.8 23.6,37.1 26.6,41.2 C29.6,45.2 32.5,49.1 35.5,53 C36.9,54.8 40,53.1 38.6,51.2 C33.9,44.8 29.4,37.2 23.6,31.7 C21.7,29.9 19.5,28.4 17,27.8 C13.4,27 4.9,30.1 3.9,24.6 C3.3,25.4 2.7,26.2 2.1,26.9 C6.9,26.5 11.7,26.4 16.5,26.4 C18.4,26.4 18.9,24 17.4,23 C13.2,20.2 9.9,16.8 7.3,12.4 C6.5,13.2 5.6,14.1 4.8,14.9 C11.2,17.7 17.4,20.9 23.4,24.4 C25,25.3 27,23 25.5,21.7 C21.1,18.1 12.3,9.7 19.6,4.2 C18.8,4 18,3.8 17.3,3.6 C25.1,18.6 32.9,33.8 41.4,48.4 C42.2,49.5 44,48.4 43.4,47.1 L43.4,47.1 Z" id="Path" fill="#000000"></path>
                </g>
                <g id="Group" fill-rule="nonzero">
                    <path d="M233.7,98.7 C234.4,103.8 257.3,123.6 273.2,128.9 C289.1,134.2 314.9,150.5 324.3,164.3 C329.5,171.9 332.7,179.5 324.1,182.6 C316.5,185.4 307.8,185.6 291.8,176 C262.1,158.3 251,152.8 234.9,154.4 C225.5,155.3 221.9,155.9 221.3,165.3 C220.9,172 220.4,177.4 220.9,184.1 C222.5,203.7 223.9,207 222.5,234.5 C222.1,242.8 210.6,240.1 200.4,240.9 C197.8,241.1 194.7,242 193.2,239.9 C192.4,238.8 192.4,237.4 192.5,236.1 C193,229.9 196.8,229.1 202.3,226.2 C204.2,225.2 206.3,224.4 207.7,222.8 C209.1,221.1 209.4,213.8 209.6,211.6 C211.4,191.6 212.5,180.8 208,161.2 C207.7,160 199.5,156.9 197.9,156.6 C178.1,153.3 156.7,151.5 143.2,155.8 C134.4,158.6 133.8,161.4 134.1,170.6 C134.9,193.9 141.2,231.8 133.1,239.8 C127.8,245.1 116.8,241.5 109.5,243.4 C97.8,246.4 100.9,236.7 102.2,234.5 C104.6,230.5 107.3,228.6 111.8,227.4 C113.2,227 114.7,226.9 116,226.3 C120.1,224.1 125.5,215.6 125.5,195.2 C125.5,187.8 126.2,179.4 121.7,162.5 C118.9,152.3 94.7,148.7 84.2,149.7 C61.3,151.9 50.6,162.8 31.7,169.6 C15.7,175.4 -0.9,168.6 2.6,158 C6.8,145.3 48.8,122.5 72.9,115.3 C92.4,109.5 89.4,97.3 90.2,89.6 C90.4,87.9 90.1,79.6 90.1,79.6 C94.1,50.5 114.2,25.4 139.3,10.1 C144.9,6.7 150.9,3.6 157.4,2.3 C164.9,0.8 172.7,1.7 180.1,3.7 C199.8,9.1 216.8,22.9 226.8,40.8 C243,70 233.7,98.7 233.7,98.7 Z" id="Path" fill="#86A2AE"></path>
                    <path d="M232.8,99 C234,104.8 241.7,110.3 245.8,113.8 C253.3,120.1 261.5,126 270.6,129.6 C280.6,133.6 290,138 299,144 C308.5,150.3 318.4,157.8 324.4,167.8 C327.7,173.3 329.6,179.2 321.9,181.6 C317.3,183 312.6,182.9 308.1,181.6 C295.7,178.3 284.8,169.6 273.6,163.5 C259.5,155.8 243.8,149.4 227.4,153.7 C218.8,156 219.4,165 219,172.3 C218.5,182.5 220,192.5 220.8,202.7 C221.6,212.6 221.8,222.8 220.9,232.7 C220.6,235.9 220.1,237.7 216.9,238.6 C214.3,239.3 211.5,239.1 208.9,239.1 C206.1,239.1 203.3,239.1 200.5,239.3 C199.7,239.4 197.2,240.1 196.5,239.7 C194,238.3 193.9,234.7 195.4,232.7 C198.2,228.6 204.5,228.2 208.1,225 C210.8,222.6 210.8,218.6 211.1,215.2 C212.1,203.4 213.5,191.5 212.6,179.6 C212.2,173.9 211.4,168.2 210,162.7 C209.2,159.2 207.1,158.4 203.9,157.1 C193.5,152.7 180.3,152.3 169.1,151.9 C159.2,151.5 146,151.2 137.2,156.7 C130.9,160.7 132.4,169.3 132.8,175.6 C133.5,186.7 134.7,197.8 135.3,208.9 C135.8,217.3 137.1,228.1 133.7,236.1 C131.6,241 126.2,241.4 121.4,241.4 C118.7,241.4 116,241.2 113.3,241.4 C110.8,241.6 108.2,242.6 105.7,242.5 C101.5,242.3 102.1,238.1 103.6,235.4 C105.1,232.5 107.8,230.5 110.8,229.4 C113.1,228.6 115.5,228.5 117.5,227.2 C122.8,223.7 124.8,215.9 125.8,210.2 C127.4,201.4 127.4,192 126.8,183.1 C126.4,177.9 125.6,172.6 124.4,167.5 C123.5,163.4 122.7,159.6 119.4,156.7 C113.3,151.3 104,149.5 96.2,148.6 C86.5,147.4 76.9,148.5 67.6,151.5 C57.1,154.9 47.7,160.9 37.7,165.4 C31.7,168.1 25.6,170.3 18.9,170.2 C13.5,170.1 3.9,168.1 3.6,161.2 C3.2,154.2 13.1,147.9 17.9,144.5 C34.9,132.4 54.2,123.4 73.9,116.9 C81.5,114.4 88.5,110 90.6,101.8 C92.1,95.8 91.8,88.8 91.7,82.7 C91.5,72 96.2,60.8 101.2,51.6 C107.1,40.8 115.1,31.3 124.3,23.2 C134.7,14.1 148.2,4.4 162.4,3.5 C175.5,2.6 189,7.7 199.9,14.7 C222.9,29.6 235.8,55.7 234.6,82.9 C234.4,88.1 234,93.7 232.4,98.7 C231.9,100.2 234.2,100.8 234.7,99.3 C248.2,57.2 218.1,9.3 175.2,1.1 C149.2,-3.9 124.9,14.8 109.2,33.8 C101.6,43 95.5,53.3 91.8,64.6 C90.2,69.4 88.6,74.7 88.3,79.9 C88.1,83.4 88.5,87 88.3,90.5 C87.9,99.1 87.5,106.5 79,111.1 C74.3,113.7 68.7,114.8 63.7,116.7 C58.7,118.6 53.7,120.7 48.9,123 C39.1,127.6 29.4,132.7 20.4,138.7 C14,142.9 6.6,147.8 2.4,154.4 C-1.7,160.9 1.1,167.7 7.8,171 C18.1,176.1 29.8,172.7 39.6,168.2 C50.8,163.2 61.1,156.4 73.1,153.3 C83.8,150.5 94.7,150.6 105.5,153.4 C109.9,154.6 114.8,156.1 118.1,159.4 C122.3,163.6 122.7,172.5 123.4,178.1 C124.7,188.1 124.7,199.3 123,209.2 C122.3,213.4 121.1,217.7 118.8,221.3 C116.1,225.3 112.6,225 108.4,226.9 C103.4,229.2 97.3,236.1 99.9,242.2 C100.9,244.5 102.9,245.4 105.3,245.5 C107.4,245.6 109.3,245 111.3,244.6 C114.7,244.1 118.1,244.4 121.5,244.4 C129.7,244.4 135.8,242.2 137.7,233.7 C139.9,224.3 138.9,214.1 138.3,204.6 C137.5,193.2 136.2,181.9 135.8,170.5 C135.6,166 135.2,161.3 139.7,158.8 C145.4,155.7 152.8,155.2 159.1,154.9 C166,154.6 173,155 179.9,155.7 C186.6,156.4 193.9,156.6 200.3,158.9 C201.9,159.5 205.1,160.2 206.2,161.5 C208.1,163.7 208.2,169.2 208.6,172 C209.6,178.9 209.9,185.9 209.6,192.8 C209.3,199.2 208.6,205.7 208.1,212.1 C207.9,214.4 208,216.9 207.4,219.1 C206.4,222.8 203.6,223.8 200.5,225.4 C197.2,227.1 193.7,228.6 192,232.2 C190.5,235.4 190.3,240.5 193.9,242.4 C196,243.5 198.5,242.8 200.7,242.6 C203.5,242.4 206.3,242.4 209.1,242.4 C213.2,242.4 218.4,242.8 221.8,240.1 C225.2,237.5 224.6,232.8 224.8,229 C225,223.5 225.2,218 225.1,212.5 C225,203.9 223.9,195.4 223.2,186.8 C222.6,180.2 222.8,173.7 223.3,167.1 C223.5,164.5 223.4,161.1 225.2,159 C226.9,157 230.1,156.8 232.5,156.5 C240.6,155.5 248.4,156.2 256.1,159 C267.3,163.1 277.6,169.5 287.8,175.6 C297,181 307.2,187.1 318.3,185.8 C325.8,184.9 333.4,181 330.8,172.3 C327.9,162.4 318.8,154.3 311,148.2 C301.8,140.9 291.6,134.6 280.8,130 C276.4,128.1 271.8,126.9 267.5,124.8 C262.3,122.3 257.4,119.2 252.7,115.8 C248.4,112.7 244.3,109.4 240.5,105.8 C238.4,103.8 235.3,101.3 234.6,98.4 C234.2,97.4 232.6,97.9 232.8,99 Z" id="Path" fill="#000000"></path>
                </g>
                <path d="M128.2,58.4 C116.2,54.1 107.5,71.2 104.4,80 C104,81.1 105.5,82.3 106.4,81.6 C111.8,77.5 117.8,78.7 123.2,82.1 C123.8,82.5 124.6,81.7 124.2,81.1 C119.9,74.9 110.7,75 105,79.1 C105.7,79.6 106.4,80.1 107,80.7 C109.9,73.1 117.2,58.6 127.3,61.3 C129.3,61.8 130,59 128.2,58.4 L128.2,58.4 Z" id="Path" fill="#000000" fill-rule="nonzero"></path>
                <path d="M194.4,65.1 C203.7,62.5 212.9,77.1 214.6,85.1 C215.2,84.6 215.8,84.2 216.4,83.7 C208.9,79.8 197.6,78.7 190.6,84.3 C189.9,84.9 190.7,86 191.5,85.8 C195.3,84.8 198.7,83.4 202.7,83.2 C207.1,83 211.2,84 215.2,85.9 C216.3,86.4 217.5,85.4 216.9,84.2 C213.1,76.6 206,56.3 193.7,63.4 C192.7,63.8 193.3,65.4 194.4,65.1 L194.4,65.1 Z" id="Path" fill="#000000" fill-rule="nonzero"></path>
                <path d="M132.7,33.9 C124.3,33.5 117.1,39.9 115.6,48 C115.4,48.9 116.1,49.6 117,49.4 C121.1,48.7 124.2,46.4 127.3,43.7 C129,42.2 130.7,40.5 132.5,39 C133.6,38.1 134.9,37.2 135.5,35.9 C135.7,35.5 135.6,35.1 135.2,34.8 C134.5,34.3 133.6,34.2 132.7,34.1 C131.9,34 131.8,35.2 132.5,35.4 C133.6,35.7 132.8,35.4 132.6,35.5 C132.6,35.5 130.9,36.7 131.2,36.4 C129.6,37.6 128.3,39.1 126.9,40.5 C123.8,43.5 120.7,46.4 116.3,47.1 C116.8,47.6 117.3,48.1 117.7,48.5 C119.1,41.2 125.3,36.2 132.6,35.5 C133.7,35.4 133.7,33.9 132.7,33.9 Z" id="Path" fill="#000000" fill-rule="nonzero"></path>
                <ellipse id="Oval_00000162315841592780139850000012885633080824975285_" fill="#000000" fill-rule="nonzero" cx="116.5" cy="72.3" rx="5" ry="6"></ellipse>
                <ellipse id="Oval_00000179628375788633467370000015696140309133259420_" fill="#000000" fill-rule="nonzero" cx="203.5" cy="74.3" rx="5" ry="6"></ellipse>
                <circle id="Oval_00000016044921920686431050000003327091809084604318_" fill="#FFFFFF" cx="205.5" cy="72.3" r="2"></circle>
                <circle id="Oval_00000144325635011502843460000016659774588989137046_" fill="#FFFFFF" cx="117.5" cy="70.3" r="2"></circle>
                <path d="M202.5,40.5 C205.1,42.7 206.1,45.4 206.6,48.7 C207.2,48.4 207.8,48 208.4,47.7 C206.2,46.6 204.4,44.9 202.3,43.6 C198.4,41.3 194,39.9 189.6,38.8 C189.7,39.6 189.8,40.4 189.9,41.2 C192.5,39.3 200,39.4 202.9,40.5 C203.6,40.8 204,39.7 203.4,39.3 C199.9,36.8 191.9,36.3 188.3,39.1 C187.5,39.7 188,41.1 188.9,41.3 C193.4,42.2 197.8,43.5 201.6,46 C203.5,47.2 205.2,48.7 207.2,49.7 C208.2,50.2 209.1,49.4 209,48.3 C208.4,44.4 206.9,41.3 203.5,39.2 C202.7,38.9 201.8,40 202.5,40.5 Z" id="Path" fill="#000000" fill-rule="nonzero"></path>
                <g id="Group" transform="translate(224.000000, 55.000000)" fill-rule="nonzero">
                    <path d="M1.6,44.5 C5.7,38.2 11.2,32.7 17.6,28.7 C16.3,29 15.6,27.1 15.6,25.7 C15.7,16.9 19,8.2 24.8,1.5 C25.6,8.8 23.8,16.3 19.9,22.5 C23.6,14.3 30.1,7.4 38,3.2 C39.3,5.3 37.6,8 36,9.9 C32.4,14.1 28.8,18.3 25.2,22.4 C29.3,17.6 35.6,14.7 41.9,14.7 C42.5,17.4 39.7,19.5 37.3,20.8 C32.8,23.3 28.2,25.8 23.7,28.3 C24.3,27.7 24.8,27.1 25.4,26.5 C16.6,32.4 10.5,39.9 6.2,49.7" id="Path" fill="#86A2AE"></path>
                    <path d="M2.2,44.9 C6.6,38.8 11.8,33.8 18.2,29.9 C19.1,29.3 19.1,27.7 17.9,27.4 C15.1,26.9 18.2,16.6 18.8,14.8 C20.3,10.3 22.7,6.2 25.7,2.6 C24.9,2.3 24.1,1.9 23.3,1.6 C23.9,8.8 22.4,15.7 18.4,21.8 C19.3,22.3 20.2,22.9 21.1,23.4 C24.9,15.3 30.9,9 38.7,4.8 C37.9,4.5 37,4.1 36.2,3.8 C36.9,5.8 34,9.5 32.8,10.9 C31.8,12.1 30.8,13.2 29.8,14.4 C27.8,16.7 25.8,19 23.8,21.3 C22.3,23 24.8,25.5 26.3,23.8 C30.4,19.3 35.7,16.8 41.8,16.7 C41.2,16.1 40.6,15.5 40,14.9 C40,16.9 36.9,19.1 35.4,19.9 C34,20.7 32.6,21.5 31.1,22.2 C28.3,23.8 25.4,25.3 22.6,26.9 C23.3,27.9 24.1,28.8 24.8,29.8 C25.4,29.2 26,28.6 26.5,28 C27.9,26.6 26,23.9 24.3,25.1 C15.4,31.2 8.5,39.3 4.4,49.4 C3.6,51.3 6.8,52.6 7.6,50.8 C12.1,41.7 17.7,34.1 26.1,28.3 C25.4,27.3 24.6,26.4 23.9,25.4 C23.3,26 22.8,26.6 22.2,27.2 C20.7,28.7 22.6,31.1 24.4,30.1 C29.3,27.4 34.6,25 39.2,21.9 C41.8,20.2 43.6,18.1 43.5,14.9 C43.5,13.9 42.7,13.1 41.7,13.1 C34.6,13.3 28.5,16.1 23.7,21.3 C24.5,22.1 25.4,23 26.2,23.8 C29.8,19.6 33.6,15.5 37,11.2 C39,8.7 40.6,6.2 39.4,2.9 C39,1.9 37.9,1.3 36.9,1.9 C28.6,6.5 22.2,13.3 18.2,21.9 C17.3,23.7 19.9,25.3 20.9,23.5 C24.7,16.6 26.5,9.5 25.9,1.7 C25.8,0.6 24.3,-0.3 23.5,0.7 C19.1,6 15.9,12.1 14.7,19 C14.1,22.2 12.4,29.4 17,30.2 C16.9,29.4 16.8,28.6 16.7,27.7 C10.2,32.1 4.9,37.6 0.7,44.3 C0.4,44.9 1.7,45.7 2.2,44.9 L2.2,44.9 Z" id="Path" fill="#000000"></path>
                </g>
                <g id="Group" transform="translate(138.000000, 82.000000)" fill="#000000" fill-rule="nonzero">
                    <path d="M7.4,32.4 C11.8,35.2 17.2,36.4 22.3,35.4 C27.4,34.4 32,30.8 33.8,26 C34.7,23.7 34.9,21.2 35,18.8 C35.1,13.7 34.3,8 30.2,4.9 C27.3,2.7 23.2,2.3 19.7,3.3 C16.2,4.4 13.2,6.7 10.6,9.3 C7.4,12.7 4.9,16.6 3.2,21 C2.6,22.7 2,24.4 2.3,26.2 C2.9,31.2 8.6,33.5 13.4,34.9" id="Path"></path>
                    <path d="M6.9,33 C14.7,39.1 26.8,38.5 33,30.4 C38.5,23.2 38.6,7.5 29.7,2.6 C19.2,-3.2 8.4,7.5 3.8,16 C1.7,19.9 -0.6,25 1.7,29.3 C3.9,33.4 8.9,35.3 13.1,36.3 C14.8,36.7 15.5,34.3 13.8,33.7 C10.6,32.5 6.6,31.4 4.8,28.2 C2.6,24.3 5.6,19.1 7.8,15.7 C11.9,9.3 22.5,-0.7 30.1,7 C35.3,12.3 34.6,24.7 29.8,29.8 C23.7,36.3 15,34.8 7.6,31.8 C6.9,31.4 6.3,32.5 6.9,33 L6.9,33 Z" id="Path"></path>
                </g>
                <g id="Group" transform="translate(140.000000, 91.000000)" fill-rule="nonzero">
                    <path d="M33.3,13.6 C31.6,8.1 26.8,3.7 21.2,2.4 C15.6,1.1 7.9,1.9 5.4,7 C0.3,17.2 -3.2,23 13.4,24.4 C31,25.8 33.3,13.6 33.3,13.6 Z" id="Path" fill="#86A2AE"></path>
                    <path d="M33.9,13.5 C30.5,3.9 19.1,-2 9.4,2.4 C5.3,4.2 3.7,8.3 2,12.2 C0.9,14.7 -0.4,17.7 0.9,20.4 C4.1,27.2 18.7,26.2 24.3,24.2 C28.9,22.6 33.2,18.8 34.2,13.9 C34.4,12.8 32.7,12.3 32.5,13.4 C30.2,24.4 12.6,26.1 4.6,21.5 C-0.5,18.6 4,11 6.2,7.4 C9.1,2.6 15.4,2 20.5,3 C26.3,4.2 30.7,8.3 32.8,13.8 C33,14.5 34.1,14.2 33.9,13.5 Z" id="Path" fill="#000000"></path>
                </g>
            </g>
        </g>
    </g>
</svg>