<?xml version="1.0" encoding="UTF-8"?>
<svg width="39px" height="39px" viewBox="0 0 39 39" version="1.1" xmlns="http://www.w3.org/2000/svg" xmlns:xlink="http://www.w3.org/1999/xlink">
    <!-- Generator: Sketch 62 (91390) - https://sketch.com -->
    <title>downarrowbutton</title>
    <desc>Created with Sketch.</desc>
    <g id="Page-1" stroke="none" stroke-width="1" fill="none" fill-rule="evenodd">
        <g id="A4" transform="translate(-106.000000, -308.000000)">
            <g id="downarrowbutton" transform="translate(106.000000, 308.000000)">
                <circle id="Oval" stroke="#000000" stroke-width="2" fill-opacity="0.653682255" fill="#FFFFFF" cx="19.5" cy="19.5" r="18.5"></circle>
                <g id="arrow-down-(1)" transform="translate(11.000000, 7.000000)" fill="#000000" fill-rule="nonzero">
                    <path d="M8.5,0 C9.02152906,0 9.44431191,0.41570905 9.44431191,0.928512151 L9.44431191,22.8283997 L15.3859224,16.9843443 C15.755165,16.6212797 16.3538255,16.6212797 16.7230681,16.9843443 C17.0923106,17.3474089 17.0923106,17.9360529 16.7230681,18.2991175 L9.16857283,25.7272147 C8.99141186,25.9018524 8.75086073,26 8.5,26 C8.24913927,26 8.00858813,25.9018524 7.83142717,25.7272147 L0.276931902,18.2991175 C-0.0923106465,17.9360529 -0.0923106324,17.3474089 0.276931934,16.9843443 C0.6461745,16.6212797 1.24483498,16.6212797 1.61407756,16.9843443 L7.55568809,22.8283997 L7.55568809,0.928512151 C7.55568809,0.41570905 7.97847093,0 8.5,0" id="Path"></path>
                </g>
            </g>
        </g>
    </g>
</svg>