<?xml version="1.0" encoding="UTF-8"?>
<svg width="64px" height="62px" viewBox="0 0 64 62" version="1.1" xmlns="http://www.w3.org/2000/svg" xmlns:xlink="http://www.w3.org/1999/xlink">
    <!-- Generator: Sketch 62 (91390) - https://sketch.com -->
    <title>Group</title>
    <desc>Created with Sketch.</desc>
    <defs>
        <radialGradient cx="49.9850071%" cy="49.9976002%" fx="49.9850071%" fy="49.9976002%" r="50.4115779%" gradientTransform="translate(0.499850,0.499976),scale(0.983774,1.000000),translate(-0.499850,-0.499976)" id="radialGradient-1">
            <stop stop-color="#6D1014" offset="21.46%"></stop>
            <stop stop-color="#751419" offset="29.17%"></stop>
            <stop stop-color="#8A1F26" offset="40.87%"></stop>
            <stop stop-color="#AC323C" offset="55.02%"></stop>
            <stop stop-color="#BF3C49" offset="61.99%"></stop>
            <stop stop-color="#B22D3C" offset="77.23%"></stop>
            <stop stop-color="#A51F30" offset="88.34%"></stop>
            <stop stop-color="#A82334" offset="91.44%"></stop>
            <stop stop-color="#B22E40" offset="94.52%"></stop>
            <stop stop-color="#C34154" offset="97.59%"></stop>
            <stop stop-color="#D55669" offset="100%"></stop>
        </radialGradient>
        <linearGradient x1="17.1813375%" y1="30.0081607%" x2="68.7906896%" y2="59.7343745%" id="linearGradient-2">
            <stop stop-color="#FFFFFF" stop-opacity="0" offset="3.86%"></stop>
            <stop stop-color="#FFFFFF" offset="24.98%"></stop>
            <stop stop-color="#E1E0E0" stop-opacity="0.9119" offset="31.59%"></stop>
            <stop stop-color="#A8A6A6" stop-opacity="0.7307" offset="45.18%"></stop>
            <stop stop-color="#787676" stop-opacity="0.5554" offset="58.33%"></stop>
            <stop stop-color="#535051" stop-opacity="0.3904" offset="70.72%"></stop>
            <stop stop-color="#393536" stop-opacity="0.2381" offset="82.14%"></stop>
            <stop stop-color="#292526" stop-opacity="0.1033" offset="92.25%"></stop>
            <stop stop-color="#231F20" stop-opacity="0" offset="100%"></stop>
        </linearGradient>
        <linearGradient x1="20.0211951%" y1="41.4525602%" x2="70.226835%" y2="53.5897126%" id="linearGradient-3">
            <stop stop-color="#FFFFFF" stop-opacity="0" offset="3.86%"></stop>
            <stop stop-color="#FFFFFF" offset="24.13%"></stop>
            <stop stop-color="#E1E0E0" stop-opacity="0.9119" offset="29.14%"></stop>
            <stop stop-color="#A8A6A6" stop-opacity="0.7307" offset="39.44%"></stop>
            <stop stop-color="#787676" stop-opacity="0.5554" offset="49.41%"></stop>
            <stop stop-color="#535051" stop-opacity="0.3904" offset="58.79%"></stop>
            <stop stop-color="#393536" stop-opacity="0.2381" offset="67.44%"></stop>
            <stop stop-color="#292526" stop-opacity="0.1033" offset="75.11%"></stop>
            <stop stop-color="#231F20" stop-opacity="0" offset="80.98%"></stop>
        </linearGradient>
    </defs>
    <g id="Page-1" stroke="none" stroke-width="1" fill="none" fill-rule="evenodd">
        <g id="scale_bars" transform="translate(-172.000000, 0.000000)">
            <g id="Group" transform="translate(172.000000, 0.000000)">
                <path d="M19.9,2.59 C9.79,5.77 5.47,12.11 3.39,18.51 C1.31,24.91 -0.48,31.9 2.2,40.23 C4.88,48.56 9.04,53.77 16.33,57.49 C23.62,61.21 27.19,61.66 34.93,60.02 C42.67,58.38 55.16,53.03 59.18,44.1 C63.2,35.17 63.2,22.23 55.46,11.22 C47.72,0.21 30.31,-0.69 19.9,2.59 Z" id="Path" stroke="#231F20" stroke-width="1.3422" fill="url(#radialGradient-1)" fill-rule="nonzero"></path>
                <g opacity="0.1" transform="translate(17.000000, 2.000000)" fill="#FFFFFF" fill-rule="nonzero" id="Path">
                    <g opacity="0.9">
                        <g>
                            <g>
                                <path d="M39.31,28.71 C39.27,26.41 39.09,24.12 38.66,22.2 C38.93,22.57 39.17,23 39.42,23.42 C40.13,24.95 39.44,26.86 39.31,28.71 Z"></path>
                                <path d="M39.18,35.24 L39.17,35.23 C39.22,34.34 39.25,33.39 39.28,32.44 C39.31,31.52 39.33,30.61 39.32,29.71 C39.33,29.83 39.34,29.95 39.37,30.08 C39.55,30.93 39.68,31.78 39.67,32.65 C39.66,33.55 39.54,34.42 39.18,35.24 Z"></path>
                                <path d="M23.76,58.62 C24.57,57.52 25.53,56.43 26.3,55.2 C26.96,53.96 27.54,52.6 27.96,51.25 C28.35,50.88 28.66,50.32 29.02,50.08 C28.99,50.05 29.6,49.57 30.34,48.96 C31.07,48.35 31.96,47.61 32.55,47.11 C32.47,48.48 32.48,49.9 32.65,51.36 C33.33,51.17 34.56,50.55 34.84,50.91 C35.61,52.5 35.05,54.23 34.18,55.85 C33.96,55.95 32.26,56.54 30.23,57.17 C29.72,57.32 29.19,57.48 28.65,57.64 L27.82,57.88 C27.44,57.98 27.03,58.1 26.76,58.14 C25.55,58.36 24.58,58.45 23.76,58.62 Z"></path>
                                <path d="M16.08,58.95 C15.03,58.94 13.81,58.81 12.69,58.66 C11.6,58.52 10.48,58.3 9.91,58.09 C10.69,57.78 11.41,57.29 12.19,56.77 C11.5,56.56 11.11,56.39 10.54,56.25 C10.7,56.17 10.86,56.11 11.01,56.01 C11.7,55.94 12.56,55.8 13.36,55.64 C14.18,55.49 15,55.3 15.81,55.11 C17.44,54.72 19.07,54.3 20.67,53.83 C20.6,54.09 19.7,55.18 18.67,56.25 C17.66,57.33 16.5,58.36 16.08,58.95 Z"></path>
                                <path d="M22.27,58.42 C21.49,58.61 20.8,58.77 20.13,58.91 C18.79,58.98 17.45,59 16.09,58.95 C16.92,57.75 18.08,56.48 19.49,55.28 C19.27,55.32 19.01,54.88 18.79,54.93 C19.81,54.41 20.55,54.34 20.69,53.83 C22.15,53.4 23.69,52.94 24.88,52.44 C25,52.38 25.19,52.31 25.26,52.26 C25.35,52.2 25.34,52.2 25.5,52.1 L26.42,51.54 C27.03,51.16 27.63,50.76 28.23,50.36 C27.91,51.06 27.28,51.2 26.74,51.5 C27.22,51.8 27.62,51.6 27.97,51.25 C27.55,52.6 26.97,53.95 26.31,55.2 C25.54,56.43 24.58,57.52 23.77,58.62 L23.08,58.69 C22.84,58.49 22.63,58.28 22.27,58.42 Z"></path>
                                <path d="M41.87,33.21 C42.94,35.21 44.49,36.58 46.16,37.92 C45.94,38.53 45.41,39.68 45.63,40.67 C45.44,41.51 45,42.8 44.4,44 C43.85,45.18 43,46.33 43.13,46.63 C43.16,46.84 43.19,46.66 43.22,46.26 C43.27,45.8 43.36,45.01 43.24,44.23 C43.06,42.64 42.23,41.07 41.66,40.25 C40.77,39.88 40.16,39.07 39.59,38.19 C39.68,37.94 40.24,38.24 40.37,37.99 C40.29,37.98 39.68,37.44 39.68,37.44 C39.68,37.44 39.74,36.96 39.8,36.36 C39.86,35.75 39.92,35 39.95,34.48 C40.92,34.02 40.23,32.69 40.04,32.65 L40.08,31.76 L40.09,31.73 C40.37,32.13 40.66,32.53 40.93,32.95 C41.15,33.19 41.87,33.21 41.87,33.21 Z"></path>
                                <path d="M34.84,50.92 C35.61,52.51 35.05,54.24 34.18,55.86 C34.77,55.64 36.27,54.98 36.42,54.89 C36.03,54.68 35.54,54.51 35.75,54.17 C36.44,53.44 37.3,52.54 37.87,52.08 C38.69,51.61 39.84,51.35 40.81,50.85 C41.34,50.16 41.83,49.45 42.27,48.73 C42.31,48.69 42.12,47.91 41.9,47.72 C42.29,47.3 42.7,46.97 43.13,46.65 C43.12,46.63 43.13,46.54 43.15,46.39 C43.16,46.31 43.18,46.22 43.19,46.11 C43.22,45.98 43.24,45.84 43.28,45.69 C43.41,45.08 43.46,44.29 43.36,43.53 C43.18,42.01 42.43,40.66 41.66,40.27 C40.77,39.9 40.16,39.09 39.59,38.21 C39.59,38.22 39.56,38.37 39.51,38.59 C39.46,38.81 39.4,39.12 39.31,39.43 C39.14,40.06 38.91,40.75 38.73,41.1 C38.9,41.14 39.39,40.98 39.48,40.88 C39.47,40.95 39.23,41.14 39,41.34 C38.74,41.51 38.49,41.68 38.36,41.75 C38.3,41.85 38.22,41.96 38.14,42.05 C38.11,42.12 37.87,42.39 37.71,42.58 C37.39,42.99 37.07,43.34 37.05,43.42 C36.92,43.57 37.54,43.58 37.9,43.9 C36.85,44.15 35.93,44.49 35.13,44.96 L34.57,45.45 C34.39,45.37 34.27,45.32 34.34,45.25 C34.42,45.1 34.5,44.96 34.59,44.83 C34.26,45.14 32.72,46.32 32.3,46.62 C32.79,46.39 33.29,46.2 33.84,46.06 C33.42,46.4 33.02,46.75 32.59,47.08 L32.55,47.13 C32.47,48.49 32.49,49.91 32.65,51.37 C33.34,51.18 34.56,50.55 34.84,50.92 Z"></path>
                                <path d="M25.76,3.31 C24.78,2.46 23,1.56 21.96,1.18 C21.56,1.02 21.29,0.95 21.11,0.92 C20.93,0.89 20.83,0.86 20.76,0.86 C20.63,0.86 20.62,0.83 20.3,0.95 C20.93,0.63 21.66,0.6 22.36,0.58 C23.06,0.6 23.75,0.65 24.44,0.76 C25.81,0.97 27.14,1.32 28.45,1.74 C29.76,2.17 31.04,2.67 32.32,3.31 C32.97,3.65 33.58,3.95 34.34,4.56 C34.55,4.72 34.68,4.85 34.8,4.96 L35.19,5.33 C35.45,5.57 35.7,5.84 35.95,6.09 C35.57,5.95 35.21,5.71 34.83,5.46 L34.27,5.07 C34.03,4.91 33.78,4.73 33.55,4.61 C32.64,4.13 31.79,3.91 31.1,3.98 C31.05,4.07 31.4,4.39 31.54,4.6 C30.18,4.2 28.12,3.29 27.95,3.67 C27.85,3.9 28.08,4.36 28.08,4.79 L27.67,4.52 C27.29,4.14 26.56,3.79 25.76,3.31 Z"></path>
                                <path d="M32.24,9.37 C31.93,8.91 31.6,8.46 31.27,8.01 C31.23,7.96 31.2,7.91 31.17,7.86 C31.14,7.81 31.03,7.71 30.96,7.63 C30.82,7.47 30.6,7.29 30.4,7.11 C30.45,7.01 30.48,6.9 30.51,6.79 C30.75,7 31.01,7.21 31.19,7.4 C31.3,7.5 31.39,7.59 31.42,7.65 L31.64,7.93 C32.05,8.46 32.45,8.98 32.83,9.52 C32.63,9.46 32.43,9.4 32.24,9.37 Z"></path>
                                <path d="M31.54,4.61 C31.4,4.4 31.05,4.08 31.1,3.99 C31.79,3.92 32.64,4.14 33.55,4.62 C33.78,4.73 34.03,4.92 34.27,5.08 L34.83,5.47 C35.21,5.72 35.57,5.95 35.95,6.1 C37.49,7.69 38.8,9.51 39.94,11.25 C39.62,11.03 39.29,10.8 38.97,10.57 C39.64,11.53 38.69,12.35 39.28,13.32 C37.84,12.25 36.55,10.73 35.19,9.51 C34.51,8.9 33.84,8.34 33.16,7.91 C32.83,7.68 32.48,7.5 32.17,7.33 C31.85,7.19 31.69,7.22 31.37,7.17 C30.48,6.4 29.25,5.59 28.1,4.81 C28.1,4.38 27.86,3.92 27.97,3.69 C28.12,3.3 30.18,4.21 31.54,4.61 Z"></path>
                                <path d="M39.27,13.31 C38.68,12.34 39.63,11.52 38.96,10.56 C39.29,10.79 39.61,11.01 39.93,11.24 C40.6,12.24 41.23,13.21 41.89,14.14 C42.22,14.6 42.55,15.05 42.89,15.5 C43.16,15.84 43.74,16.63 44.07,17.28 C44.15,17.47 44.22,17.66 44.29,17.85 C45.06,19.95 45.51,21.59 45.65,23.44 C44.57,22.35 43.47,21.33 42.37,20.45 C42.63,19.26 42.68,17.91 42.21,16.52 C41.9,15.35 41.53,14.21 41.05,13.04 C41.39,13.86 40.46,14.17 40.54,14.65 C40.54,16.53 39.48,19.16 38.21,18.98 C37.16,17.4 36.26,15.76 35.44,14.22 C34.62,12.67 33.86,11.27 32.98,9.93 C33.02,9.63 33.07,9.18 32.97,9.03 C32.68,8.68 32.4,8.32 32.09,7.98 C31.95,7.83 31.76,7.59 31.67,7.5 L31.54,7.35 C31.49,7.3 31.4,7.23 31.33,7.17 C31.66,7.23 31.81,7.19 32.13,7.33 C32.45,7.5 32.79,7.68 33.12,7.91 C33.8,8.35 34.48,8.9 35.15,9.51 C36.54,10.72 37.83,12.24 39.27,13.31 Z"></path>
                                <path d="M42.37,20.44 C43.47,21.33 44.57,22.35 45.65,23.43 C45.67,23.89 45.68,24.37 45.65,24.87 C45.85,24.85 46.05,24.83 46.22,24.65 L46.35,25.67 C46.27,26.09 45.59,26.51 46.49,27.04 L46.59,28.46 C46.35,28.97 45.99,29.36 45.49,29.62 L46.2,29.62 C46.68,30.1 46.21,30.57 46.22,31.03 C46.35,31.03 46.54,31.04 46.7,31.08 C46.56,31.63 46.48,32.23 46.45,32.83 C46.41,33.42 46.43,34 46.45,34.56 C46.51,35.68 46.61,36.64 46.59,36.94 C46.44,37.26 46.31,37.59 46.18,37.92 C44.51,36.58 42.96,35.21 41.89,33.21 C41.89,33.21 41.17,33.19 40.94,32.95 C40.67,32.53 40.39,32.13 40.1,31.73 C40.73,30.56 40.73,29.19 40.55,28.14 C40.37,27.09 40.04,26.34 40.03,26.28 L39.96,25.31 C39.95,24.4 40.15,23.2 40.04,22.05 C39.95,20.92 39.47,19.78 38.57,19.51 L38.46,19.3 C38.42,19.22 38.31,19.07 38.24,18.95 C39.51,19.14 40.57,16.5 40.57,14.62 C40.5,14.14 40.59,12.39 41.08,13.01 C41.44,13.6 41.72,14.33 41.96,15.1 C42.08,15.48 42.19,15.88 42.28,16.27 C42.33,16.49 42.39,16.71 42.44,16.92 C42.5,17.15 42.55,17.38 42.58,17.59 C42.77,19.35 42.33,20.51 42.37,20.44 Z"></path>
                                <path d="M1.85,54.36 C1.21,53.92 0.58,53.43 0.18,52.74 C0.61,53.48 1.33,54.01 1.74,54.2 C2.03,54.43 2.42,54.63 2.8,54.83 C2.49,54.71 2.17,54.55 1.85,54.36 Z"></path>
                                <path d="M3.44,54.55 C3.65,54.63 3.86,54.68 4.08,54.75 C4.04,54.85 3.57,54.8 3.18,54.59 C3.14,54.66 3.59,54.75 3.58,54.79 C3.53,54.9 3.29,54.81 3.02,54.68 C3.11,54.53 3.5,54.47 3.82,54.55 L4.24,54.66 C3.97,54.63 3.58,54.55 3.44,54.55 Z"></path>
                                <path d="M10.54,56.25 C11.11,56.39 11.51,56.56 12.19,56.77 C11.41,57.29 10.69,57.78 9.91,58.09 C7.85,57.39 6,56.57 4.13,55.65 C4.48,55.77 4.83,55.88 5.16,55.93 C4.76,55.78 4.36,55.61 4.03,55.43 C4.12,55.44 4.2,55.45 4.27,55.43 L4.27,55.43 C4.55,55.56 4.79,55.64 4.85,55.49 C4.87,55.44 4.4,55.39 4.45,55.29 C4.85,55.5 5.32,55.52 5.37,55.39 C5.15,55.33 4.94,55.26 4.73,55.2 C4.87,55.18 5.26,55.26 5.53,55.27 C6.46,55.5 7.4,55.7 8.33,55.84 C9.25,55.97 10.23,56.09 11.01,56.02 C10.87,56.11 10.71,56.17 10.54,56.25 Z"></path>
                            </g>
                        </g>
                    </g>
                </g>
                <g opacity="0.1" transform="translate(9.000000, 10.000000)" fill="#FFFFFF" fill-rule="nonzero" id="Path">
                    <g opacity="0.9">
                        <g>
                            <g>
                                <path d="M4.68,7.16 C5.68,5.8 6.77,4.57 7.95,3.46 C7.82,3.83 7.69,4.2 7.57,4.57 C7.09,5.72 5.63,6.14 4.68,7.16 Z"></path>
                                <path d="M2.3,11.3 C2.3,11.3 2.3,11.29 2.29,11.29 C2.85,10.02 3.53,8.86 4.27,7.77 C4.23,7.85 4.19,7.93 4.15,8.01 C3.78,9.25 3.38,10.37 2.3,11.3 Z"></path>
                                <path d="M9.17,29.03 C8.24,29.07 7.12,28.91 6.14,28.43 C5.07,27.97 4.17,27.15 3.22,26.17 C3.07,26.03 2.76,25.92 2.72,25.79 C2.68,25.8 2.56,25.6 2.38,25.22 C2.21,24.86 1.95,24.31 1.8,23.88 C2.94,24.09 4.17,24.17 5.53,24.25 C5.66,23.83 5.67,23.02 6.1,22.89 C7.81,22.6 9.08,23.07 10.18,24.09 C10.17,24.19 10.12,24.58 10.02,25.18 C9.95,25.51 9.91,25.83 9.79,26.26 C9.73,26.47 9.67,26.68 9.61,26.9 L9.48,27.09 C9,27.59 8.96,28.47 9.17,29.03 Z"></path>
                                <path d="M10.64,32.15 C10.91,32.59 11.24,33.16 11.57,33.7 C11.91,34.21 12.22,34.68 12.43,34.92 C11.88,35.09 11.28,35.25 10.59,35.36 C10.78,35.77 10.89,36.09 11.18,36.38 L10.76,36.43 C8.86,35.54 6.92,34.47 5.2,32.66 C5.46,32.59 6.67,32.72 7.81,32.64 C9,32.57 10.07,32.4 10.64,32.15 Z"></path>
                                <path d="M9.05,29.74 C9.23,30.01 9.51,30.22 9.71,30.44 C9.82,30.72 9.99,30.99 10.14,31.27 C10.28,31.56 10.45,31.85 10.64,32.15 C9.52,32.64 8.22,32.92 6.82,32.72 C6.91,32.83 6.62,33.23 6.73,33.34 C5.99,32.99 5.73,32.52 5.22,32.66 C4.84,32.22 4.47,31.74 4.12,31.24 C3.83,30.68 3.48,30.14 3.26,29.51 L2.96,28.54 L2.82,28.04 L2.76,27.53 C2.72,27.19 2.69,26.84 2.67,26.49 C2.66,26.35 2.66,26.05 2.63,26.09 C2.61,26.06 2.6,26.03 2.58,26 C2.69,26.03 2.76,26.06 2.81,26.09 C2.83,26.11 2.85,26.12 2.87,26.14 C2.88,26.21 2.88,26.29 2.88,26.36 C2.88,26.65 2.84,26.95 2.86,27.24 C3.34,26.97 3.36,26.56 3.24,26.17 C4.19,27.15 5.09,27.97 6.16,28.43 C7.13,28.91 8.25,29.07 9.19,29.03 L9.27,29.28 C9.08,29.46 8.91,29.63 9.05,29.74 Z"></path>
                                <path d="M5.28,11.11 C5.71,12.73 6.95,14.04 8.51,15.06 C8.27,15.24 7.76,15.64 8.09,16.09 C8.04,16.25 7.97,16.46 7.89,16.68 C7.85,16.81 7.81,16.91 7.77,17.07 L7.71,17.29 L7.64,17.6 C7.63,17.65 7.56,17.96 7.49,18.15 C7.45,18.2 7.5,18.28 7.39,18.29 L7.44,18.31 L7.44,18.32 C7.45,18.33 7.45,18.33 7.46,18.35 C7.51,18.41 7.58,18.45 7.73,18.46 C7.88,18.47 7.8,18.47 7.57,18.42 C7.46,18.39 7.3,18.34 7.12,18.28 C6.95,18.23 6.75,18.14 6.55,18.01 C6.31,17.22 5.77,16.93 5.34,16.52 C4.89,16.14 4.47,15.76 4.15,15.47 C3.24,15.19 2.58,14.53 2.11,13.71 C2.23,13.53 2.75,13.86 2.89,13.69 C2.8,13.67 2.29,13.12 2.29,13.12 C2.29,13.12 2.41,12.76 2.6,12.33 C2.78,11.9 3.02,11.39 3.19,11.07 C4.18,11.15 3.94,10.08 3.79,9.95 C3.89,9.77 3.99,9.58 4.11,9.41 L4.13,9.4 C4.24,9.78 4.37,10.17 4.49,10.54 C4.65,10.78 5.28,11.11 5.28,11.11 Z"></path>
                                <path d="M6.12,22.88 C7.83,22.59 9.1,23.06 10.2,24.08 C10.21,23.85 10.24,23.44 10.26,23.08 C10.27,22.73 10.28,22.43 10.28,22.37 C9.93,22.6 9.56,22.9 9.36,22.71 C9.02,22.16 8.62,21.55 8.52,21.18 C8.51,20.65 8.91,20.01 9.1,19.53 C8.99,19.38 8.9,19.27 8.79,19.13 C8.69,19.02 8.6,18.92 8.49,18.81 C8.49,18.81 7.83,18.78 7.54,18.81 C7.52,18.63 7.64,18.53 7.77,18.46 C7.73,18.46 7.58,18.43 7.33,18.33 C7.2,18.27 7.07,18.24 6.92,18.15 L6.8,18.08 C6.76,18.04 6.71,18.06 6.7,17.92 C6.67,17.72 6.63,17.45 6.54,17.38 C6.22,16.9 5.81,16.59 5.41,16.24 C5,15.91 4.6,15.62 4.19,15.47 C3.28,15.19 2.62,14.53 2.15,13.71 C2.15,13.72 2.1,13.83 2.04,14.01 C1.97,14.19 1.9,14.44 1.82,14.71 C1.66,15.25 1.51,15.94 1.44,16.24 C1.62,16.24 2.04,16.05 2.12,15.96 C2.11,16.02 1.94,16.21 1.75,16.37 L1.62,16.43 L1.59,16.44 L1.57,16.45 L1.57,16.45 C1.58,16.45 1.55,16.45 1.58,16.45 L1.73,16.48 L1.98,16.53 L2.04,16.54 C2.37,16.57 2.68,16.62 2.99,16.7 C3.3,16.77 3.59,16.86 3.87,16.96 L4.08,17.04 L4.18,17.08 L4.23,17.1 L4.24,17.11 L4.25,17.11 L4.25,17.11 L1.53,16.1 L1.53,16.1 L1.49,16.17 C1.43,16.26 1.39,16.34 1.35,16.4 C1.17,16.88 1.01,17.69 1.01,18.32 C1,18.95 1.07,19.42 1.1,19.49 C1.12,19.69 1.55,19.24 2.03,19.2 C1.46,20.07 1.24,20.91 1.21,21.66 L1.34,22.21 C1.18,22.31 1.08,22.38 1.05,22.32 C0.96,22.22 0.89,22.12 0.82,22.01 C0.89,22.41 1.21,23.69 1.27,23.95 C1.29,23.63 1.36,23.24 1.5,22.86 L1.8,23.83 L1.82,23.86 C2.96,24.06 4.18,24.14 5.54,24.23 C5.67,23.83 5.68,23.02 6.12,22.88 Z"></path>
                                <path d="M25.3,2.38 C26.03,2.89 27.14,3.53 27.59,4.07 C28.3,4.82 27.91,4.62 28.3,4.78 C27.49,4.54 26.78,4.51 26.07,4.53 C25.37,4.55 24.68,4.62 23.98,4.72 C22.59,4.93 21.2,5.21 19.82,5.6 C20.42,4.78 21.65,4.76 22.21,3.89 C22.21,3.78 21.95,3.7 21.81,3.6 C22.56,3.17 23.88,3.16 23.9,2.76 C23.91,2.51 23.68,2.18 23.57,1.78 L23.88,1.86 C24.2,2.08 24.72,2.14 25.3,2.38 Z"></path>
                                <path d="M19.04,0.73 C19.83,0.75 20.62,0.78 21.42,0.9 C21.44,1.01 21.47,1.12 21.5,1.23 C20.58,1.09 19.66,1.09 18.76,1.13 C18.85,1 18.95,0.87 19.04,0.73 Z"></path>
                                <path d="M21.81,3.6 C21.95,3.7 22.21,3.78 22.21,3.89 C21.65,4.76 20.42,4.78 19.82,5.6 C18.76,5.89 17.7,6.22 16.66,6.6 C16.81,6.4 16.95,6.2 17.1,5.99 C16.52,6.2 16.1,5.05 15.48,5.23 C16.93,3.41 19.44,2.72 20.84,1.43 C21.74,1.46 22.66,1.55 23.57,1.78 C23.68,2.17 23.92,2.5 23.9,2.76 C23.88,3.16 22.56,3.18 21.81,3.6 Z"></path>
                                <path d="M15.48,5.24 C16.1,5.06 16.52,6.22 17.1,6 C16.95,6.2 16.81,6.41 16.66,6.61 C15.47,7.04 14.26,7.54 13.24,8.09 C13.16,8.1 13.09,8.12 13.02,8.14 C12.83,8.2 12.63,8.28 12.55,8.33 C12.53,8.34 12.49,8.36 12.5,8.36 L12.5,8.36 C12.5,8.36 12.5,8.36 12.5,8.36 L12.39,8.19 L11.94,7.53 C11.84,7.35 11.72,7.18 11.59,7.03 C11.52,6.95 11.46,6.87 11.38,6.8 L11.27,6.69 L11.26,6.68 L11.26,6.68 C10.94,6.35 14.04,9.56 12.73,8.2 L12.73,8.2 L12.73,8.2 L12.72,8.21 L12.61,8.33 C12.32,8.64 12.03,8.94 11.69,9.22 C11.55,8.69 11.44,8.17 11.34,7.64 L11.21,6.84 C11.18,6.56 11.09,6.38 11.16,6.1 C12.76,6.58 14.17,7.03 15.59,6.99 C15.09,7 14.93,6.05 14.64,5.95 C13.5,5.27 11.82,3.35 11.99,2.28 C14.14,1.6 16.26,1.2 18.47,1.09 C18.65,1.28 18.91,1.57 19.03,1.57 C19.63,1.5 20.24,1.46 20.86,1.47 C19.44,2.73 16.93,3.42 15.48,5.24 Z"></path>
                                <path d="M11.14,6.07 C11.07,6.35 11.17,6.53 11.19,6.81 L11.32,7.61 C11.42,8.14 11.53,8.67 11.67,9.19 C11.5,9.33 11.32,9.47 11.1,9.6 C11.25,9.73 11.4,9.86 11.6,9.93 L11.31,10.32 C11.11,10.39 10.45,10.1 10.96,10.86 C10.84,11.05 10.71,11.22 10.6,11.41 C10.26,11.45 9.86,11.39 9.38,11.21 L9.96,11.61 C10.22,12.06 9.72,11.98 9.62,12.18 C9.73,12.25 9.89,12.35 10.02,12.45 C9.52,12.73 9.25,13.28 9.12,13.77 C8.98,14.26 9.01,14.68 8.96,14.8 C8.79,14.88 8.65,14.97 8.52,15.08 C6.96,14.06 5.72,12.75 5.29,11.13 C5.29,11.13 4.65,10.79 4.52,10.55 C4.4,10.18 4.26,9.79 4.16,9.41 C5.1,9 5.6,8.28 5.91,7.6 C6.24,6.95 6.35,6.35 6.38,6.31 L6.83,5.8 C7.31,5.35 8.13,5.01 8.81,4.54 C8.91,4.47 8.94,4.45 9.1,4.32 C9.23,4.21 9.37,4.11 9.5,4.02 L9.75,3.87 C10.07,3.69 10.28,3.58 10.49,3.44 C10.9,3.17 11.21,2.86 11.46,2.43 L11.97,2.26 C11.8,3.33 13.48,5.24 14.62,5.93 C14.92,6.04 15.96,6.76 15.57,6.97 C14.85,7.18 13.77,6.94 12.83,6.64 C11.91,6.32 11.19,6.09 11.14,6.07 Z"></path>
                                <path d="M16.36,37.99 C16.75,38.2 17.16,38.38 17.58,38.55 C17.12,38.38 16.69,38.15 16.42,38.1 C16.23,38 16,37.9 15.78,37.8 C15.97,37.85 16.16,37.91 16.36,37.99 Z"></path>
                                <path d="M15.31,38.17 L14.91,38.07 C14.96,37.98 15.26,37.97 15.49,38.08 C15.53,38 15.23,38 15.25,37.96 C15.31,37.85 15.45,37.9 15.61,37.97 C15.53,38.13 15.25,38.25 15.05,38.22 L14.78,38.17 C14.97,38.16 15.22,38.19 15.31,38.17 Z"></path>
                                <path d="M11.19,36.37 C10.89,36.08 10.79,35.76 10.6,35.35 C11.29,35.25 11.89,35.08 12.44,34.91 C13.21,35.81 14.09,36.58 15.08,37.24 C14.88,37.17 14.68,37.1 14.49,37.07 C14.71,37.19 14.92,37.31 15.1,37.44 C15.04,37.44 14.99,37.45 14.94,37.47 L14.94,37.47 C14.78,37.38 14.65,37.32 14.58,37.46 C14.55,37.51 14.85,37.51 14.8,37.61 C14.58,37.46 14.29,37.46 14.22,37.58 L14.59,37.72 C14.49,37.75 14.25,37.7 14.08,37.7 C12.97,37.35 11.87,36.92 10.78,36.42 L11.19,36.37 Z"></path>
                            </g>
                        </g>
                    </g>
                </g>
                <g opacity="0.3" transform="translate(1.000000, 2.000000)" fill="url(#linearGradient-2)" fill-rule="nonzero" id="Path">
                    <path d="M21.28,0.29 C19.04,0.76 12,3.48 8.19,7.43 C4.1,11.67 1.25,19.79 0.6,27.59 C0.47,29.2 1.18,36.7 2.53,38.75 C5.51,43.27 4.72,32.2 4.98,27.14 C5.5,17.13 9.08,13.29 11.4,11.07 C16.36,6.32 29.02,-1.35 21.28,0.29 Z"></path>
                </g>
                <g opacity="0.3" transform="translate(12.000000, 14.000000)" fill="url(#linearGradient-3)" fill-rule="nonzero" id="Path">
                    <path d="M12.17,0.96 C9.88,1.11 7.54,0.61 4.13,4.92 C2.31,7.22 -0.48,11.86 0.68,19.6 C1.57,25.55 7.7,29.76 7.56,27.31 C7.4,24.35 3.86,22.88 3.16,17.86 C2.38,12.29 3.88,8.01 5.69,5.36 C9.56,-0.31 16.27,0.7 12.17,0.96 Z"></path>
                </g>
                <path d="M19.9,2.59 C9.79,5.77 5.47,12.11 3.39,18.51 C1.31,24.91 -0.48,31.9 2.2,40.23 C4.88,48.56 9.04,53.77 16.33,57.49 C23.62,61.21 27.19,61.66 34.93,60.02 C42.67,58.38 55.16,53.03 59.18,44.1 C63.2,35.17 63.2,22.23 55.46,11.22 C47.72,0.21 30.31,-0.69 19.9,2.59 Z" id="Path" stroke="#231F20" stroke-width="1.3422"></path>
                <g opacity="0.1" transform="translate(27.000000, 29.000000)" fill="#FFFFFF" fill-rule="nonzero" id="Path">
                    <g opacity="0.9">
                        <g>
                            <g>
                                <path d="M17.71,11.54 C18.16,10.97 18.55,10.36 18.92,9.71 C18.91,9.9 18.91,10.08 18.9,10.26 C18.81,10.87 18.12,11.14 17.71,11.54 Z"></path>
                                <path d="M16.36,12.95 L16.36,12.95 C16.77,12.58 17.16,12.2 17.52,11.77 C17.5,11.8 17.48,11.83 17.46,11.87 C17.27,12.39 16.94,12.84 16.36,12.95 Z"></path>
                                <path d="M8.87,21.05 C9.41,19.9 9.52,18.75 9.75,17.51 C9.88,17.35 9.99,17.11 10.12,17.02 C10.09,16.99 11.02,16.27 11.53,15.98 C11.47,16.6 11.49,17.25 11.6,17.94 C11.86,17.92 12.32,17.8 12.43,18 C12.74,18.82 12.57,19.51 12.36,20.14 C12.28,20.15 11.71,20.24 11.03,20.39 C10.4,20.53 9.56,20.83 8.87,21.05 Z"></path>
                                <path d="M6.11,21.21 C5.39,21.21 4.41,21.06 4.01,21.04 C4.2,20.78 4.39,20.5 4.63,20.21 C4.38,20.14 4.21,20.07 3.98,20.08 L4.13,19.91 C5.27,19.53 6.29,19.1 7.52,18.67 C7.46,18.8 7.16,19.33 6.86,19.86 C6.56,20.4 6.21,20.91 6.11,21.21 Z"></path>
                                <path d="M8.19,21 L7.93,21.06 L7.8,21.1 C7.69,21.13 7.59,21.16 7.48,21.2 C7.04,21.22 6.58,21.23 6.11,21.22 C6.33,20.61 6.66,19.98 7.11,19.39 C7.03,19.41 6.92,19.19 6.85,19.21 C7.19,18.95 7.46,18.93 7.54,18.67 C7.68,18.64 7.69,18.63 7.72,18.61 L7.83,18.55 L8.05,18.41 C8.2,18.31 8.37,18.18 8.55,18.04 C8.91,17.76 9.38,17.4 9.82,17.09 C9.72,17.4 9.48,17.44 9.28,17.57 C9.49,17.73 9.64,17.65 9.76,17.5 C9.53,18.74 9.42,19.89 8.88,21.04 L8.58,21.1 C8.45,21.02 8.35,20.92 8.19,21 Z"></path>
                                <path d="M17.72,13.46 C17.67,14.32 17.8,15.23 18.03,16.2 C17.8,16.27 17.36,16.36 17.23,16.7 C16.76,17.01 15.69,17.39 15.68,17.74 C15.68,18.1 16.04,16.02 16,15.14 C15.78,14.71 15.78,14.26 15.81,13.81 C15.9,13.78 16.01,14.07 16.11,14.05 C16.09,14.02 16.02,13.65 16.02,13.65 C16.02,13.65 16.55,13.28 16.78,13.07 C17.21,13.31 17.25,12.77 17.19,12.7 L17.39,12.51 L17.4,12.51 C17.42,12.7 17.44,12.88 17.45,13.07 C17.47,13.2 17.72,13.46 17.72,13.46 Z"></path>
                                <path d="M12.44,18 C12.75,18.82 12.58,19.51 12.37,20.14 C12.57,20.1 13.08,19.99 13.13,19.98 C12.98,19.83 12.79,19.69 12.86,19.57 C13.09,19.34 13.38,19.06 13.59,18.96 C13.89,18.88 14.31,18.98 14.66,18.96 C14.86,18.78 15.06,18.58 15.25,18.38 C15.26,18.37 15.23,18.01 15.16,17.89 C15.32,17.8 15.49,17.77 15.68,17.74 C15.67,17.68 16.37,15.93 16,15.14 C15.78,14.71 15.78,14.26 15.81,13.81 C15.8,13.82 15.63,13.92 15.41,14.04 C15.19,14.16 14.93,14.31 14.76,14.4 C14.82,14.47 15.05,14.56 15.1,14.56 C15.05,14.59 14.57,14.56 14.41,14.58 C14.18,14.69 13.63,15 13.59,15.06 C13.53,15.1 13.77,15.23 13.89,15.44 C13.45,15.32 13.06,15.3 12.7,15.38 L12.44,15.51 C12.37,15.45 12.32,15.4 12.36,15.38 C12.4,15.33 12.44,15.28 12.49,15.23 C12.33,15.31 11.64,15.63 11.46,15.72 C11.67,15.67 11.89,15.66 12.12,15.67 L11.58,15.97 L11.56,15.99 C11.51,16.6 11.53,17.26 11.63,17.94 C11.87,17.92 12.33,17.8 12.44,18 Z"></path>
                                <path d="M22.77,2.03 C23.06,1.64 23.3,0.99 23.48,0.63 C23.7,0.07 23.66,0.3 23.66,0.07 C24.04,1.97 23.87,3.82 23.59,5.69 C23.36,5.15 23.58,4.39 23.25,3.93 C23.2,3.92 23.12,4.06 23.05,4.13 C22.97,3.63 23.1,2.86 22.9,2.82 C22.77,2.8 22.59,2.91 22.39,2.93 L22.46,2.77 C22.57,2.61 22.63,2.34 22.77,2.03 Z"></path>
                                <path d="M21.18,5.11 L21.68,3.95 C21.74,3.96 21.79,3.96 21.85,3.96 C21.65,4.42 21.48,4.88 21.31,5.33 C21.27,5.26 21.23,5.18 21.18,5.11 Z"></path>
                                <path d="M23.04,4.13 C23.11,4.07 23.19,3.92 23.24,3.93 C23.58,4.39 23.36,5.15 23.58,5.69 C23.47,6.41 23.32,7.13 23.14,7.85 C23.1,7.71 23.06,7.56 23.03,7.42 C22.94,7.82 22.34,7.7 22.21,8.08 C21.96,6.77 22.23,5.29 21.84,4.34 C22.01,3.88 22.17,3.41 22.37,2.94 C22.57,2.91 22.76,2.8 22.88,2.83 C23.09,2.86 22.96,3.63 23.04,4.13 Z"></path>
                                <path d="M22.22,8.07 C22.35,7.7 22.94,7.81 23.04,7.41 C23.08,7.56 23.12,7.7 23.15,7.84 C22.95,8.67 22.69,9.5 22.39,10.32 C22.36,10.37 22.32,10.42 22.29,10.47 C21.97,11.06 21.76,11.59 21.38,12.11 C21.2,11.51 21.01,10.94 20.83,10.4 C21.68,10 22.44,9.39 22.92,8.57 C22.74,8.86 22.32,8.61 22.18,8.73 C21.51,9.12 20.21,9.07 19.89,8.64 C20.36,7.62 20.78,6.56 21.21,5.46 C21.33,5.41 21.52,5.34 21.54,5.28 C21.64,4.95 21.74,4.63 21.83,4.33 C22.24,5.28 21.97,6.76 22.22,8.07 Z"></path>
                                <path d="M20.84,10.41 C21.01,10.95 21.21,11.52 21.39,12.12 C21.29,12.25 21.18,12.37 21.05,12.5 C21.13,12.55 21.22,12.61 21.33,12.61 L21.15,12.93 C21.03,13.03 20.66,12.93 20.88,13.35 L20.59,13.78 C20.38,13.85 20.15,13.84 19.89,13.75 L20.16,13.98 C20.23,14.27 19.93,14.25 19.82,14.38 C19.87,14.42 19.94,14.49 19.99,14.55 C19.25,14.98 18.6,15.98 18.41,16.11 C18.28,16.14 18.15,16.17 18.03,16.2 C17.81,15.23 17.67,14.32 17.72,13.46 C17.72,13.46 17.47,13.2 17.44,13.07 C17.43,12.88 17.42,12.69 17.39,12.51 C17.85,12.43 18.16,12.12 18.29,11.79 C18.44,11.47 18.48,11.2 18.48,11.17 L18.66,10.9 C19.08,10.47 20.06,9.84 19.78,8.89 L19.89,8.65 C20.21,9.08 21.51,9.13 22.18,8.74 C22.33,8.63 22.97,8.29 22.92,8.58 C22.75,9.07 22.24,9.57 21.75,9.91 C21.25,10.24 20.81,10.42 20.84,10.41 Z"></path>
                                <path d="M0.96,21.01 C0.7,20.98 0.4,21.02 0.19,20.83 C0.42,21.02 0.75,20.98 0.9,20.97 C1.03,20.98 1.18,20.97 1.32,20.96 C1.21,20.98 1.08,21 0.96,21.01 Z"></path>
                                <path d="M1.45,20.68 L1.67,20.62 C1.67,20.67 1.53,20.75 1.37,20.76 C1.37,20.8 1.52,20.73 1.52,20.75 C1.52,20.81 1.44,20.83 1.33,20.84 C1.33,20.75 1.43,20.63 1.54,20.59 L1.69,20.54 C1.63,20.6 1.49,20.64 1.45,20.68 Z"></path>
                                <path d="M3.98,20.09 C4.21,20.08 4.38,20.15 4.63,20.22 C4.39,20.51 4.2,20.79 4.01,21.05 C3.28,21 2.58,21 1.86,21 C1.99,20.98 2.11,20.94 2.22,20.9 C2.07,20.92 1.92,20.93 1.79,20.93 C1.82,20.92 1.84,20.9 1.86,20.88 L1.86,20.88 C1.97,20.88 2.05,20.86 2.05,20.78 C2.05,20.75 1.9,20.84 1.89,20.78 C2.05,20.78 2.19,20.69 2.18,20.62 L1.95,20.68 C1.99,20.64 2.12,20.59 2.2,20.53 C2.85,20.34 3.49,20.14 4.13,19.92 L3.98,20.09 Z"></path>
                            </g>
                        </g>
                    </g>
                </g>
                <polygon id="Path" stroke="#231F20" stroke-width="0.3356" fill="#FFFFFF" fill-rule="nonzero" points="38.47 21.01 38.47 43.02 32.53 43.02 32.53 33.78 30.74 33.78 30.74 43.02 24.8 43.02 24.8 21.01 30.74 21.01 30.74 28.88 32.53 28.88 32.53 21.01"></polygon>
            </g>
        </g>
    </g>
</svg>