<?xml version="1.0" encoding="UTF-8"?>
<svg width="729px" height="822px" viewBox="0 0 729 822" version="1.1" xmlns="http://www.w3.org/2000/svg" xmlns:xlink="http://www.w3.org/1999/xlink">
    <!-- Generator: Sketch 62 (91390) - https://sketch.com -->
    <title>Group 35</title>
    <desc>Created with Sketch.</desc>
    <defs>
        <linearGradient x1="50%" y1="0%" x2="50%" y2="99.5671453%" id="linearGradient-1">
            <stop stop-color="#BEF3FF" offset="0%"></stop>
            <stop stop-color="#456E8E" offset="100%"></stop>
        </linearGradient>
        <linearGradient x1="50%" y1="0%" x2="50%" y2="100%" id="linearGradient-2">
            <stop stop-color="#E1CAFF" offset="0%"></stop>
            <stop stop-color="#7C4AB3" offset="100%"></stop>
        </linearGradient>
        <linearGradient x1="50%" y1="0%" x2="50%" y2="100%" id="linearGradient-3">
            <stop stop-color="#E1CAFF" offset="0%"></stop>
            <stop stop-color="#7C4AB3" offset="100%"></stop>
        </linearGradient>
        <linearGradient x1="50%" y1="0%" x2="50%" y2="100%" id="linearGradient-4">
            <stop stop-color="#F8E4FF" offset="0%"></stop>
            <stop stop-color="#AD5AC1" offset="100%"></stop>
        </linearGradient>
        <linearGradient x1="50%" y1="0%" x2="50%" y2="100%" id="linearGradient-5">
            <stop stop-color="#F8E4FF" offset="0%"></stop>
            <stop stop-color="#AD5AC1" offset="100%"></stop>
        </linearGradient>
        <filter x="-2.3%" y="-3.7%" width="104.6%" height="107.4%" filterUnits="objectBoundingBox" id="filter-6">
            <feOffset dx="0" dy="2" in="SourceAlpha" result="shadowOffsetOuter1"></feOffset>
            <feGaussianBlur stdDeviation="2" in="shadowOffsetOuter1" result="shadowBlurOuter1"></feGaussianBlur>
            <feColorMatrix values="0 0 0 0 0   0 0 0 0 0   0 0 0 0 0  0 0 0 0.5 0" type="matrix" in="shadowBlurOuter1" result="shadowMatrixOuter1"></feColorMatrix>
            <feMerge>
                <feMergeNode in="shadowMatrixOuter1"></feMergeNode>
                <feMergeNode in="SourceGraphic"></feMergeNode>
            </feMerge>
        </filter>
    </defs>
    <g id="Page-1" stroke="none" stroke-width="1" fill="none" fill-rule="evenodd">
        <g id="Group-35" transform="translate(6.000000, -71.000000)">
            <g id="charcece_popup" transform="translate(81.000000, 0.000000)">
                <polygon id="Star" fill="url(#linearGradient-1)" fill-rule="nonzero" transform="translate(321.000000, 426.819364) scale(-1, 1) translate(-321.000000, -426.819364) " points="321 641.486816 122.91637 731.638727 147.444724 515.391528 0.493954 354.861273 213.736941 311.365064 321 122 428.263059 311.365064 641.506046 354.861273 494.555276 515.391528 519.08363 731.638727"></polygon>
                <g id="Star" transform="translate(153.000000, 239.000000) scale(-1, 1) translate(-153.000000, -239.000000) translate(2.000000, 96.000000)">
                    <g id="path-3-link" fill="#000000" fill-rule="nonzero">
                        <polygon id="path-3" points="151 243.709864 58.1299301 286.003353 69.6298707 184.55405 0.7330704 109.24356 100.710494 88.837931 151 0 201.289506 88.837931 301.26693 109.24356 232.370129 184.55405 243.87007 286.003353"></polygon>
                    </g>
                    <g id="path-3-link" fill="url(#linearGradient-3)">
                        <polygon id="path-3" points="151 243.709864 58.1299301 286.003353 69.6298707 184.55405 0.7330704 109.24356 100.710494 88.837931 151 0 201.289506 88.837931 301.26693 109.24356 232.370129 184.55405 243.87007 286.003353"></polygon>
                    </g>
                </g>
                <g id="Star" transform="translate(538.500000, 670.500000) scale(-1, 1) translate(-538.500000, -670.500000) translate(444.000000, 581.000000)">
                    <g id="path-6-link" fill="#000000" fill-rule="nonzero">
                        <polygon id="path-6" points="94.5 152.089615 36.603153 178.483296 43.772419 115.172828 0.820933 68.174553 63.148631 55.440213 94.5 0 125.851369 55.440213 188.179067 68.174553 145.227581 115.172828 152.396847 178.483296"></polygon>
                    </g>
                    <g id="path-6-link" fill="url(#linearGradient-5)">
                        <polygon id="path-6" points="94.5 152.089615 36.603153 178.483296 43.772419 115.172828 0.820933 68.174553 63.148631 55.440213 94.5 0 125.851369 55.440213 188.179067 68.174553 145.227581 115.172828 152.396847 178.483296"></polygon>
                    </g>
                </g>
                <g id="Group-3" transform="translate(405.000000, 465.500000) scale(-1, 1) translate(-405.000000, -465.500000) translate(204.000000, 72.000000)" fill-rule="nonzero">
                    <path d="M380.808586,593.045988 C378.706692,594.720776 378.719457,604.376224 378.540192,611.117414 C378.459632,614.146838 378.387121,616.67924 378.196651,617.905449 C377.99873,619.179621 377.93758,620.382405 377.880085,621.486566 C377.764967,623.697326 377.6082,625.534346 376.730254,626.878087 C375.992016,628.007997 374.778852,628.863726 372.592757,629.249193 C371.38929,629.461397 370.367815,629.41346 369.504712,629.124938 C368.589316,628.818935 367.832716,628.248045 367.227764,627.372458 C366.199916,625.884786 365.619142,623.394381 365.465476,619.687477 C365.371941,617.43114 365.4088,614.697159 365.446826,611.924513 C365.504431,607.724183 365.569787,603.432543 365.156355,600.643528 C365.02119,599.731704 364.849562,598.996062 364.573472,598.530885 C363.900063,598.471552 363.03687,599.828273 361.823677,601.327879 C359.339597,604.398409 355.859723,608.638477 352.011589,610.459939 C351.097534,610.892595 350.189803,611.030031 349.3325,610.949309 C348.395433,610.861077 347.515532,610.509168 346.753645,609.973479 C345.131117,608.832667 344.072559,606.857383 344.107202,604.983755 C344.186345,600.703409 347.841323,595.981796 351.476264,591.449894 C354.966424,587.098499 358.709688,582.87743 357.452208,579.450678 C357.336253,579.134688 357.263173,578.780053 357.193234,578.415978 C357.105284,577.958141 357.110425,577.383728 356.602659,577.099629 C356.158609,576.851179 355.444694,576.820762 354.326302,576.98307 C352.119369,577.303353 349.555454,578.216453 347.032863,579.106572 C344.238751,580.092499 341.492272,581.047864 339.287148,581.26909 C337.31501,581.466943 335.761487,581.072248 334.756118,579.956813 C333.721734,578.809186 333.162032,577.676281 332.941587,576.580072 C332.6894,575.326014 332.876118,574.105128 333.381317,572.930275 C334.608976,570.075325 337.853987,567.492338 340.500408,565.44122 C341.01981,565.038655 341.512702,564.656762 341.955701,564.297034 C348.632366,558.875379 358.455784,556.045869 368.979644,554.07195 C368.76672,552.09255 368.54698,550.014152 368.316734,547.836369 C366.30826,528.839236 363.499598,502.270455 357.433343,467.873105 C355.897123,459.162315 354.319609,450.899889 352.739716,443.096807 C347.370977,499.227437 331.779241,543.197013 307.638001,572.110304 C305.975358,592.502379 304.42729,620.018191 306.796006,653.886422 C309.979225,699.400507 319.643163,727.926966 325.152463,744.190636 C326.51682,748.21827 327.627705,751.501182 328.329488,754.109713 C332.556512,757.714597 336.265158,765.089034 336.265158,774.6608 C336.265158,777.290662 335.801765,779.356454 334.974161,780.98446 C334.050675,782.801077 332.674133,784.094111 330.9186,785.004201 C326.868912,787.10361 320.660684,787.065669 313.469859,786.951393 C311.829344,786.925322 310.137213,786.89839 308.411323,786.898387 C306.856372,786.902232 305.243168,786.924479 303.600118,786.947115 C295.076936,787.064536 285.772443,787.162567 279.501879,784.881592 C276.998995,783.971145 274.965007,782.683785 273.583318,780.923409 C272.298418,779.286351 271.559195,777.237107 271.559195,774.6608 C271.559195,772.463408 272.607234,770.348664 274.499606,768.369572 C276.451699,766.328023 279.313351,764.41958 282.70264,762.685974 C291.081288,758.400333 302.716671,755.147336 311.296138,753.293891 C299.717254,737.613439 286.74949,704.364823 283.788353,662.026078 C282.188332,639.148761 282.951317,614.596801 285.168783,592.941764 C267.715046,605.170236 247.297033,611.609411 224.264504,611.609411 C214.652513,611.609411 205.348018,610.319807 196.411329,607.829586 C194.151564,623.129096 191.771147,643.311968 191.771147,668.047985 C191.771147,703.200175 197.651202,725.644283 201.003216,738.440219 C202.427774,743.878306 203.38037,747.626118 203.310954,749.902835 C203.880209,752.315253 204.206559,754.964247 204.206559,757.80524 C204.206559,760.435102 203.743165,762.500894 202.915561,764.1289 C201.992075,765.945518 200.615534,767.238551 198.860001,768.148641 C194.810313,770.24805 188.602084,770.210109 181.41126,770.095833 C179.770744,770.069762 178.078613,770.042831 176.35025,770.042831 C174.71238,770.042831 172.995717,770.067006 171.238145,770.091721 C162.885645,770.209174 153.633969,770.308788 147.389783,768.014924 C144.906625,767.102712 142.884947,765.814321 141.511124,764.053648 C140.235644,762.41901 139.500595,760.374159 139.500595,757.80524 C139.500595,755.455122 140.702177,753.197506 142.852311,751.098658 C145.092935,748.911479 148.372161,746.883829 152.198349,745.064198 C162.409985,740.207822 176.547279,736.793047 184.554999,735.395517 C178.38862,721.113893 173.217684,699.136131 173.217684,673.0717 C173.217684,648.717638 176.825527,622.163323 181.5834,602.445186 C143.715343,585.395033 113.790435,545.394088 97.2755111,490.045062 C96.3585163,507.41384 95.6386389,526.321047 95.6386389,545.844722 C95.6386389,579.179853 97.4877116,604.615494 98.8096254,622.803101 C99.1594268,627.615859 99.4723772,631.922081 99.7055144,635.733393 C111.191781,635.772571 121.845266,636.772496 129.645127,641.10995 C130.143873,641.387299 130.695604,641.677814 131.277033,641.984084 C134.239471,643.544561 137.883782,645.524893 139.588628,648.123302 C140.290196,649.192585 140.686116,650.362495 140.655563,651.641272 C140.628856,652.759105 140.274415,653.971978 139.455056,655.281761 C138.658681,656.554805 137.1973,657.21324 135.220733,657.360792 C133.01069,657.525773 130.140012,657.061762 127.217117,656.575923 C124.578252,656.137295 121.8947,655.68321 119.665667,655.750954 C118.53609,655.785284 117.83831,655.939177 117.44416,656.260942 C116.993467,656.628867 117.098309,657.193639 117.091212,657.65976 C117.085568,658.030447 117.07519,658.392383 117.015877,658.723705 C116.372654,662.316706 120.792167,665.823729 124.985066,669.503057 C129.351867,673.334986 133.771356,677.350267 134.592701,681.551809 C134.952231,683.390968 134.252805,685.520034 132.853048,686.92522 C132.195765,687.585052 131.390341,688.084385 130.482823,688.33397 C129.652568,688.562306 128.734761,688.584558 127.759453,688.317174 C123.653442,687.191497 119.490038,683.620038 116.510419,681.02746 C115.055091,679.761173 113.969322,678.574871 113.412905,678.552117 C113.125525,679.256349 113.084273,680.010601 113.109526,680.932025 C113.186768,683.750431 113.996498,687.965499 114.782737,692.091991 C115.301735,694.815896 115.812869,697.501927 116.112633,699.740211 C116.605113,703.41746 116.465689,705.97082 115.711839,707.614324 C115.268144,708.581643 114.622184,709.275226 113.77383,709.735524 C112.973951,710.169521 111.976318,710.394096 110.754276,710.394096 C108.534465,710.394096 107.191115,709.762031 106.267856,708.777474 C105.169871,707.606592 104.696437,705.824688 104.199109,703.667504 C103.950717,702.590088 103.681596,701.416184 103.265383,700.19573 C102.86484,699.021227 102.353607,696.539902 101.748124,693.570506 C100.400773,686.962861 98.7363684,677.451931 96.3755276,676.167517 C95.9908944,675.958258 95.652172,675.857665 95.342962,675.959427 C94.9600405,676.085448 94.6647276,676.447417 94.371217,676.915853 C93.2996727,678.62601 92.5215442,681.76042 91.5467092,685.55316 C90.579531,689.316111 89.4477602,693.711508 87.7600157,698.07578 C87.1900299,699.549683 86.5244924,700.419879 85.8797744,700.956656 C84.8455661,701.817714 83.8142212,701.887367 83.0216581,701.913086 C81.627714,701.97062 80.7119794,701.310968 80.0105041,700.293479 C79.1677524,699.071069 78.6745721,697.279018 78.4050884,696.194288 C77.2454529,691.526509 78.5023959,665.540482 85.113169,649.321518 C77.0023955,632.242646 69.2566593,594.531392 69.2566593,551.681665 C69.2566593,511.390982 76.7517671,454.123022 84.7158173,422.592655 C83.6380317,410.533441 83.084229,398.047075 83.084229,385.187269 C83.084229,336.472792 71.3357223,223.831118 53.389076,150.028758 C53.1459931,149.886198 52.887711,149.792091 52.5759458,149.706623 C51.675907,149.459884 50.4024578,149.341885 48.8923492,149.300484 C44.5230591,149.180696 38.2660902,149.737002 33.0182613,150.201047 C29.4293458,150.518401 26.3040914,150.792472 24.5370021,150.792472 C23.383001,150.792472 22.1048482,150.861772 20.7652776,150.933814 C16.3141219,151.173195 11.2390865,151.391404 7.57542848,149.552858 C4.83542843,148.177834 2.79710231,145.718051 2.30703844,141.308462 C2.14436724,139.844749 2.61162673,138.359099 3.65312495,136.87269 C4.66859569,135.423426 6.24494588,133.959994 8.23753936,132.502911 C13.2421775,128.843271 20.9294808,125.167274 28.4916487,121.559891 C35.4822619,118.225157 42.3641291,114.950087 46.8306946,111.780662 C48.4578865,110.626024 49.7565164,109.494787 50.586111,108.373733 C51.2154954,107.523229 51.5749325,106.69135 51.4829931,105.857903 C51.3839349,104.959924 50.765642,104.266591 49.8579832,103.678371 C48.6063253,102.867218 46.8124813,102.269558 44.6673564,101.80218 C38.5692558,100.473531 29.725856,100.262074 21.7775473,100.064595 C11.924027,99.8197799 3.75527996,99.2723548 2.46919786,97.3457051 C0.809142924,94.8588154 0,92.3938433 0,90.1673064 C0,87.8346863 0.870189793,85.7425754 2.61621312,84.1022324 C5.7398895,81.1676206 20.7054719,72.6373161 39.890582,70.0330333 C50.7985373,68.552333 65.635953,69.5527939 77.7940561,70.3797347 C88.3746002,71.0993769 97.2877307,72.1104947 98.4768271,70.4432801 C98.5915173,70.2824747 98.5792401,70.0833862 98.5319601,69.8700245 C98.4319917,69.4188942 98.1539126,68.9127182 97.7535238,68.347031 C96.7204199,66.8874153 94.8986591,65.1356646 92.5611292,63.1883558 C86.0338994,57.7507647 75.5441128,50.8896289 66.3372652,44.8643705 C56.2404326,38.256677 47.8249399,32.5429502 47.1599572,30.6802236 C46.0768639,27.6463 45.7702014,24.9495757 47.4358382,22.8563708 C48.7168923,21.2464708 51.2667783,19.9233929 56.005334,19.2431446 C70.7435395,17.1273861 103.025007,23.3180102 116.563884,26.6737835 C118.960287,27.2677608 124.265163,29.6576451 130.513811,32.4871756 C138.52737,36.1158978 148.124006,40.4661196 155.03046,42.5208258 C157.448124,43.2400936 159.520931,43.6798173 161.0522,43.6730937 C161.627427,43.670568 162.113698,43.6095254 162.486585,43.4449859 C162.689539,43.3554304 162.852264,43.2339025 162.934174,43.0437329 C163.139482,42.5670699 162.73799,41.8451009 162.231433,40.9887266 C161.468613,39.6991178 160.202425,38.1309641 158.53876,36.3713109 C155.118802,32.7540318 150.042204,28.3661263 144.09875,23.978442 C141.08329,21.752315 137.540365,19.8152118 134.212159,17.9920704 C130.572724,15.9984421 127.186413,14.1317565 124.948518,12.2004869 C123.025578,10.5410185 121.948779,8.80924708 121.948779,6.98030669 C121.948779,5.62956139 122.300714,4.53708038 122.903275,3.64648763 C123.551194,2.68885596 124.500563,1.95883447 125.679044,1.42260023 C128.362303,0.201659244 132.312941,0.013340783 136.088192,0 L136.669227,0 C161.120121,0 203.709859,11.3182635 225.114113,45.798361 C236.699427,64.4611344 246.232029,92.270853 256.105651,121.113278 C262.500434,139.793462 269.042426,158.906513 276.394788,176.226641 C282.654363,190.972469 289.688438,206.62435 296.906007,222.684733 C317.052013,267.513207 338.619631,315.520783 348.815257,355.910773 C360.84804,378.350867 376.816152,425.878088 384.476831,469.316266 C391.44195,508.810427 391.580536,545.147785 388.051925,565.994969 C396.902481,580.953628 402.30583,604.991999 401.984292,609.648592 C401.907298,610.76364 401.732851,612.614108 401.115208,613.964275 C400.585835,615.121486 399.755051,615.906713 398.608359,616.057436 C397.605082,616.199878 396.597585,616.29301 395.45026,615.636443 C394.722119,615.219757 393.915569,614.478334 393.098267,613.125792 C390.678178,609.120822 388.800211,604.988674 387.194178,601.450791 C385.575426,597.884888 384.264728,594.933168 382.91244,593.435017 C382.542014,593.024636 382.188306,592.719428 381.7893,592.661801 C381.467122,592.615269 381.151022,592.773135 380.808586,593.045988 Z" id="Combined-Shape" stroke="#000000" stroke-width="2" fill="#F3A7A7"></path>
                    <g id="Group-2" transform="translate(87.000000, 185.000000)">
                        <path d="M10.0324323,92.7481004 C9.71063498,86.3980791 11.754268,77.1566598 15.9971227,65.7163825 C16.2167857,65.1240912 16.4321468,64.5429191 16.6434543,63.9726865 C20.8299996,52.674905 23.3877272,45.7085079 26.3304848,41.6658427 C28.7614662,38.3262391 31.4675957,37.1420111 35.7114776,37.1420111 C37.9508128,37.1420111 39.8808321,37.9653484 41.4600676,39.4945601 C43.1634087,41.1439464 44.4591556,43.5853065 45.3364981,46.6672664 C47.1256176,52.9521491 47.154665,61.8397211 45.0915185,72.3468894 C43.2696228,81.6254182 39.450589,88.4365035 34.8909048,93.1434594 C29.2017279,99.016389 22.3706231,101.606472 16.9466114,101.606472 C14.8286148,101.606472 13.192707,100.901251 12.060475,99.497889 C10.8247763,97.966284 10.1808696,95.677211 10.0324323,92.7481004 Z" id="Oval" stroke="#000000" stroke-width="2" fill="#AD6161" transform="translate(28.329645, 69.374242) scale(-1, -1) rotate(20.000000) translate(-28.329645, -69.374242) "></path>
                        <path d="M123.655163,65.1150467 C121.537595,65.1150467 119.902102,64.4103498 118.770291,63.007088 C117.534956,61.4754733 116.891478,59.1862208 116.743476,56.2567831 C116.422619,49.9060066 118.467327,40.6631336 122.711334,29.220805 C122.931055,28.6284117 123.146473,28.0471396 123.357836,27.4768088 C127.545517,16.1770096 130.103957,9.20938075 133.046956,5.16578929 C135.478138,1.82542021 138.184105,0.639974069 142.427536,0.639974069 C144.666468,0.639974069 146.596023,1.46276391 148.174757,2.99184077 C149.877641,4.64116339 151.172852,7.08260565 152.04964,10.1647703 C153.837661,16.4501857 153.86544,25.3388607 151.801032,35.8476411 C149.978009,45.1276594 146.158406,51.9401856 141.598538,56.6484127 C135.909195,62.5228635 129.078545,65.1142746 123.655163,65.1150467 Z" id="Oval" stroke="#000000" stroke-width="2" fill="#AD6161" transform="translate(135.040984, 32.877510) scale(-1, 1) rotate(-120.000000) translate(-135.040984, -32.877510) "></path>
                        <ellipse id="Oval" fill="#000000" cx="57.7671233" cy="125.440741" rx="11.2328767" ry="15.4407407"></ellipse>
                        <ellipse id="Oval" fill="#000000" cx="135.369863" cy="103.085185" rx="11.2328767" ry="15.4407407"></ellipse>
                        <ellipse id="Oval" fill="#FFFFFF" cx="50.7876712" cy="118.211111" rx="4.21232877" ry="4.21111111"></ellipse>
                        <ellipse id="Oval" fill="#FFFFFF" cx="128.787671" cy="99.2111111" rx="4.21232877" ry="4.21111111"></ellipse>
                    </g>
                </g>
                <path d="M353,466 C370.408534,488.079263 384.61858,500.976854 395.630137,504.692772 C413.794233,510.822358 441.184532,504.887496 456.236128,497.635959" id="Path-5" stroke="#000000" stroke-width="5" stroke-linecap="round"></path>
            </g>
            <g id="5squiggy1" filter="url(#filter-6)" transform="translate(302.500000, 696.500000) scale(-1, 1) translate(-302.500000, -696.500000) translate(0.000000, 508.000000)">
                <path d="M598.694765,219.381071 L390.471298,219.380651 C390.498438,227.33622 390.491152,235.703644 390.483603,244.368476 C390.479999,248.506225 390.476335,252.711812 390.476335,256.972647 L390.476557,258.831696 C390.477401,262.457809 390.480524,266.042188 390.483603,269.577058 C390.525356,317.505163 390.466372,356.33791 384.773052,366.990106 C383.562339,370.282547 381.81316,373.146142 378.925206,375.092742 C376.50134,376.726526 373.260722,377.726885 368.79711,377.726887 C366.148913,377.726889 363.825883,377.812346 361.78299,377.887352 C356.983619,378.063565 353.67166,378.132163 351.290686,377.082032 C349.154406,376.139823 347.662844,374.366412 346.600551,370.924305 C345.251042,366.551543 345.963135,362.298555 348.272021,358.572393 C350.610531,354.798423 354.612195,351.561422 359.782866,349.341903 C360.520168,349.025415 361.425686,348.597096 362.420527,348.126881 C364.201883,347.284915 366.262151,346.312862 368.169991,345.585368 C363.961281,324.956378 361.254042,292.93195 361.254042,256.972767 C361.254042,243.790248 361.617573,231.136849 362.285469,219.380643 L236.616402,219.379967 C237.133218,234.39361 237.224715,252.085073 237.224715,271.025965 C237.224715,292.286111 238.666821,312.35802 239.855407,328.909209 C240.643311,339.880859 241.31959,349.310782 241.39594,356.523582 C241.76185,358.519157 241.643438,360.822397 241.506514,363.243916 C241.453254,364.185827 241.398777,365.146288 241.375125,366.112921 C241.326014,368.120097 240.935136,369.703818 240.269115,370.963757 C239.529857,372.362242 238.451444,373.37991 237.067626,374.119768 C233.992118,375.764086 229.279698,375.959095 223.488461,376.132628 C223.206654,376.141072 222.922251,376.149594 222.635325,376.158384 C222.350343,376.167115 222.065819,376.17602 221.781943,376.184904 C215.807777,376.371879 210.125736,376.505834 206.400238,374.966838 C204.787927,374.300795 203.519211,373.333087 202.676125,371.984019 C201.90994,370.758005 201.48748,369.20413 201.535948,367.223247 C201.650187,362.554327 203.983703,358.244969 207.703032,355.069237 C211.053557,352.208407 215.527199,350.27237 220.460027,349.840431 C213.918336,331.019109 208.048799,302.30178 208.048799,271.025965 C208.048799,252.088905 208.973305,234.399067 210.575042,219.379968 L13.5563533,219.381071 C9.97793196,219.381071 6.80865212,218.015655 4.34088912,215.625735 C1.89604627,213.258011 0.13868947,209.871344 -0.605119568,205.798663 C-1.86685813,198.890091 -0.211796131,189.968307 5.97875568,180.857317 C14.4298302,168.419387 31.3888853,155.572766 60.988026,147.210702 C90.4921661,138.875477 113.051234,136.645091 127.406795,135.22673 C132.626546,134.711007 136.748395,134.307943 139.708369,133.74929 C137.565501,131.091714 135.285992,128.499878 132.836746,126.0733 C121.042145,114.38786 111.430998,102.312589 105.420887,92.240174 C102.318983,87.0416568 100.17306,82.3662468 99.1577469,78.5400493 C98.0921029,74.5241794 98.301507,71.4164837 99.705687,69.4440057 C100.437431,68.4161118 101.456993,67.7079397 102.743746,67.3184988 C103.947476,66.9541851 105.400112,66.8737171 107.071855,67.0876024 C110.257792,67.4952158 114.295974,68.9822564 118.91188,71.4338094 C127.506889,75.9987028 138.166846,83.9194941 149.092036,94.2041221 C156.963556,64.0142204 174.498422,41.1485524 197.569383,25.397596 C223.47817,7.70920551 256.381853,-1 290.417806,-1 C323.425061,-1 351.957203,8.23154972 375.168394,25.5692805 C398.329067,42.8692763 416.198144,68.250146 427.900467,100.628272 C428.786183,99.8270398 429.667969,98.9946472 430.54206,98.1288765 C441.313724,87.4597445 451.924244,79.0070092 460.36637,73.9588045 C464.756159,71.3338079 468.576433,69.6251872 471.547868,68.9679864 C473.121517,68.6199379 474.475945,68.5636496 475.578134,68.7851353 C476.81918,69.0345246 477.768987,69.6250864 478.418909,70.538109 C479.571251,72.1569406 479.663788,74.8380053 478.526799,78.4098335 C477.471605,81.7247073 475.396306,85.8331767 472.466747,90.4452622 C466.794901,99.3746045 457.907235,110.23088 447.142459,120.893189 C443.738409,124.264836 440.658204,127.936769 437.818877,131.616595 C442.504268,133.190376 456.734307,134.408727 474.011351,135.966756 C500.677246,138.371463 534.567765,141.440238 552.709572,147.220226 C574.996555,154.320868 588.868598,166.302195 596.849709,178.407468 C602.739376,187.340565 605.425333,196.353871 605.915999,203.571808 C606.222352,208.078421 605.669462,211.897592 604.526622,214.604592 C603.894462,216.101965 603.077253,217.272317 602.13377,218.072629 C601.122326,218.930588 599.962113,219.381071 598.694765,219.381071 Z" id="Combined-Shape" stroke="#000000" stroke-width="2" fill="#99CAF4"></path>
                <g id="Group" transform="translate(285.032718, 124.521522) scale(-1, 1) rotate(25.000000) translate(-285.032718, -124.521522) translate(232.032718, 88.521522)" stroke="#000000" stroke-width="2">
                    <path d="M50.973959,58.5107421 C39.1565698,58.8141026 28.6553444,55.6567052 20.7468896,51.1221493 C16.1152098,48.4664331 12.3752298,45.3407682 9.79677879,42.1621244 C7.26927316,39.0462846 5.85011935,35.8917702 5.91568596,33.1104974 C5.97261611,30.695575 7.24490232,28.38541 9.41503334,26.2401616 C11.8206547,23.862123 15.3216177,21.6985349 19.6376434,19.8431633 C28.2765715,16.129464 40.1498753,13.674131 53.205399,13.3389868 C66.2529988,13.004046 78.0174738,14.8492847 86.4867707,18.1217885 C90.7018668,19.7504854 94.0914196,21.7259127 96.3780364,23.9736851 C98.42851,25.9893259 99.5797923,28.2179829 99.5234243,30.60906 C99.3910341,36.2249255 92.7230255,43.5904716 82.8566858,49.3436573 C74.1908228,54.39683 62.9517314,58.2032645 50.973959,58.5107421 Z" id="Oval" fill="#000000" transform="translate(52.719485, 35.915486) rotate(-15.000000) translate(-52.719485, -35.915486) "></path>
                    <path d="M50.180138,50.5239104 C39.095214,50.808468 29.2357815,48.223624 21.8051844,44.4888454 C17.465883,42.3078187 13.9587413,39.7379684 11.5385699,37.1190525 C9.21248048,34.6019445 7.87759468,32.0562568 7.93086988,29.7963736 C7.97690244,27.8437165 9.15733767,25.9884966 11.1306746,24.2549963 C13.376741,22.2819135 16.6487469,20.4852168 20.6846441,18.9389827 C28.7782185,15.8381702 39.9085501,13.7709492 52.1537655,13.4566062 C64.3926196,13.1424264 75.4328393,14.6381165 83.385961,17.325557 C87.3364811,18.6604779 90.5148712,20.2818846 92.6615159,22.1341556 C94.5285905,23.7451945 95.6085886,25.5212652 95.5631593,27.4483301 C95.510559,29.6795845 93.9489153,32.2501136 91.374583,34.859226 C88.6473217,37.6233335 84.7608434,40.4035609 80.0616474,42.8416689 C71.9463486,47.0521712 61.4138581,50.2355332 50.180138,50.5239104 Z" id="Oval" fill="#FFFFFF" transform="translate(51.746964, 31.980322) rotate(-15.000000) translate(-51.746964, -31.980322) "></path>
                </g>
                <ellipse id="Oval" fill="#000000" cx="204.5" cy="97.5" rx="8.5" ry="10.5"></ellipse>
                <ellipse id="Oval" fill="#000000" cx="381.5" cy="94.5" rx="8.5" ry="10.5"></ellipse>
                <circle id="Oval" fill="#FFFFFF" cx="385" cy="90" r="3"></circle>
                <circle id="Oval" fill="#FFFFFF" cx="207" cy="95" r="3"></circle>
            </g>
        </g>
    </g>
</svg>