<?xml version="1.0" encoding="UTF-8"?>
<svg width="598px" height="644px" viewBox="0 0 598 644" version="1.1" xmlns="http://www.w3.org/2000/svg" xmlns:xlink="http://www.w3.org/1999/xlink">
    <!-- Generator: Sketch 62 (91390) - https://sketch.com -->
    <title>Group 55</title>
    <desc>Created with Sketch.</desc>
    <defs>
        <linearGradient x1="50%" y1="0%" x2="50%" y2="99.5671453%" id="linearGradient-1">
            <stop stop-color="#DDBEFF" offset="0%"></stop>
            <stop stop-color="#876BA9" offset="100%"></stop>
        </linearGradient>
        <linearGradient x1="50%" y1="0%" x2="50%" y2="100%" id="linearGradient-2">
            <stop stop-color="#FFFCCA" offset="0%"></stop>
            <stop stop-color="#EDC792" offset="100%"></stop>
        </linearGradient>
        <linearGradient x1="50%" y1="0%" x2="50%" y2="100%" id="linearGradient-3">
            <stop stop-color="#FFFCCA" offset="0%"></stop>
            <stop stop-color="#EDC792" offset="100%"></stop>
        </linearGradient>
        <linearGradient x1="50%" y1="0%" x2="50%" y2="100%" id="linearGradient-4">
            <stop stop-color="#E6FFE4" offset="0%"></stop>
            <stop stop-color="#83DCC6" offset="100%"></stop>
        </linearGradient>
        <linearGradient x1="50%" y1="0%" x2="50%" y2="100%" id="linearGradient-5">
            <stop stop-color="#E6FFE4" offset="0%"></stop>
            <stop stop-color="#83DCC6" offset="100%"></stop>
        </linearGradient>
        <filter x="-2.4%" y="-2.1%" width="104.9%" height="104.3%" filterUnits="objectBoundingBox" id="filter-6">
            <feOffset dx="0" dy="2" in="SourceAlpha" result="shadowOffsetOuter1"></feOffset>
            <feGaussianBlur stdDeviation="2" in="shadowOffsetOuter1" result="shadowBlurOuter1"></feGaussianBlur>
            <feColorMatrix values="0 0 0 0 0   0 0 0 0 0   0 0 0 0 0  0 0 0 0.5 0" type="matrix" in="shadowBlurOuter1" result="shadowMatrixOuter1"></feColorMatrix>
            <feMerge>
                <feMergeNode in="shadowMatrixOuter1"></feMergeNode>
                <feMergeNode in="SourceGraphic"></feMergeNode>
            </feMerge>
        </filter>
    </defs>
    <g id="Page-1" stroke="none" stroke-width="1" fill="none" fill-rule="evenodd">
        <g id="Group-55">
            <g id="Group-25">
                <g id="charsquigg_popup">
                    <polygon id="Star" fill="url(#linearGradient-1)" fill-rule="nonzero" points="306 483.815198 125.534075 565 147.88086 370.262186 14 225.69934 208.276997 186.529554 306 16 403.723004 186.529554 598 225.69934 464.119141 370.262186 486.465925 565"></polygon>
                    <g id="Star">
                        <g id="path-3-link" fill="#000000" fill-rule="nonzero">
                            <polygon id="path-3" points="127 205.02002 48.824561 240.59926 58.504891 155.25541 0.5094833 91.9007397 84.667695 74.7345803 127 0 169.332305 74.7345803 253.490517 91.9007397 195.495109 155.25541 205.175439 240.59926"></polygon>
                        </g>
                        <g id="path-3-link" fill="url(#linearGradient-3)">
                            <polygon id="path-3" points="127 205.02002 48.824561 240.59926 58.504891 155.25541 0.5094833 91.9007397 84.667695 74.7345803 127 0 169.332305 74.7345803 253.490517 91.9007397 195.495109 155.25541 205.175439 240.59926"></polygon>
                        </g>
                    </g>
                    <g id="Star" transform="translate(396.000000, 439.000000)">
                        <g id="path-6-link" fill="#000000" fill-rule="nonzero">
                            <polygon id="path-6" points="79 127.944824 30.213824 150.148411 36.254932 96.888714 0.062309 57.351589 52.582095 46.638873 79 0 105.417905 46.638873 157.937691 57.351589 121.745068 96.888714 127.786176 150.148411"></polygon>
                        </g>
                        <g id="path-6-link" fill="url(#linearGradient-5)">
                            <polygon id="path-6" points="79 127.944824 30.213824 150.148411 36.254932 96.888714 0.062309 57.351589 52.582095 46.638873 79 0 105.417905 46.638873 157.937691 57.351589 121.745068 96.888714 127.786176 150.148411"></polygon>
                        </g>
                    </g>
                </g>
            </g>
            <g id="5Mac2" filter="url(#filter-6)" transform="translate(33.000000, 75.000000)">
                <path d="M378.81683,402.807957 C376.177112,402.807957 368.846385,400.280272 359.411573,397.080773 C353.190849,394.971224 346.072284,392.55735 338.772913,390.329447 C338.560401,390.264585 338.347928,390.199938 338.136175,390.135937 C337.984553,390.28624 337.83154,390.468731 337.660492,390.714239 C337.264048,391.28326 337.151601,391.644118 337.03486,392.124215 C336.842434,392.915564 336.624512,394.117524 336.386409,395.683761 C335.886449,398.972496 335.289521,403.9011 334.622932,410.016528 C332.884056,425.969365 330.667719,450.019752 328.450464,474.080864 C326.231717,498.158164 324.01205,522.246209 322.269184,538.233409 C321.604787,544.327883 321.01018,549.242032 320.511366,552.524003 C320.283958,554.020243 320.078226,555.169994 319.894282,555.927992 C319.378234,556.456099 318.619311,556.65137 317.542962,556.959242 C311.932033,558.564162 298.242721,562.499469 288.289092,561.948221 C285.29003,561.782128 282.636785,561.215271 280.709213,559.985656 C279.144064,558.987233 278.092218,557.53503 277.781853,555.498045 C277.562236,554.056664 277.744487,552.802092 278.242303,551.707515 C278.813359,550.451904 279.788063,549.41065 280.993573,548.522498 C284.707119,545.786569 290.546457,544.484803 294.818247,543.50796 C296.717561,543.073638 298.325601,542.701212 299.357496,542.31724 C299.879982,542.122821 300.277708,541.913543 300.541975,541.706643 C301.085121,541.281403 301.230132,540.812079 301.196529,540.37173 C298.882758,510.050882 300.497814,467.000389 301.589731,437.846995 C301.984424,427.30899 302.311038,418.582651 302.360956,412.919868 C302.381343,410.607097 302.355112,408.79851 302.2705,407.577022 C302.226381,406.940102 302.164039,406.449258 302.088876,406.113068 C302.051813,405.947291 301.995916,405.748819 301.920588,405.518366 C301.732048,405.464065 301.549401,405.413128 301.372857,405.365614 C292.161107,402.886399 263.898284,400.125851 246.886282,404.890613 C246.588382,404.974049 246.139608,405.226433 245.809829,406.100131 C245.657346,406.50411 245.50317,407.085609 245.354027,407.833847 C245.063582,409.290984 244.777056,411.428998 244.489998,414.134148 C243.780587,420.81942 243.059128,431.012949 242.215003,442.945094 C240.035062,473.75969 237.039665,516.205268 231.286299,539.617657 C230.390131,543.26447 227.622539,546.371081 223.88487,548.922194 C219.416848,551.971803 213.551371,554.219517 207.582907,555.571575 C200.907749,557.083723 194.09786,557.47746 188.9536,556.575432 C186.645701,556.170751 184.681466,555.510238 183.253059,554.547686 C182.074517,553.753509 181.273803,552.753057 181.039778,551.498176 C180.606519,549.174966 181.549506,547.421439 183.216405,545.977644 C185.814093,543.727641 190.057314,542.180328 194.262293,540.616474 C198.342592,539.09899 202.393508,537.571842 205.081472,535.521305 C207.289819,533.836647 208.605507,531.806636 208.564476,529.249448 C208.384754,518.048358 208.433189,502.916155 208.483758,487.089058 C208.606691,448.613153 208.28895,406.796679 205.342047,404.999763 C203.513793,403.884959 200.409847,404.380296 196.411254,406.253451 C191.607135,408.503957 185.494489,412.572235 179.220417,416.754531 C172.271433,421.386721 165.121569,426.161539 159.363334,428.666715 C155.637653,430.287609 152.467569,431.092801 150.546366,429.73674 C142.098074,423.773601 142.840432,406.397597 143.234764,392.382207 C143.408417,386.210223 143.558206,380.621407 142.994559,376.744088 C142.756029,375.103244 142.384721,373.752311 141.861113,372.75544 C141.270636,371.631262 140.481901,370.923108 139.512211,370.620781 C129.914434,367.628419 118.081186,367.838377 107.080385,368.052398 C97.0379299,368.247775 87.6997928,368.468081 81.5460882,366.040096 C79.3141248,365.15946 77.5168977,363.924661 76.3181309,362.159132 C75.2113856,360.529131 74.6247373,358.457001 74.6247373,355.844385 C74.6247373,339.585592 72.0100762,330.492495 67.4001884,325.282115 C61.5790483,318.702704 52.4956257,318.205468 40.8390398,317.744047 C32.8486672,317.427751 23.6459135,317.069091 13.5295472,314.446743 C10.6109111,313.690179 8.51953471,312.878041 7.14431151,311.900919 C5.98435698,311.07675 5.3849614,310.142248 5.318633,308.992115 C5.13297412,305.772797 8.32583873,301.344996 12.8764433,294.697057 C20.2990096,283.853493 31.5539244,267.404047 39.9101019,241.518509 C40.2063953,240.600659 40.039957,239.555204 39.3382459,238.407278 C38.7405325,237.429482 37.735454,236.353732 36.4073628,235.213664 C33.1986918,232.459257 28.0443976,229.251833 22.619922,225.883501 C16.4323468,222.041322 9.88756008,217.985183 5.58079521,214.139187 C2.78735523,211.64461 0.844689971,209.277077 1.00864138,207.089188 C1.3933526,201.955316 13.0897661,195.079955 23.1677682,188.858239 C32.3833229,183.16896 40.031197,177.980814 39.9581325,175.116838 C39.5777288,160.205799 37.7524858,147.641683 36.2078073,137.018084 C33.5785859,118.935492 31.5854572,106.518749 39.6894656,97.8370938 C49.3208648,87.5191768 68.0338807,90.0997404 87.0086144,92.4975176 C107.595584,95.099028 128.515585,97.5422779 139.938658,85.5496349 C148.160073,76.9182885 155.819775,67.5521389 163.388796,58.2953648 C187.19756,29.1776829 210.058562,1 247.155985,1 C253.841361,1 258.305982,3.33782426 261.513296,7.18622333 C265.948858,12.5083757 268.041456,20.5887735 270.319162,29.2086215 C272.270659,36.5939495 274.33624,44.3774603 277.956952,51.2720997 C278.736704,52.7569217 279.694655,53.703446 280.767161,54.2535705 C281.947929,54.8592265 283.287587,54.9937899 284.758559,54.7400831 C288.05915,54.1708119 292.101193,51.5280044 296.30967,48.722178 C300.258027,46.0897749 304.364885,43.3239981 308.143284,42.3193246 C310.602279,41.6654797 312.92074,41.7808066 314.901838,43.4039971 C316.856871,45.0058316 316.728115,50.7448339 316.843839,56.6560872 C316.94757,61.9547305 317.076685,67.5329687 318.276128,71.2745547 C318.779267,72.844064 319.47506,74.1066711 320.385005,74.9652879 C321.300054,75.8287195 322.430263,76.3155913 323.833162,76.3116516 C335.613118,76.2785701 352.5126,68.6860839 368.365085,61.5172855 C379.069869,56.6763765 389.289589,52.0449502 397.07597,50.206017 C399.971824,49.5220945 402.517315,49.2244591 404.604193,49.485266 C406.32606,49.700456 407.721147,50.2989144 408.674511,51.4462566 C415.109221,59.1902157 413.453976,73.3322282 411.874522,88.2787361 C410.139217,104.70007 408.396709,122.122041 416.001119,133.936543 C422.465479,143.979819 436.856422,149.377344 450.403834,154.366706 C458.971023,157.521908 467.170549,160.521596 472.596157,164.576213 C476.386098,167.40848 478.805618,170.759256 478.805618,175.142341 C478.805618,183.115366 471.160451,191.069602 463.304171,199.452051 C453.466177,209.948939 443.281004,221.061525 444.892973,233.31419 C445.866811,240.716387 459.116998,250.214913 471.12128,258.585413 C480.185992,264.906173 488.716506,270.509778 488.95017,274.080462 C489.410281,281.111531 486.612278,285.913738 481.804832,289.476728 C475.083277,294.458341 464.581419,297.085052 453.463601,299.903764 C440.247385,303.254485 426.173337,306.85693 416.226413,314.626676 C405.701145,322.848178 404.180769,340.792228 402.834616,358.607418 C401.854718,371.57553 400.926637,384.419952 396.190563,392.963495 C394.446035,396.1105 392.177071,398.660443 389.162454,400.371849 C386.387814,401.947019 382.989229,402.807957 378.81683,402.807957 Z" id="Oval" stroke="#000000" stroke-width="2" fill="#F4A9C4"></path>
                <path d="M252.345804,284 C277.392425,284 299.725685,287.078602 316.028494,291.80823 C324.594423,294.293302 331.484687,297.227548 336.198699,300.417913 C340.397577,303.259642 342.897624,306.273519 342.996861,309.396074 C342.725208,309.554791 342.315551,309.673777 341.787612,309.784131 C340.429829,310.067946 338.394924,310.226312 335.786831,310.301111 C329.12041,310.492303 318.802721,310.116655 306.45364,309.668427 C291.304257,309.118557 273.107041,308.458338 254.83439,308.589933 C238.126753,308.710258 221.35134,309.417111 206.696068,310.034793 C191.899178,310.658443 179.269621,311.192214 171.071981,310.933406 C167.876232,310.832513 165.369378,310.61503 163.694421,310.224168 C163.02475,310.067895 162.504398,309.894907 162.16064,309.670847 C162,306.39329 164.502253,303.308112 168.77258,300.40373 C173.463302,297.213424 180.32063,294.279729 188.854072,291.795724 C205.078032,287.073081 227.32109,284 252.345804,284 Z" id="Oval" stroke="#000000" stroke-width="2" fill="#B897FD" transform="translate(252.500000, 297.500000) scale(1, -1) translate(-252.500000, -297.500000) "></path>
                <circle id="Oval" stroke="#000000" stroke-width="2" fill="#B897FD" cx="180" cy="166" r="13"></circle>
                <circle id="Oval" stroke="#000000" stroke-width="2" fill="#B897FD" cx="140" cy="220" r="13"></circle>
                <circle id="Oval" stroke="#000000" stroke-width="2" fill="#B897FD" cx="255" cy="220" r="13"></circle>
                <circle id="Oval" stroke="#000000" stroke-width="2" fill="#B897FD" cx="322" cy="166" r="13"></circle>
                <circle id="Oval" stroke="#000000" stroke-width="2" fill="#B897FD" cx="362" cy="220" r="13"></circle>
                <g id="glasses" transform="translate(114.000000, 109.000000)">
                    <path d="M101.926883,114.0473 C95.8645755,120.109608 87.4895755,123.859223 78.238806,123.859223 L36,123.859223 C26.7492304,123.859223 18.3742304,120.109608 12.3119228,114.0473 C6.24961522,107.984993 2.5,99.6099929 2.5,90.3592233 L2.5,40.592233 C2.5,38.5211652 3.33946609,36.6461652 4.69669914,35.2889322 C6.05393219,33.9316991 7.92893219,33.092233 10,33.092233 L104.238806,33.092233 C106.309874,33.092233 108.184874,33.9316991 109.542107,35.2889322 C110.89934,36.6461652 111.738806,38.5211652 111.738806,40.592233 L111.738806,90.3592233 C111.738806,99.6099929 107.989191,107.984993 101.926883,114.0473 Z" id="Rectangle" stroke="#000000" stroke-width="5" fill-opacity="0.452086976" fill="#FFFFFF"></path>
                    <path d="M254.688077,114.0473 C248.62577,120.109608 240.25077,123.859223 231,123.859223 L188.761194,123.859223 C179.510424,123.859223 171.135424,120.109608 165.073117,114.0473 C159.010809,107.984993 155.261194,99.6099929 155.261194,90.3592233 L155.261194,40.592233 C155.261194,38.5211652 156.10066,36.6461652 157.457893,35.2889322 C158.815126,33.9316991 160.690126,33.092233 162.761194,33.092233 L257,33.092233 C259.071068,33.092233 260.946068,33.9316991 262.303301,35.2889322 C263.660534,36.6461652 264.5,38.5211652 264.5,40.592233 L264.5,90.3592233 C264.5,99.6099929 260.750385,107.984993 254.688077,114.0473 Z" id="Rectangle" stroke="#000000" stroke-width="5" fill-opacity="0.452086976" fill="#FFFFFF"></path>
                    <path d="M114.238806,68.8374304 C119.876888,62.8487227 126.442637,59.8543689 133.936053,59.8543689 C141.429469,59.8543689 147.704516,62.8487227 152.761194,68.8374304" id="Line" stroke="#000000" stroke-width="7" stroke-linecap="square"></path>
                    <polygon id="Rectangle" fill="#000000" points="26.5671642 0 36.2030702 10.9045184 46.8223069 0 57.0585188 10.9045184 69.6983354 0 77.9139674 10.9045184 89 0 89 34.5825243 26.5671642 34.5825243"></polygon>
                    <polygon id="Rectangle" fill="#000000" points="180.656716 0 190.292622 10.9045184 200.911859 0 211.148071 10.9045184 223.787888 0 232.00352 10.9045184 243.089552 0 243.089552 34.5825243 180.656716 34.5825243"></polygon>
                    <path d="M142.450928,66.9235417 L154.142716,99.803039 L165.647721,132.157265 C166.156578,133.588267 166.037234,135.090051 165.432925,136.361299 C164.828616,137.632547 163.739342,138.673259 162.30834,139.182116 C161.716743,139.392485 161.093492,139.5 160.465605,139.5 L106.534395,139.5 C105.015612,139.5 103.640612,138.884392 102.645308,137.889087 C101.650003,136.893783 101.034395,135.518783 101.034395,134 C101.034395,133.372113 101.14191,132.748862 101.352279,132.157265 L124.549072,66.9235417 C125.428008,64.4518112 127.225601,62.5703382 129.421393,61.5265316 C131.617185,60.482725 134.211176,60.2765848 136.682906,61.1555201 C139.375199,62.1128862 141.493562,64.2312491 142.450928,66.9235417 Z" id="Triangle" stroke="#000000" stroke-width="5" fill="#FFD1BA"></path>
                </g>
            </g>
        </g>
    </g>
</svg>