<?xml version="1.0" encoding="UTF-8"?>
<svg width="39px" height="39px" viewBox="0 0 39 39" version="1.1" xmlns="http://www.w3.org/2000/svg" xmlns:xlink="http://www.w3.org/1999/xlink">
    <!-- Generator: Sketch 62 (91390) - https://sketch.com -->
    <title>repeatbutton</title>
    <desc>Created with Sketch.</desc>
    <g id="Page-1" stroke="none" stroke-width="1" fill="none" fill-rule="evenodd">
        <g id="A4" transform="translate(-61.000000, -308.000000)">
            <g id="repeatbutton" transform="translate(61.000000, 308.000000)">
                <circle id="Oval" stroke="#000000" stroke-width="2" fill-opacity="0.653682255" fill="#FFFFFF" cx="19.5" cy="19.5" r="18.5"></circle>
                <g id="arrow-repeat" transform="translate(5.000000, 8.000000)" fill="#000000" fill-rule="nonzero">
                    <path d="M21.5992281,9.61816579 L29.497973,9.61816579 C29.6927832,9.6182342 29.8699765,9.7238357 29.9525944,9.88910552 C30.0352123,10.0543753 30.0083482,10.2494941 29.8836696,10.3897178 L25.9342971,14.8308466 C25.8388798,14.938033 25.6975854,15 25.5486005,15 C25.3996157,15 25.2583212,14.938033 25.1629039,14.8308466 L21.2135315,10.3897178 C21.0888529,10.2494941 21.0619888,10.0543753 21.1446067,9.88910552 C21.2272246,9.7238357 21.4044179,9.6182342 21.5992281,9.61816579 M0.502026976,13.3818342 L8.40077194,13.3818342 C8.59558213,13.3817658 8.77277543,13.2761643 8.85539332,13.1108945 C8.93801122,12.9456247 8.91114709,12.7505059 8.78646854,12.6102822 L4.83709606,8.16915345 C4.74167875,8.06196696 4.60038429,8 4.45139946,8 C4.30241463,8 4.16112017,8.06196696 4.06570286,8.16915345 L0.116330375,12.6102822 C-0.00834816874,12.7505059 -0.0352123002,12.9456247 0.0474055965,13.1108945 C0.130023493,13.2761643 0.307216786,13.3817658 0.502026976,13.3818342" id="Shape"></path>
                    <path d="M15,1.99671518 C11.852459,1.99671518 9.03751901,3.41117966 7.1777928,5.63390954 C6.95167816,5.92302682 6.58383105,6.0676262 6.21811998,6.01115349 C5.8524089,5.95468078 5.54694894,5.70611005 5.42120838,5.36265967 C5.29546782,5.0192093 5.36942807,4.63545691 5.61416258,4.36149171 C8.64659805,0.739675945 13.541427,-0.805207862 18.1418134,0.407571143 C22.7421998,1.62035015 26.2032883,5.36806658 27,9.99934304 L24.9374683,9.99934304 C23.9735976,5.34115087 19.8193539,1.99574485 15,1.99671518 M5.06253169,13.000657 C5.8460865,16.7759721 8.75749913,19.7720283 12.5480069,20.7037575 C16.3385146,21.6354868 20.3345784,20.3373293 22.8222072,17.3660905 C23.0483218,17.0769732 23.4161689,16.9323738 23.78188,16.9888465 C24.1475911,17.0453192 24.4530511,17.2938899 24.5787916,17.6373403 C24.7045322,17.9807907 24.6305719,18.3645431 24.3858374,18.6385083 C21.353402,22.2603241 16.458573,23.8052079 11.8581866,22.5924289 C7.25780016,21.3796499 3.79671167,17.6319334 3,13.000657 L5.06253169,13.000657 Z" id="Shape"></path>
                </g>
            </g>
        </g>
    </g>
</svg>