<?xml version="1.0" encoding="UTF-8"?>
<svg width="1627px" height="2000px" viewBox="0 0 1627 2000" version="1.1" xmlns="http://www.w3.org/2000/svg" xmlns:xlink="http://www.w3.org/1999/xlink">
    <!-- Generator: Sketch 62 (91390) - https://sketch.com -->
    <title>Group 7</title>
    <desc>Created with Sketch.</desc>
    <defs>
        <filter x="-3.5%" y="-1.8%" width="107.2%" height="103.6%" filterUnits="objectBoundingBox" id="filter-1">
            <feOffset dx="0" dy="2" in="SourceAlpha" result="shadowOffsetOuter1"></feOffset>
            <feGaussianBlur stdDeviation="2" in="shadowOffsetOuter1" result="shadowBlurOuter1"></feGaussianBlur>
            <feColorMatrix values="0 0 0 0 0   0 0 0 0 0   0 0 0 0 0  0 0 0 0.5 0" type="matrix" in="shadowBlurOuter1" result="shadowMatrixOuter1"></feColorMatrix>
            <feMerge>
                <feMergeNode in="shadowMatrixOuter1"></feMergeNode>
                <feMergeNode in="SourceGraphic"></feMergeNode>
            </feMerge>
        </filter>
        <path d="M162.876712,233.862417 C165.558168,232.688381 168.494571,232.167959 171.49419,232.238758 C173.201482,239.080062 174.109589,246.261765 174.109589,253.666667 C174.109589,300.181316 138.277036,337.888889 94.0753425,337.888889 C90.1363342,337.888889 86.2637884,337.589439 82.4771407,337.010991 C84.1010291,329.414617 88.2816274,322.784746 94.0463062,316.768504 C105.39779,304.921658 118.64982,312.643686 132.727355,295.211038 C149.597777,274.31987 149.994792,239.502575 162.876712,233.862417 Z" id="path-2"></path>
        <filter x="-1.6%" y="-1.4%" width="103.3%" height="102.8%" filterUnits="objectBoundingBox" id="filter-3">
            <feGaussianBlur stdDeviation="1" in="SourceAlpha" result="shadowBlurInner1"></feGaussianBlur>
            <feOffset dx="0" dy="1" in="shadowBlurInner1" result="shadowOffsetInner1"></feOffset>
            <feComposite in="shadowOffsetInner1" in2="SourceAlpha" operator="arithmetic" k2="-1" k3="1" result="shadowInnerInner1"></feComposite>
            <feColorMatrix values="0 0 0 0 0   0 0 0 0 0   0 0 0 0 0  0 0 0 0.5 0" type="matrix" in="shadowInnerInner1"></feColorMatrix>
        </filter>
        <filter x="-2.2%" y="-3.5%" width="104.3%" height="106.9%" filterUnits="objectBoundingBox" id="filter-4">
            <feOffset dx="0" dy="2" in="SourceAlpha" result="shadowOffsetOuter1"></feOffset>
            <feGaussianBlur stdDeviation="2" in="shadowOffsetOuter1" result="shadowBlurOuter1"></feGaussianBlur>
            <feColorMatrix values="0 0 0 0 0   0 0 0 0 0   0 0 0 0 0  0 0 0 0.5 0" type="matrix" in="shadowBlurOuter1" result="shadowMatrixOuter1"></feColorMatrix>
            <feMerge>
                <feMergeNode in="shadowMatrixOuter1"></feMergeNode>
                <feMergeNode in="SourceGraphic"></feMergeNode>
            </feMerge>
        </filter>
        <path d="M679.5,-2.27373675e-13 C1054.77749,-2.27373675e-13 1359,304.222513 1359,679.5 C1359,820.759205 1315.89578,951.950879 1242.12276,1060.63959 L1562.14994,1614.95568 C1626.76726,1726.87615 1588.42047,1869.98831 1476.5,1934.60562 C1364.57953,1999.22294 1221.46737,1960.87615 1156.85006,1848.95568 L859.981835,1334.77054 C802.509102,1350.56466 741.98964,1359 679.5,1359 C304.222513,1359 0,1054.77749 0,679.5 C0,304.222513 304.222513,-2.27373675e-13 679.5,-2.27373675e-13 Z M679,126 C373.034249,126 125,374.034249 125,680 C125,985.965751 373.034249,1234 679,1234 C984.965751,1234 1233,985.965751 1233,680 C1233,374.034249 984.965751,126 679,126 Z" id="path-5"></path>
        <filter x="-1.7%" y="-1.2%" width="103.3%" height="102.7%" filterUnits="objectBoundingBox" id="filter-6">
            <feMorphology radius="3.5" operator="dilate" in="SourceAlpha" result="shadowSpreadOuter1"></feMorphology>
            <feOffset dx="0" dy="2" in="shadowSpreadOuter1" result="shadowOffsetOuter1"></feOffset>
            <feGaussianBlur stdDeviation="5" in="shadowOffsetOuter1" result="shadowBlurOuter1"></feGaussianBlur>
            <feColorMatrix values="0 0 0 0 0   0 0 0 0 0   0 0 0 0 0  0 0 0 0.5 0" type="matrix" in="shadowBlurOuter1"></feColorMatrix>
        </filter>
    </defs>
    <g id="Page-1" stroke="none" stroke-width="1" fill="none" fill-rule="evenodd">
        <g id="Group-7" transform="translate(17.000000, 15.000000)">
            <circle id="Oval" fill="#1F1F1F" cx="679" cy="680" r="554"></circle>
            <g id="Group-3" filter="url(#filter-1)" transform="translate(386.000000, 708.500000) scale(-1, 1) translate(-386.000000, -708.500000) translate(186.000000, 316.000000)">
                <path d="M379.808586,592.045988 C377.706692,593.720776 377.719457,603.376224 377.540192,610.117414 C377.459632,613.146838 377.387121,615.67924 377.196651,616.905449 C376.99873,618.179621 376.93758,619.382405 376.880085,620.486566 C376.764967,622.697326 376.6082,624.534346 375.730254,625.878087 C374.992016,627.007997 373.778852,627.863726 371.592757,628.249193 C370.38929,628.461397 369.367815,628.41346 368.504712,628.124938 C367.589316,627.818935 366.832716,627.248045 366.227764,626.372458 C365.199916,624.884786 364.619142,622.394381 364.465476,618.687477 C364.371941,616.43114 364.4088,613.697159 364.446826,610.924513 C364.504431,606.724183 364.569787,602.432543 364.156355,599.643528 C364.02119,598.731704 363.849562,597.996062 363.573472,597.530885 C362.900063,597.471552 362.03687,598.828273 360.823677,600.327879 C358.339597,603.398409 354.859723,607.638477 351.011589,609.459939 C350.097534,609.892595 349.189803,610.030031 348.3325,609.949309 C347.395433,609.861077 346.515532,609.509168 345.753645,608.973479 C344.131117,607.832667 343.072559,605.857383 343.107202,603.983755 C343.186345,599.703409 346.841323,594.981796 350.476264,590.449894 C353.966424,586.098499 357.709688,581.87743 356.452208,578.450678 C356.336253,578.134688 356.263173,577.780053 356.193234,577.415978 C356.105284,576.958141 356.110425,576.383728 355.602659,576.099629 C355.158609,575.851179 354.444694,575.820762 353.326302,575.98307 C351.119369,576.303353 348.555454,577.216453 346.032863,578.106572 C343.238751,579.092499 340.492272,580.047864 338.287148,580.26909 C336.31501,580.466943 334.761487,580.072248 333.756118,578.956813 C332.721734,577.809186 332.162032,576.676281 331.941587,575.580072 C331.6894,574.326014 331.876118,573.105128 332.381317,571.930275 C333.608976,569.075325 336.853987,566.492338 339.500408,564.44122 C340.01981,564.038655 340.512702,563.656762 340.955701,563.297034 C347.632366,557.875379 357.455784,555.045869 367.979644,553.07195 C367.76672,551.09255 367.54698,549.014152 367.316734,546.836369 C365.30826,527.839236 362.499598,501.270455 356.433343,466.873105 C354.897123,458.162315 353.319609,449.899889 351.739716,442.096807 C346.370977,498.227437 330.779241,542.197013 306.638001,571.110304 C304.975358,591.502379 303.42729,619.018191 305.796006,652.886422 C308.979225,698.400507 318.643163,726.926966 324.152463,743.190636 C325.51682,747.21827 326.627705,750.501182 327.329488,753.109713 C331.556512,756.714597 335.265158,764.089034 335.265158,773.6608 C335.265158,776.290662 334.801765,778.356454 333.974161,779.98446 C333.050675,781.801077 331.674133,783.094111 329.9186,784.004201 C325.868912,786.10361 319.660684,786.065669 312.469859,785.951393 C310.829344,785.925322 309.137213,785.89839 307.411323,785.898387 C305.856372,785.902232 304.243168,785.924479 302.600118,785.947115 C294.076936,786.064536 284.772443,786.162567 278.501879,783.881592 C275.998995,782.971145 273.965007,781.683785 272.583318,779.923409 C271.298418,778.286351 270.559195,776.237107 270.559195,773.6608 C270.559195,771.463408 271.607234,769.348664 273.499606,767.369572 C275.451699,765.328023 278.313351,763.41958 281.70264,761.685974 C290.081288,757.400333 301.716671,754.147336 310.296138,752.293891 C298.717254,736.613439 285.74949,703.364823 282.788353,661.026078 C281.188332,638.148761 281.951317,613.596801 284.168783,591.941764 C266.715046,604.170236 246.297033,610.609411 223.264504,610.609411 C213.652513,610.609411 204.348018,609.319807 195.411329,606.829586 C193.151564,622.129096 190.771147,642.311968 190.771147,667.047985 C190.771147,702.200175 196.651202,724.644283 200.003216,737.440219 C201.427774,742.878306 202.38037,746.626118 202.310954,748.902835 C202.880209,751.315253 203.206559,753.964247 203.206559,756.80524 C203.206559,759.435102 202.743165,761.500894 201.915561,763.1289 C200.992075,764.945518 199.615534,766.238551 197.860001,767.148641 C193.810313,769.24805 187.602084,769.210109 180.41126,769.095833 C178.770744,769.069762 177.078613,769.042831 175.35025,769.042831 C173.71238,769.042831 171.995717,769.067006 170.238145,769.091721 C161.885645,769.209174 152.633969,769.308788 146.389783,767.014924 C143.906625,766.102712 141.884947,764.814321 140.511124,763.053648 C139.235644,761.41901 138.500595,759.374159 138.500595,756.80524 C138.500595,754.455122 139.702177,752.197506 141.852311,750.098658 C144.092935,747.911479 147.372161,745.883829 151.198349,744.064198 C161.409985,739.207822 175.547279,735.793047 183.554999,734.395517 C177.38862,720.113893 172.217684,698.136131 172.217684,672.0717 C172.217684,647.717638 175.825527,621.163323 180.5834,601.445186 C142.715343,584.395033 112.790435,544.394088 96.2755111,489.045062 C95.3585163,506.41384 94.6386389,525.321047 94.6386389,544.844722 C94.6386389,578.179853 96.4877116,603.615494 97.8096254,621.803101 C98.1594268,626.615859 98.4723772,630.922081 98.7055144,634.733393 C110.191781,634.772571 120.845266,635.772496 128.645127,640.10995 C129.143873,640.387299 129.695604,640.677814 130.277033,640.984084 C133.239471,642.544561 136.883782,644.524893 138.588628,647.123302 C139.290196,648.192585 139.686116,649.362495 139.655563,650.641272 C139.628856,651.759105 139.274415,652.971978 138.455056,654.281761 C137.658681,655.554805 136.1973,656.21324 134.220733,656.360792 C132.01069,656.525773 129.140012,656.061762 126.217117,655.575923 C123.578252,655.137295 120.8947,654.68321 118.665667,654.750954 C117.53609,654.785284 116.83831,654.939177 116.44416,655.260942 C115.993467,655.628867 116.098309,656.193639 116.091212,656.65976 C116.085568,657.030447 116.07519,657.392383 116.015877,657.723705 C115.372654,661.316706 119.792167,664.823729 123.985066,668.503057 C128.351867,672.334986 132.771356,676.350267 133.592701,680.551809 C133.952231,682.390968 133.252805,684.520034 131.853048,685.92522 C131.195765,686.585052 130.390341,687.084385 129.482823,687.33397 C128.652568,687.562306 127.734761,687.584558 126.759453,687.317174 C122.653442,686.191497 118.490038,682.620038 115.510419,680.02746 C114.055091,678.761173 112.969322,677.574871 112.412905,677.552117 C112.125525,678.256349 112.084273,679.010601 112.109526,679.932025 C112.186768,682.750431 112.996498,686.965499 113.782737,691.091991 C114.301735,693.815896 114.812869,696.501927 115.112633,698.740211 C115.605113,702.41746 115.465689,704.97082 114.711839,706.614324 C114.268144,707.581643 113.622184,708.275226 112.77383,708.735524 C111.973951,709.169521 110.976318,709.394096 109.754276,709.394096 C107.534465,709.394096 106.191115,708.762031 105.267856,707.777474 C104.169871,706.606592 103.696437,704.824688 103.199109,702.667504 C102.950717,701.590088 102.681596,700.416184 102.265383,699.19573 C101.86484,698.021227 101.353607,695.539902 100.748124,692.570506 C99.4007728,685.962861 97.7363684,676.451931 95.3755276,675.167517 C94.9908944,674.958258 94.652172,674.857665 94.342962,674.959427 C93.9600405,675.085448 93.6647276,675.447417 93.371217,675.915853 C92.2996727,677.62601 91.5215442,680.76042 90.5467092,684.55316 C89.579531,688.316111 88.4477602,692.711508 86.7600157,697.07578 C86.1900299,698.549683 85.5244924,699.419879 84.8797744,699.956656 C83.8455661,700.817714 82.8142212,700.887367 82.0216581,700.913086 C80.627714,700.97062 79.7119794,700.310968 79.0105041,699.293479 C78.1677524,698.071069 77.6745721,696.279018 77.4050884,695.194288 C76.2454529,690.526509 77.5023959,664.540482 84.113169,648.321518 C76.0023955,631.242646 68.2566593,593.531392 68.2566593,550.681665 C68.2566593,510.390982 75.7517671,453.123022 83.7158173,421.592655 C82.6380317,409.533441 82.084229,397.047075 82.084229,384.187269 C82.084229,335.472792 70.3357223,222.831118 52.389076,149.028758 C52.1459931,148.886198 51.887711,148.792091 51.5759458,148.706623 C50.675907,148.459884 49.4024578,148.341885 47.8923492,148.300484 C43.5230591,148.180696 37.2660902,148.737002 32.0182613,149.201047 C28.4293458,149.518401 25.3040914,149.792472 23.5370021,149.792472 C22.383001,149.792472 21.1048482,149.861772 19.7652776,149.933814 C15.3141219,150.173195 10.2390865,150.391404 6.57542848,148.552858 C3.83542843,147.177834 1.79710231,144.718051 1.30703844,140.308462 C1.14436724,138.844749 1.61162673,137.359099 2.65312495,135.87269 C3.66859569,134.423426 5.24494588,132.959994 7.23753936,131.502911 C12.2421775,127.843271 19.9294808,124.167274 27.4916487,120.559891 C34.4822619,117.225157 41.3641291,113.950087 45.8306946,110.780662 C47.4578865,109.626024 48.7565164,108.494787 49.586111,107.373733 C50.2154954,106.523229 50.5749325,105.69135 50.4829931,104.857903 C50.3839349,103.959924 49.765642,103.266591 48.8579832,102.678371 C47.6063253,101.867218 45.8124813,101.269558 43.6673564,100.80218 C37.5692558,99.4735309 28.725856,99.2620738 20.7775473,99.0645948 C10.924027,98.8197799 2.75527996,98.2723548 1.46919786,96.3457051 C-0.190857076,93.8588154 -1,91.3938433 -1,89.1673064 C-1,86.8346863 -0.129810207,84.7425754 1.61621312,83.1022324 C4.7398895,80.1676206 19.7054719,71.6373161 38.890582,69.0330333 C49.7985373,67.552333 64.635953,68.5527939 76.7940561,69.3797347 C87.3746002,70.0993769 96.2877307,71.1104947 97.4768271,69.4432801 C97.5915173,69.2824747 97.5792401,69.0833862 97.5319601,68.8700245 C97.4319917,68.4188942 97.1539126,67.9127182 96.7535238,67.347031 C95.7204199,65.8874153 93.8986591,64.1356646 91.5611292,62.1883558 C85.0338994,56.7507647 74.5441128,49.8896289 65.3372652,43.8643705 C55.2404326,37.256677 46.8249399,31.5429502 46.1599572,29.6802236 C45.0768639,26.6463 44.7702014,23.9495757 46.4358382,21.8563708 C47.7168923,20.2464708 50.2667783,18.9233929 55.005334,18.2431446 C69.7435395,16.1273861 102.025007,22.3180102 115.563884,25.6737835 C117.960287,26.2677608 123.265163,28.6576451 129.513811,31.4871756 C137.52737,35.1158978 147.124006,39.4661196 154.03046,41.5208258 C156.448124,42.2400936 158.520931,42.6798173 160.0522,42.6730937 C160.627427,42.670568 161.113698,42.6095254 161.486585,42.4449859 C161.689539,42.3554304 161.852264,42.2339025 161.934174,42.0437329 C162.139482,41.5670699 161.73799,40.8451009 161.231433,39.9887266 C160.468613,38.6991178 159.202425,37.1309641 157.53876,35.3713109 C154.118802,31.7540318 149.042204,27.3661263 143.09875,22.978442 C140.08329,20.752315 136.540365,18.8152118 133.212159,16.9920704 C129.572724,14.9984421 126.186413,13.1317565 123.948518,11.2004869 C122.025578,9.54101851 120.948779,7.80924708 120.948779,5.98030669 C120.948779,4.62956139 121.300714,3.53708038 121.903275,2.64648763 C122.551194,1.68885596 123.500563,0.958834473 124.679044,0.422600231 C127.362303,-0.798340756 131.312941,-0.986659217 135.088192,-0.999108586 L135.669227,-1 C160.120121,-1 202.709859,10.3182635 224.114113,44.798361 C235.699427,63.4611344 245.232029,91.270853 255.105651,120.113278 C261.500434,138.793462 268.042426,157.906513 275.394788,175.226641 C281.654363,189.972469 288.688438,205.62435 295.906007,221.684733 C316.052013,266.513207 337.619631,314.520783 347.815257,354.910773 C359.84804,377.350867 375.816152,424.878088 383.476831,468.316266 C390.44195,507.810427 390.580536,544.147785 387.051925,564.994969 C395.902481,579.953628 401.30583,603.991999 400.984292,608.648592 C400.907298,609.76364 400.732851,611.614108 400.115208,612.964275 C399.585835,614.121486 398.755051,614.906713 397.608359,615.057436 C396.605082,615.199878 395.597585,615.29301 394.45026,614.636443 C393.722119,614.219757 392.915569,613.478334 392.098267,612.125792 C389.678178,608.120822 387.800211,603.988674 386.194178,600.450791 C384.575426,596.884888 383.264728,593.933168 381.91244,592.435017 C381.542014,592.024636 381.188306,591.719428 380.7893,591.661801 C380.467122,591.615269 380.151022,591.773135 379.808586,592.045988 Z" id="Combined-Shape" stroke="#000000" stroke-width="2" fill="#F3A7A7"></path>
                <g id="Group-2" transform="translate(95.000000, 178.000000)">
                    <path d="M1.0324323,98.7481004 C0.71063498,92.3980791 2.75426797,83.1566598 6.99712265,71.7163825 C7.21678568,71.1240912 7.43214684,70.5429191 7.64345425,69.9726865 C11.8299996,58.674905 14.3877272,51.7085079 17.3304848,47.6658427 C19.7614662,44.3262391 22.4675957,43.1420111 26.7114776,43.1420111 C28.9508128,43.1420111 30.8808321,43.9653484 32.4600676,45.4945601 C34.1634087,47.1439464 35.4591556,49.5853065 36.3364981,52.6672664 C38.1256176,58.9521491 38.154665,67.8397211 36.0915185,78.3468894 C34.2696228,87.6254182 30.450589,94.4365035 25.8909048,99.1434594 C20.2017279,105.016389 13.3706231,107.606472 7.94661144,107.606472 C5.82861476,107.606472 4.19270703,106.901251 3.06047504,105.497889 C1.82477634,103.966284 1.18086958,101.677211 1.0324323,98.7481004 Z" id="Oval" stroke="#000000" stroke-width="2" fill="#AD6161"></path>
                    <path d="M114.655413,71.1157321 C112.537845,71.1160336 110.902352,70.4110353 109.770541,69.0077735 C108.535206,67.4761588 107.891728,65.1869063 107.743726,62.2574686 C107.422869,55.9066921 109.467577,46.6638191 113.711584,35.2214905 C113.931305,34.6290972 114.146723,34.0478251 114.358086,33.4774943 C118.545767,22.1776951 121.104207,15.2100662 124.047206,11.1664747 C126.478388,7.82610562 129.184355,6.64126365 133.427786,6.64065958 C135.666718,6.64034085 137.596273,7.46344932 139.175007,8.99252618 C140.877891,10.6418488 142.173102,13.0832911 143.04989,16.1654558 C144.837911,22.4508712 144.86569,31.3395462 142.801282,41.8483266 C140.978259,51.1283449 137.158656,57.9408711 132.598788,62.6490982 C126.909445,68.523549 120.078795,71.1149601 114.655413,71.1157321 Z" id="Oval" stroke="#000000" stroke-width="2" fill="#AD6161" transform="translate(126.040167, 38.878196) scale(1, -1) rotate(40.000000) translate(-126.040167, -38.878196) "></path>
                    <ellipse id="Oval" fill="#000000" cx="53.3561644" cy="159.618519" rx="11.2328767" ry="15.4407407"></ellipse>
                    <ellipse id="Oval" fill="#000000" cx="126.369863" cy="109.085185" rx="11.2328767" ry="15.4407407"></ellipse>
                    <path d="M199.238502,320.398246 C191.454252,346.409561 168.62012,367.214724 148.422483,374.998794 C137.863068,379.06834 123.571884,381.021849 110.848603,378.318376 C100.795073,376.182179 91.7159676,371.133275 86.2789783,361.877883 C81.6415122,353.98352 80.5624436,346.463911 81.818725,339.512808 C83.3399522,331.09574 88.2711597,323.51837 94.4073268,317.114429 C99.391308,311.912954 104.754784,310.557331 110.385673,309.114767 C117.585135,307.270355 125.220153,305.303281 133.116355,295.52517 C141.42137,285.240812 145.763616,271.602178 149.544473,259.692648 C153.396843,247.557858 156.593606,237.159207 163.077251,234.320439 C169.007752,231.723856 175.818609,232.617374 181.923953,235.953687 C188.183018,239.374002 193.70721,245.363393 196.823351,252.857086 C204.500394,271.318829 205.551875,299.30191 199.238502,320.398246 Z" id="Oval" stroke="#000000" fill="#000000"></path>
                    <g id="Combined-Shape">
                        <use fill="#FFFFFF" fill-rule="evenodd" xlink:href="#path-2"></use>
                        <use fill="black" fill-opacity="1" filter="url(#filter-3)" xlink:href="#path-2"></use>
                        <path stroke="#000000" stroke-width="2" d="M173.109589,253.666667 C173.109589,276.653909 164.259024,297.466986 149.943201,312.531917 C135.645369,327.577916 115.894459,336.888889 94.0753425,336.888889 C90.5568413,336.888889 87.0920663,336.64684 83.6958941,336.177503 C85.4308664,329.192158 89.4052721,323.057467 94.7683475,317.460354 C99.6770208,312.337474 104.967153,311.019072 110.50976,309.599125 C117.795797,307.732533 125.516213,305.732504 133.505354,295.839302 C141.848941,285.50718 146.222192,271.81012 150.021035,259.84394 C153.809257,247.911212 156.880326,237.579496 163.277789,234.778461 C165.599487,233.76194 168.122596,233.263869 170.708299,233.234053 C172.277227,239.771318 173.109589,246.616694 173.109589,253.666667 Z" stroke-linejoin="square"></path>
                    </g>
                    <ellipse id="Oval" fill="#FFFFFF" cx="57.5684932" cy="151.196296" rx="4.21232877" ry="4.21111111"></ellipse>
                    <ellipse id="Oval" fill="#FFFFFF" cx="130.582192" cy="100.662963" rx="4.21232877" ry="4.21111111"></ellipse>
                </g>
            </g>
            <g id="Group-5" filter="url(#filter-4)" transform="translate(642.000000, 696.000000)">
                <path d="M644.215358,235.600354 L420.083736,235.599799 C420.113241,244.168427 420.105379,253.182434 420.097233,262.517795 C420.093354,266.962879 420.089412,271.480838 420.089412,276.058158 L420.08965,278.055288 C420.090559,281.95073 420.093919,285.801337 420.097233,289.598759 C420.142154,341.078808 420.085356,382.79032 413.957273,394.219269 C412.6602,397.742365 410.787375,400.807865 407.691745,402.890657 C405.09407,404.638416 401.62067,405.706601 396.837882,405.706603 C393.987259,405.706604 391.486658,405.79843 389.287607,405.879038 C384.139711,406.067737 380.585933,406.145148 378.031628,405.020414 C375.749514,404.015533 374.160626,402.120642 373.026439,398.451599 C371.580863,393.775227 372.344034,389.227047 374.817226,385.24226 C377.326406,381.199489 381.621089,377.733197 387.168794,375.355736 C387.962859,375.01544 388.9381,374.554922 390.009531,374.049335 C391.943152,373.136899 394.182457,372.081986 396.249677,371.294921 C391.714681,349.139727 388.797324,314.715828 388.797324,276.058277 C388.797324,261.868786 389.190075,248.250012 389.911529,235.59979 L254.528423,235.598975 C255.086854,251.743447 255.185602,270.776111 255.185602,291.155214 C255.185602,313.996273 256.737436,335.56074 258.0165,353.342682 C258.864304,365.1291 259.592045,375.259063 259.674034,383.007396 C260.068433,385.147579 259.94034,387.618785 259.79315,390.217049 C259.735765,391.230025 259.677081,392.26297 259.651603,393.302555 C259.59909,395.445223 259.182185,397.136221 258.469975,398.481332 C257.681726,399.970051 256.531612,401.053114 255.056153,401.840675 C251.754561,403.602977 246.694772,403.808012 240.478646,403.993972 C240.175395,404.003044 239.86935,404.012199 239.560591,404.021643 C239.253924,404.031023 238.947749,404.040589 238.642273,404.050134 C232.226831,404.250591 226.124079,404.397523 222.123044,402.74741 C220.403881,402.03839 219.050169,401.009069 218.151079,399.572744 C217.333164,398.266097 216.883621,396.609739 216.935354,394.498899 C217.057779,389.503617 219.559792,384.893832 223.545316,381.496384 C227.160818,378.414362 231.995616,376.334935 237.324486,375.886101 C230.275203,355.673943 223.943419,324.792334 223.943419,291.155214 C223.943419,270.779967 224.941427,251.74894 226.670115,235.598976 L14.5870843,235.600354 C10.7572784,235.600354 7.36549645,234.14117 4.72442406,231.587596 C2.10364477,229.053643 0.221004008,225.428719 -0.576280646,221.070386 C-1.93128637,213.663288 -0.150988225,204.098496 6.49665694,194.330801 C15.5836325,180.978885 33.8211915,167.191651 65.6462157,158.215479 C97.3876667,149.262879 121.657414,146.867406 137.101559,145.343989 C142.793169,144.782567 147.27248,144.345005 150.468491,143.732365 C148.137776,140.84207 145.657729,138.022543 142.990826,135.38465 C130.30454,122.836365 119.966515,109.86964 113.502022,99.0534661 C110.168496,93.4759211 107.861746,88.4598169 106.770608,84.3546065 C105.631682,80.0696049 105.847211,76.7502356 107.349006,74.6440925 C108.126733,73.5533944 109.210654,72.802425 110.578147,72.3892299 C111.864458,72.0005643 113.416787,71.915718 115.203054,72.1438865 C118.624309,72.5809 122.960323,74.1763513 127.916996,76.8045905 C137.18565,81.7192254 148.686692,90.2568658 160.468837,101.346463 C168.917554,68.8700889 187.791355,44.2781203 212.634536,27.3449279 C240.501076,8.35100393 275.891421,-1 312.49916,-1 C347.997896,-1 378.68409,8.91136681 403.647465,27.5273594 C428.583121,46.1226817 447.81492,73.4131813 460.400778,108.233992 C461.383403,107.34885 462.361886,106.428042 463.331577,105.469154 C474.917103,94.0127042 486.329076,84.9358837 495.409074,79.5151391 C500.12374,76.7004908 504.226424,74.8674216 507.417851,74.1627207 C509.098542,73.7916063 510.545204,73.7304066 511.722504,73.9665982 C513.036893,74.2302931 514.043664,74.8538125 514.73217,75.8194533 C515.963083,77.5458297 516.051263,80.4062895 514.83806,84.2112992 C513.704114,87.7677343 511.473429,92.1753571 508.32526,97.1234868 C502.224558,106.712258 492.66468,118.370101 481.085979,129.819802 C477.395699,133.468968 474.058833,137.445307 470.984745,141.428238 C475.940901,143.134542 491.329689,144.454408 510.040065,146.138801 C538.728472,148.721461 575.191793,152.016577 594.710238,158.224976 C618.670671,165.846276 633.585576,178.704995 642.166124,191.698143 C648.495331,201.282182 651.382489,210.952127 651.90978,218.696126 C652.238486,223.52364 651.646646,227.61514 650.420355,230.51505 C649.745348,232.111293 648.873583,233.359639 647.866041,234.212889 C646.79234,235.122165 645.5609,235.600354 644.215358,235.600354 Z" id="Combined-Shape" stroke="#000000" stroke-width="2" fill="#99CAF4"></path>
                <path d="M311.851575,142.856968 C297.148479,143.500858 284.154124,139.564426 274.412651,133.763385 C268.696376,130.359347 264.102265,126.315514 260.955422,122.179783 C257.829884,118.072054 256.126555,113.883261 256.267647,110.172688 C256.391356,106.919293 258.042801,103.770329 260.856603,100.829817 C263.91131,97.6375515 268.328232,94.7015151 273.759245,92.1598238 C284.574284,87.0984313 299.383567,83.6214691 315.618753,82.9104847 C331.839475,82.2001337 346.420089,84.383749 356.876822,88.5097206 C362.100826,90.5709847 366.286105,93.1104336 369.091526,96.0283966 C371.659951,98.6998561 373.055874,101.684696 372.933613,104.900042 C372.650723,112.339725 364.216806,122.28295 351.704176,130.132487 C340.818942,136.961112 326.758849,142.204137 311.851575,142.856968 Z" id="Oval" stroke="#000000" stroke-width="2" fill="#000000" transform="translate(314.600347, 112.851953) rotate(-15.000000) translate(-314.600347, -112.851953) "></path>
                <path d="M310.955793,132.354682 C297.165247,132.958608 284.958293,129.762254 275.795344,125.00378 C270.432536,122.218783 266.116099,118.901919 263.154302,115.49995 C260.25518,112.169971 258.645109,108.771941 258.760243,105.74403 C258.860945,103.095698 260.388281,100.538574 262.963699,98.1378343 C265.810949,95.4837004 269.934944,93.0370675 275.010039,90.9095172 C285.133445,86.6656452 299.009774,83.7152439 314.235614,83.0484616 C329.44981,82.3821892 343.136749,84.1209255 352.963456,87.4883471 C357.86371,89.1675689 361.793398,91.2441773 364.432572,93.6433777 C366.794198,95.790266 368.108805,98.1892097 368.009676,100.796174 C367.776503,106.928375 359.895626,115.117159 348.283268,121.626943 C338.101743,127.334614 324.935157,131.742486 310.955793,132.354682 Z" id="Oval" stroke="#000000" stroke-width="2" fill="#FFFFFF" transform="translate(313.384759, 107.667950) rotate(-15.000000) translate(-313.384759, -107.667950) "></path>
                <ellipse id="Oval" fill="#000000" cx="219.5" cy="105" rx="9.5" ry="11"></ellipse>
                <ellipse id="Oval" fill="#000000" cx="409.5" cy="101" rx="9.5" ry="11"></ellipse>
                <ellipse id="Oval" fill="#FFFFFF" cx="414.5" cy="97" rx="3.5" ry="4"></ellipse>
                <ellipse id="Oval" fill="#FFFFFF" cx="223.5" cy="102" rx="3.5" ry="4"></ellipse>
            </g>
            <g id="Combined-Shape">
                <use fill="black" fill-opacity="1" filter="url(#filter-6)" xlink:href="#path-5"></use>
                <use fill="#D8D8D8" fill-rule="evenodd" xlink:href="#path-5"></use>
            </g>
        </g>
    </g>
</svg>