<?xml version="1.0" encoding="UTF-8"?>
<svg width="1614px" height="1986px" viewBox="0 0 1614 1986" version="1.1" xmlns="http://www.w3.org/2000/svg" xmlns:xlink="http://www.w3.org/1999/xlink">
    <!-- Generator: Sketch 62 (91390) - https://sketch.com -->
    <title>telescope</title>
    <desc>Created with Sketch.</desc>
    <g id="Page-1" stroke="none" stroke-width="1" fill="none" fill-rule="evenodd">
        <g id="telescope" transform="translate(7.000000, 7.000000)" fill-rule="nonzero">
            <circle id="Oval" fill="#1F1F1F" cx="682" cy="683" r="554"></circle>
            <g id="Group-3" transform="translate(389.000000, 711.500000) scale(-1, 1) translate(-389.000000, -711.500000) translate(188.000000, 318.000000)">
                <path d="M380.808586,593.045988 C378.706692,594.720776 378.719457,604.376224 378.540192,611.117414 C378.459632,614.146838 378.387121,616.67924 378.196651,617.905449 C377.99873,619.179621 377.93758,620.382405 377.880085,621.486566 C377.764967,623.697326 377.6082,625.534346 376.730254,626.878087 C375.992016,628.007997 374.778852,628.863726 372.592757,629.249193 C371.38929,629.461397 370.367815,629.41346 369.504712,629.124938 C368.589316,628.818935 367.832716,628.248045 367.227764,627.372458 C366.199916,625.884786 365.619142,623.394381 365.465476,619.687477 C365.371941,617.43114 365.4088,614.697159 365.446826,611.924513 C365.504431,607.724183 365.569787,603.432543 365.156355,600.643528 C365.02119,599.731704 364.849562,598.996062 364.573472,598.530885 C363.900063,598.471552 363.03687,599.828273 361.823677,601.327879 C359.339597,604.398409 355.859723,608.638477 352.011589,610.459939 C351.097534,610.892595 350.189803,611.030031 349.3325,610.949309 C348.395433,610.861077 347.515532,610.509168 346.753645,609.973479 C345.131117,608.832667 344.072559,606.857383 344.107202,604.983755 C344.186345,600.703409 347.841323,595.981796 351.476264,591.449894 C354.966424,587.098499 358.709688,582.87743 357.452208,579.450678 C357.336253,579.134688 357.263173,578.780053 357.193234,578.415978 C357.105284,577.958141 357.110425,577.383728 356.602659,577.099629 C356.158609,576.851179 355.444694,576.820762 354.326302,576.98307 C352.119369,577.303353 349.555454,578.216453 347.032863,579.106572 C344.238751,580.092499 341.492272,581.047864 339.287148,581.26909 C337.31501,581.466943 335.761487,581.072248 334.756118,579.956813 C333.721734,578.809186 333.162032,577.676281 332.941587,576.580072 C332.6894,575.326014 332.876118,574.105128 333.381317,572.930275 C334.608976,570.075325 337.853987,567.492338 340.500408,565.44122 C341.01981,565.038655 341.512702,564.656762 341.955701,564.297034 C348.632366,558.875379 358.455784,556.045869 368.979644,554.07195 C368.76672,552.09255 368.54698,550.014152 368.316734,547.836369 C366.30826,528.839236 363.499598,502.270455 357.433343,467.873105 C355.897123,459.162315 354.319609,450.899889 352.739716,443.096807 C347.370977,499.227437 331.779241,543.197013 307.638001,572.110304 C305.975358,592.502379 304.42729,620.018191 306.796006,653.886422 C309.979225,699.400507 319.643163,727.926966 325.152463,744.190636 C326.51682,748.21827 327.627705,751.501182 328.329488,754.109713 C332.556512,757.714597 336.265158,765.089034 336.265158,774.6608 C336.265158,777.290662 335.801765,779.356454 334.974161,780.98446 C334.050675,782.801077 332.674133,784.094111 330.9186,785.004201 C326.868912,787.10361 320.660684,787.065669 313.469859,786.951393 C311.829344,786.925322 310.137213,786.89839 308.411323,786.898387 C306.856372,786.902232 305.243168,786.924479 303.600118,786.947115 C295.076936,787.064536 285.772443,787.162567 279.501879,784.881592 C276.998995,783.971145 274.965007,782.683785 273.583318,780.923409 C272.298418,779.286351 271.559195,777.237107 271.559195,774.6608 C271.559195,772.463408 272.607234,770.348664 274.499606,768.369572 C276.451699,766.328023 279.313351,764.41958 282.70264,762.685974 C291.081288,758.400333 302.716671,755.147336 311.296138,753.293891 C299.717254,737.613439 286.74949,704.364823 283.788353,662.026078 C282.188332,639.148761 282.951317,614.596801 285.168783,592.941764 C267.715046,605.170236 247.297033,611.609411 224.264504,611.609411 C214.652513,611.609411 205.348018,610.319807 196.411329,607.829586 C194.151564,623.129096 191.771147,643.311968 191.771147,668.047985 C191.771147,703.200175 197.651202,725.644283 201.003216,738.440219 C202.427774,743.878306 203.38037,747.626118 203.310954,749.902835 C203.880209,752.315253 204.206559,754.964247 204.206559,757.80524 C204.206559,760.435102 203.743165,762.500894 202.915561,764.1289 C201.992075,765.945518 200.615534,767.238551 198.860001,768.148641 C194.810313,770.24805 188.602084,770.210109 181.41126,770.095833 C179.770744,770.069762 178.078613,770.042831 176.35025,770.042831 C174.71238,770.042831 172.995717,770.067006 171.238145,770.091721 C162.885645,770.209174 153.633969,770.308788 147.389783,768.014924 C144.906625,767.102712 142.884947,765.814321 141.511124,764.053648 C140.235644,762.41901 139.500595,760.374159 139.500595,757.80524 C139.500595,755.455122 140.702177,753.197506 142.852311,751.098658 C145.092935,748.911479 148.372161,746.883829 152.198349,745.064198 C162.409985,740.207822 176.547279,736.793047 184.554999,735.395517 C178.38862,721.113893 173.217684,699.136131 173.217684,673.0717 C173.217684,648.717638 176.825527,622.163323 181.5834,602.445186 C143.715343,585.395033 113.790435,545.394088 97.2755111,490.045062 C96.3585163,507.41384 95.6386389,526.321047 95.6386389,545.844722 C95.6386389,579.179853 97.4877116,604.615494 98.8096254,622.803101 C99.1594268,627.615859 99.4723772,631.922081 99.7055144,635.733393 C111.191781,635.772571 121.845266,636.772496 129.645127,641.10995 C130.143873,641.387299 130.695604,641.677814 131.277033,641.984084 C134.239471,643.544561 137.883782,645.524893 139.588628,648.123302 C140.290196,649.192585 140.686116,650.362495 140.655563,651.641272 C140.628856,652.759105 140.274415,653.971978 139.455056,655.281761 C138.658681,656.554805 137.1973,657.21324 135.220733,657.360792 C133.01069,657.525773 130.140012,657.061762 127.217117,656.575923 C124.578252,656.137295 121.8947,655.68321 119.665667,655.750954 C118.53609,655.785284 117.83831,655.939177 117.44416,656.260942 C116.993467,656.628867 117.098309,657.193639 117.091212,657.65976 C117.085568,658.030447 117.07519,658.392383 117.015877,658.723705 C116.372654,662.316706 120.792167,665.823729 124.985066,669.503057 C129.351867,673.334986 133.771356,677.350267 134.592701,681.551809 C134.952231,683.390968 134.252805,685.520034 132.853048,686.92522 C132.195765,687.585052 131.390341,688.084385 130.482823,688.33397 C129.652568,688.562306 128.734761,688.584558 127.759453,688.317174 C123.653442,687.191497 119.490038,683.620038 116.510419,681.02746 C115.055091,679.761173 113.969322,678.574871 113.412905,678.552117 C113.125525,679.256349 113.084273,680.010601 113.109526,680.932025 C113.186768,683.750431 113.996498,687.965499 114.782737,692.091991 C115.301735,694.815896 115.812869,697.501927 116.112633,699.740211 C116.605113,703.41746 116.465689,705.97082 115.711839,707.614324 C115.268144,708.581643 114.622184,709.275226 113.77383,709.735524 C112.973951,710.169521 111.976318,710.394096 110.754276,710.394096 C108.534465,710.394096 107.191115,709.762031 106.267856,708.777474 C105.169871,707.606592 104.696437,705.824688 104.199109,703.667504 C103.950717,702.590088 103.681596,701.416184 103.265383,700.19573 C102.86484,699.021227 102.353607,696.539902 101.748124,693.570506 C100.400773,686.962861 98.7363684,677.451931 96.3755276,676.167517 C95.9908944,675.958258 95.652172,675.857665 95.342962,675.959427 C94.9600405,676.085448 94.6647276,676.447417 94.371217,676.915853 C93.2996727,678.62601 92.5215442,681.76042 91.5467092,685.55316 C90.579531,689.316111 89.4477602,693.711508 87.7600157,698.07578 C87.1900299,699.549683 86.5244924,700.419879 85.8797744,700.956656 C84.8455661,701.817714 83.8142212,701.887367 83.0216581,701.913086 C81.627714,701.97062 80.7119794,701.310968 80.0105041,700.293479 C79.1677524,699.071069 78.6745721,697.279018 78.4050884,696.194288 C77.2454529,691.526509 78.5023959,665.540482 85.113169,649.321518 C77.0023955,632.242646 69.2566593,594.531392 69.2566593,551.681665 C69.2566593,511.390982 76.7517671,454.123022 84.7158173,422.592655 C83.6380317,410.533441 83.084229,398.047075 83.084229,385.187269 C83.084229,336.472792 71.3357223,223.831118 53.389076,150.028758 C53.1459931,149.886198 52.887711,149.792091 52.5759458,149.706623 C51.675907,149.459884 50.4024578,149.341885 48.8923492,149.300484 C44.5230591,149.180696 38.2660902,149.737002 33.0182613,150.201047 C29.4293458,150.518401 26.3040914,150.792472 24.5370021,150.792472 C23.383001,150.792472 22.1048482,150.861772 20.7652776,150.933814 C16.3141219,151.173195 11.2390865,151.391404 7.57542848,149.552858 C4.83542843,148.177834 2.79710231,145.718051 2.30703844,141.308462 C2.14436724,139.844749 2.61162673,138.359099 3.65312495,136.87269 C4.66859569,135.423426 6.24494588,133.959994 8.23753936,132.502911 C13.2421775,128.843271 20.9294808,125.167274 28.4916487,121.559891 C35.4822619,118.225157 42.3641291,114.950087 46.8306946,111.780662 C48.4578865,110.626024 49.7565164,109.494787 50.586111,108.373733 C51.2154954,107.523229 51.5749325,106.69135 51.4829931,105.857903 C51.3839349,104.959924 50.765642,104.266591 49.8579832,103.678371 C48.6063253,102.867218 46.8124813,102.269558 44.6673564,101.80218 C38.5692558,100.473531 29.725856,100.262074 21.7775473,100.064595 C11.924027,99.8197799 3.75527996,99.2723548 2.46919786,97.3457051 C0.809142924,94.8588154 0,92.3938433 0,90.1673064 C0,87.8346863 0.870189793,85.7425754 2.61621312,84.1022324 C5.7398895,81.1676206 20.7054719,72.6373161 39.890582,70.0330333 C50.7985373,68.552333 65.635953,69.5527939 77.7940561,70.3797347 C88.3746002,71.0993769 97.2877307,72.1104947 98.4768271,70.4432801 C98.5915173,70.2824747 98.5792401,70.0833862 98.5319601,69.8700245 C98.4319917,69.4188942 98.1539126,68.9127182 97.7535238,68.347031 C96.7204199,66.8874153 94.8986591,65.1356646 92.5611292,63.1883558 C86.0338994,57.7507647 75.5441128,50.8896289 66.3372652,44.8643705 C56.2404326,38.256677 47.8249399,32.5429502 47.1599572,30.6802236 C46.0768639,27.6463 45.7702014,24.9495757 47.4358382,22.8563708 C48.7168923,21.2464708 51.2667783,19.9233929 56.005334,19.2431446 C70.7435395,17.1273861 103.025007,23.3180102 116.563884,26.6737835 C118.960287,27.2677608 124.265163,29.6576451 130.513811,32.4871756 C138.52737,36.1158978 148.124006,40.4661196 155.03046,42.5208258 C157.448124,43.2400936 159.520931,43.6798173 161.0522,43.6730937 C161.627427,43.670568 162.113698,43.6095254 162.486585,43.4449859 C162.689539,43.3554304 162.852264,43.2339025 162.934174,43.0437329 C163.139482,42.5670699 162.73799,41.8451009 162.231433,40.9887266 C161.468613,39.6991178 160.202425,38.1309641 158.53876,36.3713109 C155.118802,32.7540318 150.042204,28.3661263 144.09875,23.978442 C141.08329,21.752315 137.540365,19.8152118 134.212159,17.9920704 C130.572724,15.9984421 127.186413,14.1317565 124.948518,12.2004869 C123.025578,10.5410185 121.948779,8.80924708 121.948779,6.98030669 C121.948779,5.62956139 122.300714,4.53708038 122.903275,3.64648763 C123.551194,2.68885596 124.500563,1.95883447 125.679044,1.42260023 C128.362303,0.201659244 132.312941,0.013340783 136.088192,0 L136.669227,0 C161.120121,0 203.709859,11.3182635 225.114113,45.798361 C236.699427,64.4611344 246.232029,92.270853 256.105651,121.113278 C262.500434,139.793462 269.042426,158.906513 276.394788,176.226641 C282.654363,190.972469 289.688438,206.62435 296.906007,222.684733 C317.052013,267.513207 338.619631,315.520783 348.815257,355.910773 C360.84804,378.350867 376.816152,425.878088 384.476831,469.316266 C391.44195,508.810427 391.580536,545.147785 388.051925,565.994969 C396.902481,580.953628 402.30583,604.991999 401.984292,609.648592 C401.907298,610.76364 401.732851,612.614108 401.115208,613.964275 C400.585835,615.121486 399.755051,615.906713 398.608359,616.057436 C397.605082,616.199878 396.597585,616.29301 395.45026,615.636443 C394.722119,615.219757 393.915569,614.478334 393.098267,613.125792 C390.678178,609.120822 388.800211,604.988674 387.194178,601.450791 C385.575426,597.884888 384.264728,594.933168 382.91244,593.435017 C382.542014,593.024636 382.188306,592.719428 381.7893,592.661801 C381.467122,592.615269 381.151022,592.773135 380.808586,593.045988 Z" id="Combined-Shape" stroke="#000000" stroke-width="2" fill="#F3A7A7"></path>
                <g id="Group-2" transform="translate(97.000000, 181.000000)">
                    <path d="M0.0324323,96.7481004 C-0.28936502,90.3980791 1.75426797,81.1566598 5.99712265,69.7163825 C6.21678568,69.1240912 6.43214684,68.5429191 6.64345425,67.9726865 C10.8299996,56.674905 13.3877272,49.7085079 16.3304848,45.6658427 C18.7614662,42.3262391 21.4675957,41.1420111 25.7114776,41.1420111 C27.9508128,41.1420111 29.8808321,41.9653484 31.4600676,43.4945601 C33.1634087,45.1439464 34.4591556,47.5853065 35.3364981,50.6672664 C37.1256176,56.9521491 37.154665,65.8397211 35.0915185,76.3468894 C33.2696228,85.6254182 29.450589,92.4365035 24.8909048,97.1434594 C19.2017279,103.016389 12.3706231,105.606472 6.94661144,105.606472 C4.82861476,105.606472 3.19270703,104.901251 2.06047504,103.497889 C0.82477634,101.966284 0.18086958,99.677211 0.0324323,96.7481004 Z" id="Oval" stroke="#000000" stroke-width="2" fill="#AD6161"></path>
                    <path d="M113.655163,69.1150465 C111.537595,69.1150465 109.902102,68.4103496 108.770291,67.0070878 C107.534956,65.4754731 106.891478,63.1862206 106.743476,60.2567829 C106.422619,53.9060064 108.467327,44.6631334 112.711334,33.2208048 C112.931055,32.6284115 113.146473,32.0471394 113.357836,31.4768086 C117.545517,20.1770094 120.103957,13.2093805 123.046956,9.16578912 C125.478138,5.82542004 128.184105,4.6399739 132.427536,4.6399739 C134.666468,4.6399739 136.596023,5.46276374 138.174757,6.9918406 C139.877641,8.64116322 141.172852,11.0826054 142.04964,14.1647701 C143.837661,20.4501855 143.86544,29.3388605 141.801032,39.8476409 C139.978009,49.1276592 136.158406,55.9401854 131.598538,60.6484125 C125.909195,66.5228633 119.078545,69.1142744 113.655163,69.1150465 Z" id="Oval" stroke="#000000" stroke-width="2" fill="#AD6161" transform="translate(125.040985, 36.877510) scale(-1, 1) rotate(-140.000000) translate(-125.040985, -36.877510) "></path>
                    <ellipse id="Oval" fill="#000000" cx="52.3561644" cy="157.618519" rx="11.2328767" ry="15.4407407"></ellipse>
                    <ellipse id="Oval" fill="#000000" cx="125.369863" cy="107.085185" rx="11.2328767" ry="15.4407407"></ellipse>
                    <path d="M199.675532,318.828297 C191.753567,345.299792 168.517796,366.476306 147.961902,374.398446 C137.162816,378.560361 122.547388,380.550132 109.53684,377.78562 C99.0651623,375.560574 89.6419171,370.266356 83.9856278,360.637649 C79.1344506,352.379485 78.0293442,344.512593 79.3426386,337.246033 C80.914525,328.548664 85.9786892,320.699142 92.3242648,314.076654 C97.5109778,308.6636 103.068041,307.184734 108.934811,305.681829 C115.950999,303.884371 123.331086,302.016712 130.949356,292.582773 C139.138658,282.441706 143.387885,268.978352 147.114746,257.238908 L147.323105,256.582372 C151.275536,244.126271 154.848994,233.847749 161.475636,230.946372 C167.812481,228.171877 175.101641,229.062686 181.643249,232.637399 C188.177935,236.208329 193.954053,242.455154 197.208375,250.281144 C204.999212,269.01654 206.083554,297.41569 199.675532,318.828297 Z" id="Oval" stroke="#000000" stroke-width="3" fill="#000000"></path>
                    <g id="Combined-Shape" transform="translate(81.000000, 230.000000)" fill="#FFFFFF">
                        <g id="path-2-link">
                            <path d="M80.876712,1.862417 C83.558168,0.688381 86.494571,0.167959 89.49419,0.238758 C91.201482,7.080062 92.109589,14.261765 92.109589,21.666667 C92.109589,68.181316 56.277036,105.888889 12.0753425,105.888889 C8.1363342,105.888889 4.2637884,105.589439 0.4771407,105.010991 C2.1010291,97.414617 6.2816274,90.784746 12.0463062,84.768504 C23.39779,72.921658 36.64982,80.643686 50.727355,63.211038 C67.597777,42.31987 67.994792,7.502575 80.876712,1.862417 Z" id="path-2"></path>
                        </g>
                    </g>
                    <ellipse id="Oval" fill="#FFFFFF" cx="56.5684932" cy="149.196296" rx="4.21232877" ry="4.21111111"></ellipse>
                    <ellipse id="Oval" fill="#FFFFFF" cx="129.582192" cy="98.662963" rx="4.21232877" ry="4.21111111"></ellipse>
                </g>
            </g>
            <g id="Group-5" transform="translate(644.000000, 698.000000)">
                <path d="M645.215358,236.600354 L421.083736,236.599799 C421.113241,245.168427 421.105379,254.182434 421.097233,263.517795 C421.093354,267.962879 421.089412,272.480838 421.089412,277.058158 L421.08965,279.055288 C421.090559,282.95073 421.093919,286.801337 421.097233,290.598759 C421.142154,342.078808 421.085356,383.79032 414.957273,395.219269 C413.6602,398.742365 411.787375,401.807865 408.691745,403.890657 C406.09407,405.638416 402.62067,406.706601 397.837882,406.706603 C394.987259,406.706604 392.486658,406.79843 390.287607,406.879038 C385.139711,407.067737 381.585933,407.145148 379.031628,406.020414 C376.749514,405.015533 375.160626,403.120642 374.026439,399.451599 C372.580863,394.775227 373.344034,390.227047 375.817226,386.24226 C378.326406,382.199489 382.621089,378.733197 388.168794,376.355736 C388.962859,376.01544 389.9381,375.554922 391.009531,375.049335 C392.943152,374.136899 395.182457,373.081986 397.249677,372.294921 C392.714681,350.139727 389.797324,315.715828 389.797324,277.058277 C389.797324,262.868786 390.190075,249.250012 390.911529,236.59979 L255.528423,236.598975 C256.086854,252.743447 256.185602,271.776111 256.185602,292.155214 C256.185602,314.996273 257.737436,336.56074 259.0165,354.342682 C259.864304,366.1291 260.592045,376.259063 260.674034,384.007396 C261.068433,386.147579 260.94034,388.618785 260.79315,391.217049 C260.735765,392.230025 260.677081,393.26297 260.651603,394.302555 C260.59909,396.445223 260.182185,398.136221 259.469975,399.481332 C258.681726,400.970051 257.531612,402.053114 256.056153,402.840675 C252.754561,404.602977 247.694772,404.808012 241.478646,404.993972 C241.175395,405.003044 240.86935,405.012199 240.560591,405.021643 C240.253924,405.031023 239.947749,405.040589 239.642273,405.050134 C233.226831,405.250591 227.124079,405.397523 223.123044,403.74741 C221.403881,403.03839 220.050169,402.009069 219.151079,400.572744 C218.333164,399.266097 217.883621,397.609739 217.935354,395.498899 C218.057779,390.503617 220.559792,385.893832 224.545316,382.496384 C228.160818,379.414362 232.995616,377.334935 238.324486,376.886101 C231.275203,356.673943 224.943419,325.792334 224.943419,292.155214 C224.943419,271.779967 225.941427,252.74894 227.670115,236.598976 L15.5870843,236.600354 C11.7572784,236.600354 8.36549645,235.14117 5.72442406,232.587596 C3.10364477,230.053643 1.22100401,226.428719 0.423719354,222.070386 C-0.93128637,214.663288 0.849011775,205.098496 7.49665694,195.330801 C16.5836325,181.978885 34.8211915,168.191651 66.6462157,159.215479 C98.3876667,150.262879 122.657414,147.867406 138.101559,146.343989 C143.793169,145.782567 148.27248,145.345005 151.468491,144.732365 C149.137776,141.84207 146.657729,139.022543 143.990826,136.38465 C131.30454,123.836365 120.966515,110.86964 114.502022,100.053466 C111.168496,94.4759211 108.861746,89.4598169 107.770608,85.3546065 C106.631682,81.0696049 106.847211,77.7502356 108.349006,75.6440925 C109.126733,74.5533944 110.210654,73.802425 111.578147,73.3892299 C112.864458,73.0005643 114.416787,72.915718 116.203054,73.1438865 C119.624309,73.5809 123.960323,75.1763513 128.916996,77.8045905 C138.18565,82.7192254 149.686692,91.2568658 161.468837,102.346463 C169.917554,69.8700889 188.791355,45.2781203 213.634536,28.3449279 C241.501076,9.35100393 276.891421,0 313.49916,0 C348.997896,0 379.68409,9.91136681 404.647465,28.5273594 C429.583121,47.1226817 448.81492,74.4131813 461.400778,109.233992 C462.383403,108.34885 463.361886,107.428042 464.331577,106.469154 C475.917103,95.0127042 487.329076,85.9358837 496.409074,80.5151391 C501.12374,77.7004908 505.226424,75.8674216 508.417851,75.1627207 C510.098542,74.7916063 511.545204,74.7304066 512.722504,74.9665982 C514.036893,75.2302931 515.043664,75.8538125 515.73217,76.8194533 C516.963083,78.5458297 517.051263,81.4062895 515.83806,85.2112992 C514.704114,88.7677343 512.473429,93.1753571 509.32526,98.1234868 C503.224558,107.712258 493.66468,119.370101 482.085979,130.819802 C478.395699,134.468968 475.058833,138.445307 471.984745,142.428238 C476.940901,144.134542 492.329689,145.454408 511.040065,147.138801 C539.728472,149.721461 576.191793,153.016577 595.710238,159.224976 C619.670671,166.846276 634.585576,179.704995 643.166124,192.698143 C649.495331,202.282182 652.382489,211.952127 652.90978,219.696126 C653.238486,224.52364 652.646646,228.61514 651.420355,231.51505 C650.745348,233.111293 649.873583,234.359639 648.866041,235.212889 C647.79234,236.122165 646.5609,236.600354 645.215358,236.600354 Z" id="Combined-Shape" stroke="#000000" stroke-width="2" fill="#99CAF4"></path>
                <path d="M312.91721,145.355521 C297.885421,146.013805 284.603343,141.982242 274.645186,136.052165 C268.74429,132.538186 264.00947,128.356445 260.761701,124.088072 C257.384169,119.649161 255.616798,115.111567 255.768739,111.115681 C255.904854,107.536018 257.664636,104.040944 260.772859,100.792753 C263.935347,97.4878529 268.498575,94.4336457 274.123443,91.8012311 C285.085955,86.6708221 300.094502,83.13268 316.553136,82.4119102 C333.019002,81.6908237 347.814703,83.9268945 358.427386,88.1144002 C363.88625,90.2683341 368.243406,92.941829 371.172842,95.988783 C374.059384,98.9911208 375.569376,102.358337 375.432539,105.957026 C375.13848,113.690447 366.609958,124.179705 353.50131,132.403141 C342.416343,139.357065 328.097002,144.690755 312.91721,145.355521 Z" id="Oval" stroke="#000000" stroke-width="3" fill="#000000" transform="translate(315.600393, 113.851985) rotate(-15.000000) translate(-315.600393, -113.851985) "></path>
                <path d="M311.955772,133.354704 C298.165226,133.95863 285.958272,130.762276 276.795323,126.003802 C271.432515,123.218805 267.116078,119.901941 264.154281,116.499972 C261.255159,113.169993 259.645088,109.771963 259.760222,106.744052 C259.860924,104.09572 261.38826,101.538596 263.963678,99.1378566 C266.810928,96.4837227 270.934923,94.0370898 276.010018,91.9095395 C286.133424,87.6656675 300.009753,84.7152662 315.235593,84.0484839 C330.449789,83.3822115 344.136728,85.1209478 353.963435,88.4883694 C358.863689,90.1675912 362.793377,92.2441996 365.432551,94.6434 C367.794177,96.7902883 369.108784,99.189232 369.009655,101.796196 C368.776482,107.928397 360.895605,116.117181 349.283247,122.626965 C339.101722,128.334636 325.935136,132.742508 311.955772,133.354704 Z" id="Oval" stroke="#000000" stroke-width="2" fill="#FFFFFF" transform="translate(314.384664, 108.667880) rotate(-15.000000) translate(-314.384664, -108.667880) "></path>
                <ellipse id="Oval" fill="#000000" cx="220.5" cy="106" rx="9.5" ry="11"></ellipse>
                <ellipse id="Oval" fill="#000000" cx="410.5" cy="102" rx="9.5" ry="11"></ellipse>
                <ellipse id="Oval" fill="#FFFFFF" cx="415.5" cy="98" rx="3.5" ry="4"></ellipse>
                <ellipse id="Oval" fill="#FFFFFF" cx="224.5" cy="103" rx="3.5" ry="4"></ellipse>
            </g>
            <g id="Combined-Shape">
                <g id="path-5-link" transform="translate(3.000000, 3.000000)" fill="#000000">
                    <path d="M679.5,-2.27373675e-13 C1054.77749,-2.27373675e-13 1359,304.222513 1359,679.5 C1359,820.759205 1315.89578,951.950879 1242.12276,1060.63959 L1562.14994,1614.95568 C1626.76726,1726.87615 1588.42047,1869.98831 1476.5,1934.60562 C1364.57953,1999.22294 1221.46737,1960.87615 1156.85006,1848.95568 L859.981835,1334.77054 C802.509102,1350.56466 741.98964,1359 679.5,1359 C304.222513,1359 0,1054.77749 0,679.5 C0,304.222513 304.222513,-2.27373675e-13 679.5,-2.27373675e-13 Z M679,126 C373.034249,126 125,374.034249 125,680 C125,985.965751 373.034249,1234 679,1234 C984.965751,1234 1233,985.965751 1233,680 C1233,374.034249 984.965751,126 679,126 Z" id="path-5"></path>
                </g>
                <g id="path-5-link" fill="#D8D8D8" stroke="#000000" stroke-width="14">
                    <path d="M1590.94146,1796.16638 C1575.27627,1854.62965 1537.3081,1907.11685 1480.75,1939.77068 C1424.1919,1972.42452 1359.75257,1979.06232 1301.2893,1963.39714 C1242.82603,1947.73195 1190.33883,1909.76378 1157.685,1853.20569 L861.780876,1340.6904 C804.65299,1356.21452 744.544073,1364.5 682.5,1364.5 C494.170901,1364.5 323.670901,1288.16455 200.253175,1164.74683 C76.8354503,1041.3291 0.5,870.829101 0.5,682.5 C0.5,494.170901 76.8354503,323.670901 200.253175,200.253175 C323.670901,76.8354503 494.170901,0.5 682.5,0.5 C870.829101,0.5 1041.3291,76.8354503 1164.74683,200.253175 C1288.16455,323.670901 1364.5,494.170901 1364.5,682.5 C1364.5,823.7177 1321.5784,954.91035 1248.07043,1063.74514 L1567.315,1616.70568 C1599.96884,1673.26378 1606.60664,1737.70311 1590.94146,1796.16638 Z M1233.5,683 C1233.5,530.70748 1171.77126,392.83248 1071.96939,293.03061 C972.16752,193.22874 834.29252,131.5 682,131.5 C529.70748,131.5 391.83248,193.22874 292.03061,293.03061 C192.22874,392.83248 130.5,530.70748 130.5,683 C130.5,835.29252 192.22874,973.16752 292.03061,1072.96939 C391.83248,1172.77126 529.70748,1234.5 682,1234.5 C834.29252,1234.5 972.16752,1172.77126 1071.96939,1072.96939 C1171.77126,973.16752 1233.5,835.29252 1233.5,683 Z" id="path-5"></path>
                </g>
            </g>
            <path d="M510.028409,290.894886 C514.225852,290.894886 517.992914,290.262091 521.329595,288.996499 C524.666276,287.730907 527.541615,286.003973 529.955611,283.815696 C532.369607,281.627419 534.294628,279.145175 535.730674,276.368963 C537.16672,273.592751 538.068015,270.704679 538.434559,267.704745 L538.434559,267.704745 L524.448964,267.627841 C524.133689,269.375 523.561651,270.93148 522.732849,272.29728 C521.904047,273.66308 520.871665,274.818975 519.635703,275.764965 C518.399741,276.710954 516.991327,277.427979 515.410461,277.916038 C513.829595,278.404097 512.112316,278.648127 510.258623,278.648127 C506.94741,278.648127 504.036782,277.84163 501.526739,276.228638 C499.016696,274.615645 497.061795,272.220709 495.662037,269.043829 C494.262279,265.866949 493.5624,261.943248 493.5624,257.272727 C493.5624,252.730047 494.255954,248.867104 495.643061,245.683899 C497.030168,242.500694 498.981906,240.073797 501.498274,238.403209 C504.014643,236.732622 506.960227,235.897328 510.335028,235.897328 C512.227339,235.897328 513.976746,236.1605 515.583246,236.686845 C517.189747,237.21319 518.607733,237.978155 519.837203,238.981739 C521.066673,239.985324 522.076582,241.19665 522.866932,242.615717 C523.657282,244.034784 524.184626,245.647694 524.448964,247.454446 L524.448964,247.454446 L538.434559,247.454446 C537.991444,243.66616 536.975125,240.299683 535.385603,237.355014 C533.796082,234.410345 531.746382,231.92061 529.236506,229.885809 C526.726629,227.851008 523.848045,226.303101 520.600752,225.242088 C517.35346,224.181075 513.829346,223.650568 510.028409,223.650568 C504.266912,223.650568 499.085028,224.966264 494.482755,227.597656 C489.880482,230.229048 486.237016,234.049377 483.552357,239.058644 C480.867698,244.06791 479.525368,250.139271 479.525368,257.272727 C479.525368,264.380549 480.851718,270.442338 483.504417,275.458097 C486.157116,280.473855 489.781439,284.300593 494.377386,286.93831 C498.973333,289.576028 504.190341,290.894886 510.028409,290.894886 Z M570.471301,290.945823 C574.523924,290.945823 578.102471,290.326926 581.206941,289.089134 C584.311411,287.851341 586.84584,286.108509 588.810229,283.86064 C590.774618,281.612771 592.076414,278.971724 592.715619,275.9375 L592.715619,275.9375 L580.136273,275.119518 C579.676179,276.350985 578.994444,277.389693 578.091068,278.23564 C577.187692,279.081587 576.110616,279.71971 574.859839,280.150008 C573.609063,280.580306 572.222954,280.795455 570.701514,280.795455 C568.434336,280.795455 566.46978,280.318215 564.807848,279.363736 C563.145917,278.409257 561.859018,277.047785 560.947153,275.279319 C560.035288,273.510853 559.579355,271.411965 559.579355,268.982655 L559.579355,268.982655 L559.579,268.932 L593.022737,268.931718 L593.022737,265.198864 C593.022737,261.027055 592.434635,257.381509 591.258432,254.262224 C590.082229,251.142939 588.445849,248.54667 586.349291,246.473416 C584.252734,244.400163 581.804614,242.847928 579.004931,241.816711 C576.205248,240.785495 573.181761,240.269886 569.934469,240.269886 C565.119128,240.269886 560.930257,241.335227 557.367857,243.465909 C553.805457,245.596591 551.041979,248.568892 549.077424,252.382812 C547.112869,256.196733 546.130591,260.630715 546.130591,265.684759 C546.130591,270.866644 547.109623,275.348566 549.067686,279.130526 C551.02575,282.912487 553.823351,285.827193 557.460492,287.874645 C561.097632,289.922097 565.434569,290.945823 570.471301,290.945823 Z M559.617012,260.134503 C559.745669,258.515864 560.194375,257.027104 560.963133,255.668224 C561.860017,254.082864 563.10322,252.811862 564.692742,251.855219 C566.282264,250.898576 568.106244,250.420255 570.164682,250.420255 C572.13756,250.420255 573.875148,250.853882 575.377445,251.721136 C576.879742,252.58839 578.058026,253.779491 578.912296,255.294439 C579.766567,256.809387 580.200194,258.542647 580.213177,260.494218 L580.213177,260.494218 L559.594,260.495 L559.617012,260.134503 Z M631.502694,290.894886 C635.700137,290.894886 639.467199,290.262091 642.803881,288.996499 C646.140562,287.730907 649.0159,286.003973 651.429896,283.815696 C653.843892,281.627419 655.768913,279.145175 657.204959,276.368963 C658.641005,273.592751 659.5423,270.704679 659.908844,267.704745 L659.908844,267.704745 L645.923249,267.627841 C645.607974,269.375 645.035936,270.93148 644.207134,272.29728 C643.378332,273.66308 642.34595,274.818975 641.109988,275.764965 C639.874027,276.710954 638.465613,277.427979 636.884747,277.916038 C635.303881,278.404097 633.586601,278.648127 631.732908,278.648127 C628.421695,278.648127 625.511067,277.84163 623.001024,276.228638 C620.490981,274.615645 618.53608,272.220709 617.136322,269.043829 C615.736564,265.866949 615.036685,261.943248 615.036685,257.272727 C615.036685,252.730047 615.730239,248.867104 617.117346,245.683899 C618.504453,242.500694 620.456191,240.073797 622.972559,238.403209 C625.488928,236.732622 628.434512,235.897328 631.809313,235.897328 C633.701624,235.897328 635.451031,236.1605 637.057532,236.686845 C638.664032,237.21319 640.082018,237.978155 641.311488,238.981739 C642.540958,239.985324 643.550868,241.19665 644.341217,242.615717 C645.131567,244.034784 645.658911,245.647694 645.923249,247.454446 L645.923249,247.454446 L659.908844,247.454446 C659.465729,243.66616 658.449411,240.299683 656.859889,237.355014 C655.270367,234.410345 653.220667,231.92061 650.710791,229.885809 C648.200914,227.851008 645.32233,226.303101 642.075038,225.242088 C638.827745,224.181075 635.303631,223.650568 631.502694,223.650568 C625.741197,223.650568 620.559313,224.966264 615.95704,227.597656 C611.354767,230.229048 607.711301,234.049377 605.026642,239.058644 C602.341983,244.06791 600.999654,250.139271 600.999654,257.272727 C600.999654,264.380549 602.326003,270.442338 604.978702,275.458097 C607.631401,280.473855 611.255724,284.300593 615.851671,286.93831 C620.447618,289.576028 625.664626,290.894886 631.502694,290.894886 Z M691.945586,290.945823 C695.998209,290.945823 699.576756,290.326926 702.681226,289.089134 C705.785696,287.851341 708.320125,286.108509 710.284514,283.86064 C712.248903,281.612771 713.550699,278.971724 714.189904,275.9375 L714.189904,275.9375 L701.610558,275.119518 C701.150464,276.350985 700.468729,277.389693 699.565353,278.23564 C698.661978,279.081587 697.584901,279.71971 696.334124,280.150008 C695.083348,280.580306 693.697239,280.795455 692.175799,280.795455 C689.908621,280.795455 687.944065,280.318215 686.282134,279.363736 C684.620202,278.409257 683.333303,277.047785 682.421438,275.279319 C681.509573,273.510853 681.05364,271.411965 681.05364,268.982655 L681.05364,268.982655 L681.053,268.932 L714.497022,268.931718 L714.497022,265.198864 C714.497022,261.027055 713.90892,257.381509 712.732717,254.262224 C711.556514,251.142939 709.920134,248.54667 707.823576,246.473416 C705.727019,244.400163 703.278899,242.847928 700.479216,241.816711 C697.679534,240.785495 694.656046,240.269886 691.408754,240.269886 C686.593413,240.269886 682.404542,241.335227 678.842142,243.465909 C675.279742,245.596591 672.516264,248.568892 670.551709,252.382812 C668.587154,256.196733 667.604876,260.630715 667.604876,265.684759 C667.604876,270.866644 668.583908,275.348566 670.541971,279.130526 C672.500035,282.912487 675.297637,285.827193 678.934777,287.874645 C682.571917,289.922097 686.908854,290.945823 691.945586,290.945823 Z M681.091297,260.134503 C681.219954,258.515864 681.668661,257.027104 682.437418,255.668224 C683.334302,254.082864 684.577505,252.811862 686.167027,251.855219 C687.756549,250.898576 689.580529,250.420255 691.638967,250.420255 C693.611846,250.420255 695.349433,250.853882 696.85173,251.721136 C698.354027,252.58839 699.532311,253.779491 700.386581,255.294439 C701.240852,256.809387 701.674479,258.542647 701.687463,260.494218 L701.687463,260.494218 L681.068,260.495 L681.091297,260.134503 Z" id="CeCe" fill="#FFFFFF"></path>
            <path d="M810.940241,632.920355 C816.275601,632.920355 820.834262,632.117104 824.616222,630.510603 C828.398182,628.904103 831.296908,626.634927 833.3124,623.703075 C835.327892,620.771224 836.34213,617.306785 836.355114,613.309759 C836.34213,610.586814 835.850908,608.170654 834.881448,606.061279 C833.911987,603.951904 832.549433,602.118436 830.793784,600.560874 C829.038136,599.003313 826.96713,597.689697 824.580766,596.620028 C822.194403,595.55036 819.573664,594.695923 816.71855,594.056718 L816.71855,594.056718 L810.837868,592.650468 C809.418968,592.330866 808.080966,591.945263 806.823864,591.493658 C805.566761,591.042053 804.456643,590.501975 803.493508,589.873424 C802.530373,589.244873 801.781389,588.492726 801.246554,587.616982 C800.71172,586.741239 800.45712,585.717429 800.482755,584.545554 C800.495406,583.134976 800.908725,581.877791 801.722712,580.773998 C802.536699,579.670205 803.724637,578.799788 805.286527,578.162747 C806.848416,577.525707 808.758623,577.207187 811.017145,577.207187 C814.328025,577.207187 816.954007,577.923129 818.895092,579.355014 C820.836176,580.786899 821.934559,582.789739 822.190241,585.363536 L822.190241,585.363536 L835.460227,585.363536 C835.40463,581.473045 834.361594,578.045893 832.331121,575.082081 C830.300648,572.118269 827.472168,569.805398 823.845681,568.143466 C820.219194,566.481534 815.97714,565.650568 811.119518,565.650568 C806.342463,565.650568 802.080017,566.47937 798.332181,568.136974 C794.584345,569.794578 791.637595,572.10745 789.491932,575.075589 C787.346269,578.043729 786.279929,581.507169 786.292913,585.465909 C786.279929,590.298229 787.870367,594.145108 791.064226,597.006547 C794.258084,599.867987 798.616411,601.969871 804.139205,603.3122 L804.139205,603.3122 L811.272827,605.076505 C813.650535,605.651789 815.664029,606.292075 817.31331,606.997364 C818.962591,607.702653 820.218695,608.554926 821.081621,609.554183 C821.944547,610.553439 822.382335,611.788153 822.394986,613.258323 C822.382335,614.852339 821.896606,616.254428 820.9378,617.464589 C819.978993,618.674749 818.634499,619.618658 816.904319,620.296315 C815.174139,620.973971 813.13501,621.3128 810.786932,621.3128 C808.391912,621.3128 806.255821,620.946339 804.378657,620.213418 C802.501493,619.480496 801.002608,618.383195 799.882002,616.921514 C798.761397,615.459833 798.12652,613.633689 797.977373,611.443082 L797.977373,611.443082 L784.579545,611.443082 C784.694735,616.160545 785.842141,620.111961 788.021762,623.29733 C790.201383,626.482699 793.24393,628.882879 797.149403,630.497869 C801.054876,632.11286 805.651822,632.920355 810.940241,632.920355 Z M891.403047,650.409091 L891.403047,582.909091 L877.980251,582.909091 L877.980251,591.167813 L877.391983,591.167813 C876.787069,589.829479 875.915654,588.475331 874.777736,587.105369 C873.639819,585.735407 872.148342,584.587003 870.303304,583.660156 C868.458267,582.73331 866.167784,582.269886 863.431856,582.269886 C859.835331,582.269886 856.527448,583.200978 853.508205,585.06316 C850.488962,586.925343 848.072719,589.727189 846.259476,593.4687 C844.446232,597.210211 843.53961,601.889138 843.53961,607.505482 C843.53961,612.985662 844.420681,617.604997 846.182821,621.363487 C847.944962,625.121976 850.331325,627.966436 853.341912,629.896867 C856.352499,631.827298 859.724303,632.792514 863.457324,632.792514 C866.099369,632.792514 868.339831,632.354642 870.17871,631.478898 C872.017588,630.603155 873.521882,629.501609 874.691594,628.174261 C875.861305,626.846913 876.761434,625.505748 877.391983,624.150768 L877.391983,624.150768 L877.800974,624.150768 L877.800974,650.409091 L891.403047,650.409091 Z M867.778447,621.952004 C865.545226,621.952004 863.662652,621.339433 862.130725,620.114291 C860.598798,618.889149 859.435496,617.186684 858.640818,615.006897 C857.84614,612.82711 857.448801,610.309659 857.448801,607.454545 C857.448801,604.616411 857.841895,602.120267 858.628084,599.966114 C859.414272,597.811962 860.57333,596.130804 862.105257,594.922641 C863.637183,593.714478 865.528247,593.110396 867.778447,593.110396 C869.977377,593.110396 871.842805,593.697415 873.374732,594.871454 C874.906659,596.045493 876.074289,597.705344 876.877623,599.851008 C877.680957,601.996671 878.082624,604.531183 878.082624,607.454545 C878.082624,610.369252 877.676712,612.912254 876.864889,615.083552 C876.053066,617.25485 874.881108,618.942416 873.349014,620.146251 C871.816921,621.350087 869.960065,621.952004 867.778447,621.952004 Z M918.914826,632.639205 C922.596577,632.639205 925.722271,631.764543 928.291907,630.01522 C930.861542,628.265897 932.696009,625.953025 933.795308,623.076605 L933.795308,623.076605 L934.306671,623.076605 L934.306671,632 L947.371913,632 L947.371913,582.909091 L933.76984,582.909091 L933.76984,611.085028 C933.78249,613.283958 933.346699,615.128163 932.462467,616.617642 C931.578234,618.107122 930.423421,619.232139 928.998028,619.992692 C927.572635,620.753246 926.043788,621.133523 924.411485,621.133523 C921.829365,621.133523 919.768014,620.291903 918.227431,618.608665 C916.686848,616.925426 915.910232,614.639271 915.897581,611.7502 L915.897581,611.7502 L915.897581,582.909091 L902.295508,582.909091 L902.295508,614.179177 C902.308159,617.997093 903.012282,621.284668 904.407879,624.041903 C905.803475,626.799139 907.748805,628.921331 910.243866,630.408481 C912.738928,631.89563 915.629248,632.639205 918.914826,632.639205 Z M965.100101,576.567982 C967.126246,576.567982 968.858424,575.894737 970.296634,574.548246 C971.734844,573.201754 972.453949,571.582686 972.453949,569.69104 C972.453949,567.799394 971.734844,566.180076 970.296634,564.833085 C968.858424,563.486095 967.123083,562.8126 965.090613,562.8126 C963.074455,562.8126 961.343109,563.485845 959.896576,564.832336 C958.450043,566.178827 957.726776,567.797896 957.726776,569.689542 C957.726776,571.581188 958.449128,573.200506 959.89383,574.547496 C961.338532,575.894487 963.073956,576.567982 965.100101,576.567982 Z M971.866181,632 L971.866181,582.909091 L958.264108,582.909091 L958.264108,632 L971.866181,632 Z M1004.87478,651.431818 C1009.54929,651.431818 1013.69122,650.722284 1017.30056,649.303217 C1020.9099,647.88415 1023.73838,645.771612 1025.786,642.965604 C1027.83362,640.159596 1028.85743,636.66636 1028.85743,632.485895 L1028.85743,632.485895 L1028.85743,582.909091 L1015.35773,582.909091 L1015.35773,591.167813 L1014.8209,591.167813 C1014.21565,589.829479 1013.33991,588.475331 1012.19367,587.105369 C1011.04743,585.735407 1009.54746,584.587003 1007.69377,583.660156 C1005.84007,582.73331 1003.54526,582.269886 1000.80933,582.269886 C997.21281,582.269886 993.904927,583.198897 990.885684,585.056918 C987.866441,586.914939 985.450198,589.703968 983.636955,593.424006 C981.823711,597.144043 980.917089,601.786765 980.917089,607.352173 C980.917089,612.798395 981.808813,617.292053 983.59226,620.833147 C985.375707,624.37424 987.774888,627.005632 990.789803,628.727323 C993.804718,630.449013 997.153051,631.309859 1000.8348,631.309859 C1003.44289,631.309859 1005.68019,630.925254 1007.5467,630.156045 C1009.41321,629.386835 1010.94514,628.39174 1012.14248,627.17076 C1013.33982,625.949779 1014.24112,624.661799 1014.84637,623.306818 L1014.84637,623.306818 L1015.40867,623.306818 L1015.40867,632.28115 C1015.40867,635.656283 1014.44237,638.059792 1012.50977,639.491677 C1010.57718,640.923562 1008.13439,641.639504 1005.18139,641.639504 C1003.1912,641.639504 1001.50896,641.380576 1000.13467,640.862721 C998.760384,640.344865 997.65992,639.661965 996.833282,638.81402 C996.006645,637.966076 995.405726,637.049882 995.030526,636.065441 L995.030526,636.065441 L982.425712,637.752841 C982.975361,640.326638 984.176034,642.645835 986.027729,644.710433 C987.879425,646.77503 990.380895,648.41141 993.532141,649.619573 C996.683386,650.827737 1000.46426,651.431818 1004.87478,651.431818 Z M1005.15593,621.082586 C1002.9227,621.082586 1001.04013,620.521118 999.508204,619.398182 C997.976277,618.275246 996.812974,616.68356 996.018297,614.623125 C995.223619,612.562689 994.82628,610.122059 994.82628,607.301236 C994.82628,604.514371 995.219374,602.054515 996.005563,599.92167 C996.791751,597.788824 997.950808,596.1204 999.482735,594.916398 C1001.01466,593.712397 1002.90573,593.110396 1005.15593,593.110396 C1007.35486,593.110396 1009.22028,593.695335 1010.75221,594.865212 C1012.28414,596.03509 1013.45177,597.682123 1014.2551,599.806313 C1015.05844,601.930503 1015.4601,604.428811 1015.4601,607.301236 C1015.4601,610.181985 1015.05419,612.650413 1014.24237,614.706521 C1013.43054,616.762629 1012.25859,618.339333 1010.72649,619.436634 C1009.1944,620.533936 1007.33754,621.082586 1005.15593,621.082586 Z M1061.86617,651.431818 C1066.54068,651.431818 1070.68261,650.722284 1074.29195,649.303217 C1077.90129,647.88415 1080.72977,645.771612 1082.77739,642.965604 C1084.82501,640.159596 1085.84882,636.66636 1085.84882,632.485895 L1085.84882,632.485895 L1085.84882,582.909091 L1072.34912,582.909091 L1072.34912,591.167813 L1071.81229,591.167813 C1071.20704,589.829479 1070.3313,588.475331 1069.18506,587.105369 C1068.03882,585.735407 1066.53885,584.587003 1064.68516,583.660156 C1062.83146,582.73331 1060.53665,582.269886 1057.80072,582.269886 C1054.2042,582.269886 1050.89632,583.198897 1047.87707,585.056918 C1044.85783,586.914939 1042.44159,589.703968 1040.62834,593.424006 C1038.8151,597.144043 1037.90848,601.786765 1037.90848,607.352173 C1037.90848,612.798395 1038.8002,617.292053 1040.58365,620.833147 C1042.3671,624.37424 1044.76628,627.005632 1047.78119,628.727323 C1050.79611,630.449013 1054.14444,631.309859 1057.82619,631.309859 C1060.43428,631.309859 1062.67158,630.925254 1064.53809,630.156045 C1066.4046,629.386835 1067.93653,628.39174 1069.13387,627.17076 C1070.33121,625.949779 1071.23251,624.661799 1071.83776,623.306818 L1071.83776,623.306818 L1072.40006,623.306818 L1072.40006,632.28115 C1072.40006,635.656283 1071.43376,638.059792 1069.50116,639.491677 C1067.56857,640.923562 1065.12578,641.639504 1062.17278,641.639504 C1060.18259,641.639504 1058.50035,641.380576 1057.12606,640.862721 C1055.75177,640.344865 1054.65131,639.661965 1053.82467,638.81402 C1052.99803,637.966076 1052.39712,637.049882 1052.02192,636.065441 L1052.02192,636.065441 L1039.4171,637.752841 C1039.96675,640.326638 1041.16742,642.645835 1043.01912,644.710433 C1044.87081,646.77503 1047.37229,648.41141 1050.52353,649.619573 C1053.67478,650.827737 1057.45565,651.431818 1061.86617,651.431818 Z M1062.14732,621.082586 C1059.91409,621.082586 1058.03152,620.521118 1056.49959,619.398182 C1054.96767,618.275246 1053.80436,616.68356 1053.00969,614.623125 C1052.21501,612.562689 1051.81767,610.122059 1051.81767,607.301236 C1051.81767,604.514371 1052.21076,602.054515 1052.99695,599.92167 C1053.78314,597.788824 1054.9422,596.1204 1056.47413,594.916398 C1058.00605,593.712397 1059.89712,593.110396 1062.14732,593.110396 C1064.34625,593.110396 1066.21167,593.695335 1067.7436,594.865212 C1069.27553,596.03509 1070.44316,597.682123 1071.24649,599.806313 C1072.04983,601.930503 1072.45149,604.428811 1072.45149,607.301236 C1072.45149,610.181985 1072.04558,612.650413 1071.23376,614.706521 C1070.42193,616.762629 1069.24998,618.339333 1067.71788,619.436634 C1066.18579,620.533936 1064.32893,621.082586 1062.14732,621.082586 Z M1105.12714,650.409091 C1108.50627,650.409091 1111.38477,649.870012 1113.76265,648.791853 C1116.14052,647.713695 1118.11465,646.19134 1119.68503,644.224787 C1121.2554,642.258234 1122.49653,639.956099 1123.40839,637.318382 L1123.40839,637.318382 L1142.48216,582.909091 L1128.08757,582.909091 L1117.83483,618.960227 L1117.32346,618.960227 L1107.14713,582.909091 L1092.82895,582.909091 L1110.44552,633.40625 L1109.65301,635.477173 C1109.05642,637.011264 1108.27972,638.097911 1107.32291,638.737116 C1106.3661,639.376321 1105.24533,639.67678 1103.96059,639.638494 C1102.67586,639.600209 1101.23232,639.333873 1099.62998,638.839489 L1099.62998,638.839489 L1096.5618,649.015825 C1097.54624,649.411998 1098.78845,649.743253 1100.28841,650.009588 C1101.78838,650.275923 1103.40129,650.409091 1105.12714,650.409091 Z" id="Squiggy" fill="#FFFFFF"></path>
        </g>
    </g>
</svg>