<?xml version="1.0" encoding="UTF-8"?>
<svg width="283px" height="218px" viewBox="0 0 283 218" version="1.1" xmlns="http://www.w3.org/2000/svg" xmlns:xlink="http://www.w3.org/1999/xlink">
    <!-- Generator: Sketch 62 (91390) - https://sketch.com -->
    <title>Group 2</title>
    <desc>Created with Sketch.</desc>
    <g id="Page-1" stroke="none" stroke-width="1" fill="none" fill-rule="evenodd">
        <g id="Group-2" transform="translate(-458.000000, -170.000000)">
            <g id="charsquiggy" transform="translate(562.000000, 276.000000)" fill-rule="nonzero">
                <path d="M175.87607,64.5306208 L114.78393,64.5302749 C114.791965,66.8665947 114.789823,69.3243071 114.787603,71.8696143 C114.786546,73.0818939 114.785471,74.3140484 114.785471,75.5623918 L114.785536,76.1070563 C114.785784,77.1694358 114.7867,78.2195878 114.787603,79.2552346 C114.799848,93.2956852 114.784179,104.671805 113.11367,107.788846 C112.759969,108.749926 112.249227,109.586132 111.405165,110.154319 C110.696801,110.631159 109.749648,110.922645 108.445412,110.922645 C107.668413,110.922646 106.986821,110.947688 106.387422,110.969671 C104.983738,111.021151 104.014762,111.042158 103.318289,110.735321 C102.69577,110.461066 102.262221,109.944004 101.952818,108.942579 C101.558603,107.666647 101.766714,106.425689 102.441166,105.338452 C103.125321,104.235574 104.296286,103.289927 105.808936,102.641346 C106.025364,102.548548 106.291173,102.422964 106.583199,102.285091 C107.109841,102.03645 107.719664,101.749023 108.282865,101.53498 C107.046738,95.4926825 106.25159,86.1048044 106.25159,75.5624245 C106.25159,71.6933033 106.358608,67.9797733 106.555195,64.530273 L69.6565885,64.5302203 C69.8087439,68.932777 69.835653,74.1227018 69.835653,79.6797187 C69.835653,85.9089677 70.2586528,91.7900624 70.6072999,96.6395813 C70.8383501,99.853382 71.0366855,102.615613 71.0591108,104.728492 C71.1666966,105.312525 71.131772,105.986875 71.0916148,106.695901 C71.075961,106.97229 71.0599522,107.254128 71.0530039,107.537779 C71.0386809,108.122504 70.9249398,108.583959 70.7306832,108.951031 C70.5156218,109.357417 70.2018367,109.653074 69.7992788,109.86806 C68.8991069,110.348798 67.5195933,110.40484 65.8247561,110.455569 C65.7420958,110.458043 65.6586741,110.46054 65.5745126,110.463116 C65.4909212,110.465674 65.4074638,110.468283 65.3241967,110.470886 C63.5750988,110.525566 61.9112813,110.565553 60.8204543,110.115439 C60.3514062,109.921893 59.9820905,109.64089 59.7367907,109.248812 C59.5136649,108.892175 59.39099,108.440096 59.4051028,107.863954 C59.4384875,106.501065 60.1207376,105.243333 61.207572,104.316382 C62.1928237,103.476071 63.5101424,102.908946 64.9622067,102.78644 C63.0409281,97.2738881 61.3153751,88.8524671 61.3153751,79.6797187 C61.3153751,74.1237613 61.5873274,68.9342866 62.0583969,64.5302222 L4.25070612,64.5306208 C3.20619246,64.5306208 2.28113724,64.1324551 1.56082834,63.4356477 C0.846179524,62.744316 0.332776779,61.755351 0.115367302,60.5662704 C-0.254055316,58.5457824 0.231239885,55.9367041 2.04363692,53.2722798 C4.5207682,49.6306223 9.49230346,45.8701428 18.1679171,43.4219341 C26.8202345,40.9802995 33.4358598,40.3269812 37.6457383,39.911501 C39.1951171,39.7585902 40.4148952,39.6393815 41.2857358,39.4726665 C40.6512351,38.6854901 39.9759064,37.9174275 39.2497506,37.1987973 C35.791557,33.7764427 32.97349,30.2399603 31.2113146,27.2900134 C30.3025403,25.7686917 29.6736983,24.4005026 29.3762361,23.2807735 C29.0655756,22.1113628 29.1245918,21.2055716 29.5342023,20.6308279 C29.7464622,20.332996 30.0422814,20.1279198 30.4155035,20.0150874 C30.7663745,19.9090122 31.189807,19.8858252 31.6770565,19.9480928 C32.6098071,20.0672928 33.791964,20.502452 35.1433268,21.2193659 C37.6692414,22.5593934 40.803391,24.8870226 44.0140557,27.9103394 C46.3177878,19.0544173 51.4624068,12.3483568 58.23379,7.73061936 C65.8300683,2.5503457 75.4771983,0 85.45619,0 C95.1330534,0 103.498015,2.70324826 110.302951,7.78057421 C117.099429,12.8515897 122.341473,20.2935011 125.772308,29.7893581 C126.039345,29.5485189 126.305309,29.2980675 126.568889,29.0372882 C129.727038,25.9127006 132.837884,23.4371328 135.313039,21.9587004 C136.598421,21.1909304 137.716964,20.6909403 138.587056,20.4987149 C139.045536,20.397425 139.440172,20.3807549 139.761327,20.445219 C140.120189,20.517252 140.395042,20.6876012 140.583017,20.9513769 C140.918787,21.4225453 140.943133,22.2031976 140.612159,23.2417829 C140.303025,24.2118338 139.694915,25.4140603 138.836668,26.7637102 C137.173661,29.3788997 134.567712,32.5584009 131.411441,35.6811308 C130.406299,36.6755915 129.497353,37.7591522 128.659888,38.8444805 C130.013371,39.3094739 134.206284,39.6691803 139.303387,40.1283073 C147.123363,40.8327 157.062244,41.7313973 162.382524,43.4245445 C168.914293,45.5032406 172.980158,49.0104633 175.319267,52.5543145 C177.044719,55.1684506 177.831789,57.8060216 177.975538,59.9182668 C178.065162,61.2352186 177.903754,62.3513748 177.569396,63.1424696 C177.385258,63.5781414 177.147422,63.9188401 176.872574,64.1517196 C176.579493,64.4000479 176.243349,64.5306208 175.87607,64.5306208 Z" id="Combined-Shape" stroke="#000000" stroke-width="2" fill="#99CAF4"></path>
                <path d="M85.2784986,39.2320577 C81.2710272,39.4081295 77.7294387,38.3352115 75.0745155,36.753738 C73.5166909,35.8257796 72.2647172,34.723345 71.4072011,33.5957932 C70.5556885,32.4761356 70.0916106,31.334344 70.1301822,30.322823 C70.1639979,29.4360215 70.6141286,28.5776716 71.3808578,27.7760786 C72.2135035,26.9055722 73.4174146,26.1049017 74.8976792,25.4117017 C77.84572,24.0311499 81.8824276,23.0825375 86.3076945,22.8881095 C90.72898,22.6938565 94.7031325,23.2887751 97.5531742,24.4135172 C98.9767807,24.9753301 100.117315,25.6675246 100.881769,26.462996 C101.581376,27.1909883 101.961626,28.0044153 101.92821,28.8807469 C101.850859,30.9092259 99.5516515,33.6203911 96.1413442,35.7609556 C93.1741811,37.6233699 89.3417202,39.0535365 85.2784986,39.2320577 Z" id="Oval" stroke="#000000" stroke-width="2" fill="#000000" transform="translate(86.029098, 31.051345) rotate(-15.000000) translate(-86.029098, -31.051345) "></path>
                <path d="M85.0345076,36.3679486 C81.2757469,36.533093 77.9487329,35.6619487 75.4514463,34.3647335 C73.9899626,33.605566 72.8136623,32.7013581 72.0065691,31.7738857 C71.2168297,30.8663558 70.7781541,29.9402532 70.8096255,29.1149271 C70.8371486,28.3931503 71.2534216,27.6962407 71.9550768,27.0418822 C72.7311543,26.318118 73.8552009,25.650907 75.238433,25.0706451 C77.9979341,23.9130425 81.7803358,23.1080447 85.9304937,22.9257039 C90.0774459,22.7435039 93.808041,23.217147 96.4863897,24.1350675 C97.8217627,24.5927245 98.8926438,25.1587283 99.6118002,25.8127598 C100.254958,26.3976749 100.613053,27.0512822 100.585964,27.7616756 C100.52221,29.4335997 98.3737808,31.6662522 95.2090473,33.441408 C92.4337231,34.9981373 88.8448192,36.2005391 85.0345076,36.3679486 Z" id="Oval" stroke="#000000" stroke-width="2" fill="#FFFFFF" transform="translate(85.697719, 29.637581) rotate(-15.000000) translate(-85.697719, -29.637581) "></path>
                <ellipse id="Oval" fill="#000000" cx="60.5" cy="29" rx="2.5" ry="3"></ellipse>
                <ellipse id="Oval" fill="#000000" cx="112.5" cy="28" rx="2.5" ry="3"></ellipse>
                <circle id="Oval" fill="#FFFFFF" cx="113" cy="27" r="1"></circle>
                <circle id="Oval" fill="#FFFFFF" cx="61" cy="28" r="1"></circle>
            </g>
            <g id="charcece" transform="translate(459.000000, 171.000000)">
                <g id="Group-3" transform="translate(55.000000, 108.000000) scale(-1, 1) translate(-55.000000, -108.000000) ">
                    <path d="M104.201354,162.767387 C103.626209,163.227049 103.629702,165.877083 103.58065,167.72727 C103.558606,168.558726 103.538764,169.253769 103.486646,169.590314 C103.432488,169.940023 103.415756,170.270139 103.400023,170.573187 C103.368523,171.179952 103.325627,171.684141 103.085393,172.052944 C102.883387,172.363059 102.551427,172.597922 101.953242,172.703718 C101.623935,172.761959 101.344427,172.748802 101.108255,172.669614 C100.857773,172.585629 100.650743,172.428942 100.485209,172.188629 C100.203957,171.780322 100.045039,171.096806 100.002991,170.079409 C99.9773968,169.460135 99.9874826,168.709767 99.9978877,167.948786 C100.01365,166.795964 100.031534,165.61808 99.9184056,164.852607 C99.8814201,164.602348 99.8344573,164.400444 99.7589102,164.272771 C99.5746441,164.256487 99.338447,164.628853 99.0064788,165.040434 C98.3267554,165.883172 97.3745511,167.046901 96.3215791,167.546819 C96.0714645,167.665566 95.8230804,167.703287 95.588495,167.681132 C95.3320837,167.656916 95.0913147,167.560331 94.8828382,167.413306 C94.4388629,167.100198 94.1492077,166.558062 94.1586871,166.043826 C94.1803432,164.869042 95.1804615,163.573149 96.1750971,162.329323 C97.130116,161.135039 98.1543922,159.976525 97.8103057,159.036018 C97.7785767,158.949292 97.7585797,158.851959 97.7394421,158.752035 C97.7153762,158.626377 97.716783,158.468723 97.577842,158.39075 C97.4563358,158.32256 97.2609859,158.314212 96.9549583,158.358759 C96.3510711,158.446664 95.6495023,158.697273 94.9592411,158.941575 C94.1946831,159.212173 93.443159,159.474382 92.8397669,159.5351 C92.3001271,159.589402 91.8750338,159.481074 91.5999328,159.174932 C91.3168924,158.859954 91.1637401,158.549017 91.1034193,158.248152 C91.0344129,157.903963 91.0855049,157.568879 91.2237435,157.246429 C91.55967,156.462859 92.4476084,155.753933 93.1717534,155.190983 C93.3138784,155.080495 93.4487493,154.975681 93.5699679,154.87695 C95.3969161,153.388922 98.084916,152.612335 100.964579,152.070573 C100.906316,151.527307 100.846189,150.95687 100.783186,150.359156 C100.233603,145.145203 99.4650641,137.853136 97.8051436,128.412441 C97.3847849,126.021677 96.9531268,123.753972 96.5208178,121.612338 C95.0517599,137.01795 90.7853645,149.085838 84.1795525,157.021379 C83.7246004,162.618188 83.3009998,170.170177 83.9491559,179.465651 C84.8201859,191.957445 87.4645471,199.786817 88.972067,204.250543 C89.3453985,205.355967 89.649372,206.256995 89.8414022,206.972933 C90.9980505,207.962329 92.0128542,209.986317 92.0128542,212.613383 C92.0128542,213.335175 91.8860551,213.902153 91.6595963,214.348975 C91.4069011,214.847564 91.0302354,215.20245 90.5498657,215.452233 C89.4417421,216.028437 87.7429732,216.018024 85.7753346,215.986659 C85.3264374,215.979504 84.8634165,215.972112 84.391158,215.972111 C83.9656739,215.973167 83.52425,215.979273 83.0746592,215.985485 C80.7424452,216.017713 78.1964396,216.044618 76.4806137,215.418582 C75.7957449,215.168701 75.239181,214.815372 74.8611069,214.332219 C74.5095174,213.882912 74.3072424,213.320477 74.3072424,212.613383 C74.3072424,212.010287 74.5940193,211.429875 75.1118325,210.886693 C75.6459873,210.32637 76.4290264,209.802579 77.3564438,209.326773 C79.6491087,208.150536 82.8329199,207.257719 85.1805353,206.749022 C82.0121839,202.445366 78.4637908,193.319951 77.6535294,181.699661 C77.2157127,175.420753 77.4244897,168.682222 78.031259,162.738781 C73.2553608,166.095008 67.6683424,167.862303 61.3659091,167.862303 C58.7357623,167.862303 56.1897562,167.508359 53.7443935,166.824893 C53.1260499,171.023996 52.474692,176.563386 52.474692,183.352433 C52.474692,193.000302 54.0836622,199.160311 55.00088,202.672284 C55.3906844,204.164821 55.651345,205.193445 55.6323506,205.818313 C55.7881169,206.480425 55.8774166,207.207468 55.8774166,207.987207 C55.8774166,208.708999 55.7506173,209.275976 55.5241585,209.722798 C55.2714633,210.221387 54.8947979,210.576273 54.4144281,210.826056 C53.3063046,211.40226 51.6075354,211.391847 49.639897,211.360483 C49.1909996,211.353327 48.7279787,211.345936 48.2550435,211.345936 C47.8068701,211.345936 47.3371365,211.352571 46.8562088,211.359354 C44.5706989,211.39159 42.0391457,211.41893 40.3305376,210.789357 C39.6510665,210.538991 39.0978711,210.185379 38.7219494,209.702145 C38.3729374,209.253502 38.1718046,208.692272 38.1718046,207.987207 C38.1718046,207.342194 38.5005957,206.722568 39.0889408,206.146519 C39.7020469,205.546225 40.5993475,204.989717 41.6463144,204.490301 C44.4405432,203.15742 48.3089569,202.220201 50.5001241,201.836635 C48.8128065,197.916901 47.3978737,191.884885 47.3978737,184.731242 C47.3978737,178.047026 48.3850945,170.75893 49.687,165.34709 C39.3250939,160.667506 31.1366862,149.688848 26.6176772,134.497755 C26.3667582,139.26479 26.1697768,144.454061 26.1697768,149.812529 C26.1697768,158.961688 26.675742,165.942753 27.0374597,170.934523 C27.1331765,172.255433 27.2188097,173.437318 27.2826034,174.483371 C30.4256117,174.494124 33.3407444,174.768563 35.4750348,175.959021 C35.6115075,176.035142 35.7624787,176.114877 35.9215762,176.198935 C36.7321936,176.627224 37.7293931,177.170746 38.1958932,177.883905 C38.3878646,178.17738 38.4962009,178.498474 38.4878406,178.849447 C38.4805327,179.156247 38.3835464,179.489132 38.1593437,179.848615 C37.9414301,180.198015 37.5415498,180.378729 37.0006981,180.419226 C36.39596,180.464507 35.610451,180.337155 34.8106539,180.203811 C34.0885764,180.083425 33.3542711,179.958797 32.7443367,179.97739 C32.4352485,179.986812 32.2443137,180.02905 32.1364617,180.117361 C32.0131377,180.218342 32.0418258,180.373349 32.0398839,180.501281 C32.0383395,180.60302 32.0354998,180.702357 32.0192698,180.793291 C31.8432635,181.779426 33.052583,182.741964 34.1998937,183.751792 C35.3947895,184.803503 36.6041024,185.905537 36.8288485,187.058692 C36.9272274,187.563468 36.7358422,188.147811 36.3528241,188.533478 C36.1729705,188.714576 35.9525809,188.851623 35.704255,188.920124 C35.4770708,188.982793 35.2259296,188.9889 34.9590543,188.915514 C33.835519,188.606561 32.6962791,187.626338 31.8809604,186.914779 C31.4827363,186.567234 31.1856354,186.241642 31.033382,186.235397 C30.9547456,186.42868 30.9434578,186.635692 30.9503678,186.888586 C30.9715037,187.662126 31.1930716,188.818993 31.4082116,189.95155 C31.550226,190.699153 31.6900885,191.436361 31.7721135,192.050681 C31.9068717,193.059938 31.8687209,193.760733 31.6624435,194.211809 C31.5410344,194.4773 31.3642792,194.667661 31.1321425,194.793994 C30.9132702,194.913109 30.640286,194.974746 30.3058964,194.974746 C29.6984854,194.974746 29.3309021,194.801269 29.0782691,194.531048 C28.7778254,194.209687 28.6482788,193.720626 28.512194,193.128565 C28.444226,192.832858 28.370586,192.510668 28.2566968,192.175702 C28.1470955,191.853348 28.0072059,191.172324 27.8415265,190.357343 C27.4728483,188.543809 27.0174142,185.93344 26.371413,185.58092 C26.2661651,185.523486 26.1734799,185.495878 26.0888702,185.523807 C25.9840907,185.558395 25.9032837,185.657741 25.8229698,185.786308 C25.5297612,186.255677 25.3168405,187.115948 25.0500946,188.156903 C24.7854438,189.189682 24.4757553,190.396043 24.0139346,191.593861 C23.8579684,191.998388 23.6758561,192.237222 23.4994408,192.384546 C23.2164484,192.620872 22.9342396,192.639989 22.7173691,192.647048 C22.3359416,192.662839 22.0853675,192.48179 21.8934215,192.20253 C21.6628178,191.867028 21.527868,191.375182 21.4541287,191.077467 C21.1368155,189.796348 21.4807551,182.664224 23.2896731,178.212767 C21.0703072,173.525301 18.9508272,163.175071 18.9508272,151.414536 C18.9508272,140.356356 21.0017273,124.638593 23.180945,115.984769 C22.8860286,112.674998 22.7344905,109.24799 22.7344905,105.718488 C22.7344905,92.3483139 19.519725,61.432683 14.6089511,41.1768891 C14.5424359,41.1377621 14.4717617,41.1119335 14.3864528,41.0884759 C14.1401736,41.020756 13.7917173,40.98837 13.3785035,40.977007 C12.1829266,40.94413 10.4708207,41.0968138 9.03484762,41.2241755 C8.05280606,41.3112765 7.19763695,41.386498 6.71410505,41.386498 C6.39833361,41.386498 6.0485903,41.4055181 5.68204113,41.4252908 C4.46406321,41.4909913 3.07537193,41.5508809 2.07287844,41.0462736 C1.32312718,40.6688846 0.765376254,39.9937726 0.631279175,38.7835169 C0.586767155,38.3817863 0.71462423,37.9740348 0.999611305,37.566075 C1.27747643,37.1683101 1.70881604,36.7666565 2.25405306,36.3667456 C3.62348141,35.3623209 5.72697236,34.3534068 7.79622228,33.3633246 C9.70907664,32.4480736 11.5921746,31.549198 12.8143692,30.6793177 C13.2596207,30.3624157 13.6149672,30.0519365 13.8419707,29.744252 C14.0141903,29.5108227 14.1125437,29.2825052 14.0873862,29.0537574 C14.0602807,28.8072981 13.8910961,28.6170059 13.6427317,28.4555631 C13.3002383,28.232934 12.8093854,28.0689003 12.222411,27.9406237 C10.5537765,27.5759627 8.1339407,27.5179262 5.95903036,27.4637261 C3.26279346,27.3965343 1.02756417,27.246288 0.675651156,26.7174997 C0.221407268,26.0349481 0,25.3584119 0,24.7473166 C0,24.1071058 0.238111635,23.5329051 0.715879212,23.0826966 C1.57061653,22.2772631 5.66567639,19.9360359 10.9153334,19.2212645 C13.9000973,18.8148716 17.9600866,19.089458 21.2869308,19.3164202 C24.1821045,19.5139332 26.6210208,19.7914445 26.9463955,19.3338609 C26.9777784,19.2897262 26.9744189,19.2350844 26.9614816,19.1765251 C26.9341271,19.0527079 26.8580358,18.9137829 26.7484767,18.7585244 C26.4657865,18.3579183 25.9672948,17.8771329 25.3276722,17.3426745 C23.5416143,15.8502734 20.6712746,13.9671663 18.151988,12.313474 C15.3891731,10.4999266 13.0864263,8.93173728 12.9044659,8.42049339 C12.6080971,7.5878028 12.5241845,6.84765991 12.9799557,6.27315895 C13.3304929,5.83130584 14.0282229,5.46817391 15.3248426,5.28147298 C19.3576849,4.70078195 28.1909223,6.39986049 31.8955901,7.32088594 C32.5513223,7.48390894 34.0029053,8.13983652 35.7127344,8.91642939 C37.9054993,9.91236839 40.5314444,11.1063302 42.4212701,11.6702648 C43.08282,11.867675 43.650006,11.9883615 44.06901,11.9865162 C44.2264104,11.985823 44.3594696,11.9690692 44.4615034,11.9239097 C44.517038,11.8993303 44.5615648,11.8659758 44.583978,11.8137818 C44.6401568,11.6829569 44.5302958,11.4848053 44.3916856,11.2497649 C44.1829538,10.8958189 43.8364845,10.4654234 43.3812527,9.98246907 C42.4454433,8.98967074 41.0563245,7.7853663 39.4300062,6.58112258 C38.6048803,5.97013982 37.6354233,5.43848253 36.7247201,4.93810318 C35.7288548,4.39093201 34.8022523,3.87860153 34.189893,3.34854532 C33.6637154,2.89308767 33.3690689,2.41778573 33.3690689,1.9158148 C33.3690689,1.54508928 33.4653695,1.24524697 33.6302494,1.0008149 C33.8075406,0.737983338 34.0673182,0.53762166 34.3897882,0.390446823 C35.1240133,0.055347391 36.2050336,0.00366151096 37.2380625,0 L37.3970522,0 C44.0875953,0 55.7415037,3.10641031 61.5983891,12.569817 C64.7684999,17.6920013 67.3769234,25.324656 70.0786607,33.2407472 C71.828477,38.36771 73.6185743,43.6134775 75.6304146,48.3671594 C77.3432337,52.414299 79.2679805,56.7101139 81.2429372,61.1180462 C86.7555259,73.421668 92.657113,86.5978261 95.4469609,97.6832617 C98.7395134,103.842169 103.108897,116.886489 105.205103,128.80853 C107.110981,139.648097 107.148903,149.621247 106.183363,155.342965 C108.605156,159.448518 110.083685,166.046089 109.995702,167.324137 C109.974634,167.630173 109.9269,168.138053 109.757893,168.508619 C109.613039,168.826227 109.38571,169.041741 109.071939,169.083108 C108.79741,169.122203 108.521727,169.147764 108.207783,168.967563 C108.00854,168.853199 107.787842,168.649708 107.564202,168.278489 C106.901989,167.179285 106.388117,166.045176 105.948656,165.074169 C105.505714,164.095471 105.147065,163.285342 104.777036,162.87416 C104.675675,162.761527 104.57889,162.677759 104.469709,162.661943 C104.381551,162.649172 104.295056,162.6925 104.201354,162.767387 Z" id="Combined-Shape" stroke="#000000" stroke-width="2" fill="#F3A7A7" fill-rule="nonzero"></path>
                    <g id="Group-2" transform="translate(26.542289, 49.677255)">
                        <path d="M0.00887450995,26.5534812 C-0.0791794831,24.8106545 0.480023574,22.2742548 1.64100371,19.1343566 C1.70111051,18.9717963 1.76004018,18.8122878 1.81786062,18.6557818 C2.96343273,15.554993 3.66330844,13.6429958 4.46854062,12.533446 C5.13373453,11.6168585 5.87421773,11.2918353 7.03547895,11.2918353 C7.64823236,11.2918353 8.17634709,11.5178085 8.60847621,11.9375159 C9.07456457,12.3902064 9.42912218,13.060262 9.66919102,13.9061366 C10.1587511,15.6310854 10.1666994,18.0703682 9.6021568,20.9541653 C9.10362813,23.5007501 8.05861888,25.3701204 6.8109441,26.6619914 C5.25420415,28.2738755 3.38499637,28.9847496 1.90081408,28.9847496 C1.32126275,28.9847496 0.873626302,28.7911947 0.563811578,28.406028 C0.225685068,27.9856637 0.0494916761,27.3574048 0.00887450995,26.5534812 Z" id="Oval" stroke="#000000" stroke-width="2" fill="#AD6161" fill-rule="nonzero"></path>
                        <path d="M31.1089576,18.953744 C30.5287991,18.9529589 30.0804291,18.7590394 29.7697701,18.3739188 C29.4306958,17.9535722 29.2534661,17.3257849 29.2117228,16.5227135 C29.1212267,14.7817218 29.6776545,12.2489194 30.8357362,9.11410399 C30.8956924,8.95180803 30.9544743,8.79255884 31.0121497,8.6363072 C32.1548577,5.54053863 32.8529625,3.63163073 33.6576189,2.52441037 C34.3223374,1.60974709 35.0632189,1.28606424 36.2258084,1.28762338 C36.8392175,1.28845464 37.368201,1.51487015 37.8013566,1.93466112 C38.2685751,2.38746422 38.6244248,3.05723519 38.8658988,3.90246896 C39.3583331,5.62614238 39.3695684,8.06269783 38.8082595,10.9424999 C38.3125828,13.4855748 37.2688888,15.351452 36.0215234,16.6402015 C34.4651868,18.2481731 32.594823,18.9557397 31.1089576,18.953744 Z" id="Oval" stroke="#000000" stroke-width="2" fill="#AD6161" fill-rule="nonzero" transform="translate(34.217319, 10.120684) scale(-1, 1) rotate(-140.000000) translate(-34.217319, -10.120684) "></path>
                        <ellipse id="Oval" fill="#000000" fill-rule="nonzero" cx="14.3263136" cy="43.2599747" rx="3.07367273" ry="4.2378653"></ellipse>
                        <ellipse id="Oval" fill="#000000" fill-rule="nonzero" cx="34.3051864" cy="29.3905972" rx="3.07367273" ry="4.2378653"></ellipse>
                        <path d="M54.2443662,87.3875745 C52.1143476,94.5266394 45.866202,100.236824 40.3394854,102.37324 C37.4500932,103.490167 33.5395702,104.026327 30.0580754,103.284332 C27.3071095,102.698031 24.8227772,101.312309 23.3350438,98.7720746 C22.0660854,96.605388 21.7708179,94.5415563 22.1145765,92.6337567 C22.5308327,90.3236084 23.8801681,88.2439237 25.5592188,86.4862982 C26.9229947,85.0587015 28.3906125,84.6866372 29.9314031,84.2907111 C31.9014051,83.7844939 33.9905891,83.2446108 36.1512414,80.5609107 C38.423758,77.7382661 39.6119347,73.9950069 40.6464976,70.7263176 C41.7006287,67.3958035 42.5753648,64.54179 44.3494965,63.7626618 C45.9722704,63.0500037 47.8359378,63.2952386 49.5065543,64.210923 C51.2192338,65.1496626 52.7308286,66.7935107 53.583504,68.8502294 C55.6841874,73.917239 55.9719061,81.5974747 54.2443662,87.3875745 Z" id="Oval" stroke="#000000" fill="#000000" fill-rule="nonzero"></path>
                        <g id="Combined-Shape" transform="translate(22.164179, 63.125794)">
                            <g id="path-2-link" fill="#FFFFFF">
                                <path d="M22.1304436,0.511158922 C22.8641753,0.188933032 23.6676687,0.0460980229 24.48846,0.0655295146 C24.9556294,1.94319364 25.2041164,3.91428366 25.2041164,5.94663287 C25.2041164,18.7130423 15.399189,29.0622618 3.3041982,29.0622618 C2.2263601,29.0622618 1.16670827,28.9800747 0.130560888,28.8213139 C0.57490846,26.7364133 1.71885327,24.9167791 3.29625294,23.2655615 C6.40238035,20.0140764 10.0285577,22.133464 13.8806195,17.3488999 C18.4969042,11.6151104 18.6055401,2.05915654 22.1304436,0.511158922 Z" id="path-2"></path>
                            </g>
                            <g id="path-2-link" fill="#000000" fill-rule="nonzero">
                                <path d="M22.1304436,0.511158922 C22.8641753,0.188933032 23.6676687,0.0460980229 24.48846,0.0655295146 C24.9556294,1.94319364 25.2041164,3.91428366 25.2041164,5.94663287 C25.2041164,18.7130423 15.399189,29.0622618 3.3041982,29.0622618 C2.2263601,29.0622618 1.16670827,28.9800747 0.130560888,28.8213139 C0.57490846,26.7364133 1.71885327,24.9167791 3.29625294,23.2655615 C6.40238035,20.0140764 10.0285577,22.133464 13.8806195,17.3488999 C18.4969042,11.6151104 18.6055401,2.05915654 22.1304436,0.511158922 Z" id="path-2"></path>
                            </g>
                            <path d="M24.9304846,5.94663287 C24.9304846,12.2557107 22.5086882,17.9680673 18.5914232,22.1027879 C14.6790811,26.2323124 9.27460321,28.7878018 3.3041982,28.7878018 C2.34142424,28.7878018 1.39335148,28.721369 0.464050624,28.5925548 C0.938794289,26.6753572 2.02631824,24.9916301 3.49382643,23.4554466 C4.83699574,22.0494211 6.28454435,21.6875725 7.80117811,21.2978539 C9.79486983,20.7855491 11.9074215,20.2366212 14.0935048,17.5213332 C16.3765759,14.6855793 17.5732366,10.9262845 18.612721,7.64204706 C19.6492992,4.36699084 20.4896414,1.53134833 22.240191,0.762576335 C22.8754815,0.483582008 23.5658845,0.346881454 24.2734151,0.338698155 C24.7027238,2.13291574 24.9304846,4.01169746 24.9304846,5.94663287 Z" id="Path" stroke="#000000" stroke-width="2"></path>
                        </g>
                        <ellipse id="Oval" fill="#FFFFFF" fill-rule="nonzero" cx="15.4789409" cy="40.9484116" rx="1.15262728" ry="1.15578145"></ellipse>
                        <ellipse id="Oval" fill="#FFFFFF" fill-rule="nonzero" cx="35.4578137" cy="27.0790343" rx="1.15262728" ry="1.15578145"></ellipse>
                    </g>
                </g>
            </g>
        </g>
    </g>
</svg>