<?xml version="1.0" encoding="UTF-8"?>
<svg width="286px" height="222px" viewBox="0 0 286 222" version="1.1" xmlns="http://www.w3.org/2000/svg" xmlns:xlink="http://www.w3.org/1999/xlink">
    <!-- Generator: Sketch 62 (91390) - https://sketch.com -->
    <title>vis2</title>
    <desc>Created with Sketch.</desc>
    <g id="Page-1" stroke="none" stroke-width="1" fill="none" fill-rule="evenodd">
        <g id="vis2" transform="translate(1.000000, 1.000000)">
            <g id="charsquiggy" transform="translate(104.000000, 106.000000)" fill-rule="nonzero">
                <path d="M176.876064,66.5306208 L116.786763,66.5302806 C116.791354,68.5649299 116.789508,70.6854507 116.787603,72.8704862 C116.786545,74.0839962 116.785471,75.3151114 116.785471,76.5622725 L116.785536,77.1068229 C116.785784,78.1684352 116.786699,79.2178351 116.787601,80.2527489 C116.79999,94.4584131 116.694657,105.94303 115.028097,109.198774 C114.599011,110.337604 113.964701,111.309968 112.963587,111.983876 C112.121575,112.550682 111.002155,112.922645 109.445413,112.922645 C108.683457,112.922646 108.01492,112.94733 107.426876,112.968896 C105.809131,113.028227 104.710889,113.001029 103.915124,112.650448 C103.070381,112.278291 102.425273,111.622706 101.997381,110.237773 C101.51358,108.671884 101.762704,107.147174 102.591391,105.811306 C103.36987,104.556375 104.689004,103.462266 106.414862,102.722267 C106.620117,102.63426 106.871649,102.515184 107.148134,102.384647 C107.462625,102.236168 107.802159,102.0764 108.143721,101.925006 C106.989157,95.8244034 106.25159,86.7261408 106.25159,76.5624245 C106.25159,73.0655172 106.338603,69.6950545 106.4998,66.5302715 L71.6890762,66.5302218 C71.8125207,70.7125941 71.835653,75.5394643 71.835653,80.6797187 C71.835653,86.8800163 72.2571952,92.733889 72.6042834,97.5617228 C72.8346043,100.765379 73.0314764,103.519353 73.0581384,105.637462 C73.1605213,106.270696 73.1330112,106.993291 73.0900147,107.752448 C73.0748021,108.021044 73.0593541,108.290789 73.052704,108.562267 C73.0338182,109.333268 72.8697797,109.936481 72.6145468,110.418776 C72.3035325,111.006477 71.8535891,111.438676 71.27036,111.75015 C70.2699184,112.284437 68.748663,112.398431 66.8558556,112.455085 C64.4122487,112.531117 62.6194473,112.526921 61.4390162,112.039833 C60.7617277,111.76036 60.241373,111.342363 59.8890357,110.7792 C59.5765849,110.279789 59.3855296,109.650764 59.4054027,108.839466 C59.4455555,107.200278 60.2463936,105.674738 61.5586481,104.555529 C62.405244,103.833476 63.4640411,103.283855 64.6422167,102.99283 C62.8494686,97.4150991 61.3153751,89.3811055 61.3153751,80.6797187 C61.3153751,75.543378 61.5465621,70.7180972 61.9514838,66.5302298 L5.25070612,66.5306208 C3.93668043,66.5306208 2.7720395,66.0313018 1.86554399,65.1543825 C1.01597527,64.332533 0.390786948,63.1632944 0.131674485,61.7461271 C-0.27419334,59.5263089 0.218074939,56.6481852 2.21679535,53.7098449 C4.78147611,49.93948 9.89663735,45.9991822 18.8963294,43.4595204 C27.6257264,40.9961344 34.3000855,40.3355228 38.5475342,39.9163347 C39.2130156,39.8506643 39.8086489,39.7922892 40.3378955,39.7341819 C40.0810476,39.4532742 39.8173952,39.1778272 39.5463365,38.9095776 C36.0198305,35.4196186 33.1496579,31.8108093 31.3528228,28.8028407 C30.3864987,27.1851785 29.7258989,25.7275634 29.4097583,24.5375237 C28.9927665,22.9678531 29.1851101,21.8007757 29.7198522,21.050454 C30.059154,20.5743636 30.5275607,20.2388304 31.1261191,20.0578744 C31.5922801,19.9169448 32.1543912,19.8731667 32.8038197,19.9561598 C33.8265563,20.0868595 35.1281251,20.5487811 36.6119734,21.3359801 C38.8810577,22.5397562 41.6326012,24.517794 44.4940658,27.0754851 C47.0432679,18.7473397 52.1156038,12.3744645 58.6703794,7.90444229 C66.4238747,2.61695469 76.2677719,0 86.45619,0 C96.3686051,0 104.932244,2.77955888 111.900961,7.97908552 C118.496984,12.900537 123.671259,20.0012109 127.177003,29.0202168 C130.295702,25.9731896 133.353577,23.5616053 135.800243,22.1001899 C137.201109,21.2634405 138.424113,20.7315253 139.371332,20.5222604 C139.992048,20.3851285 140.525035,20.3778427 140.958128,20.4647755 C141.593173,20.5922457 142.067329,20.9078771 142.397387,21.3710304 C142.856781,22.0156748 143.036639,23.0652641 142.564948,24.5454159 C142.235725,25.5785068 141.594955,26.8622772 140.680505,28.300309 C138.985468,30.9658682 136.332039,34.2089156 133.114761,37.3920047 C132.525895,37.9746123 131.971434,38.5890612 131.446224,39.2162417 C133.263302,39.5029344 136.225587,39.7576145 139.667404,40.0670538 L140.3931,40.1323396 C148.286727,40.8433666 158.316017,41.7627405 163.685781,43.4716358 C170.495826,45.6388915 174.717406,49.312115 177.153858,53.0034451 C178.992303,55.7887696 179.820169,58.6012895 179.97323,60.8503697 C180.075775,62.3571837 179.87214,63.6288223 179.490503,64.5317784 C179.236215,65.1334263 178.897115,65.5943182 178.519027,65.9146735 C178.035818,66.3240976 177.479543,66.5306208 176.876064,66.5306208 Z" id="Combined-Shape" stroke="#000000" stroke-width="2" fill="#99CAF4"></path>
                <ellipse id="Oval" fill="#000000" cx="61.5" cy="30" rx="2.5" ry="3"></ellipse>
                <ellipse id="Oval" fill="#000000" cx="105.5" cy="29" rx="2.5" ry="3"></ellipse>
                <circle id="Oval" fill="#FFFFFF" cx="106" cy="28" r="1"></circle>
                <circle id="Oval" fill="#FFFFFF" cx="62" cy="29" r="1"></circle>
            </g>
            <g id="charcece">
                <g id="Group-3" transform="translate(57.000000, 110.000000) scale(-1, 1) translate(-57.000000, -110.000000) ">
                    <path d="M107.096099,168.809855 C107.095751,168.994799 107.094557,169.173658 107.090545,169.343145 C107.055533,170.696163 107.025786,171.453029 106.968976,171.819878 C106.924835,172.104903 106.912333,172.374642 106.899455,172.623036 C106.849445,173.586356 106.702209,174.319067 106.342259,174.871655 C105.960142,175.458274 105.375803,175.975401 104.214476,176.180795 C103.594284,176.290481 103.072613,176.239738 102.631405,176.0918 C102.079923,175.906892 101.615947,175.570924 101.249911,175.039534 C100.863002,174.477839 100.563032,173.563147 100.504271,172.14135 C100.477686,171.498116 100.48722,170.718721 100.498029,169.92818 C100.01407,170.265431 99.4960517,170.649687 98.9649096,170.901856 C98.4470064,171.147741 97.9322852,171.220276 97.4474589,171.174487 C96.929593,171.125578 96.4403648,170.936757 96.0183412,170.63913 C95.1678338,170.039321 94.6409407,168.992705 94.6589419,168.01618 C94.6853612,166.583007 95.7663263,164.939776 97.0057886,163.389796 C97.1482452,163.212921 97.2894821,163.042423 97.4258706,162.877823 C97.6444543,162.614026 97.9674886,162.364789 98.1859218,162.123344 C97.9469851,162.172485 97.7275733,162.260793 97.5101494,162.337768 C96.566229,162.67185 95.689788,162.957139 94.9899471,163.027563 C93.8546185,163.141806 93.0373938,162.793112 92.4842177,162.177518 C91.9863735,161.623499 91.7381182,161.068884 91.632687,160.543019 C91.5030546,159.896442 91.5841954,159.263953 91.8450966,158.655385 C92.2681018,157.668699 93.3291772,156.723457 94.2510751,156.00654 C96.3166936,154.339085 98.718853,153.462579 101.329252,152.874949 C100.793363,147.790988 100.107371,141.280324 98.7282096,133.009689 C96.6427937,144.190318 92.8546655,153.178061 87.6369029,159.61261 C87.2015599,165.103108 86.8218396,172.416817 87.4455226,181.361312 C88.3032369,193.662139 90.9077695,201.372243 92.3925543,205.768651 C92.7096162,206.707463 92.9770019,207.502496 93.1724851,208.165952 C94.4211106,209.437883 95.5128542,211.696685 95.5128542,214.613383 C95.5128542,215.621773 95.3125049,216.405688 94.997567,217.027086 C94.596959,217.81752 94.0048995,218.38631 93.2418753,218.783069 C91.9679232,219.4455 90.0320933,219.522824 87.751429,219.486468 C87.3064462,219.479375 86.8533099,219.472112 86.3948809,219.472106 C85.9765631,219.473144 85.542636,219.479162 85.1006828,219.485269 C82.5682115,219.520263 79.8212448,219.504448 77.9664772,218.827718 C76.9886434,218.470946 76.2161672,217.942059 75.6797957,217.256613 C75.1391207,216.565667 74.8072424,215.706106 74.8072424,214.613383 C74.8072424,213.664459 75.1979236,212.720463 76.0261233,211.851688 C76.6575874,211.189289 77.5733884,210.555667 78.6717331,209.992168 C80.4366002,209.086714 82.7036341,208.336022 84.7571588,207.789147 C81.8391989,202.865447 78.8916162,194.337098 78.1571627,183.804 C77.7863046,178.485373 77.8724498,172.841334 78.2689726,167.615101 C73.8592444,170.074155 68.8733428,171.362303 63.3659091,171.362303 C61.1847227,171.362303 59.0585383,171.130867 56.9962744,170.681623 C56.4655257,174.591539 55.974692,179.501641 55.974692,185.352433 C55.974692,194.80934 57.5523787,200.847883 58.4516856,204.291276 C58.8532068,205.828675 59.1050926,206.929851 59.1309824,207.644904 C59.2876995,208.365722 59.3774166,209.150183 59.3774166,209.987207 C59.3774166,210.995598 59.1770671,211.779511 58.8621292,212.400909 C58.4615211,213.191343 57.869462,213.760133 57.1064378,214.156892 C55.832486,214.819323 53.8966561,214.896646 51.6159882,214.860292 C51.1712553,214.853202 50.717983,214.845936 50.2550435,214.845936 C49.8156037,214.845936 49.3551166,214.852467 48.8836571,214.859116 C46.3969235,214.894191 43.6615985,214.878403 41.811916,214.196848 C40.8407223,213.83899 40.071949,213.30953 39.5380072,212.623166 C39.0015554,211.933576 38.6718046,211.076206 38.6718046,209.987207 C38.6718046,208.986404 39.1086113,207.986191 40.0395387,207.074719 C40.7512098,206.37792 41.7832395,205.717094 43.0005073,205.136443 C45.2563242,204.06039 48.1816163,203.226501 50.449835,202.718175 C49.0130581,198.713773 47.8978737,193.16212 47.8978737,186.731242 C47.8978737,180.403548 48.7669243,173.54425 49.9528686,168.182566 C41.5189079,163.95933 34.5057035,155.65805 29.7888814,144.304158 C29.7146936,146.75002 29.6697768,149.262004 29.6697768,151.812529 C29.6697768,160.910961 30.173257,167.854185 30.5330874,172.81991 C30.5895655,173.599317 30.6423644,174.328132 30.6897515,175.008871 C33.5762542,175.109755 36.2020081,175.531375 38.2057376,176.648799 C39.709329,177.448505 40.8774965,178.18576 41.451183,179.06278 C41.8135854,179.616799 42.0031247,180.225669 41.9874152,180.885166 C41.9746476,181.421175 41.8262819,182.010373 41.4320961,182.642404 C40.9941019,183.344679 40.24991,183.829889 39.1127009,183.915038 C38.4097832,183.967671 37.495288,183.838659 36.5637311,183.683348 C36.4010482,183.656187 36.2435587,183.629401 36.0913072,183.604553 C36.270498,183.844309 36.4745424,184.006721 36.6732019,184.176362 C38.7226231,185.973125 40.0312151,187.386747 40.3011468,188.771747 C40.4878821,189.729875 40.1505815,190.851956 39.4171351,191.590474 C39.0532578,191.95687 38.604387,192.227846 38.1031313,192.366118 C37.6335367,192.495655 37.1140171,192.513803 36.5613423,192.361829 C35.9914561,192.205119 35.4123552,191.910711 34.8604394,191.558885 C34.8619547,191.566856 34.8634695,191.574825 34.8649837,191.582794 C35.0296382,192.449565 35.1738043,193.214703 35.2589186,193.852159 C35.44721,195.262348 35.3103039,196.215182 35.0265741,196.835626 C34.7583164,197.422238 34.3598649,197.83359 33.8491696,198.111519 C33.4403571,198.334004 32.9355154,198.474746 32.3058964,198.474746 C31.1259681,198.474746 30.4606704,198.066857 29.9825486,197.555449 C29.5306577,197.072097 29.2590096,196.372548 29.0502973,195.464508 C28.9888381,195.197038 28.9297045,194.932574 28.8365388,194.65856 C28.7157543,194.303314 28.5542639,193.554729 28.3715936,192.656169 C28.3339513,192.471006 28.2954097,192.27762 28.2558681,192.079194 C28.2329515,191.964196 28.2102383,191.846452 28.1876125,191.726872 C27.969367,192.521871 27.7235519,193.329329 27.4135132,194.133471 C27.1315638,194.864759 26.7765715,195.272275 26.4609146,195.53588 C25.8462728,196.049164 25.241618,196.13079 24.7794153,196.145764 C23.8163789,196.185633 23.1521451,195.772183 22.6572662,195.052188 C22.3250884,194.568908 22.1049432,193.869363 21.998125,193.438097 C21.6727818,192.124557 21.9326798,185.051133 23.66491,180.259148 C21.4901205,175.220565 19.4508272,164.99091 19.4508272,153.414536 C19.4508272,142.34557 21.486262,126.655943 23.6645111,117.863689 C23.3804627,114.589823 23.2344905,111.203482 23.2344905,107.718488 C23.2344905,94.6024007 20.121565,64.5089162 15.3494036,44.3594612 C13.7931131,44.4853751 12.4260633,44.6066533 11.2391298,44.7119447 C10.1277489,44.810518 9.22464373,44.886498 8.71410505,44.886498 C8.43094934,44.886498 8.11813173,44.9039418 7.79021538,44.9216361 C6.27475344,45.0033839 4.6085564,44.995214 3.39846731,44.386113 C2.25716754,43.8116372 1.34765146,42.8191714 1.14040284,40.9487069 C1.05947022,40.2182726 1.24389101,39.4600997 1.76993579,38.707065 C2.1258732,38.1975394 2.66673754,37.6707599 3.36690587,37.1572127 C4.79685019,36.1084018 6.98737473,35.0444234 9.14883263,34.010222 C11.049901,33.1006782 12.8022282,32.2702962 13.9445755,31.4572462 C12.341444,31.0649615 10.0907763,31.0172485 8.04866269,30.9664234 C4.27807147,30.8724605 1.85914815,30.1980362 1.4269086,29.5485484 C0.781058781,28.5780878 0.5,27.6105091 0.5,26.7473166 C0.5,25.6867403 0.896078672,24.7364789 1.68717215,23.9910182 C2.61204584,23.119494 7.00876427,20.5116383 12.7129668,19.7349779 C15.7850938,19.31669 19.9639512,19.5862351 23.3890257,19.8198987 C23.8702114,19.8527259 24.3388818,19.8877378 24.7875316,19.9212635 C25.1209283,19.9461769 25.4491371,19.9768976 25.7651509,20.0088348 C24.0304594,18.6506548 21.5829495,17.0470528 19.3963727,15.6117677 C16.1015249,13.4489874 13.6983238,11.5051101 13.4913052,10.9234614 C12.976868,9.47807635 13.0587943,8.2812948 13.8048412,7.34090048 C14.3020478,6.71417016 15.2165492,6.06957703 17.1110617,5.79678523 C21.2815515,5.19627427 30.422749,6.91183439 34.2574918,7.86519807 C34.9564303,8.03896269 36.5092843,8.72236093 38.3330489,9.55070251 C39.7125453,10.1772754 41.2175014,10.8627078 42.5958045,11.4197663 C41.9774534,10.8907231 41.2833771,10.3390079 40.5373739,9.78661318 C39.7794693,9.22540588 38.8889081,8.73979247 38.0506698,8.2792545 C36.8986746,7.64629972 35.8842216,7.06784977 35.2081904,6.4826793 C34.2654962,5.66668629 33.8690689,4.78312279 33.8690689,3.9158148 C33.8690689,3.20132723 34.0706806,2.63050938 34.3867128,2.16199621 C34.7109969,1.68124989 35.1732378,1.29683843 35.7669886,1.02585139 C36.6603733,0.61811174 37.9676982,0.504492874 39.2380625,0.5 C46.456698,0.5 58.7096313,3.82039913 64.8738721,13.7804228 C68.0916149,18.9795698 70.7554428,26.7197944 73.4982578,34.7562432 C75.243298,39.8692144 77.0171907,45.0695771 79.0117959,49.782535 C80.719612,53.8178532 82.6387045,58.1009046 84.6078246,62.49581 C90.1335055,74.8286523 96.0337783,88.0250027 98.8598103,99.1456259 C102.189274,105.460165 106.574666,118.560941 108.682441,130.548775 C110.567257,141.26855 110.643684,151.155456 109.748359,157.060198 C112.179961,161.479776 113.582892,168.109177 113.49216,169.427155 C113.46165,169.870352 113.366039,170.597407 113.122653,171.131056 C112.733372,171.984598 112.073975,172.463521 111.274692,172.569362 C110.689319,172.651861 110.116907,172.644937 109.461062,172.268489 C109.104343,172.063735 108.683898,171.724048 108.279352,171.052544 C107.826687,170.301167 107.438989,169.534793 107.096099,168.809855 Z" id="Combined-Shape" stroke="#000000" stroke-width="2" fill="#F3A7A7" fill-rule="nonzero"></path>
                    <g id="Group-2" transform="translate(23.542289, 53.677255)">
                        <path d="M12.1705958,25.0093383 C10.4998294,26.739288 8.49003523,27.4847487 6.9008139,27.4847487 C6.14608262,27.4847487 5.57430293,27.2168151 5.174208,26.7194106 C4.78327477,26.2333961 4.55677937,25.5142735 4.50951127,24.57871 C4.4191538,22.7902913 4.97986533,20.185204 6.17200383,16.9610373 L6.34883984,16.482519 C7.54112884,13.2549881 8.25545868,11.3537059 9.0638754,10.2397681 C9.83393382,9.17868505 10.6871895,8.79183435 12.0354787,8.79183435 C12.7834839,8.79183435 13.429007,9.06618705 13.9568367,9.57884405 C14.476277,10.0833529 14.8819883,10.8246085 15.1501938,11.7696216 C15.6557471,13.5509218 15.6762853,16.0698805 15.0928426,19.0502229 C14.5718991,21.7113073 13.4735182,23.6602626 12.1705958,25.0093383 Z" id="Oval" stroke="#000000" fill="#AD6161" fill-rule="nonzero" transform="translate(10.015054, 18.138292) rotate(-150.000000) translate(-10.015054, -18.138292) "></path>
                        <path d="M31.8348194,16.9889001 C31.0801172,16.9878588 30.5079313,16.7198289 30.1071477,16.2229818 C29.715109,15.7369758 29.487521,15.0183752 29.4389426,14.0838073 C29.3460688,12.2970725 29.9039303,9.69538546 31.0932324,6.47605924 L31.2696251,5.99831896 C32.459049,2.77569856 33.1717652,0.877327809 33.9796932,-0.234394321 C34.7492686,-1.29334244 35.6029277,-1.67904594 36.9530407,-1.67726073 C37.7012067,-1.67622079 38.3472415,-1.40157012 38.8758732,-0.889248911 C39.3964856,-0.384699261 39.8034854,0.356140459 40.0732096,1.30025866 C40.5817801,3.08041359 40.6057283,5.59678475 40.0255698,8.57329506 C39.5074946,11.2312859 38.4102154,13.1769812 37.1073439,14.5230784 C35.4369672,16.2488736 33.4259426,16.9910191 31.8348194,16.9889001 Z" id="Oval" stroke="#000000" fill="#AD6161" fill-rule="nonzero" transform="translate(34.943353, 7.655820) scale(-1, 1) rotate(-100.000000) translate(-34.943353, -7.655820) "></path>
                        <ellipse id="Oval" fill="#000000" fill-rule="nonzero" cx="19.3263136" cy="41.2599747" rx="3.07367273" ry="4.2378653"></ellipse>
                        <ellipse id="Oval" fill="#000000" fill-rule="nonzero" cx="39.3051864" cy="27.3905972" rx="3.07367273" ry="4.2378653"></ellipse>
                        <ellipse id="Oval" fill="#FFFFFF" fill-rule="nonzero" cx="20.4789409" cy="38.9484116" rx="1.15262728" ry="1.15578145"></ellipse>
                        <ellipse id="Oval" fill="#FFFFFF" fill-rule="nonzero" cx="40.4578137" cy="25.0790343" rx="1.15262728" ry="1.15578145"></ellipse>
                        <path d="M45.457711,68.322745 C37.9143868,77.3328362 27.2321137,78.0976714 19.3263136,74.6230529" id="Path" stroke="#000000" stroke-width="2" stroke-linecap="round" stroke-linejoin="round"></path>
                    </g>
                </g>
            </g>
            <path d="M181,145.733333 C181,144.429788 181.598645,142.874567 182.53753,141.704091 C183.321207,140.727107 184.350942,140 185.5,140 C186.649058,140 187.678793,140.727107 188.46247,141.704091 C189.401355,142.874567 190,144.429788 190,145.733333 C190,146.908915 189.498196,147.971999 188.690526,148.741979 C187.873999,149.520401 186.745473,150 185.5,150 C184.254527,150 183.126001,149.520401 182.309474,148.741979 C181.501804,147.971999 181,146.908915 181,145.733333 Z" id="Oval" stroke="#000000" fill="#000000" fill-rule="nonzero"></path>
        </g>
    </g>
</svg>